<svg width="445" height="251" viewBox="0 0 445 251" fill="none" xmlns="http://www.w3.org/2000/svg">
<path d="M0.908651 248.325C0.908651 249.798 2.10256 250.992 3.57532 250.992C5.04808 250.992 6.24198 249.798 6.24198 248.325C6.24198 246.852 5.04808 245.658 3.57532 245.658C2.10256 245.658 0.908651 246.852 0.908651 248.325ZM439.095 8.7584C439.095 10.2312 440.289 11.4251 441.762 11.4251C443.235 11.4251 444.429 10.2312 444.429 8.7584C444.429 7.28564 443.235 6.09173 441.762 6.09173C440.289 6.09173 439.095 7.28564 439.095 8.7584ZM4.06037 248.446C6.57826 238.381 10.0951 227.414 14.6848 215.88L13.7557 215.511C9.1506 227.083 5.61965 238.092 3.09026 248.204L4.06037 248.446ZM46.7536 155.283C58.7608 137.332 73.2341 119.363 90.3906 102.369L89.6869 101.658C72.4799 118.702 57.9644 136.724 45.9224 154.727L46.7536 155.283ZM143.76 59.3406C162.087 47.439 182.379 36.8154 204.758 28.0292L204.392 27.0984C181.949 35.9098 161.598 46.5646 143.215 58.502L143.76 59.3406ZM270.705 9.11002C291.996 5.05228 314.734 2.53531 338.984 1.85811L338.956 0.858497C314.654 1.53715 291.863 4.05964 270.518 8.1277L270.705 9.11002ZM407.517 4.64779C418.637 5.81823 430.024 7.34594 441.681 9.25185L441.843 8.26495C430.167 6.35605 418.761 4.82576 407.622 3.65329L407.517 4.64779Z" fill="#4259CC"/>
</svg>
