<svg width="1840" height="1194" viewBox="0 0 1840 1194" fill="none" xmlns="http://www.w3.org/2000/svg">
<g filter="url(#filter0_f_1_12)">
<path d="M1840 393.912C1836.71 390.176 1833.97 387.078 1830.83 383.506C1828.16 382.852 1824.76 382.02 1820.06 380.876C1820.06 384.345 1820.06 387.234 1820.06 389.998C1815.24 389.426 1814.66 385.422 1814.54 381.834C1814.33 375.491 1811.31 371.495 1806.03 368.338C1802.5 366.228 1799.54 363.175 1796.3 360.575C1791.38 356.631 1786.7 352.308 1781.42 348.914C1777.02 346.091 1771.93 344.36 1766.73 341.961C1758.33 345.653 1749.68 339.577 1739.75 340.03C1740.99 345.096 1742.02 349.255 1743.24 354.18C1741.19 355.472 1738.86 356.943 1737.2 357.991C1733.25 354.447 1730.28 351.788 1726.74 348.602C1728.4 347.398 1729.69 346.566 1730.86 345.586C1732.02 344.613 1733.06 343.491 1734.36 342.243C1732.03 341.114 1730.49 340.364 1729.77 340.015C1726.58 343.313 1723.88 346.113 1721.17 348.914C1712.11 346.774 1703.39 345.801 1694.73 346.143C1690.18 346.321 1686.87 345.727 1685.63 341.842C1684.97 337.2 1684.31 332.565 1683.77 328.806C1670.6 322.373 1668.87 322.344 1657.76 325.56C1653.86 326.689 1649.68 326.867 1647.58 327.187C1641.39 321.304 1636.58 316.728 1630.67 311.105C1632.13 310.689 1633.51 310.303 1634.9 309.909C1630.57 304.621 1626.02 302.541 1620.07 303.989C1619.39 305.616 1618.72 307.176 1617.94 309.011C1615.75 308.706 1613.8 308.439 1611.48 308.119C1612.07 305.356 1612.55 303.135 1613.02 300.974C1602.36 296.197 1591.79 293.984 1581.45 301.553C1581.85 306.693 1582.26 312.034 1582.74 318.169C1579.9 317.352 1578.1 316.832 1576.49 316.372C1574.74 318.429 1573.36 320.063 1571.32 322.463C1570.99 320.004 1570.82 318.771 1570.61 317.263C1567.81 316.342 1565.06 315.443 1562.37 314.559C1559.29 316.372 1556.29 318.125 1553.1 319.997C1550.37 317.122 1547.93 314.537 1545.45 311.922C1541.49 316.669 1543.92 324.594 1537.32 329.423C1533.89 325.278 1529.95 322.5 1527.62 317.048C1524.95 310.801 1522.54 303.269 1514.77 300.535C1518.31 296.851 1521.87 293.159 1525.92 288.963C1523.55 286.407 1521.97 284.699 1520.58 283.198C1517.35 284.09 1515.18 284.691 1513.79 285.07C1509.88 282.597 1506.7 280.576 1503.14 278.326C1501.69 279.113 1499.92 280.071 1497.72 281.26C1498.29 284.171 1498.84 286.979 1499.5 290.389C1497.2 291.748 1494.73 293.211 1492.65 294.437C1485.56 292.498 1479.1 290.738 1473.15 289.111C1472.48 286.043 1472.06 284.082 1471.68 282.396C1466.56 281.23 1461.97 280.183 1457.38 279.143C1457.45 279.418 1457.52 279.685 1457.58 279.96C1453.61 280.443 1449.65 280.918 1445.85 281.386C1445.25 279.47 1444.92 278.393 1444.55 277.234C1436.99 280.717 1433.24 273.601 1427.45 272.212C1427.45 270.043 1427.45 268.298 1427.45 266.463C1431.3 263.67 1435.28 261.115 1438.87 258.099C1444.95 253.011 1448.03 246.163 1448.56 238.393C1448.74 235.801 1447.64 230.95 1446.61 230.802C1439.4 229.799 1440.26 221.68 1434.85 218.783C1430.24 218.783 1425.13 218.783 1419.79 218.783C1418.98 219.719 1418.07 220.774 1417.06 221.933C1415.03 221.591 1412.99 221.249 1410.78 220.878C1412.35 217.862 1413.66 215.366 1414.77 213.257C1410.57 211.155 1407.1 209.416 1403.86 207.79C1405.51 204.596 1406.57 202.568 1407.66 200.451C1404.39 198.713 1401.66 197.257 1397.89 195.251C1394.18 198.884 1390.13 202.783 1386.16 206.75C1381.56 211.348 1385.73 218.189 1382.39 223.344C1379.21 223.797 1376.32 224.206 1373.43 224.614C1373.71 225.015 1373.99 225.416 1374.27 225.817C1371 228.922 1367.73 232.027 1363.77 235.778C1356.4 233.171 1348.89 227.882 1340.83 234.456C1340.98 235.05 1341.26 236.187 1341.55 237.36C1332.79 242.82 1319.75 241.706 1315.68 253.368C1312.02 254.935 1309.09 256.183 1306.14 257.446C1306.49 260.84 1306.78 263.663 1307.04 266.122C1308.82 269.145 1310.5 271.99 1312.63 275.614C1303.81 277.263 1296.49 279.15 1289.05 279.856C1283.63 280.368 1279.14 281.542 1276.98 284.795C1278.12 290.894 1279.01 295.685 1279.66 299.183C1283.55 303.001 1286.79 306.166 1290.24 309.545C1287.69 311.833 1286.19 313.185 1284.45 314.752C1279.26 310.147 1274.4 305.839 1269.88 301.828C1264.9 304.45 1260.76 306.626 1256.16 309.048C1255.99 310.771 1255.8 312.769 1255.63 314.53C1257.51 316.045 1259.08 317.315 1260.75 318.652C1257.37 322.76 1254.07 322.411 1249.72 318.771C1250.21 313.467 1250.74 307.778 1251.26 302.051C1250.19 307.154 1245.71 309.36 1241.73 311.61C1240.95 313.861 1240.28 315.792 1239.7 317.464C1241.88 322.314 1244 327.053 1246.01 331.532C1242.1 338.299 1241.15 344.88 1244.1 352.375C1247.48 351.632 1250.59 350.949 1254.05 350.191C1255.72 351.372 1257.49 352.628 1260.06 354.447C1254.85 355.926 1250.76 357.084 1246.16 358.392C1246.99 363.45 1247.7 367.766 1248.48 372.482C1243.8 379.027 1239.03 385.689 1233.84 392.932C1229.48 388.675 1222.01 393.155 1219.02 385.868C1223.83 384.516 1228.26 383.268 1233.02 381.923C1235.88 374.533 1238.57 367.565 1241.06 361.133C1238.63 358.176 1236.93 356.126 1235.5 354.381C1235.5 348.126 1234.19 341.998 1235.81 336.784C1238.15 329.259 1236.8 323.473 1232.32 318.823C1232.92 310.318 1240.11 303.685 1235.62 294.816C1230.15 294.571 1224.96 294.34 1219.55 294.095C1218.03 300.825 1216.54 307.414 1214.83 315.005C1212.74 316.802 1210.01 319.165 1207.99 320.91C1208.8 328.026 1209.51 334.31 1210.19 340.267C1208.68 341.471 1207.64 342.295 1206.26 343.395C1209.12 344.702 1211.19 345.653 1212.22 346.121C1214.55 350.771 1216.39 354.425 1218.68 358.986C1218.56 359.224 1217.78 360.798 1217.07 362.202C1215.38 362.202 1213.78 362.202 1212.97 362.202C1206.98 357.842 1201.64 353.578 1195.9 349.939C1192.53 347.799 1188.65 346.277 1184.8 345.155C1178.1 343.201 1171.14 341.939 1167.42 334.54C1166.44 335.833 1165.76 336.739 1165 337.742C1167.45 340.357 1169.68 342.748 1171.91 345.133C1172.43 344.68 1172.82 344.338 1173.21 343.996C1174.49 347.725 1175.76 351.454 1177.15 355.495C1175.79 356.772 1174.29 358.184 1172.75 359.64C1169.84 358.325 1167.18 357.121 1164.49 355.903C1162.34 357.835 1160.35 359.625 1158.47 361.318C1155.12 361.318 1152.11 361.318 1149.11 361.318C1149.2 361.645 1149.29 361.965 1149.37 362.291C1146.44 363.264 1143.49 364.237 1140.17 365.337C1139.7 361.563 1139.41 359.164 1138.86 354.693C1136.02 358.548 1134.46 360.694 1132.88 362.834C1123.77 364.49 1117.04 370.789 1109.39 375.365C1109.12 377.704 1108.86 380.052 1108.53 382.941C1105.39 383.691 1102.35 384.427 1099.21 385.177C1097.13 381.574 1095.43 378.625 1093.62 375.491C1096.75 372.95 1099.21 370.975 1101.88 368.806C1100.35 366.206 1099.03 363.963 1097.5 361.378C1094.89 361.534 1092.4 361.675 1091.22 361.742C1090.7 367.535 1090.26 372.438 1089.73 378.365C1090.36 379.71 1091.5 382.109 1092.58 384.397C1091.7 387.606 1090.87 390.622 1089.92 394.09C1086.58 392.189 1083.64 390.525 1081 389.017C1076.15 393.652 1071.72 397.886 1067.48 401.927C1069.27 407.602 1069.27 407.602 1066.4 411.516C1063.91 411.197 1061.48 410.885 1059.07 410.581C1057.71 409.295 1056.12 407.788 1054.5 406.243C1053.32 407.312 1052.66 407.906 1051.14 409.296C1053.53 411.62 1055.8 413.834 1058.44 416.397C1058.28 417.422 1058.01 419.078 1057.79 420.43C1050.06 422.74 1047.98 414.837 1041.9 413.76C1041.55 408.092 1041.21 402.692 1040.76 395.427C1039.8 394.477 1037.42 392.1 1034.84 389.537C1035.63 388.282 1036.58 386.752 1037.24 385.697C1043.9 388.037 1049.92 390.013 1055.84 392.263C1062.78 394.9 1069.07 392.88 1072.61 386.603C1076.11 380.401 1074.55 373.716 1068.66 369.199C1061.71 363.866 1054.81 358.459 1048.56 353.593C1041.22 351.142 1034.46 348.884 1026.47 346.217C1029.27 345.185 1030.59 344.702 1031.91 344.212C1031.93 343.87 1031.96 343.528 1031.99 343.187C1026.55 343.187 1021.11 343.187 1014.23 343.187C1016.33 341.471 1016.96 340.966 1018.15 339.985C1016.95 339.658 1015.86 339.369 1014.38 338.968C1017.64 337.081 1019.51 335.989 1022.09 334.496C1016.4 330.173 1011.27 326.266 1005.67 321.995C1004.72 324.409 1004.02 326.199 1003.32 327.982C1001.22 326.689 999.198 325.441 998.106 324.773C994.493 325.642 991.668 326.318 989.899 326.749C987.788 330.737 985.997 334.117 983.923 338.024C980.466 337.504 977.374 337.036 974.081 336.539C975.152 338.299 976.14 339.926 977.121 341.552C976.884 341.998 976.638 342.451 976.4 342.897C973.605 341.842 970.811 340.787 967.912 339.695C968.551 341.983 969.25 344.472 969.859 346.626C967.183 352.828 961.467 349.099 957.765 351.12C954.137 355.049 950.562 358.919 946.392 363.435C946.526 364.995 946.734 367.469 946.942 369.964C945.084 370.239 943.367 370.492 942.259 370.655C938.55 376.761 935.086 382.466 931.607 388.193C932.938 389.441 933.896 390.347 936 392.323C924.047 393.452 928.701 404.304 924.768 411.331C923.244 409.221 922.59 408.315 921.847 407.283C921.141 408.478 920.412 409.704 919.684 410.93C920.554 411.561 921.379 412.163 921.119 411.977C917.945 416.619 915.053 420.846 911.24 426.417C908.326 428.155 903.806 430.859 898.372 434.105C897.637 435.464 896.336 437.849 895.013 440.292C895.719 441.681 896.596 443.39 898.068 446.287C894.767 445.603 892.783 445.195 890.344 444.697C890.456 446.688 890.515 447.795 890.567 448.872C894.254 449.696 897.614 450.454 900.967 451.204C900.915 451.761 900.87 452.318 900.818 452.868C897.451 453.232 894.091 453.603 890.486 453.99C890.872 456.292 891.207 458.313 891.482 459.969C893.585 459.702 895.355 459.479 898.744 459.048C895.882 462.68 894.083 464.968 892.76 466.647C893.006 470.264 893.214 473.31 893.466 476.935C897.941 481.792 897.941 481.792 903.895 481.57C907.471 478.316 910.972 475.122 914.904 471.542C915.283 469.566 915.804 466.87 916.317 464.173C919.015 476.013 925.408 485.841 929.288 496.537C929.288 499.872 929.288 503.311 929.288 506.862C931.332 507.144 932.484 507.3 934.707 507.605C934.023 500.637 940.022 501.254 942.973 499.783C945.515 496.165 947.462 493.387 949.298 490.773C946.89 485.544 947.641 481.094 951.38 476.727C954.792 472.738 957.661 468.281 960.887 463.869C957.899 460.764 955.312 458.067 951.707 454.324C950.079 442.105 952.792 433.191 962.961 424.605C966.692 421.448 970.075 417.875 973.397 414.696C969.621 407.112 974.802 402.9 977.092 398.733C982.986 397.047 988.524 395.799 993.289 400.716C993.014 402.811 992.717 405.047 992.367 407.691C985.469 416.627 978.229 426.008 971.881 434.231C972.951 440.701 974.862 444.898 973.94 450.298C973.241 454.398 976.46 459.174 977.976 463.638C978.021 463.78 978.541 463.757 979.56 463.95C979.708 462.153 979.842 460.578 980.043 458.238C983.358 462.175 986.287 462.881 990.888 460.883C996.708 458.357 1003.28 457.548 1008.48 456.262C1011.86 458.81 1013.96 460.392 1015.72 461.715C1012.3 464.352 1008.95 466.929 1004.86 470.078C997.087 466.394 989.297 467.575 982.949 474.431C982.132 473.421 981.648 472.819 980.853 471.832C980.035 473.406 979.411 474.61 978.601 476.177C981.321 476.578 983.358 476.882 984.48 477.046C986.131 479.141 987.268 480.582 988.948 482.706C987.833 485.529 992.285 492.429 983.811 493.217C981.797 490.736 979.968 488.47 978.177 486.264C968.335 492.86 972.134 502.152 973.293 509.112C968.454 512.292 965.042 514.527 961.281 517.001C959.14 515.671 956.932 514.297 954.204 512.596C948.577 515.879 942.973 519.162 937.479 522.371C934.64 520.73 931.221 518.761 927.987 516.897C925.333 518.167 922.955 519.311 920.985 520.254C918.279 518.383 916.019 516.823 913.774 515.27C913.514 503.668 913.544 503.549 918.138 497.688C911.775 491.961 911.775 491.961 905.382 497.725C906.103 501.729 906.809 505.733 907.664 510.539C907.248 511.155 906.289 512.574 905.969 513.049C907.657 516.006 909.017 518.397 910.571 521.116C904.446 522.854 898.937 523.991 893.808 526.063C891.229 527.103 888.062 529.48 887.364 531.894C885.097 539.678 879.009 543.021 872.415 546.631C872.824 553.339 866.469 554.683 862.789 558.449C860.024 558.241 857.407 558.04 854.441 557.81C854.887 559.437 855.318 560.997 855.817 562.817C854.426 563.842 853.051 564.852 852.219 565.468C847.982 564.674 844.525 564.035 840.965 563.366C840.794 565.35 840.667 566.716 840.548 568.142C859.964 577.717 861.243 588.079 854.471 603.967C848.153 603.344 841.411 602.586 834.654 602.036C828.447 601.524 822.062 600.424 816.338 605.966C817.208 610.162 819.014 614.708 818.843 619.18C818.657 623.986 816.62 628.725 815.602 632.684C816.888 637.052 817.996 640.84 819.17 644.829C822.025 644.829 824.723 644.829 827.503 644.829C829.584 646.671 831.576 648.439 832.751 649.479C839.315 648.104 845.031 646.901 852.546 645.334C855.073 642.808 858.916 638.968 861.763 636.123C859.637 620.888 871.798 618.482 879.276 612.695C877.856 607.726 877.961 603.656 883.283 601.256C886.851 602.445 890.456 603.648 893.935 604.799C898.804 601.836 903.583 598.916 908.675 595.812C910.734 596.644 912.897 597.513 914.376 598.114C919.788 606.85 925.304 614.032 934.536 618.348C945.091 623.28 947.418 629.23 945.53 639.013C947.061 636.599 948.592 634.184 949.856 632.201C949.09 629.549 948.548 627.685 948.057 626.006C950.421 624.588 952.242 623.488 954.413 622.181C948.213 618.244 942.489 614.604 935.993 610.474C935.071 608.298 933.815 605.334 932.99 603.381C930.172 600.729 928.061 598.738 926.077 596.866C926.255 593.368 926.404 590.419 926.545 587.619C928.968 587.009 930.893 586.527 933.064 585.977C933.458 587.715 933.844 589.438 934.172 590.909C935.725 590.01 936.855 589.357 938.498 588.406C940.594 592.952 942.408 596.896 944.229 600.84C944.623 600.454 945.017 600.068 945.411 599.689C951.893 604.666 958.375 609.65 964.767 614.56C963.972 617.776 963.429 619.99 962.961 621.861C967.666 629.007 970.357 638.307 980.808 636.821C980.251 632.565 979.664 628.064 978.995 622.916C981.5 623.718 983.128 624.246 985.001 624.84C986.435 623.065 987.878 621.275 989.758 618.935C993.861 619.923 998.039 620.933 1002.97 622.121C1001.45 624.617 1000.42 626.311 1000.06 626.89C1001 630.574 1001.66 633.323 1002.42 636.049C1003.21 638.871 1004.09 641.672 1004.86 644.249C1011.05 647.295 1016.98 650.229 1023.49 646.337C1026.66 648.03 1029.52 649.553 1032.68 651.239C1035.94 649.805 1039.38 648.29 1042.77 646.805C1044.34 647.763 1045.84 648.662 1047.19 649.486C1047.61 653.512 1048.01 657.285 1048.53 662.21C1042.69 667.254 1044.97 677.556 1037.7 682.689C1032.35 681.954 1027.4 681.278 1021.43 680.461C1019.22 681.53 1016.09 683.046 1012.29 684.88C1000.2 681.033 987.58 677.021 973.122 672.424C972.044 672.958 969.212 674.377 966.061 675.959C967.495 681.917 967.718 687.079 962.054 687.918C956.613 685.92 952.413 684.695 948.503 682.838C946.028 681.664 943.723 679.814 941.828 677.816C938.594 674.407 935.078 672.112 930.18 672.134C923.49 672.164 918.353 668.851 913.715 664.075C915.596 661.898 917.32 659.907 918.725 658.273C918.212 654.418 917.774 651.105 917.231 647.035C916.302 646.582 914.473 645.69 914.198 645.564C909.017 646.121 905.538 646.767 902.052 646.805C895.065 646.879 887.802 646.374 881.164 647.428C871.546 648.959 862.395 653.386 853.044 656.58C853.155 656.907 853.274 657.241 853.386 657.568C848.577 657.568 843.76 657.568 838.935 657.568C836.958 656.008 835.04 654.5 832.624 652.591C831.785 663.332 825.429 668.635 817.133 671.54C815.714 677.861 809.239 682.578 814.547 689.226C808.325 694.046 805.173 701.905 797.561 701.727C793.904 706.607 790.894 710.626 787.891 714.644C788.062 714.711 788.225 714.785 788.396 714.852C783.579 723.617 778.77 732.382 773.351 742.246C779.194 740.545 779.706 742.952 779.863 746.012C780.063 749.905 780.457 753.782 780.881 759.011C779.424 763.275 777.476 768.987 775.462 774.9C776.205 776.497 778.086 778.577 777.752 780.203C776.755 785.017 778.844 787.208 782.464 790.038C787.073 793.64 791.28 798.313 794.194 803.371C796.922 808.11 799.278 812.433 804.341 815.219C808.191 817.336 811.506 820.507 814.822 823.479C818.442 826.725 823.132 829.012 827.101 826.903C835.821 822.26 844.302 823.323 853.207 825.766C854.293 825.209 855.356 824.719 856.367 824.132C863.986 819.727 872.371 818.182 881.001 817.529C888.709 816.942 891.757 822.023 893.481 828.166C901.316 826.948 908.4 826.531 914.562 833.625C913.626 837.31 911.24 841.506 911.968 845.057C912.934 849.714 911.351 852.633 908.021 856.34C914.049 863.426 919.907 870.304 926.277 877.799C928.961 887.396 931.875 897.795 935.108 909.368C933.391 912.332 931.429 916.187 929.042 919.76C923.289 928.376 923.743 942.608 928.559 951.901C932.388 959.284 937.412 966.162 937.65 975.514C937.851 983.247 940.356 991.291 943.493 998.474C947.225 1007.01 952.718 1014.77 957.126 1022.31C956.152 1037.49 957.668 1035.26 963.92 1039.84C972.624 1038.82 980.511 1037.6 988.435 1037.08C994.568 1036.68 1000.17 1035.21 1004.95 1031.42C1014.93 1023.54 1021.45 1012.68 1029.13 1002.82C1030.31 1001.3 1030.69 999.009 1030.98 997.011C1031.52 993.341 1031.71 989.627 1032.02 986.247C1036.88 983.729 1041.21 981.479 1046.16 978.909C1044.71 970.441 1043.41 962.82 1042.04 954.79C1050.13 947.904 1057.46 939.786 1067.71 936.636C1069.51 933.041 1070.97 930.122 1071.63 928.807C1071.21 919.849 1070.85 912.451 1070.47 904.421C1060.06 899.808 1070.21 887.188 1061.89 881.885C1067.08 865.863 1077.2 853.71 1089.62 844.685C1101.51 836.047 1111.49 826.561 1117.6 813.421C1120.96 806.171 1127.4 799.538 1124.65 790.84C1112.92 793.083 1101.41 795.289 1091.06 797.265C1085.08 793.432 1085.5 788.745 1085.54 784.214C1089.8 784.668 1094 785.143 1097.63 781.86C1098.62 780.968 1100.31 780.857 1101.67 780.359C1110.73 777.076 1119.79 773.793 1128.87 770.495C1129.99 768.638 1131.05 766.878 1132.37 764.679C1136.73 763.646 1141.3 762.569 1144.75 761.752C1149.95 757.511 1154.44 753.849 1158.93 750.187C1160.05 746.933 1162.09 744.401 1164.06 741.816C1166.19 739.03 1168.26 736.2 1171.09 732.397C1164.46 728.193 1158.16 724.211 1152.44 720.586C1152.26 717.311 1152.15 715.224 1152.06 713.56C1148.33 716.665 1144.83 721.716 1140.57 722.495C1136.72 723.194 1131.3 727.985 1127.9 722.748C1127.42 718.908 1127.04 715.922 1126.41 710.96C1125.49 714.822 1125.06 716.657 1124.63 718.492C1124.15 718.588 1123.66 718.685 1123.18 718.774C1122.01 715.795 1120.85 712.817 1119.32 708.91C1114.21 704.022 1110.53 697.211 1108.45 688.654C1113.42 688.654 1117.49 688.654 1121.69 688.654C1123.95 692.858 1126.03 696.758 1127.49 699.484C1132.15 702.722 1135.79 705.24 1140.57 708.568C1143.77 707.454 1147.81 706.043 1152.96 704.238C1154.9 706.689 1157.14 709.534 1159.86 712.995C1174.14 718.306 1189.94 716.865 1205.02 715.105C1210.66 721.262 1215.58 726.655 1220.83 732.39C1220.74 732.657 1220.41 733.704 1220.05 734.796C1222.3 737.188 1224.56 739.595 1227.26 742.484C1230.18 740.196 1232.77 738.161 1236.52 735.227C1238.03 748.545 1239.12 761.373 1244.57 773.355C1250 785.299 1254.31 797.748 1261.12 809.841C1265.62 804.522 1269.36 800.118 1273.4 795.356C1274.23 786.524 1275.1 777.373 1275.91 768.757C1289.68 763.854 1295.92 749.496 1308.89 744.401C1309.38 741.823 1309.82 739.543 1310.22 737.478C1327.02 732.352 1331.75 731.676 1336.51 733.845C1336.77 736.311 1337.04 738.963 1337.23 740.776C1340 745.782 1347.56 744.415 1347.86 751.271C1348.09 756.352 1348.92 761.411 1349.61 767.509C1354.45 769.217 1358.21 765.229 1362.4 760.571C1365.34 768.408 1369.25 775.316 1370.33 782.647C1371.48 790.387 1369.94 798.521 1369.56 807.063C1381.03 813.518 1378.66 827.438 1385.24 836.975C1389.1 839.248 1393 841.536 1397.68 844.284C1396.15 837.042 1394.89 831.122 1393.17 822.981C1390.47 821.228 1385.43 818.985 1381.85 815.315C1378.35 811.728 1376.34 806.691 1372.87 800.935C1373.31 794.45 1375.5 787.022 1380.37 778.703C1381.74 782.112 1382.37 783.672 1383.15 785.618C1393.13 783.858 1393.18 797.102 1401.68 797.28C1401.99 800.229 1402.23 802.524 1402.58 805.934C1410.66 799.954 1418.1 794.45 1425.87 788.701C1424.88 782.632 1423.98 777.136 1423.32 773.05C1416.6 765.243 1410.81 758.506 1404.46 751.123C1408.99 746.116 1413.05 741.622 1416.69 737.611C1420.42 737.611 1423.48 737.611 1426.6 737.611C1427.16 739.075 1427.76 740.649 1428.63 742.937C1430.47 740.672 1431.88 738.941 1432.18 738.57C1442.58 734.945 1451.4 731.87 1462.47 728.014C1475.35 724.078 1477.88 707.803 1488.42 696.602C1488.58 695.703 1489.03 693.162 1489.51 690.459C1488.91 689.887 1488.33 689.203 1487.62 688.698C1486.77 688.089 1485.8 687.643 1483.41 686.299C1486.19 685.638 1487.25 685.385 1488.78 685.021C1485.6 676.078 1485.21 665.902 1475.83 659.61C1478.1 655.614 1479.26 651.113 1485.12 649.887C1488.2 649.241 1490.82 646.359 1494.16 644.138C1489.94 643.091 1486.8 642.318 1484.42 641.724C1480.82 642.823 1477.81 643.744 1473.94 644.925C1474.49 642.719 1474.77 641.627 1475.04 640.506C1473.22 639.622 1471.25 638.671 1467.82 637C1474.45 630.738 1480.34 625.182 1486.8 619.076C1488.66 620.004 1490.62 620.985 1492.59 621.965C1491.05 625.375 1489.81 628.116 1488.19 631.681C1494.22 629.453 1498.97 627.707 1503.99 625.85C1504.31 628.235 1504.44 629.215 1504.58 630.233C1506.02 629.891 1507.09 629.639 1508.35 629.334C1507.78 632.32 1507.25 635.128 1506.7 638.002C1509.31 639.555 1511.56 640.899 1513.62 642.118C1513.62 648.208 1513.62 654.129 1513.62 660.309C1520.08 661.854 1523.79 657.657 1528.19 655.206C1528.19 651.492 1528.19 648.201 1528.19 644.249C1525.06 639.785 1521.58 634.853 1517.81 629.49C1521.64 623.86 1532.09 622.485 1530.74 613.594C1534.75 609.925 1538.03 606.924 1541.43 603.812C1549.25 608.469 1553.3 607.34 1559.28 599.362C1566.74 589.424 1574.14 579.507 1580.46 568.759C1582.83 564.74 1584.37 561.064 1584.6 556.384C1584.92 550.189 1584.27 543.526 1589.34 538.505C1594.4 537.235 1595.07 541.431 1595.15 544.254C1595.29 549.565 1594.16 554.906 1593.83 560.246C1593.7 562.415 1594.23 564.629 1594.46 566.82C1597.12 562.438 1597.64 556.956 1603.4 557.246C1601.45 545.755 1599.58 534.769 1597.78 524.176C1597.14 524.615 1595.74 525.595 1594.32 526.576C1593.82 528.685 1593.32 530.81 1592.6 533.81C1590.65 532.251 1589.58 531.396 1588.45 530.498C1589.47 528.975 1590.3 527.742 1590.95 526.776C1587.33 523.805 1583.75 520.871 1580.4 518.123C1577.16 520.663 1574.6 522.668 1570.79 525.654C1570.27 516.867 1565.4 514.654 1558.89 514.238C1559.46 512.284 1559.44 510.546 1560.31 509.647C1568.22 501.372 1576.32 493.276 1584.27 485.031C1585.24 484.036 1585.45 482.349 1586.31 481.22C1591.51 474.446 1596.59 467.412 1606.88 469.507C1609.4 470.019 1611.94 470.383 1614.37 470.792C1615.19 469.848 1615.88 469.076 1616.2 468.697C1619.6 469.313 1622.46 469.841 1625.62 470.413C1627.42 468.987 1629.5 467.345 1631.78 465.54C1635.81 466.513 1639.7 467.456 1643.48 468.37C1643.13 470.346 1642.83 472.069 1642.44 474.26C1648.41 472.953 1653.83 471.757 1659.78 470.457C1658.38 469.15 1657.01 467.865 1655.66 466.602C1662.74 456.389 1667.23 443.234 1682.55 442.461C1684.39 443.999 1685.98 445.329 1686.72 445.945C1686.72 449.533 1686.72 452.125 1686.72 455.72C1692.01 451.546 1696.51 448.003 1701.72 443.888C1701.96 441.837 1702.32 438.658 1702.72 435.145C1705.23 435.42 1707.2 435.642 1709.58 435.902C1708.85 438.086 1707.87 439.728 1707.81 441.392C1707.57 448.456 1705.92 454.398 1698.84 457.986C1696.42 459.211 1695.07 462.465 1693.12 464.678C1686.48 472.21 1679.78 479.69 1673.11 487.193C1670.7 489.295 1668.68 491.902 1667.32 494.821C1665.96 497.696 1664.31 500.934 1664.46 503.928C1664.93 513.094 1666.14 522.23 1667.2 531.367C1667.67 535.311 1668.46 539.218 1669.2 543.742C1676.04 539.441 1678.88 533.996 1679.78 527.809C1681.91 526.613 1683.68 525.617 1685.45 524.615C1685.65 522.082 1685.84 519.727 1686.03 517.216C1689.41 515.775 1692.57 514.438 1696.29 512.856C1692.27 505.421 1696.25 501.298 1701.05 499.085C1701.05 493.64 1701.05 489.421 1701.05 485.358C1699.05 484.132 1696.86 482.788 1694.66 481.443C1698.71 475.248 1700.32 470.821 1702.59 466.758C1704.57 463.193 1707.56 460.779 1711.95 463.267C1714.18 460.095 1716.55 458.313 1719.01 460.496C1724.26 458.87 1728.89 457.444 1732.7 456.262C1735.64 458.743 1737.38 460.214 1738.75 461.365C1748.67 450.595 1759.74 441.897 1772.87 436.066C1774.94 435.145 1777.92 436.445 1780.48 436.4C1782.54 436.363 1784.58 435.858 1787.04 435.501C1783.92 427.672 1781.3 421.098 1778.65 414.465C1781.25 412.601 1784.08 410.573 1787.45 408.159C1787.45 403.145 1787.45 397.931 1787.45 392.412C1789.82 393.674 1791.46 394.551 1793.07 395.405C1793.6 393.778 1793.91 392.85 1794.79 390.131C1796.14 394.752 1796.93 397.433 1797.9 400.716C1801.09 400.27 1803.82 399.892 1807.26 399.409C1808.89 402.358 1810.57 405.388 1812.28 408.471C1816.61 410.855 1821 413.284 1827.3 416.761C1826.14 412.965 1825.66 411.442 1825.04 409.437C1829.94 404.415 1834.94 399.201 1840 393.912Z" fill="#EFEFEF"/>
<path d="M1251.29 302.058C1251.46 301.256 1251.55 300.394 1251.54 299.436C1251.45 300.32 1251.38 301.189 1251.29 302.058Z" fill="#EFEFEF"/>
<path d="M432.041 791.345C430.986 785.336 433.387 778.725 434.279 772.411C430.473 770.629 427.291 769.143 425.693 768.393C417.881 768.853 411.771 769.21 405.37 769.589C408.901 758.863 412.053 749.318 415.257 739.572C413.599 738.778 411.763 737.894 410.395 737.233C406.404 738.324 403.036 739.238 399.907 740.092C398.182 744.727 396.584 749.043 395.291 752.527C388.452 753.945 382.981 755.082 377.518 756.218C374.515 754.792 371.363 753.299 369.683 752.497C358.986 739.557 357.41 726.499 362.71 711.933C360.793 707.276 361.967 702.655 365.877 699.031C369.319 696.542 372.768 694.054 377.837 690.392C383.985 690.719 392.459 691.157 400.375 691.573C402.085 689.508 403.378 687.941 405.021 685.95C412.283 686.856 419.583 687.77 426.883 688.683C426.838 689.092 426.793 689.5 426.756 689.909C428.369 689.359 429.982 688.81 430.659 688.572C433.617 690.927 435.959 692.784 437.884 694.314C437.862 703.807 440.842 711.131 449.51 717.89C449.576 712.505 450.245 708.471 449.51 704.705C448.625 700.137 447.042 695.547 444.879 691.424C441.89 685.727 443.087 680.78 447.019 676.71C452.089 671.465 457.85 666.882 463.425 662.151C463.886 661.757 464.741 661.831 464.949 661.913C468.792 658.214 471.78 655.347 474.619 652.621C473.817 649.181 472.917 645.312 472.048 641.598C474.894 638.277 478.686 635.529 474.872 630.649C482.105 630.73 481.354 625.457 481.986 620.814C482.149 619.603 484.038 618.63 485.472 617.226C486.015 619.507 486.357 620.948 486.617 622.032C489.174 621.431 491.211 620.955 493.857 620.339C493.582 619.21 493.262 617.917 493.024 616.937C495.158 615.644 497.202 614.404 498.577 613.564C500.681 613.564 502.13 613.564 504.442 613.564C501.588 611.878 499.588 610.69 497.484 609.449C497.737 608.038 497.641 606.708 498.191 605.75C504.063 595.462 514.804 592.751 524.847 589.082C525.597 588.807 527.084 590.56 528.578 591.615C526.475 593.36 524.735 594.801 522.691 596.502C523.687 598.233 524.52 599.682 524.891 600.328C532.109 596.584 538.925 593.041 546.106 589.312C546.396 587.96 546.805 586.088 547.028 585.026C541.505 584.261 536.287 583.548 529.723 582.642C531.492 580.443 532.228 579.522 533.112 578.423C531.477 577.264 529.857 576.12 527.82 574.679C529.106 570.519 530.332 566.553 531.789 561.836C520.684 557.543 513.332 563.879 506.553 570.029C503.624 568.848 500.934 567.853 498.347 566.627C497.96 566.441 498.087 565.164 497.856 563.552C500.592 564.287 502.725 564.859 504.405 565.312C510.062 560.588 515.332 556.191 521.643 550.924C531.656 550.924 543.081 550.924 554.758 550.924C556.699 548.533 558.542 546.267 561.017 543.222C565.031 541.781 569.93 540.02 575.178 538.133C575.178 534.88 575.178 530.98 575.178 526.234C573.275 525.045 571.045 523.656 570.027 523.025C567.573 519.318 566.146 514.572 563.775 514.045C554.758 512.039 550.068 505.361 544.508 498.899C544.567 495.2 546.24 491.018 542.939 487.638C546.18 483.441 534.956 482.609 540.345 478.754C536.666 472.448 533.313 466.714 529.329 459.895C527.842 464.656 526.802 467.991 525.761 471.326C525.456 471.133 525.151 470.933 524.847 470.74C523.204 473.302 521.554 475.865 519.658 478.821C518.588 479.282 516.967 479.973 515.882 480.44C512.002 477.997 508.568 475.835 505.364 473.815C504.814 467.575 504.271 461.336 503.855 456.649C496.734 449.741 490.527 443.724 484.208 437.596C476.976 443.472 469.557 434.915 461.871 438.131C462.622 446.606 463.351 454.933 464.086 463.252C464.614 463.289 465.135 463.326 465.662 463.356C463.804 467.546 461.938 471.735 459.797 476.556C469.892 481.124 467.55 491.946 471.579 499.842C466.093 504.938 460.578 510.063 454.557 515.656C455.568 519.601 456.475 524.54 458.11 529.227C460.459 535.979 458.734 540.711 451.472 544.046C448.246 540.132 444.893 536.054 440.946 531.263C443.786 530.401 445.302 529.948 447.978 529.138C444.648 527.742 442.582 526.88 439.876 525.751C439.623 520.633 439.371 515.523 439.095 510.033C437.705 509.885 436.234 509.476 434.806 509.603C425.106 510.487 417.702 505.473 411.057 499.627C404.255 493.64 397.186 490.082 388.14 492.867C386.192 486.918 384.386 481.384 382.803 476.548C379.614 475.308 377.458 474.468 375.25 473.607C372.01 456.597 381.39 444.504 389.344 432.196C391.901 431.72 393.901 431.349 395.387 431.074C397.35 426.343 399.074 422.168 400.613 418.454C402.159 418.811 403.475 419.583 404.307 419.234C411.302 416.307 413.911 410.023 415.234 403.323C415.814 400.404 416.26 398.963 419.836 399.765C419.204 407.097 422.727 414.874 416.624 421.782C419.011 422.324 421.255 422.829 422.868 423.193C423.812 425.266 424.459 426.677 425.507 428.98C428.904 424.515 431.603 420.965 434.591 417.043C438.233 419.591 441.89 422.146 445.823 424.894C447.421 422.792 448.543 421.321 449.889 419.561C446.848 419.249 444.522 419.004 442.128 418.759C441.615 416.122 441.177 413.864 440.894 412.415C435.29 407.944 430.406 404.051 426.288 400.776C429.202 396.371 431.699 392.597 434.866 387.806C444.983 382.443 445.265 381.411 440.225 369.444C439.252 367.134 439.274 364.401 438.843 361.883C440.731 361.081 442.567 360.301 443.734 359.803C446.67 352.212 439.185 350.459 437.044 345.549C433.022 344.776 428.823 343.967 422.675 342.778C424.422 347.866 425.589 351.246 426.206 353.044C424.504 357.374 422.876 360.642 421.939 364.104C420.43 369.682 420.007 375.691 414.394 379.777C412.417 377.08 410.715 374.763 408.745 372.074C409.436 367.662 410.15 363.064 410.797 358.941C408.329 356.134 406.366 353.905 404.59 351.877C402.419 355.287 400.085 358.956 397.283 363.354C396.547 357.671 395.952 353.096 395.395 348.772C392.585 346.648 390.05 344.724 387.441 342.756C388.288 340.163 388.972 338.046 389.247 337.207C387.783 331.428 386.861 326.533 385.278 321.854C383.427 316.394 379.658 312.494 373.92 310.92C373.251 310.734 372.344 311.41 371.17 311.818C371.734 314.218 372.255 316.439 372.812 318.801C371.155 319.454 369.571 320.078 367.356 320.955C367.943 328.71 368.523 336.435 368.992 342.637C372.909 344.286 375.473 345.37 378.291 346.551C378.291 350.927 378.291 354.811 378.291 359.328C379.829 357.953 380.58 357.27 382.156 355.859C379.785 364.906 375.295 370.366 371.556 369.645C369.504 368.093 367.453 366.548 364.918 364.631C366.977 361.831 368.761 359.394 370.225 357.396C369.333 354.343 368.56 351.714 367.869 349.352C364.948 346.886 362.131 344.494 360.116 342.786C357.158 347.034 354.459 350.912 351.791 354.752C353.991 356.044 356.236 357.367 358.644 358.785C357.574 361.326 356.615 363.614 355.612 365.99C358.622 367.298 361.246 368.449 364.123 369.697C363.766 371.197 363.446 372.497 363.223 373.426C355.247 371.197 347.873 371.457 340.47 373.092C336.032 371.517 331.297 370.462 327.231 368.219C323.447 366.132 319.515 363.324 320.422 357.827C319.196 357.233 317.962 356.631 316.49 355.911C312.431 358.139 308.321 360.39 303.385 363.101C306.284 365.359 307.882 366.592 308.848 367.342C308.848 370.848 308.848 373.842 308.848 378.128C306.707 377.095 303.214 376.219 303.192 375.268C303.058 369.556 298.828 370.239 295.803 370.603C290.882 371.197 286.08 372.817 280.973 374.065C277.205 372.631 273.332 371.16 267.296 368.865C271.652 366.258 273.904 364.906 276.55 363.316C274.581 360.746 272.633 358.206 270.633 355.599C260.472 358.733 253.306 351.231 243.398 349.493C242.186 347.948 240.328 345.578 238.767 343.58C235.682 343.58 233.333 343.58 231.423 343.58C228.457 345.72 229.639 351.677 223.87 350.124C223.283 346.856 222.681 343.543 221.685 337.98C220.057 342.89 219.105 345.757 218.065 348.891C208.141 347.658 211.88 336.397 205.436 332.921C204.313 335.632 203.198 338.336 202.076 341.033C200.485 341.76 198.887 342.488 196.902 343.402C194.211 338.329 191.007 338.589 186.926 341.976C183.507 344.821 179.709 348.104 175.613 348.958C172.365 349.634 168.492 347.421 165.452 351.164C165.898 353.504 166.366 355.94 167.183 360.212C158.925 355.747 152.124 352.07 145.233 348.342C139.264 345.861 133.087 343.291 126.91 340.728C127.006 340.282 127.103 339.837 127.199 339.391C124.025 339.889 120.851 340.379 117.35 340.929C115.722 340.074 113.767 338.626 111.575 337.98C105.695 336.264 99.7184 334.897 92.2404 333.003C90.3003 333.322 86.5613 333.931 82.748 334.555C80.4883 331.874 78.6077 329.638 76.2959 326.89C73.8801 327.343 71.0777 327.878 68.0151 328.45C67.4948 327.038 66.9745 325.612 66.4839 324.282C64.4397 325.308 62.7821 326.132 60.5372 327.261C61.0278 324.951 61.2954 323.681 61.5407 322.507C59.5783 321.542 58.2105 320.873 56.6867 320.123C55.2446 322.507 54.1891 324.253 52.866 326.444C49.5879 327.157 46.0942 327.93 42.3849 328.739C42.1768 329.995 41.9018 331.725 41.6416 333.33C37.1965 334.607 32.9817 335.811 28.7001 337.044C25.9795 343.261 23.3853 349.181 20.962 354.722C16.1824 356.126 12.0048 357.359 7.76038 358.607C6.59335 370.15 22.8798 369.281 21.1999 379.576C24.1732 381.092 26.2843 382.169 28.6258 383.357C29.1387 384.739 29.7408 386.358 30.3057 387.881C33.0932 388.193 35.8213 384.196 39.2035 389.493C35.8064 390.22 33.1007 390.8 30.0381 391.454C29.1759 392.419 27.8602 393.905 26.8715 395.026C24.3219 394.269 22.3967 393.697 20.858 393.236C20.0551 391.268 19.453 389.782 18.4941 387.428C14.9707 389.53 12.2427 391.164 9.59642 392.746C9.20989 392.196 8.89769 391.736 8.26585 390.83C7.71578 392.88 7.41845 394.009 6.87581 396.044C5.96895 394.878 5.44861 394.202 5.12898 393.786C3.35984 395.687 1.4123 397.782 0.0148315 399.283C1.29337 400.538 2.64624 401.875 4.11061 403.316C4.63838 403.286 5.90205 403.227 7.26235 403.153C4.86138 409.711 9.06122 411.457 13.0455 412.898C16.7993 412.408 20.4788 412.712 24.084 412.319C27.4513 411.955 30.7443 410.848 34.1116 410.061C34.8773 414.287 35.5017 417.741 36.2227 421.767C35.7024 422.755 34.8921 424.307 34.4387 425.176C27.1168 428.125 20.4119 430.829 13.5435 433.6C14.6511 434.833 15.3944 435.65 15.1491 435.382C13.0232 439.29 11.1723 442.692 9.57412 445.633C10.6222 448.441 11.4176 450.565 11.6703 451.241C15.7958 452.378 18.9327 453.247 23.0136 454.368C20.2038 457.31 18.0927 459.523 16.0709 461.64C20.3079 465.51 24.5375 464.619 29.5401 460.177C30.4321 466.06 31.168 470.918 31.9113 475.828C33.6805 474.877 35.4719 473.911 37.7614 472.678C40.3631 474.283 42.9647 475.887 45.1724 477.254C47.7741 477.254 50.019 477.254 52.5984 477.254C52.5984 480.641 52.5984 483.59 52.5984 487.623C47.8559 491.961 42.5633 496.812 36.8471 502.041C32.3796 501.863 28.715 503.92 26.6783 509.209C33.5838 506.372 40.036 503.712 45.1204 501.625C55.0885 492.511 64.1275 484.244 73.33 475.828C71.2561 473.889 70.0742 472.782 68.1787 471.014C71.4791 468.333 74.3484 466.008 76.5486 464.218C78.0873 460.875 79.4922 457.845 80.9269 454.725C83.0008 455.267 84.0935 455.557 85.7586 455.995C84.7253 459.315 83.8036 462.264 82.8893 465.198C83.6029 465.755 84.2867 466.29 84.9632 466.825C84.1901 468.14 83.417 469.455 82.6514 470.762C87.4236 468.66 90.9396 464.314 95.355 463.037C101.317 461.313 100.714 458.179 99.8522 453.982C99.7555 453.492 100.209 452.898 100.246 452.801C102.907 452.489 105.331 452.199 107.962 451.887C114.593 460.281 123.535 463.683 134.135 463.089C137.465 464.106 140.795 465.124 144.787 466.35C148.08 469.618 152.161 473.659 157.082 478.531C158.605 478.257 161.4 477.759 164.433 477.209C163.608 479.609 162.887 481.696 161.988 484.31C164.983 485.209 167.659 486.011 170.878 486.977C170.135 490.453 169.473 493.573 168.782 496.804C169.555 498.297 170.372 499.872 171.145 501.358C173.034 500.749 174.907 500.139 176.825 499.515C175.985 498.186 175.197 496.945 174.461 495.787C176.49 494.427 178.46 493.113 180.504 491.746C181.768 494.078 183.031 496.396 184.258 498.661C187.477 500.815 190.636 502.932 193.639 504.945C194.345 518.368 194.345 518.368 196.679 521.473C199.838 522 202.923 522.52 206.29 523.084C203.414 529.666 203.659 530.535 208.907 533.558C209.777 534.055 210.951 534.018 213.174 534.471C210.401 536.418 208.773 537.562 208.186 537.97C206.513 542.642 205.227 546.23 204.38 548.57C210.342 554.007 216.273 559.422 222.532 565.134C220.384 571.7 227.55 577.034 226.323 584.202C224.993 592.016 224.301 599.934 223.342 607.704C224.509 616.469 225.669 625.219 226.279 629.802C233.444 642.578 238.596 651.759 242.929 659.477C248.869 662.923 253.485 665.478 257.952 668.286C259.141 669.036 260.286 670.411 260.702 671.733C263.943 682.11 269.072 691.313 277.398 698.615C276.186 700.798 275.175 702.618 274.454 703.926C278.758 706.808 282.363 709.222 285.411 711.264C286.831 719.034 286.831 719.034 293.387 722.77C292.688 720.111 292.606 718.031 291.655 716.501C286.533 708.226 281.412 699.937 275.829 691.974C273.168 688.186 271.786 684.442 271.763 679.956C278.639 679.554 281.271 680.245 282.341 684.464C284.905 694.566 292.279 700.85 299.155 707.692C300.575 709.103 301.266 711.25 302.456 713.352C307.875 719.131 314.007 724.969 319.188 731.55C321.21 734.12 322.615 738.889 321.626 741.734C319.738 747.164 322.897 748.672 326.161 750.677C338.953 758.529 352.452 764.82 366.107 768.549C371.073 767.464 375.295 766.551 379.703 765.592C387.932 778.703 401.193 780.337 413.183 782.707C416.364 786.346 419.077 789.459 421.746 792.511C419.769 797.154 422.341 798.736 426.02 800.348C429.15 801.722 431.811 804.151 435.52 806.691C439.408 808.363 444.336 810.48 448.714 812.352C449.866 809.365 450.907 806.684 451.933 804.017C448.35 804.745 444.767 805.473 441.236 806.194C437.802 800.942 432.948 796.493 432.041 791.345Z" fill="#EFEFEF"/>
<path d="M464.957 661.92C464.927 661.943 464.912 661.966 464.882 661.996C465.033 661.981 465.033 661.951 464.957 661.92Z" fill="#EFEFEF"/>
<path d="M451.933 804.025C452.067 803.995 452.193 803.973 452.32 803.943C452.431 803.869 452.528 803.824 452.632 803.765C452.439 803.735 452.253 803.705 452.059 803.683C452.022 803.794 451.978 803.906 451.933 804.025Z" fill="#EFEFEF"/>
<path d="M727.353 337.541C721.897 335.937 717.698 334.704 711.721 332.951C715.297 331.792 717.162 331.19 718.902 330.626C719.021 328.36 719.125 326.288 719.154 325.657C725.428 323.391 730.386 321.601 735.939 319.588C737.909 323.621 739.931 327.751 741.923 331.822C745.127 331.822 747.751 331.822 750.635 331.822C752.619 322.106 747.505 314.73 743.655 307.436C744.666 304.257 745.543 301.501 746.628 298.092C744.703 296.747 742.644 295.321 740.786 294.021C738.667 295.833 737.277 297.014 735.025 298.938C733.583 295.18 732.52 292.387 731.122 288.732C734.452 289.252 736.801 289.624 739.269 290.01C738.63 288.48 738.169 287.388 737.567 285.962C735.82 285.665 733.806 285.323 733.047 285.197C732.014 281.148 731.189 277.925 730.364 274.716C734.073 276.194 737.745 277.657 741.588 279.195C741.863 281.594 742.161 284.134 742.532 287.343C747.936 285.427 752.642 283.763 757.54 282.025C755.935 279.358 759.138 275.421 754.337 274.827C752.887 276.38 751.438 277.932 749.988 279.492C750.218 269.717 761.168 270.816 765.018 263.589C761.978 262.623 759.101 261.709 754.887 260.372C757.072 258.448 758.365 257.312 759.889 255.968C759.54 254.527 759.168 252.974 758.826 251.548C760.841 250.367 762.617 249.334 764.163 248.428C762.699 242.085 761.279 235.927 760.157 231.039C756.827 230.282 753.801 229.591 750.925 228.937C750.925 225.104 750.925 222.415 750.925 219.548C753.14 216.978 755.385 214.371 757.384 212.053C761.041 213.012 764.394 213.896 768.839 215.069C768.631 211.207 768.46 208.176 768.311 205.383C764.282 204.767 761.361 204.321 758.752 203.927C757.808 200.711 757.087 198.252 756.41 195.935C757.548 195.081 758.328 194.494 759.956 193.276C757.065 191.827 754.946 190.772 752.508 189.554C753.147 172.774 760.231 157.339 764.372 140.812C766.23 140.946 768.155 141.094 770.37 141.258C771.649 138.524 772.979 135.694 774.228 133.035C772.043 131.876 770.437 131.029 766.899 129.157C771.909 128.34 774.711 127.887 777.967 127.36C778.904 125.622 779.982 123.646 780.918 121.915C779.58 120.11 778.51 118.669 777.871 117.807C774.436 118.268 771.872 118.61 769.307 118.959C769.099 118.357 768.884 117.755 768.675 117.154C770.4 115.282 772.125 113.41 773.529 111.873C776.785 112.66 779.328 113.269 781.476 113.789C784.167 111.85 786.315 110.305 788.389 108.812C788.686 106.955 788.961 105.217 788.916 105.507C794.484 100.181 798.758 96.0881 802.817 92.2033C803.62 78.053 790.775 79.093 782.985 74.1014C780.041 76.9389 777.053 79.8135 773.961 82.7921C774.526 83.8097 775.477 85.5479 777.194 88.6602C773.329 87.9545 770.891 87.5163 768.289 87.0409C767.055 87.8357 765.665 88.7419 763.814 89.9304C763.554 87.0037 763.346 84.6936 763.093 81.9007C758.313 89.351 753.831 96.3407 748.687 104.37C745.246 95.7687 751.742 91.4085 752.924 85.5627C754.18 79.3084 754.79 73.418 753.697 67.2676C750.315 67.2676 747.424 67.2676 744.22 67.2676C743.908 70.8925 743.625 74.1088 743.291 77.9788C736.43 80.066 731.947 86.8552 722.841 88.9276C725.042 80.1403 734.616 80.638 736.333 72.4449C736.103 71.6427 735.471 69.4589 734.713 66.8294C729.427 66.8294 724.492 66.1163 719.883 67.0225C715.103 67.9585 710.339 69.9566 706.124 72.4375C702.333 74.6733 699.3 78.2016 695.189 81.8042C695.189 77.8822 695.189 75.0076 695.189 73.002C700.474 68.9241 705.061 65.3958 711.647 60.3225C718.917 60.3225 728.602 60.3225 738.065 60.3225C742.874 58.3318 747.721 56.3263 753.125 54.083C755.229 51.1118 757.741 47.5538 760.38 43.825C755.035 35.7582 747.453 32.2225 739.039 30.0981C737.872 26.087 736.742 22.1725 735.396 17.5449C731.962 19.5281 728.937 21.2737 725.176 23.4427C723.176 23.3535 720.344 23.2273 716.263 23.049C719.727 20.7463 722.202 19.2607 724.492 17.53C727.264 15.4428 732.616 15.0194 730.082 8.86902C724.975 6.3658 720.537 -0.779899 714.642 5.74928C710.428 3.44661 706.919 1.5302 704.132 0.0148926C692.729 0.690837 682.27 1.31479 671.945 1.92388C670.548 3.86258 669.381 5.48187 668.206 7.11602C666.556 6.51436 665.203 6.01668 664.021 5.57843C659.279 9.2627 654.707 12.8207 650.099 16.401C651.548 17.634 653.206 19.0379 654.819 20.4121C653.682 22.0091 652.834 23.1976 652.292 23.9626C653.786 26.7481 655.094 29.1845 657.51 33.6858C652.871 31.8586 650.307 30.8484 648.062 29.9644C647.727 26.867 647.475 24.5272 647.281 22.6999C643.944 21.0212 641.134 19.6024 637.841 17.9386C637.061 20.3972 636.34 22.6627 635.596 24.9951C632.571 26.0128 627.828 21.5708 626.334 27.788C627.94 30.3061 629.568 32.8465 631.225 35.4463C636.332 36.9541 642.769 33.7527 646.62 40.6978C642.033 39.6653 637.44 38.6254 632.764 37.5707C632.608 39.242 632.519 40.2299 632.385 41.6857C629.776 41.0469 627.613 40.5196 625.175 39.9179C629.218 46.5436 629.218 46.5436 626.765 50.0199C623.443 47.5687 620.908 42.5845 615.296 46.5436C616.217 50.3245 617.124 54.0013 618.18 58.317C620.559 60.4042 623.272 62.7812 625.985 65.1655C625.688 65.3512 625.398 65.5295 625.1 65.7152C627.241 71.1228 629.382 76.5377 631.723 82.4504C629.902 82.6658 628.512 82.8292 626.974 83.0075C624.201 77.8822 621.555 73.0095 618.916 68.1293C618.18 68.8869 617.444 69.6446 616.708 70.4022C614.166 65.7301 611.624 61.0653 608.702 55.7023C608.784 55.5018 608.881 55.2566 608.992 54.9892C605.513 53.2437 603.023 48.5863 597.641 51.3198C594.43 58.8963 599.857 64.8461 602.295 72.1107C599.864 73.3883 597.344 74.703 594.222 76.3372C592.379 70.9816 590.743 66.2129 589.16 61.6001C590.097 61.3698 591.026 61.1396 591.955 60.9093C591.427 60.1888 590.899 59.4757 590.379 58.7626C588.558 58.7626 586.744 58.7626 585.168 58.7626C584.522 60.2854 583.912 61.7412 582.857 64.237C580.976 60.7756 579.653 58.3541 578.686 56.564C570.108 59.9957 562.184 63.1674 554.528 66.2277C554.528 68.4413 554.528 69.7337 554.528 70.2165C550.685 72.6381 547.585 74.5916 545.965 75.6167C546.336 82.0344 546.604 86.6769 546.872 91.3194C546.559 93.8003 547.325 96.415 548.827 98.5171C551.079 101.674 550.648 103.962 546.976 106.443C545.288 104.073 543.757 101.577 541.884 99.3713C538.821 95.7687 536.034 96.4892 533.135 100.731C529.5 106.049 525.397 111.033 521.583 116.225C519.502 119.063 517.607 122.027 515.54 125.057C516.663 127.375 517.651 129.432 518.484 131.156C523.219 131.49 527.448 131.779 531.626 132.077C531.626 136.749 531.626 141.035 531.626 144.756C528.994 149.517 526.571 153.907 524.23 158.141C519.554 159.203 514.968 160.251 510.367 161.306C507.155 170.39 496.986 169.491 491.352 175.448C490.624 177.662 489.806 180.165 488.899 182.943C491.917 186.62 495.024 190.401 498.258 194.338C499.083 193.417 499.811 192.607 500.317 192.035C503.885 193.58 503.171 199.99 508.397 199.181C512.418 198.564 516.276 196.886 521.39 195.318C521.658 197.643 521.963 200.258 522.297 203.103C512.084 202.033 504.085 205.116 494.727 210.612C501.766 214.267 507.274 217.134 512.321 219.749C510.582 221.056 508.137 222.898 505.579 224.822C509.192 229.405 513.117 233.327 519.405 232.703C520.179 230.935 520.892 229.294 521.643 227.563C523.799 228.997 525.441 230.089 527.04 231.158C529.217 229.205 530.979 227.622 532.741 226.04C535.238 227.006 537.468 226.271 539.639 226.412C542.768 226.62 545.853 227.474 549.406 228.135C554.29 234.887 567.893 236.744 562.868 250.359C565.73 252.469 568.332 254.393 571.387 256.651C571.342 261.353 577.148 266.315 571.417 271.596C573.134 272.576 575.066 273.683 577.616 275.139C576.181 276.201 575.297 276.855 574.412 277.509C576.055 279.38 577.631 281.163 578.939 282.649C579.177 285.486 579.378 287.856 579.526 289.601C581.437 291.005 582.827 292.03 582.886 292.067C582.886 296.829 582.886 300.35 582.886 304.353C584.395 303.024 585.376 302.162 587.317 300.461C588.32 304.91 589.086 308.29 589.695 310.986C597.5 316.795 599.5 325.256 600.756 334.823C597.961 333.033 595.166 331.242 591.583 328.947C591.056 328.918 589.554 328.903 588.075 328.717C586.789 328.554 585.525 328.182 584.016 327.848C584.016 330.841 584.707 333.359 583.897 335.224C580.404 343.224 580.314 343.677 586.477 350.689C589.138 349.448 592 348.119 593.761 347.302C596.177 344.464 591.799 340.758 597.017 340.059C600.555 346.522 602.02 353.378 599.946 360.07C595.984 361.965 592.349 363.703 588.692 365.448C589.651 367.298 590.305 368.561 590.944 369.808C594.854 370.098 598.63 370.38 603.046 370.707C602.377 372.78 602.035 374.094 601.485 375.327C601.403 375.521 600.407 375.305 599.834 375.275C599.745 374.31 599.656 373.344 599.53 371.903C596.251 372.913 593.501 373.76 590.58 374.659C590.149 377.244 589.725 379.762 589.309 382.258C590.639 382.666 591.754 383 592.929 383.357C592.929 384.315 592.929 385.266 592.929 386.291C594.512 385.949 595.701 385.689 596.898 385.429C597.262 386.001 597.627 386.573 597.991 387.153C596.147 389.025 594.304 390.896 592.446 392.776C593.917 393.4 595.337 394.001 597.106 394.744C595.003 396.579 593.345 398.027 592.988 398.339C593.999 404.49 594.408 409.251 595.627 413.797C596.891 418.476 596.854 424.463 604.227 424.872C605.209 437.462 611.155 447.995 619.964 453.366C622.722 452.17 625.643 450.899 629.263 449.325C629.263 452.155 629.263 454.257 629.263 455.824C633.21 457.83 636.934 459.716 641.238 461.9C642.65 451.717 643.907 442.677 645.26 432.902C646.256 430.703 647.623 427.687 648.991 424.664C650.634 424.411 652.366 424.144 653.897 423.914C653.206 418.016 652.559 412.564 651.912 407.112C657.881 408.092 657.718 402.774 659.665 399.268C662.557 399.134 665.508 399 668.712 398.852C669.158 396.579 669.537 394.633 669.857 393.013C671.603 393.964 673.283 394.87 676.814 396.787C678.122 394.588 678.977 391.06 680.888 390.354C685.139 388.779 686.812 386.187 687.875 382.072C690.64 371.331 699.635 366.503 708.785 363.361C723.674 358.251 723.785 358.741 733.538 350.927C736.437 348.609 740.027 347.161 743.276 345.333C743.677 343.402 744.079 341.493 744.517 339.398C740.466 337.705 736.697 336.13 732.802 334.496C730.691 335.677 728.439 336.932 727.353 337.541Z" fill="#EFEFEF"/>
<path d="M680.382 878.193C669.202 880.25 665.538 868.536 657.874 866.078C650.864 865.498 644.977 865.016 637.744 864.414C637.343 864.652 635.693 865.654 633.834 866.769C633.344 864.377 632.935 862.379 632.281 859.17C622.647 856.6 612.783 853.97 602.726 851.281C602.704 850.851 602.324 849.788 602.674 849.09C603.596 847.278 604.844 845.629 605.61 844.462C603.306 840.652 600.451 837.458 599.388 833.751C598.191 829.592 595.59 827.69 592.505 825.157C585.466 819.363 577.341 820.752 569.558 820.262C563.336 815.375 557.271 810.606 550.938 805.629C548.797 803.668 546.381 801.455 544.017 799.286C544.865 798.543 546.277 797.295 548.804 795.074C536.086 798.937 524.683 798.654 512.976 796.322C510.939 794.732 508.627 792.935 506.769 791.486C501.736 791.902 497.551 796.842 493.314 792.392C494.125 790.862 494.734 789.711 495.619 788.032C488.267 791.204 481.874 793.96 476.24 796.389C473.252 801.002 470.62 805.057 467.989 809.12C463.009 805.852 459.522 799.508 452.632 803.757C454.468 804.032 456.267 804.299 457.701 804.507C460.221 808.786 462.436 812.545 465.038 816.964C465.253 821.451 465.506 826.769 465.826 833.506C462.875 836.797 458.556 840.801 455.256 845.517C451.598 850.739 445.57 855.404 449.309 862.557C450.625 864.005 451.948 865.446 453.234 866.858C449.963 869.651 447.547 871.716 445.451 873.506C446.402 877.116 447.146 879.938 447.889 882.754C455.055 887.738 469.364 913.283 471.379 925.346C475.251 928.384 479.191 933.42 484.208 934.972C491.731 937.297 496.102 942.549 499.075 945.446C507.215 959.44 501.179 971.429 500.934 983.232C500.688 995.109 496.592 1006.9 494.191 1018.74C495.396 1022.25 496.548 1025.96 495.767 1029.19C493.902 1036.89 491.85 1044.72 488.49 1051.84C485.368 1058.46 483.933 1064.58 486.059 1068.86C484.751 1075.83 483.874 1080.5 482.989 1085.19C486.104 1085.73 487.806 1086.02 491.092 1086.58C488.275 1087.64 487.197 1088.05 485.599 1088.65C491.263 1093.51 487.747 1099.14 487.204 1104.57C488.118 1105.29 489.033 1106 489.412 1106.29C487.494 1110.98 485.651 1115.48 483.599 1120.52C482.149 1119.19 480.819 1117.97 479.139 1116.45C478.165 1118.36 477.407 1119.85 476.835 1120.99C479.704 1125.25 482.38 1129.2 485.182 1133.35C483.421 1133.78 481.993 1134.13 480.782 1134.43C480.544 1139.68 484.684 1144.75 480.276 1149.15C478.106 1148.56 476.612 1148.16 474.248 1147.53C476.329 1150.19 477.719 1151.97 478.7 1153.22C480.93 1153.04 482.625 1152.91 485.301 1152.7C483.904 1154.66 483.079 1155.82 482.477 1156.67C483.658 1158.96 484.677 1160.95 485.494 1162.52C486.394 1160.97 487.048 1159.83 487.71 1158.69C488.341 1159.22 488.973 1159.76 489.605 1160.29C489.427 1161.58 489.241 1162.87 489.018 1164.46C492.184 1166.58 495.455 1168.77 498.889 1171.06C500.25 1173.8 501.692 1176.71 503.29 1179.95C501.766 1182.65 500.183 1185.46 498.54 1188.38C502.316 1188.81 506.033 1189.22 509.683 1189.62C510.708 1191.01 511.734 1192.41 512.894 1193.99C515.191 1192.4 517.19 1191.02 518.513 1190.1C521.346 1190.1 523.531 1190.1 527.047 1190.1C522.356 1186.93 518.736 1184.47 515.31 1182.15C512.73 1177.55 510.255 1173.13 507.378 1167.99C507.534 1167.85 508.553 1166.93 508.991 1166.53C507.973 1161.95 507.044 1157.75 506.174 1153.81C509.036 1151.4 511.058 1149.71 513.08 1148.01C512.797 1147.82 512.515 1147.63 512.232 1147.44C516.514 1141.28 520.795 1135.12 525.122 1128.89C521.219 1125.17 514.373 1125.51 514.715 1117.19C516.469 1115.64 518.699 1112.62 521.68 1111.33C525.032 1109.87 525.701 1107.47 526.489 1104.65C527.493 1101.05 528.608 1097.48 529.753 1093.64C528.965 1090.14 528.088 1086.24 526.995 1081.41C532.243 1081.41 536.859 1081.41 541.274 1081.41C542.352 1076.39 543.266 1072.12 544.21 1067.72C546.032 1067.72 547.533 1067.69 549.035 1067.72C560.237 1067.93 567.804 1064.26 571.922 1052.37C573.097 1048.98 575.981 1045.3 579.088 1043.6C590.208 1037.51 594.081 1025.39 602.354 1016.98C605.796 1013.48 608.026 1008.74 610.538 1004.41C611.475 1002.79 611.876 1000.75 612.122 998.86C612.746 994.121 613.14 989.36 613.645 984.398C621.042 980.03 628.096 975.863 635.061 971.755C638.659 971.755 641.952 971.755 645.453 971.755C659.539 956.521 662.698 937.891 662.356 921.795C670.191 908.744 680.798 901.576 684.203 889.142C682.969 885.576 681.817 882.286 680.382 878.193Z" fill="#EFEFEF"/>
<path d="M1649.21 985.527C1644.3 980.015 1640.48 975.715 1636.65 971.421C1636.94 971.191 1637.23 970.961 1637.51 970.73C1635.7 969.742 1633.9 968.754 1632.07 967.767C1630.17 959.098 1623.64 954.686 1616.55 951.039C1610.68 941.642 1613.55 927.804 1602 922.85C1599.94 917.286 1598.2 912.584 1596.46 907.882C1595.78 907.875 1595.1 907.867 1594.42 907.86C1593.6 912.948 1592.25 918.029 1592.11 923.132C1591.9 930.062 1590.57 936.539 1587.6 942.965C1585.06 942.965 1582.71 942.965 1580.43 942.965C1574.88 935.514 1563 936.287 1559.12 925.94C1561.46 925.316 1563.61 924.744 1565.67 924.194C1564.82 920.985 1564.01 917.94 1563.45 915.853C1556.05 913.84 1549.71 912.109 1543.33 910.371C1543.61 911.529 1543.88 912.629 1544.42 914.798C1541.34 913.691 1538.87 912.8 1536.04 911.782C1536.43 913.082 1536.74 914.129 1536.99 914.961C1534.75 916.892 1532.57 918.772 1530.68 920.398C1530.54 923.117 1530.43 925.212 1530.33 927.247C1526.98 928.235 1524.39 929 1522.05 929.691C1520.58 927.418 1519.22 925.316 1518.06 923.533C1514.08 925.197 1510.84 926.549 1507.14 928.086C1508.44 934.89 1500.09 934.541 1498.59 939.362C1496.76 939.191 1495.22 939.043 1494.32 938.961C1491.92 944.175 1489.87 948.632 1487.97 952.747C1475.36 957.226 1463.38 961.482 1450.98 965.895C1449.75 970.151 1448.45 974.66 1447.15 979.161C1448.57 984.895 1448.25 990.749 1449.52 996.238C1451.22 1003.64 1454.09 1010.77 1456.54 1017.99C1458.85 1024.78 1459.98 1031.44 1454.91 1037.6C1457.04 1039.17 1459.17 1040.74 1461.24 1042.26C1464.66 1042.26 1467.95 1042.26 1471.53 1042.26C1478.84 1034.51 1488.45 1035.45 1497.81 1036.39C1502.56 1029.65 1508.42 1026.56 1516.38 1025.88C1523.6 1025.27 1530.64 1022.57 1537.75 1020.79C1539.6 1021.99 1541.31 1024.04 1543.05 1024.06C1549.61 1024.17 1553.38 1027.74 1556.31 1032.99C1557.79 1035.64 1559.61 1038.11 1560.96 1040.17C1564.86 1039.95 1564.45 1032.66 1570.12 1036.42C1570.12 1038.73 1570.12 1041.31 1570.12 1044.83C1571.79 1042.08 1572.82 1040.39 1574.63 1037.4C1575.42 1041.11 1575.25 1044.36 1576.36 1044.89C1582.84 1047.94 1581 1055.89 1585.05 1059.41C1589.47 1063.24 1595.76 1064.91 1601.46 1067.62C1603.6 1065.81 1605.83 1063.93 1608.22 1061.91C1610.61 1063.95 1612.58 1065.65 1614.03 1066.9C1620.38 1064.07 1626.19 1061.47 1633.05 1058.42C1633.55 1056.17 1633.95 1052.3 1635.29 1048.78C1637.69 1042.46 1639.39 1035.17 1643.77 1030.55C1647.44 1026.67 1648.42 1022.76 1649.56 1018.4C1650.82 1013.59 1651.77 1008.7 1652.73 1004.39C1651.62 1000.58 1650.32 997.256 1649.72 993.802C1649.13 990.459 1649.28 986.998 1649.21 985.527Z" fill="#EFEFEF"/>
<path d="M372.478 154.093C377.369 152.682 381.792 151.412 386.393 150.082C386.549 152.244 386.713 154.472 386.847 156.284C388.214 156.983 389.188 157.48 390.169 157.978C390.043 158.29 389.909 158.609 389.783 158.921C387.516 158.765 385.241 158.617 382.974 158.461C384.044 159.464 385.122 160.459 386.192 161.462C383.316 161.603 380.439 161.744 377.176 161.907C382.007 166.758 385.449 170.219 389.24 174.022C388.393 174.022 387.739 174.037 387.084 174.022C386.334 174 385.583 173.955 384.728 173.918C386.185 181.695 392.488 182.245 397.603 184.043C400.754 182.891 403.497 181.896 406.426 180.826C406.894 178.383 407.311 176.169 407.593 174.698C409.511 173.829 410.797 173.25 412.388 172.529C411.102 171.69 410.41 171.237 409.607 170.717C411.525 168.979 413.257 167.404 415.034 165.792C418.921 171.066 413.986 173.911 412.581 177.677C413.465 179.608 414.32 181.458 414.818 182.55C419.442 184.459 423.419 186.1 427.388 187.742C426.548 190.965 425.976 193.186 425.351 195.586C427.039 197.094 428.548 198.438 430.458 200.139C428.332 200.273 426.608 200.384 424.437 200.518C420.126 191.485 415.346 189.814 409.905 194.308C411.629 199.166 413.302 203.846 414.662 207.686C410.195 210.033 406.731 211.845 403.482 213.554C403.869 218.092 404.137 221.264 404.293 223.054C411.942 230.252 415.227 218.902 421.003 220.752C420.765 222.571 420.601 223.842 420.423 225.246C423.56 225.246 425.901 225.246 428.161 225.246C428.719 223.604 429.165 222.282 429.752 220.551C431.781 222.163 433.617 223.626 435.059 224.778C439.118 223.708 442.656 222.779 446.559 221.754C447.042 224.57 447.376 226.493 447.956 229.843C453.226 224.971 457.835 220.9 462.102 216.503C462.622 215.968 461.306 213.658 460.883 212.299C459.56 213.45 458.578 214.304 456.898 215.76C456.155 211.927 455.62 209.142 455.085 206.364C457.084 203.964 459.047 201.602 461.537 198.609C461.135 195.556 460.66 191.901 460.087 187.526C462.905 188.165 465.083 188.655 467.58 189.22C469.833 187.853 472.338 186.33 475.534 184.384C472.806 176.511 481.585 168.934 474.307 161.142C476.418 160.652 477.571 160.385 478.7 160.117C478.522 158.513 478.351 157.02 478.195 155.638C476.262 155.356 474.59 155.118 472.672 154.836C475.103 148.641 479.868 148.448 482.737 148.619C487.353 145.722 490.401 143.932 493.314 141.941C494.526 141.116 496.548 139.579 496.355 138.888C494.898 133.748 499.64 131.579 501.387 128.125C504.948 121.083 509.2 114.368 513.526 107.75C516.254 103.576 519.636 99.8318 522.721 95.895C525.047 92.3964 531.671 91.8839 529.351 84.7456C526.49 85.9267 523.947 86.9815 521.457 88.0065C520.513 86.6472 519.807 85.9861 519.554 85.1765C519.301 84.3594 519.495 83.4012 519.495 82.5024C528.244 76.1515 528.244 76.1515 531.953 76.4635C538.613 69.8303 546.961 64.2816 548.663 52.5232C545.14 50.7627 541.728 49.0543 538.375 47.3756C539.074 46.9076 539.78 46.4322 540.665 45.838C535.469 42.9485 536.532 34.2207 529.032 33.671C528.504 34.3395 528.028 34.956 527.508 35.6097C526.854 34.7406 526.333 34.0424 525.902 33.4704C524.683 34.8298 523.442 36.2114 521.011 38.9226C520.721 35.2234 520.558 33.2105 520.424 31.502C515.347 30.0907 510.307 28.6943 505.319 27.3052C504.271 26.0573 503.156 24.7277 502.13 23.517C492.906 26.3693 484.067 25.7008 479.853 22.5291C475.028 23.0861 470.992 23.5541 466.986 24.0146C465.395 26.9041 463.982 29.4668 462.228 32.6534C458.876 32.0294 455.486 31.4055 451.844 30.7295C451.182 32.4082 450.55 34.0127 449.941 35.5651C448.038 35.9291 446.239 36.2782 444.648 36.5828C445.644 38.9077 446.373 40.6236 447.176 42.488C444.425 42.488 442.366 42.488 441.177 42.488C439.698 47.2419 438.337 51.5872 436.717 56.7942C431.93 54.3727 427.849 52.3152 423.211 49.9754C423.211 53.4145 423.211 56.1629 423.211 58.9261C420.795 59.4237 418.81 59.8323 417.234 60.1591C415.985 63.6205 414.907 66.5991 413.74 69.8377C412.878 68.0253 412.157 66.5174 411.183 64.4822C409.318 65.4701 407.742 66.1089 406.389 67.0671C404.092 68.7013 402.13 70.8628 399.691 72.2072C396.25 74.1014 393.061 76.0698 391.336 79.7763C392.102 81.0391 392.868 82.3018 393.492 83.3195C395.224 81.8859 396.971 80.4374 398.725 78.989C399.32 79.4124 399.914 79.8432 400.509 80.2666C399.58 82.7327 398.651 85.1913 397.885 87.2117C399.989 89.3733 402.144 91.5868 404.798 94.3129C402.055 95.3602 400.531 95.947 398.101 96.8755C400.725 98.9925 402.836 100.693 405.266 102.647C405.125 103.353 404.85 104.705 404.538 106.279C407.288 108.872 409.987 111.427 412.729 114.012C414.224 112.155 414.937 111.263 415.792 110.209C417.903 113.039 419.457 115.111 419.717 115.468C427.128 119.56 432.569 115.884 438.092 115.49C444.091 115.067 449.792 110.498 455.315 107.884C454.914 106.138 454.624 104.846 453.858 101.511C457.545 104.883 459.612 106.784 461.894 108.872C458.682 110.662 455.412 111.375 454.208 113.351C450.09 120.08 443.177 121.559 436.68 123.586C436.434 126.498 440.352 129.247 436.003 131.891C434.554 130.049 433.164 128.288 432.183 127.04C427.388 126.209 423.367 125.518 418.803 124.723C418.803 127.627 418.803 130.19 418.803 132.686C420.237 133.25 421.501 133.748 423.694 134.61C420.772 135.241 418.795 135.664 416.35 136.184C417.465 138.903 418.461 141.347 419.851 144.749C412.15 142.528 415.472 136.89 414.194 133.599C412.573 132.47 411.206 131.512 409.838 130.561C410.447 130.19 411.057 129.819 411.674 129.447C411.986 126.929 412.291 124.411 412.603 121.9C406.991 119.88 402.048 118.097 396.651 116.151C394.696 110.506 392.823 104.296 390.392 98.324C388.668 94.09 385.39 91.1411 380.595 90.4652C380.127 90.3983 379.577 90.9183 377.979 91.6982C379.309 93.7409 380.551 95.6499 381.933 97.7743C381.078 99.3416 380.127 101.095 379.272 102.669C377.324 102.469 375.778 102.313 373.043 102.038C373.6 105.388 374.002 107.824 374.359 109.956C372.307 115.178 370.315 120.259 368.33 125.317C369.913 126.157 371.497 126.988 374.031 128.325C370.768 128.823 368.784 129.128 366.226 129.521C368.33 137.833 370.285 145.484 372.478 154.093Z" fill="#EFEFEF"/>
<path d="M509.549 330.344C506.434 329.46 503.617 328.65 500.696 327.818C498.198 323.963 495.708 320.13 492.764 315.592C490.787 316.929 489.085 318.088 487.345 319.261C481.116 314.693 476.835 308.06 475.511 300.498C469.884 300.201 467.037 297.052 468.279 291.221C463.663 290.901 459.827 290.634 456.385 290.396C454.2 286.571 452.327 283.302 450.662 280.391C443.541 280.814 437.423 276.424 430.978 283.273C425.455 289.133 422.764 294.392 424.065 301.991C424.898 302.073 425.73 302.147 426.771 302.236C426.771 303.336 426.771 304.435 426.771 304.688C423.627 307.302 421.553 309.033 418.847 311.284C418.014 305.141 417.308 299.949 416.491 293.947C417.383 291.689 418.342 288.517 419.865 285.65C421.33 282.886 423.381 280.435 425.321 277.635C414.179 275.496 406.077 280.792 404.018 291.689C402.382 300.335 401.52 309.122 400.286 318.065C405.036 319.335 408.693 320.316 414.261 321.809C409.526 323.896 406.887 325.062 404.196 326.243C405.616 331.072 408.336 334.087 413.778 333.946C415.16 333.909 416.803 334.229 417.918 334.986C423.463 338.76 429.499 339.859 435.966 339.22C436.249 337.794 436.442 336.672 436.732 335.566C436.776 335.387 437.252 335.32 437.876 335.06C441.905 338.358 449.227 335.751 451.925 342.934C455.233 340.579 458.415 338.306 461.708 335.967C464.867 339.651 467.989 343.298 471.111 346.938C470.412 347.235 469.721 347.525 469.022 347.822C469.223 350.399 469.372 352.977 469.669 355.539C469.721 356 470.412 356.394 470.992 357.018C472.434 356.208 473.921 355.369 475.348 354.566C485.182 360.249 490.445 368.806 492.058 379.524C488.505 384.382 485.041 389.099 481.711 393.652C483.123 396.141 484.372 398.347 485.881 401.013C479.042 403.375 473.296 406.941 466.591 402.506C464.532 405.804 462.748 408.672 460.808 411.776C465.209 415.825 467.915 415.84 471.735 413.559C474.493 411.918 478.455 412.296 482.64 411.658C486.669 415.505 491.255 419.873 495.886 424.293C495.626 425.518 495.359 426.818 495.135 427.865C499.625 430.889 503.446 434.023 507.75 436.2C512.314 438.517 517.339 439.936 522.163 441.748C522.446 441.288 522.728 440.827 523.018 440.374C519.026 436.058 515.035 431.743 510.902 427.271C512.359 426.417 513.793 425.578 515.176 424.768C519.294 427.197 523.271 429.537 527.248 431.876C527.805 431.49 528.363 431.111 528.92 430.725C528.229 428.059 526.519 425.162 527.062 422.785C528.221 417.711 525.91 415.008 522.877 411.457C519.153 407.097 516.343 401.741 514.098 396.408C512.009 391.461 513.6 389.158 518.499 387.056C521.613 389.79 524.668 392.464 527.961 395.353C527.329 399.758 529.024 403.197 534.621 404.824C535.253 402.521 535.811 400.479 536.197 399.075C538.078 398.54 539.156 398.235 540.367 397.894C540.643 395.264 540.88 392.917 540.992 391.87C543.185 389.047 544.649 387.168 545.318 386.306C540.323 382.919 534.659 381.084 532.919 377.4C530.511 372.289 527.3 371.413 523.13 370.648C518.417 366.741 513.362 363.339 508.397 359.81C507.557 359.216 507.103 358.087 506.271 356.936C508.359 356 509.928 355.302 511.526 354.596C511.407 353.185 511.296 351.892 511.206 350.837C512.255 350.473 513.094 350.184 513.228 350.132C511.95 343.239 510.775 336.903 509.549 330.344Z" fill="#EFEFEF"/>
<path d="M338.165 352.94C338.924 351.981 338.998 350.481 339.503 348.854C337.132 349.018 335.185 349.151 333.245 349.285C333.155 348.78 333.066 348.282 332.977 347.777C336.396 346.18 339.816 344.576 343.763 342.734C343.718 341.746 343.636 340.052 343.577 338.685C335.698 334.451 327.974 330.997 324.927 322.381C328.562 311.818 318.742 303.484 320.4 292.439C316.572 290.196 312.758 287.96 308.945 285.724C308.298 286.125 307.652 286.519 307.005 286.92C308.112 294.786 309.22 302.652 310.32 310.459C309.056 310.92 307.934 311.328 306.812 311.729C303.898 306.106 306.091 297.965 298.3 294.251C295.803 296.933 293.513 299.391 290.607 302.511C289.886 299.221 289.388 296.977 288.749 294.066C284.474 293.471 280.215 292.884 276.721 292.402C276.075 289.683 275.562 287.529 274.952 284.981C273.02 285.843 272.261 286.318 271.436 286.511C270.418 286.749 269.347 286.742 268.195 286.853C268.812 279.306 268.812 279.306 257.075 268.848C255.113 269.598 252.726 270.504 250.824 271.239C246.683 268.662 242.528 266.07 238.767 263.73C233.221 264.688 228.308 265.535 222.346 266.567C223.67 270.705 224.881 274.515 225.996 278.014C222.859 288.049 219.752 297.973 216.645 307.896C223.915 310.073 227.639 315.926 230.159 322.515C234.262 320.153 238.001 317.998 241.733 315.852C241.376 315.666 241.019 315.48 240.662 315.295C244.074 308.706 247.479 302.11 250.675 295.923C253.581 294.192 255.975 292.773 258.361 291.354C257.744 295.202 254.094 298.834 254.815 301.011C256.614 306.403 249.79 307.57 250.95 312.398C254.659 314.723 258.703 317.256 262.947 319.915C260.071 321.564 257.685 322.938 255.075 324.431C256.488 326.919 257.469 328.635 258.837 331.034C264.166 330.277 269.437 329.645 274.67 328.762C280.2 327.833 283.434 330.165 283.493 335.751C275.525 336.888 266.701 334.214 259.023 340.587C261.892 344.071 264.642 347.398 267.459 350.815C271.6 350.815 275.093 350.815 278.438 350.815C279.003 354.336 279.464 357.203 280.014 360.635C283.181 360.806 285.894 361.459 288.414 360.999C298.501 359.149 308.328 356.505 315.739 349.619C317.91 350.993 319.85 352.212 321.321 353.148C321.113 354.863 320.95 356.193 320.786 357.478C322.251 356.446 323.715 355.42 325.06 354.47C330.754 358.288 334.241 357.879 338.165 352.94Z" fill="#EFEFEF"/>
<path d="M320.786 357.463C320.674 357.545 320.556 357.626 320.444 357.708C320.437 357.752 320.437 357.789 320.429 357.834C320.526 357.878 320.63 357.93 320.726 357.975C320.741 357.812 320.763 357.634 320.786 357.463Z" fill="#EFEFEF"/>
<path d="M919.164 173.814C924.62 173.814 927.846 173.814 931.377 173.814C930.47 175.374 929.674 176.756 928.842 178.197C930.031 179.623 931.124 180.923 932.923 183.07C934.93 178.798 936.498 175.456 938.349 171.519C941.62 172.871 944.92 174.245 949.425 176.11C943.605 180.752 939.078 184.369 933.934 188.477C933.934 188.811 933.934 190.275 933.934 191.701C935.77 192.696 937.45 193.61 939.145 194.531C937.621 197.339 936.402 199.597 934.848 202.464C938.342 205.962 941.62 209.246 945.299 212.937C945.299 212.937 945.024 214.014 944.705 215.285C946.176 216.518 947.715 217.795 949.076 218.932C952.145 211.764 949.767 202.85 956.947 196.752C956.947 193.439 956.947 190.735 956.947 186.546C957.594 186.167 959.096 185.29 960.471 184.481C960.471 180.611 960.471 177.053 960.471 173.22C964.626 171.289 968.677 169.409 973.457 167.189C968.008 163.512 963.541 160.489 958.62 157.168C958.62 154.316 958.62 151.152 958.62 147.579C956.947 149.116 955.728 150.245 954.502 151.367C954.026 151.137 953.558 150.906 953.082 150.669C953.803 148.017 954.524 145.365 955.728 140.908C953.736 139.23 950.644 136.622 946.667 133.272C945.745 137.031 945.136 139.497 944.541 141.963C943.976 144.31 943.441 146.665 942.482 150.788C940.787 146.368 939.866 143.976 938.884 141.406C937.308 142.721 936.164 143.672 934.707 144.89C933.688 142.55 932.945 140.842 932.202 139.133C929.414 140.284 927.125 141.235 925.43 141.941C924.159 141.057 923.579 140.596 922.932 140.247C922.828 140.188 922.472 140.574 922.234 140.76C918.19 150.654 918.205 150.788 924.776 161.254C924.776 163.898 924.776 166.817 924.776 169.536C923.297 170.672 922.1 171.586 919.164 173.814Z" fill="#EFEFEF"/>
<path d="M407.482 257.565C407.734 257.914 407.987 258.255 408.24 258.604C407.69 259.659 407.14 260.714 406.374 262.177C414.395 265.275 422.289 262.415 429.997 263.046C431.789 261.531 433.55 260.038 434.695 259.072C437.289 260.818 439.385 262.222 441.095 263.373C445.013 262.229 448.283 261.264 452.089 260.149C450.892 258.864 450.179 258.107 449.346 257.215C450.654 256.658 451.903 256.131 453.353 255.514C451.896 254.942 450.602 254.437 449.264 253.917C451.019 251.526 452.691 249.245 454.312 247.039C444.388 237.182 444.388 237.182 427.358 240.777C425.054 242.07 422.75 243.362 420.572 244.588C415.368 243.682 409.845 242.723 405.601 241.981C402.977 238.4 401.059 235.778 398.978 232.941C400.063 231.307 401.334 229.398 402.628 227.444C399.275 225.929 396.339 224.607 392.778 222.995C394.815 222.178 395.878 221.747 396.941 221.323C396.956 220.893 396.971 220.462 396.986 220.038C393.306 219.845 389.627 219.652 384.341 219.37C380.974 212.469 374.188 210.308 366.13 210.746C363.9 217.669 370.174 221.383 371.861 226.761C376.395 226.761 380.796 226.761 386.215 226.761C387.166 231.18 390.199 236.699 388.824 240.71C386.482 247.552 389.485 252.766 390.251 258.827C394.332 259.845 398.004 260.759 401.252 261.568C403.557 260.09 405.519 258.827 407.482 257.565Z" fill="#EFEFEF"/>
<path d="M1348.38 135.538C1348.94 135.998 1349.5 136.466 1350.06 136.927C1348.25 139.75 1346.45 142.572 1344.49 145.64C1346.27 146.88 1347.68 147.861 1348.83 148.663C1349.76 152.555 1350.63 156.247 1351.53 160.05C1354.79 160.615 1357.55 161.09 1360.39 161.58C1361.86 162.91 1363.4 164.314 1365.84 166.542C1369.57 165.725 1373.1 164.953 1375.94 164.336C1375.94 153.684 1375.94 144.474 1375.94 135.271C1372.26 133.718 1369.05 132.359 1365.84 131.007C1359.91 123.104 1362.91 115.289 1365.74 108.968C1359.28 105.046 1359.41 97.8113 1354.95 94.0676C1352.92 96.296 1351.22 98.7547 1348.95 100.478C1346.66 102.224 1343.82 103.241 1341.51 104.437C1340.84 107.913 1343.96 110.625 1341.7 113.833C1339.59 116.842 1338.01 120.229 1336.24 123.371C1338.14 125.889 1340.46 128.964 1344.13 133.815C1339.4 132.834 1337 132.336 1334.17 131.742C1333.58 134.595 1333.06 137.128 1332.38 140.448C1335.13 141.191 1338.12 142.008 1340.34 142.609C1343.58 139.75 1345.98 137.647 1348.38 135.538Z" fill="#EFEFEF"/>
<path d="M1474.58 824.021C1471.45 821.443 1468.44 818.977 1465.47 816.526C1457.55 823.308 1450.1 829.688 1442.46 836.232C1440.48 836.633 1438.2 837.094 1435.88 837.562C1435.08 839.813 1434.41 841.714 1433.68 843.764C1430.07 843.074 1425.98 839.709 1423.69 846.282C1425.93 851.935 1428.37 858.1 1431.05 864.867C1436.89 865.81 1442.98 866.798 1450.22 867.972C1451.35 868.618 1453.58 869.903 1456.7 871.693C1461.56 862.163 1466.12 853.213 1471.05 843.564C1466.15 834.36 1466.69 829.711 1474.58 824.021Z" fill="#EFEFEF"/>
<path d="M1608.84 874.271C1595.73 868.247 1582.61 861.138 1568.36 861.599C1565.41 864.325 1562.48 867.043 1559.42 869.873C1556.66 867.363 1554.68 865.573 1552.78 863.842C1550.23 864.392 1547.92 864.889 1543.97 865.744C1553.24 873.12 1563.96 872.897 1572.75 877.769C1575.3 882.419 1577.97 887.285 1579.87 890.761C1583.89 893.502 1586.76 895.463 1590.01 897.684C1592.22 897.684 1594.9 897.684 1596.65 897.684C1599.89 894.304 1602.6 891.467 1605.55 888.391C1609.81 890.553 1612.96 892.15 1614.36 892.863C1618.32 897.379 1621.01 900.462 1623.56 903.374C1626.93 903.195 1629.61 903.054 1632.97 902.876C1627.64 897.186 1623.09 892.321 1617.84 886.705C1620 885.584 1621.5 884.804 1622.56 884.254C1617.48 880.562 1613.16 877.413 1608.84 874.271Z" fill="#EFEFEF"/>
<path d="M262.851 233.364C265.125 234.924 267.043 236.239 269.764 238.111C266.181 238.4 263.817 238.594 261.156 238.802C260.472 242.196 259.825 245.412 259.134 248.874C266.746 253.011 274.581 251.34 283.017 251.756C280.17 255.15 277.851 257.921 275.346 260.915C277.227 262.534 278.981 264.057 281.605 266.322C288.838 261.85 295.981 257.438 301.616 253.955C306.797 254.207 310.29 254.378 313.412 254.534C319.136 249.045 321.091 240.243 318.155 233.416C314.513 233.193 310.684 232.963 307.213 232.755C305.86 226.969 304.574 221.494 303.162 215.455C300.523 218.798 298.174 221.762 295.751 224.837C297.423 226.783 299.14 228.774 300.88 230.794C300.486 232.711 300.136 234.374 299.795 236.038C301.177 237.806 302.552 239.574 305.184 242.946C299.155 243.229 294.836 243.437 291.016 243.615C288.094 238.341 285.411 233.498 282.661 228.536C280.877 228.789 279.293 229.004 277.346 229.279C276.127 226.872 274.989 224.644 273.674 222.044C268.641 224.778 264.56 227.957 262.851 233.364Z" fill="#EFEFEF"/>
<path d="M1113.64 921.862C1109.7 928.926 1104.05 933.531 1096.19 935.916C1093.8 936.643 1092.1 939.689 1090.28 941.479C1091.3 946.671 1092.15 951.024 1093.19 956.328C1084.51 964.305 1087.39 973.895 1091.21 984.145C1095.16 984.145 1098.96 984.145 1104.47 984.145C1109.49 966.259 1114.33 949.004 1119.37 931.013C1119.26 931.065 1120.24 930.619 1121.17 930.196C1120.07 925.955 1119.08 922.114 1117.81 917.205C1115.84 919.366 1114.43 920.443 1113.64 921.862Z" fill="#EFEFEF"/>
<path d="M838.051 512.811C840.616 512.388 842.34 512.106 844.399 511.764C845.93 515.953 847.543 520.381 848.874 524.028C845.603 525.892 843.634 527.021 841.485 528.239C844.897 532.949 842.377 535.482 838.668 537.517C840.831 538.817 842.704 539.946 844.607 541.097C842.66 543.496 841.01 545.524 839.092 547.886C840.712 549.067 841.835 549.884 842.481 550.352C850.584 545.019 859.801 547.411 868.29 544.878C867.955 542.59 867.673 540.681 867.398 538.839C868.944 536.729 870.498 534.613 870.877 534.093C867.829 530.252 864.893 527.266 862.804 523.775C857.779 515.367 853.148 506.713 848.807 498.958C850.16 494.539 851.297 490.817 852.397 487.2C848.733 486.086 846.354 485.365 843.611 484.526C844.793 481.733 845.603 479.831 846.793 477.024C842.838 478.175 840.095 478.977 837.04 479.861C832.855 489.094 834.438 497.592 839.486 505.309C838.988 507.983 838.571 510.145 838.051 512.811Z" fill="#EFEFEF"/>
<path d="M956.687 139.289C960.887 139.757 964.128 140.121 967.652 140.515C967.228 142.275 966.693 144.474 966.113 146.873C967.993 148.559 969.725 150.126 971.494 151.716C974.408 151.322 977.025 150.973 979.485 150.646C980.652 152.229 981.805 153.781 983.024 155.43C986.725 153.632 989.914 152.087 992.419 150.877C995.757 145.989 998.723 141.651 1002.06 136.778C1003.66 125.837 991.81 130.643 988.316 125.436C986.421 127.137 985.031 128.385 983.871 129.425C982.905 126.558 982.147 124.307 981.388 122.064C980.816 122.086 980.236 122.108 979.664 122.13C979.248 125.636 978.824 129.142 978.356 133.035C973.91 129.388 969.948 126.142 965.34 122.353C962.515 124.47 959.505 126.736 956.115 129.276C957.044 130.271 958.211 131.534 959.393 132.804C958.672 134.55 957.929 136.318 956.687 139.289Z" fill="#EFEFEF"/>
<path d="M1570.72 646.5C1565.4 647.83 1563.37 650.853 1562.39 655.339C1561.92 655.495 1561.65 655.681 1561.39 655.666C1547.07 654.767 1547.13 654.819 1537.72 663.926C1535.41 666.162 1532.65 667.93 1530.13 669.965C1529.82 670.217 1529.78 670.827 1529.52 671.54C1530.98 671.354 1532.24 671.191 1534.27 670.931C1532.68 674.808 1533.46 678.054 1536.4 682.206C1538.55 677.727 1540.15 674.399 1541.05 672.49C1547.21 669.957 1552.28 667.878 1557.58 665.701C1556.4 663.332 1555.51 661.556 1554.62 659.781C1555.24 659.492 1555.87 659.202 1556.49 658.905C1557.85 661.252 1559.21 663.599 1561.2 667.031C1563.09 664.706 1564.97 662.396 1567.06 659.818C1568.13 660.138 1570.05 660.71 1570.36 660.799C1576.12 658.526 1580.45 656.81 1585.07 654.983C1587.33 646.923 1589.85 638.025 1592.85 627.358C1592.08 625.962 1590.31 622.731 1588.54 619.492C1581.05 621.193 1582.97 625.754 1583.89 629.52C1581.66 637.208 1578.8 644.487 1570.72 646.5Z" fill="#EFEFEF"/>
<path d="M1153.64 284.81C1155 278.883 1156.09 274.136 1156.9 270.608C1164.14 262.482 1170.77 255.017 1177.41 247.559C1185.8 241.037 1195.31 235.674 1204.98 230.631C1209.99 228.016 1213.71 224.495 1215.56 219.132C1215.74 218.612 1215.58 217.973 1215.58 217.491C1215.15 216.904 1214.88 216.317 1214.43 215.968C1213.75 215.433 1212.94 215.069 1211.46 214.2C1202.27 221.673 1194.96 233.884 1181 230.155C1178.86 232.191 1177.47 234.634 1175.6 235.087C1168.93 236.692 1165.14 241.32 1161.51 246.519C1158.73 250.501 1155.51 254.177 1152.09 258.493C1155.15 266.991 1147.06 271.217 1143.18 278.816C1146.42 280.68 1149.47 282.418 1153.64 284.81Z" fill="#EFEFEF"/>
<path d="M1407.49 879.419C1407.49 879.522 1407.49 879.634 1407.49 879.737C1407.55 879.767 1407.62 879.797 1407.68 879.826C1407.71 879.708 1407.74 879.596 1407.77 879.478C1407.68 879.456 1407.59 879.441 1407.49 879.419Z" fill="#EFEFEF"/>
<path d="M1394.65 854.319C1394.8 853.235 1395.03 851.593 1395.15 850.739C1384.01 841.885 1373.19 833.291 1361.65 824.125C1359.65 824.006 1356.6 823.82 1353.55 823.634C1353.03 824.318 1352.51 824.994 1351.99 825.677C1354.01 826.947 1356.07 828.18 1358.06 829.503C1368.49 836.411 1374.06 847.508 1380.3 857.536C1385.32 865.602 1390.82 872.458 1398.76 877.264C1401.21 878.75 1404.53 878.787 1407.5 879.426C1407.5 875.051 1407.5 870.698 1407.5 867.073C1402.84 862.446 1398.94 858.583 1394.65 854.319Z" fill="#EFEFEF"/>
<path d="M380.55 260.818C381.859 257.03 382.691 254.601 383.516 252.216C381.376 248.852 379.339 245.643 377.161 242.211C371.474 241.424 363.922 248.079 359.953 237.472C359.953 233.394 359.953 228.328 359.953 223.686C355.047 217.773 348.148 222.341 342.886 219.786C341.696 221.398 340.291 223.307 339.868 223.886C339.645 228.009 339.816 230.802 339.266 233.453C338.693 236.231 337.43 238.868 336.441 241.654C340.373 241.327 344.424 240.993 350.103 240.525C348.2 243.763 347.361 245.19 346.535 246.601C347.479 249.008 348.401 251.384 349.39 253.903C352.073 253.123 354.207 252.506 356.043 251.971C357.351 248.918 358.466 246.319 359.685 243.481C363.008 244.848 365.914 246.044 368.635 247.165C368.337 249.891 368.1 252.068 367.802 254.779C372.173 256.859 376.194 258.76 380.55 260.818Z" fill="#EFEFEF"/>
<path d="M337.571 291.117C336.374 292.461 335.787 293.115 334.709 294.333C341.748 302.563 348.795 310.801 355.849 319.046C359.157 315.889 362.197 312.992 364.918 310.385C365.572 306.455 366.152 302.994 366.88 298.656C365.87 297.222 364.338 295.053 363.023 293.189C364.063 292.29 364.851 291.622 365.803 290.805C363.186 290.225 360.934 289.728 358.964 289.289C360.822 284.677 362.287 281.052 364.316 276.023C359.551 276.885 356.199 277.494 352.66 278.14C351.345 277.197 349.925 276.186 347.509 274.456C345.324 277.367 343.176 280.22 340.589 283.666C343.413 284.691 345.205 285.345 346.008 285.635C346.691 289.371 347.242 292.372 347.888 295.9C345.19 295.9 343.473 295.9 341.652 295.9C340.403 294.444 339.057 292.862 337.571 291.117Z" fill="#EFEFEF"/>
<path d="M1581.87 259.681C1581.53 258.114 1581.27 256.874 1581.13 256.161C1589.26 253.858 1597.58 259.102 1605.67 252.454C1606.63 249.617 1607.9 245.858 1609.19 242.047C1606.15 240.198 1603.75 238.742 1601.17 237.175C1599.37 240.911 1597.7 244.365 1596.04 247.812C1594.09 245.598 1593.38 243.838 1593.73 242.322C1594.17 240.488 1595.51 238.876 1596.39 237.279C1595.12 235.377 1593.96 233.661 1592.85 232.012C1591.36 232.28 1589.9 232.54 1588.11 232.867C1588.72 235.875 1589.28 238.608 1589.9 241.654C1587.91 241.654 1586.52 241.654 1586.02 241.654C1582.68 237.182 1579.8 233.349 1577.37 230.111C1573.76 232.948 1570.93 235.177 1568.7 236.93C1569.08 241.788 1569.39 245.68 1569.8 251.065C1572.24 254.029 1574.25 260.439 1581.87 259.681Z" fill="#EFEFEF"/>
<path d="M790.329 403.947C787.251 400.144 784.746 397.032 782.219 393.905C776.778 395.078 771.262 396.274 764.989 397.626C761.123 400.1 756.396 403.13 750.546 406.874C751.192 410.135 752.032 414.354 752.857 418.491C757.659 420.601 762.134 422.577 765.68 424.136C773.128 419.888 779.506 416.248 786.129 412.475C787.593 409.503 789.125 406.399 790.329 403.947Z" fill="#EFEFEF"/>
<path d="M397.915 276.142C387.27 269.65 376.7 269.241 371.853 275.169C372.5 275.704 373.139 276.231 373.875 276.84C369.378 280.68 371.214 285.962 371.422 290.582C371.638 295.558 373.288 300.468 374.492 306.292C376.67 306.411 379.071 306.537 382.015 306.693C381.049 302.043 380.29 298.366 379.436 294.236C382.751 294.4 386.163 294.578 389.366 294.734C392.28 288.376 395.098 282.255 397.915 276.142Z" fill="#EFEFEF"/>
<path d="M324.644 178.152C332.434 179.63 337.898 180.663 342.521 181.539C344.335 185.595 345.614 188.47 346.9 191.344C349.219 191.055 350.891 190.847 352.891 190.594C351.635 183.968 350.832 177.825 349.137 171.935C348.565 169.952 345.733 168.615 343.934 166.988C343.607 167.27 343.287 167.545 342.967 167.827C342.321 165.933 341.681 164.039 341.659 163.972C335.98 159.01 331.684 155.259 327.558 151.657C321.411 154.123 321.411 154.123 320.95 158.134C324.161 162.472 326.949 166.23 329.795 170.078C325.098 172.915 321.708 175.382 324.644 178.152Z" fill="#EFEFEF"/>
<path d="M246.312 235.429C247.3 234.389 248.333 233.305 249.374 232.205C248.385 231.492 247.486 230.839 245.368 229.309C248.46 228.907 250.363 228.662 251.218 228.551C252.273 224.339 253.254 220.432 254.236 216.532C254.89 216.555 255.544 216.584 256.205 216.607C257.016 220.009 257.833 223.403 258.644 226.805C259.127 226.738 259.61 226.672 260.086 226.605C260.45 224.696 260.807 222.794 261.141 221.034C262.94 220.254 264.486 219.578 266.389 218.753C265.846 215.314 265.341 212.143 264.769 208.54C265.623 207.344 266.805 205.688 268.166 203.779C266.545 202.085 265.133 200.599 263.55 198.943C263.022 200.599 262.576 201.981 262.293 202.865C258.235 203.4 254.414 203.905 250.98 204.365C245.382 212.922 241.361 222.022 231.712 226.597C232.879 229.063 233.876 231.158 234.619 232.725C239.413 233.832 242.803 234.62 246.312 235.429Z" fill="#EFEFEF"/>
<path d="M1375.92 189.049C1379.17 186.798 1382.42 184.548 1385.32 182.542C1393.66 181.48 1402.45 182.104 1405.84 171.727C1402.7 167.374 1399.7 163.229 1396.74 159.129C1394.76 159.493 1393.05 159.813 1391.02 160.184C1391.76 157.161 1392.3 154.962 1392.84 152.771C1392.39 152.407 1391.95 152.035 1391.51 151.672C1389.54 153.12 1386.5 154.167 1385.77 156.084C1381.76 166.669 1378.32 177.461 1374.69 188.18C1375.1 188.47 1375.51 188.759 1375.92 189.049Z" fill="#EFEFEF"/>
<path d="M1750.17 1081.87C1747.62 1086.45 1745.06 1091.04 1742.65 1095.37C1733.93 1101.6 1724.45 1106.63 1721.07 1117.74C1725.73 1119.34 1730.35 1120.92 1735.53 1122.68C1738.97 1116.3 1741.99 1110.7 1745.66 1103.89C1746.04 1103.68 1747.84 1102.7 1750 1101.51C1750.53 1094.87 1760.43 1091.66 1758.06 1084.6C1754.62 1083.41 1752.17 1082.56 1750.17 1081.87Z" fill="#EFEFEF"/>
<path d="M573.528 541.892C572.465 542.88 571.037 543.645 570.473 544.826C566.414 553.272 562.526 561.799 558.549 570.393C567.053 571.203 575.326 571.99 582.373 572.666C585.057 574.738 586.804 576.083 588.602 577.479C591.122 571.723 590.825 570.282 584.596 557.602C581.452 557.869 578.909 558.085 576.56 558.285C575.274 555.069 574.182 552.351 572.866 549.067C573.572 547.396 577.512 545.539 573.528 541.892Z" fill="#EFEFEF"/>
<path d="M1141.21 327.172C1145.95 327.172 1149.58 327.172 1153.64 327.172C1144.99 314.582 1144.61 301.768 1149.64 288.413C1145.76 288.413 1142.85 288.413 1139.38 288.413C1137.78 294.935 1136.25 301.167 1134.77 307.191C1132.98 308.297 1131.16 309.427 1127.8 311.506C1133.55 315.659 1138.19 319.009 1142.83 322.359C1142.38 323.688 1141.93 325.018 1141.21 327.172Z" fill="#EFEFEF"/>
<path d="M829.681 534.1C830.469 527.489 831.19 521.443 831.904 515.404C832.312 515.434 832.714 515.463 833.123 515.486C832.29 513.629 831.45 511.764 830.662 510.004C827.369 510.004 824.485 510.004 821.319 510.004C820.545 513.034 819.862 515.716 819.185 518.375C816.784 518.479 814.814 518.568 812.971 518.65C812.867 520.752 812.785 522.49 812.696 524.221C813.134 524.288 813.573 524.355 814.011 524.421C815.468 526.798 816.933 529.175 818.263 531.344C815.335 533.632 813.09 535.378 810.287 537.569C819.051 543.801 822.939 533.491 829.681 534.1Z" fill="#EFEFEF"/>
<path d="M1767.81 1060.77C1767.16 1057.63 1766.77 1055.76 1766.26 1053.25C1757.99 1057.64 1766.42 1067.91 1757.76 1070.87C1760.79 1073.45 1763.01 1075.34 1765.4 1077.39C1764.12 1079.55 1762.98 1081.48 1761.76 1083.54C1763.01 1084.27 1764.49 1085.13 1766.99 1086.58C1769.49 1080.68 1771.74 1075.35 1774.07 1069.84C1779.02 1069.13 1779.98 1065.77 1779.4 1062.09C1774.91 1061.58 1771.14 1061.15 1767.81 1060.77Z" fill="#EFEFEF"/>
<path d="M1593.67 589.438C1591.4 595.945 1589.27 602.066 1587.1 608.261C1590.62 608.848 1594.94 609.576 1597.83 610.058C1602.15 607.555 1605.49 605.624 1609.94 603.054C1610.1 602.675 1610.84 600.922 1612.31 597.438C1601.21 602.942 1598.62 593.004 1593.67 589.438Z" fill="#EFEFEF"/>
<path d="M1493.55 855.389C1490.45 856.303 1487.35 857.216 1484.4 858.093C1482.72 856.882 1481.1 855.716 1479.15 854.305C1477.51 859.073 1476.11 863.174 1475.34 865.417C1477.06 871.292 1478.29 875.497 1479.53 879.701C1480 879.612 1480.46 879.522 1480.93 879.433C1481.24 874.969 1481.55 870.505 1481.94 864.771C1485.35 869.049 1487.79 872.102 1490.27 875.214C1491.04 874.791 1492.06 874.234 1493.41 873.498C1491.87 869.428 1490.35 865.409 1488.71 861.042C1490.43 859.519 1492.25 857.915 1494.06 856.303C1493.89 855.998 1493.72 855.694 1493.55 855.389Z" fill="#EFEFEF"/>
<path d="M970.855 175.196C971.703 183.924 972.446 191.56 973.174 199.084C974.884 198.49 977.449 197.591 980.139 196.648C980.675 198.631 981.031 199.953 981.359 201.186C986.77 199.196 985.759 194.338 986.279 191.797C983.886 188.18 982.213 185.662 980.281 182.743C979.255 182.505 977.59 182.119 976.282 181.814C976.282 179.638 976.282 177.952 976.282 175.842C974.304 175.604 972.662 175.411 970.855 175.196Z" fill="#EFEFEF"/>
<path d="M363.26 183.092C363.588 185.744 363.877 188.106 364.212 190.847C368.263 189.272 371.422 188.039 373.868 187.088C373.608 183.211 373.407 180.202 373.206 177.172C368.687 173.666 363.981 170.004 359.276 166.342C358.667 166.676 358.065 167.018 357.455 167.352C357.938 171.43 358.429 175.5 358.957 179.994C360.451 181.079 362.079 182.245 363.26 183.092Z" fill="#EFEFEF"/>
<path d="M1437.01 886.089C1431.37 886.475 1427.04 887.782 1423.35 886.78C1417.9 885.301 1412.87 882.241 1407.68 879.827C1407.39 880.845 1407.1 881.862 1406.81 882.865C1411.18 888.131 1414.26 889.899 1419.93 890.605C1424.28 891.147 1428.61 891.935 1432.97 892.388C1438.75 892.989 1444.5 895.834 1451.59 892.737C1445.56 889.996 1440.51 887.686 1437.01 886.089Z" fill="#EFEFEF"/>
<path d="M1608.09 1081.02C1609.33 1088.91 1610.21 1095.85 1616.62 1100.03C1619.26 1098.33 1621.56 1096.84 1624.26 1095.1C1624.89 1091.66 1625.62 1087.67 1626.69 1081.83C1621.88 1082.84 1618.81 1083.49 1615.72 1084.14C1613.47 1083.22 1611.18 1082.28 1608.09 1081.02Z" fill="#EFEFEF"/>
<path d="M297.906 198.393C295.758 194.873 294.22 192.34 292.904 190.171C294.591 189.235 296.45 188.21 298.739 186.939C297.572 185.692 296.97 185.045 296.026 184.035C289.73 186.546 283.627 188.982 277.547 191.404C280.542 195.526 283.107 199.062 285.634 202.546C289.633 201.194 292.644 200.176 297.906 198.393Z" fill="#EFEFEF"/>
<path d="M429.254 734.491C441.266 728.304 449.502 736.638 458.199 737.426C461.165 740.664 463.737 743.457 465.915 745.834C470.635 745.834 474.515 745.834 478.396 745.834C478.44 745.307 478.485 744.787 478.529 744.259C469.446 739.624 460.504 734.692 451.234 730.473C445.027 727.643 435.721 729.344 429.254 734.491Z" fill="#EFEFEF"/>
<path d="M1625.89 258.248C1629.45 258.018 1632.36 257.825 1636.06 257.587C1636.24 255.032 1636.39 252.944 1636.56 250.463C1629.15 249.156 1623.21 244.476 1615.54 247.262C1616.24 253.724 1624.46 252.877 1625.89 258.248Z" fill="#EFEFEF"/>
</g>
<defs>
<filter id="filter0_f_1_12" x="-6.98517" y="-6.98511" width="1853.99" height="1207.97" filterUnits="userSpaceOnUse" color-interpolation-filters="sRGB">
<feFlood flood-opacity="0" result="BackgroundImageFix"/>
<feBlend mode="normal" in="SourceGraphic" in2="BackgroundImageFix" result="shape"/>
<feGaussianBlur stdDeviation="3.5" result="effect1_foregroundBlur_1_12"/>
</filter>
</defs>
</svg>
