<svg width="218" height="139" viewBox="0 0 218 139" fill="none" xmlns="http://www.w3.org/2000/svg">
<path d="M129.591 75.273C129.591 81.1025 124.827 85.8665 118.998 85.8665H58.0697C52.2402 85.8665 47.4762 81.1025 47.4762 75.273V55.4069C47.4762 49.5773 52.249 44.8134 58.0697 44.8134H118.998C124.827 44.8134 129.591 49.5773 129.591 55.4069V75.273Z" fill="#E2E2E2"/>
<path d="M217.421 75.273C217.421 81.1025 212.649 85.8665 206.828 85.8665H145.909C140.079 85.8665 135.315 81.1025 135.315 75.273V55.4069C135.315 49.5773 140.079 44.8134 145.909 44.8134H206.828C212.657 44.8134 217.421 49.5773 217.421 55.4069V75.273Z" fill="#E2E2E2"/>
<path d="M170.656 127.571C170.656 133.4 165.892 138.164 160.062 138.164H99.1342C93.3047 138.164 88.5406 133.4 88.5406 127.571V107.705C88.5406 101.875 93.3047 97.1113 99.1342 97.1113H160.062C165.892 97.1113 170.656 101.875 170.656 107.705V127.571Z" fill="#E2E2E2"/>
<path d="M82.1151 30.4596C82.1151 36.2891 77.3423 41.0531 71.5216 41.0531H10.5935C4.76399 41.0531 0 36.2891 0 30.4596V10.5935C0 4.76399 4.76399 0 10.5935 0H71.5216C77.3511 0 82.1151 4.76399 82.1151 10.5935V30.4596Z" fill="#E2E2E2"/>
</svg>
