<svg width="249" height="106" viewBox="0 0 249 106" fill="none" xmlns="http://www.w3.org/2000/svg">
<path d="M248.631 35.8919C248.631 42.7611 243.007 48.3747 236.148 48.3747H164.364C157.495 48.3747 151.881 42.7611 151.881 35.8919V12.4828C151.881 5.61359 157.495 0 164.364 0H236.148C243.017 0 248.631 5.61359 248.631 12.4828V35.8919Z" fill="#E2E2E2"/>
<path d="M200.246 93.1075C200.246 99.9767 194.633 105.59 187.764 105.59H115.98C109.111 105.59 103.497 99.9767 103.497 93.1075V69.6984C103.497 62.8292 109.111 57.2156 115.98 57.2156H187.764C194.633 57.2156 200.246 62.8292 200.246 69.6984V93.1075Z" fill="#E2E2E2"/>
<path d="M96.7598 93.1075C96.7598 99.9767 91.1462 105.59 84.277 105.59H12.4828C5.61362 105.59 0 99.9767 0 93.1075V69.6984C0 62.8292 5.624 57.2156 12.4828 57.2156H84.277C91.1462 57.2156 96.7598 62.8292 96.7598 69.6984V93.1075Z" fill="#E2E2E2"/>
</svg>
