<svg width="269" height="512" viewBox="0 0 269 512" fill="none" xmlns="http://www.w3.org/2000/svg">
<path d="M268.997 15.4602V496.492C268.997 504.119 263.409 510.512 256.108 511.729C255.251 511.883 254.411 511.969 253.537 511.969H2.72829V0.239958H0.123047C0.980042 0.0856985 1.85416 0 2.72829 0H253.537C254.411 0 255.268 0.0685586 256.108 0.239958C263.409 1.43975 268.997 7.83295 268.997 15.4602Z" fill="#1BA39C"/>
<path d="M269.002 15.4602V496.492C269.002 504.119 263.415 510.512 256.113 511.729V0.239929C263.415 1.43972 269.002 7.83292 269.002 15.4602Z" fill="#0E524E"/>
<path d="M222.384 41.8719V56.0466H33.8796C32.3199 56.0466 30.7773 55.9951 29.3376 55.8752V42.0261C30.7944 41.9233 32.3199 41.8547 33.8796 41.8547H222.384V41.8719Z" fill="#35312F"/>
<path d="M222.384 88.2523V102.427H33.8796C32.3199 102.427 30.7773 102.376 29.3376 102.273V88.4237C30.7944 88.3208 32.3199 88.2523 33.8796 88.2523H222.384Z" fill="#35312F"/>
<path d="M222.384 134.633V148.808H33.8796C32.3199 148.808 30.7773 148.757 29.3376 148.637V134.788C30.7944 134.685 32.3199 134.616 33.8796 134.616H222.384V134.633Z" fill="#35312F"/>
<path d="M222.384 181.031V195.206H33.8796C32.3199 195.206 30.7773 195.154 29.3376 195.034V181.185C30.7944 181.082 32.3199 181.014 33.8796 181.014H222.384V181.031Z" fill="#35312F"/>
<path d="M222.384 227.428V241.586H33.8796C32.3199 241.586 30.7773 241.534 29.3376 241.415V227.583C30.7944 227.48 32.3199 227.428 33.8796 227.428H222.384Z" fill="#35312F"/>
<path d="M222.384 273.809V287.966H33.8796C32.3199 287.966 30.7773 287.915 29.3376 287.795V273.963C30.7944 273.86 32.3199 273.792 33.8796 273.792H222.384V273.809Z" fill="#35312F"/>
<path d="M222.384 320.19V334.365H33.8796C32.3199 334.365 30.7773 334.314 29.3376 334.211V320.362C30.7944 320.259 32.3199 320.19 33.8796 320.19H222.384Z" fill="#35312F"/>
<path d="M222.384 366.57V380.745H33.8796C32.3199 380.745 30.7773 380.694 29.3376 380.574V366.725C30.7944 366.622 32.3199 366.553 33.8796 366.553H222.384V366.57Z" fill="#35312F"/>
<path d="M222.384 412.951V427.125H33.8796C32.3199 427.125 30.7773 427.074 29.3376 426.971V413.122C30.7944 413.019 32.3199 412.951 33.8796 412.951H222.384Z" fill="#35312F"/>
<path d="M222.384 459.331V473.506H33.8796C32.3199 473.506 30.7773 473.455 29.3376 473.352V459.503C30.7944 459.4 32.3199 459.331 33.8796 459.331H222.384Z" fill="#35312F"/>
<path d="M222.384 56.0638V61.8399H33.8796C32.3199 61.8399 30.7773 61.8056 29.3376 61.7885V56.1152C30.7944 56.0809 32.3199 56.0638 33.8796 56.0638H222.384Z" fill="#147A75"/>
<path d="M222.384 102.445V108.255H33.8796C32.3199 108.255 30.7773 108.221 29.3376 108.204V102.513C30.7944 102.479 32.3199 102.462 33.8796 102.462H222.384V102.445Z" fill="#147A75"/>
<path d="M222.384 148.825V154.636H33.8796C32.3199 154.636 30.7773 154.601 29.3376 154.584V148.894C30.7944 148.86 32.3199 148.842 33.8796 148.842H222.384V148.825Z" fill="#147A75"/>
<path d="M222.384 195.206V201.016H33.8796C32.3199 201.016 30.7773 200.982 29.3376 200.965V195.257C30.7944 195.223 32.3199 195.206 33.8796 195.206H222.384Z" fill="#147A75"/>
<path d="M222.384 287.967V293.777H33.8796C32.3199 293.777 30.7773 293.743 29.3376 293.726V288.035C30.7944 288.001 32.3199 287.984 33.8796 287.984H222.384V287.967Z" fill="#147A75"/>
<path d="M222.384 241.586V247.396H33.8796C32.3199 247.396 30.7773 247.362 29.3376 247.345V241.654C30.7944 241.62 32.3199 241.603 33.8796 241.603H222.384V241.586Z" fill="#147A75"/>
<path d="M222.384 334.382V340.158H33.8796C32.3199 340.158 30.7773 340.124 29.3376 340.107V334.45C30.7944 334.416 32.3199 334.399 33.8796 334.399H222.384V334.382Z" fill="#147A75"/>
<path d="M222.384 380.762V386.538H33.8796C32.3199 386.538 30.7773 386.504 29.3376 386.487V380.814C30.7944 380.779 32.3199 380.762 33.8796 380.762H222.384Z" fill="#147A75"/>
<path d="M222.384 427.125V432.936H33.8796C32.3199 432.936 30.7773 432.901 29.3376 432.884V427.194C30.7944 427.177 32.3199 427.142 33.8796 427.142H222.384V427.125Z" fill="#147A75"/>
<path d="M222.384 473.524V479.334H33.8796C32.3199 479.334 30.7773 479.3 29.3376 479.283V473.592C30.7944 473.558 32.3199 473.541 33.8796 473.541H222.384V473.524Z" fill="#147A75"/>
</svg>
