<svg width="274" height="513" viewBox="0 0 274 513" fill="none" xmlns="http://www.w3.org/2000/svg">
<path d="M273.382 510.375C271.239 511.489 268.839 512.106 266.303 512.106H15.4602C6.9588 512.106 0 505.147 0 496.646V15.5972C0 7.09583 6.9588 0.137024 15.4602 0.137024H266.303V510.375H273.382Z" fill="#49B5B0"/>
<path d="M0 15.5972V496.629C0 504.256 5.5876 510.649 12.8892 511.866V0.376953C5.5876 1.57675 0 7.96994 0 15.5972Z" fill="#92D3D0"/>
<path d="M237.409 42.0103V56.1849H48.9043C47.3446 56.1849 45.8191 56.1335 44.3622 56.0135V42.1645C45.8191 42.0617 47.3446 41.9931 48.9043 41.9931H237.409V42.0103Z" fill="#35312F"/>
<path d="M237.409 88.3906V102.565H48.9043C47.3446 102.565 45.8191 102.514 44.3622 102.411V88.562C45.8191 88.4592 47.3446 88.3906 48.9043 88.3906H237.409Z" fill="#35312F"/>
<path d="M237.409 134.772V148.947H48.9043C47.3446 148.947 45.8191 148.895 44.3622 148.775V134.926C45.8191 134.824 47.3446 134.755 48.9043 134.755H237.409V134.772Z" fill="#35312F"/>
<path d="M237.409 181.169V195.344H48.9043C47.3446 195.344 45.8191 195.293 44.3622 195.173V181.324C45.8191 181.221 47.3446 181.152 48.9043 181.152H237.409V181.169Z" fill="#35312F"/>
<path d="M237.409 227.567V241.725H48.9043C47.3446 241.725 45.8191 241.673 44.3622 241.553V227.722C45.8191 227.619 47.3446 227.567 48.9043 227.567H237.409Z" fill="#35312F"/>
<path d="M237.409 273.947V288.105H48.9043C47.3446 288.105 45.8191 288.053 44.3622 287.933V274.102C45.8191 273.999 47.3446 273.93 48.9043 273.93H237.409V273.947Z" fill="#35312F"/>
<path d="M237.409 320.329V334.503H48.9043C47.3446 334.503 45.8191 334.452 44.3622 334.349V320.5C45.8191 320.397 47.3446 320.329 48.9043 320.329H237.409Z" fill="#35312F"/>
<path d="M237.409 366.709V380.883H48.9043C47.3446 380.883 45.8191 380.832 44.3622 380.712V366.863C45.8191 366.76 47.3446 366.692 48.9043 366.692H237.409V366.709Z" fill="#35312F"/>
<path d="M237.409 413.089V427.264H48.9043C47.3446 427.264 45.8191 427.212 44.3622 427.11V413.261C45.8191 413.158 47.3446 413.089 48.9043 413.089H237.409Z" fill="#35312F"/>
<path d="M237.409 459.47V473.644H48.9043C47.3446 473.644 45.8191 473.593 44.3622 473.49V459.641C45.8191 459.538 47.3446 459.47 48.9043 459.47H237.409Z" fill="#35312F"/>
<path d="M237.409 56.2021V61.9783H48.9043C47.3446 61.9783 45.8191 61.944 44.3622 61.9269V56.2536C45.8191 56.2193 47.3446 56.2021 48.9043 56.2021H237.409Z" fill="#147A75"/>
<path d="M237.409 102.583V108.394H48.9043C47.3446 108.394 45.8191 108.359 44.3622 108.342V102.652C45.8191 102.617 47.3446 102.6 48.9043 102.6H237.409V102.583Z" fill="#147A75"/>
<path d="M237.409 148.964V154.774H48.9043C47.3446 154.774 45.8191 154.74 44.3622 154.723V149.032C45.8191 148.998 47.3446 148.981 48.9043 148.981H237.409V148.964Z" fill="#147A75"/>
<path d="M237.409 195.345V201.155H48.9043C47.3446 201.155 45.8191 201.121 44.3622 201.104V195.396C45.8191 195.362 47.3446 195.345 48.9043 195.345H237.409Z" fill="#147A75"/>
<path d="M237.409 288.105V293.916H48.9043C47.3446 293.916 45.8191 293.881 44.3622 293.864V288.174C45.8191 288.139 47.3446 288.122 48.9043 288.122H237.409V288.105Z" fill="#147A75"/>
<path d="M237.409 241.724V247.535H48.9043C47.3446 247.535 45.8191 247.5 44.3622 247.483V241.793C45.8191 241.758 47.3446 241.741 48.9043 241.741H237.409V241.724Z" fill="#147A75"/>
<path d="M237.409 334.52V340.296H48.9043C47.3446 340.296 45.8191 340.262 44.3622 340.245V334.589C45.8191 334.554 47.3446 334.537 48.9043 334.537H237.409V334.52Z" fill="#147A75"/>
<path d="M237.409 380.901V386.677H48.9043C47.3446 386.677 45.8191 386.643 44.3622 386.625V380.952C45.8191 380.918 47.3446 380.901 48.9043 380.901H237.409Z" fill="#147A75"/>
<path d="M237.409 427.264V433.074H48.9043C47.3446 433.074 45.8191 433.04 44.3622 433.023V427.332C45.8191 427.315 47.3446 427.281 48.9043 427.281H237.409V427.264Z" fill="#147A75"/>
<path d="M237.409 473.662V479.473H48.9043C47.3446 479.473 45.8191 479.438 44.3622 479.421V473.731C45.8191 473.697 47.3446 473.679 48.9043 473.679H237.409V473.662Z" fill="#147A75"/>
</svg>
