<svg width="45" height="45" viewBox="0 0 45 45" fill="none" xmlns="http://www.w3.org/2000/svg">
<path d="M22.9849 1.93827C24.4828 -0.552145 28.2924 0.329146 28.5444 3.22437L29.4448 13.5689C29.5575 14.8636 30.4911 15.9386 31.7574 16.2315L41.8738 18.5718C44.7052 19.2268 45.0443 23.1223 42.3686 24.2566L32.8087 28.3096C31.6121 28.8169 30.8783 30.037 30.991 31.3318L31.8914 41.6763C32.1434 44.5715 28.5433 46.0977 26.6377 43.9036L19.8289 36.064C18.9767 35.0827 17.5895 34.7618 16.3929 35.2691L6.83297 39.3221C4.15733 40.4564 1.59329 37.5042 3.09118 35.0138L8.44306 26.1157C9.11294 25.002 8.98947 23.5835 8.13724 22.6023L1.32845 14.7627C-0.577197 12.5685 1.4382 9.21767 4.26959 9.87267L14.386 12.2129C15.6523 12.5059 16.9631 11.9501 17.633 10.8364L22.9849 1.93827Z" fill="#4259CC"/>
</svg>
