<svg width="44" height="45" viewBox="0 0 44 45" fill="none" xmlns="http://www.w3.org/2000/svg">
<path d="M2.47927 26.7408C-0.361737 26.1288 -0.759876 22.2389 1.89825 21.0641L11.3956 16.8666C12.5844 16.3412 13.2996 15.1101 13.1673 13.8172L12.11 3.48754C11.8141 0.596469 15.3906 -0.984232 17.3293 1.18076L24.2563 8.91618C25.1233 9.88439 26.5152 10.1842 27.7039 9.65882L37.2013 5.46128C39.8594 4.28647 42.4679 7.19945 41.008 9.7123L35.7917 18.6906C35.1388 19.8144 35.2838 21.2308 36.1508 22.199L43.0777 29.9344C45.0164 32.0994 43.0521 35.4804 40.2111 34.8684L30.0603 32.6819C28.7898 32.4082 27.4875 32.9838 26.8346 34.1076L21.6184 43.0858C20.1584 45.5987 16.3359 44.7753 16.04 41.8842L14.9827 31.5546C14.8504 30.2617 13.9006 29.201 12.63 28.9273L2.47927 26.7408Z" fill="#4259CC"/>
</svg>
