<svg width="45" height="46" viewBox="0 0 45 46" fill="none" xmlns="http://www.w3.org/2000/svg">
<path d="M22.8364 2.14042C24.3343 -0.349996 28.1439 0.531294 28.396 3.42652L29.2964 13.771C29.4091 15.0658 30.3427 16.1407 31.6089 16.4337L41.7254 18.7739C44.5568 19.4289 44.8958 23.3244 42.2202 24.4588L32.6602 28.5118C31.4637 29.019 30.7298 30.2391 30.8425 31.5339L31.7429 41.8784C31.9949 44.7736 28.3949 46.2999 26.4892 44.1057L19.6804 36.2661C18.8282 35.2849 17.4411 34.964 16.2445 35.4713L6.68454 39.5242C4.00889 40.6586 1.44485 37.7064 2.94274 35.216L8.29462 26.3178C8.9645 25.2041 8.84103 23.7857 7.9888 22.8044L1.18002 14.9648C-0.725635 12.7707 1.28976 9.41982 4.12116 10.0748L14.2376 12.4151C15.5038 12.708 16.8147 12.1523 17.4846 11.0385L22.8364 2.14042Z" fill="#DCFA26"/>
</svg>
