<svg width="45" height="45" viewBox="0 0 45 45" fill="none" xmlns="http://www.w3.org/2000/svg">
<path d="M2.71364 26.5992C-0.127362 25.9872 -0.525501 22.0973 2.13263 20.9225L11.63 16.725C12.8187 16.1996 13.534 14.9685 13.4017 13.6756L12.3444 3.34593C12.0485 0.454868 15.625 -1.12583 17.5637 1.03916L24.4906 8.77458C25.3577 9.74279 26.7495 10.0426 27.9383 9.51721L37.4356 5.31968C40.0938 4.14487 42.7023 7.05785 41.2424 9.5707L36.0261 18.549C35.3732 19.6728 35.5182 21.0892 36.3852 22.0574L43.3121 29.7928C45.2508 31.9578 43.2865 35.3388 40.4455 34.7268L30.2947 32.5403C29.0242 32.2666 27.7219 32.8422 27.069 33.966L21.8527 42.9442C20.3928 45.4571 16.5702 44.6337 16.2743 41.7426L15.2171 31.413C15.0848 30.1201 14.135 29.0594 12.8644 28.7857L2.71364 26.5992Z" fill="#DCFA26"/>
</svg>
