<svg width="61" height="61" viewBox="0 0 61 61" fill="none" xmlns="http://www.w3.org/2000/svg">
<path d="M27.7796 9.46573C28.6777 6.70179 32.5879 6.70179 33.486 9.46572L36.6947 19.3411C37.0963 20.5772 38.2482 21.4141 39.5479 21.4141H49.9315C52.8376 21.4141 54.046 25.1329 51.6948 26.8411L43.2943 32.9444C42.2428 33.7084 41.8029 35.0625 42.2045 36.2985L45.4132 46.1739C46.3113 48.9379 43.1478 51.2362 40.7967 49.528L32.3962 43.4247C31.3447 42.6608 29.9209 42.6608 28.8695 43.4247L20.469 49.528C18.1178 51.2362 14.9544 48.9379 15.8524 46.1739L19.0611 36.2985C19.4628 35.0625 19.0228 33.7084 17.9713 32.9444L9.57082 26.8411C7.21967 25.1329 8.428 21.4141 11.3342 21.4141H21.7178C23.0174 21.4141 24.1693 20.5772 24.5709 19.3411L27.7796 9.46573Z" fill="#DCFA26"/>
</svg>
