<svg width="57" height="55" viewBox="0 0 57 55" fill="none" xmlns="http://www.w3.org/2000/svg">
<path d="M26.0609 2.66593C26.959 -0.0980058 30.8692 -0.0980125 31.7672 2.66592L36.3037 16.6278C36.7054 17.8639 37.8572 18.7008 39.1569 18.7008L53.8373 18.7008C56.7435 18.7008 57.9518 22.4196 55.6007 24.1278L43.724 32.7568C42.6725 33.5207 42.2325 34.8748 42.6342 36.1109L47.1707 50.0728C48.0687 52.8367 44.9053 55.1351 42.5541 53.4269L30.6774 44.7979C29.626 44.034 28.2022 44.034 27.1507 44.7979L15.274 53.4269C12.9229 55.1351 9.75942 52.8367 10.6575 50.0728L15.194 36.1109C15.5956 34.8748 15.1556 33.5207 14.1042 32.7568L2.22746 24.1278C-0.123682 22.4196 1.08464 18.7008 3.99081 18.7008L18.6712 18.7008C19.9709 18.7008 21.1228 17.8639 21.5244 16.6278L26.0609 2.66593Z" fill="white"/>
</svg>
