<svg width="60" height="59" viewBox="0 0 60 59" fill="none" xmlns="http://www.w3.org/2000/svg">
<rect width="60" height="59" fill="#F5F5F5"/>
<g id="Index">
<rect width="1400" height="4782" transform="translate(-400 -1060)" fill="white"/>
<g id="Muhammad">
<path id="Vector" d="M52.4785 29.7384C52.4785 34.1662 51.1655 38.4945 48.7056 42.1761C46.2456 45.8577 42.7492 48.7271 38.6584 50.4216C34.5677 52.116 30.0663 52.5594 25.7236 51.6956C21.3809 50.8317 17.3918 48.6995 14.2609 45.5686C11.13 42.4377 8.99778 38.4486 8.13396 34.1059C7.27014 29.7632 7.71348 25.2619 9.40793 21.1711C11.1024 17.0803 13.9718 13.5839 17.6534 11.124C21.335 8.664 25.6633 7.35101 30.0912 7.35101C36.0286 7.35101 41.723 9.70967 45.9214 13.9081C50.1198 18.1066 52.4785 23.8009 52.4785 29.7384ZM31.6029 1.2288C31.2012 0.829402 30.6577 0.605225 30.0912 0.605225C29.5246 0.605225 28.9811 0.829402 28.5794 1.2288L21.9318 7.87638C21.5367 8.27389 21.0018 8.50096 20.4414 8.50898H11.0061C10.4374 8.50898 9.89198 8.7349 9.48983 9.13705C9.08768 9.5392 8.86176 10.0846 8.86176 10.6534V20.0886C8.86198 20.3716 8.8062 20.6518 8.69763 20.9131C8.58906 21.1744 8.42985 21.4117 8.22917 21.6112L1.58158 28.2587C1.18219 28.6605 0.958008 29.204 0.958008 29.7705C0.958008 30.337 1.18219 30.8805 1.58158 31.2823L8.22917 37.9299C8.61904 38.317 8.84547 38.8389 8.86176 39.3881V48.8234C8.86176 49.3921 9.08768 49.9375 9.48983 50.3397C9.89198 50.7418 10.4374 50.9678 11.0061 50.9678H20.4414C20.7244 50.9675 21.0046 51.0233 21.2659 51.1319C21.5272 51.2405 21.7644 51.3997 21.9639 51.6003L28.6115 58.2479C29.0133 58.6473 29.5568 58.8715 30.1233 58.8715C30.6898 58.8715 31.2333 58.6473 31.6351 58.2479L38.2827 51.6003C38.6698 51.2105 39.1917 50.984 39.7409 50.9678H49.1762C49.7449 50.9678 50.2903 50.7418 50.6925 50.3397C51.0946 49.9375 51.3205 49.3921 51.3205 48.8234V39.3881C51.3203 39.1051 51.3761 38.8249 51.4847 38.5636C51.5932 38.3023 51.7525 38.0651 51.9531 37.8656L58.6007 31.218C59.0001 30.8162 59.2243 30.2727 59.2243 29.7062C59.2243 29.1397 59.0001 28.5962 58.6007 28.1944L51.9531 21.5468C51.5633 21.1597 51.3368 20.6378 51.3205 20.0886V10.6534C51.3205 10.0846 51.0946 9.5392 50.6925 9.13705C50.2903 8.7349 49.7449 8.50898 49.1762 8.50898H39.7409C39.4579 8.5092 39.1777 8.45342 38.9164 8.34485C38.6551 8.23628 38.4179 8.07706 38.2184 7.87638L31.6029 1.2288Z" fill="#93D8E4"/>
<g id="Group">
<path id="Vector_2" fill-rule="evenodd" clip-rule="evenodd" d="M48.2327 29.7384C48.2327 33.3264 47.1687 36.8339 45.1753 39.8172C43.1819 42.8006 40.3485 45.1258 37.0336 46.4989C33.7187 47.872 30.0711 48.2313 26.552 47.5313C23.0329 46.8313 19.8004 45.1035 17.2632 42.5663C14.7261 40.0292 12.9983 36.7967 12.2983 33.2776C11.5983 29.7585 11.9576 26.1108 13.3306 22.7959C14.7037 19.481 17.029 16.6477 20.0123 14.6543C22.9957 12.6609 26.5031 11.5969 30.0912 11.5969C32.474 11.5955 34.8336 12.0638 37.0353 12.975C39.237 13.8862 41.2374 15.2224 42.9223 16.9073C44.6072 18.5921 45.9434 20.5926 46.8546 22.7943C47.7658 24.9959 48.2341 27.3556 48.2327 29.7384ZM52.5214 29.7384C52.5214 34.1643 51.2095 38.491 48.7514 42.1716C46.2934 45.8523 42.7995 48.7218 38.7112 50.4175C34.623 52.1132 30.1238 52.559 25.7823 51.6986C21.4407 50.8383 17.4516 48.7104 14.319 45.5837C11.1863 42.4571 9.05078 38.472 8.18212 34.1322C7.31346 29.7923 7.75069 25.2923 9.43857 21.2008C11.1264 17.1093 13.9892 13.6099 17.6651 11.1448C21.3411 8.67969 25.6652 7.35949 30.0912 7.35101C36.0287 7.35101 41.723 9.70968 45.9214 13.9081C50.1199 18.1066 52.4785 23.8009 52.4785 29.7384H52.5214Z" fill="#F4D8A5"/>
<path id="Vector_3" fill-rule="evenodd" clip-rule="evenodd" d="M27.8074 16.0143C29.3191 15.7569 30.8633 15.7569 32.375 16.0143C32.5158 16.0376 32.6598 16.0328 32.7987 16.0004C32.9377 15.968 33.0689 15.9085 33.1849 15.8254C33.3009 15.7422 33.3994 15.6371 33.4748 15.5159C33.5501 15.3947 33.6008 15.2598 33.6241 15.119C33.6473 14.9782 33.6426 14.8342 33.6102 14.6953C33.5777 14.5563 33.5183 14.4251 33.4351 14.3091C33.352 14.1931 33.2468 14.0946 33.1256 14.0193C33.0044 13.9439 32.8696 13.8932 32.7288 13.8699C30.982 13.584 29.2004 13.584 27.4536 13.8699C27.1692 13.9169 26.9152 14.0748 26.7473 14.3091C26.5794 14.5433 26.5114 14.8347 26.5583 15.119C26.6052 15.4034 26.7632 15.6575 26.9975 15.8254C27.2317 15.9933 27.5231 16.0612 27.8074 16.0143ZM38.1862 18.416C39.4273 19.3049 40.514 20.3915 41.4028 21.6326C41.5678 21.8644 41.818 22.0211 42.0985 22.0684C42.379 22.1156 42.6668 22.0495 42.8985 21.8846C43.1303 21.7196 43.287 21.4694 43.3343 21.1889C43.3815 20.9084 43.3154 20.6206 43.1505 20.3889C42.1189 18.9497 40.8584 17.6893 39.4193 16.6576C39.1875 16.4927 38.8997 16.4266 38.6192 16.4738C38.3387 16.5211 38.0885 16.6778 37.9236 16.9096C37.7586 17.1414 37.6925 17.4291 37.7398 17.7096C37.787 17.9901 37.9438 18.2404 38.1755 18.4053L38.1862 18.416ZM18.7689 21.6326C19.6577 20.3915 20.7443 19.3049 21.9854 18.416C22.2172 18.2511 22.3739 18.0009 22.4212 17.7204C22.4684 17.4399 22.4023 17.1521 22.2374 16.9203C22.0725 16.6886 21.8222 16.5318 21.5417 16.4846C21.2612 16.4373 20.9734 16.5034 20.7417 16.6684C19.3025 17.7 18.0421 18.9604 17.0105 20.3996C16.8455 20.6313 16.7794 20.9191 16.8267 21.1996C16.8739 21.4801 17.0307 21.7304 17.2624 21.8953C17.4942 22.0602 17.782 22.1263 18.0625 22.0791C18.343 22.0318 18.5932 21.8751 18.7581 21.6433L18.7689 21.6326ZM43.8153 27.4546C44.0726 28.9662 44.0726 30.5105 43.8153 32.0221C43.7683 32.3065 43.8363 32.5979 44.0042 32.8321C44.1721 33.0664 44.4262 33.2243 44.7105 33.2712C44.9949 33.3182 45.2862 33.2502 45.5205 33.0823C45.7548 32.9144 45.9127 32.6603 45.9596 32.376C46.2455 30.6292 46.2455 28.8476 45.9596 27.1008C45.9127 26.8164 45.7548 26.5623 45.5205 26.3944C45.2862 26.2265 44.9949 26.1586 44.7105 26.2055C44.4262 26.2524 44.1721 26.4104 44.0042 26.6446C43.8363 26.8789 43.7683 27.1702 43.8153 27.4546ZM16.3564 32.0221C16.1134 30.5093 16.1134 28.9674 16.3564 27.4546C16.403 27.1746 16.3366 26.8875 16.1717 26.6563C16.0069 26.4252 15.7572 26.2688 15.4772 26.2216C15.1972 26.175 14.9101 26.2415 14.679 26.4063C14.4478 26.5711 14.2915 26.8209 14.2442 27.1008C13.9583 28.8476 13.9583 30.6292 14.2442 32.376C14.2915 32.6559 14.4478 32.9057 14.679 33.0705C14.9101 33.2353 15.1972 33.3017 15.4772 33.2552C15.7572 33.2079 16.0069 33.0516 16.1717 32.8204C16.3366 32.5893 16.403 32.3022 16.3564 32.0221ZM21.9962 41.0607C20.7551 40.1719 19.6684 39.0852 18.7796 37.8441C18.6146 37.6124 18.3644 37.4556 18.0839 37.4084C17.8034 37.3611 17.5156 37.4272 17.2839 37.5922C17.0521 37.7571 16.8954 38.0073 16.8481 38.2878C16.8009 38.5683 16.867 38.8561 17.0319 39.0879C18.0635 40.5271 19.324 41.7875 20.7631 42.8191C20.9949 42.984 21.2827 43.0501 21.5632 43.0029C21.8437 42.9556 22.0939 42.7989 22.2588 42.5671C22.4238 42.3354 22.4899 42.0476 22.4426 41.7671C22.3954 41.4866 22.2386 41.2364 22.0069 41.0714L21.9962 41.0607ZM41.4135 37.8441C40.5247 39.0852 39.4381 40.1719 38.197 41.0607C37.9652 41.2256 37.8085 41.4759 37.7612 41.7564C37.714 42.0369 37.7801 42.3247 37.945 42.5564C38.1099 42.7882 38.3602 42.9449 38.6407 42.9922C38.9212 43.0394 39.209 42.9733 39.4407 42.8084C40.8799 41.7768 42.1403 40.5163 43.1719 39.0772C43.3369 38.8454 43.403 38.5576 43.3557 38.2771C43.3085 37.9966 43.1517 37.7464 42.92 37.5815C42.6882 37.4165 42.4004 37.3504 42.1199 37.3977C41.8394 37.4449 41.5892 37.6017 41.4243 37.8334L41.4135 37.8441ZM32.375 43.4624C30.8633 43.7198 29.3191 43.7198 27.8074 43.4624C27.5231 43.4155 27.2317 43.4835 26.9975 43.6514C26.7632 43.8193 26.6052 44.0733 26.5583 44.3577C26.5114 44.6421 26.5794 44.9334 26.7473 45.1677C26.9152 45.4019 27.1692 45.5599 27.4536 45.6068C29.2004 45.8927 30.982 45.8927 32.7288 45.6068C33.0132 45.5599 33.2672 45.4019 33.4351 45.1677C33.603 44.9334 33.671 44.6421 33.6241 44.3577C33.5772 44.0733 33.4192 43.8193 33.1849 43.6514C32.9507 43.4835 32.6593 43.4155 32.375 43.4624Z" fill="#93D8E4"/>
</g>
<path id="Vector_4" d="M27.8073 16.0144C29.3189 15.757 30.8632 15.757 32.3748 16.0144C32.5156 16.0376 32.6596 16.0329 32.7986 16.0004C32.9376 15.968 33.0688 15.9085 33.1848 15.8254C33.3008 15.7423 33.3993 15.6371 33.4746 15.5159C33.55 15.3947 33.6007 15.2599 33.6239 15.1191C33.6472 14.9783 33.6424 14.8343 33.61 14.6953C33.5776 14.5563 33.5181 14.4251 33.435 14.3091C33.3519 14.1931 33.2467 14.0946 33.1255 14.0193C33.0043 13.9439 32.8695 13.8932 32.7287 13.87C30.9819 13.5841 29.2003 13.5841 27.4535 13.87C27.1691 13.9169 26.915 14.0749 26.7471 14.3091C26.5792 14.5434 26.5113 14.8347 26.5582 15.1191C26.6051 15.4034 26.7631 15.6575 26.9973 15.8254C27.2316 15.9933 27.5229 16.0613 27.8073 16.0144ZM18.7687 21.6434C19.6575 20.4023 20.7442 19.3156 21.9853 18.4268C22.2171 18.2619 22.3738 18.0116 22.4211 17.7311C22.4683 17.4506 22.4022 17.1628 22.2373 16.9311C22.0723 16.6993 21.8221 16.5426 21.5416 16.4953C21.2611 16.4481 20.9733 16.5142 20.7416 16.6791C19.3024 17.7107 18.042 18.9712 17.0103 20.4103C16.8454 20.6421 16.7793 20.9299 16.8265 21.2104C16.8738 21.4909 17.0305 21.7411 17.2623 21.906C17.4941 22.071 17.7818 22.1371 18.0623 22.0898C18.3428 22.0426 18.5931 21.8858 18.758 21.6541L18.7687 21.6434ZM38.1861 18.4268C39.4272 19.3156 40.5139 20.4023 41.4027 21.6434C41.5676 21.8751 41.8179 22.0319 42.0984 22.0791C42.3789 22.1264 42.6666 22.0603 42.8984 21.8953C43.1302 21.7304 43.2869 21.4802 43.3342 21.1997C43.3814 20.9192 43.3153 20.6314 43.1504 20.3996C42.1187 18.9605 40.8583 17.7 39.4191 16.6684C39.1874 16.5035 38.8996 16.4374 38.6191 16.4846C38.3386 16.5319 38.0884 16.6886 37.9234 16.9204C37.7585 17.1521 37.6924 17.4399 37.7396 17.7204C37.7869 18.0009 37.9436 18.2511 38.1754 18.4161L38.1861 18.4268ZM38.0146 24.5597C38.2222 24.5597 38.4212 24.6422 38.568 24.789C38.7148 24.9358 38.7973 25.1348 38.7973 25.3424V26.3288C38.7749 26.5193 38.6833 26.6949 38.54 26.8223C38.3968 26.9497 38.2117 27.0201 38.0199 27.0201C37.8282 27.0201 37.6431 26.9497 37.4998 26.8223C37.3565 26.6949 37.265 26.5193 37.2426 26.3288V25.3424C37.2412 25.2396 37.26 25.1376 37.298 25.0421C37.3361 24.9466 37.3925 24.8595 37.4642 24.7858C37.5359 24.7121 37.6214 24.6533 37.7158 24.6127C37.8103 24.572 37.9118 24.5504 38.0146 24.549V24.5597ZM43.8151 27.4654C44.0725 28.977 44.0725 30.5213 43.8151 32.0329C43.7682 32.3173 43.8362 32.6086 44.0041 32.8429C44.172 33.0771 44.426 33.2351 44.7104 33.282C44.9948 33.3289 45.2861 33.261 45.5204 33.0931C45.7546 32.9252 45.9126 32.6711 45.9595 32.3867C46.2454 30.6399 46.2454 28.8583 45.9595 27.1115C45.9126 26.8272 45.7546 26.5731 45.5204 26.4052C45.2861 26.2373 44.9948 26.1693 44.7104 26.2163C44.426 26.2632 44.172 26.4211 44.0041 26.6554C43.8362 26.8896 43.7682 27.181 43.8151 27.4654ZM16.3563 32.0222C16.1133 30.5094 16.1133 28.9675 16.3563 27.4546C16.4028 27.1746 16.3364 26.8875 16.1716 26.6564C16.0068 26.4252 15.757 26.2689 15.4771 26.2216C15.1971 26.1751 14.91 26.2415 14.6788 26.4063C14.4477 26.5711 14.2913 26.8209 14.2441 27.1008C13.9582 28.8476 13.9582 30.6292 14.2441 32.376C14.2913 32.6559 14.4477 32.9057 14.6788 33.0705C14.91 33.2353 15.1971 33.3017 15.4771 33.2552C15.757 33.2079 16.0068 33.0516 16.1716 32.8204C16.3364 32.5893 16.4028 32.3022 16.3563 32.0222ZM29.8552 34.1666V33.1801C29.8328 32.9897 29.7413 32.8141 29.598 32.6867C29.4547 32.5593 29.2696 32.4889 29.0779 32.4889C28.8861 32.4889 28.701 32.5593 28.5577 32.6867C28.4144 32.8141 28.3229 32.9897 28.3005 33.1801V34.1666C28.2876 34.2763 28.2981 34.3875 28.3312 34.4929C28.3644 34.5984 28.4195 34.6955 28.493 34.7781C28.5664 34.8607 28.6565 34.9268 28.7573 34.972C28.8581 35.0173 28.9673 35.0407 29.0779 35.0407C29.1884 35.0407 29.2976 35.0173 29.3984 34.972C29.4992 34.9268 29.5893 34.8607 29.6627 34.7781C29.7362 34.6955 29.7913 34.5984 29.8245 34.4929C29.8576 34.3875 29.8681 34.2763 29.8552 34.1666ZM26.2205 34.7455C26.3496 35.41 26.7059 36.0088 27.2282 36.4393C27.7505 36.8698 28.4063 37.1053 29.0832 37.1053C29.7601 37.1053 30.4159 36.8698 30.9382 36.4393C31.4605 36.0088 31.8168 35.41 31.946 34.7455H38.4542C38.7385 34.7455 39.0112 34.6326 39.2123 34.4315C39.4134 34.2304 39.5264 33.9577 39.5264 33.6733C39.5264 33.389 39.4134 33.1163 39.2123 32.9152C39.0112 32.7141 38.7385 32.6012 38.4542 32.6012H37.382C36.9846 32.6059 36.5937 32.5002 36.2529 32.2957C35.9121 32.0912 35.6348 31.7961 35.452 31.4432C35.0768 30.8642 34.7766 30.1887 34.4549 29.5883C34.3906 29.4704 34.3262 29.3524 34.2512 29.2345H38.0467C38.8183 29.2316 39.5574 28.9231 40.102 28.3765C40.6466 27.8299 40.9524 27.0897 40.9524 26.3181V25.3317C40.9765 24.9331 40.9189 24.5338 40.783 24.1584C40.6471 23.7829 40.4358 23.4392 40.1621 23.1484C39.8884 22.8577 39.5581 22.626 39.1916 22.4676C38.825 22.3092 38.43 22.2275 38.0306 22.2275C37.6313 22.2275 37.2363 22.3092 36.8697 22.4676C36.5032 22.626 36.1729 22.8577 35.8992 23.1484C35.6255 23.4392 35.4142 23.7829 35.2783 24.1584C35.1424 24.5338 35.0848 24.9331 35.1089 25.3317V26.3181C35.1062 26.5793 35.1424 26.8395 35.2161 27.0901H30.9274C30.643 27.0901 30.3703 27.2031 30.1692 27.4041C29.9682 27.6052 29.8552 27.8779 29.8552 28.1623C29.8552 28.4466 29.9682 28.7194 30.1692 28.9204C30.3703 29.1215 30.643 29.2345 30.9274 29.2345C31.183 29.237 31.4334 29.3067 31.6536 29.4366C31.8738 29.5664 32.0559 29.7518 32.1818 29.9743C32.4806 30.4297 32.7458 30.9063 32.9753 31.4003C33.1735 31.8061 33.3955 32.2 33.64 32.5797H31.946C31.8062 31.9241 31.4457 31.3364 30.9246 30.9147C30.4035 30.493 29.7535 30.2629 29.0832 30.2629C28.4129 30.2629 27.7629 30.493 27.2418 30.9147C26.7208 31.3364 26.3602 31.9241 26.2205 32.5797H25.5557C25.3627 28.1837 22.7037 27.2188 22.7037 27.2188C22.4406 27.1093 22.1449 27.1088 21.8815 27.2174C21.6181 27.3259 21.4086 27.5347 21.2991 27.7977C21.1896 28.0608 21.1891 28.3565 21.2977 28.6199C21.4063 28.8833 21.6151 29.0928 21.8781 29.2023C21.8781 29.2023 23.2398 29.91 23.4113 32.5904H20.3127C20.0283 32.5904 19.7556 32.7034 19.5545 32.9045C19.3535 33.1055 19.2405 33.3783 19.2405 33.6626C19.2405 33.947 19.3535 34.2197 19.5545 34.4208C19.7556 34.6219 20.0283 34.7348 20.3127 34.7348L26.2205 34.7455ZM21.996 41.0822C20.7549 40.1934 19.6683 39.1067 18.7795 37.8656C18.6145 37.6339 18.3643 37.4771 18.0838 37.4299C17.8033 37.3826 17.5155 37.4487 17.2837 37.6137C17.052 37.7786 16.8952 38.0288 16.848 38.3093C16.8007 38.5898 16.8668 38.8776 17.0318 39.1094C18.0634 40.5485 19.3238 41.809 20.763 42.8406C20.9948 43.0055 21.2825 43.0716 21.563 43.0244C21.8435 42.9771 22.0938 42.8204 22.2587 42.5886C22.4236 42.3569 22.4898 42.0691 22.4425 41.7886C22.3952 41.5081 22.2385 41.2578 22.0067 41.0929L21.996 41.0822ZM41.4134 37.8656C40.5246 39.1067 39.4379 40.1934 38.1968 41.0822C37.9651 41.2471 37.8083 41.4974 37.7611 41.7779C37.7138 42.0584 37.7799 42.3461 37.9449 42.5779C38.1098 42.8097 38.36 42.9664 38.6405 43.0136C38.921 43.0609 39.2088 42.9948 39.4406 42.8299C40.8798 41.7982 42.1402 40.5378 43.1718 39.0986C43.2535 38.9839 43.3117 38.8542 43.3433 38.7169C43.3748 38.5796 43.379 38.4375 43.3556 38.2986C43.3322 38.1597 43.2817 38.0268 43.2069 37.9074C43.1321 37.7881 43.0346 37.6846 42.9198 37.6029C42.8051 37.5213 42.6754 37.463 42.5381 37.4315C42.4008 37.3999 42.2587 37.3957 42.1198 37.4191C41.9809 37.4425 41.848 37.4931 41.7286 37.5678C41.6093 37.6426 41.5058 37.7401 41.4241 37.8549L41.4134 37.8656ZM32.3748 43.4625C30.8632 43.7198 29.3189 43.7198 27.8073 43.4625C27.5229 43.4155 27.2316 43.4835 26.9973 43.6514C26.7631 43.8193 26.6051 44.0734 26.5582 44.3577C26.5113 44.6421 26.5792 44.9335 26.7471 45.1677C26.915 45.402 27.1691 45.5599 27.4535 45.6068C29.2003 45.8927 30.9819 45.8927 32.7287 45.6068C33.013 45.5599 33.2671 45.402 33.435 45.1677C33.6029 44.9335 33.6709 44.6421 33.6239 44.3577C33.577 44.0734 33.4191 43.8193 33.1848 43.6514C32.9506 43.4835 32.6592 43.4155 32.3748 43.4625ZM48.2325 29.7384C48.2325 33.3265 47.1686 36.8339 45.1752 39.8173C43.1818 42.8006 40.3484 45.1259 37.0335 46.4989C33.7186 47.872 30.0709 48.2313 26.5518 47.5313C23.0327 46.8313 19.8002 45.1035 17.2631 42.5664C14.726 40.0292 12.9982 36.7967 12.2982 33.2776C11.5982 29.7585 11.9574 26.1109 13.3305 22.796C14.7036 19.481 17.0289 16.6477 20.0122 14.6543C22.9956 12.6609 26.503 11.5969 30.0911 11.5969C32.4738 11.5955 34.8335 12.0638 37.0352 12.975C39.2368 13.8862 41.2373 15.2224 42.9222 16.9073C44.6071 18.5922 45.9433 20.5926 46.8545 22.7943C47.7657 24.996 48.234 27.3556 48.2325 29.7384Z" fill="#F6F9F9"/>
<g id="&#216;&#163;&#216;&#176;&#217;&#131;&#216;&#167;&#216;&#177;">
<path d="M20.0288 35.798V35.5619C20.4223 35.5619 20.865 35.4094 21.3568 35.1044C21.8585 34.7995 22.2815 34.406 22.6258 33.924C22.9799 33.4322 23.157 32.9256 23.157 32.4042C23.157 32.2468 23.1324 32.0697 23.0832 31.873L22.2126 28.5678L24.5587 27.4464L24.4997 32.537C24.4899 33.2649 24.3423 33.9634 24.057 34.6323C23.7816 35.3012 23.4078 35.8717 22.9356 36.3439C22.4733 36.8161 21.9765 37.1309 21.4453 37.2883L20.0288 35.798Z" fill="#93D8E4"/>
<path d="M28.0166 34.5142C27.3772 34.5142 26.8509 34.4109 26.4378 34.2044C26.0345 33.988 25.7148 33.6141 25.4787 33.083C25.2524 32.5518 25.1147 31.8041 25.0655 30.8401L24.5786 24.2444L26.8362 23.5214L26.6886 30.7368C26.6493 32.0943 27.0919 32.7731 28.0166 32.7731C28.0855 32.7731 28.1494 32.8665 28.2084 33.0534C28.2773 33.2305 28.3117 33.4272 28.3117 33.6437C28.3117 33.8502 28.2773 34.047 28.2084 34.2339C28.1494 34.4208 28.0855 34.5142 28.0166 34.5142Z" fill="#93D8E4"/>
<path d="M26.7917 34.5142C26.7229 34.5142 26.6589 34.4257 26.5999 34.2486C26.531 34.0617 26.4966 33.8601 26.4966 33.6437C26.4966 33.4272 26.5261 33.2305 26.5852 33.0534C26.6442 32.8665 26.713 32.7731 26.7917 32.7731C27.2541 32.7731 27.7607 32.6846 28.3115 32.5075C28.8624 32.3206 29.3297 32.055 29.7133 31.7107C30.1068 31.3566 30.3035 30.9483 30.3035 30.486C30.3035 30.2106 30.2101 29.9597 30.0232 29.7335C29.8363 29.4974 29.5707 29.3105 29.2264 29.1728C28.8919 29.0252 28.5034 28.9514 28.0607 28.9514C27.8836 28.9514 27.7459 28.9563 27.6475 28.9662L27.0131 27.8743L32.1332 23.0492L33.4169 25.0265L28.9018 27.889C29.5117 27.889 30.092 27.9972 30.6429 28.2136C31.2036 28.4301 31.6561 28.7448 32.0004 29.158C32.3447 29.5712 32.5168 30.0581 32.5168 30.6188C32.5168 31.4943 32.2119 32.2271 31.602 32.8174C30.9921 33.3977 30.2445 33.8256 29.3592 34.1011C28.4738 34.3765 27.618 34.5142 26.7917 34.5142Z" fill="#93D8E4"/>
<path d="M35.2744 34.5142C34.4776 34.5142 33.8727 34.3864 33.4595 34.1306C33.0464 33.8748 32.8201 33.4617 32.7808 32.8911L33.3562 32.1238C33.4841 32.3698 33.6858 32.537 33.9612 32.6255C34.2366 32.7042 34.5662 32.7436 34.9498 32.7436C35.4908 32.7436 35.9286 32.6059 36.263 32.3304C36.6073 32.0452 36.7795 31.691 36.7795 31.268C36.7795 30.7565 36.5385 30.245 36.0565 29.7335C35.7614 29.4285 35.4515 29.1826 35.1269 28.9957C34.8121 28.7989 34.4678 28.617 34.094 28.4497L34.0645 28.2874L35.3482 26.4873C35.8204 26.7529 36.3417 27.1906 36.9123 27.8005C37.4828 28.4006 37.8124 29.217 37.9009 30.2499C37.9206 30.545 37.9304 30.7811 37.9304 30.9582C37.9304 31.932 37.7288 32.7682 37.3254 33.4666C36.932 34.165 36.2483 34.5142 35.2744 34.5142ZM34.3743 24.8642C34.3743 24.5986 34.4678 24.3723 34.6547 24.1854C34.8514 23.9985 35.0777 23.9051 35.3334 23.9051C35.599 23.9051 35.8253 23.9985 36.0122 24.1854C36.1991 24.3723 36.2926 24.5986 36.2926 24.8642C36.2926 25.1199 36.1991 25.3413 36.0122 25.5282C35.8253 25.7151 35.599 25.8085 35.3334 25.8085C35.0777 25.8085 34.8514 25.7151 34.6547 25.5282C34.4678 25.3413 34.3743 25.1199 34.3743 24.8642Z" fill="#93D8E4"/>
<path d="M37.8917 26.4282L40.1345 25.4986L39.8542 32.3894L38.6442 34.47H38.4672L37.8917 26.4282ZM37.6409 24.8937L38.5705 24.7019V24.6871C38.3442 24.6674 38.1327 24.5887 37.936 24.451C37.7392 24.3133 37.6409 24.0821 37.6409 23.7575C37.6409 23.4919 37.7245 23.2263 37.8917 22.9607C38.0688 22.6951 38.2901 22.4836 38.5557 22.3262C38.8311 22.159 39.1213 22.0754 39.4263 22.0754C39.6427 22.0754 39.8247 22.1147 39.9722 22.1934C40.1296 22.2721 40.2182 22.3557 40.2378 22.4443C40.1985 22.5623 40.1345 22.7197 40.046 22.9164C39.9575 23.1033 39.8886 23.2361 39.8394 23.3148L39.7509 23.3296C39.5837 23.1329 39.3771 23.0345 39.1312 23.0345C38.9443 23.0345 38.7721 23.0935 38.6147 23.2115C38.4672 23.3198 38.3934 23.4329 38.3934 23.5509C38.3934 23.7182 38.5164 23.8214 38.7623 23.8608C39.0082 23.8903 39.2984 23.9001 39.6329 23.8903L40.0608 23.8608C40.1788 23.8411 40.2575 23.8313 40.2969 23.8313C40.4247 23.8313 40.4838 23.8805 40.4739 23.9788L40.2673 24.7461L37.6851 25.897L37.5818 25.8528L37.6409 24.8937Z" fill="#93D8E4"/>
</g>
</g>
</g>
</svg>
