<svg width="162" height="164" viewBox="0 0 162 164" fill="none" xmlns="http://www.w3.org/2000/svg">
<g clip-path="url(#clip0_241_2101)">
<path d="M19.7707 109.173C21.1776 108.006 22.3991 106.739 23.9482 105.903C24.459 105.627 24.9946 105.395 25.5199 105.15C26.5869 104.651 26.6178 104.67 26.6158 105.895C26.6117 109.842 26.6632 113.79 26.5808 117.735C26.3933 126.723 26.5251 135.713 26.3295 144.699C26.1997 150.668 26.2738 156.638 26.177 162.605C26.1544 163.952 26.1441 163.989 24.9905 163.328C21.7976 161.499 18.9838 159.249 17.0722 156.028C16.7117 155.423 16.3924 155.19 15.5334 155.369C11.8462 156.139 8.77279 154.28 8.41643 150.539C8.33403 149.684 8.25781 148.836 8.25781 147.979C8.25781 129.412 8.25781 110.847 8.25781 92.2801C8.25781 91.8683 8.25987 91.4565 8.26811 91.0446C8.28253 90.3322 8.63066 89.9883 9.36193 89.9904C10.0129 89.9945 10.6741 90.0048 11.3106 89.8936C12.7608 89.6362 13.4179 88.8743 13.3973 87.4185C13.3499 84.2928 13.5889 81.1897 14.0194 78.097C14.8125 72.4262 16.3347 66.9572 18.613 61.7064C20.8233 56.6142 23.6454 51.8824 27.1081 47.5418C31.1085 42.5279 35.6815 38.109 40.926 34.4047C42.9736 32.9592 42.9715 33.0127 40.9466 31.6063C36.5549 28.5547 32.2002 25.4537 27.8064 22.4062C24.1171 19.8488 20.3845 17.3511 16.687 14.804C14.5715 13.3461 12.4683 11.8656 10.3939 10.3522C9.23009 9.50383 9.42579 7.5868 10.7132 7.00613C13.0574 5.94775 15.5355 5.3053 18.0342 4.73081C20.2527 4.22015 22.4548 3.63125 24.6939 3.23384C26.966 2.83231 29.203 2.25988 31.4875 1.8913C32.9747 1.65038 34.495 1.32504 35.9493 0.878215C38.211 0.180176 40.2504 0.244008 42.403 1.46918C45.4372 3.19677 48.661 4.59491 51.7797 6.17631C59.5477 10.1174 67.1941 14.283 74.7313 18.6504C76.2433 19.5276 77.7305 20.448 79.2178 21.3664C79.5947 21.5991 79.9388 21.8894 80.2807 22.1756C80.4702 22.3342 80.6062 22.5524 80.4764 22.8119C80.3384 23.0878 80.0871 23.0569 79.8502 22.9684C77.094 21.9388 74.276 21.0637 71.6332 19.7438C65.921 16.8878 60.5467 13.445 55.0241 10.2575C49.9443 7.32735 44.844 4.43224 39.791 1.46094C38.6642 0.797909 37.7022 1.36416 36.7382 1.61538C32.639 2.68611 28.5665 3.85775 24.4879 5.00879C21.7255 5.7892 18.9694 6.59637 16.2111 7.39118C16.0216 7.44472 15.7477 7.41383 15.7126 7.66711C15.6653 8.00274 15.9804 8.0048 16.1967 8.07893C22.395 10.1916 28.4388 12.6996 34.4208 15.3455C37.8691 16.8693 41.2577 18.533 44.638 20.205C51.5861 23.6396 58.4456 27.239 65.0147 31.3654C69.3755 34.1061 73.6045 37.03 77.3494 40.5882C78.7481 41.9163 79.9161 43.44 80.6041 45.2788C80.6762 45.4683 80.7277 45.701 80.9728 45.7215C81.2262 45.7421 81.3127 45.5115 81.3889 45.3303C83.0492 41.383 86.3533 38.9718 89.5874 36.4658C94.5394 32.6277 99.9138 29.4546 105.377 26.4421C109.968 23.9094 114.626 21.4899 119.366 19.2393C124.383 16.8569 129.43 14.5445 134.566 12.4257C138.238 10.9102 141.915 9.40499 145.675 8.10775C145.798 8.06451 145.916 8.00274 146.293 7.83595C144.744 7.39118 143.423 7.01025 142.101 6.63137C138.393 5.57299 134.689 4.50225 130.975 3.4624C128.442 2.75407 125.895 2.09721 123.358 1.40123C122.779 1.24268 122.278 1.38682 121.784 1.66685C118.593 3.47681 115.386 5.26 112.209 7.09467C107.28 9.94242 102.367 12.8149 97.4563 15.6935C94.764 17.2708 92.1252 18.9366 89.2619 20.2092C86.9074 21.2552 84.4479 22.0129 82.0543 22.9478C81.7906 23.0507 81.4858 23.1434 81.321 22.8366C81.1047 22.4309 81.4281 22.223 81.7082 22.0088C84.1966 20.1062 86.9672 18.6504 89.678 17.1164C95.349 13.9062 101.071 10.7867 106.878 7.82772C111.82 5.30942 116.725 2.71494 121.769 0.404619C122.196 0.209003 122.67 0.143112 123.069 0.353141C124.919 1.32298 127.012 1.46918 128.979 1.89336C131.119 2.35666 133.293 2.79937 135.468 3.15971C137.614 3.51594 139.736 4.02454 141.856 4.5249C143.778 4.97996 145.689 5.48856 147.593 6.01982C148.802 6.35751 150.019 6.70138 151.173 7.18733C152.594 7.78653 152.782 9.50383 151.535 10.3872C148.489 12.5451 145.403 14.6454 142.338 16.7766C140.115 18.323 137.915 19.9003 135.686 21.4384C132.106 23.9114 128.501 26.3515 124.927 28.8348C123.156 30.0661 121.444 31.386 119.679 32.6277C119.013 33.0951 119.401 33.303 119.806 33.5687C124.048 36.3464 127.786 39.7131 131.268 43.3783C134.899 47.202 137.942 51.4603 140.527 56.0459C144.256 62.6577 146.649 69.739 147.815 77.228C148.316 80.4402 148.618 83.6813 148.567 86.947C148.532 89.1564 149.311 89.9513 151.494 89.9883C153.63 90.0233 153.498 89.7701 153.498 92.1051C153.498 111.393 153.453 130.678 153.535 149.966C153.552 153.942 149.937 156.475 145.988 155.223C145.343 155.019 145.112 155.254 144.853 155.703C142.783 159.3 139.689 161.779 136.08 163.682C135.052 164.223 134.947 164.143 134.943 162.959C134.932 158.703 135.009 154.447 134.91 150.193C134.572 135.748 134.831 121.301 134.714 106.859C134.71 106.381 134.656 105.901 134.599 105.425C134.502 104.641 134.698 104.449 135.501 104.775C137.859 105.736 139.893 107.147 141.664 108.957C141.802 109.097 141.971 109.208 142.138 109.342C142.49 108.99 142.346 108.592 142.35 108.24C142.365 106.146 142.406 104.052 142.348 101.96C142.231 97.6359 142.667 93.322 142.558 88.9999C142.27 77.471 140.107 66.3806 134.667 56.0871C130.335 47.8918 124.26 41.3274 116.296 36.5297C115.505 36.054 114.92 36.0746 114.17 36.6429C110.209 39.6492 106.211 42.6061 102.221 45.5753C100.194 47.0826 97.9795 48.2316 95.5529 48.9399C95.073 49.08 94.5312 49.0408 94.0183 49.0429C91.6844 49.0491 89.3464 49.1191 87.0166 49.0099C84.9299 48.9132 82.8535 48.6002 81.2962 46.957C81.0243 46.6687 80.8431 46.7738 80.6227 47.0106C79.1786 48.5569 77.2197 48.837 75.2895 48.9935C73.4129 49.1479 71.5096 48.9502 69.6289 49.0758C65.7356 49.3353 62.5901 47.6303 59.6136 45.4497C56.1859 42.9376 52.7911 40.3823 49.384 37.8454C48.6713 37.3142 47.9318 36.8118 47.2664 36.2249C46.737 35.7575 46.2694 35.7472 45.6906 36.0931C41.3874 38.665 37.5251 41.7701 34.2189 45.5465C26.3336 54.5551 22.4115 65.2852 20.6461 76.9377C20.0549 80.8397 19.8572 84.7685 19.7604 88.7158C19.6059 95.0908 19.6162 101.464 19.61 107.839C19.61 108.24 19.5214 108.658 19.7727 109.179L19.7707 109.173Z" fill="white"/>
<path d="M80.4665 97.5261C78.7857 95.6667 77.7619 93.7352 77.2963 91.4949C75.9574 85.0499 81.0598 78.5946 87.6392 78.3866C90.4798 78.296 93.1989 78.6316 95.6152 80.2357C99.5228 82.8302 101.062 87.4879 99.665 92.3103C99.3869 93.2719 99.0223 94.2006 98.4867 95.0386C97.9593 95.8623 97.3352 96.6242 96.6554 97.5425C99.7535 97.489 102.736 97.7464 105.694 97.421C108.218 97.1451 109.493 95.4978 109.779 92.8889C109.981 91.046 109.775 89.1825 110.138 87.3561C111.04 82.8013 114.573 79.3482 119.154 78.6337C122.897 78.051 126.429 78.5637 129.404 81.117C132.232 83.5447 133.198 86.7651 132.867 90.3645C132.376 95.6564 128.419 99.5296 123.23 100.244C119.3 100.786 115.716 99.9723 112.824 97.0545C112.459 96.6859 112.321 96.5603 111.932 97.0689C110.16 99.3854 107.769 100.386 104.862 100.38C94.0826 100.355 83.303 100.357 72.5235 100.382C70.8715 100.386 69.3183 100.094 67.8681 99.3216C67.3778 99.0601 67.1945 99.0972 67.0235 99.6799C66.1028 102.808 63.808 104.589 60.9159 105.752C60.4442 105.942 59.9477 106.051 59.6264 105.538C59.2865 104.997 59.4533 104.484 59.8921 104.051C60.1125 103.835 60.3247 103.607 60.5657 103.415C62.3249 102.017 62.9511 100.086 62.9758 97.9585C63.0376 92.5718 63.0149 87.1831 63.0417 81.7965C63.0458 81.1355 62.8728 80.7937 62.123 80.7711C61.3423 80.7464 60.8211 80.2954 60.8994 79.4409C60.9736 78.6193 61.5606 78.399 62.2919 78.401C64.1458 78.4051 65.9998 78.4072 67.8537 78.3969C68.5747 78.3928 69.0649 78.6934 69.172 79.4162C69.275 80.108 68.9042 80.526 68.2306 80.6516C67.5982 80.769 67.4417 81.1479 67.4458 81.7533C67.4705 85.2187 67.4458 88.6863 67.4685 92.1518C67.4747 93.1896 67.761 94.1821 68.1791 95.1334C68.9042 96.7827 70.2988 97.456 71.9715 97.5013C74.7132 97.5734 77.457 97.5219 80.4665 97.5219V97.5261ZM81.8302 88.676C81.789 91.5546 82.5532 94.11 84.8995 95.9735C87.8493 98.3168 92.3111 97.7814 94.2124 94.8883C96.1569 91.9294 95.9633 86.6889 93.7963 83.8803C92.0783 81.6524 89.7732 80.8575 87.0583 81.2961C84.4072 81.7244 82.8293 83.3882 82.1042 85.923C81.8467 86.8249 81.8529 87.7514 81.8302 88.676ZM114.593 88.4845C114.612 92.0591 115.594 94.3674 117.615 95.9447C120.925 98.5268 125.723 97.7443 127.33 94.2562C128.807 91.0481 128.722 87.7535 127.025 84.6587C125.56 81.9921 123.084 81.0779 120.126 81.4238C117.644 81.7141 115.977 83.0773 115.094 85.4041C114.674 86.5098 114.568 87.667 114.593 88.4824V88.4845Z" fill="white"/>
<path d="M64.1961 140.747C63.5905 141.173 63.1599 141.49 62.715 141.786C56.3808 146.01 46.969 145.233 41.8851 140.073C36.5747 134.682 36.173 125.295 40.9953 119.453C43.9162 115.916 47.7271 114.161 52.2403 113.815C56.0574 113.523 59.6704 114.178 63.0055 116.155C66.7318 118.364 68.7588 121.694 69.2738 125.902C69.9206 131.19 69.9762 136.507 69.2841 141.795C68.7176 146.121 66.048 149.088 62.5193 151.376C62.0043 151.709 61.3925 151.86 60.7519 151.851C60.1937 151.843 59.7158 151.709 59.518 151.135C59.3306 150.593 59.6251 150.194 60.0248 149.893C60.8776 149.249 61.6871 148.567 62.2577 147.645C63.2465 146.04 63.7676 144.278 64.0169 142.425C64.0807 141.953 64.1199 141.48 64.2002 140.747H64.1961ZM43.496 128.124C43.5084 129.325 43.5413 130.523 43.7803 131.705C44.9297 137.423 49.0948 141.245 54.9306 141.025C58.4716 140.891 61.5038 138.879 62.8139 135.578C64.0025 132.584 64.0725 129.493 63.5925 126.37C62.6985 120.555 58.453 116.863 52.7471 117.073C48.9198 117.215 45.9905 118.914 44.4312 122.589C43.6793 124.364 43.461 126.219 43.496 128.122V128.124Z" fill="white"/>
<path d="M105.095 125.832C105.095 123.225 105.11 120.618 105.089 118.009C105.077 116.492 104.891 116.317 103.394 116.224C102.582 116.172 101.977 115.872 101.946 114.964C101.917 114.066 102.539 113.759 103.289 113.747C106.068 113.702 108.846 113.673 111.625 113.693C112.344 113.697 113.024 114.012 113.086 114.861C113.147 115.709 112.554 116.127 111.806 116.181C110.75 116.255 110.505 116.854 110.509 117.764C110.519 121.812 110.517 125.861 110.509 129.909C110.505 131.731 110.278 133.529 109.909 135.312C108.881 140.311 105.806 143.211 100.839 144.189C96.0213 145.136 91.3762 143.128 88.8322 138.954C88.5438 138.481 88.4223 138.339 87.9897 138.829C83.7793 143.604 78.4008 145.01 72.2746 144.216C71.4774 144.113 71.0552 143.647 71.0346 142.836C71.0304 142.698 71.0304 142.562 71.0284 142.424C71.0057 140.33 71.36 140.112 73.4014 140.639C76.5675 141.456 79.6141 141.269 82.2508 139.084C84.1006 137.55 85.0523 135.454 85.5034 133.158C86.3624 128.782 85.936 124.586 83.153 120.933C80.71 117.727 77.3523 116.617 73.4055 117.169C73.1686 117.202 72.9276 117.225 72.6948 117.282C71.8668 117.488 71.255 117.295 71.0572 116.382C70.7832 115.112 71.1437 114.268 72.1654 114.097C78.5244 113.032 86.0781 114.562 89.9157 121.493C91.2423 123.89 91.6996 126.507 91.7079 129.219C91.714 131.239 91.6028 133.267 91.9839 135.271C92.6225 138.625 94.7236 140.752 97.9247 141.024C100.415 141.236 102.393 140.159 103.738 138.051C104.584 136.724 104.928 135.217 105.015 133.654C105.048 133.072 105.077 132.489 105.079 131.906C105.087 129.882 105.081 127.858 105.081 125.834H105.091L105.095 125.832Z" fill="white"/>
<path d="M105.342 147.287C106.541 145.469 108.166 144.773 110.163 145.483C112.023 146.146 112.696 147.664 112.573 149.704C114.711 148.16 115.702 146.107 116.128 143.715C116.606 141.031 116.569 138.322 116.583 135.614C116.614 129.883 116.639 124.153 116.668 118.422C116.676 116.713 116.552 116.551 114.82 116.254C114.01 116.116 113.444 115.768 113.475 114.875C113.506 113.946 114.167 113.824 114.921 113.814C117.323 113.777 119.725 113.713 122.124 113.678C122.567 113.672 123.014 113.721 123.453 113.781C124.114 113.87 124.518 114.22 124.522 114.932C124.526 115.622 124.151 116.127 123.521 116.166C122.184 116.248 122.005 117.063 122.005 118.136C122.013 124.314 122.038 130.491 121.978 136.666C121.958 138.715 121.89 140.78 121.438 142.8C120.386 147.505 117.339 150.413 112.995 152.145C112.9 152.182 112.783 152.254 112.702 152.229C111.501 151.838 110.533 152.649 109.448 152.83C107.991 153.073 106.733 152.626 105.791 151.44C105.501 151.074 105.322 150.843 104.885 151.374C103.359 153.226 100.778 153.409 99.177 151.842C97.562 150.26 97.6403 147.752 99.3562 146.175C100.981 144.678 103.488 144.964 104.974 146.818C105.077 146.945 105.175 147.075 105.34 147.291L105.342 147.287Z" fill="white"/>
<path d="M40.4691 78.3673C44.4448 78.4723 47.8972 79.6151 50.2167 83.0127C53.5867 87.9463 52.3693 97.4141 44.144 99.7635C40.0077 100.945 36.1186 100.523 32.6765 97.7847C30.3426 95.9274 29.2508 93.3638 29.0119 90.4563C28.4845 84.0463 32.8577 79.2301 38.5658 78.4991C39.2105 78.4167 39.8635 78.4064 40.4691 78.3652V78.3673ZM40.9985 97.3997C43.1408 97.4079 44.9948 96.7078 46.035 94.7846C47.9631 91.2182 47.8869 87.5756 45.726 84.139C44.2058 81.7216 41.804 80.9062 39.0272 81.2892C36.2092 81.6763 34.5634 83.4245 33.9165 86.1034C33.3398 88.4981 33.4901 90.8826 34.5345 93.1414C35.7993 95.88 37.9354 97.3605 40.9985 97.3997Z" fill="white"/>
<path d="M56.7364 69.2791C55.9125 69.2791 55.0885 69.2853 54.2645 69.2791C53.5497 69.2709 52.8473 69.24 52.8082 70.2593C52.769 71.295 53.3273 72.1413 54.2151 72.2093C54.967 72.2649 55.725 72.2298 56.4789 72.2298C58.4359 72.2298 60.3928 72.2422 62.3497 72.2278C63.1901 72.2216 63.8122 72.5161 63.8205 73.42C63.8287 74.2993 63.1572 74.5896 62.4094 74.5669C61.5196 74.5402 60.8006 74.5752 60.7038 75.7386C60.6729 76.1051 60.1992 76.2966 59.7933 76.2678C58.9344 76.206 58.8087 76.7043 58.7346 77.4126C58.407 80.5342 58.7634 83.6517 58.7284 86.7713C58.6892 90.0988 58.7531 93.4284 58.7428 96.7559C58.7407 97.5487 58.9241 98.0696 59.8304 98.1438C60.502 98.1994 60.9057 98.5968 60.8418 99.3133C60.7739 100.071 60.2795 100.368 59.5709 100.37C57.717 100.374 55.863 100.376 54.0091 100.368C53.3005 100.363 52.8144 100.024 52.7175 99.303C52.629 98.6462 53.0039 98.2735 53.628 98.1499C54.2687 98.0223 54.4128 97.5796 54.4128 97.0113C54.4026 90.4221 54.3964 83.835 54.3922 77.2458C54.3922 76.7125 54.2707 76.2884 53.6177 76.2636C53.3314 76.2534 53.0492 76.1319 52.9215 75.8806C52.6619 75.37 52.3735 75.3885 51.9492 75.6871C51.5763 75.9486 51.1561 75.9383 50.8265 75.5883C50.4867 75.2279 50.3589 74.7296 50.67 74.3631C51.2365 73.6939 50.9687 73.2141 50.602 72.5675C49.0303 69.7939 50.9254 66.522 54.11 66.4643C55.758 66.4355 57.4059 66.4643 59.0538 66.454C60.0714 66.4479 61.0334 66.2543 61.8224 65.5439C62.189 65.2124 62.599 65.058 63.0274 65.3812C63.4847 65.7272 63.427 66.2234 63.2746 66.6991C62.8214 68.1157 61.2394 69.205 59.5194 69.2647C58.5945 69.2956 57.6655 69.2709 56.7385 69.2709V69.2791H56.7364Z" fill="white"/>
<path d="M7.873 134.485C7.873 137.911 7.87712 141.34 7.873 144.766C7.87094 146.02 7.62787 146.214 6.39604 145.923C3.92209 145.339 1.94045 144.062 0.630342 141.826C0.238958 141.157 7.42981e-06 140.471 7.42981e-06 139.692C0.00618718 136.163 0.00824709 132.632 7.42981e-06 129.102C-0.00205249 127.949 0.42435 126.942 1.11854 126.078C2.53164 124.317 4.25991 123.063 6.60616 122.81C7.69379 122.692 7.87094 122.76 7.873 123.895C7.88124 127.424 7.87506 130.956 7.87712 134.485H7.873Z" fill="white"/>
<path d="M161.961 134.39C161.961 135.794 161.873 137.207 161.98 138.605C162.207 141.535 160.608 143.355 158.375 144.811C157.452 145.414 156.412 145.785 155.324 145.987C154.564 146.127 154.076 145.985 154.078 145.029C154.099 137.935 154.09 130.84 154.084 123.746C154.084 123.108 154.212 122.659 154.999 122.747C157.945 123.081 160.089 124.59 161.496 127.17C161.846 127.813 161.978 128.511 161.968 129.25C161.947 130.963 161.961 132.677 161.961 134.392V134.39Z" fill="white"/>
<path d="M39.3124 8.82327C40.6493 9.15479 41.9388 9.88577 43.253 10.5344C47.3069 12.54 51.3588 14.5497 55.3736 16.6335C59.2009 18.6205 62.9417 20.7764 66.7917 22.7182C70.3471 24.5116 73.7665 26.5234 77.1551 28.5969C78.2036 29.2373 79.2995 29.8221 80.2182 30.6581C80.4077 30.8311 80.7208 31.0328 80.5416 31.3355C80.3706 31.6238 80.0616 31.4838 79.798 31.4014C74.2486 29.6491 69.0473 27.1885 64.1055 24.1039C59.9239 21.4909 55.6063 19.0921 51.3402 16.6149C47.3111 14.2758 43.2695 11.9572 39.2362 9.62427C38.9849 9.47807 38.5976 9.39571 38.6738 8.99418C38.7253 8.72032 38.9993 8.82327 39.3124 8.82533V8.82327Z" fill="white"/>
<path d="M123.117 9.02233C123.056 9.42798 122.714 9.57212 122.427 9.73684C120.557 10.8158 118.672 11.8701 116.802 12.9491C112.647 15.3438 108.506 17.7674 104.339 20.1415C99.1667 23.0881 94.26 26.5145 88.7415 28.8454C86.5333 29.7782 84.2777 30.5792 82.0179 31.3719C81.7852 31.4543 81.5277 31.5675 81.3608 31.3266C81.1589 31.0322 81.3794 30.7871 81.5977 30.6286C82.4258 30.0211 83.2312 29.3684 84.119 28.8619C87.6271 26.8604 91.1083 24.8157 94.6761 22.911C99.3295 20.4257 104.001 17.9712 108.673 15.5229C112.921 13.2991 117.175 11.0794 121.55 9.10676C121.89 8.95438 122.265 8.87614 122.629 8.78759C122.841 8.73406 123.037 8.77936 123.115 9.02851L123.117 9.02233Z" fill="white"/>
<path d="M83.375 74.3703C83.3709 73.1739 83.8303 72.2164 84.9385 71.7037C86.0344 71.1951 87.157 71.1704 88.1128 72.0208C88.5928 72.4471 88.8647 72.4347 89.3694 72.0126C90.5724 71.0077 92.2759 71.1848 93.3594 72.3173C94.4038 73.4087 94.4553 75.0992 93.4789 76.242C92.4778 77.4136 90.7907 77.6463 89.5033 76.6847C88.8997 76.2317 88.5598 76.2667 87.9604 76.73C87.0705 77.4157 85.9973 77.4857 84.9529 76.9524C83.9621 76.4459 83.3894 75.4925 83.375 74.3703Z" fill="white"/>
<path d="M35.1743 74.2146C35.127 73.1253 35.7676 72.2646 36.8058 71.7313C37.8625 71.1877 38.9687 71.2639 39.8874 72.0484C40.3736 72.4644 40.6249 72.4932 41.1522 72.0834C42.5076 71.0271 44.2503 71.2412 45.3009 72.4808C46.2299 73.5763 46.1887 75.275 45.2061 76.3396C44.0999 77.5401 42.3923 77.6821 41.0472 76.5826C40.5775 76.1996 40.3633 76.2717 39.9575 76.6258C39.012 77.4556 37.8996 77.5339 36.7893 77.0171C35.6955 76.5064 35.1702 75.588 35.1723 74.2146H35.1743Z" fill="white"/>
<path d="M115.5 107.56C115.504 105.408 117.123 103.743 119.222 103.734C121.391 103.726 123.085 105.406 123.076 107.562C123.07 109.669 121.406 111.357 119.315 111.384C117.113 111.411 115.496 109.79 115.5 107.56Z" fill="white"/>
<path d="M88.1247 11.7721C86.7754 11.7824 86.0462 11.1234 85.7537 9.95386C85.488 8.88724 86.0524 8.22009 86.9011 7.95446C88.3678 7.49528 89.7664 6.83842 91.2825 6.51308C92.3207 6.2907 92.9428 6.72311 93.3816 7.54676C93.8966 8.5166 93.7009 9.31554 92.8934 10.0053C92.191 10.6087 91.3073 10.7981 90.4751 11.0884C89.6387 11.3808 88.7715 11.5867 88.1247 11.77V11.7721Z" fill="white"/>
<path d="M77.2191 -0.00195312C77.9133 0.0330518 78.6136 0.535475 78.9556 1.44972C79.4005 2.63783 79.8002 3.84447 80.1689 5.05728C80.5582 6.33805 79.9485 7.57146 78.8361 7.87827C77.7629 8.17478 76.7412 7.48498 76.3313 6.22068C76.0264 5.27555 75.6762 4.34483 75.3631 3.40382C75.1592 2.7902 74.9326 2.18688 75.0768 1.50326C75.3301 0.290441 75.6762 -0.0163669 77.2191 0.000105986V-0.00195312Z" fill="white"/>
<path d="M76.0574 9.5744C76.0677 10.8099 74.669 11.8724 73.4331 11.3638C72.0138 10.779 70.6193 10.1098 69.2741 9.36849C68.2009 8.77753 68.0155 7.84681 68.5696 6.73077C69.0475 5.76916 70.0157 5.40264 71.0745 5.87006C72.3249 6.4219 73.5711 6.99433 74.7679 7.64913C75.4539 8.02389 76.0863 8.5469 76.0554 9.5744H76.0574Z" fill="white"/>
<path d="M87.8053 2.37624C87.8465 2.9322 87.5458 3.48816 87.2801 4.03794C86.8186 4.99543 86.3201 5.93438 85.8072 6.86716C85.1892 7.99349 84.2046 8.34148 83.1314 7.85347C82.1859 7.42312 81.6565 6.16294 82.1674 5.1375C82.8348 3.79702 83.3291 2.37829 84.2108 1.12635C84.8741 0.183281 85.6671 0.302709 86.4643 0.539507C87.2512 0.772187 87.8136 1.3508 87.8053 2.37624Z" fill="white"/>
</g>
<defs>
<clipPath id="clip0_241_2101">
<rect width="162" height="164" fill="white" transform="translate(0 -0.00195312)"/>
</clipPath>
</defs>
</svg>
