<svg width="59" height="59" viewBox="0 0 59 59" fill="none" xmlns="http://www.w3.org/2000/svg">
<path d="M52.218 29.7384C52.218 34.1662 50.905 38.4945 48.4451 42.1761C45.9851 45.8577 42.4887 48.7271 38.3979 50.4216C34.3072 52.116 29.8058 52.5594 25.4631 51.6956C21.1204 50.8317 17.1313 48.6995 14.0004 45.5686C10.8695 42.4377 8.73728 38.4486 7.87346 34.1059C7.00964 29.7632 7.45298 25.2618 9.14743 21.1711C10.8419 17.0803 13.7113 13.5839 17.3929 11.124C21.0745 8.664 25.4029 7.35101 29.8307 7.35101C35.7681 7.35101 41.4625 9.70967 45.6609 13.9081C49.8593 18.1066 52.218 23.8009 52.218 29.7384ZM31.3424 1.2288C30.9407 0.829402 30.3972 0.605225 29.8307 0.605225C29.2641 0.605225 28.7206 0.829402 28.3189 1.2288L21.6713 7.87638C21.2762 8.27389 20.7413 8.50096 20.1809 8.50898H10.7456C10.1769 8.50898 9.63149 8.7349 9.22934 9.13705C8.82719 9.5392 8.60126 10.0846 8.60126 10.6534V20.0886C8.60148 20.3716 8.5457 20.6518 8.43713 20.9131C8.32856 21.1744 8.16935 21.4117 7.96867 21.6112L1.32108 28.2587C0.921687 28.6605 0.69751 29.204 0.69751 29.7705C0.69751 30.337 0.921687 30.8805 1.32108 31.2823L7.96867 37.9299C8.35854 38.317 8.58497 38.8389 8.60126 39.3881V48.8234C8.60126 49.3921 8.82719 49.9375 9.22934 50.3397C9.63149 50.7418 10.1769 50.9678 10.7456 50.9678H20.1809C20.4639 50.9675 20.7441 51.0233 21.0054 51.1319C21.2667 51.2405 21.504 51.3997 21.7034 51.6004L28.351 58.2479C28.7528 58.6473 29.2963 58.8715 29.8628 58.8715C30.4293 58.8715 30.9728 58.6473 31.3746 58.2479L38.0222 51.6004C38.4093 51.2105 38.9312 50.984 39.4804 50.9678H48.9157C49.4844 50.9678 50.0298 50.7418 50.432 50.3397C50.8341 49.9375 51.06 49.3921 51.06 48.8234V39.3881C51.0598 39.1051 51.1156 38.8249 51.2242 38.5636C51.3327 38.3023 51.492 38.0651 51.6926 37.8656L58.3402 31.218C58.7396 30.8162 58.9638 30.2727 58.9638 29.7062C58.9638 29.1397 58.7396 28.5962 58.3402 28.1944L51.6926 21.5468C51.3028 21.1597 51.0763 20.6378 51.06 20.0886V10.6534C51.06 10.0846 50.8341 9.5392 50.432 9.13705C50.0298 8.7349 49.4844 8.50898 48.9157 8.50898H39.4804C39.1974 8.5092 38.9172 8.45342 38.6559 8.34485C38.3946 8.23628 38.1574 8.07706 37.9579 7.87638L31.3424 1.2288Z" fill="#93D8E4"/>
<path fill-rule="evenodd" clip-rule="evenodd" d="M47.9722 29.7384C47.9722 33.3264 46.9082 36.8339 44.9148 39.8172C42.9214 42.8006 40.088 45.1258 36.7731 46.4989C33.4582 47.872 29.8106 48.2313 26.2915 47.5313C22.7724 46.8313 19.5399 45.1035 17.0027 42.5663C14.4656 40.0292 12.7378 36.7967 12.0378 33.2776C11.3378 29.7585 11.6971 26.1108 13.0701 22.7959C14.4432 19.481 16.7685 16.6477 19.7518 14.6543C22.7352 12.6609 26.2426 11.5969 29.8307 11.5969C32.2135 11.5955 34.5731 12.0638 36.7748 12.975C38.9765 13.8862 40.9769 15.2224 42.6618 16.9073C44.3467 18.5921 45.6829 20.5926 46.5941 22.7943C47.5053 24.9959 47.9736 27.3556 47.9722 29.7384ZM52.2609 29.7384C52.2609 34.1643 50.949 38.491 48.4909 42.1716C46.0329 45.8523 42.539 48.7218 38.4507 50.4175C34.3625 52.1132 29.8633 52.559 25.5218 51.6986C21.1802 50.8383 17.1911 48.7104 14.0585 45.5837C10.9258 42.4571 8.79028 38.472 7.92162 34.1322C7.05297 29.7923 7.4902 25.2923 9.17807 21.2008C10.8659 17.1093 13.7287 13.6099 17.4046 11.1448C21.0806 8.67969 25.4047 7.35949 29.8307 7.35101C35.7682 7.35101 41.4625 9.70967 45.6609 13.9081C49.8594 18.1066 52.218 23.8009 52.218 29.7384H52.2609Z" fill="#F4D8A5"/>
<path fill-rule="evenodd" clip-rule="evenodd" d="M27.5469 16.0143C29.0585 15.757 30.6028 15.757 32.1144 16.0143C32.2552 16.0376 32.3992 16.0328 32.5382 16.0004C32.6772 15.968 32.8084 15.9085 32.9244 15.8254C33.0404 15.7423 33.1389 15.6371 33.2142 15.5159C33.2896 15.3947 33.3403 15.2599 33.3635 15.1191C33.3868 14.9783 33.382 14.8343 33.3496 14.6953C33.3172 14.5563 33.2577 14.4251 33.1746 14.3091C33.0915 14.1931 32.9863 14.0946 32.8651 14.0193C32.7439 13.9439 32.6091 13.8932 32.4683 13.87C30.7215 13.5841 28.9398 13.5841 27.1931 13.87C26.9087 13.9169 26.6546 14.0748 26.4867 14.3091C26.3188 14.5433 26.2509 14.8347 26.2978 15.1191C26.3447 15.4034 26.5027 15.6575 26.7369 15.8254C26.9712 15.9933 27.2625 16.0613 27.5469 16.0143ZM37.9257 18.416C39.1668 19.3049 40.2535 20.3915 41.1423 21.6326C41.3072 21.8644 41.5575 22.0211 41.838 22.0684C42.1185 22.1156 42.4062 22.0495 42.638 21.8846C42.8697 21.7197 43.0265 21.4694 43.0737 21.1889C43.121 20.9084 43.0549 20.6206 42.89 20.3889C41.8583 18.9497 40.5979 17.6893 39.1587 16.6577C38.927 16.4927 38.6392 16.4266 38.3587 16.4739C38.0782 16.5211 37.828 16.6779 37.663 16.9096C37.4981 17.1414 37.432 17.4292 37.4792 17.7097C37.5265 17.9902 37.6832 18.2404 37.915 18.4053L37.9257 18.416ZM18.5083 21.6326C19.3971 20.3915 20.4838 19.3049 21.7249 18.416C21.9567 18.2511 22.1134 18.0009 22.1607 17.7204C22.2079 17.4399 22.1418 17.1521 21.9769 16.9203C21.8119 16.6886 21.5617 16.5318 21.2812 16.4846C21.0007 16.4373 20.7129 16.5034 20.4812 16.6684C19.042 17.7 17.7815 18.9604 16.7499 20.3996C16.585 20.6314 16.5189 20.9191 16.5661 21.1996C16.6134 21.4801 16.7701 21.7304 17.0019 21.8953C17.2336 22.0602 17.5214 22.1264 17.8019 22.0791C18.0824 22.0318 18.3327 21.8751 18.4976 21.6433L18.5083 21.6326ZM43.5547 27.4546C43.8121 28.9663 43.8121 30.5105 43.5547 32.0222C43.5078 32.3065 43.5758 32.5979 43.7437 32.8321C43.9116 33.0664 44.1656 33.2243 44.45 33.2713C44.7344 33.3182 45.0257 33.2502 45.26 33.0823C45.4942 32.9144 45.6522 32.6603 45.6991 32.376C45.985 30.6292 45.985 28.8476 45.6991 27.1008C45.6522 26.8164 45.4942 26.5624 45.26 26.3945C45.0257 26.2266 44.7344 26.1586 44.45 26.2055C44.1656 26.2524 43.9116 26.4104 43.7437 26.6447C43.5758 26.8789 43.5078 27.1703 43.5547 27.4546ZM16.0959 32.0222C15.8529 30.5093 15.8529 28.9674 16.0959 27.4546C16.1424 27.1746 16.076 26.8875 15.9112 26.6564C15.7464 26.4252 15.4966 26.2689 15.2167 26.2216C14.9366 26.1751 14.6496 26.2415 14.4184 26.4063C14.1873 26.5711 14.0309 26.8209 13.9837 27.1008C13.6978 28.8476 13.6978 30.6292 13.9837 32.376C14.0309 32.6559 14.1873 32.9057 14.4184 33.0705C14.6496 33.2353 14.9366 33.3017 15.2167 33.2552C15.4966 33.2079 15.7464 33.0516 15.9112 32.8204C16.076 32.5893 16.1424 32.3022 16.0959 32.0222ZM21.7356 41.0607C20.4945 40.1719 19.4079 39.0853 18.519 37.8442C18.3541 37.6124 18.1039 37.4557 17.8234 37.4084C17.5429 37.3612 17.2551 37.4273 17.0233 37.5922C16.7916 37.7571 16.6348 38.0074 16.5876 38.2879C16.5403 38.5684 16.6064 38.8561 16.7714 39.0879C17.803 40.5271 19.0634 41.7875 20.5026 42.8191C20.7344 42.9841 21.0221 43.0502 21.3026 43.0029C21.5831 42.9557 21.8334 42.7989 21.9983 42.5672C22.1632 42.3354 22.2293 42.0476 22.1821 41.7671C22.1348 41.4866 21.9781 41.2364 21.7463 41.0715L21.7356 41.0607ZM41.153 37.8442C40.2642 39.0853 39.1775 40.1719 37.9364 41.0607C37.7047 41.2257 37.5479 41.4759 37.5007 41.7564C37.4534 42.0369 37.5195 42.3247 37.6845 42.5564C37.8494 42.7882 38.0996 42.9449 38.3801 42.9922C38.6606 43.0394 38.9484 42.9733 39.1802 42.8084C40.6193 41.7768 41.8798 40.5163 42.9114 39.0772C43.0763 38.8454 43.1424 38.5576 43.0952 38.2771C43.0479 37.9966 42.8912 37.7464 42.6594 37.5815C42.4277 37.4165 42.1399 37.3504 41.8594 37.3977C41.5789 37.4449 41.3287 37.6017 41.1637 37.8334L41.153 37.8442ZM32.1144 43.4624C30.6028 43.7198 29.0585 43.7198 27.5469 43.4624C27.2625 43.4155 26.9712 43.4835 26.7369 43.6514C26.5027 43.8193 26.3447 44.0734 26.2978 44.3577C26.2509 44.6421 26.3188 44.9334 26.4867 45.1677C26.6546 45.4019 26.9087 45.5599 27.1931 45.6068C28.9398 45.8927 30.7215 45.8927 32.4683 45.6068C32.7526 45.5599 33.0067 45.4019 33.1746 45.1677C33.3425 44.9334 33.4105 44.6421 33.3635 44.3577C33.3166 44.0734 33.1587 43.8193 32.9244 43.6514C32.6901 43.4835 32.3988 43.4155 32.1144 43.4624Z" fill="#93D8E4"/>
<path d="M37.722 27.9822C37.9201 27.9822 38.1102 28.0609 38.2503 28.201C38.3904 28.3411 38.4691 28.5312 38.4691 28.7293V29.6709C38.4477 29.8526 38.3604 30.0202 38.2236 30.1419C38.0868 30.2635 37.9101 30.3307 37.7271 30.3307C37.5441 30.3307 37.3674 30.2635 37.2307 30.1419C37.0939 30.0202 37.0065 29.8526 36.9851 29.6709V28.7293C36.9838 28.6312 37.0018 28.5338 37.0381 28.4426C37.0744 28.3515 37.1283 28.2683 37.1967 28.198C37.2651 28.1277 37.3467 28.0715 37.4369 28.0328C37.527 27.994 37.6239 27.9733 37.722 27.972V27.9822ZM29.9337 37.1521V36.2106C29.9123 36.0288 29.825 35.8612 29.6882 35.7396C29.5514 35.618 29.3748 35.5508 29.1917 35.5508C29.0087 35.5508 28.832 35.618 28.6953 35.7396C28.5585 35.8612 28.4711 36.0288 28.4497 36.2106V37.1521C28.4374 37.2569 28.4474 37.3631 28.4791 37.4637C28.5107 37.5643 28.5633 37.6571 28.6334 37.7359C28.7035 37.8147 28.7895 37.8778 28.8857 37.921C28.982 37.9642 29.0862 37.9865 29.1917 37.9865C29.2972 37.9865 29.4015 37.9642 29.4977 37.921C29.5939 37.8778 29.6799 37.8147 29.75 37.7359C29.8201 37.6571 29.8727 37.5643 29.9044 37.4637C29.936 37.3631 29.946 37.2569 29.9337 37.1521ZM26.4643 37.7048C26.5876 38.339 26.9277 38.9106 27.4262 39.3215C27.9248 39.7325 28.5507 39.9572 29.1968 39.9572C29.8429 39.9572 30.4689 39.7325 30.9675 39.3215C31.466 38.9106 31.8061 38.339 31.9294 37.7048H38.1416C38.413 37.7048 38.6734 37.597 38.8653 37.405C39.0572 37.2131 39.165 36.9528 39.165 36.6814C39.165 36.4099 39.0572 36.1496 38.8653 35.9577C38.6734 35.7658 38.413 35.6579 38.1416 35.6579H37.1182C36.7389 35.6625 36.3657 35.5616 36.0404 35.3664C35.7151 35.1712 35.4505 34.8895 35.276 34.5526C34.9178 34 34.6312 33.3552 34.3242 32.7821C34.2628 32.6695 34.2014 32.5569 34.1298 32.4444H37.7527C38.4892 32.4417 39.1946 32.1472 39.7145 31.6254C40.2343 31.1037 40.5262 30.3972 40.5262 29.6606V28.7191C40.5493 28.3386 40.4942 27.9575 40.3645 27.5991C40.2348 27.2407 40.0331 26.9127 39.7719 26.6351C39.5106 26.3576 39.1954 26.1364 38.8455 25.9853C38.4956 25.8341 38.1185 25.7561 37.7374 25.7561C37.3562 25.7561 36.9791 25.8341 36.6292 25.9853C36.2793 26.1364 35.9641 26.3576 35.7028 26.6351C35.4416 26.9127 35.2399 27.2407 35.1102 27.5991C34.9805 27.9575 34.9255 28.3386 34.9485 28.7191V29.6606C34.9459 29.91 34.9804 30.1583 35.0509 30.3975H30.9571C30.6857 30.3975 30.4254 30.5053 30.2335 30.6973C30.0415 30.8892 29.9337 31.1495 29.9337 31.4209C29.9337 31.6924 30.0415 31.9527 30.2335 32.1446C30.4254 32.3365 30.6857 32.4444 30.9571 32.4444C31.2011 32.4468 31.4402 32.5133 31.6503 32.6373C31.8605 32.7612 32.0344 32.9382 32.1545 33.1505C32.4397 33.5853 32.6928 34.0402 32.9119 34.5117C33.1011 34.8991 33.313 35.275 33.5464 35.6375H31.9294C31.796 35.0117 31.4518 34.4507 30.9545 34.0482C30.4571 33.6457 29.8367 33.426 29.1968 33.426C28.557 33.426 27.9366 33.6457 27.4392 34.0482C26.9418 34.4507 26.5977 35.0117 26.4643 35.6375H25.8298C25.6455 31.4414 23.1074 30.5203 23.1074 30.5203C22.8564 30.4158 22.5741 30.4153 22.3226 30.519C22.0712 30.6226 21.8712 30.8219 21.7667 31.073C21.6622 31.324 21.6618 31.6063 21.7654 31.8578C21.869 32.1092 22.0683 32.3092 22.3194 32.4137C22.3194 32.4137 23.6192 33.0891 23.7829 35.6477H20.8252C20.5538 35.6477 20.2934 35.7555 20.1015 35.9475C19.9096 36.1394 19.8018 36.3997 19.8018 36.6711C19.8018 36.9426 19.9096 37.2029 20.1015 37.3948C20.2934 37.5867 20.5538 37.6946 20.8252 37.6946L26.4643 37.7048Z" fill="#93D8E4"/>
<rect x="28.3771" y="35.5365" width="1.58419" height="2.27526" rx="0.792094" fill="white"/>
<path d="M33 21.1173C32.9446 21.2297 32.8844 21.3403 32.8351 21.4552C32.708 21.752 32.4711 21.9291 32.1614 22.0291C31.6762 22.1856 31.1819 22.2369 30.6785 22.1266C30.5869 22.1065 30.5511 22.1306 30.5276 22.2094C30.4957 22.316 30.457 22.4207 30.4192 22.5257C30.4005 22.5783 30.3708 22.6275 30.305 22.6277C30.2408 22.628 30.2109 22.5783 30.1834 22.5305C30.1218 22.4234 30.1664 22.3168 30.2053 22.2219C30.268 22.0689 30.2506 21.966 30.0835 21.8912C29.9869 21.8479 29.9177 21.7632 29.8522 21.6818C29.8032 21.6208 29.7508 21.6078 29.6901 21.666C29.5711 21.7798 29.4406 21.8794 29.293 21.9572C29.2449 21.9826 29.2331 22.0234 29.2382 22.0702C29.2942 22.5764 29.2914 23.0902 29.4412 23.5849C29.5302 23.8793 29.6584 24.1518 29.9242 24.3453C30.0339 24.4254 30.1582 24.4713 30.2896 24.5042C30.3159 24.5106 30.3456 24.5272 30.3685 24.5055C30.3991 24.4767 30.3697 24.4465 30.3585 24.4203C30.2453 24.1476 30.1966 23.8657 30.317 23.59C30.4867 23.2013 30.7759 22.9221 31.2256 22.8393C31.5216 22.7848 31.7411 22.9438 31.9478 23.1164C31.9965 23.157 32.0365 23.2072 32.0796 23.2537C32.1261 23.3036 32.1522 23.3587 32.1135 23.4233C32.0735 23.4901 32.0113 23.4874 31.9427 23.4725C31.8204 23.4458 31.6983 23.4158 31.5742 23.4001C31.3046 23.3659 31.0447 23.4129 30.7986 23.5171C30.613 23.5956 30.5844 23.679 30.6564 23.8558C30.8748 24.3915 31.1369 24.5106 31.7109 24.3359C31.9338 24.268 32.1452 24.1777 32.3448 24.061C32.4042 24.0263 32.4655 23.9937 32.5285 23.9659C32.5783 23.9437 32.6324 23.9197 32.6836 23.9675C32.7332 24.0137 32.7116 24.0653 32.6965 24.1168C32.601 24.4398 32.419 24.6792 32.0782 24.8213C31.5006 25.0623 30.9112 25.206 30.2772 25.1523C29.806 25.1125 29.4689 24.8876 29.2544 24.4884C29.2339 24.4502 29.2256 24.4038 29.1735 24.3736C29.0564 24.5811 28.929 24.7804 28.7537 24.9477C28.4581 25.2298 28.1996 25.2536 27.8866 24.9859C27.734 24.8555 27.6273 24.8235 27.4335 24.9255C26.9606 25.1742 26.4322 25.2397 25.9005 25.2824C25.4665 25.3174 25.0364 25.3083 24.6102 25.218C24.524 25.1996 24.5285 25.2333 24.5413 25.2939C24.6732 25.9185 25.037 26.3398 25.693 26.5196C26.3127 26.6895 26.9446 26.6745 27.5766 26.6438C28.01 26.6227 28.4354 26.5527 28.8422 26.3967C29.0119 26.3315 29.1698 26.249 29.3219 26.1539C29.3698 26.1239 29.421 26.0721 29.4826 26.1285C29.5338 26.1755 29.531 26.2391 29.4946 26.2877C29.4053 26.4069 29.4927 26.4424 29.5842 26.4771C29.7875 26.5543 29.9135 26.5295 30.0614 26.3761C30.2042 26.2279 30.3055 26.0526 30.4033 25.8755C30.4271 25.8325 30.4506 25.7887 30.4794 25.7486C30.5043 25.7139 30.5407 25.693 30.5878 25.7059C30.6323 25.7181 30.6592 25.7494 30.6662 25.7911C30.6712 25.8207 30.6662 25.8522 30.6637 25.883C30.6575 25.9615 30.5861 26.0462 30.6861 26.1149C30.8067 26.1982 30.9434 26.2426 31.0912 26.2356C31.1598 26.2324 31.171 26.1662 31.1668 26.1117C31.1621 26.0499 31.1483 25.9888 31.136 25.9279C31.1254 25.8747 31.1195 25.8215 31.1377 25.77C31.171 25.6749 31.2161 25.5669 31.3331 25.5715C31.46 25.5766 31.4603 25.7008 31.4664 25.7892C31.4874 26.0887 31.4673 26.3839 31.3312 26.6623C31.2629 26.802 31.1607 26.8722 30.9896 26.857C30.8067 26.8407 30.6441 26.7862 30.5041 26.6753C30.4259 26.6136 30.38 26.5893 30.3274 26.7066C30.273 26.8276 30.1927 26.9409 30.081 27.0256C29.8007 27.238 29.4832 27.215 29.1891 26.95C29.1068 26.876 29.0475 26.8669 28.9478 26.9176C28.5645 27.1143 28.1439 27.1915 27.7166 27.2358C27.0942 27.3005 26.4725 27.3077 25.8574 27.172C25.3354 27.0568 24.8743 26.8444 24.5506 26.417C24.4249 26.2511 24.3302 26.07 24.2574 25.836C24.207 26.0259 24.167 26.179 24.0908 26.3198C24.0642 26.3687 24.0975 26.3938 24.1345 26.4165C24.2053 26.4603 24.2683 26.5118 24.3218 26.5746C24.4246 26.6948 24.4691 26.8271 24.4375 26.9834C24.4195 27.071 24.3952 27.1559 24.3635 27.2396C24.2518 27.5316 24.1451 27.5882 23.8248 27.5289C23.7089 27.5075 23.6022 27.4645 23.502 27.4076C23.4476 27.3766 23.4121 27.3702 23.3872 27.4391C23.2385 27.8513 22.8664 27.936 22.4802 27.9924C22.3755 28.0076 22.2666 27.9964 22.1596 27.9972C22.0913 27.9977 22.0431 27.9702 22.0244 27.9048C22.0031 27.8313 22.0532 27.799 22.1112 27.7736C22.3483 27.6705 22.5883 27.5727 22.8101 27.4407C22.8848 27.3961 22.9565 27.3464 23.0279 27.2965C23.1559 27.2067 23.2239 27.0924 23.2183 26.9334C23.2074 26.6195 23.334 26.3978 23.6602 26.2677C23.8999 26.172 23.9794 25.9337 24.0399 25.7053C24.0581 25.6367 24.0735 25.5664 24.0788 25.4959C24.097 25.2517 24.1157 25.0313 23.8086 24.8881C23.5347 24.7604 23.3804 24.4895 23.246 24.2066C23.2035 24.2603 23.1693 24.3041 23.1346 24.3471C22.9005 24.6378 22.3623 24.6661 22.1003 24.3987C21.9731 24.2691 22.0059 24.1219 22.0625 23.9742C22.2025 23.6098 22.469 23.3501 22.819 23.1703C22.9669 23.0944 23.0192 23.0074 22.98 22.8516C22.9431 22.7041 22.9873 22.5695 23.1072 22.4637C23.143 22.4322 23.1699 22.3742 23.2309 22.3958C23.2892 22.4164 23.3068 22.4736 23.3121 22.527C23.3258 22.6638 23.3312 22.8014 23.3449 22.9382C23.3712 23.1984 23.3855 23.461 23.488 23.7081C23.5921 23.9587 23.7369 24.1807 24.0007 24.3474C23.9889 24.2098 23.9797 24.0928 23.9687 23.976C23.9519 23.7949 23.9365 23.6138 23.9161 23.4329C23.8959 23.2515 23.9939 23.1086 24.0768 22.9603C24.0922 22.9326 24.118 22.908 24.1552 22.9155C24.2028 22.9251 24.2233 22.9641 24.2297 23.0034C24.2524 23.1391 24.2739 23.275 24.2891 23.4116C24.326 23.7466 24.363 24.0816 24.3915 24.4171C24.4013 24.5323 24.4646 24.5747 24.5702 24.6006C24.9398 24.6915 25.3158 24.6966 25.6933 24.6837C26.136 24.6685 26.5739 24.6244 26.9995 24.4954C27.2412 24.4222 27.471 24.3279 27.6735 24.1818C27.7622 24.1176 27.8222 24.1192 27.8924 24.2082C27.979 24.3177 28.0781 24.4187 28.2049 24.4903C28.3477 24.571 28.4849 24.5702 28.6233 24.4794C28.7971 24.365 28.9254 24.2184 28.9973 24.0276C29.0234 23.9587 29.0293 23.8916 29.0158 23.819C28.9178 23.2903 28.8459 22.7584 28.8064 22.2225C28.7997 22.1316 28.7775 22.0953 28.6644 22.098C28.3038 22.1065 28.0198 21.9521 27.8037 21.6812C27.734 21.5939 27.6707 21.502 27.6063 21.4146C27.5517 21.4269 27.5665 21.4646 27.5615 21.4921C27.522 21.7168 27.4534 21.9323 27.3484 22.1372C27.2686 22.2933 27.2694 22.2951 27.4391 22.3363C27.6295 22.3825 27.8149 22.4386 27.9745 22.5537C28.0736 22.6251 28.126 22.7119 28.1229 22.8369C28.1159 23.1121 28.0338 23.3525 27.8073 23.5342C27.298 23.9427 26.7313 24.2189 26.0467 24.2053C25.7613 24.1997 25.481 24.158 25.2248 24.0241C24.8368 23.8214 24.6391 23.5059 24.6125 23.0878C24.5923 22.7709 24.6609 22.4688 24.7877 22.1792C24.8342 22.0731 24.8373 21.997 24.7474 21.9064C24.6435 21.8014 24.5635 21.6748 24.4649 21.5471C24.3291 21.8343 24.1519 22.0689 23.7935 22.0809C23.4269 22.0932 23.2385 21.88 23.1287 21.5439C22.9352 21.8506 22.6594 21.8744 22.3576 21.8223C22.0112 21.7624 21.9185 21.5866 22.0703 21.2551C22.2249 20.918 22.5172 20.6901 22.882 20.5643C22.9982 20.5242 23.0307 20.4748 23.0128 20.3607C22.977 20.1323 23.0971 19.949 23.2301 19.7748C23.2738 19.7179 23.3186 19.7401 23.3494 19.7925C23.3782 19.8414 23.3701 19.8964 23.3698 19.9493C23.3673 20.2821 23.3662 20.615 23.423 20.9452C23.4283 20.9759 23.4311 21.0072 23.4395 21.0369C23.5342 21.3681 23.6966 21.4707 24.0933 21.3182C24.2521 21.2573 24.2989 21.1448 24.2672 20.984C24.1818 20.5525 24.0973 20.1208 24.0138 19.6891C23.9727 19.4764 24.1129 19.3268 24.2252 19.1721C24.2697 19.1107 24.3518 19.1623 24.3728 19.2755C24.4061 19.4545 24.4333 19.6343 24.4593 19.8144C24.5103 20.1659 24.5576 20.5178 24.6547 20.8616C24.6945 21.0027 24.7631 21.125 24.8729 21.2268C24.9278 21.2778 24.9922 21.3112 25.0678 21.3243C25.2643 21.358 25.306 21.3184 25.2657 21.1328C25.1655 20.6722 25.0728 20.21 24.9591 19.7527C24.907 19.5429 24.9826 19.3792 25.0924 19.2159C25.1498 19.1307 25.2061 19.1663 25.2327 19.2357C25.2708 19.3351 25.3004 19.4388 25.3198 19.5429C25.4113 20.0364 25.546 20.5221 25.6202 21.019C25.6619 21.2979 25.6194 21.5679 25.5197 21.8295C25.4595 21.9876 25.3464 22.0926 25.1543 22.0846C25.0806 22.0814 25.0414 22.118 25.023 22.18C24.9096 22.5596 24.9398 22.9221 25.1994 23.2414C25.3828 23.4669 25.6594 23.5211 25.9375 23.5347C26.5759 23.5662 27.1488 23.3856 27.6572 23.0178C27.6864 22.9967 27.7281 22.9772 27.7239 22.9387C27.7194 22.8968 27.6707 22.8952 27.6368 22.8842C27.4425 22.8212 27.2423 22.7811 27.041 22.745C26.7836 22.6991 26.7229 22.5511 26.8934 22.3547C27.0429 22.1824 27.1306 21.9887 27.1944 21.7763C27.2916 21.4517 27.2694 21.1261 27.2272 20.7996C27.1432 20.148 27.0429 19.4983 26.9718 18.8457C26.9404 18.5564 27.0463 18.2766 27.1348 18.0007H27.2465C27.275 18.0568 27.2969 18.1145 27.3067 18.177C27.363 18.5363 27.4176 18.8959 27.4786 19.2544C27.5718 19.8015 27.6687 20.3484 27.8608 20.8742C27.9582 21.141 28.1265 21.3542 28.4203 21.4464C28.7266 21.5426 28.7543 21.5028 28.7367 21.1958C28.7143 20.8076 28.6244 20.4042 28.8985 20.0519C28.945 19.9923 28.9413 19.863 29.0447 19.8873C29.1449 19.9108 29.1147 20.0281 29.1191 20.1093C29.141 20.4988 29.1623 20.8883 29.1799 21.2778C29.1841 21.3681 29.2174 21.3852 29.3012 21.351C29.4613 21.2856 29.603 21.1958 29.7293 21.0812C29.8911 20.9345 29.9603 20.9375 30.0975 21.1119C30.2106 21.2556 30.3579 21.3489 30.5242 21.424C30.6124 21.4638 30.6704 21.4523 30.7384 21.3756C31.0587 21.0133 31.4311 20.7085 31.8702 20.4812C32.1628 20.3297 32.4422 20.3198 32.7153 20.5274C32.8217 20.6083 32.9205 20.6936 33 20.7988V21.1186V21.1173ZM31.0638 21.5338C31.2533 21.5338 31.4438 21.5447 31.6325 21.5311C31.9058 21.5113 32.179 21.4782 32.4364 21.3788C32.5613 21.3305 32.5643 21.2914 32.4616 21.2164C32.2639 21.0713 32.0427 21.0272 31.8027 21.0871C31.5118 21.1595 31.2847 21.3371 31.0638 21.5338ZM22.7395 23.932C23.0999 23.932 23.1486 23.8847 23.0682 23.6146C23.0668 23.6103 23.0654 23.606 23.0646 23.6018C23.0506 23.5326 23.0114 23.5173 22.9434 23.5427C22.8392 23.5817 22.7353 23.6215 22.6443 23.6838C22.5712 23.7337 22.4503 23.7834 22.4847 23.8753C22.5116 23.9475 22.6382 23.9314 22.7255 23.932C22.7303 23.932 22.7348 23.932 22.7395 23.932ZM22.742 21.1934C22.7896 21.1899 22.8358 21.1881 22.8812 21.1824C22.9084 21.179 22.9352 21.171 22.9613 21.1619C23.0394 21.1344 23.0867 21.0195 23.0425 20.942C22.9954 20.8595 22.938 20.9319 22.8913 20.9482C22.8227 20.9722 22.7569 21.0067 22.695 21.0443C22.6466 21.0737 22.5567 21.0986 22.5721 21.1525C22.5925 21.2236 22.6846 21.1766 22.742 21.1934ZM24.1152 26.9943C23.9841 26.7544 23.6476 26.6484 23.4908 26.7889C23.6767 26.9056 23.8808 26.9655 24.1152 26.9943Z" fill="#93D8E4"/>
<path d="M26.1852 18C26.2802 18.1143 26.258 18.2551 26.267 18.3839C26.3068 18.9545 26.3829 19.5217 26.43 20.0915C26.475 20.6357 26.5075 21.1812 26.4426 21.7265C26.4311 21.8237 26.4112 21.9196 26.365 22.0083C26.3482 22.0409 26.3278 22.0741 26.2852 22.0746C26.2323 22.0751 26.2158 22.0313 26.2071 21.9939C26.1942 21.9381 26.1864 21.8801 26.1866 21.8229C26.1931 20.9333 26.0727 20.0533 25.9666 19.172C25.9453 18.9957 25.9262 18.8191 25.9041 18.643C25.891 18.5386 25.9089 18.4405 25.9528 18.3444C26.0052 18.2308 26.0522 18.1149 26.1015 18C26.1295 18 26.1572 18 26.1852 18Z" fill="#93D8E4"/>
<path d="M33 18.7726C32.9037 18.9762 32.7169 19.067 32.5103 19.137C31.7957 19.3788 31.082 19.6235 30.3671 19.8647C30.3103 19.8839 30.2439 19.9304 30.1871 19.8669C30.1277 19.8003 30.1809 19.7416 30.2145 19.6852C30.2907 19.5578 30.3951 19.4635 30.5441 19.4127C31.2973 19.1554 32.0497 18.8955 32.8018 18.6353C32.8701 18.6115 32.935 18.5936 33 18.6396V18.7729V18.7726Z" fill="#93D8E4"/>
<path d="M32.9538 25.8908C32.9457 26.6228 32.6438 27.2327 32.1009 27.7395C31.9192 27.9092 31.7005 27.9936 31.4409 27.9677C31.1864 27.9423 30.9327 27.9126 30.6855 27.8469C30.632 27.8328 30.578 27.8165 30.5287 27.7927C30.4724 27.7652 30.4254 27.7171 30.4427 27.6546C30.4612 27.5878 30.5287 27.6052 30.5844 27.6065C30.7518 27.6108 30.9196 27.6193 31.0864 27.6124C31.3082 27.603 31.5143 27.5464 31.6985 27.4163C32.0261 27.1855 32.3319 26.9354 32.557 26.6068C32.6032 26.5395 32.6436 26.4684 32.6287 26.3829C32.6251 26.3624 32.6212 26.3356 32.6063 26.3242C32.5825 26.3057 32.5649 26.3311 32.5503 26.3471C32.4168 26.4954 32.256 26.4989 32.0816 26.4278C31.8976 26.3527 31.81 26.2061 31.8041 26.0284C31.7923 25.6651 31.9169 25.3365 32.151 25.0531C32.2997 24.8733 32.4728 24.8802 32.6377 25.0472C32.8499 25.2622 32.9524 25.5361 32.9532 25.8906L32.9538 25.8908Z" fill="#93D8E4"/>
<path d="M26.7564 26.3581C26.6204 26.3613 26.3154 26.1377 26.2902 26.0308C26.2835 26.0028 26.2883 25.9777 26.304 25.9547C26.3826 25.8398 26.4574 25.7225 26.5422 25.6117C26.6148 25.5168 26.7041 25.5785 26.7808 25.6087C26.9883 25.6905 26.9914 25.6958 27.1163 25.5147C27.1737 25.4313 27.2369 25.4161 27.3274 25.4516C27.4495 25.5 27.5503 25.5775 27.6469 25.6608C27.7079 25.7137 27.7093 25.7749 27.667 25.8401C27.5962 25.9491 27.5245 26.0578 27.4556 26.1679C27.4145 26.2339 27.3702 26.2352 27.3086 26.1914C27.2269 26.1334 27.1381 26.049 27.0451 26.0543C26.9376 26.0605 26.9343 26.2021 26.8701 26.2745C26.8335 26.3156 26.808 26.365 26.7573 26.3576L26.7564 26.3581Z" fill="#93D8E4"/>
<path d="M23.5081 18.5947C23.5277 18.463 23.519 18.3358 23.5792 18.2209C23.6039 18.1739 23.6238 18.1133 23.696 18.129C23.7598 18.1429 23.775 18.1993 23.78 18.2543C23.7842 18.2984 23.7822 18.343 23.7867 18.3871C23.7915 18.4322 23.8013 18.4798 23.8556 18.4924C23.9077 18.5044 23.9444 18.4715 23.9735 18.4357C24.0312 18.3644 24.0614 18.28 24.0942 18.1969C24.114 18.1464 24.1342 18.0892 24.2034 18.0919C24.2776 18.0948 24.2991 18.1528 24.3109 18.2124C24.3226 18.2722 24.3173 18.3516 24.4058 18.3526C24.496 18.3537 24.5234 18.285 24.5391 18.2081C24.5525 18.1421 24.5528 18.0409 24.6477 18.0465C24.7567 18.0529 24.7539 18.1619 24.7541 18.2362C24.755 18.417 24.6979 18.5877 24.6021 18.7421C24.5178 18.8776 24.3935 18.9014 24.2269 18.8266C24.1779 18.8047 24.1429 18.7806 24.097 18.8367C23.9962 18.9593 23.862 19.0208 23.7038 18.9561C23.5375 18.8883 23.5227 18.7339 23.5084 18.5949L23.5081 18.5947Z" fill="#93D8E4"/>
<path d="M30.6278 18.0297C30.7135 18.0395 30.758 18.0876 30.7278 18.1656C30.679 18.2912 30.6127 18.4045 30.4713 18.4654C30.0891 18.6299 29.6901 18.752 29.2969 18.8885C28.8951 19.0283 28.4908 19.1618 28.087 19.2973C28.0322 19.3157 27.9731 19.3542 27.9238 19.2887C27.8804 19.231 27.9095 19.1795 27.9434 19.129C28.0355 18.9919 28.1461 18.8837 28.3164 18.826C29.0567 18.5744 29.7937 18.3142 30.532 18.0574C30.5626 18.0468 30.5942 18.0393 30.6275 18.0297H30.6278Z" fill="#93D8E4"/>
</svg>
