<svg width="34" height="27" viewBox="0 0 34 27" fill="none" xmlns="http://www.w3.org/2000/svg">
<path id="Vector" fill-rule="evenodd" clip-rule="evenodd" d="M33.0022 12.3783L32.6298 15.6253C32.016 20.9755 31.7092 23.6505 29.7875 25.2635C27.8657 26.8765 24.9854 26.8765 19.225 26.8765H14.8053C9.04478 26.8765 6.16454 26.8765 4.24278 25.2635C2.32104 23.6505 2.01419 20.9755 1.40051 15.6253L1.02807 12.3783C0.735558 9.82814 0.589308 8.55306 1.12099 8.02596C1.4086 7.74084 1.79971 7.56614 2.21787 7.536C2.99086 7.4803 3.96164 8.38707 5.90317 10.2006C6.90726 11.1385 7.4093 11.6075 7.96936 11.6801C8.27969 11.7203 8.59588 11.6789 8.88243 11.5607C9.39959 11.3471 9.74439 10.7674 10.434 9.6079L14.0688 3.49635C15.3719 1.30536 16.0236 0.209869 17.0151 0.209869C18.0067 0.209869 18.6583 1.30536 19.9614 3.49634L23.5962 9.60788C24.2859 10.7674 24.6307 11.3471 25.1478 11.5607C25.4344 11.6789 25.7506 11.7203 26.0609 11.6801C26.621 11.6075 27.123 11.1385 28.127 10.2006C30.0686 8.38707 31.0394 7.4803 31.8124 7.536C32.2305 7.56614 32.6216 7.74084 32.9093 8.02596C33.441 8.55306 33.2947 9.82814 33.0022 12.3783ZM18.5628 14.4752L18.403 14.2401C17.7855 13.3312 17.4768 12.8768 17.0151 12.8768C16.5535 12.8768 16.2447 13.3312 15.6272 14.2401L15.4675 14.4752C15.2921 14.7335 15.2044 14.8627 15.0676 14.9479C14.9307 15.0331 14.7604 15.0647 14.4197 15.128L14.1095 15.1856C12.9103 15.4081 12.3108 15.5195 12.1681 15.8959C12.0255 16.2723 12.4342 16.6644 13.2517 17.4487L13.4632 17.6516C13.6955 17.8745 13.8116 17.986 13.8639 18.1239C13.9161 18.2617 13.8985 18.4104 13.8634 18.7077L13.8314 18.9785C13.7079 20.0249 13.6461 20.5483 14.0194 20.7808C14.393 21.0135 14.9543 20.8013 16.077 20.3772L16.3674 20.2675C16.6866 20.1469 16.846 20.0867 17.0151 20.0867C17.1843 20.0867 17.3437 20.1469 17.6629 20.2675L17.9532 20.3772C19.076 20.8013 19.6372 21.0135 20.0108 20.7808C20.3842 20.5483 20.3223 20.0249 20.1988 18.9785L20.1668 18.7077C20.1317 18.4104 20.1142 18.2617 20.1663 18.1239C20.2187 17.986 20.3348 17.8745 20.5671 17.6516L20.7786 17.4487C21.596 16.6644 22.0049 16.2723 21.8622 15.8959C21.7195 15.5195 21.1199 15.4081 19.9208 15.1856L19.6106 15.128C19.2698 15.0647 19.0995 15.0331 18.9627 14.9479C18.8259 14.8627 18.7381 14.7335 18.5628 14.4752Z" fill="#FFF886"/>
</svg>
