<svg width="538" height="298" viewBox="0 0 538 298" fill="none" xmlns="http://www.w3.org/2000/svg">
<path d="M16.2775 32.5175C18.1488 19.1268 29.1151 8.91197 42.6141 8.1437C88.8356 5.5131 194.582 0 269 0C343.418 0 449.164 5.51309 495.386 8.1437C508.885 8.91197 519.851 19.1268 521.723 32.5176V32.5176C532.522 109.797 532.522 188.203 521.723 265.482V265.482C519.851 278.873 508.885 289.088 495.386 289.856C449.164 292.487 343.418 298 269 298C194.582 298 88.8356 292.487 42.6141 289.856C29.1151 289.088 18.1488 278.873 16.2775 265.482V265.482C5.4783 188.203 5.4783 109.797 16.2775 32.5175V32.5175Z" fill="white"/>
<g clip-path="url(#clip0_701_13)">
<path fill-rule="evenodd" clip-rule="evenodd" d="M9.05861 37.993C9.05861 37.993 7.75491 16.5969 28.999 4.99536C28.999 4.99536 2.44191 6.10578 9.05861 37.993Z" fill="white"/>
</g>
<g clip-path="url(#clip1_701_13)">
<path fill-rule="evenodd" clip-rule="evenodd" d="M530.854 260.162C530.854 260.162 532.158 281.559 510.914 293.16C510.914 293.16 537.471 292.05 530.854 260.162Z" fill="white"/>
</g>
<defs>
<clipPath id="clip0_701_13">
<rect width="21" height="33" fill="white" transform="translate(8 5)"/>
</clipPath>
<clipPath id="clip1_701_13">
<rect width="21" height="33" fill="white" transform="translate(531.913 293.155) rotate(-180)"/>
</clipPath>
</defs>
</svg>
