<svg width="159" height="155" viewBox="0 0 159 155" fill="none" xmlns="http://www.w3.org/2000/svg">
<g clip-path="url(#clip0_1_3383)">
<mask id="path-1-inside-1_1_3383" fill="white">
<path d="M137.335 110.075C136.565 106.616 134.273 104.897 131.335 104.519C131.503 103.987 131.589 103.417 131.58 102.807C131.554 101.674 131 100.886 130.643 99.8809C130.179 98.5691 130.415 99.5714 131.702 98.0531C133.215 96.2658 132.868 94.5209 132.193 92.4763C131.497 90.3663 131.154 88.9149 132.398 86.9122C132.616 86.5587 132.809 86.2662 132.981 85.9978C135.058 84.7916 137.686 83.2329 138.724 81.009C139.925 78.4392 138.896 75.6234 137.903 73.1547C135.624 67.5003 132.047 62.5132 128.391 57.6472C120.135 46.6607 110.992 36.5059 101.272 26.7646C92.5536 18.0384 83.1647 11.0507 70.1552 12.1501C63.5489 12.7097 57.1336 14.5518 50.7262 16.1409C45.1261 17.5293 39.3205 18.6668 34.1145 21.2054C22.6107 26.8036 21.532 39.7162 20.4752 51.0666C19.9599 56.6516 19.5868 62.7479 21.0022 68.2501C22.4246 73.7542 25.8758 78.647 29.1008 83.2532C37.2008 94.8126 45.5703 105.912 55.7333 115.812C60.8174 120.766 66.3027 126.37 72.5918 129.828C78.3912 133.018 84.7211 132.916 91.0694 132.159C91.0522 134.878 91.1224 137.583 91.5175 140.212C92.0341 143.624 94.7273 146.915 98.5543 145.449C103.203 143.675 102.278 138.801 104.924 135.641C105.476 134.981 104.701 135.146 105.814 135.583C106.356 135.798 106.858 136.16 107.365 136.448C108.488 137.098 109.6 137.903 110.853 138.297C113.418 139.099 115.565 137.8 116.101 135.214C116.643 132.578 116.383 129.536 115.886 126.527C121.134 124.87 126.545 123.085 131.405 120.588C135.46 118.509 138.379 114.793 137.328 110.073L137.335 110.075ZM111.506 106.682C114.849 105.851 118.381 105.078 121.412 103.494C122.094 103.139 121.82 101.909 120.999 101.993C117.585 102.333 114.222 103.489 110.904 104.425C110.588 103.266 110.274 102.1 109.958 100.942C109.913 100.772 109.846 100.626 109.778 100.487C111.817 99.9764 113.856 99.4655 115.894 98.9616C118.151 98.4049 120.291 97.9438 122.069 96.4089C122.715 95.8494 122.048 94.6699 121.22 94.9474C109.695 98.8892 97.5623 100.902 85.9276 104.521C84.8478 104.858 85.2848 106.41 86.3928 106.194C87.5007 105.977 88.6002 105.736 89.6997 105.495C89.7 105.577 89.6914 105.665 89.7059 105.751C89.8654 106.898 90.0071 108.054 90.1435 109.202C88.2866 109.545 86.4014 109.88 84.6765 110.604C83.8955 110.932 84.3616 112.042 85.081 112.08C86.8452 112.162 88.6379 111.831 90.4009 111.47C90.5218 112.591 90.6337 113.717 90.7296 114.846C88.0719 115.534 84.1444 116.95 82.161 114.962C80.3227 113.112 80.5605 107.737 80.846 105.233C81.3135 101.166 83.6946 100.433 87.3115 99.2927C90.7942 98.1989 94.3126 97.1973 97.839 96.2503C104.545 94.4573 111.285 92.7635 118.056 91.2357C120.964 90.5783 123.874 89.8542 126.681 88.8692C126.369 90.5476 126.815 91.8994 127.285 93.8354C127.716 95.6333 127.237 94.933 126.089 96.3016C125.503 97.005 125.084 97.8741 125.016 98.7936C124.935 99.8746 125.37 100.653 125.762 101.615C126.318 102.982 126.16 103.284 125.957 104.699C125.945 104.801 125.948 104.9 125.943 105.003C121.253 106.009 116.742 107.753 112.15 109.124C111.945 108.31 111.734 107.495 111.513 106.684L111.506 106.682ZM91.1428 127.137C84.3207 128.043 78.1905 127.914 72.4063 123.745C67.2262 120.01 62.496 115.46 57.9852 110.969C49.3393 102.368 42.0153 92.9028 35.041 82.9626C31.9304 78.5226 28.4031 74.0218 26.5187 68.9024C24.5409 63.5398 25.0167 57.2613 25.4998 51.6826C25.9941 45.9794 26.5213 39.7074 28.4791 34.2971C30.6313 28.3394 35.7108 25.5113 41.5278 23.7166C47.3609 21.9188 53.4019 20.6427 59.3354 19.2024C65.7012 17.6544 72.4828 16.1146 79.0295 17.6472C84.7616 18.9884 89.5109 22.5459 93.7366 26.4637C98.2945 30.6971 102.641 35.2031 106.879 39.7471C115.578 49.0758 124.563 59.1425 130.874 70.2378C132.117 72.4293 135.185 77.0002 133.485 79.5318C132.009 81.719 127.347 83.3177 124.977 84.1512C120.061 85.8757 114.834 86.728 109.786 87.9889C102.693 89.7517 95.5873 91.5036 88.5913 93.608C83.0039 95.285 77.5339 96.4463 76.0987 102.787C75.1028 107.175 75.1081 114.312 78.0736 118C81.4654 122.217 86.4623 121.062 91.0602 119.948C91.1155 121.059 91.1618 122.175 91.185 123.291C91.2127 124.56 91.1993 125.839 91.1749 127.13C91.1749 127.13 91.1679 127.128 91.1608 127.127L91.1428 127.137ZM103.592 130.447C100.714 131.3 99.762 134.523 98.8915 137.025C98.6069 137.848 98.4321 138.798 97.8724 139.486C96.9476 140.623 96.8764 140.521 96.4931 139.359C95.8189 137.337 96.3529 134.144 96.3347 132.03C96.2602 123.051 96.4115 113.968 94.3765 105.153C94.317 104.897 94.2107 104.673 94.0736 104.478C97.7146 103.585 101.344 102.621 104.965 101.692C104.978 101.868 105.005 102.048 105.053 102.234C107.724 111.897 110.432 121.757 111.074 131.784C111.067 131.639 111.088 132.095 111.108 132.663C110.465 132.316 109.717 131.993 109.426 131.831C107.69 130.864 105.619 129.843 103.585 130.445L103.592 130.447ZM124.973 117.908C121.662 119.236 118.309 120.44 114.913 121.55C114.744 120.746 114.578 119.958 114.431 119.213C114.097 117.479 113.716 115.747 113.318 114.026C116.403 113.109 119.429 112.018 122.526 111.112C125.069 110.371 131.886 107.527 132.419 111.491C132.92 115.297 127.746 116.794 124.973 117.908Z"/>
</mask>
<path d="M137.335 110.075C136.565 106.616 134.273 104.897 131.335 104.519C131.503 103.987 131.589 103.417 131.58 102.807C131.554 101.674 131 100.886 130.643 99.8809C130.179 98.5691 130.415 99.5714 131.702 98.0531C133.215 96.2658 132.868 94.5209 132.193 92.4763C131.497 90.3663 131.154 88.9149 132.398 86.9122C132.616 86.5587 132.809 86.2662 132.981 85.9978C135.058 84.7916 137.686 83.2329 138.724 81.009C139.925 78.4392 138.896 75.6234 137.903 73.1547C135.624 67.5003 132.047 62.5132 128.391 57.6472C120.135 46.6607 110.992 36.5059 101.272 26.7646C92.5536 18.0384 83.1647 11.0507 70.1552 12.1501C63.5489 12.7097 57.1336 14.5518 50.7262 16.1409C45.1261 17.5293 39.3205 18.6668 34.1145 21.2054C22.6107 26.8036 21.532 39.7162 20.4752 51.0666C19.9599 56.6516 19.5868 62.7479 21.0022 68.2501C22.4246 73.7542 25.8758 78.647 29.1008 83.2532C37.2008 94.8126 45.5703 105.912 55.7333 115.812C60.8174 120.766 66.3027 126.37 72.5918 129.828C78.3912 133.018 84.7211 132.916 91.0694 132.159C91.0522 134.878 91.1224 137.583 91.5175 140.212C92.0341 143.624 94.7273 146.915 98.5543 145.449C103.203 143.675 102.278 138.801 104.924 135.641C105.476 134.981 104.701 135.146 105.814 135.583C106.356 135.798 106.858 136.16 107.365 136.448C108.488 137.098 109.6 137.903 110.853 138.297C113.418 139.099 115.565 137.8 116.101 135.214C116.643 132.578 116.383 129.536 115.886 126.527C121.134 124.87 126.545 123.085 131.405 120.588C135.46 118.509 138.379 114.793 137.328 110.073L137.335 110.075ZM111.506 106.682C114.849 105.851 118.381 105.078 121.412 103.494C122.094 103.139 121.82 101.909 120.999 101.993C117.585 102.333 114.222 103.489 110.904 104.425C110.588 103.266 110.274 102.1 109.958 100.942C109.913 100.772 109.846 100.626 109.778 100.487C111.817 99.9764 113.856 99.4655 115.894 98.9616C118.151 98.4049 120.291 97.9438 122.069 96.4089C122.715 95.8494 122.048 94.6699 121.22 94.9474C109.695 98.8892 97.5623 100.902 85.9276 104.521C84.8478 104.858 85.2848 106.41 86.3928 106.194C87.5007 105.977 88.6002 105.736 89.6997 105.495C89.7 105.577 89.6914 105.665 89.7059 105.751C89.8654 106.898 90.0071 108.054 90.1435 109.202C88.2866 109.545 86.4014 109.88 84.6765 110.604C83.8955 110.932 84.3616 112.042 85.081 112.08C86.8452 112.162 88.6379 111.831 90.4009 111.47C90.5218 112.591 90.6337 113.717 90.7296 114.846C88.0719 115.534 84.1444 116.95 82.161 114.962C80.3227 113.112 80.5605 107.737 80.846 105.233C81.3135 101.166 83.6946 100.433 87.3115 99.2927C90.7942 98.1989 94.3126 97.1973 97.839 96.2503C104.545 94.4573 111.285 92.7635 118.056 91.2357C120.964 90.5783 123.874 89.8542 126.681 88.8692C126.369 90.5476 126.815 91.8994 127.285 93.8354C127.716 95.6333 127.237 94.933 126.089 96.3016C125.503 97.005 125.084 97.8741 125.016 98.7936C124.935 99.8746 125.37 100.653 125.762 101.615C126.318 102.982 126.16 103.284 125.957 104.699C125.945 104.801 125.948 104.9 125.943 105.003C121.253 106.009 116.742 107.753 112.15 109.124C111.945 108.31 111.734 107.495 111.513 106.684L111.506 106.682ZM91.1428 127.137C84.3207 128.043 78.1905 127.914 72.4063 123.745C67.2262 120.01 62.496 115.46 57.9852 110.969C49.3393 102.368 42.0153 92.9028 35.041 82.9626C31.9304 78.5226 28.4031 74.0218 26.5187 68.9024C24.5409 63.5398 25.0167 57.2613 25.4998 51.6826C25.9941 45.9794 26.5213 39.7074 28.4791 34.2971C30.6313 28.3394 35.7108 25.5113 41.5278 23.7166C47.3609 21.9188 53.4019 20.6427 59.3354 19.2024C65.7012 17.6544 72.4828 16.1146 79.0295 17.6472C84.7616 18.9884 89.5109 22.5459 93.7366 26.4637C98.2945 30.6971 102.641 35.2031 106.879 39.7471C115.578 49.0758 124.563 59.1425 130.874 70.2378C132.117 72.4293 135.185 77.0002 133.485 79.5318C132.009 81.719 127.347 83.3177 124.977 84.1512C120.061 85.8757 114.834 86.728 109.786 87.9889C102.693 89.7517 95.5873 91.5036 88.5913 93.608C83.0039 95.285 77.5339 96.4463 76.0987 102.787C75.1028 107.175 75.1081 114.312 78.0736 118C81.4654 122.217 86.4623 121.062 91.0602 119.948C91.1155 121.059 91.1618 122.175 91.185 123.291C91.2127 124.56 91.1993 125.839 91.1749 127.13C91.1749 127.13 91.1679 127.128 91.1608 127.127L91.1428 127.137ZM103.592 130.447C100.714 131.3 99.762 134.523 98.8915 137.025C98.6069 137.848 98.4321 138.798 97.8724 139.486C96.9476 140.623 96.8764 140.521 96.4931 139.359C95.8189 137.337 96.3529 134.144 96.3347 132.03C96.2602 123.051 96.4115 113.968 94.3765 105.153C94.317 104.897 94.2107 104.673 94.0736 104.478C97.7146 103.585 101.344 102.621 104.965 101.692C104.978 101.868 105.005 102.048 105.053 102.234C107.724 111.897 110.432 121.757 111.074 131.784C111.067 131.639 111.088 132.095 111.108 132.663C110.465 132.316 109.717 131.993 109.426 131.831C107.69 130.864 105.619 129.843 103.585 130.445L103.592 130.447ZM124.973 117.908C121.662 119.236 118.309 120.44 114.913 121.55C114.744 120.746 114.578 119.958 114.431 119.213C114.097 117.479 113.716 115.747 113.318 114.026C116.403 113.109 119.429 112.018 122.526 111.112C125.069 110.371 131.886 107.527 132.419 111.491C132.92 115.297 127.746 116.794 124.973 117.908Z" fill="white" stroke="white" stroke-width="2" mask="url(#path-1-inside-1_1_3383)"/>
<path d="M90.5565 83.8623C92.6994 83.8373 94.9805 82.8294 97.0163 82.22C99.4829 81.4801 101.934 80.7135 104.385 79.9468C104.471 79.9401 104.551 79.9244 104.642 79.8966C107.127 79.1466 109.589 78.3381 112.072 77.5951C113.412 77.1943 115.142 76.9292 116.086 75.7755C116.817 74.8786 116.858 73.7492 116.655 72.651C116.178 70.1278 115.57 71.6059 116.792 67.6162C117.039 66.8204 117.35 66.1246 117.431 65.2686C117.762 61.9822 115.599 59.3681 113.731 56.8718C110.722 52.842 107.581 48.9041 104.277 45.0941C101.65 42.0613 98.9203 38.5128 95.0751 36.9419C93.6927 36.3784 92.223 36.1363 90.7374 36.2876C87.7735 36.5921 84.7853 38.6908 83.2434 34.94C81.9488 31.7892 79.8561 29.6444 76.6157 28.3655C74.9399 27.7072 73.2058 27.4308 71.4304 27.2781C67.4463 26.945 64.6961 26.4073 61.0993 24.5663C59.9855 23.9933 58.6342 24.9089 58.9608 26.1682C59.5134 28.3294 59.5233 30.6132 58.0984 32.3866C57.5823 33.0266 56.9714 33.5958 56.4797 34.2575C55.5911 35.4565 54.9358 36.6364 54.8597 38.1464C54.6692 42.0339 60.6943 46.0434 58.294 48.9998C56.6349 51.0473 55.0464 52.1085 56.2714 55.0678C57.771 58.6945 61.6138 62.0355 64.1967 64.9214C67.1722 68.2367 70.256 71.4614 73.2315 74.7766C74.2711 75.9297 75.3105 77.1953 76.7806 77.8277C79.0305 78.8072 81.4118 78.2692 83.4741 79.9105C85.6925 81.6768 87.448 83.8874 90.5352 83.8566L90.5565 83.8623ZM77.0323 74.6096C75.7183 73.7946 74.6344 72.0217 73.575 70.8857C70.6421 67.7771 67.7617 64.6153 64.9371 61.4161C63.6068 59.9063 62.2892 58.3775 61.0204 56.8094C59.9518 55.4833 58.5418 53.6518 59.3942 51.7751C59.6031 51.3142 60.8494 50.8127 61.2234 50.4717C62.7341 49.0817 63.0204 47.5538 62.107 45.6847C61.2125 43.8583 59.5146 42.5262 58.5176 40.7694C56.7843 37.6943 59.1578 35.8712 60.7987 33.6387C62.1028 31.8623 62.4474 30.1477 62.2881 28.2736C64.7561 29.2899 67.1851 29.8904 70.0463 30.0757C75.1951 30.4028 78.61 31.7667 80.7625 36.5989C81.7687 38.8534 83.0489 40.3796 85.696 40.4016C87.1218 40.4142 88.443 39.6929 89.7994 39.4015C92.9656 38.7168 95.1637 39.9148 97.4289 41.9564C103.282 47.2399 108.792 54.3206 113.067 60.8782C114.543 63.1402 114.668 64.8325 113.734 67.3172C113.284 68.5231 112.902 69.5372 113.059 70.8628C113.206 72.081 113.696 72.2666 113.032 73.5043C112.323 74.8271 111.478 74.7473 110.051 75.1848C107.979 75.8145 105.925 76.4938 103.848 77.1145C103.749 77.1403 103.662 77.1839 103.583 77.2225C99.631 78.3914 95.2066 80.5723 91.1222 80.8873C87.5276 81.1628 85.7809 77.3263 82.7226 76.1045C80.8986 75.3759 78.7188 75.676 76.995 74.607L77.0323 74.6096Z" fill="white"/>
<path d="M71.7621 94.5835C65.0158 85.8458 57.9867 77.3089 51.5377 68.3444C45.278 59.6341 40.1455 50.2172 33.977 41.4791C33.3298 40.5603 32.0293 41.3171 32.4776 42.3244C36.935 52.323 43.7478 61.7391 50.0155 70.6992C56.2244 79.5684 62.7902 88.1594 70.4112 95.8894C71.2864 96.7802 72.466 95.5177 71.7532 94.5886L71.7621 94.5835Z" fill="white"/>
<path d="M74.6503 21.7462C76.8829 21.4754 78.542 21.9716 80.4684 23.0507C82.0339 23.9191 83.4416 24.8647 85.2218 25.2512C86.1464 25.4576 86.7855 24.3934 86.1398 23.6926C83.4319 20.7352 78.1096 18.53 74.2425 20.2547C73.5328 20.5719 73.8556 21.8452 74.6503 21.7462Z" fill="white"/>
<path d="M99.5678 107.158C99.2889 112.545 98.7687 119.126 100.397 124.349C100.67 125.218 102.115 125.356 102.31 124.359C103.389 118.882 102.152 112.415 101.277 106.94C101.116 105.936 99.6123 106.24 99.5678 107.158Z" fill="white"/>
<path d="M104.674 105.845C104.357 104.746 102.753 105.195 102.963 106.295C103.423 108.739 103.693 111.408 104.472 113.774C104.776 114.697 106.23 114.574 106.213 113.549C106.182 111.005 105.378 108.287 104.674 105.845Z" fill="white"/>
</g>
<defs>
<clipPath id="clip0_1_3383">
<rect width="131" height="124" fill="white" transform="translate(32.5391) rotate(15.2128)"/>
</clipPath>
</defs>
</svg>
