<svg width="148" height="132" viewBox="0 0 148 132" fill="none" xmlns="http://www.w3.org/2000/svg">
<path d="M80.7468 24.3945C78.5131 26.2432 79.3085 28.8242 80.8654 30.8688C88.107 39.7071 99.4758 44.4204 110.521 45.8276C116.666 46.524 122.755 46.3576 128.887 45.807C116.829 52.6141 104.626 59.3269 92.4731 66.2789C89.4401 60.7977 84.1229 56.9258 78.4857 54.4967C75.16 52.9522 71.6961 51.937 68.2323 50.9217C65.0583 50.095 61.79 49.4133 58.3835 49.2609C55.2669 49.2969 51.3888 49.8694 49.1619 52.3416C47.0293 54.6687 47.6866 57.779 49.4389 60.1571C51.481 62.7238 54.3789 64.609 57.0375 66.5449C59.8411 68.5751 62.9781 70.4096 66.1084 71.6206C69.9631 73.3028 74.1446 74.1658 78.4136 74.2604C76.7458 75.239 75.0781 76.2177 73.4104 77.1963C67.885 80.618 62.5045 84.1339 57.4137 87.8384C57.0802 88.0341 56.8916 88.3242 56.6523 88.3749C55.746 88.8171 54.6005 89.31 53.6942 89.7522C50.9752 91.0788 48.2563 92.4054 45.6385 94.2105C42.3157 88.5407 35.9035 85.401 29.6498 83.6026C23.5409 81.8985 16.7786 81.8328 10.66 83.6304C7.60072 84.5292 4.4471 85.573 1.97418 87.4724C-0.832284 89.5675 0.643873 93.0041 2.67918 94.9473C4.90992 97.2239 7.9896 98.1956 10.9244 99.0731C14.6274 100.038 18.3742 100.618 22.2154 101.053C26.4406 101.532 30.7602 101.866 35.1235 101.815C36.515 101.895 38.0009 101.83 39.4362 101.525C36.94 105.68 34.3494 109.979 31.8531 114.133C30.5325 116.163 29.2119 118.193 28.4204 120.36C27.5782 122.289 26.8878 124.935 27.6764 126.893C28.6167 129.568 31.9726 129.481 34.2199 128.88C36.4672 128.278 38.4179 126.864 40.2238 125.356C43.9803 122.435 47.7806 119.129 49.9871 114.786C52.3822 110.154 52.4659 104.637 50.3528 99.9601C58.3647 95.8861 66.3261 91.5728 74.2874 87.2595C74.1494 87.7887 73.7721 88.3687 73.634 88.898C72.044 92.6099 70.7438 96.5103 69.5886 100.505C67.4161 107.965 66.2579 116.085 67.6368 123.792C68.0987 126.569 68.9281 132.268 72.9005 131.55C74.72 131.289 75.9462 129.404 77.0849 128.288C78.4123 126.881 79.834 125.33 81.0165 123.829C85.8914 117.921 90.3753 111.345 91.729 103.559C93.177 95.6273 91.168 87.3041 86.7804 80.7352C94.981 76.3712 103.131 71.7679 111.281 67.1646C114.616 65.2073 118.097 63.3443 121.577 61.4812C113.923 71.9789 109.601 84.6445 109.505 97.7888C109.546 101.53 109.216 106.474 112.744 108.976C116.707 111.76 120.167 108.027 122.677 105.119C128.364 98.9138 132.645 91.3813 135.195 83.3411C138.021 74.2424 139.573 62.6641 133.824 54.3842C145.926 47.1929 157.782 39.4288 168.277 29.9536C172.788 25.8721 176.959 21.3629 180.695 16.5708C183.72 12.5545 187.072 7.71887 185.72 2.50598C185.468 1.3097 184.062 -0.017157 182.728 0.765765C177.486 3.75246 173.504 7.97174 169.087 11.9082C164.909 15.794 160.732 19.6798 156.409 23.4713C150.52 28.72 144.341 33.7801 138.017 38.7461C137.872 38.6518 137.728 38.5575 137.677 38.3183C128.39 31.0386 116.941 27.7173 105.737 24.9689C99.9184 23.4532 93.9544 21.8433 87.9166 22.249C85.7636 22.7056 82.6469 22.7416 80.7468 24.3945ZM84.7736 28.6651C83.8031 27.621 83.5133 27.4325 85.0936 27.2223L85.3327 27.1716C85.1003 27.8458 85.3026 28.8028 86.0776 29.5134C88.0624 31.2173 90.1414 32.7762 92.3148 34.1901C92.271 34.5743 92.4665 34.9079 92.8069 35.3357C90.9233 34.1103 88.8948 32.7906 87.2941 31.1303C86.2799 30.4704 85.5992 29.6149 84.7736 28.6651ZM73.5356 115.042C73.7816 115.614 74.3612 115.992 75.1294 116.079C74.6578 116.804 74.2805 117.384 73.6639 118.014C73.4617 117.057 73.4986 116.049 73.5356 115.042ZM12.2441 88.1691C13.2953 87.8211 14.3971 87.7124 15.4483 87.3645C15.5494 87.843 15.7448 88.1765 15.9403 88.5101C14.5488 88.4302 13.1572 88.3504 11.7656 88.2705C11.86 88.1255 12.0049 88.2198 12.2441 88.1691ZM11.4564 95.0856C11.6012 95.1798 11.6012 95.1798 11.4564 95.0856V95.0856ZM65.7905 60.0639C67.7616 60.5208 69.6384 61.1227 71.6601 61.8188C70.747 61.6375 69.5946 61.5069 68.6815 61.3256C67.4786 60.9558 66.515 60.5352 65.7905 60.0639ZM92.8815 72.9418C88.3062 75.537 83.6803 77.893 79.105 80.4882C76.8645 81.7134 74.624 82.9385 72.3835 84.1636C78.8084 79.6762 85.8702 76.4286 92.8815 72.9418ZM127.02 41.7034C126.397 41.7106 125.918 41.812 125.295 41.8193C125.288 41.1958 125.136 40.478 124.651 39.956C126.238 40.3693 127.731 40.9277 129.318 41.341C128.6 41.4932 127.883 41.6454 127.02 41.7034ZM94.1109 36.184C95.3643 36.7931 96.5673 37.1629 97.9151 37.627C99.893 38.7074 101.915 39.4035 104.081 40.1939C100.617 39.1787 97.1031 37.9242 94.1109 36.184ZM104.755 40.4259C105.668 40.6073 106.335 40.2158 106.858 39.7301C107.771 39.9114 108.778 39.9477 109.546 40.0348C111.713 40.8252 113.974 41.4706 116.235 42.1159C114.843 42.0361 113.307 41.862 111.915 41.7822C109.466 41.4267 107.11 40.9264 104.755 40.4259ZM75.3087 57.7953C77.7651 58.7742 80.4169 60.0866 82.4959 61.6455C74.2069 57.9039 65.6417 55.2208 56.706 53.7413C57.5686 53.6833 58.4311 53.6254 59.0544 53.6182C64.5701 53.6983 70.2511 55.7432 75.3087 57.7953ZM52.3631 55.6623C52.4574 55.5173 52.5517 55.3723 52.7404 55.0823C52.6529 55.8508 52.8046 56.5686 53.4347 57.1849C55.7092 59.0773 58.0275 60.5854 60.585 62.0428C60.3964 62.3328 60.2583 62.8621 60.3594 63.3406C59.0554 62.4923 57.7008 61.4047 56.3967 60.5563C55.2376 59.8022 51.7602 57.54 52.3631 55.6623ZM27.98 97.5807C28.9875 97.617 30.2341 97.6025 31.3358 97.4939C32.9666 97.523 34.3582 97.6028 35.989 97.6319C36.9964 97.6682 37.5186 97.1825 37.9903 96.4575C39.0483 96.7331 40.3455 96.9579 41.4035 97.2335C39.7795 97.8279 37.9095 97.8495 36.1844 97.9654C33.4519 98.045 30.6688 97.8853 27.98 97.5807ZM32.3597 125.399C32.3597 125.399 32.2148 125.305 32.1205 125.45C32.2585 124.921 32.2955 123.913 32.3393 123.529C32.666 122.71 32.9928 121.89 33.3195 121.071C33.6968 120.491 34.0235 119.672 34.4009 119.092C34.6906 119.281 34.8355 119.375 35.1253 119.563C34.6537 120.288 34.2764 120.868 33.8047 121.593C33.1445 122.608 33.3535 124.189 34.3677 124.849C34.0342 125.044 33.795 125.095 33.4615 125.291C32.983 125.392 32.7438 125.443 32.3597 125.399ZM43.0196 117.889C43.3969 117.309 43.8685 116.584 44.3907 116.098C45.051 115.083 45.8562 114.163 46.4222 113.293C45.5294 114.982 44.3469 116.483 43.0196 117.889ZM81.0428 117.449C79.1057 120.11 77.118 122.531 74.8911 125.003C74.3689 125.489 73.8973 126.214 73.3751 126.7C73.2807 126.845 73.1864 126.99 72.9472 127.041C72.7012 126.468 72.5495 125.75 72.354 125.416C72.3035 125.177 72.2529 124.938 72.2024 124.699C72.8763 124.931 73.8331 124.728 74.544 123.952C77.5255 120.32 80.3115 116.354 82.6629 112.106C82.9459 111.671 83.1783 110.997 83.4613 110.562C83.5556 110.417 83.5556 110.417 83.65 110.272C84.7313 108.293 85.6172 105.98 86.0247 103.769C86.897 100.209 87.3346 96.3664 87.0545 92.6761C87.0983 92.2918 87.1421 91.9076 87.1858 91.5234C87.8869 94.2494 88.3488 97.0262 88.1874 99.8103C87.6827 106.292 84.917 112.128 81.0428 117.449ZM131.885 70.0442C132.003 67.6445 131.736 65.2012 130.513 62.9608C130.934 61.9966 131.5 61.1266 132.066 60.2566C133.397 63.599 133.822 67.3836 133.479 71.0811C133.088 70.4141 132.508 70.037 131.885 70.0442ZM113.993 95.9621C114.302 89.1471 115.764 82.4626 118.334 76.2929C120.062 72.0517 122.319 67.9483 125.156 64.222C122.811 69.0939 120.706 73.915 118.89 78.9247C117.031 84.3187 115.512 90.1404 115.957 95.7955C115.863 95.9405 115.914 96.1797 115.819 96.3247C114.984 98.8767 114.293 101.523 114.61 104.205C113.532 102.059 113.912 97.3541 113.993 95.9621ZM125.678 94.4838C127.042 92.0696 128.262 89.5612 129.481 87.0528C129.764 86.6178 129.902 86.0885 130.185 85.6535C128.828 88.6912 127.325 91.6346 125.678 94.4838ZM139.774 45.873C132.153 50.614 124.481 55.1158 116.809 59.6177C122.668 56.0002 128.332 52.0493 133.945 47.8591C142.095 43.2558 150.194 38.4133 157.664 32.9545C160.804 30.6637 163.799 28.2786 166.888 25.7485C166.46 26.0892 165.938 26.575 165.655 27.01C157.677 34.2015 148.729 40.349 139.774 45.873ZM118.538 33.503C115.604 32.6256 112.814 31.8424 109.879 30.9649C108.821 30.6894 107.763 30.4138 106.654 29.899C110.647 31.052 114.589 31.9657 118.538 33.503Z" fill="white"/>
</svg>
