<svg width="81" height="257" viewBox="0 0 81 257" fill="none" xmlns="http://www.w3.org/2000/svg">
<mask id="path-1-inside-1_1_810" fill="white">
<path d="M4.06461 254.99C21.3526 236.484 46.1704 227.34 66.6175 212.678C75.5059 206.305 84.6409 196.376 79.508 187.046C77.383 183.188 72.7142 181.452 67.6607 182.129C62.6595 182.803 57.9306 185.502 53.4842 188.046C41.5648 194.869 29.7254 201.838 17.9733 208.949C12.5747 212.214 7.2723 215.748 1.76014 218.805C-0.835147 220.244 -5.13695 222.578 -7.87728 221.626C-11.6961 220.304 -8.14444 214.967 -5.94751 212.926C-1.5041 208.788 4.60754 205.824 9.79535 202.654C21.1957 195.695 32.6728 188.845 43.9955 181.767C52.4644 176.473 62.5704 167.881 59.8319 158.467C56.7612 147.896 42.387 152.134 33.2352 156.003C21.4954 160.965 10.609 167.741 -0.551195 173.927C-6.02563 176.965 -11.5801 179.856 -17.3617 182.178C-19.6701 183.103 -22.0942 184.12 -24.4963 184.59C-25.9062 184.867 -29.1568 185.461 -30.1474 184.395C-33.1714 181.138 -10.9756 168.818 -8.47475 167.304C3.09118 160.312 14.9359 153.687 25.8872 145.756C33.2749 140.406 44.6192 131.089 38.9973 122.836C36.3579 118.961 30.7466 117.906 25.494 119.159C19.6121 120.559 14.2473 124.366 9.04478 127.497C-2.65946 134.535 -14.3637 141.572 -26.0679 148.61C-30.8879 151.511 -35.8901 155.096 -41.2523 156.769C-44.6736 157.834 -49.7567 157.8 -47.5461 153.364C-46.4422 151.151 -44.0544 149.326 -42.0337 147.779C-39.2156 145.626 -36.3029 143.571 -33.4153 141.508C-27.8817 137.553 -22.2829 133.681 -16.6239 129.899C-10.9648 126.117 -5.24203 122.423 0.537415 118.821C5.42177 115.778 10.5 112.963 14.9327 109.287C18.8589 106.03 22.0981 101.54 22.456 96.9768C22.8711 91.6698 17.9574 89.2234 12.546 90.0902C6.72112 91.0246 0.589484 93.541 -5.03503 95.6878C-11.1305 98.0158 -17.125 100.668 -23.0221 103.559C-28.8636 106.421 -34.5808 109.574 -40.1289 112.994C-44.6445 115.777 -49.0294 118.773 -53.7006 121.294C-57.5151 123.354 -61.9135 125.307 -66.0955 125.346C-67.053 125.356 -68.1181 125.271 -69.0006 125.044C-69.6 124.888 -69.8618 124.652 -69.9864 124.64C-69.5134 123.617 -67.7164 122.383 -66.9371 121.827C-56.1571 114.167 -43.8003 108.29 -32.3885 101.637C-26.5791 98.2514 -20.8353 94.7353 -15.3054 90.9101C-10.2274 87.401 -4.66975 83.6371 -0.68147 79.0206C3.0465 74.7055 5.3525 69.6186 4.47808 64.6814C3.68971 60.2198 -0.051571 57.0449 -5.02393 56.6252C-15.4475 55.7467 -26.9707 64.5958 -35.3324 70.6314C-46.0459 78.3678 -56.1577 86.9582 -67.5995 93.6982C-71.7066 96.1181 -77.3872 99.4341 -81.7882 97.8081C-85.8331 96.3161 -83.7147 92.2638 -80.6393 89.7965C-75.8171 85.9258 -69.46 83.3543 -64.1019 80.2703C-58.2395 76.8918 -52.4724 73.3419 -46.8193 69.6221C-41.1661 65.9023 -35.626 62.0219 -30.2141 57.9805C-25.7146 54.6207 -20.7385 51.2964 -17.4668 46.8354C-14.4549 42.7245 -13.6925 37.6888 -16.8589 34.4305C-20.2513 30.9391 -26.2115 31.0222 -31.4975 32.1496C-43.3726 34.6798 -54.4136 42.7198 -64.8478 48.9889L-82.4402 59.5628C-87.2054 62.4252 -92.0482 65.9271 -97.1619 68.0934C-99.5887 69.1213 -103.915 70.5456 -103.421 66.995C-102.766 62.2943 -95.5077 58.9111 -91.6125 56.4646C-80.1153 49.2407 -68.7336 41.8283 -57.486 34.229C-52.2743 30.7066 -46.855 27.2915 -41.9525 23.3765C-38.3439 20.4943 -34.9024 16.8928 -33.6249 12.7691C-32.1242 7.91659 -34.2088 3.48655 -38.5159 1.43132C-43.2016 -0.802683 -49.2437 0.21599 -54.5522 2.51144C-66.9917 7.88705 -79.1376 15.0342 -90.7196 22.1439C-101.996 29.0661 -112.901 36.5534 -123.424 44.5204C-125.663 46.2152 -126.943 48.7463 -125.638 50.8759C-124.546 52.657 -121.22 53.4943 -118.97 51.7872C-108.278 43.6877 -97.1859 36.0906 -85.7175 29.0751C-79.8933 25.5145 -73.9797 22.0998 -67.9889 18.8431C-62.5252 15.8753 -56.8458 12.5015 -51.0557 10.3216C-48.605 9.39642 -41.3406 8.07362 -43.4017 12.443C-45.0435 15.9243 -49.8419 18.6848 -53.0095 20.8662C-63.8372 28.3205 -74.7903 35.6023 -85.8617 42.7071C-91.4247 46.2787 -97.2297 49.6073 -102.646 53.387C-107.493 56.7695 -111.769 60.941 -113.012 66.2859C-114.101 70.9643 -112.528 75.5172 -108.152 77.4523C-104.487 79.0746 -99.7562 78.3509 -95.6138 76.7066C-90.3763 74.6307 -85.5675 71.3845 -80.7347 68.4807C-74.8702 64.9541 -69.007 61.4333 -63.1424 57.9067C-57.6085 54.5828 -52.0928 51.2212 -46.5406 47.9351C-41.7914 45.1265 -36.8134 42.2999 -31.4937 41.0443C-29.7547 40.6336 -26.6183 39.9094 -25.1614 40.826C-24.3656 41.3262 -24.9004 42.1773 -25.8044 43.3038C-29.0762 47.3735 -34.495 50.6219 -38.7618 53.707C-49.539 61.507 -60.8042 68.6866 -72.43 75.1823C-81.6882 80.3539 -95.3376 86.8038 -93.9893 98.0193C-93.4116 102.816 -89.3668 105.951 -84.4588 106.968C-79.3602 108.024 -73.7448 106.357 -68.7014 103.941C-57.1552 98.4085 -47.0049 89.9607 -36.8669 82.3227C-31.5965 78.3534 -26.2556 74.4435 -20.6244 70.9671C-17.1077 68.7967 -12.4595 65.6636 -8.30758 65.6226C-4.10699 65.5813 -5.02048 70.1471 -6.90403 72.8033C-10.1821 77.4295 -16.0709 81.1079 -20.8155 84.3392C-31.7853 91.8171 -43.5016 98.1091 -55.0158 104.683C-60.6274 107.888 -66.4495 111.061 -71.7415 114.78C-75.5494 117.456 -79.445 121.219 -79.9655 125.524C-81.2536 136.189 -65.3439 135.27 -57.2751 132.275C-47.1189 128.504 -38.2684 121.519 -28.8491 116.219C-17.704 109.945 -6.00229 104.826 6.00199 100.91C7.53132 100.413 9.06501 99.9227 10.6041 99.4733C10.6426 99.4643 11.4086 99.3176 12.0839 99.1824C11.6469 99.9297 11.3566 100.685 10.7185 101.423C7.62996 104.994 2.78879 107.39 -1.22203 109.863C-12.8136 117.013 -24.1829 124.525 -35.29 132.385C-43.8624 138.452 -57.9335 146.217 -58.0324 156.867C-58.0794 161.929 -54.5243 165.526 -49.2647 166.303C-44.0143 167.08 -38.4607 165.217 -33.4104 162.708C-28.0368 160.04 -22.9361 156.664 -17.7905 153.568C-11.9366 150.048 -6.08624 146.53 -0.23234 143.01C5.43669 139.603 11.1071 136.191 16.7761 132.784C19.7706 130.983 26.6051 125.815 29.8389 128.122C34.3415 131.334 12.7303 144.44 10.4043 145.92C-0.84251 153.073 -12.5492 159.477 -23.7097 166.764C-31.3902 171.78 -44.4147 180.326 -39.365 189.322C-34.6144 197.782 -20.6362 192.969 -12.1886 189.268C-0.684247 184.226 10.0187 177.557 21.0284 171.493C26.3366 168.567 31.7234 165.793 37.3278 163.565C40.187 162.429 47.0119 159.184 49.5679 161.208C52.4172 163.462 47.7506 168.352 45.5879 170.226C41.6823 173.613 36.8111 176.159 32.3983 178.854C21.0229 185.798 9.64883 192.736 -1.72442 199.684C-10.8557 205.262 -22.3899 213.942 -18.8464 224.222C-15.7244 233.265 -4.22656 231.372 4.3275 227.062C9.6117 224.4 14.5967 220.963 19.6524 217.888C25.3396 214.431 31.0449 211.012 36.7735 207.622C42.6855 204.125 48.6172 200.66 54.5693 197.237C58.3192 195.08 63.0661 191.573 67.3991 191.094C71.3521 190.656 71.5716 194.708 70.1265 197.521C67.8514 201.949 62.4193 205.303 58.2222 208.111C47.9226 215.006 36.9227 220.752 26.3216 227.148C15.8343 233.474 5.65538 240.574 -2.61448 249.425C-7.06667 254.218 -0.449386 259.826 4.06461 254.99Z"/>
</mask>
<path d="M4.06461 254.99C21.3526 236.484 46.1704 227.34 66.6175 212.678C75.5059 206.305 84.6409 196.376 79.508 187.046C77.383 183.188 72.7142 181.452 67.6607 182.129C62.6595 182.803 57.9306 185.502 53.4842 188.046C41.5648 194.869 29.7254 201.838 17.9733 208.949C12.5747 212.214 7.2723 215.748 1.76014 218.805C-0.835147 220.244 -5.13695 222.578 -7.87728 221.626C-11.6961 220.304 -8.14444 214.967 -5.94751 212.926C-1.5041 208.788 4.60754 205.824 9.79535 202.654C21.1957 195.695 32.6728 188.845 43.9955 181.767C52.4644 176.473 62.5704 167.881 59.8319 158.467C56.7612 147.896 42.387 152.134 33.2352 156.003C21.4954 160.965 10.609 167.741 -0.551195 173.927C-6.02563 176.965 -11.5801 179.856 -17.3617 182.178C-19.6701 183.103 -22.0942 184.12 -24.4963 184.59C-25.9062 184.867 -29.1568 185.461 -30.1474 184.395C-33.1714 181.138 -10.9756 168.818 -8.47475 167.304C3.09118 160.312 14.9359 153.687 25.8872 145.756C33.2749 140.406 44.6192 131.089 38.9973 122.836C36.3579 118.961 30.7466 117.906 25.494 119.159C19.6121 120.559 14.2473 124.366 9.04478 127.497C-2.65946 134.535 -14.3637 141.572 -26.0679 148.61C-30.8879 151.511 -35.8901 155.096 -41.2523 156.769C-44.6736 157.834 -49.7567 157.8 -47.5461 153.364C-46.4422 151.151 -44.0544 149.326 -42.0337 147.779C-39.2156 145.626 -36.3029 143.571 -33.4153 141.508C-27.8817 137.553 -22.2829 133.681 -16.6239 129.899C-10.9648 126.117 -5.24203 122.423 0.537415 118.821C5.42177 115.778 10.5 112.963 14.9327 109.287C18.8589 106.03 22.0981 101.54 22.456 96.9768C22.8711 91.6698 17.9574 89.2234 12.546 90.0902C6.72112 91.0246 0.589484 93.541 -5.03503 95.6878C-11.1305 98.0158 -17.125 100.668 -23.0221 103.559C-28.8636 106.421 -34.5808 109.574 -40.1289 112.994C-44.6445 115.777 -49.0294 118.773 -53.7006 121.294C-57.5151 123.354 -61.9135 125.307 -66.0955 125.346C-67.053 125.356 -68.1181 125.271 -69.0006 125.044C-69.6 124.888 -69.8618 124.652 -69.9864 124.64C-69.5134 123.617 -67.7164 122.383 -66.9371 121.827C-56.1571 114.167 -43.8003 108.29 -32.3885 101.637C-26.5791 98.2514 -20.8353 94.7353 -15.3054 90.9101C-10.2274 87.401 -4.66975 83.6371 -0.68147 79.0206C3.0465 74.7055 5.3525 69.6186 4.47808 64.6814C3.68971 60.2198 -0.051571 57.0449 -5.02393 56.6252C-15.4475 55.7467 -26.9707 64.5958 -35.3324 70.6314C-46.0459 78.3678 -56.1577 86.9582 -67.5995 93.6982C-71.7066 96.1181 -77.3872 99.4341 -81.7882 97.8081C-85.8331 96.3161 -83.7147 92.2638 -80.6393 89.7965C-75.8171 85.9258 -69.46 83.3543 -64.1019 80.2703C-58.2395 76.8918 -52.4724 73.3419 -46.8193 69.6221C-41.1661 65.9023 -35.626 62.0219 -30.2141 57.9805C-25.7146 54.6207 -20.7385 51.2964 -17.4668 46.8354C-14.4549 42.7245 -13.6925 37.6888 -16.8589 34.4305C-20.2513 30.9391 -26.2115 31.0222 -31.4975 32.1496C-43.3726 34.6798 -54.4136 42.7198 -64.8478 48.9889L-82.4402 59.5628C-87.2054 62.4252 -92.0482 65.9271 -97.1619 68.0934C-99.5887 69.1213 -103.915 70.5456 -103.421 66.995C-102.766 62.2943 -95.5077 58.9111 -91.6125 56.4646C-80.1153 49.2407 -68.7336 41.8283 -57.486 34.229C-52.2743 30.7066 -46.855 27.2915 -41.9525 23.3765C-38.3439 20.4943 -34.9024 16.8928 -33.6249 12.7691C-32.1242 7.91659 -34.2088 3.48655 -38.5159 1.43132C-43.2016 -0.802683 -49.2437 0.21599 -54.5522 2.51144C-66.9917 7.88705 -79.1376 15.0342 -90.7196 22.1439C-101.996 29.0661 -112.901 36.5534 -123.424 44.5204C-125.663 46.2152 -126.943 48.7463 -125.638 50.8759C-124.546 52.657 -121.22 53.4943 -118.97 51.7872C-108.278 43.6877 -97.1859 36.0906 -85.7175 29.0751C-79.8933 25.5145 -73.9797 22.0998 -67.9889 18.8431C-62.5252 15.8753 -56.8458 12.5015 -51.0557 10.3216C-48.605 9.39642 -41.3406 8.07362 -43.4017 12.443C-45.0435 15.9243 -49.8419 18.6848 -53.0095 20.8662C-63.8372 28.3205 -74.7903 35.6023 -85.8617 42.7071C-91.4247 46.2787 -97.2297 49.6073 -102.646 53.387C-107.493 56.7695 -111.769 60.941 -113.012 66.2859C-114.101 70.9643 -112.528 75.5172 -108.152 77.4523C-104.487 79.0746 -99.7562 78.3509 -95.6138 76.7066C-90.3763 74.6307 -85.5675 71.3845 -80.7347 68.4807C-74.8702 64.9541 -69.007 61.4333 -63.1424 57.9067C-57.6085 54.5828 -52.0928 51.2212 -46.5406 47.9351C-41.7914 45.1265 -36.8134 42.2999 -31.4937 41.0443C-29.7547 40.6336 -26.6183 39.9094 -25.1614 40.826C-24.3656 41.3262 -24.9004 42.1773 -25.8044 43.3038C-29.0762 47.3735 -34.495 50.6219 -38.7618 53.707C-49.539 61.507 -60.8042 68.6866 -72.43 75.1823C-81.6882 80.3539 -95.3376 86.8038 -93.9893 98.0193C-93.4116 102.816 -89.3668 105.951 -84.4588 106.968C-79.3602 108.024 -73.7448 106.357 -68.7014 103.941C-57.1552 98.4085 -47.0049 89.9607 -36.8669 82.3227C-31.5965 78.3534 -26.2556 74.4435 -20.6244 70.9671C-17.1077 68.7967 -12.4595 65.6636 -8.30758 65.6226C-4.10699 65.5813 -5.02048 70.1471 -6.90403 72.8033C-10.1821 77.4295 -16.0709 81.1079 -20.8155 84.3392C-31.7853 91.8171 -43.5016 98.1091 -55.0158 104.683C-60.6274 107.888 -66.4495 111.061 -71.7415 114.78C-75.5494 117.456 -79.445 121.219 -79.9655 125.524C-81.2536 136.189 -65.3439 135.27 -57.2751 132.275C-47.1189 128.504 -38.2684 121.519 -28.8491 116.219C-17.704 109.945 -6.00229 104.826 6.00199 100.91C7.53132 100.413 9.06501 99.9227 10.6041 99.4733C10.6426 99.4643 11.4086 99.3176 12.0839 99.1824C11.6469 99.9297 11.3566 100.685 10.7185 101.423C7.62996 104.994 2.78879 107.39 -1.22203 109.863C-12.8136 117.013 -24.1829 124.525 -35.29 132.385C-43.8624 138.452 -57.9335 146.217 -58.0324 156.867C-58.0794 161.929 -54.5243 165.526 -49.2647 166.303C-44.0143 167.08 -38.4607 165.217 -33.4104 162.708C-28.0368 160.04 -22.9361 156.664 -17.7905 153.568C-11.9366 150.048 -6.08624 146.53 -0.23234 143.01C5.43669 139.603 11.1071 136.191 16.7761 132.784C19.7706 130.983 26.6051 125.815 29.8389 128.122C34.3415 131.334 12.7303 144.44 10.4043 145.92C-0.84251 153.073 -12.5492 159.477 -23.7097 166.764C-31.3902 171.78 -44.4147 180.326 -39.365 189.322C-34.6144 197.782 -20.6362 192.969 -12.1886 189.268C-0.684247 184.226 10.0187 177.557 21.0284 171.493C26.3366 168.567 31.7234 165.793 37.3278 163.565C40.187 162.429 47.0119 159.184 49.5679 161.208C52.4172 163.462 47.7506 168.352 45.5879 170.226C41.6823 173.613 36.8111 176.159 32.3983 178.854C21.0229 185.798 9.64883 192.736 -1.72442 199.684C-10.8557 205.262 -22.3899 213.942 -18.8464 224.222C-15.7244 233.265 -4.22656 231.372 4.3275 227.062C9.6117 224.4 14.5967 220.963 19.6524 217.888C25.3396 214.431 31.0449 211.012 36.7735 207.622C42.6855 204.125 48.6172 200.66 54.5693 197.237C58.3192 195.08 63.0661 191.573 67.3991 191.094C71.3521 190.656 71.5716 194.708 70.1265 197.521C67.8514 201.949 62.4193 205.303 58.2222 208.111C47.9226 215.006 36.9227 220.752 26.3216 227.148C15.8343 233.474 5.65538 240.574 -2.61448 249.425C-7.06667 254.218 -0.449386 259.826 4.06461 254.99Z" fill="white" stroke="#AAD742" stroke-width="2" mask="url(#path-1-inside-1_1_810)"/>
</svg>
