<svg width="121" height="121" viewBox="0 0 121 121" fill="none" xmlns="http://www.w3.org/2000/svg">
<path d="M109.203 11.7975C107.601 10.1838 105.694 8.90427 103.594 8.03305C101.494 7.16182 99.2418 6.71626 96.9681 6.72223H24.032C19.4439 6.73111 15.0462 8.55766 11.8019 11.8019C8.55766 15.0462 6.73111 19.4439 6.72223 24.0319V82.3808C6.73111 86.9689 8.55766 91.3666 11.8019 94.6108C15.0462 97.8551 19.4439 99.6817 24.032 99.6906H57.6431V108.799H45.9128C45.1863 108.799 44.4895 109.088 43.9758 109.601C43.4621 110.115 43.1735 110.812 43.1735 111.538C43.1735 112.265 43.4621 112.962 43.9758 113.475C44.4895 113.989 45.1863 114.278 45.9128 114.278H75.0872C75.8137 114.278 76.5105 113.989 77.0242 113.475C77.5379 112.962 77.8265 112.265 77.8265 111.538C77.8265 110.812 77.5379 110.115 77.0242 109.601C76.5105 109.088 75.8137 108.799 75.0872 108.799H63.2225V96.9681C63.2407 96.5994 63.1838 96.2309 63.0552 95.8849C62.9265 95.5389 62.7289 95.2227 62.4742 94.9555C62.2196 94.6882 61.9133 94.4756 61.5739 94.3304C61.2345 94.1853 60.8691 94.1107 60.5 94.1111H24.032C20.8852 94.1111 17.8674 92.8611 15.6423 90.636C13.4173 88.411 12.1672 85.3931 12.1672 82.2464V24.0319C12.1761 20.8911 13.4301 17.8818 15.6542 15.664C17.8783 13.4462 20.891 12.2008 24.032 12.2008H47.0556C46.9185 12.6105 46.8796 13.0466 46.9421 13.474C47.0046 13.9015 47.1667 14.3082 47.4153 14.6615C47.6639 15.0148 47.992 15.3046 48.3733 15.5078C48.7545 15.7109 49.1781 15.8216 49.61 15.8308H71.4908C71.914 15.8064 72.3259 15.6847 72.6944 15.4752C73.0629 15.2656 73.3781 14.9739 73.6155 14.6227C73.8529 14.2715 74.0061 13.8703 74.0631 13.4502C74.1202 13.0302 74.0796 12.6026 73.9445 12.2008H96.9008C100.048 12.2008 103.065 13.4509 105.29 15.6759C107.516 17.901 108.766 20.9188 108.766 24.0656V82.3808C108.73 85.4926 107.474 88.466 105.267 90.6601C103.06 92.8543 100.08 94.0937 96.9681 94.1111H75.0872C74.3607 94.1111 73.664 94.3997 73.1502 94.9134C72.6365 95.4272 72.3479 96.1239 72.3479 96.8504C72.3479 97.5769 72.6365 98.2737 73.1502 98.7874C73.664 99.3011 74.3607 99.5897 75.0872 99.5897H96.9681C101.541 99.5898 105.929 97.78 109.172 94.5555C112.416 91.3311 114.251 86.9542 114.278 82.3808V24.0319C114.284 21.7582 113.838 19.506 112.967 17.4058C112.096 15.3056 110.816 13.3993 109.203 11.7975Z" fill="white"/>
<path d="M74.9864 43.0894C74.9864 40.2243 74.1368 37.4235 72.545 35.0412C70.9532 32.6589 68.6908 30.8022 66.0437 29.7057C63.3967 28.6093 60.4839 28.3224 57.6739 28.8814C54.8638 29.4403 52.2825 30.82 50.2566 32.846C48.2306 34.872 46.8509 37.4532 46.292 40.2633C45.733 43.0734 46.0199 45.9861 47.1163 48.6331C48.2128 51.2802 50.0695 53.5426 52.4518 55.1344C54.8341 56.7262 57.6349 57.5758 60.5 57.5758C64.3393 57.5669 68.0188 56.0378 70.7336 53.323C73.4484 50.6082 74.9775 46.9287 74.9864 43.0894ZM51.4586 43.0894C51.4586 41.3093 51.9861 39.5691 52.9744 38.0885C53.9627 36.6079 55.3676 35.4533 57.0116 34.7706C58.6555 34.0878 60.465 33.9075 62.2114 34.2523C63.9578 34.5972 65.5629 35.4518 66.824 36.7082C68.0851 37.9646 68.9456 39.5665 69.297 41.3116C69.6483 43.0567 69.4747 44.8668 68.7981 46.5133C68.1215 48.1599 66.9722 49.569 65.4953 50.5628C64.0184 51.5566 62.2801 52.0906 60.5 52.0972C58.1137 52.0883 55.8277 51.1365 54.1403 49.4491C52.453 47.7617 51.5011 45.4757 51.4922 43.0894H51.4586Z" fill="white"/>
<path d="M50.4166 82.3807C50.4166 83.1028 50.7035 83.7953 51.2141 84.3058C51.7246 84.8164 52.4171 85.1032 53.1392 85.1032H80.6667C81.0434 85.0996 81.4153 85.0189 81.7596 84.8659C82.1039 84.7129 82.4131 84.491 82.6683 84.2138C82.9234 83.9366 83.119 83.61 83.243 83.2543C83.367 82.8986 83.4167 82.5212 83.3891 82.1454L83.1203 77.3054C82.7509 72.9719 80.7729 68.9336 77.5756 65.9851C74.3784 63.0367 70.1934 61.3916 65.8442 61.3738H55.1558C50.8066 61.3916 46.6216 63.0367 43.4243 65.9851C40.2271 68.9336 38.2491 72.9719 37.8797 77.3054L37.51 82.0446C37.4778 82.405 37.5178 82.7682 37.6277 83.113C37.7375 83.4577 37.9149 83.7772 38.1497 84.0525C38.3844 84.3279 38.6716 84.5538 38.9946 84.7169C39.3176 84.88 39.6699 84.977 40.0308 85.0024C40.7548 85.0493 41.4687 84.8124 42.0209 84.3417C42.5731 83.8711 42.9202 83.2039 42.9886 82.4816L43.3583 77.7424C43.6175 74.7848 44.97 72.0301 47.1515 70.0164C49.3331 68.0026 52.187 66.8745 55.1558 66.8524H65.8778C68.8488 66.8669 71.707 67.9924 73.8901 70.0076C76.0733 72.0229 77.4235 74.782 77.6753 77.7424V79.5238H53.2064C52.8316 79.5141 52.4589 79.5818 52.1116 79.7229C51.7643 79.8639 51.4498 80.0751 51.1879 80.3433C50.926 80.6115 50.7223 80.9309 50.5896 81.2815C50.4569 81.6321 50.398 82.0063 50.4166 82.3807Z" fill="white"/>
</svg>
