<svg width="57" height="55" viewBox="0 0 57 55" fill="none" xmlns="http://www.w3.org/2000/svg">
<path d="M26.0609 2.78116C26.959 0.0172285 30.8692 0.0172218 31.7672 2.78115L36.3037 16.7431C36.7054 17.9791 37.8572 18.816 39.1569 18.816L53.8373 18.816C56.7435 18.816 57.9518 22.5349 55.6007 24.2431L43.724 32.872C42.6725 33.6359 42.2325 34.99 42.6342 36.2261L47.1707 50.188C48.0687 52.9519 44.9053 55.2503 42.5541 53.5421L30.6774 44.9132C29.626 44.1492 28.2022 44.1492 27.1507 44.9132L15.274 53.5421C12.9229 55.2503 9.75942 52.9519 10.6575 50.188L15.194 36.2261C15.5956 34.99 15.1556 33.6359 14.1042 32.872L2.22746 24.2431C-0.123682 22.5349 1.08464 18.816 3.99081 18.816L18.6712 18.816C19.9709 18.816 21.1228 17.9791 21.5244 16.7431L26.0609 2.78116Z" fill="#4259CC"/>
</svg>
