<svg width="214" height="213" viewBox="0 0 214 213" fill="none" xmlns="http://www.w3.org/2000/svg">
<g clip-path="url(#clip0_1_3439)">
<path d="M126.495 190.254C126.188 190.333 125.865 190.31 125.572 190.188C125.28 190.067 125.036 189.854 124.875 189.581C124.715 189.308 124.648 188.991 124.684 188.677C124.72 188.362 124.857 188.068 125.075 187.839L139.119 173.017L120.494 191.162C120.217 191.397 119.862 191.519 119.499 191.506C119.136 191.493 118.791 191.344 118.532 191.09C118.272 190.835 118.118 190.493 118.097 190.13C118.077 189.768 118.193 189.411 118.423 189.129L151.4 153.552L111.93 191.982C111.657 192.255 111.286 192.409 110.9 192.409C110.513 192.41 110.142 192.257 109.869 191.984C109.595 191.711 109.441 191.34 109.441 190.953C109.44 190.567 109.594 190.196 109.867 189.922L120.45 178.996L107.027 192.075C106.757 192.351 106.387 192.508 106.001 192.512C105.614 192.515 105.242 192.365 104.966 192.094C104.69 191.823 104.533 191.454 104.53 191.067C104.526 190.68 104.677 190.308 104.948 190.033L143.718 148.875L99.7826 191.685C99.5106 191.96 99.1407 192.115 98.754 192.117C98.3673 192.119 97.9957 191.968 97.7208 191.696C97.4459 191.424 97.2904 191.054 97.2883 190.667C97.2862 190.28 97.4378 189.909 97.7097 189.634L134.643 150.913L93.6615 190.84C93.386 191.098 93.0214 191.239 92.6442 191.233C92.267 191.228 91.9066 191.076 91.6389 190.81C91.3712 190.544 91.217 190.185 91.2086 189.808C91.2003 189.431 91.3385 189.065 91.5943 188.788L125.202 153.883L88.3927 189.752C88.1167 190.011 87.7507 190.152 87.3722 190.146C86.9937 190.14 86.6324 189.987 86.3647 189.72C86.097 189.452 85.944 189.091 85.938 188.712C85.932 188.334 86.0735 187.968 86.3325 187.692L105.328 168.247L84.354 188.676C84.0754 188.916 83.7163 189.042 83.3486 189.028C82.981 189.015 82.6321 188.863 82.3719 188.603C82.1117 188.343 81.9594 187.994 81.9458 187.626C81.9321 187.259 82.058 186.899 82.2981 186.621L121.649 145.791L79.3207 187.034C79.0438 187.291 78.6782 187.43 78.3009 187.422C77.9237 187.414 77.5641 187.261 77.2978 186.993C77.0316 186.726 76.8794 186.365 76.8734 185.988C76.8673 185.611 77.0079 185.246 77.2655 184.97L88.5538 173.495L75.9825 185.744C75.7106 186.019 75.3406 186.175 74.9539 186.177C74.5673 186.179 74.1956 186.027 73.9207 185.755C73.6459 185.483 73.4903 185.113 73.4882 184.727C73.4861 184.34 73.6377 183.968 73.9097 183.693L126.017 129.157L70.526 183.254C70.252 183.527 69.8807 183.68 69.4939 183.679C69.1071 183.679 68.7364 183.524 68.4634 183.25C68.1904 182.976 68.0374 182.605 68.0382 182.218C68.0389 181.831 68.1932 181.461 68.4672 181.188L86.4292 162.919L67.2901 181.55C67.0132 181.806 66.6477 181.945 66.2704 181.938C65.8931 181.93 65.5335 181.776 65.2672 181.509C65.001 181.241 64.8488 180.881 64.8428 180.504C64.8368 180.127 64.9773 179.762 65.2349 179.486L90.44 153.765L63.9218 179.597C63.6453 179.849 63.2824 179.985 62.9083 179.977C62.5342 179.969 62.1775 179.817 61.9122 179.553C61.6468 179.29 61.4931 178.934 61.4829 178.56C61.4728 178.186 61.6069 177.822 61.8575 177.544L110.92 126.695L59.5687 176.715C59.2938 176.977 58.9272 177.122 58.5473 177.118C58.1673 177.114 57.8039 176.962 57.5346 176.693C57.2653 176.425 57.1113 176.063 57.1055 175.683C57.0998 175.303 57.2426 174.936 57.5037 174.659L107.779 122.57L55.3908 173.611C55.1139 173.868 54.7484 174.007 54.3711 173.999C53.9938 173.991 53.6342 173.838 53.368 173.57C53.1017 173.303 52.9496 172.942 52.9435 172.565C52.9375 172.188 53.0781 171.823 53.3356 171.547L79.324 145.074L52.5156 171.196C52.2391 171.448 51.8762 171.584 51.5021 171.576C51.128 171.568 50.7713 171.417 50.506 171.153C50.2406 170.889 50.0869 170.533 50.0768 170.159C50.0666 169.785 50.2007 169.421 50.4513 169.143L102.137 115.562L48.6761 167.649C48.3992 167.905 48.0336 168.044 47.6563 168.036C47.279 168.028 46.9194 167.875 46.6532 167.607C46.3869 167.34 46.2348 166.98 46.2288 166.602C46.2227 166.225 46.3633 165.86 46.6209 165.584L69.3989 142.42L46.1629 165.06C45.8877 165.325 45.5193 165.472 45.1372 165.468C44.755 165.464 44.3897 165.31 44.1198 165.04C43.85 164.769 43.6972 164.403 43.6944 164.021C43.6916 163.639 43.839 163.271 44.1048 162.997L69.3771 137.268L43.7034 162.281C43.427 162.542 43.0594 162.685 42.6792 162.679C42.299 162.672 41.9362 162.518 41.6683 162.248C41.4003 161.978 41.2485 161.614 41.2451 161.234C41.2418 160.854 41.3871 160.487 41.6503 160.213L44.4721 157.364L41.8218 159.953C41.5493 160.227 41.179 160.382 40.7924 160.383C40.4058 160.384 40.0346 160.232 39.7603 159.959C39.4861 159.687 39.3314 159.317 39.3302 158.93C39.3289 158.543 39.4813 158.172 39.7539 157.898L92.9925 102.569L38.5679 155.586C38.2942 155.852 37.9268 156 37.5449 155.999C37.1629 155.997 36.7969 155.845 36.5256 155.577C36.2543 155.308 36.0994 154.943 36.0942 154.561C36.089 154.179 36.234 153.811 36.4979 153.534L93.1983 94.3002L35.403 150.61C35.1266 150.865 34.7624 151.003 34.3863 150.996C34.0102 150.989 33.6515 150.837 33.3851 150.571C33.1188 150.305 32.9654 149.947 32.9571 149.571C32.9489 149.195 33.0863 148.83 33.3407 148.553L79.1895 101.116L32.9569 146.155C32.6844 146.429 32.3141 146.584 31.9275 146.585C31.5409 146.586 31.1697 146.434 30.8954 146.161C30.6212 145.889 30.4665 145.518 30.4653 145.132C30.464 144.745 30.6164 144.374 30.889 144.1L79.207 93.8702L30.6135 141.217C30.3404 141.49 29.9699 141.644 29.5834 141.644C29.1968 141.645 28.826 141.491 28.5524 141.218C28.2789 140.945 28.125 140.575 28.1246 140.188C28.1243 139.802 28.2775 139.431 28.5505 139.157L68.198 98.183L28.7698 136.599C28.4969 136.874 28.1262 137.028 27.7393 137.029C27.3524 137.03 26.9809 136.878 26.7066 136.605C26.4323 136.332 26.2776 135.961 26.2766 135.574C26.2756 135.188 26.4283 134.816 26.7012 134.542L67.9851 91.699L27.1201 131.515C26.8447 131.773 26.48 131.914 26.1028 131.908C25.7256 131.903 25.3653 131.751 25.0976 131.485C24.8298 131.219 24.6756 130.86 24.6673 130.483C24.6589 130.106 24.7972 129.74 25.0529 129.463L64.3087 88.6634L25.7524 126.227C25.4816 126.503 25.1122 126.66 24.7254 126.664C24.3386 126.668 23.9662 126.518 23.69 126.247C23.4138 125.976 23.2565 125.607 23.2527 125.22C23.2489 124.833 23.3989 124.461 23.6697 124.185L71.2789 73.8163L24.4912 119.405C24.2164 119.661 23.8529 119.802 23.4768 119.797C23.1007 119.792 22.741 119.642 22.4731 119.378C22.2052 119.114 22.0498 118.756 22.0393 118.38C22.0289 118.004 22.1642 117.639 22.417 117.36L60.9506 76.8194L23.8164 113.02C23.5427 113.286 23.1753 113.435 22.7933 113.433C22.4114 113.431 22.0454 113.28 21.7741 113.011C21.5027 112.742 21.3478 112.377 21.3427 111.995C21.3375 111.613 21.4825 111.245 21.7464 110.969L50.9414 80.4271L23.6548 107.01C23.3811 107.277 23.0137 107.425 22.6318 107.423C22.2498 107.421 21.8838 107.27 21.6125 107.001C21.3412 106.732 21.1863 106.367 21.1811 105.986C21.1759 105.604 21.3209 105.235 21.5848 104.959L42.5623 83.0883L23.8873 101.273C23.6117 101.528 23.2485 101.666 22.8734 101.659C22.4983 101.653 22.1403 101.502 21.8737 101.238C21.6071 100.974 21.4525 100.617 21.4422 100.242C21.4318 99.8673 21.5664 99.5028 21.8181 99.2246L37.9813 82.3515L24.5274 95.4476C24.2524 95.7014 23.8903 95.8398 23.5161 95.8339C23.1419 95.8281 22.7842 95.6785 22.5173 95.4161C22.2504 95.1538 22.0946 94.7988 22.0823 94.4247C22.07 94.0506 22.202 93.6862 22.4511 93.4068L42.2963 72.3353L25.9041 88.3071C25.6329 88.5723 25.269 88.7213 24.8898 88.7226C24.5105 88.7238 24.1457 88.5771 23.8728 88.3136C23.6 88.0502 23.4406 87.6908 23.4285 87.3117C23.4164 86.9326 23.5525 86.5637 23.808 86.2834L46.2812 61.5999L28.7959 78.6314C28.5243 78.8927 28.162 79.0386 27.7852 79.0385C27.4083 79.0384 27.0462 78.8923 26.7747 78.6309C26.5032 78.3696 26.3436 78.0132 26.3292 77.6366C26.3149 77.26 26.4469 76.8925 26.6977 76.6113L38.4341 63.6207L33.1525 68.767C32.8838 69.0261 32.5261 69.1722 32.1529 69.1753C31.7797 69.1783 31.4196 69.0382 31.1467 68.7836C30.8738 68.5291 30.709 68.1796 30.6862 67.8071C30.6633 67.4346 30.7843 67.0676 31.024 66.7816L40.4046 55.74C40.1559 55.6736 39.9293 55.5427 39.7477 55.3604C39.5661 55.1781 39.436 54.951 39.3706 54.7021C39.3053 54.4532 39.307 54.1915 39.3755 53.9434C39.4441 53.6954 39.5771 53.47 39.7611 53.2901L55.6539 37.803C55.9225 37.5439 56.2803 37.3978 56.6535 37.3947C57.0266 37.3916 57.3867 37.5318 57.6596 37.7864C57.9325 38.0409 58.0974 38.3904 58.1202 38.7629C58.143 39.1354 58.0221 39.5024 57.7823 39.7884L53.2902 45.0829L69.2148 29.5667C69.4875 29.3133 69.847 29.174 70.2193 29.1772C70.5916 29.1804 70.9486 29.326 71.2169 29.5841C71.4853 29.8422 71.6446 30.1933 71.6624 30.5652C71.6801 30.9371 71.5548 31.3016 71.3122 31.5841L59.578 44.5831L79.1051 25.5622C79.3777 25.3038 79.7395 25.1605 80.1151 25.1624C80.4907 25.1643 80.851 25.3111 81.121 25.5722C81.391 25.8333 81.5498 26.1886 81.5642 26.5639C81.5786 26.9392 81.4475 27.3056 81.1983 27.5866L58.7287 52.2722L88.8705 22.8886C89.1455 22.6347 89.5076 22.4964 89.8818 22.5023C90.2561 22.5081 90.6137 22.6577 90.8806 22.9201C91.1475 23.1824 91.3033 23.5374 91.3156 23.9115C91.3279 24.2855 91.1959 24.65 90.9468 24.9294L71.1312 45.9633L96.0224 21.7181C96.2981 21.4637 96.6612 21.3254 97.0363 21.332C97.4114 21.3385 97.7695 21.4895 98.0361 21.7534C98.3027 22.0173 98.4572 22.3739 98.4676 22.7489C98.4779 23.1239 98.3433 23.4884 98.0917 23.7666L81.9052 40.6666L101.867 21.2256C102.143 20.9712 102.506 20.8329 102.881 20.8395C103.256 20.846 103.614 20.997 103.881 21.2609C104.147 21.5248 104.302 21.8814 104.312 22.2564C104.322 22.6314 104.188 22.9959 103.936 23.2741L82.97 45.1417L107.634 21.1137C107.768 20.9776 107.929 20.8693 108.105 20.7951C108.281 20.7209 108.471 20.6822 108.662 20.6812C108.854 20.6801 109.044 20.7168 109.221 20.7891C109.398 20.8614 109.559 20.968 109.695 21.1026C109.832 21.2373 109.94 21.3974 110.014 21.5739C110.088 21.7504 110.127 21.9397 110.128 22.1312C110.129 22.3226 110.092 22.5124 110.02 22.6897C109.948 22.867 109.841 23.0283 109.707 23.1644L80.4813 53.7286L113.614 21.4527C113.886 21.1776 114.255 21.0215 114.642 21.0189C115.029 21.0163 115.4 21.1674 115.675 21.4388C115.951 21.7103 116.107 22.08 116.109 22.4665C116.112 22.853 115.961 23.2247 115.689 23.4999L77.1613 64.0153L120.001 22.278C120.277 22.0287 120.638 21.8943 121.01 21.9022C121.381 21.9102 121.736 22.0599 122.001 22.3208C122.266 22.5816 122.421 22.9339 122.435 23.3055C122.449 23.677 122.32 24.0398 122.075 24.3195L74.4571 74.702L126.812 23.6962C127.088 23.4385 127.452 23.2975 127.83 23.3031C128.207 23.3087 128.567 23.4603 128.835 23.726C129.103 23.9918 129.257 24.351 129.265 24.7282C129.274 25.1053 129.135 25.471 128.88 25.7483L89.6413 66.5224L132.036 25.223C132.313 24.9708 132.676 24.8347 133.05 24.8428C133.424 24.8509 133.781 25.0026 134.046 25.2664C134.311 25.5303 134.465 25.8861 134.475 26.2602C134.485 26.6343 134.351 26.9979 134.101 27.2758L92.8328 70.1114L137.05 27.0256C137.323 26.7516 137.694 26.5974 138.081 26.5967C138.467 26.596 138.839 26.749 139.113 27.0219C139.386 27.2949 139.541 27.6655 139.541 28.0522C139.542 28.439 139.389 28.8101 139.116 29.0841L99.4398 70.0868L141.628 28.9931C141.901 28.7189 142.271 28.5642 142.658 28.563C143.044 28.5618 143.415 28.7142 143.69 28.9867C143.964 29.2592 144.119 29.6294 144.12 30.016C144.121 30.4026 143.969 30.7739 143.696 31.0481L95.3542 81.2898L146.506 31.453C146.782 31.2009 147.145 31.0647 147.519 31.0728C147.893 31.0809 148.25 31.2326 148.515 31.4964C148.781 31.7603 148.934 32.1161 148.945 32.4902C148.955 32.8643 148.821 33.2279 148.57 33.5058L102.744 80.937L150.891 34.0229C151.165 33.7565 151.532 33.6082 151.914 33.6099C152.296 33.6116 152.662 33.7633 152.933 34.0321C153.205 34.301 153.359 34.6656 153.365 35.0476C153.37 35.4295 153.225 35.7982 152.961 36.0743L96.2548 95.322L155.799 37.314C156.074 37.0517 156.441 36.9072 156.821 36.9112C157.2 36.9153 157.564 37.0676 157.833 37.3356C158.103 37.6037 158.256 37.9664 158.262 38.3464C158.268 38.7263 158.125 39.0935 157.864 39.3697L104.625 94.6841L160.07 40.6648C160.346 40.4037 160.714 40.2609 161.094 40.2669C161.474 40.273 161.837 40.4275 162.105 40.6973C162.373 40.9671 162.525 41.331 162.528 41.7113C162.531 42.0915 162.386 42.458 162.123 42.7325L159.205 45.6782L162.356 42.6101C162.632 42.3449 163 42.1985 163.382 42.2023C163.764 42.2061 164.13 42.3599 164.399 42.6304C164.669 42.901 164.822 43.2668 164.825 43.6489C164.828 44.0311 164.68 44.399 164.414 44.6735L139.189 70.3509L165.06 45.132C165.338 44.8812 165.702 44.7471 166.076 44.7572C166.45 44.7674 166.806 44.9212 167.07 45.1867C167.334 45.4522 167.486 45.809 167.494 46.1833C167.501 46.5575 167.365 46.9205 167.113 47.1969L144.278 70.4205L167.603 47.7188C167.878 47.4565 168.245 47.312 168.625 47.316C169.005 47.3201 169.368 47.4724 169.637 47.7405C169.907 48.0085 170.061 48.3712 170.066 48.7512C170.072 49.1312 169.929 49.4983 169.668 49.7745L117.965 103.357L171.054 51.6299C171.329 51.3647 171.697 51.2183 172.08 51.2221C172.462 51.2259 172.827 51.3797 173.097 51.6502C173.367 51.9208 173.52 52.2866 173.522 52.6687C173.525 53.0509 173.378 53.4188 173.112 53.6933L147.169 80.1186L173.394 54.566C173.669 54.3083 174.034 54.1674 174.411 54.1729C174.788 54.1785 175.149 54.3301 175.416 54.5959C175.684 54.8616 175.838 55.2209 175.847 55.598C175.855 55.9751 175.717 56.3408 175.461 56.6181L125.18 108.733L176.399 58.8308C176.675 58.5731 177.039 58.4322 177.416 58.4377C177.794 58.4433 178.154 58.5949 178.422 58.8607C178.689 59.1264 178.844 59.4856 178.852 59.8628C178.86 60.2399 178.722 60.6056 178.466 60.8829L129.445 111.694L179.147 63.2783C179.424 63.0254 179.788 62.8891 180.163 62.8979C180.538 62.9066 180.896 63.0596 181.161 63.3252C181.426 63.5907 181.578 63.9482 181.586 64.3233C181.595 64.6984 181.458 65.0622 181.204 65.3389L155.996 91.048L181.009 66.6786C181.285 66.4135 181.653 66.267 182.035 66.2708C182.417 66.2747 182.783 66.4284 183.052 66.699C183.322 66.9696 183.475 67.3353 183.478 67.7175C183.481 68.0996 183.333 68.4676 183.067 68.7421L165.095 87.0281L182.618 69.9449C182.892 69.6785 183.259 69.5302 183.641 69.5319C184.023 69.5336 184.389 69.6852 184.661 69.9541C184.932 70.223 185.087 70.5876 185.092 70.9695C185.097 71.3515 184.952 71.7202 184.688 71.9963L132.568 126.533L184.954 75.4925C185.228 75.2199 185.599 75.0673 185.986 75.0683C186.372 75.0694 186.743 75.2239 187.015 75.498C187.288 75.7722 187.441 76.1433 187.44 76.5299C187.439 76.9165 187.284 77.2869 187.01 77.5595L175.674 89.083L186.153 78.8749C186.43 78.6227 186.793 78.4866 187.167 78.4947C187.541 78.5028 187.898 78.6545 188.163 78.9183C188.428 79.1822 188.582 79.538 188.592 79.9121C188.602 80.2862 188.468 80.6498 188.218 80.9277L148.866 121.755L187.678 83.9428C187.952 83.6695 188.323 83.5161 188.71 83.5162C188.901 83.5163 189.091 83.5541 189.267 83.6275C189.444 83.7008 189.605 83.8083 189.74 83.9437C189.876 84.0792 189.983 84.2399 190.056 84.4168C190.129 84.5938 190.167 84.7834 190.167 84.9748C190.167 85.1663 190.129 85.3558 190.056 85.5327C189.982 85.7095 189.875 85.8702 189.739 86.0055L170.798 105.392L188.652 87.999C188.927 87.7413 189.292 87.6004 189.669 87.6059C190.046 87.6115 190.407 87.7631 190.674 88.0289C190.942 88.2946 191.096 88.6538 191.105 89.031C191.113 89.4081 190.975 89.7738 190.719 90.0511L157.099 124.968L189.602 93.3003C189.876 93.0397 190.241 92.896 190.62 92.8998C190.998 92.9036 191.361 93.0545 191.63 93.3205C191.899 93.5866 192.054 93.947 192.062 94.3254C192.071 94.7038 191.931 95.0706 191.674 95.3481L154.73 134.075L190.285 99.4332C190.419 99.2967 190.579 99.1878 190.755 99.113C190.931 99.0382 191.12 98.9988 191.312 98.9971C191.503 98.9953 191.693 99.0313 191.871 99.103C192.048 99.1747 192.21 99.2806 192.346 99.4147C192.483 99.5489 192.592 99.7086 192.666 99.8848C192.741 100.061 192.781 100.25 192.782 100.442C192.784 100.633 192.748 100.823 192.676 101C192.605 101.178 192.499 101.34 192.365 101.476L153.602 142.632L190.504 106.676C190.777 106.402 191.148 106.248 191.535 106.248C191.921 106.247 192.292 106.4 192.566 106.673C192.84 106.946 192.995 107.316 192.995 107.703C192.996 108.09 192.843 108.461 192.57 108.735L181.927 119.721L190.302 111.564C190.577 111.31 190.938 111.172 191.311 111.177C191.685 111.182 192.042 111.33 192.309 111.591C192.577 111.852 192.734 112.205 192.748 112.578C192.762 112.952 192.632 113.316 192.386 113.597L159.424 149.164L189.234 120.12C189.509 119.863 189.873 119.723 190.249 119.728C190.625 119.733 190.985 119.883 191.253 120.147C191.52 120.411 191.676 120.769 191.686 121.145C191.697 121.521 191.561 121.886 191.309 122.165L177.258 136.994L187.817 126.709C188.089 126.447 188.452 126.301 188.83 126.302C189.208 126.303 189.57 126.45 189.841 126.713C190.113 126.976 190.271 127.334 190.283 127.712C190.296 128.089 190.161 128.457 189.908 128.737L172.439 147.704L185.019 135.452C185.292 135.197 185.652 135.056 186.026 135.058C186.4 135.061 186.758 135.207 187.028 135.467C187.297 135.726 187.456 136.079 187.472 136.453C187.488 136.826 187.36 137.191 187.114 137.473L177.145 148.472L180.735 144.974C181.003 144.71 181.363 144.56 181.739 144.555C182.116 144.55 182.479 144.692 182.754 144.949C183.029 145.207 183.193 145.561 183.212 145.937C183.232 146.313 183.105 146.682 182.859 146.966L173.84 157.492C174.058 157.564 174.255 157.688 174.414 157.854C174.684 158.131 174.833 158.503 174.828 158.889C174.824 159.276 174.666 159.644 174.39 159.914L158.497 175.402C158.229 175.666 157.869 175.816 157.492 175.82C157.116 175.825 156.752 175.683 156.478 175.426C156.203 175.168 156.039 174.814 156.019 174.439C156 174.063 156.126 173.694 156.373 173.409L159.658 169.567L145.532 183.33C145.263 183.608 144.895 183.769 144.509 183.776C144.122 183.783 143.749 183.636 143.471 183.368C143.192 183.1 143.032 182.732 143.025 182.345C143.018 181.959 143.164 181.585 143.433 181.307L153.388 170.327L135.923 187.341C135.649 187.597 135.288 187.738 134.913 187.734C134.539 187.731 134.18 187.583 133.911 187.322C133.643 187.062 133.485 186.707 133.47 186.333C133.456 185.959 133.586 185.593 133.834 185.313L151.307 166.338L127.153 189.885C126.97 190.064 126.743 190.192 126.495 190.254Z" fill="#4259CC"/>
<path d="M174.479 154.737C174.188 154.812 173.881 154.795 173.6 154.688C173.319 154.582 173.077 154.391 172.909 154.142C172.741 153.893 172.654 153.598 172.659 153.297C172.665 152.997 172.764 152.705 172.942 152.463L174.06 150.946L173.149 151.836C172.888 152.088 172.542 152.234 172.179 152.244C171.816 152.255 171.462 152.13 171.187 151.893C170.911 151.656 170.734 151.325 170.69 150.965C170.646 150.604 170.738 150.24 170.948 149.944L178.037 140.086L170.031 147.883C169.766 148.137 169.414 148.282 169.047 148.289C168.68 148.295 168.324 148.163 168.05 147.918C167.776 147.674 167.605 147.334 167.57 146.969C167.536 146.603 167.64 146.238 167.863 145.946L176.589 134.707L167.509 143.555C167.243 143.81 166.89 143.954 166.522 143.96C166.154 143.965 165.797 143.831 165.524 143.585C165.251 143.338 165.081 142.997 165.049 142.63C165.017 142.263 165.124 141.898 165.351 141.607L176.148 127.986L168.35 135.573C168.082 135.833 167.725 135.98 167.352 135.984C166.979 135.989 166.619 135.85 166.345 135.596C166.071 135.343 165.905 134.994 165.881 134.622C165.857 134.25 165.976 133.883 166.214 133.596L174.904 123.184C174.631 123.18 174.365 123.1 174.136 122.953C173.906 122.806 173.723 122.597 173.606 122.351C173.489 122.105 173.444 121.831 173.475 121.56C173.506 121.289 173.613 121.033 173.783 120.819L177.932 115.597C177.664 115.608 177.397 115.545 177.162 115.414C176.927 115.284 176.733 115.091 176.601 114.856C176.469 114.622 176.405 114.356 176.414 114.088C176.424 113.819 176.508 113.558 176.657 113.334L182.007 105.239L177.786 109.339C177.527 109.592 177.184 109.74 176.822 109.754C176.46 109.767 176.107 109.646 175.83 109.413C175.553 109.181 175.372 108.853 175.323 108.495C175.274 108.136 175.36 107.772 175.565 107.474L180.303 100.535L176.492 104.246C176.237 104.505 175.895 104.66 175.532 104.681C175.169 104.701 174.812 104.585 174.53 104.355C174.248 104.125 174.063 103.799 174.009 103.439C173.956 103.08 174.039 102.713 174.242 102.412L180.284 92.8949L174.933 98.11C174.676 98.3612 174.336 98.5088 173.977 98.5247C173.619 98.5406 173.267 98.4235 172.989 98.1959C172.712 97.9684 172.528 97.6464 172.473 97.2916C172.418 96.9368 172.496 96.5743 172.692 96.2734L178.187 87.7676L173.089 92.7351C172.83 92.9881 172.487 93.1357 172.125 93.1494C171.764 93.1631 171.41 93.0418 171.133 92.8091C170.856 92.5764 170.675 92.2489 170.626 91.8904C170.577 91.5319 170.663 91.168 170.868 90.8695L175.213 84.5115L170.05 89.5436C169.788 89.8014 169.438 89.9508 169.07 89.9616C168.703 89.9725 168.345 89.8441 168.068 89.6021C167.791 89.3601 167.616 89.0225 167.578 88.6568C167.539 88.2912 167.641 87.9246 167.861 87.6305L170.88 83.5794L166.416 87.9315C166.156 88.1891 165.809 88.3396 165.444 88.3532C165.078 88.3668 164.721 88.2425 164.443 88.0049C164.165 87.7674 163.986 87.4339 163.943 87.0708C163.899 86.7076 163.994 86.3413 164.207 86.0446L170.239 77.5531L159.09 88.4155C158.825 88.6688 158.474 88.813 158.108 88.8195C157.742 88.8259 157.386 88.6941 157.113 88.4504C156.839 88.2066 156.668 87.8688 156.632 87.5041C156.596 87.1394 156.699 86.7747 156.921 86.4826L164.391 76.8226L152.607 88.3032C152.343 88.5554 151.993 88.6989 151.627 88.7052C151.262 88.7116 150.907 88.5803 150.634 88.3375C150.361 88.0947 150.189 87.758 150.152 87.3943C150.115 87.0305 150.217 86.6663 150.436 86.3738L161.6 71.8415L146.676 86.3819C146.406 86.6429 146.047 86.7901 145.672 86.7927C145.297 86.7954 144.935 86.6533 144.662 86.3961C144.389 86.1389 144.226 85.7863 144.206 85.4118C144.186 85.0372 144.312 84.6695 144.557 84.3851L149.78 78.3363L143.492 84.445C143.223 84.704 142.866 84.8502 142.493 84.8532C142.119 84.8563 141.759 84.7162 141.486 84.4616C141.213 84.2071 141.049 83.8575 141.026 83.4851C141.003 83.1126 141.124 82.7455 141.364 82.4596L149.432 72.9422L140.428 81.711C140.162 81.9644 139.81 82.108 139.443 82.1133C139.076 82.1185 138.72 81.9849 138.447 81.7392C138.174 81.4936 138.004 81.1539 137.971 80.7881C137.937 80.4224 138.043 80.0576 138.268 79.7667L151.542 62.8878L137.077 76.9746C136.806 77.2304 136.447 77.3726 136.074 77.3719C135.701 77.3712 135.343 77.2277 135.073 76.9708C134.802 76.7139 134.641 76.3633 134.621 75.991C134.602 75.6187 134.726 75.253 134.968 74.9693L137.858 71.6787L135.725 73.7603C135.461 74.0147 135.111 74.1603 134.745 74.1681C134.378 74.176 134.022 74.0455 133.748 73.8027C133.473 73.5598 133.3 73.2225 133.264 72.8579C133.227 72.4932 133.328 72.1281 133.549 71.8352L145.666 55.9511L134.619 66.7333C134.366 66.9771 134.033 67.1212 133.682 67.1391C133.332 67.157 132.986 67.0474 132.709 66.8307C132.433 66.6139 132.244 66.3044 132.177 65.9594C132.111 65.6143 132.171 65.2568 132.347 64.9527L137.793 55.7049L137.691 55.8C137.556 55.943 137.394 56.0573 137.214 56.136C137.033 56.2147 136.839 56.2561 136.643 56.2578C136.446 56.2595 136.251 56.2214 136.07 56.1458C135.888 56.0703 135.724 55.9588 135.587 55.8181C135.45 55.6773 135.342 55.5103 135.271 55.3271C135.2 55.1438 135.167 54.948 135.174 54.7516C135.18 54.5551 135.226 54.3621 135.31 54.1839C135.393 54.0058 135.511 53.8464 135.657 53.7152L143.547 46.0267C143.8 45.7784 144.134 45.6304 144.487 45.6105C144.841 45.5905 145.189 45.7 145.468 45.9183C145.747 46.1367 145.936 46.449 146.002 46.797C146.067 47.145 146.003 47.5049 145.823 47.8094L140.377 57.0572L157.857 40.0272C158.121 39.7717 158.471 39.6253 158.839 39.6173C159.206 39.6093 159.563 39.7404 159.837 39.9841C160.112 40.2279 160.285 40.5665 160.321 40.9321C160.357 41.2977 160.253 41.6633 160.031 41.9559L147.919 57.8357L162.963 43.1867C163.233 42.9258 163.594 42.7792 163.969 42.7776C164.345 42.7759 164.706 42.9193 164.979 43.1778C165.251 43.4363 165.413 43.7901 165.431 44.1652C165.449 44.5403 165.322 44.9079 165.075 45.1913L162.179 48.4805L165.328 45.4159C165.593 45.1589 165.946 45.0121 166.315 45.0051C166.684 44.9981 167.042 45.1315 167.316 45.3782C167.591 45.625 167.762 45.9667 167.794 46.3345C167.826 46.7022 167.718 47.0685 167.491 47.3594L154.221 64.2341L169.274 49.559C169.542 49.3 169.9 49.1538 170.273 49.1508C170.646 49.1477 171.006 49.2878 171.279 49.5424C171.552 49.7969 171.717 50.1465 171.74 50.5189C171.763 50.8914 171.642 51.2584 171.402 51.5444L163.318 61.0838L171.93 52.6975C172.2 52.4434 172.557 52.3019 172.928 52.302C173.299 52.3021 173.656 52.4438 173.927 52.6981C174.197 52.9525 174.36 53.3003 174.382 53.6707C174.405 54.0411 174.285 54.4062 174.048 54.6915L168.808 60.7474L174.111 55.5778C174.375 55.3223 174.726 55.1759 175.093 55.1679C175.46 55.1599 175.817 55.2909 176.092 55.5347C176.366 55.7785 176.539 56.1171 176.575 56.4827C176.611 56.8483 176.507 57.2139 176.285 57.5065L165.137 72.0316L177.289 60.1925C177.555 59.9424 177.904 59.801 178.269 59.7961C178.634 59.7912 178.987 59.9232 179.259 60.1661C179.531 60.4089 179.702 60.745 179.739 61.1079C179.775 61.4708 179.674 61.8341 179.456 62.1262L171.985 71.7834L179.714 64.2559C179.975 64.0052 180.32 63.8604 180.682 63.8498C181.043 63.8393 181.396 63.9636 181.671 64.1987C181.946 64.4339 182.124 64.7629 182.17 65.1218C182.216 65.4808 182.126 65.8439 181.919 66.1407L175.886 74.6386L182.017 68.6662C182.279 68.4117 182.628 68.2653 182.994 68.2562C183.36 68.247 183.715 68.3757 183.991 68.6167C184.266 68.8577 184.44 69.1934 184.48 69.5571C184.519 69.9208 184.42 70.286 184.202 70.58L181.188 74.6268L183.642 72.235C183.901 71.982 184.244 71.8343 184.606 71.8207C184.968 71.807 185.321 71.9283 185.598 72.161C185.875 72.3937 186.056 72.7212 186.105 73.0797C186.154 73.4382 186.068 73.8021 185.863 74.1006L181.518 80.4705L185.406 76.6799C185.663 76.4287 186.003 76.281 186.361 76.2651C186.72 76.2493 187.072 76.3663 187.35 76.5939C187.627 76.8214 187.811 77.1435 187.866 77.4982C187.921 77.853 187.843 78.2156 187.647 78.5164L182.154 87.0215L187.169 82.1385C187.423 81.8758 187.766 81.718 188.13 81.6962C188.495 81.6744 188.854 81.7902 189.137 82.0208C189.42 82.2513 189.607 82.5798 189.659 82.9412C189.712 83.3025 189.627 83.6705 189.421 83.9722L183.372 93.4726L188.7 88.2696C188.958 88.0173 189.301 87.8699 189.662 87.8562C190.023 87.8424 190.376 87.9633 190.653 88.1952C190.93 88.4272 191.111 88.7537 191.161 89.1115C191.211 89.4693 191.126 89.8329 190.923 90.1317L186.183 97.0892L189.662 93.703C189.921 93.4613 190.258 93.3219 190.612 93.3109C190.966 93.2999 191.312 93.4181 191.585 93.6434C191.858 93.8686 192.04 94.1856 192.096 94.5351C192.153 94.8845 192.08 95.2426 191.892 95.5424L186.536 103.643L190.309 99.9775C190.574 99.7191 190.927 99.5712 191.298 99.564C191.668 99.5567 192.027 99.6906 192.302 99.9384C192.577 100.186 192.747 100.529 192.778 100.898C192.81 101.267 192.699 101.634 192.47 101.925L190.144 104.858L190.497 104.516C190.764 104.257 191.121 104.109 191.494 104.105C191.867 104.101 192.228 104.24 192.501 104.493C192.775 104.747 192.941 105.095 192.965 105.467C192.99 105.84 192.87 106.207 192.632 106.494L186.603 113.718L190.4 110.02C190.666 109.765 191.019 109.621 191.387 109.615C191.755 109.61 192.111 109.744 192.385 109.991C192.658 110.237 192.828 110.578 192.86 110.945C192.892 111.312 192.784 111.677 192.558 111.968L181.758 125.59L189.607 117.941C189.871 117.683 190.223 117.535 190.592 117.527C190.962 117.519 191.32 117.651 191.596 117.896C191.871 118.142 192.043 118.483 192.077 118.851C192.11 119.219 192.003 119.586 191.777 119.877L183.048 131.117L187.896 126.406C188.157 126.15 188.504 126.001 188.87 125.989C189.235 125.977 189.591 126.102 189.868 126.341C190.145 126.579 190.323 126.913 190.365 127.276C190.408 127.639 190.312 128.005 190.098 128.301L183.006 138.159L184.578 136.629C184.839 136.37 185.188 136.219 185.556 136.207C185.924 136.194 186.282 136.321 186.56 136.562C186.838 136.804 187.014 137.141 187.054 137.507C187.093 137.872 186.993 138.239 186.773 138.534L182.457 144.416C182.636 144.491 182.798 144.602 182.932 144.743C183.2 145.02 183.348 145.392 183.343 145.778C183.338 146.164 183.18 146.532 182.904 146.801L175.15 154.362C174.965 154.546 174.733 154.676 174.479 154.737Z" fill="#AAD742"/>
<path d="M106.947 176.37C106.654 176.444 106.346 176.425 106.065 176.317C105.784 176.208 105.543 176.014 105.376 175.763C105.209 175.512 105.125 175.215 105.134 174.914C105.143 174.612 105.245 174.321 105.427 174.08L106.729 172.354L104.777 174.257C104.512 174.515 104.158 174.663 103.788 174.671C103.418 174.678 103.059 174.544 102.784 174.296C102.509 174.048 102.338 173.705 102.307 173.336C102.276 172.967 102.386 172.6 102.616 172.31L106.815 167L103.126 170.589C102.856 170.84 102.5 170.979 102.132 170.978C101.763 170.978 101.408 170.837 101.139 170.585C100.87 170.333 100.706 169.988 100.681 169.621C100.656 169.253 100.771 168.889 101.003 168.603L101.946 167.494C101.652 167.648 101.315 167.697 100.99 167.634C100.665 167.57 100.371 167.398 100.157 167.145C99.9432 166.892 99.8215 166.574 99.8124 166.243C99.8033 165.912 99.9073 165.588 100.107 165.324L112.329 149.368L100.629 160.761C100.363 161.017 100.01 161.163 99.6407 161.168C99.2716 161.174 98.9141 161.039 98.6404 160.792C98.3667 160.544 98.1972 160.202 98.1662 159.834C98.1352 159.466 98.2449 159.1 98.4732 158.81L111.472 142.503L99.0692 154.586C98.7989 154.842 98.4407 154.985 98.0683 154.986C97.6959 154.986 97.3375 154.844 97.0666 154.588C96.7958 154.333 96.6331 153.983 96.6119 153.611C96.5907 153.239 96.7127 152.874 96.9528 152.589L103.791 144.704L98.0067 150.345C97.7355 150.601 97.3766 150.743 97.0038 150.743C96.631 150.742 96.2726 150.598 96.0024 150.341C95.7322 150.085 95.5707 149.734 95.5512 149.362C95.5316 148.989 95.6555 148.624 95.8973 148.34L101.395 142.101L96.9785 146.393C96.7084 146.654 96.348 146.801 95.9724 146.802C95.5968 146.804 95.2351 146.661 94.9627 146.402C94.6903 146.143 94.5282 145.79 94.5102 145.415C94.4923 145.039 94.6198 144.672 94.8663 144.389L102.515 135.645L95.8882 142.102C95.6213 142.359 95.2667 142.504 94.8964 142.509C94.5262 142.513 94.168 142.377 93.8947 142.127C93.6214 141.877 93.4535 141.533 93.4251 141.163C93.3966 140.794 93.5097 140.428 93.7415 140.139L109.566 120.751L94.1905 135.74C93.9229 136.001 93.5647 136.15 93.1904 136.155C92.816 136.16 92.4542 136.02 92.1798 135.765C91.9055 135.511 91.7397 135.16 91.7169 134.786C91.694 134.413 91.8159 134.045 92.0572 133.758L104.608 118.811L90.9917 132.062C90.7213 132.315 90.3651 132.455 89.9952 132.454C89.6253 132.454 89.2694 132.313 88.9997 132.06C88.73 131.806 88.5667 131.46 88.5428 131.091C88.5188 130.722 88.6362 130.358 88.871 130.072L98.7813 118.547L85.686 131.302C85.4148 131.556 85.0569 131.697 84.6854 131.695C84.314 131.694 83.957 131.551 83.6875 131.296C83.4179 131.04 83.2561 130.691 83.2351 130.32C83.2141 129.95 83.3355 129.585 83.5744 129.3L92.2777 119.369L79.3381 131.98C79.0695 132.239 78.7117 132.385 78.3385 132.388C77.9654 132.391 77.6053 132.251 77.3324 131.996C77.0595 131.742 76.8946 131.392 76.8718 131.02C76.849 130.647 76.9699 130.28 77.2097 129.994L92.4333 111.992L73.1238 130.804C72.8533 131.068 72.4905 131.217 72.1122 131.219C71.7338 131.221 71.3696 131.076 71.0965 130.814C70.8234 130.552 70.6628 130.194 70.6486 129.816C70.6345 129.438 70.7679 129.069 71.0207 128.788L79.8902 118.884L69.3847 129.119C69.1124 129.381 68.7491 129.527 68.3715 129.526C67.9938 129.525 67.6311 129.378 67.36 129.115C67.0888 128.852 66.9304 128.494 66.918 128.117C66.9056 127.739 67.0402 127.371 67.2936 127.091L70.9656 123.079L66.6601 127.273C66.3896 127.538 66.0268 127.687 65.6485 127.689C65.2702 127.69 64.906 127.545 64.6328 127.283C64.3597 127.021 64.1991 126.664 64.185 126.286C64.1708 125.908 64.3042 125.539 64.557 125.257L73.3688 115.41L63.8824 124.65C63.6155 124.908 63.26 125.055 62.8885 125.06C62.5171 125.065 62.1578 124.928 61.884 124.677C61.6102 124.426 61.4426 124.08 61.4154 123.709C61.3882 123.339 61.5035 122.972 61.7378 122.684L78.2927 102.487L60.6003 119.722C60.3345 119.974 59.9836 120.117 59.6172 120.122C59.2509 120.127 58.8961 119.994 58.6235 119.749C58.3509 119.504 58.1804 119.166 58.146 118.801C58.1117 118.436 58.2159 118.072 58.4381 117.781L71.408 101.253L58.6796 113.654C58.4137 113.908 58.0612 114.053 57.6931 114.058C57.325 114.064 56.9684 113.929 56.6951 113.683C56.4218 113.436 56.252 113.095 56.2198 112.728C56.1876 112.362 56.2954 111.996 56.5216 111.706L62.608 104.045L58.5075 108.028C58.2494 108.272 57.911 108.414 57.5561 108.426C57.2011 108.438 56.8539 108.32 56.5798 108.094C56.3056 107.868 56.1234 107.55 56.0672 107.2C56.0111 106.849 56.085 106.49 56.275 106.19L60.6929 99.4313C60.3889 99.4754 60.0788 99.4224 59.8068 99.2798C59.5347 99.1372 59.3147 98.9122 59.1781 98.6371C59.0415 98.362 58.9953 98.0508 59.0462 97.7479C59.097 97.445 59.2422 97.1659 59.4611 96.9504L67.4622 89.1674C67.7198 88.9211 68.0587 88.7777 68.4148 88.7644C68.771 88.7511 69.1196 88.8687 69.3949 89.0951C69.6702 89.3214 69.853 89.6408 69.9088 89.9928C69.9645 90.3448 69.8894 90.705 69.6975 91.0054L65.976 96.6936L76.9824 85.9787C77.2483 85.724 77.6007 85.5795 77.9689 85.5741C78.337 85.5686 78.6935 85.7027 78.9668 85.9494C79.2401 86.1961 79.41 86.5371 79.4421 86.9039C79.4743 87.2706 79.3665 87.636 79.1404 87.9265L73.0547 95.5898L85.0139 83.9381C85.2789 83.6824 85.6308 83.5366 85.999 83.5298C86.3671 83.523 86.7241 83.6559 86.9983 83.9016C87.2726 84.1473 87.4436 84.4877 87.4771 84.8544C87.5106 85.221 87.4041 85.5868 87.1789 85.8781L74.2062 102.407L94.8539 82.2921C95.1209 82.0338 95.4763 81.8871 95.8478 81.8821C96.2192 81.8771 96.5785 82.0141 96.8523 82.2651C97.1261 82.5162 97.2937 82.8623 97.3209 83.2327C97.3481 83.6032 97.2328 83.9701 96.9985 84.2584L80.4557 104.455L101.798 83.6645C102.07 83.4088 102.429 83.2672 102.803 83.2689C103.176 83.2706 103.534 83.4155 103.804 83.6736C104.074 83.9318 104.234 84.2836 104.252 84.6564C104.27 85.0293 104.144 85.3948 103.9 85.6776L95.1194 95.5052L105.505 85.3873C105.778 85.1339 106.138 84.995 106.511 84.9992C106.884 85.0033 107.241 85.1503 107.509 85.4097C107.777 85.6692 107.935 86.0214 107.951 86.394C107.967 86.7665 107.84 87.131 107.595 87.4124L103.914 91.4363L108.537 86.9295C108.804 86.6503 109.171 86.4886 109.558 86.4801C109.944 86.4716 110.318 86.6169 110.597 86.8842C110.877 87.1514 111.038 87.5186 111.047 87.905C111.055 88.2915 110.91 88.6655 110.643 88.9447L101.759 98.8647L112.123 88.7581C112.391 88.4937 112.75 88.343 113.126 88.3374C113.502 88.3318 113.866 88.4718 114.141 88.7281C114.416 88.9844 114.582 89.3371 114.603 89.7126C114.624 90.0881 114.499 90.4572 114.254 90.7428L99.0308 108.745L116.999 91.2483C117.27 90.9945 117.628 90.8539 118 90.8551C118.371 90.8563 118.728 90.9993 118.998 91.2548C119.267 91.5104 119.429 91.8592 119.45 92.23C119.471 92.6009 119.35 92.9657 119.111 93.2501L110.386 103.193L120.475 93.3636C120.745 93.1112 121.102 92.971 121.471 92.9715C121.841 92.972 122.197 93.1131 122.467 93.3663C122.737 93.6194 122.9 93.9656 122.924 94.3347C122.948 94.7038 122.83 95.0682 122.596 95.354L112.686 106.894L123.437 96.4183C123.705 96.1565 124.063 96.0078 124.438 96.003C124.812 95.9982 125.174 96.1376 125.448 96.3923C125.722 96.6471 125.888 96.9977 125.911 97.3714C125.934 97.745 125.812 98.1132 125.571 98.3995L113.022 113.305L125.775 100.883C126.042 100.626 126.396 100.481 126.767 100.476C127.137 100.472 127.495 100.608 127.768 100.858C128.041 101.108 128.209 101.452 128.238 101.821C128.266 102.191 128.153 102.557 127.921 102.846L112.116 122.226L126.72 107.99C126.99 107.729 127.351 107.582 127.726 107.581C128.102 107.579 128.464 107.722 128.736 107.981C129.008 108.239 129.171 108.593 129.189 108.968C129.207 109.343 129.079 109.711 128.833 109.994L121.191 118.73L126.776 113.287C127.046 113.026 127.406 112.879 127.782 112.877C128.158 112.876 128.519 113.019 128.792 113.278C129.064 113.536 129.226 113.89 129.244 114.265C129.262 114.64 129.135 115.008 128.888 115.291L123.396 121.526L126.561 118.442C126.831 118.186 127.189 118.043 127.562 118.042C127.934 118.042 128.293 118.184 128.564 118.44C128.834 118.695 128.997 119.045 129.018 119.417C129.039 119.789 128.917 120.155 128.677 120.439L121.834 128.34L126.033 124.248C126.298 123.988 126.653 123.839 127.024 123.831C127.395 123.824 127.755 123.958 128.031 124.207C128.306 124.456 128.476 124.801 128.506 125.171C128.536 125.541 128.424 125.908 128.192 126.198L115.194 142.508L124.706 133.24C124.97 132.985 125.321 132.838 125.688 132.83C126.055 132.822 126.412 132.953 126.687 133.197C126.962 133.441 127.134 133.78 127.17 134.145C127.206 134.511 127.102 134.876 126.88 135.169L114.66 151.118L122.454 143.526C122.723 143.27 123.081 143.126 123.453 143.125C123.825 143.123 124.183 143.264 124.455 143.519C124.726 143.773 124.89 144.122 124.913 144.493C124.936 144.864 124.815 145.23 124.577 145.516L121.772 148.797C122.057 148.769 122.343 148.826 122.596 148.959C122.849 149.093 123.057 149.299 123.194 149.55C123.331 149.801 123.391 150.087 123.366 150.373C123.342 150.658 123.234 150.929 123.056 151.153L118.663 156.708C118.953 156.529 119.296 156.457 119.633 156.504C119.97 156.551 120.28 156.715 120.509 156.967C120.738 157.219 120.872 157.543 120.887 157.883C120.902 158.223 120.797 158.558 120.591 158.829L116.934 163.668C117.241 163.715 117.524 163.863 117.739 164.089C118.007 164.365 118.156 164.737 118.151 165.123C118.147 165.508 117.989 165.876 117.714 166.146L107.603 175.996C107.422 176.177 107.195 176.307 106.947 176.37Z" fill="#AAD742"/>
<path d="M58.4419 71.5503C58.1316 71.628 57.8044 71.6014 57.5106 71.4747C57.2169 71.348 56.9731 71.1282 56.8166 70.8491C56.6602 70.5701 56.6 70.2473 56.6452 69.9307C56.6904 69.614 56.8385 69.321 57.0667 69.0968L69.4401 57.0392C69.72 56.7883 70.086 56.6552 70.4617 56.6678C70.8374 56.6804 71.1937 56.8377 71.4561 57.1068C71.7186 57.3759 71.8669 57.736 71.8702 58.1119C71.8734 58.4878 71.7313 58.8504 71.4735 59.1239L59.1001 71.1816C58.9174 71.3608 58.6902 71.4881 58.4419 71.5503Z" fill="#AAD742"/>
<path d="M24.3238 114.094C24.0273 114.169 23.7147 114.149 23.4301 114.037C23.1456 113.925 22.9036 113.726 22.7384 113.469C22.5732 113.211 22.4931 112.908 22.5096 112.603C22.5261 112.297 22.6383 112.005 22.8303 111.767L33.6472 98.294L23.6805 108.011C23.41 108.275 23.0472 108.424 22.6689 108.426C22.2905 108.428 21.9263 108.283 21.6532 108.021C21.3801 107.759 21.2195 107.401 21.2053 107.023C21.1912 106.645 21.3246 106.277 21.5774 105.995L39.7543 85.6842L23.9213 101.111C23.6501 101.363 23.2932 101.502 22.923 101.501C22.5528 101.499 22.1971 101.357 21.9281 101.102C21.6591 100.848 21.497 100.501 21.4746 100.131C21.4522 99.7619 21.5713 99.3977 21.8076 99.1128L40.5392 77.6235L24.9858 92.7777C24.7141 93.0441 24.349 93.1937 23.9685 93.1945C23.588 93.1952 23.2223 93.0472 22.9495 92.7819C22.6767 92.5166 22.5185 92.1551 22.5086 91.7748C22.4988 91.3944 22.6381 91.0252 22.8968 90.7462L25.8311 87.5466C25.5578 87.6959 25.2442 87.7549 24.9354 87.7151C24.6265 87.6752 24.3381 87.5386 24.1117 87.3249C23.8386 87.0631 23.678 86.7053 23.6639 86.3273C23.6498 85.9492 23.7833 85.5805 24.036 85.2991L28.4892 80.3362L28.0398 80.7692C27.7686 81.0195 27.4126 81.1576 27.0436 81.1557C26.6746 81.1537 26.32 81.0119 26.0515 80.7587C25.783 80.5056 25.6205 80.16 25.5969 79.7917C25.5732 79.4235 25.6901 79.0599 25.924 78.7745L31.0036 72.9157C30.7175 73.1032 30.3746 73.1841 30.0349 73.1442C29.6952 73.1043 29.3803 72.9462 29.1454 72.6976C28.9105 72.449 28.7705 72.1256 28.75 71.7842C28.7295 71.4428 28.8297 71.105 29.0331 70.83L40.3284 55.6299C40.1231 55.5548 39.9373 55.4344 39.7848 55.2778C39.5151 55.0009 39.3664 54.6283 39.3714 54.2418C39.3764 53.8553 39.5348 53.4867 39.8116 53.2169L48.2944 44.9507C48.557 44.6971 48.9052 44.5514 49.2702 44.5423C49.6351 44.5332 49.9902 44.6614 50.2651 44.9015C50.5401 45.1416 50.715 45.4762 50.7551 45.839C50.7952 46.2018 50.6977 46.5665 50.4819 46.8609L42.2819 57.8973L53.6242 46.8475C53.8935 46.5864 54.2531 46.4393 54.6282 46.4366C55.0033 46.4339 55.365 46.576 55.638 46.8332C55.911 47.0904 56.0743 47.443 56.0939 47.8176C56.1136 48.1921 55.9881 48.5599 55.7435 48.8443L50.8828 54.452L57.3435 48.158C57.614 47.8936 57.9768 47.7447 58.3551 47.7428C58.7335 47.7409 59.0977 47.8863 59.3708 48.1481C59.6439 48.4099 59.8045 48.7676 59.8187 49.1457C59.8328 49.5237 59.6994 49.8925 59.4466 50.174L54.9964 55.1481L60.8738 49.4114C61.1455 49.145 61.5107 48.9954 61.8912 48.9946C62.2717 48.9938 62.6374 49.1419 62.9102 49.4072C63.183 49.6725 63.3412 50.0339 63.351 50.4143C63.3609 50.7947 63.2216 51.1639 62.9628 51.4429L60.6636 53.9458L64.1393 50.5575C64.4096 50.2992 64.7689 50.1546 65.1427 50.1537C65.5166 50.1528 65.8766 50.2956 66.1481 50.5526C66.4197 50.8096 66.5821 51.1611 66.6017 51.5345C66.6214 51.9078 66.4968 52.2745 66.2537 52.5586L47.5179 74.055L68.2614 53.8439C68.5333 53.5882 68.8931 53.4466 69.2663 53.4483C69.6396 53.45 69.998 53.5948 70.2677 53.853C70.5373 54.1112 70.6976 54.4629 70.7154 54.8358C70.7333 55.2087 70.6075 55.5742 70.3638 55.857L49.538 79.1174C49.8298 79.0703 50.1291 79.1131 50.3961 79.2401C50.6631 79.3671 50.8852 79.5723 51.0328 79.8285C51.1804 80.0846 51.2467 80.3796 51.2227 80.6743C51.1988 80.969 51.0858 81.2494 50.8987 81.4783L40.0627 94.9588L44.1604 90.9645C44.4141 90.7018 44.7571 90.544 45.1216 90.5222C45.4862 90.5004 45.8456 90.6162 46.1288 90.8468C46.412 91.0773 46.5983 91.4058 46.6508 91.7672C46.7034 92.1285 46.6184 92.4965 46.4127 92.7981L40.718 101.788C41.0714 101.813 41.4026 101.969 41.6472 102.225C41.9161 102.502 42.0645 102.873 42.0599 103.259C42.0553 103.644 41.898 104.013 41.6226 104.282L35.0076 110.727C34.754 110.989 34.4109 111.147 34.0464 111.169C33.6819 111.191 33.3224 111.075 33.0393 110.844C32.7561 110.614 32.5698 110.285 32.5172 109.924C32.4646 109.563 32.5496 109.195 32.7554 108.893L37.3152 101.711L24.9827 113.728C24.7989 113.906 24.5717 114.032 24.3238 114.094Z" fill="#AAD742"/>
<path d="M106.894 41.7939C106.601 41.8691 106.291 41.8507 106.008 41.7415C105.725 41.6322 105.483 41.4374 105.316 41.1842C105.149 40.9311 105.065 40.6322 105.076 40.3291C105.087 40.0261 105.193 39.734 105.378 39.4936L106.448 38.0968L102.424 42.0153C102.158 42.2699 101.806 42.4145 101.438 42.4199C101.07 42.4253 100.713 42.2912 100.44 42.0445C100.167 41.7978 99.9968 41.4568 99.9646 41.0901C99.9325 40.7233 100.04 40.358 100.266 40.0674L100.568 39.6902L97.6728 42.5008C97.4109 42.7576 97.0618 42.9062 96.6951 42.9169C96.3285 42.9276 95.9713 42.7997 95.6948 42.5587C95.4183 42.3176 95.2429 41.9812 95.2035 41.6165C95.1641 41.2518 95.2637 40.8857 95.4824 40.5912L99.1051 35.674L92.7902 41.8316C92.5274 42.0861 92.1785 42.2325 91.8128 42.2417C91.4471 42.2509 91.0913 42.1222 90.8161 41.8812C90.5409 41.6401 90.3664 41.3045 90.3273 40.9407C90.2881 40.577 90.3872 40.2119 90.6048 39.9178L93.4666 36.078L89.4168 40.0242C89.1626 40.2716 88.827 40.4178 88.4727 40.4354C88.1185 40.4531 87.7699 40.3409 87.4925 40.12C87.215 39.899 87.0276 39.5845 86.9654 39.2353C86.9033 38.8861 86.9706 38.5262 87.1548 38.2231L91.1345 31.6813L86.2445 36.4394C85.9956 36.6794 85.6695 36.8231 85.3245 36.8448C84.9794 36.8666 84.6379 36.7649 84.3608 36.5581C84.0838 36.3512 83.8894 36.0526 83.8122 35.7156C83.735 35.3786 83.7802 35.0251 83.9396 34.7183L85.831 31.1191L84.2738 32.6365C84.085 32.8204 83.85 32.9496 83.5937 33.0105C83.3373 33.0714 83.0693 33.0617 82.818 32.9824C82.5668 32.903 82.3417 32.7571 82.1668 32.56C81.9919 32.363 81.8737 32.1222 81.8248 31.8633L81.2076 28.5466C80.9037 28.5907 80.5935 28.5377 80.3215 28.3951C80.0495 28.2525 79.8295 28.0275 79.6929 27.7524C79.5563 27.4773 79.5101 27.1661 79.5609 26.8632C79.6117 26.5603 79.7569 26.2811 79.9758 26.0657L81.1802 24.8875C81.3689 24.7037 81.604 24.5744 81.8603 24.5135C82.1166 24.4526 82.3847 24.4624 82.6359 24.5417C82.8872 24.621 83.1122 24.767 83.2871 24.964C83.462 25.1611 83.5802 25.4019 83.6292 25.6607L84.1871 28.6497L90.4083 22.597C90.6571 22.3551 90.9839 22.2099 91.3302 22.1875C91.6764 22.165 92.0193 22.2668 92.2972 22.4746C92.575 22.6824 92.7697 22.9825 92.8461 23.3209C92.9225 23.6593 92.8756 24.0139 92.7139 24.3209L90.819 27.918L97.3388 21.561C97.5929 21.3136 97.9286 21.1674 98.2829 21.1497C98.6371 21.1321 98.9857 21.2442 99.2631 21.4652C99.5406 21.6861 99.728 22.0007 99.7902 22.3499C99.8523 22.6991 99.785 23.059 99.6008 23.3621L95.6246 29.9059L104.66 21.1024C104.922 20.8469 105.272 20.6998 105.638 20.6905C106.005 20.6813 106.362 20.8105 106.637 21.0524C106.913 21.2943 107.087 21.6312 107.125 21.9958C107.163 22.3604 107.062 22.7261 106.843 23.0198L103.979 26.8631L109.796 21.1746C110.059 20.922 110.407 20.7769 110.771 20.7678C111.135 20.7588 111.489 20.8864 111.764 21.1257C112.039 21.3649 112.214 21.6984 112.255 22.0604C112.296 22.4224 112.2 22.7866 111.986 23.0814L108.366 28.0191L114.984 21.5888C115.251 21.3376 115.602 21.196 115.969 21.1923C116.335 21.1885 116.689 21.3228 116.961 21.5685C117.233 21.8142 117.402 22.1532 117.435 22.5181C117.468 22.883 117.363 23.2469 117.139 23.5374L116.844 23.9132L118.774 22.0395C119.038 21.784 119.388 21.6376 119.756 21.6296C120.123 21.6217 120.48 21.7527 120.754 21.9964C121.029 22.2402 121.202 22.5788 121.238 22.9444C121.274 23.31 121.17 23.6756 120.948 23.9682L119.567 25.7776C119.879 25.6304 120.232 25.5984 120.565 25.6871C120.898 25.7759 121.189 25.9797 121.385 26.2624C121.582 26.545 121.673 26.8883 121.641 27.2313C121.608 27.5743 121.456 27.8948 121.21 28.136L107.552 41.4223C107.37 41.6026 107.143 41.7308 106.894 41.7939Z" fill="#AAD742"/>
<path d="M160.653 38.9136C127.839 11.7216 75.2317 16.4956 46.474 46.4268C-39.259 138.179 104.46 253.7 177.815 154.705C204.207 119.7 195.828 64.5286 160.653 38.9136ZM104.723 23.3538C109.384 23.3139 114.04 23.6745 118.639 24.4316C118.31 44.1835 86.8213 45.8474 83.1206 26.6772C90.1332 24.5762 97.4034 23.4578 104.723 23.3538ZM48.2891 47.6167C55.0153 51.2218 69.4575 50.8575 68.4784 61.2081C65.7513 68.845 54.3286 67.2091 50.6349 74.7819C42.6561 87.2688 43.3322 109.484 24.802 110.851C24.0002 99.2453 25.6798 87.6021 29.729 76.6964C33.7782 65.7907 40.1041 55.8727 48.2855 47.6026L48.2891 47.6167ZM57.6785 172.684C48.5347 165.65 40.9235 156.822 35.3115 146.742C29.6995 136.662 26.2047 125.543 25.0413 114.065C44.0311 112.756 46.3397 92.3807 52.7331 78.3057C54.9844 73.0572 59.2846 71.3632 64.1556 69.3587C84.7652 58.4925 65.1458 47.3457 51.3838 44.5989C59.3695 37.3012 68.7233 31.6598 78.9038 28.0012C83.6614 50.5027 119.556 46.354 122.324 25.0891C134.607 27.6613 146.17 32.9179 156.183 40.4825C131.825 44.1692 120.815 77.7381 146.72 87.9765C161.407 91.4628 171.226 82.845 173.462 104.312C182.907 126.453 149.054 135.264 173.715 156.444C148.304 193.78 92.6966 200.11 57.6785 172.684ZM187.098 86.8541C189.824 97.9954 190.27 109.573 188.411 120.891C186.552 132.209 182.425 143.035 176.279 152.719C154.009 130.667 190.639 125.718 175.613 95.4471C172.795 78.8433 155.119 90.0348 145.385 83.0076C125.644 69.9609 138.684 45.578 158.815 42.6045C172.757 53.9281 182.676 69.446 187.098 86.8541Z" fill="#262626"/>
<path d="M111.069 86.3735C97.6879 77.443 80.1661 83.2993 66.733 89.2686C45.9261 101.228 56.2585 135.113 80.3696 132.749C83.4207 132.53 86.4383 130.985 89.2071 133.099C98.5751 142.415 92.7414 184.686 112.852 175.348C125.931 155.295 145.422 94.5138 111.069 86.3735ZM125.357 123.15C124.747 130.397 115.516 185.799 104.357 170.024C100.53 157.707 99.1146 144.29 94.3211 132.359C87.9197 124.043 75.6946 133.122 68.0589 125.547C63.8049 122.495 60.8666 117.944 59.8371 112.811C58.8075 107.678 59.7633 102.345 62.5116 97.8897C72.1595 87.0598 92.3548 81.9137 105.632 88.1369C122.96 93.3549 129.002 105.843 125.357 123.15Z" fill="#262626"/>
</g>
<defs>
<clipPath id="clip0_1_3439">
<rect width="174.887" height="174.887" fill="white" transform="translate(0.794556 43.3838) rotate(-14.2557)"/>
</clipPath>
</defs>
</svg>
