<svg width="1074" height="710" viewBox="0 0 1074 710" fill="none" xmlns="http://www.w3.org/2000/svg">
<path d="M536.63 710C833.003 710 1073.26 694.283 1073.26 674.896C1073.26 655.508 833.003 639.791 536.63 639.791C240.258 639.791 0 655.508 0 674.896C0 694.283 240.258 710 536.63 710Z" fill="#EFEFEF"/>
<path d="M863.978 436.342C850.403 436.342 839.807 436.342 839.807 436.342C839.807 436.342 801.379 436.342 783.068 461.828C772.033 477.208 770.177 497.274 767.492 516.023C762.316 552.397 757.091 588.771 751.915 625.145C750.255 636.814 746.3 649.654 751.525 660.2C759.24 675.775 818.762 680.072 863.88 681.097C908.998 680.121 968.667 675.775 976.382 660.2C981.607 649.654 977.7 636.765 975.991 625.145C970.815 588.771 965.591 552.397 960.415 516.023C957.729 497.274 955.923 477.208 944.838 461.828C927.358 437.514 891.615 436.391 888.343 436.342C880.189 436.342 871.595 436.342 863.978 436.342Z" fill="#AAD742"/>
<path d="M932.932 473.545C931.223 463.78 927.756 454.162 922.726 445.52C934.006 502.547 946.897 560.208 932.932 617.869C923.898 658.442 872.042 675.384 833.711 659.565C810.029 649.41 787.47 632.516 780.732 605.468C766.083 547.953 777.655 487.509 812.715 441.272C810.224 442.102 807.734 443.128 805.244 444.251C797.578 450.988 791.767 459.63 788.642 469.005C771.747 521.979 761.591 579.493 779.609 633.591C788.642 657.27 814.57 669.672 839.375 674.163C869.796 679.778 905.88 679.778 926.193 652.73C966.77 599.804 944.211 534.429 932.932 473.545Z" fill="#C5E777"/>
<path d="M921.703 443.763C922.045 444.349 922.387 444.934 922.729 445.52C922.631 445.032 922.533 444.593 922.436 444.104C922.191 443.958 921.947 443.86 921.703 443.763Z" fill="#AAD742"/>
<path d="M976.04 625.143C970.864 588.769 965.64 552.395 960.464 516.021C957.778 497.273 955.971 477.206 944.887 461.827C938.881 453.478 930.678 447.863 922.426 444.055C922.524 444.543 922.621 444.982 922.719 445.471C927.748 454.112 931.264 463.731 932.924 473.496C944.204 534.379 966.763 599.755 926.137 652.778C905.824 679.826 869.739 679.826 839.319 674.211C814.514 669.72 788.586 657.318 779.552 633.639C761.534 579.542 771.642 522.027 788.586 469.053C791.711 459.678 797.521 450.988 805.188 444.299C797.033 448.058 788.976 453.624 783.068 461.875C772.033 477.255 770.177 497.322 767.492 516.07C762.316 552.444 757.091 588.818 751.915 625.192C750.255 636.861 746.3 649.702 751.525 660.248C759.24 675.823 818.762 680.119 863.88 681.144C908.998 680.168 968.667 675.823 976.382 660.248C981.656 649.653 977.7 636.812 976.04 625.143Z" fill="#739622"/>
<path d="M812.024 452.697C796.839 452.648 787.756 463.341 784.729 473.496C781.36 484.628 781.409 496.541 780.237 507.917C777.795 531.597 775.354 555.276 772.912 578.956C772.766 580.177 770.227 580.226 770.373 579.005C773.059 552.786 775.793 526.519 778.479 500.301C779.651 489.12 779.309 476.816 785.071 466.27C789.661 457.872 799.475 450.744 812.024 450.793C813.587 450.744 813.685 452.697 812.024 452.697Z" fill="#63880F"/>
<path d="M747.331 655.219C746.257 654.585 745.329 653.852 744.645 652.974C742.79 650.679 742.839 647.749 742.936 645.015C743.718 620.798 745.524 596.582 748.21 572.414C766.57 578.907 786.248 579.2 806.121 581.544C807.83 608.495 807.781 639.742 806.463 666.644C787.664 666.986 768.816 663.715 751.872 657.27C750.31 656.684 748.698 656.049 747.331 655.219Z" fill="#CBEF78"/>
<path d="M916.818 452.697C932.004 452.648 941.086 463.341 944.114 473.496C947.483 484.628 947.434 496.541 948.606 507.917C951.047 531.597 953.489 555.276 955.93 578.956C956.077 580.177 958.616 580.226 958.469 579.005C955.784 552.786 953.049 526.519 950.364 500.301C949.192 489.12 949.534 476.816 943.772 466.27C939.182 457.872 929.367 450.744 916.818 450.793C915.256 450.744 915.158 452.697 916.818 452.697Z" fill="#63880F"/>
<path d="M981.513 655.22C982.587 654.585 983.515 653.853 984.199 652.974C986.054 650.679 986.005 647.75 985.908 645.015C985.126 620.799 983.32 596.582 980.634 572.414C962.274 578.908 942.596 579.201 922.723 581.544C921.014 608.495 921.063 639.742 922.381 666.645C941.18 666.986 960.028 663.715 976.972 657.27C978.534 656.684 980.146 656.05 981.513 655.22Z" fill="#CBEF78"/>
<path d="M898.951 444.348C898.072 444.348 897.193 444.007 896.607 443.225L889.869 434.242L837.377 433.802L831.713 443.177C830.932 444.495 829.174 444.934 827.856 444.153C826.537 443.372 826.098 441.614 826.879 440.296L834.204 428.188L892.652 428.725L901.05 439.905C901.978 441.126 901.734 442.932 900.513 443.86C900.123 444.153 899.537 444.348 898.951 444.348Z" fill="#AAD742"/>
<path d="M899.332 565.822H829.506C815.639 565.822 804.359 554.593 804.359 540.678V495.467H924.527V540.678C924.479 554.544 913.248 565.822 899.332 565.822Z" fill="#63880F"/>
<path d="M864.426 555.032C868.687 555.032 872.141 551.578 872.141 547.318C872.141 543.057 868.687 539.604 864.426 539.604C860.165 539.604 856.711 543.057 856.711 547.318C856.711 551.578 860.165 555.032 864.426 555.032Z" fill="#CBEF78"/>
<path d="M910.568 452.502C910.568 457.531 889.718 455.48 864.034 455.48C838.301 455.48 817.5 457.531 817.5 452.502C817.5 447.473 838.35 446.887 864.034 446.887C889.718 446.838 910.568 447.473 910.568 452.502Z" fill="#CBEF78"/>
<path d="M329.543 606.834C334.621 602.782 340.481 599.657 346.731 597.9C361.575 593.652 377.884 596.435 391.458 603.905C468.608 570.558 559.625 570.216 636.921 603.466C647.224 597.704 659.578 595.556 671.297 597.265C686.629 599.511 700.741 607.909 710.946 619.578C717.977 627.634 723.397 637.838 723.153 648.53C722.86 659.272 715.585 670.208 705.038 672.112C705.038 672.112 698.983 673.186 691.317 674.602C571.783 674.602 452.25 674.602 332.717 674.602C332.717 674.602 332.619 674.602 332.375 674.602C319.191 667.474 310.89 651.46 312.648 636.324C313.918 624.655 320.412 614.158 329.543 606.834Z" fill="#AAD742"/>
<path d="M701.865 631.686C691.513 613.279 668.173 601.805 647.42 607.713C660.018 607.957 672.274 612.937 683.212 618.406C697.861 626.413 701.913 647.993 691.269 654.682C654.012 674.651 610.017 661.029 568.757 666.351C532.819 670.354 502.203 650.385 468.902 653.022C427.641 657.025 375.248 680.998 333.987 655.707C323.342 649.067 323.782 629.049 334.427 621.091C359.72 602.44 381.107 619.236 410.405 617.917C410.405 617.917 406.791 615.818 401.029 606.2C400.639 608.494 400.59 610.789 400.981 613.084C382.328 605.077 362.357 599.755 342.386 606.444C326.419 613.084 318.411 631.735 323.733 646.382C333.059 674.309 371.634 670.354 396.928 670.354C426.225 670.354 454.155 657.025 483.453 662.347C552.692 675.676 619.246 667.669 687.118 662.347C699.228 660.931 708.554 644.966 701.865 631.686Z" fill="#CCCFB6"/>
<path d="M710.902 619.529C700.697 607.86 686.585 599.413 671.253 597.216C659.534 595.507 647.18 597.656 636.877 603.417C633.606 602.001 630.285 600.683 626.965 599.413C630.871 603.222 634.582 607.274 637.951 611.717C660.559 598.388 689.857 610.399 701.869 631.686C708.509 645.015 699.183 660.981 687.22 662.299C619.348 667.621 552.794 675.628 483.554 662.299C454.257 656.977 426.327 670.306 397.029 670.306C371.736 670.306 333.112 674.31 323.835 646.333C318.512 631.686 326.52 613.035 342.487 606.395C362.458 599.755 382.429 605.077 401.082 613.035C400.301 608.299 401.375 603.563 403.231 599.12C399.275 600.634 395.369 602.196 391.512 603.856C377.937 596.386 361.677 593.652 346.784 597.851C340.534 599.609 334.675 602.733 329.597 606.786C320.466 614.109 313.971 624.607 312.653 636.227C310.944 651.411 319.196 667.377 332.38 674.505C332.624 674.505 332.722 674.505 332.722 674.505C452.255 674.505 571.788 674.505 691.322 674.505C698.988 673.138 705.042 672.015 705.042 672.015C715.59 670.111 722.865 659.174 723.158 648.433C723.353 637.789 717.933 627.634 710.902 619.529Z" fill="#AAD742"/>
<path d="M621.688 615.916C612.069 617.283 602.45 618.65 592.83 620.066C591.756 620.213 591.17 621.58 591.414 622.507C591.707 623.679 592.83 624.07 593.856 623.923C603.475 622.556 613.094 621.189 622.714 619.773C623.788 619.627 624.374 618.26 624.13 617.332C623.837 616.16 622.763 615.77 621.688 615.916Z" fill="#CCCFB6"/>
<path d="M632.67 623.533C633.695 627.292 634.721 631.101 635.746 634.86C636.039 635.885 637.162 636.569 638.187 636.276C639.213 635.934 639.896 634.909 639.603 633.835C638.578 630.075 637.553 626.267 636.527 622.508C636.234 621.482 635.111 620.799 634.086 621.092C633.06 621.433 632.377 622.459 632.67 623.533Z" fill="#CCCFB6"/>
<path d="M418.759 607.323C427.011 610.79 435.263 614.207 443.466 617.674C444.443 618.113 445.664 617.234 445.908 616.258C446.201 615.086 445.517 614.207 444.492 613.817C436.24 610.35 427.988 606.932 419.784 603.466C418.808 603.026 417.587 603.905 417.343 604.882C417.001 606.005 417.733 606.932 418.759 607.323Z" fill="#CCCFB6"/>
<path d="M400.246 621.482C400.051 625.437 399.855 629.391 399.611 633.346C399.562 634.371 400.588 635.397 401.613 635.348C402.736 635.299 403.566 634.469 403.615 633.346C403.81 629.391 404.006 625.437 404.25 621.482C404.299 620.457 403.273 619.431 402.248 619.48C401.125 619.529 400.295 620.359 400.246 621.482Z" fill="#CCCFB6"/>
<path d="M706.208 498.055C700.885 478.135 664.801 441.468 640.337 418.13C619.78 398.503 597.856 435.902 607.085 449.329C616.313 462.755 681.94 516.071 689.02 528.717C693.317 534.771 709.577 510.701 706.208 498.055Z" fill="#FFC4B3"/>
<path d="M573.248 372.285C591.51 368.379 604.498 375.556 646.296 412.32C671.833 434.779 676.911 436.146 671.98 442.787C667.048 449.427 633.356 491.904 618.414 474.571C614.02 469.444 594.537 452.698 586.724 440.394C578.961 427.993 549.614 377.313 573.248 372.285Z" fill="#F5F5F5"/>
<path d="M435.892 376.58C417.972 381.902 402.813 402.661 383.721 455C372.051 486.98 399.453 526.293 406.973 529.759C414.493 533.226 440.482 510.407 445.267 487.997C446.683 481.406 455.765 457.384 456.693 442.786C457.621 428.187 459.086 369.696 435.892 376.58Z" fill="#F5F5F5"/>
<path d="M558.742 306.908H476.758V402.018H558.742V306.908Z" fill="#FFC4B3"/>
<path d="M476.758 306.908V354.512C502.832 364.862 532.423 365.741 558.742 355.293V306.908H476.758Z" fill="#C26E61"/>
<path d="M566.898 378.24C566.898 394.645 544.632 476.963 517.434 476.963C490.286 476.963 468.508 394.645 468.508 378.24C468.557 361.835 566.898 361.835 566.898 378.24Z" fill="#FFC4B3"/>
<path d="M639.565 287.183C639.565 287.183 665.591 324.387 691.373 297.339C717.154 270.29 694.4 241.533 667.935 246.317C641.469 251.102 633.12 279.762 639.565 287.183Z" fill="#FFC4B3"/>
<path d="M677.363 255.985C682.685 260.086 685.957 266.384 686.054 273.122C686.103 280.104 682.392 286.842 676.728 290.845C674.677 292.261 676.826 295.532 678.877 294.068C685.615 289.332 689.814 281.569 689.912 273.317C690.01 265.506 686.103 257.791 679.902 253.055C677.949 251.542 675.361 254.423 677.363 255.985Z" fill="#F7AB94"/>
<path d="M394.195 238.994C394.195 238.994 356.059 263.601 342.387 228.839C328.715 194.076 360.698 176.011 383.404 190.463C406.06 204.866 402.984 234.551 394.195 238.994Z" fill="#FFC4B3"/>
<path d="M370.997 195.833C364.503 197.591 359.083 202.229 356.495 208.43C353.761 214.874 354.688 222.54 358.448 228.35C359.815 230.449 356.593 232.646 355.226 230.498C350.782 223.565 349.805 214.777 352.833 207.111C355.714 199.837 362.257 194.173 369.728 192.122C372.169 191.488 373.439 195.149 370.997 195.833Z" fill="#F7AB94"/>
<path d="M497.662 348.75C528.669 354.658 550.153 350.801 571.199 346.26C592.928 341.573 614.608 331.564 630.917 313.89C652.89 290.064 692.978 172.398 688.437 146.521C683.456 117.959 672.958 94.914 648.837 78.7044C622.469 60.9813 605.525 52.9253 560.456 43.6487C515.387 34.3721 496.637 35.1045 465.435 40.9634C436.87 46.334 418.12 63.1295 402.299 87.4439C387.944 109.464 378.227 233.526 389.018 264.089C397.026 286.793 412.944 304.516 431.059 317.405C448.638 329.904 466.851 341.915 497.662 348.75Z" fill="#FFC4B3"/>
<path d="M426.665 297.583C368.021 222.199 415.776 105.9 473.443 39.5479C470.855 39.9873 468.17 40.4755 465.435 40.9638C436.87 46.3344 418.12 63.1299 402.299 87.4443C387.944 109.464 378.227 233.526 389.018 264.09C397.026 286.793 412.944 304.516 431.059 317.406C448.638 329.905 466.802 341.915 497.662 348.751C528.669 354.659 550.153 350.801 571.199 346.261C592.928 341.574 614.608 331.565 630.917 313.89C631.258 313.5 631.6 313.109 631.991 312.67C627.498 315.258 622.86 317.699 618.074 319.945C556.208 348.067 467.535 352.706 426.665 297.583Z" fill="#F7AB94"/>
<path d="M615.674 278.818C617.43 270.949 609.635 262.514 598.265 259.978C586.895 257.442 576.254 261.766 574.499 269.635C572.743 277.504 580.538 285.939 591.908 288.475C603.279 291.01 613.919 286.687 615.674 278.818Z" fill="#D26C85"/>
<path d="M460.815 248.398C462.57 240.529 454.776 232.095 443.406 229.559C432.035 227.023 421.395 231.346 419.639 239.215C417.884 247.084 425.678 255.519 437.049 258.055C448.419 260.591 459.06 256.267 460.815 248.398Z" fill="#D26C85"/>
<path d="M512.459 275.66C500.154 273.268 488.387 268.141 478.328 260.476C477.351 259.744 477.156 258.328 477.888 257.302C478.621 256.326 480.037 256.131 481.062 256.863C501.375 272.243 529.012 276.832 553.183 268.874C554.355 268.483 555.624 269.118 556.015 270.29C556.405 271.461 555.771 272.731 554.599 273.121C541.024 277.662 526.424 278.394 512.459 275.66Z" fill="#D15C58"/>
<path d="M646.688 47.1641C591.804 -6.73768 497.369 -15.7213 433.696 26.8533C370.023 69.4279 352.298 150.769 383.695 220.343C383.695 220.343 398.735 151.892 407.475 125.966C414.555 104.972 440.239 87.8834 440.239 87.8834C435.112 111.856 428.081 130.605 414.36 150.964C469.585 159.46 522.077 172.154 577.302 180.6C585.31 163.121 594.002 139.246 596.785 139.783C602.4 140.906 595.466 165.66 587.8 182.163C602.888 184.262 619.002 185.043 630.965 176.353C648.055 163.903 647.713 139.1 645.711 118.203C645.711 118.203 656.21 136.659 659.97 164.44C663.778 192.66 660.36 257.938 660.36 257.938C703.769 195.541 701.523 101.017 646.688 47.1641Z" fill="#7A4B3B"/>
<path d="M641.611 107.462C641.465 123.476 642.1 140.028 638.682 155.847C637.07 163.951 623.838 171.617 613.584 167.125C611.386 166.344 609.775 164.342 609.433 162.633C605.722 149.158 608.847 120.351 603.036 120.058C599.423 121.377 597.421 124.648 595.517 127.626C583.993 143.494 578.427 168.59 555.721 167.857C521.736 166.539 447.76 142.957 443.17 139.051C440.241 136.805 437.213 133.534 438.043 129.286C442.292 110.977 446.344 90.1293 449.323 71.5762C443.854 79.0463 438.922 86.9558 430.963 95.1582C436.286 90.5687 440.387 87.8834 440.387 87.8834C435.26 111.856 428.229 130.605 414.508 150.964C469.733 159.46 522.225 172.154 577.45 180.6C585.458 163.121 594.15 139.246 596.933 139.783C602.548 140.906 595.614 165.66 587.948 182.163C603.036 184.262 619.15 185.043 631.113 176.353C648.203 163.903 647.861 139.1 645.859 118.203C645.859 118.203 656.358 136.659 660.118 164.44C663.926 192.66 660.508 257.938 660.508 257.938C667.149 248.368 673.594 177.378 668.614 152.722C665.342 135.975 652.94 115.518 641.611 107.462Z" fill="#6E4334"/>
<path d="M496.441 142.127C501.617 136.513 506.255 130.507 510.357 124.111C514.459 117.764 518.023 111.075 520.953 104.093C522.662 100.09 524.127 96.0374 525.445 91.9362C525.689 91.2039 525.055 90.4715 524.371 90.325C523.59 90.1786 523.004 90.7156 522.76 91.3992C520.513 98.4787 517.681 105.314 514.263 111.905C510.845 118.497 506.89 124.795 502.447 130.654C499.908 134.023 497.222 137.245 494.341 140.321C493.218 141.59 495.269 143.397 496.441 142.127Z" fill="#5C382C"/>
<path d="M565.191 160.143C569.097 150.085 571.588 139.539 572.613 128.847C573.639 118.154 573.199 107.364 571.344 96.7695C570.269 90.813 568.756 84.9053 566.754 79.1928C566.168 77.5328 563.58 78.4117 564.166 80.0717C567.584 89.983 569.635 100.334 570.221 110.831C570.807 121.279 570.025 131.825 567.779 142.078C566.558 147.791 564.849 153.405 562.75 158.874C562.506 159.557 562.652 160.387 563.385 160.729C563.97 161.071 564.898 160.827 565.191 160.143Z" fill="#5C382C"/>
<path d="M599.568 132.899C596.491 134.364 594.831 138.026 593.318 141.004C586.726 153.21 583.259 166.051 575.397 177.573C523.932 166.539 472.71 157.116 421 147.4C438.432 111.71 444.243 91.643 452.69 61.6162C448.589 73.9687 428.08 130.556 414.359 150.915C469.585 159.411 522.076 172.105 577.302 180.552C585.31 163.073 594.001 139.198 596.784 139.735C602.4 140.858 595.466 165.612 587.8 182.114C601.667 184.018 616.365 184.848 627.937 178.208C617.39 181.382 605.72 180.649 594.782 178.501C600.3 164.733 607.136 146.521 599.568 132.899Z" fill="#5C382C"/>
<path d="M639.172 93.3027C638.781 97.0134 639.026 100.578 639.319 104.142C643.371 129.237 643.42 156.774 628.625 177.915C629.406 177.427 630.188 176.938 630.92 176.401C648.01 163.902 642.444 102.042 639.172 93.3027Z" fill="#6E4334"/>
<path d="M640.042 63.9112L634.866 59.1753C633.157 57.6129 631.35 55.4647 629.202 54.4882C626.907 53.4141 625.198 53.9511 623.879 55.1717C623.489 54.537 623.049 53.9511 622.61 53.3652C620.266 50.387 616.653 45.9928 612.356 47.5552C611.965 47.7016 611.574 47.8969 611.281 48.1411C610.695 45.6022 610.012 43.0634 609.182 40.5733C608.059 37.3021 602.492 36.6186 601.271 40.2316C600.002 43.9422 598.928 47.7016 598.097 51.5099C597.853 51.7052 597.56 51.9005 597.365 52.1446C596.437 51.0217 595.363 50.094 594.045 49.3617C587.209 45.4069 577.98 52.1935 580.91 56.6365C582.082 58.3941 591.213 56.5876 593.117 62.3977C593.605 63.8624 594.728 64.6924 595.998 65.0342C595.851 66.8407 595.705 68.6472 595.656 70.5025C595.558 72.6019 597.805 74.3596 599.709 74.4084C601.809 74.4573 603.762 73.0902 604.152 70.9419C604.348 69.9166 604.494 68.8913 604.592 67.8172C604.543 69.526 604.396 71.2349 604.201 72.9437C603.566 78.412 611.428 79.8767 612.649 74.5061C613.479 70.8443 614.358 67.2313 615.188 63.5695C615.529 62.1048 615.822 60.64 616.164 59.1265C616.408 59.4683 616.604 59.7612 616.799 60.0541C618.069 62.0071 618.899 64.1065 619.533 66.3525C620.559 69.9654 626.028 69.9654 627.444 66.6942C627.688 66.0595 627.981 65.4736 628.225 64.8389C628.713 65.2783 629.153 65.7177 629.641 66.1083C631.252 67.5731 632.913 69.0866 634.524 70.5513C638.626 74.262 644.143 67.6219 640.042 63.9112Z" fill="#996B5C"/>
<path d="M551.808 34.6161C549.855 34.4208 547.852 34.2255 545.899 34.0302C544.093 33.8349 542.14 33.8349 540.333 33.4931V33.4443C540.186 32.9561 539.845 32.4678 539.552 32.0284C538.526 30.4172 537.061 29.2455 535.255 28.6107C532.423 27.6343 529.249 28.1713 526.465 29.0013C525.391 29.3431 524.268 29.7337 523.145 29.8313C522.95 29.8313 522.168 29.8313 522.071 29.8313C522.022 29.8313 522.022 29.8313 521.973 29.8313C520.655 27.439 517.188 26.8042 515.235 28.7572L509.473 34.5185C509.571 30.9055 508.448 27.6343 505.322 25.6325C504.297 24.9489 502.832 24.8513 501.563 25.2907C501.953 23.8748 502.344 22.4589 502.686 21.043C503.906 16.5024 497.266 13.0847 494.922 17.5765C494.141 19.09 493.311 20.5548 492.529 22.0683C490.478 21.2871 488.672 22.1171 487.353 23.826C486.67 24.7048 485.986 25.5836 485.303 26.5113C484.375 25.6813 483.056 25.2419 481.543 25.486C479.394 25.7789 477.685 27.1948 476.513 28.9037C475.634 30.2708 475.195 32.0772 474.463 33.249C472.363 36.6179 466.894 33.7373 464.257 32.6143C462.109 31.6867 459.521 33.4443 458.886 35.4949C458.154 37.9361 459.619 39.9379 461.767 40.8656C466.259 42.8186 471.24 44.2833 475.879 42.5744C476.025 44.0392 476.806 45.3086 478.32 45.9433C478.857 46.1874 479.492 46.2851 480.078 46.2851C480.029 49.361 483.691 51.5092 486.279 50.2886C486.133 51.8998 486.23 53.4622 486.767 55.0246C487.353 56.6846 488.428 58.0028 490.283 58.247C491.846 58.4911 493.896 57.8076 494.629 56.294C496.68 52.0951 498.731 47.8963 500.781 43.7462C500.977 44.7227 501.318 45.6504 501.807 46.5292C503.125 48.9216 506.592 49.6051 508.545 47.6033C511.866 44.2833 515.186 40.9632 518.506 37.6432C519.971 38.2779 521.68 38.522 523.389 38.4244C524.903 38.3267 526.368 38.0338 527.784 37.6432C528.809 37.3503 531.104 36.2273 532.178 36.7644C532.471 36.9108 532.911 37.985 533.253 38.5709C534.327 40.2797 535.889 41.4027 537.843 41.8909C542.237 42.9162 547.022 42.9162 551.466 43.3556C557.032 43.795 557.277 35.202 551.808 34.6161Z" fill="#996B5C"/>
<path d="M476.662 350.117C348.828 327.561 356.787 259.353 356.885 258.67L359.522 259.012C359.424 259.695 352.002 325.412 477.151 347.481L476.662 350.117Z" fill="#B3B3B3"/>
<path d="M478.127 354.853L464.943 352.51C461.818 351.973 459.719 348.946 460.256 345.821C460.793 342.696 463.82 340.597 466.945 341.134L480.129 343.477C483.254 344.015 485.354 347.042 484.817 350.166C484.231 353.291 481.252 355.391 478.127 354.853Z" fill="#B3B3B3"/>
<path d="M702.251 222.492C710.503 223.957 716.118 231.915 714.653 240.166L705.913 289.723C704.448 297.974 696.489 303.589 688.237 302.124C679.984 300.659 674.369 292.701 675.834 284.45L684.574 234.893C685.99 226.593 693.95 221.027 702.251 222.492Z" fill="#999999"/>
<path d="M686.921 190.951C702.253 193.636 712.605 208.43 709.919 223.761L696.589 299.194C693.903 314.525 679.108 324.875 663.776 322.19C648.444 319.505 650.739 306.957 653.424 291.577L666.754 216.144C669.44 200.813 671.54 188.266 686.921 190.951Z" fill="#8A9091"/>
<path d="M664.606 316.82C658.649 314.916 658.063 311.01 661.14 293.579L674.519 217.609C675.739 210.676 676.911 204.085 679.157 200.325C680.427 198.177 682.185 196.175 688.093 197.249C689.119 197.445 690.095 197.689 691.072 197.982C701.863 201.4 708.455 212.385 706.502 223.517L693.269 298.95C691.121 311.254 679.304 319.505 666.999 317.357C666.12 317.21 665.339 317.015 664.606 316.82Z" fill="#949A9C"/>
<path d="M673.983 311.4C673.397 309.789 691.024 204.329 691.708 204.573C699.569 207.063 704.403 215.119 702.987 223.223L689.657 298.657C688.876 303.002 686.483 306.81 682.821 309.349C679.257 311.937 674.13 311.497 673.983 311.4Z" fill="#A9AEB0"/>
<path d="M352.442 160.143C344.141 158.874 336.329 164.684 335.059 172.984L327.588 222.735C326.319 231.036 332.129 238.847 340.43 240.117C348.731 241.386 356.544 235.576 357.813 227.276L365.284 177.524C366.505 169.224 360.743 161.412 352.442 160.143Z" fill="#999999"/>
<path d="M377 135.096C361.57 132.801 347.068 143.494 344.773 158.922L333.396 234.697C331.101 250.126 341.795 264.626 357.225 266.921C372.655 269.216 374.461 256.619 376.756 241.191L388.133 165.416C390.428 150.036 392.43 137.44 377 135.096Z" fill="#8A9091"/>
<path d="M358.105 261.502C364.355 261.599 366.113 258.084 368.75 240.556L380.225 164.244C381.25 157.262 382.275 150.671 381.299 146.374C380.762 143.933 379.736 141.492 373.779 140.613C372.754 140.467 371.728 140.369 370.752 140.369C359.472 140.223 349.658 148.523 347.997 159.703L336.62 235.478C334.765 247.831 343.31 259.402 355.712 261.306C356.543 261.453 357.373 261.502 358.105 261.502Z" fill="#949A9C"/>
<path d="M350.934 253.445C352.008 252.127 368.805 146.521 368.073 146.521C359.821 146.423 352.692 152.477 351.422 160.631L340.045 236.406C339.41 240.751 340.484 245.145 343.121 248.71C345.807 252.225 350.787 253.445 350.934 253.445Z" fill="#A9AEB0"/>
<path d="M670.71 74.8961C649.47 37.2527 612.604 13.4754 561.236 4.14998L560.161 3.95469C508.696 -4.88247 465.97 4.88235 433.108 33.005C395.998 64.7407 380.666 111.758 374.563 139.588C377.492 140.32 380.422 141.199 383.303 142.127C389.114 115.762 403.665 70.4531 438.48 40.7192C469.34 14.3054 509.868 5.27294 558.99 13.8172C608.014 22.6055 643.024 44.9181 662.995 80.2667C685.31 119.717 683.748 166.783 680.281 193.734C683.259 194.271 686.287 194.71 689.265 195.15C693.074 166.881 694.734 117.471 670.71 74.8961Z" fill="#8A9091"/>
<path d="M611.919 391.082C608.647 372.48 558.939 361.641 558.939 361.641C558.939 361.641 549.662 391.912 518.363 391.912C487.063 391.912 476.76 361.641 476.76 361.641C476.76 361.641 427.003 372.48 423.732 391.082C420.46 409.684 444.435 535.943 432.033 605.956C428.371 626.56 482.424 626.121 517.825 626.023C553.226 626.121 606.352 626.658 603.618 605.956C594.633 538.189 615.19 409.684 611.919 391.082Z" fill="#F5F5F5"/>
<path d="M601.376 555.423C546.102 557.23 490.827 554.593 435.602 553.519C435.602 555.765 435.602 558.011 435.602 560.257C490.827 560.355 546.102 562.015 601.327 562.405C601.327 560.111 601.376 557.767 601.376 555.423Z" fill="#4259CC"/>
<path d="M505.276 402.36C535.697 411.051 558.744 390.3 569.242 364.326C563.187 362.568 558.939 361.641 558.939 361.641C558.939 361.641 549.662 391.912 518.362 391.912C487.063 391.912 476.76 361.641 476.76 361.641C476.76 361.641 472.561 362.568 466.555 364.277C473.928 381.61 487.698 397.185 505.276 402.36Z" fill="white"/>
<path d="M439.014 608.837C433.594 595.167 438.965 508.211 433.252 456.848C431.836 444.349 433.203 421.646 424.414 412.32C428.32 455.774 442.09 549.272 432.031 605.908C429.443 620.653 456.348 624.607 484.815 625.633C471.583 622.264 444.434 622.508 439.014 608.837Z" fill="white"/>
<path d="M610.503 425.552C594.682 484.531 599.614 548.1 592.778 608.3C587.992 614.599 582.328 619.628 576.078 623.631C592.875 621.141 604.936 616.063 603.569 605.957C596.977 556.059 606.401 473.204 610.503 425.552Z" fill="#D1DAEB"/>
<path d="M427.446 583.449C427.446 583.449 426.274 560.355 432.183 553.519C438.091 546.733 603.133 549.76 606.941 553.519C610.75 557.279 610.799 575.295 610.506 583.449C610.213 591.602 573.201 632.614 514.899 632.614C456.548 632.614 432.183 601.807 427.446 583.449Z" fill="white"/>
<path d="M427.586 571.682C427.195 578.029 427.488 583.448 427.488 583.448C432.225 601.806 456.59 632.614 514.892 632.614C573.194 632.614 610.206 591.602 610.499 583.448C610.597 580.763 610.646 577.052 610.548 573.146C579.2 576.369 544.727 591.797 514.843 602.49C486.474 588.282 458.983 576.564 427.586 571.682Z" fill="#9D9D9D" fill-opacity="0.34"/>
<path d="M501.614 644.187C501.614 644.187 471.144 628.661 456.789 644.187C448.781 652.877 453.615 659.078 427.784 658.248C401.954 657.418 377.832 685.004 404.346 693.694C430.86 702.385 509.524 695.159 523.977 683.099C538.479 671.089 521.585 647.409 501.614 644.187Z" fill="#F2F2F2"/>
<path d="M501.616 644.187C501.616 644.187 492.192 639.402 481.401 637.791C488.97 651.022 494.194 666.109 500.542 679.536C470.122 681.782 439.652 688.568 408.06 682.904C403.861 682.221 397.952 678.901 395.12 674.36C390.677 681.733 392.191 689.691 404.349 693.695C430.863 702.385 509.527 695.159 523.98 683.1C538.482 671.089 521.587 647.409 501.616 644.187Z" fill="#CACACA"/>
<path d="M481.789 627.342C518.704 608.984 555.57 590.578 592.484 572.22C607.67 564.652 623.247 556.987 640.093 555.034C656.939 553.081 675.591 558.012 685.748 571.585C697.662 587.453 694.439 610.986 682.916 627.147C671.392 643.308 653.228 653.365 635.063 661.373C597.904 677.68 558.206 687.298 518.704 696.819L481.789 627.342Z" fill="#F5F5F5"/>
<path d="M639.217 573.538C636.971 571.292 633.602 571.292 630.184 572.415C581.795 592.238 531.208 609.863 487.945 639.011L491.754 646.189C537.507 632.615 581.502 617.724 624.569 597.218C632.479 593.849 646.005 584.817 639.217 573.538Z" fill="white"/>
<path d="M685.7 571.585C675.544 558.012 656.891 553.081 640.045 555.034C623.199 556.987 607.623 564.652 592.437 572.22C590.63 573.099 588.824 574.026 587.017 574.905C594.244 572.024 601.519 568.9 608.795 565.628C630.23 556.596 665.192 553.227 674.177 579.153C678.669 591.554 675.3 606.201 666.266 615.234C624.273 656.148 568.657 674.604 512.992 686.078L518.656 696.77C558.11 687.249 597.808 677.631 635.016 661.324C653.18 653.365 671.296 643.259 682.868 627.098C694.392 610.986 697.614 587.453 685.7 571.585Z" fill="#F2EDED" fill-opacity="0.34"/>
<path d="M685.704 571.585C679.063 562.747 668.858 557.621 657.872 555.619C667.93 561.917 676.134 570.462 680.919 581.447C687.706 598.34 682.481 616.063 668.956 626.219C625.693 662.251 569.393 680.609 514.852 689.641L518.66 696.818C558.114 687.298 597.812 677.679 635.02 661.372C653.184 653.414 671.3 643.307 682.872 627.146C694.396 610.986 697.618 587.452 685.704 571.585Z" fill="#E3E3E3" fill-opacity="0.89"/>
<path d="M544.676 650.582C544.676 650.582 575.146 635.056 589.501 650.582C597.509 659.273 592.675 665.473 618.506 664.643C644.336 663.862 668.458 691.399 641.944 700.09C615.429 708.78 536.766 701.554 522.313 689.495C507.859 677.533 524.754 653.853 544.676 650.582Z" fill="white"/>
<path d="M544.676 650.582C544.676 650.582 554.1 645.797 564.891 644.186C557.323 657.418 552.098 672.504 545.75 685.931C576.171 688.177 606.64 694.963 638.233 689.3C642.432 688.616 648.34 685.296 651.172 680.756C655.616 688.128 654.102 696.086 641.944 700.09C615.429 708.781 536.766 701.555 522.313 689.495C507.859 677.533 524.754 653.853 544.676 650.582Z" fill="#DAD8D8"/>
<path d="M564.555 633.786C527.64 615.429 490.774 597.022 453.859 578.664C438.674 571.096 423.097 563.431 406.251 561.478C389.405 559.525 370.753 564.456 360.596 578.029C348.682 593.897 351.905 617.43 363.428 633.591C374.952 649.752 393.116 659.81 411.281 667.817C448.439 684.124 488.137 693.743 527.64 703.263L564.555 633.786Z" fill="#F5F5F5"/>
<path d="M407.136 579.981C409.382 577.736 412.751 577.736 416.169 578.858C464.559 598.681 515.145 616.307 558.408 645.455L554.599 652.632C508.846 639.059 464.852 624.167 421.784 603.661C413.874 600.292 400.349 591.26 407.136 579.981Z" fill="white"/>
<path d="M360.651 577.98C370.807 564.407 389.46 559.476 406.306 561.429C423.152 563.382 438.728 571.047 453.914 578.615C455.721 579.494 457.528 580.421 459.334 581.3C452.108 578.42 444.832 575.295 437.556 572.024C416.121 562.991 381.159 559.622 372.174 585.548C367.682 597.949 371.051 612.597 380.085 621.629C422.078 662.544 477.694 680.999 533.359 692.473L527.695 703.165C488.241 693.645 448.543 684.026 411.335 667.719C393.171 659.761 375.055 649.654 363.483 633.493C351.959 617.43 348.737 593.897 360.651 577.98Z" fill="#F2EDED" fill-opacity="0.34"/>
<path d="M360.643 577.981C367.284 569.144 377.489 564.017 388.476 562.015C378.417 568.314 370.213 576.858 365.428 587.843C358.641 604.736 363.866 622.46 377.391 632.615C420.654 668.647 476.954 687.005 531.496 696.038L527.687 703.215C488.233 693.694 448.535 684.076 411.327 667.768C393.163 659.81 375.048 649.703 363.475 633.543C351.951 617.431 348.729 593.898 360.643 577.981Z" fill="#E3E3E3" fill-opacity="0.89"/>
<path d="M516.656 574.416C492.583 574.416 468.559 573.732 444.633 572.414L444.877 567.922C492.29 570.558 540.386 570.558 587.799 567.971L588.043 572.463C564.41 573.781 540.533 574.416 516.656 574.416Z" fill="#4259CC"/>
<path d="M406.668 559.009C407.546 557.495 408.377 556.128 409.06 555.249C409.841 554.273 422.635 543.971 424.832 544.703C416.727 552.564 415.727 556.568 414.138 562C411.795 567.664 411.209 573.9 414.138 573.998C416.629 574.047 419.021 572.631 420.388 570.483C423.66 577.074 427.957 570.483 428.836 566.723C429.715 563.061 432.205 559.985 434.744 557.251C437.283 554.517 440.799 552.466 444.559 552.564C448.27 552.662 451.59 554.81 454.862 556.568C460.868 559.839 467.46 562.085 474.198 563.257C477.763 563.842 481.718 564.087 484.843 562.231C487.968 560.376 489.677 555.786 487.333 553.004C486.161 551.588 484.306 551.002 482.645 550.318C471.171 545.68 459.598 532.937 455.008 523.026C451.493 515.409 428.787 520.096 419.754 524.832C414.675 527.517 391.042 541.383 390.261 544.703C389.87 546.363 392.898 546.998 394.607 546.901C396.316 546.803 397.927 546.022 399.49 545.24C407.937 541.042 416.629 537.331 424.832 532.644C405.593 543.532 403.787 546.461 400.857 551.881C398.025 557.056 392.947 567.895 397.146 568.676C400.32 569.213 404.08 563.403 406.668 559.009Z" fill="#FFC4B3"/>
<path d="M420.221 570.119C420.221 570.119 420.856 567.971 422.126 562.356C423.395 556.741 430.524 550.638 436.921 544.779C436.921 544.779 426.13 551.273 423.102 557.474C420.026 563.625 420.221 570.119 420.221 570.119Z" fill="#C26E61"/>
<path d="M453.23 527.886C449.079 519.049 431.227 504.5 431.227 504.5L407.727 508L426.667 529.253C426.667 529.253 457.624 537.212 453.23 527.886Z" fill="#FFC4B3"/>
<path d="M699.906 419.74H515.772C510.547 419.74 505.274 424.037 504.102 429.261L474.511 559.524C473.339 564.748 476.611 569.044 481.836 569.044H665.97C671.194 569.044 676.468 564.748 677.64 559.524L707.23 429.261C708.451 424.037 705.131 419.74 699.906 419.74Z" fill="#B1B5B5"/>
<path d="M705.031 419.74H520.897C515.672 419.74 510.399 424.037 509.227 429.261L479.636 559.524C478.464 564.748 481.736 569.044 486.961 569.044H671.095C676.319 569.044 681.593 564.748 682.765 559.524L712.355 429.261C713.576 424.037 710.256 419.74 705.031 419.74Z" fill="#7D8384"/>
<path d="M605.711 559.719C628.905 559.719 649.12 543.9 654.686 521.392L670.702 456.602C673.925 442.492 663.183 429.114 648.729 429.114H520.895C520.065 429.114 518.551 430.335 518.307 431.36L489.156 559.768H605.711V559.719Z" fill="#808687"/>
<path d="M600.926 551.419C622.313 551.419 640.965 536.82 646.092 516.07L660.839 456.358C663.769 443.371 653.905 431.019 640.624 431.019H522.751C522.018 431.019 520.602 432.142 520.358 433.118L493.453 551.468H600.926V551.419Z" fill="#858B8C"/>
<path d="M590.14 546.439C603.324 546.439 614.75 527.251 617.924 512.701L630.864 453.136C631.352 450.402 630.375 448.449 629.692 447.521C629.008 446.545 627.543 444.982 625.053 444.982H520.217L501.711 546.488H590.14V546.439Z" fill="#8A9091"/>
<path d="M417.826 576.368H673.299C675.301 576.368 676.962 574.708 676.962 572.706C676.962 570.704 675.301 569.044 673.299 569.044H417.826C415.824 569.044 414.164 570.704 414.164 572.706C414.164 574.708 415.824 576.368 417.826 576.368Z" fill="#B1B5B5"/>
<path d="M472.373 576.368H673.304C675.306 576.368 676.967 574.708 676.967 572.706C676.967 570.704 675.306 569.044 673.304 569.044H472.373C470.371 569.044 468.711 570.704 468.711 572.706C468.711 574.708 470.371 576.368 472.373 576.368Z" fill="#7D8384"/>
<path d="M462.602 572.706C462.602 573.536 461.967 574.171 461.137 574.171C460.307 574.171 459.672 573.536 459.672 572.706C459.672 571.876 460.307 571.241 461.137 571.241C461.967 571.241 462.602 571.876 462.602 572.706Z" fill="#F15A24"/>
<path d="M657.131 493.222C659.816 492.929 665.187 493.563 666.359 493.856C667.678 494.198 683.67 500.059 683.719 502.5C679.08 502.159 665.92 499.422 661.281 500.155C651.613 501.668 647.169 504.402 648.195 507.283C649.074 509.724 651.515 511.433 654.298 511.872C648.537 517.78 657.179 519.196 661.525 518.464C665.724 517.78 684.524 524.86 688.235 529.547C690.676 532.623 704.153 529.693 706.643 516.413C708.694 505.379 707.034 498.202 703.762 493.759C700.442 489.316 674.123 471.202 670.266 471.837C668.312 472.178 668.849 475.352 669.631 476.963C670.412 478.574 671.828 479.795 673.244 480.967C680.91 487.411 691.234 494.426 687.719 495.5C686.596 495.842 677.59 485.947 666.701 485.117C660.109 484.628 646.681 484.189 647.462 488.583C648.048 491.903 651.466 493.759 657.131 493.222Z" fill="#FFC4B3"/>
<path d="M654.352 511.873C654.352 511.873 656.891 511.58 663.336 510.457C669.781 509.334 679.01 513.679 687.653 517.39C687.653 517.39 676.666 509.676 668.903 509.285C661.139 508.895 654.352 511.873 654.352 511.873Z" fill="#C26E61"/>
</svg>
