<svg width="891" height="721" viewBox="0 0 891 721" fill="none" xmlns="http://www.w3.org/2000/svg">
<path d="M448.294 245.06C441.86 246.523 435.975 249.57 431.492 254.536C421.215 265.961 421.825 284.059 428.717 297.739C435.639 311.449 447.654 321.747 459.333 331.71C471.012 341.673 482.996 352.032 489.827 365.773C494.34 374.852 496.414 385.119 501.781 393.711C505.928 400.353 515.106 406.965 522.577 407.604C535.598 384.906 532.305 349.625 528.341 321.138C523.98 289.695 505.684 258.161 475.861 247.224C467.2 244.024 457.229 243.019 448.294 245.06Z" fill="#00715B"/>
<path d="M437.651 303.954C425.697 290.518 423.715 267.119 437.651 256.668C462.565 237.748 500.438 254.688 512.392 282.566C528.523 321.168 533.128 366.93 520.107 407.208C520.961 407.422 521.784 407.543 522.577 407.604C535.598 384.906 532.304 349.625 528.34 321.138C523.979 289.695 505.683 258.161 475.86 247.224C467.169 244.024 457.198 243.019 448.263 245.06C441.829 246.523 435.943 249.57 431.461 254.536C421.184 265.961 421.794 284.059 428.686 297.739C435.608 311.449 447.622 321.747 459.302 331.71C470.981 341.673 482.965 352.032 489.796 365.773C494.309 374.852 496.382 385.119 501.749 393.711C503.244 396.118 505.409 398.525 507.909 400.627C501.2 388.836 498.212 373.542 493.912 361.202C484.49 334.818 456.1 324.367 437.651 303.954Z" fill="#005E4C"/>
<path d="M501.934 385.089C498.457 369.673 498.457 353.738 486.992 342.282C473.544 328.359 457.595 318.883 445.154 303.954C437.195 294.997 430.212 281.043 436.189 271.11C450.643 245.731 484.522 258.679 505.928 272.603C506.508 272.999 507.057 273.426 507.606 273.852C492.328 251.428 459.852 239.82 437.652 256.669C423.717 267.119 425.699 290.518 437.652 303.954C456.101 324.367 484.491 334.818 493.944 361.203C498.244 373.542 501.232 388.837 507.941 400.627C510.838 403.095 514.223 405.167 517.547 406.386C510.137 401.024 504.19 393.681 501.934 385.089Z" fill="#006954"/>
<path d="M451.615 253.835C465.032 267.972 475.522 284.607 484.274 301.943C493.666 320.528 501.137 340.058 507.48 359.892C513.548 378.843 518.61 398.159 522.849 417.598C528.246 442.215 531.631 467.199 533.949 492.273C536.266 517.47 537.486 542.788 538.553 568.076C538.675 571.215 538.828 574.383 538.95 577.521C539.041 579.38 541.938 579.593 541.847 577.735C540.779 552.294 539.682 526.823 537.608 501.444C535.565 476.156 532.515 450.898 527.545 425.976C523.489 405.685 518.336 385.546 512.298 365.742C506.199 345.816 499.063 326.165 490.098 307.336C481.59 289.451 471.436 272.085 458.415 257.064C456.89 255.328 455.366 253.621 453.749 251.946C452.53 250.575 450.334 252.494 451.615 253.835Z" fill="#005544"/>
<path d="M640.273 369.246C641.219 369.003 642.195 368.789 643.14 368.607C653.294 366.504 663.662 365.865 673.878 364.037C684.093 362.239 694.339 359.131 702.512 352.764C710.684 346.396 716.478 336.281 715.502 325.983C714.526 315.685 707.513 310.962 694.766 306.788L640.273 369.246Z" fill="#005544"/>
<path d="M698.544 308.098C685.065 303.01 669.788 302.005 655.639 305.112C631.152 310.475 610.02 326.683 594.681 346.518C579.983 365.499 570.073 387.71 561.656 410.225C580.136 394.382 610.63 396.301 632.067 382.835C649.205 372.08 658.597 352.824 670.672 336.585C679.18 325.129 691.225 314.344 704.49 310.718C702.569 309.743 700.587 308.86 698.544 308.098Z" fill="#00715B"/>
<path d="M641.977 372.232C622.98 389.812 596.114 390.3 572.482 398.16C571.567 398.617 570.164 400.019 568.304 400.476C581.752 378.722 589.162 354.196 606.299 334.757C610.691 329.883 615.417 325.465 620.357 321.382C610.66 328.42 602 337.042 594.681 346.518C579.983 365.499 570.073 387.71 561.656 410.225C580.136 394.382 610.63 396.302 632.067 382.835C643.807 375.462 651.918 364.128 659.725 352.489C654.053 359.253 648.381 366.139 641.977 372.232Z" fill="#005E4C"/>
<path d="M698.545 308.098C690.861 305.204 682.566 303.62 674.272 303.376C678.999 304.96 691.562 305.57 691.532 310.475C691.501 315.38 672.564 327.323 663.752 336.129C655.427 344.934 651.707 356.481 643.839 365.743C639.661 370.831 635.514 376.376 629.019 377.321C611.424 379.636 595.689 382.165 581.784 394.2C579.649 395.388 573.764 398.282 575.045 394.382C576.661 389.416 579.283 383.627 582.516 377.625C591.969 360.167 603.465 345.299 612.735 328.177C610.54 330.279 608.405 332.472 606.331 334.757C589.194 354.196 581.784 378.722 568.336 400.476C570.196 400.019 571.568 398.617 572.514 398.16C596.146 390.3 623.012 389.843 642.009 372.233C648.413 366.139 654.085 359.253 659.787 352.459C663.386 347.097 666.923 341.674 670.735 336.555C679.243 325.099 691.288 314.314 704.553 310.688C702.571 309.744 700.588 308.86 698.545 308.098Z" fill="#006954"/>
<path d="M677.752 311.48C659.974 317.483 643.05 325.952 627.528 336.494C612.007 347.066 597.888 359.65 585.66 373.847C573.401 388.076 563.003 403.888 554.983 420.828C545.591 440.663 539.706 461.929 535.955 483.5C531.991 506.32 530.283 529.445 528.88 552.539C528.697 555.434 528.514 558.359 528.362 561.253C528.27 562.929 530.862 562.929 530.954 561.253C532.326 538.372 533.698 515.46 537.083 492.792C540.376 470.795 545.56 448.889 554.404 428.415C561.753 411.414 571.45 395.418 583.098 381.007C594.747 366.596 608.256 353.647 623.229 342.71C638.201 331.802 654.607 322.814 671.958 316.294C674.123 315.472 676.288 314.71 678.453 313.979C680.008 313.461 679.338 310.962 677.752 311.48Z" fill="#005544"/>
<path d="M372.18 381.068C375.778 371.836 383.432 364.128 391.879 361.325C405.723 356.694 420.452 361.446 434.174 366.626C448.018 371.866 466.528 373.055 478.756 382.378C491.564 392.158 497.937 410.865 502.176 428.292C491.442 432.771 479.427 431.065 468.297 427.866C456.617 424.514 445.152 419.639 433.168 418.847C421.702 418.086 410.236 421.071 398.801 420.066C387.366 419.061 374.985 412.601 371.143 399.775C369.252 393.498 369.862 386.978 372.18 381.068Z" fill="#00715B"/>
<path d="M471.436 427.591C470.033 427.591 467.258 427.134 465.886 426.189C446.431 408.61 419.565 419.7 396.39 417.384C387.12 416.47 378.795 410.438 375.532 401.633C372.3 393.315 373.672 384.053 379.252 377.106C388.065 365.529 402.885 365.529 415.845 367.387C419.565 367.844 423.713 369.703 427.89 370.617C443.168 376.162 460.336 372.475 474.211 383.108C480.31 387.496 485.798 392.188 490.952 397.123C487.659 391.243 483.664 386.125 478.724 382.316C466.496 372.993 447.986 371.805 434.142 366.564C420.419 361.385 405.691 356.632 391.846 361.263C383.4 364.097 375.746 371.805 372.147 381.006C369.86 386.917 369.22 393.437 371.11 399.713C374.953 412.54 387.333 418.999 398.769 420.004C410.204 421.01 421.7 417.994 433.135 418.786C445.119 419.608 456.585 424.483 468.264 427.804C479.395 430.973 491.379 432.709 502.143 428.231C502.021 427.743 501.899 427.225 501.777 426.738C491.562 425.641 481.682 427.591 471.436 427.591Z" fill="#005E4C"/>
<path d="M501.782 426.768C501.721 426.554 501.66 426.341 501.629 426.128C499.586 426.189 497.543 426.311 495.5 426.402C497.574 426.433 499.678 426.554 501.782 426.768Z" fill="#00715B"/>
<path d="M463.083 422.96C460.857 421.802 458.631 420.827 456.344 419.943C459.668 421.436 462.839 423.478 465.858 426.189C467.261 427.103 470.036 427.591 471.408 427.591C476.073 427.591 480.678 427.195 485.252 426.859C477.415 426.981 469.822 426.311 463.083 422.96Z" fill="#00715B"/>
<path d="M394.986 414.155C382.026 414.155 372.756 399.805 375.989 387.313C379.221 372.963 396.359 367.875 410.721 370.647C424.626 373.42 436.672 375.735 450.577 376.68C465.793 377.99 477.717 386.399 489.335 395.661C484.639 391.304 479.668 387.1 474.179 383.17C460.274 372.536 443.136 376.223 427.859 370.678C423.681 369.764 419.534 367.905 415.814 367.448C402.854 365.59 388.003 365.59 379.221 377.167C373.671 384.084 372.268 393.346 375.531 401.663C378.763 410.468 387.119 416.47 396.389 417.415C412.246 418.999 429.81 414.307 445.576 416.806C429.048 413.302 411.636 414.856 394.986 414.155Z" fill="#006954"/>
<path d="M392.057 390.755C403.37 390.786 414.684 391.822 425.814 393.863C436.975 395.904 447.922 398.951 458.534 402.942C468.475 406.69 478.355 411.107 487.198 417.018C491.406 419.821 495.34 423.02 498.786 426.707C500.707 428.779 502.567 430.911 503.818 433.44C504.336 434.476 504.488 434.903 504.885 435.999C505.281 437.035 505.617 438.102 505.922 439.168C506.653 441.666 507.263 444.226 507.751 446.785C509.002 453 509.794 459.277 510.435 465.553C511.167 472.774 511.654 479.994 512.051 487.246C512.447 494.497 512.691 501.748 512.874 509.03C513.027 515.428 513.118 521.857 513.149 528.255C513.179 532.916 513.179 537.608 513.179 542.27C513.179 543.032 513.179 543.824 513.179 544.586C513.179 546.17 515.619 546.17 515.619 544.586C515.619 540.411 515.619 536.268 515.619 532.094C515.588 525.939 515.527 519.755 515.405 513.6C515.253 506.379 515.039 499.189 514.734 491.968C514.399 484.565 513.942 477.161 513.301 469.757C512.691 463.055 511.959 456.352 510.801 449.71C509.916 444.652 508.88 439.534 507.019 434.72C506.349 432.983 505.556 431.216 504.458 429.693C501.683 425.793 498.146 422.319 494.456 419.303C486.253 412.631 476.739 407.787 467.042 403.673C456.521 399.195 445.604 395.63 434.444 393.101C423.283 390.542 411.909 388.988 400.473 388.47C397.668 388.348 394.862 388.257 392.057 388.257C390.502 388.287 390.502 390.725 392.057 390.755Z" fill="#005544"/>
<path d="M549.718 651.954C562.068 644.946 572.558 633.521 578.931 619.506C588.262 598.971 588.598 573.348 579.816 552.508C576.98 545.775 573.137 539.407 567.77 535.172C565.331 533.222 562.526 531.79 559.629 531.028C566.002 514.21 572.375 497.423 578.748 480.605C579.267 479.234 579.785 477.619 579.145 476.309C578.413 474.755 576.553 474.572 574.998 474.603C567.649 474.724 542.369 474.816 523.829 474.938C505.654 474.846 482.601 474.724 475.648 474.633C474.093 474.603 472.263 474.785 471.501 476.339C470.861 477.649 471.379 479.264 471.897 480.635C478.271 497.453 484.644 514.241 491.017 531.059C488.12 531.82 485.315 533.252 482.875 535.202C477.508 539.437 473.666 545.805 470.83 552.538C462.048 573.378 462.353 599.001 471.714 619.536C478.088 633.551 488.547 644.977 500.897 651.984H549.718V651.954Z" fill="#8A8A8A"/>
<path d="M502.271 646.865C496.294 644.519 481.992 629.834 476.351 617.403C467.599 598.148 467.294 574.048 475.527 554.488C478.485 547.511 482.023 542.362 486.048 539.163C487.969 537.639 490.134 536.543 492.299 535.964L497.788 534.532C497.788 534.532 472.813 484.839 477.021 479.721C481.23 474.602 508.491 480.421 528.343 479.721C548.195 479.05 573.078 475.943 573.596 479.69C574.114 483.438 552.83 534.501 552.83 534.501L558.319 535.933C560.484 536.512 562.649 537.609 564.57 539.132C568.595 542.331 573.962 545.226 576.889 552.203C585.123 571.763 586.404 598.117 577.652 617.373C572.01 629.804 558.898 644.337 551.701 646.835C544.535 649.364 508.247 649.211 502.271 646.865Z" fill="#9D9D9D"/>
<path d="M571.279 556.103C568.595 549.766 565.668 544.952 562.009 542.423C555.849 538.127 547.585 537.213 547.585 537.213C556.062 516.892 566.369 490.111 568.809 482.22C567.894 482.128 566.583 482.098 564.814 482.098C559.874 482.098 553.135 482.524 545.999 482.981C540.175 483.347 491.141 481.793 486.719 481.793C483.273 481.793 481.535 482.098 480.712 482.311C480.925 484.413 482.328 490.964 490.47 509.305C495.837 521.401 503.277 537.031 503.277 537.031C503.277 537.031 493.763 538.127 488.61 542.454C485.225 545.287 482.023 549.827 479.339 556.134C471.533 574.658 471.838 597.478 480.102 615.698C485.225 626.94 496.751 641.199 506.51 643.24C516.268 645.282 538.955 645.464 547.128 642.722C555.33 639.95 565.332 626.94 570.455 615.698C578.78 597.448 579.085 574.627 571.279 556.103Z" fill="#9D9D9D" fill-opacity="0.34"/>
<path d="M564.997 553.148C564.174 550.375 561.155 549.004 558.777 550.01C556.246 551.076 555.117 554.184 555.941 556.956C562.558 578.832 559.752 604.485 548.592 623.741C547.189 626.178 547.158 629.377 549.354 631.327C551.245 633.003 554.721 632.942 556.154 630.474C569.358 607.654 572.773 578.923 564.997 553.148Z" fill="white"/>
<path d="M445.5 721C691.543 721 891 701.524 891 677.5C891 653.476 691.543 634 445.5 634C199.457 634 0 653.476 0 677.5C0 701.524 199.457 721 445.5 721Z" fill="#EFEFEF"/>
<path d="M661.978 433.342C648.403 433.342 637.807 433.342 637.807 433.342C637.807 433.342 599.379 433.342 581.068 458.828C570.033 474.208 568.177 494.274 565.492 513.023C560.316 549.397 555.091 585.771 549.915 622.145C548.255 633.814 544.3 646.654 549.525 657.2C557.24 672.775 616.762 677.072 661.88 678.097C706.998 677.121 766.667 672.775 774.382 657.2C779.607 646.654 775.7 633.765 773.991 622.145C768.815 585.771 763.591 549.397 758.415 513.023C755.729 494.274 753.923 474.208 742.838 458.828C725.358 434.514 689.615 433.391 686.343 433.342C678.189 433.342 669.595 433.342 661.978 433.342Z" fill="#AAD742"/>
<path d="M730.932 470.545C729.223 460.78 725.756 451.162 720.726 442.52C732.006 499.547 744.897 557.208 730.932 614.869C721.898 655.442 670.042 672.384 631.711 656.565C608.029 646.41 585.47 629.516 578.732 602.468C564.083 544.953 575.655 484.509 610.715 438.272C608.224 439.102 605.734 440.128 603.244 441.251C595.578 447.988 589.767 456.63 586.642 466.005C569.747 518.979 559.591 576.493 577.609 630.591C586.642 654.27 612.57 666.672 637.375 671.163C667.796 676.778 703.88 676.778 724.193 649.73C764.77 596.804 742.211 531.429 730.932 470.545Z" fill="#C5E777"/>
<path d="M719.703 440.763C720.045 441.349 720.387 441.934 720.729 442.52C720.631 442.032 720.533 441.593 720.436 441.104C720.191 440.958 719.947 440.86 719.703 440.763Z" fill="#AAD742"/>
<path d="M774.04 622.143C768.864 585.769 763.64 549.395 758.464 513.021C755.778 494.273 753.971 474.206 742.887 458.827C736.881 450.478 728.678 444.863 720.426 441.055C720.524 441.543 720.621 441.982 720.719 442.471C725.748 451.112 729.264 460.731 730.924 470.496C742.204 531.379 764.763 596.755 724.137 649.778C703.824 676.826 667.739 676.826 637.319 671.211C612.514 666.72 586.586 654.318 577.552 630.639C559.534 576.542 569.642 519.027 586.586 466.053C589.711 456.678 595.521 447.988 603.188 441.299C595.033 445.058 586.976 450.624 581.068 458.875C570.033 474.255 568.177 494.322 565.492 513.07C560.316 549.444 555.091 585.818 549.915 622.192C548.255 633.861 544.3 646.702 549.525 657.248C557.24 672.823 616.762 677.119 661.88 678.144C706.998 677.168 766.667 672.823 774.382 657.248C779.656 646.653 775.7 633.812 774.04 622.143Z" fill="#739622"/>
<path d="M610.024 449.697C594.839 449.648 585.756 460.341 582.729 470.496C579.36 481.628 579.409 493.541 578.237 504.917C575.795 528.597 573.354 552.276 570.912 575.956C570.766 577.177 568.227 577.226 568.373 576.005C571.059 549.786 573.793 523.519 576.479 497.301C577.651 486.12 577.309 473.816 583.071 463.27C587.661 454.872 597.475 447.744 610.024 447.793C611.587 447.744 611.685 449.697 610.024 449.697Z" fill="#63880F"/>
<path d="M545.331 652.219C544.257 651.585 543.329 650.852 542.645 649.974C540.79 647.679 540.839 644.749 540.936 642.015C541.718 617.798 543.524 593.582 546.21 569.414C564.57 575.907 584.248 576.2 604.121 578.544C605.83 605.495 605.781 636.742 604.463 663.644C585.664 663.986 566.816 660.715 549.872 654.27C548.31 653.684 546.698 653.049 545.331 652.219Z" fill="#CBEF78"/>
<path d="M714.818 449.697C730.004 449.648 739.086 460.341 742.114 470.496C745.483 481.628 745.434 493.541 746.606 504.917C749.047 528.597 751.489 552.276 753.93 575.956C754.077 577.177 756.616 577.226 756.469 576.005C753.784 549.786 751.049 523.519 748.364 497.301C747.192 486.12 747.534 473.816 741.772 463.27C737.182 454.872 727.367 447.744 714.818 447.793C713.256 447.744 713.158 449.697 714.818 449.697Z" fill="#63880F"/>
<path d="M779.513 652.22C780.587 651.585 781.515 650.853 782.199 649.974C784.054 647.679 784.005 644.75 783.908 642.015C783.126 617.799 781.32 593.582 778.634 569.414C760.274 575.908 740.596 576.201 720.723 578.544C719.014 605.495 719.063 636.742 720.381 663.645C739.18 663.986 758.028 660.715 774.972 654.27C776.534 653.684 778.146 653.05 779.513 652.22Z" fill="#CBEF78"/>
<path d="M696.951 441.348C696.072 441.348 695.193 441.007 694.607 440.225L687.869 431.242L635.377 430.802L629.713 440.177C628.932 441.495 627.174 441.934 625.856 441.153C624.537 440.372 624.098 438.614 624.879 437.296L632.204 425.188L690.652 425.725L699.05 436.905C699.978 438.126 699.734 439.932 698.513 440.86C698.123 441.153 697.537 441.348 696.951 441.348Z" fill="#AAD742"/>
<path d="M697.332 562.822H627.506C613.639 562.822 602.359 551.593 602.359 537.678V492.467H722.527V537.678C722.479 551.544 711.248 562.822 697.332 562.822Z" fill="#63880F"/>
<path d="M662.426 552.032C666.687 552.032 670.141 548.578 670.141 544.318C670.141 540.057 666.687 536.604 662.426 536.604C658.165 536.604 654.711 540.057 654.711 544.318C654.711 548.578 658.165 552.032 662.426 552.032Z" fill="#CBEF78"/>
<path d="M708.568 449.502C708.568 454.531 687.718 452.48 662.034 452.48C636.301 452.48 615.5 454.531 615.5 449.502C615.5 444.473 636.35 443.887 662.034 443.887C687.718 443.838 708.568 444.473 708.568 449.502Z" fill="#CBEF78"/>
<path d="M147.543 603.834C152.621 599.782 158.481 596.657 164.731 594.9C179.575 590.652 195.884 593.435 209.458 600.905C286.608 567.558 377.625 567.216 454.921 600.466C465.224 594.704 477.578 592.556 489.297 594.265C504.629 596.511 518.741 604.909 528.946 616.578C535.977 624.634 541.397 634.838 541.153 645.53C540.86 656.272 533.585 667.208 523.038 669.112C523.038 669.112 516.983 670.186 509.317 671.602C389.783 671.602 270.25 671.602 150.717 671.602C150.717 671.602 150.619 671.602 150.375 671.602C137.191 664.474 128.89 648.46 130.648 633.324C131.918 621.655 138.412 611.158 147.543 603.834Z" fill="#AAD742"/>
<path d="M519.865 628.686C509.513 610.279 486.173 598.805 465.42 604.713C478.018 604.957 490.274 609.937 501.212 615.406C515.861 623.413 519.913 644.993 509.269 651.682C472.012 671.651 428.017 658.029 386.757 663.351C350.819 667.354 320.203 647.385 286.902 650.022C245.641 654.025 193.248 677.998 151.987 652.707C141.342 646.067 141.782 626.049 152.427 618.091C177.72 599.44 199.107 616.236 228.404 614.917C228.404 614.917 224.791 612.818 219.029 603.2C218.639 605.494 218.59 607.789 218.981 610.084C200.328 602.077 180.357 596.755 160.386 603.444C144.419 610.084 136.411 628.735 141.733 643.382C151.059 671.309 189.634 667.354 214.928 667.354C244.225 667.354 272.155 654.025 301.453 659.347C370.692 672.676 437.246 664.669 505.118 659.347C517.228 657.931 526.554 641.966 519.865 628.686Z" fill="#CBEF78"/>
<path d="M528.902 616.529C518.697 604.86 504.585 596.413 489.253 594.216C477.534 592.507 465.18 594.656 454.877 600.417C451.606 599.001 448.285 597.683 444.965 596.413C448.871 600.222 452.582 604.274 455.951 608.717C478.559 595.388 507.857 607.399 519.869 628.686C526.509 642.015 517.183 657.981 505.22 659.299C437.348 664.621 370.794 672.628 301.554 659.299C272.257 653.977 244.327 667.306 215.029 667.306C189.736 667.306 151.112 671.31 141.835 643.333C136.512 628.686 144.52 610.035 160.487 603.395C180.458 596.755 200.429 602.077 219.082 610.035C218.301 605.299 219.375 600.563 221.231 596.12C217.275 597.634 213.369 599.196 209.512 600.856C195.937 593.386 179.677 590.652 164.784 594.851C158.534 596.609 152.675 599.733 147.597 603.786C138.466 611.109 131.971 621.607 130.653 633.227C128.944 648.411 137.196 664.377 150.38 671.505C150.624 671.505 150.722 671.505 150.722 671.505C270.255 671.505 389.788 671.505 509.322 671.505C516.988 670.138 523.042 669.015 523.042 669.015C533.59 667.111 540.865 656.174 541.158 645.433C541.353 634.789 535.933 624.634 528.902 616.529Z" fill="#AAD742"/>
<path d="M439.688 612.916C430.069 614.283 420.45 615.65 410.83 617.066C409.756 617.213 409.17 618.58 409.414 619.507C409.707 620.679 410.83 621.07 411.856 620.923C421.475 619.556 431.094 618.189 440.714 616.773C441.788 616.627 442.374 615.26 442.13 614.332C441.837 613.16 440.763 612.77 439.688 612.916Z" fill="#CCCFB6"/>
<path d="M450.67 620.533C451.695 624.292 452.721 628.101 453.746 631.86C454.039 632.885 455.162 633.569 456.187 633.276C457.213 632.934 457.896 631.909 457.603 630.835C456.578 627.075 455.553 623.267 454.527 619.508C454.234 618.482 453.111 617.799 452.086 618.092C451.06 618.433 450.377 619.459 450.67 620.533Z" fill="#CCCFB6"/>
<path d="M236.759 604.323C245.011 607.79 253.263 611.207 261.466 614.674C262.443 615.113 263.664 614.234 263.908 613.258C264.201 612.086 263.517 611.207 262.492 610.817C254.24 607.35 245.988 603.932 237.784 600.466C236.808 600.026 235.587 600.905 235.343 601.882C235.001 603.005 235.733 603.932 236.759 604.323Z" fill="#CCCFB6"/>
<path d="M218.246 618.482C218.051 622.437 217.855 626.391 217.611 630.346C217.562 631.371 218.588 632.397 219.613 632.348C220.736 632.299 221.566 631.469 221.615 630.346C221.81 626.391 222.006 622.437 222.25 618.482C222.299 617.457 221.273 616.431 220.248 616.48C219.125 616.529 218.295 617.359 218.246 618.482Z" fill="#CCCFB6"/>
<path d="M504.208 498.056C498.885 478.136 462.801 441.469 438.337 418.131C417.78 398.504 395.856 435.903 405.085 449.33C414.313 462.756 479.94 516.072 487.02 528.718C491.317 534.772 507.577 510.702 504.208 498.056Z" fill="#FFC4B3"/>
<path d="M371.248 372.285C389.51 368.38 402.498 375.557 444.296 412.321C469.833 434.78 474.911 436.147 469.98 442.787C465.048 449.428 431.356 491.905 416.414 474.572C412.02 469.445 392.537 452.699 384.724 440.395C376.961 427.994 347.614 377.314 371.248 372.285Z" fill="#F5F5F5"/>
<path d="M233.892 376.581C215.972 381.903 200.813 402.662 181.721 455.001C170.051 486.981 197.453 526.294 204.973 529.76C212.493 533.227 238.482 510.408 243.267 487.998C244.683 481.407 253.765 457.385 254.693 442.787C255.621 428.188 257.086 369.697 233.892 376.581Z" fill="#F5F5F5"/>
<path d="M356.742 306.909H274.758V402.019H356.742V306.909Z" fill="#FFC4B3"/>
<path d="M274.758 306.909V354.513C300.832 364.863 330.423 365.742 356.742 355.294V306.909H274.758Z" fill="#C26E61"/>
<path d="M364.898 378.241C364.898 394.646 342.632 476.963 315.434 476.963C288.286 476.963 266.508 394.646 266.508 378.241C266.557 361.836 364.898 361.836 364.898 378.241Z" fill="#FFC4B3"/>
<path d="M437.565 287.184C437.565 287.184 463.591 324.388 489.373 297.34C515.154 270.291 492.4 241.534 465.935 246.318C439.469 251.103 431.12 279.763 437.565 287.184Z" fill="#FFC4B3"/>
<path d="M475.363 255.986C480.685 260.087 483.957 266.385 484.054 273.123C484.103 280.105 480.392 286.843 474.728 290.846C472.677 292.262 474.826 295.533 476.877 294.069C483.615 289.333 487.814 281.57 487.912 273.318C488.01 265.507 484.103 257.792 477.902 253.056C475.949 251.543 473.361 254.424 475.363 255.986Z" fill="#F7AB94"/>
<path d="M192.195 238.995C192.195 238.995 154.059 263.602 140.387 228.84C126.715 194.077 158.698 176.012 181.404 190.464C204.06 204.867 200.984 234.552 192.195 238.995Z" fill="#FFC4B3"/>
<path d="M168.997 195.834C162.503 197.592 157.083 202.23 154.495 208.431C151.761 214.875 152.688 222.541 156.448 228.351C157.815 230.45 154.593 232.647 153.226 230.499C148.782 223.566 147.805 214.778 150.833 207.112C153.714 199.838 160.257 194.174 167.728 192.123C170.169 191.489 171.439 195.15 168.997 195.834Z" fill="#F7AB94"/>
<path d="M295.662 348.751C326.669 354.659 348.153 350.802 369.199 346.261C390.928 341.574 412.608 331.565 428.917 313.891C450.89 290.065 490.978 172.399 486.437 146.522C481.456 117.96 470.958 94.915 446.837 78.7054C420.469 60.9822 403.525 52.9263 358.456 43.6497C313.387 34.3731 294.637 35.1055 263.435 40.9644C234.87 46.335 216.12 63.1305 200.299 87.4449C185.944 109.465 176.227 233.527 187.018 264.09C195.026 286.794 210.944 304.517 229.059 317.406C246.638 329.905 264.851 341.916 295.662 348.751Z" fill="#FFC4B3"/>
<path d="M224.665 297.584C166.021 222.2 213.776 105.901 271.443 39.5488C268.855 39.9882 266.17 40.4765 263.435 40.9647C234.87 46.3354 216.12 63.1309 200.299 87.4453C185.944 109.465 176.227 233.527 187.018 264.091C195.026 286.794 210.944 304.517 229.059 317.407C246.638 329.906 264.802 341.916 295.662 348.752C326.669 354.66 348.153 350.802 369.199 346.262C390.928 341.575 412.608 331.566 428.917 313.891C429.258 313.501 429.6 313.11 429.991 312.671C425.498 315.259 420.86 317.7 416.074 319.946C354.208 348.068 265.535 352.707 224.665 297.584Z" fill="#F7AB94"/>
<path d="M413.674 278.819C415.43 270.95 407.635 262.515 396.265 259.979C384.895 257.443 374.254 261.767 372.499 269.636C370.743 277.505 378.538 285.94 389.908 288.476C401.279 291.011 411.919 286.688 413.674 278.819Z" fill="#D26C85"/>
<path d="M258.815 248.399C260.57 240.53 252.776 232.095 241.406 229.56C230.035 227.024 219.395 231.347 217.639 239.216C215.884 247.085 223.678 255.52 235.049 258.056C246.419 260.592 257.06 256.268 258.815 248.399Z" fill="#D26C85"/>
<path d="M310.459 275.661C298.154 273.269 286.387 268.142 276.328 260.477C275.351 259.745 275.156 258.329 275.888 257.303C276.621 256.327 278.037 256.132 279.062 256.864C299.375 272.244 327.012 276.833 351.183 268.875C352.355 268.484 353.624 269.119 354.015 270.291C354.405 271.462 353.771 272.732 352.599 273.122C339.024 277.663 324.424 278.395 310.459 275.661Z" fill="#D15C58"/>
<path d="M444.688 47.1651C389.804 -6.73671 295.369 -15.7203 231.696 26.8543C168.023 69.4289 150.298 150.77 181.695 220.344C181.695 220.344 196.735 151.893 205.475 125.967C212.555 104.973 238.239 87.8844 238.239 87.8844C233.112 111.857 226.081 130.605 212.36 150.965C267.585 159.461 320.077 172.155 375.302 180.601C383.31 163.122 392.002 139.247 394.785 139.784C400.4 140.907 393.466 165.661 385.8 182.164C400.888 184.263 417.002 185.044 428.965 176.354C446.055 163.904 445.713 139.101 443.711 118.204C443.711 118.204 454.21 136.66 457.97 164.441C461.778 192.661 458.36 257.939 458.36 257.939C501.769 195.542 499.523 101.018 444.688 47.1651Z" fill="#7A4B3B"/>
<path d="M439.611 107.463C439.465 123.477 440.1 140.029 436.682 155.848C435.07 163.952 421.838 171.618 411.584 167.126C409.386 166.345 407.775 164.343 407.433 162.634C403.722 149.159 406.847 120.352 401.036 120.059C397.423 121.378 395.421 124.649 393.517 127.627C381.993 143.495 376.427 168.591 353.721 167.858C319.736 166.54 245.76 142.958 241.17 139.052C238.241 136.806 235.213 133.535 236.043 129.287C240.292 110.978 244.344 90.1303 247.323 71.5771C241.854 79.0472 236.922 86.9567 228.963 95.1592C234.286 90.5697 238.387 87.8844 238.387 87.8844C233.26 111.857 226.229 130.605 212.508 150.965C267.733 159.461 320.225 172.155 375.45 180.601C383.458 163.122 392.15 139.247 394.933 139.784C400.548 140.907 393.614 165.661 385.948 182.164C401.036 184.263 417.15 185.044 429.113 176.354C446.203 163.904 445.861 139.101 443.859 118.204C443.859 118.204 454.358 136.66 458.118 164.441C461.926 192.661 458.508 257.939 458.508 257.939C465.149 248.369 471.594 177.379 466.614 152.723C463.342 135.976 450.94 115.519 439.611 107.463Z" fill="#6E4334"/>
<path d="M294.441 142.128C299.617 136.514 304.255 130.508 308.357 124.112C312.459 117.765 316.023 111.076 318.953 104.094C320.662 100.091 322.127 96.0384 323.445 91.9372C323.689 91.2048 323.055 90.4725 322.371 90.326C321.59 90.1795 321.004 90.7166 320.76 91.4001C318.513 98.4796 315.681 105.315 312.263 111.906C308.845 118.498 304.89 124.796 300.447 130.655C297.908 134.024 295.222 137.246 292.341 140.322C291.218 141.591 293.269 143.398 294.441 142.128Z" fill="#5C382C"/>
<path d="M363.191 160.144C367.097 150.086 369.588 139.54 370.613 128.848C371.639 118.155 371.199 107.365 369.344 96.7705C368.269 90.814 366.756 84.9062 364.754 79.1938C364.168 77.5338 361.58 78.4126 362.166 80.0727C365.584 89.9839 367.635 100.335 368.221 110.832C368.807 121.28 368.025 131.826 365.779 142.079C364.558 147.792 362.849 153.406 360.75 158.875C360.506 159.558 360.652 160.388 361.385 160.73C361.97 161.072 362.898 160.828 363.191 160.144Z" fill="#5C382C"/>
<path d="M397.568 132.9C394.491 134.365 392.831 138.027 391.318 141.005C384.726 153.211 381.259 166.052 373.397 177.574C321.932 166.54 270.71 157.117 219 147.401C236.432 111.711 242.243 91.644 250.69 61.6172C246.589 73.9697 226.08 130.557 212.359 150.916C267.585 159.412 320.076 172.106 375.302 180.553C383.31 163.074 392.001 139.199 394.784 139.736C400.4 140.859 393.466 165.613 385.8 182.115C399.667 184.019 414.365 184.849 425.937 178.209C415.39 181.383 403.72 180.65 392.782 178.502C398.3 164.734 405.136 146.522 397.568 132.9Z" fill="#5C382C"/>
<path d="M437.172 93.3037C436.781 97.0143 437.026 100.578 437.319 104.143C441.371 129.238 441.42 156.775 426.625 177.916C427.406 177.428 428.188 176.939 428.92 176.402C446.01 163.903 440.444 102.043 437.172 93.3037Z" fill="#6E4334"/>
<path d="M438.042 63.9122L432.866 59.1763C431.157 57.6139 429.35 55.4657 427.202 54.4892C424.907 53.415 423.198 53.9521 421.879 55.1727C421.489 54.538 421.049 53.9521 420.61 53.3662C418.266 50.388 414.653 45.9938 410.356 47.5562C409.965 47.7026 409.574 47.8979 409.281 48.142C408.695 45.6032 408.012 43.0643 407.182 40.5743C406.059 37.3031 400.492 36.6196 399.271 40.2325C398.002 43.9432 396.928 47.7026 396.097 51.5109C395.853 51.7062 395.56 51.9015 395.365 52.1456C394.437 51.0227 393.363 50.095 392.045 49.3626C385.209 45.4079 375.98 52.1944 378.91 56.6374C380.082 58.3951 389.213 56.5886 391.117 62.3987C391.605 63.8634 392.728 64.6934 393.998 65.0352C393.851 66.8417 393.705 68.6482 393.656 70.5035C393.558 72.6029 395.805 74.3606 397.709 74.4094C399.809 74.4582 401.762 73.0912 402.152 70.9429C402.348 69.9176 402.494 68.8923 402.592 67.8182C402.543 69.527 402.396 71.2358 402.201 72.9447C401.566 78.413 409.428 79.8777 410.649 74.5071C411.479 70.8453 412.358 67.2323 413.188 63.5705C413.529 62.1057 413.822 60.641 414.164 59.1275C414.408 59.4692 414.604 59.7622 414.799 60.0551C416.069 62.0081 416.899 64.1075 417.533 66.3534C418.559 69.9664 424.028 69.9664 425.444 66.6952C425.688 66.0605 425.981 65.4746 426.225 64.8399C426.713 65.2793 427.153 65.7187 427.641 66.1093C429.252 67.574 430.913 69.0876 432.524 70.5523C436.626 74.2629 442.143 67.6229 438.042 63.9122Z" fill="#996B5C"/>
<path d="M349.808 34.6171C347.855 34.4218 345.852 34.2265 343.899 34.0312C342.093 33.8359 340.14 33.8359 338.333 33.4941V33.4453C338.186 32.9571 337.845 32.4688 337.552 32.0294C336.526 30.4182 335.061 29.2464 333.255 28.6117C330.423 27.6352 327.249 28.1723 324.465 29.0023C323.391 29.3441 322.268 29.7347 321.145 29.8323C320.95 29.8323 320.168 29.8323 320.071 29.8323C320.022 29.8323 320.022 29.8323 319.973 29.8323C318.655 27.4399 315.188 26.8052 313.235 28.7582L307.473 34.5194C307.571 30.9064 306.448 27.6352 303.322 25.6334C302.297 24.9499 300.832 24.8523 299.563 25.2917C299.953 23.8758 300.344 22.4599 300.686 21.044C301.906 16.5033 295.266 13.0857 292.922 17.5775C292.141 19.091 291.311 20.5557 290.529 22.0693C288.478 21.2881 286.672 22.1181 285.353 23.827C284.67 24.7058 283.986 25.5846 283.303 26.5123C282.375 25.6823 281.056 25.2429 279.543 25.487C277.394 25.7799 275.685 27.1958 274.513 28.9047C273.634 30.2717 273.195 32.0782 272.463 33.25C270.363 36.6189 264.894 33.7382 262.257 32.6153C260.109 31.6876 257.521 33.4453 256.886 35.4959C256.154 37.9371 257.619 39.9389 259.767 40.8666C264.259 42.8195 269.24 44.2843 273.879 42.5754C274.025 44.0401 274.806 45.3096 276.32 45.9443C276.857 46.1884 277.492 46.286 278.078 46.286C278.029 49.362 281.691 51.5102 284.279 50.2896C284.133 51.9008 284.23 53.4632 284.767 55.0256C285.353 56.6856 286.428 58.0038 288.283 58.2479C289.846 58.4921 291.896 57.8085 292.629 56.295C294.68 52.0961 296.731 47.8972 298.781 43.7472C298.977 44.7237 299.318 45.6513 299.807 46.5302C301.125 48.9225 304.592 49.6061 306.545 47.6043C309.866 44.2843 313.186 40.9642 316.506 37.6442C317.971 38.2789 319.68 38.523 321.389 38.4254C322.903 38.3277 324.368 38.0348 325.784 37.6442C326.809 37.3512 329.104 36.2283 330.178 36.7653C330.471 36.9118 330.911 37.9859 331.253 38.5718C332.327 40.2807 333.889 41.4036 335.843 41.8919C340.237 42.9172 345.022 42.9172 349.466 43.3566C355.032 43.796 355.277 35.203 349.808 34.6171Z" fill="#996B5C"/>
<path d="M274.662 350.118C146.828 327.562 154.787 259.354 154.885 258.671L157.522 259.013C157.424 259.696 150.002 325.413 275.151 347.482L274.662 350.118Z" fill="#B3B3B3"/>
<path d="M276.127 354.854L262.943 352.511C259.818 351.974 257.719 348.947 258.256 345.822C258.793 342.697 261.82 340.598 264.945 341.135L278.129 343.478C281.254 344.015 283.354 347.043 282.817 350.167C282.231 353.292 279.252 355.391 276.127 354.854Z" fill="#B3B3B3"/>
<path d="M500.251 222.493C508.503 223.957 514.118 231.916 512.653 240.167L503.913 289.724C502.448 297.975 494.489 303.59 486.237 302.125C477.984 300.66 472.369 292.702 473.834 284.451L482.574 234.894C483.99 226.594 491.95 221.028 500.251 222.493Z" fill="#999999"/>
<path d="M484.921 190.952C500.253 193.637 510.605 208.431 507.919 223.762L494.589 299.195C491.903 314.526 477.108 324.876 461.776 322.191C446.444 319.506 448.739 306.958 451.424 291.578L464.754 216.145C467.44 200.814 469.54 188.267 484.921 190.952Z" fill="#8A9091"/>
<path d="M462.606 316.821C456.649 314.917 456.063 311.011 459.14 293.58L472.519 217.61C473.739 210.677 474.911 204.086 477.157 200.326C478.427 198.178 480.185 196.176 486.093 197.25C487.119 197.446 488.095 197.69 489.072 197.983C499.863 201.4 506.455 212.386 504.502 223.518L491.269 298.951C489.121 311.255 477.304 319.506 464.999 317.358C464.12 317.211 463.339 317.016 462.606 316.821Z" fill="#949A9C"/>
<path d="M471.983 311.401C471.397 309.79 489.024 204.33 489.708 204.574C497.569 207.064 502.403 215.12 500.987 223.224L487.657 298.658C486.876 303.003 484.483 306.811 480.821 309.35C477.257 311.938 472.13 311.498 471.983 311.401Z" fill="#A9AEB0"/>
<path d="M150.442 160.144C142.141 158.874 134.329 164.685 133.059 172.985L125.588 222.736C124.319 231.037 130.129 238.848 138.43 240.118C146.731 241.387 154.544 235.577 155.813 227.277L163.284 177.525C164.505 169.225 158.743 161.413 150.442 160.144Z" fill="#999999"/>
<path d="M175 135.097C159.57 132.802 145.068 143.495 142.773 158.923L131.396 234.698C129.101 250.127 139.795 264.627 155.225 266.922C170.655 269.217 172.461 256.62 174.756 241.192L186.133 165.417C188.428 150.037 190.43 137.441 175 135.097Z" fill="#8A9091"/>
<path d="M156.105 261.503C162.355 261.6 164.113 258.085 166.75 240.557L178.225 164.245C179.25 157.263 180.275 150.672 179.299 146.375C178.762 143.934 177.736 141.493 171.779 140.614C170.754 140.468 169.728 140.37 168.752 140.37C157.472 140.224 147.658 148.524 145.997 159.704L134.62 235.479C132.765 247.832 141.31 259.403 153.712 261.307C154.543 261.454 155.373 261.503 156.105 261.503Z" fill="#949A9C"/>
<path d="M148.934 253.446C150.008 252.128 166.805 146.522 166.073 146.522C157.821 146.424 150.692 152.478 149.422 160.632L138.045 236.407C137.41 240.752 138.484 245.146 141.121 248.71C143.807 252.226 148.787 253.446 148.934 253.446Z" fill="#A9AEB0"/>
<path d="M468.71 74.8971C447.47 37.2537 410.604 13.4764 359.236 4.15096L358.161 3.95566C306.696 -4.8815 263.97 4.88332 231.108 33.006C193.998 64.7417 178.666 111.759 172.563 139.589C175.492 140.321 178.422 141.2 181.303 142.128C187.114 115.763 201.665 70.4541 236.48 40.7202C267.34 14.3064 307.868 5.27391 356.99 13.8181C406.014 22.6065 441.024 44.9191 460.995 80.2677C483.31 119.718 481.748 166.784 478.281 193.735C481.259 194.272 484.287 194.711 487.265 195.151C491.074 166.882 492.734 117.472 468.71 74.8971Z" fill="#8A9091"/>
<path d="M409.919 391.083C406.647 372.481 356.939 361.642 356.939 361.642C356.939 361.642 347.662 391.913 316.363 391.913C285.063 391.913 274.76 361.642 274.76 361.642C274.76 361.642 225.003 372.481 221.732 391.083C218.46 409.685 242.435 535.944 230.033 605.957C226.371 626.561 280.424 626.122 315.825 626.024C351.226 626.122 404.352 626.659 401.618 605.957C392.633 538.19 413.19 409.685 409.919 391.083Z" fill="#F5F5F5"/>
<path d="M399.376 555.424C344.102 557.231 288.827 554.594 233.602 553.52C233.602 555.766 233.602 558.012 233.602 560.258C288.827 560.356 344.102 562.016 399.327 562.406C399.327 560.112 399.376 557.768 399.376 555.424Z" fill="#4259CC"/>
<path d="M303.276 402.361C333.697 411.052 356.744 390.301 367.242 364.327C361.187 362.569 356.939 361.642 356.939 361.642C356.939 361.642 347.662 391.913 316.362 391.913C285.063 391.913 274.76 361.642 274.76 361.642C274.76 361.642 270.561 362.569 264.555 364.278C271.928 381.611 285.698 397.186 303.276 402.361Z" fill="white"/>
<path d="M237.014 608.838C231.594 595.168 236.965 508.212 231.252 456.849C229.836 444.35 231.203 421.647 222.414 412.321C226.32 455.775 240.09 549.273 230.031 605.909C227.443 620.654 254.348 624.608 282.815 625.634C269.583 622.265 242.434 622.509 237.014 608.838Z" fill="white"/>
<path d="M408.503 425.553C392.682 484.532 397.614 548.101 390.778 608.301C385.992 614.6 380.328 619.629 374.078 623.632C390.875 621.142 402.936 616.064 401.569 605.958C394.977 556.06 404.401 473.205 408.503 425.553Z" fill="#D1DAEB"/>
<path d="M225.446 583.45C225.446 583.45 224.274 560.356 230.183 553.52C236.091 546.734 401.133 549.761 404.941 553.52C408.75 557.28 408.799 575.296 408.506 583.45C408.213 591.603 371.201 632.615 312.899 632.615C254.548 632.615 230.183 601.807 225.446 583.45Z" fill="white"/>
<path d="M225.586 571.683C225.195 578.03 225.488 583.449 225.488 583.449C230.225 601.807 254.59 632.615 312.892 632.615C371.194 632.615 408.206 591.603 408.499 583.449C408.597 580.764 408.646 577.053 408.548 573.147C377.2 576.37 342.727 591.798 312.843 602.491C284.474 588.283 256.983 576.565 225.586 571.683Z" fill="#9D9D9D" fill-opacity="0.34"/>
<path d="M299.614 644.188C299.614 644.188 269.144 628.662 254.789 644.188C246.781 652.878 251.615 659.079 225.784 658.249C199.954 657.419 175.832 685.005 202.346 693.695C228.86 702.386 307.524 695.16 321.977 683.1C336.479 671.09 319.585 647.41 299.614 644.188Z" fill="#F2F2F2"/>
<path d="M299.616 644.188C299.616 644.188 290.192 639.403 279.401 637.792C286.97 651.023 292.194 666.11 298.542 679.537C268.122 681.783 237.652 688.569 206.06 682.905C201.861 682.222 195.952 678.902 193.12 674.361C188.677 681.734 190.191 689.692 202.349 693.696C228.863 702.386 307.527 695.16 321.98 683.101C336.482 671.09 319.587 647.41 299.616 644.188Z" fill="#CACACA"/>
<path d="M279.789 627.343C316.704 608.985 353.57 590.579 390.484 572.221C405.67 564.653 421.247 556.988 438.093 555.035C454.939 553.082 473.591 558.013 483.748 571.586C495.662 587.454 492.439 610.987 480.916 627.148C469.392 643.309 451.228 653.366 433.063 661.374C395.904 677.681 356.206 687.299 316.704 696.82L279.789 627.343Z" fill="#F5F5F5"/>
<path d="M437.217 573.539C434.971 571.293 431.602 571.293 428.184 572.416C379.795 592.239 329.208 609.864 285.945 639.012L289.754 646.19C335.507 632.616 379.502 617.725 422.569 597.219C430.479 593.85 444.005 584.818 437.217 573.539Z" fill="white"/>
<path d="M483.7 571.586C473.544 558.013 454.891 553.082 438.045 555.035C421.199 556.988 405.623 564.653 390.437 572.221C388.63 573.1 386.824 574.027 385.017 574.906C392.244 572.025 399.519 568.901 406.795 565.629C428.231 556.597 463.192 553.228 472.177 579.154C476.669 591.555 473.3 606.202 464.266 615.235C422.273 656.149 366.657 674.605 310.992 686.078L316.656 696.771C356.11 687.25 395.808 677.632 433.016 661.325C451.18 653.366 469.296 643.26 480.868 627.099C492.392 610.987 495.614 587.454 483.7 571.586Z" fill="#F2EDED" fill-opacity="0.34"/>
<path d="M483.704 571.586C477.063 562.748 466.858 557.622 455.872 555.62C465.93 561.918 474.134 570.463 478.919 581.448C485.706 598.341 480.481 616.064 466.956 626.22C423.693 662.252 367.393 680.61 312.852 689.642L316.66 696.819C356.114 687.299 395.812 677.68 433.02 661.373C451.184 653.415 469.3 643.308 480.872 627.147C492.396 610.987 495.618 587.453 483.704 571.586Z" fill="#E3E3E3" fill-opacity="0.89"/>
<path d="M342.676 650.583C342.676 650.583 373.146 635.057 387.501 650.583C395.509 659.274 390.675 665.474 416.506 664.644C442.336 663.863 466.458 691.4 439.944 700.09C413.429 708.781 334.766 701.555 320.313 689.496C305.859 677.534 322.754 653.854 342.676 650.583Z" fill="white"/>
<path d="M342.676 650.583C342.676 650.583 352.1 645.798 362.891 644.187C355.323 657.419 350.098 672.505 343.75 685.932C374.171 688.178 404.64 694.964 436.233 689.301C440.432 688.617 446.34 685.297 449.172 680.757C453.616 688.129 452.102 696.087 439.944 700.091C413.429 708.782 334.766 701.556 320.313 689.496C305.859 677.534 322.754 653.854 342.676 650.583Z" fill="#DAD8D8"/>
<path d="M362.555 633.787C325.64 615.43 288.774 597.023 251.859 578.665C236.674 571.097 221.097 563.432 204.251 561.479C187.405 559.526 168.753 564.457 158.596 578.03C146.682 593.898 149.905 617.431 161.428 633.592C172.952 649.753 191.116 659.811 209.281 667.818C246.439 684.125 286.137 693.743 325.64 703.264L362.555 633.787Z" fill="#F5F5F5"/>
<path d="M205.136 579.982C207.382 577.737 210.751 577.736 214.169 578.859C262.559 598.682 313.145 616.308 356.408 645.456L352.599 652.633C306.846 639.06 262.852 624.168 219.784 603.662C211.874 600.293 198.349 591.261 205.136 579.982Z" fill="white"/>
<path d="M158.651 577.981C168.807 564.408 187.46 559.477 204.306 561.43C221.152 563.383 236.728 571.048 251.914 578.616C253.721 579.495 255.528 580.422 257.334 581.301C250.108 578.421 242.832 575.296 235.556 572.025C214.121 562.992 179.159 559.623 170.174 585.549C165.682 597.95 169.051 612.598 178.085 621.63C220.078 662.545 275.694 681 331.359 692.474L325.695 703.166C286.241 693.646 246.543 684.027 209.335 667.72C191.171 659.762 173.055 649.655 161.483 633.494C149.959 617.431 146.737 593.898 158.651 577.981Z" fill="#F2EDED" fill-opacity="0.34"/>
<path d="M158.643 577.982C165.284 569.145 175.489 564.018 186.476 562.016C176.417 568.315 168.213 576.859 163.428 587.844C156.641 604.737 161.866 622.461 175.391 632.616C218.654 668.648 274.954 687.006 329.496 696.039L325.687 703.216C286.233 693.695 246.535 684.077 209.327 667.769C191.163 659.811 173.048 649.704 161.475 633.544C149.951 617.432 146.729 593.899 158.643 577.982Z" fill="#E3E3E3" fill-opacity="0.89"/>
<path d="M314.656 574.416C290.583 574.416 266.559 573.733 242.633 572.415L242.877 567.923C290.29 570.559 338.386 570.559 385.799 567.972L386.043 572.464C362.41 573.782 338.533 574.416 314.656 574.416Z" fill="#4259CC"/>
<path d="M204.668 559.01C205.546 557.496 206.377 556.129 207.06 555.25C207.841 554.274 220.635 543.972 222.832 544.704C214.727 552.565 213.727 556.569 212.138 562.001C209.795 567.665 209.209 573.901 212.138 573.999C214.629 574.048 217.021 572.632 218.388 570.483C221.66 577.075 225.957 570.484 226.836 566.724C227.715 563.062 230.205 559.986 232.744 557.252C235.283 554.518 238.799 552.467 242.559 552.565C246.27 552.663 249.59 554.811 252.862 556.569C258.868 559.84 265.46 562.086 272.198 563.258C275.763 563.843 279.718 564.088 282.843 562.232C285.968 560.377 287.677 555.787 285.333 553.004C284.161 551.589 282.306 551.003 280.645 550.319C269.171 545.681 257.598 532.938 253.008 523.026C249.493 515.41 226.787 520.097 217.754 524.833C212.675 527.518 189.042 541.384 188.261 544.704C187.87 546.364 190.898 546.999 192.607 546.901C194.316 546.804 195.927 546.023 197.49 545.241C205.937 541.043 214.629 537.332 222.832 532.645C203.593 543.533 201.787 546.462 198.857 551.882C196.025 557.057 190.947 567.896 195.146 568.677C198.32 569.214 202.08 563.404 204.668 559.01Z" fill="#FFC4B3"/>
<path d="M218.221 570.12C218.221 570.12 218.856 567.972 220.126 562.357C221.395 556.742 228.524 550.639 234.921 544.78C234.921 544.78 224.13 551.274 221.102 557.475C218.026 563.626 218.221 570.12 218.221 570.12Z" fill="#C26E61"/>
<path d="M251.23 527.887C247.079 519.05 229.227 504.501 229.227 504.501L205.727 508.001L224.667 529.254C224.667 529.254 255.624 537.213 251.23 527.887Z" fill="#FFC4B3"/>
<path d="M497.906 419.741H313.772C308.547 419.741 303.274 424.038 302.102 429.262L272.511 559.525C271.339 564.749 274.611 569.045 279.836 569.045H463.97C469.194 569.045 474.468 564.749 475.64 559.525L505.23 429.262C506.451 424.038 503.131 419.741 497.906 419.741Z" fill="#B1B5B5"/>
<path d="M503.031 419.741H318.897C313.672 419.741 308.399 424.038 307.227 429.262L277.636 559.525C276.464 564.749 279.736 569.045 284.961 569.045H469.095C474.319 569.045 479.593 564.749 480.765 559.525L510.355 429.262C511.576 424.038 508.256 419.741 503.031 419.741Z" fill="#7D8384"/>
<path d="M403.711 559.72C426.905 559.72 447.12 543.901 452.686 521.393L468.702 456.603C471.925 442.493 461.183 429.115 446.729 429.115H318.895C318.065 429.115 316.551 430.336 316.307 431.361L287.156 559.769H403.711V559.72Z" fill="#808687"/>
<path d="M398.926 551.42C420.313 551.42 438.965 536.821 444.092 516.071L458.839 456.359C461.769 443.372 451.905 431.02 438.624 431.02H320.751C320.018 431.02 318.602 432.142 318.358 433.119L291.453 551.469H398.926V551.42Z" fill="#858B8C"/>
<path d="M388.14 546.44C401.324 546.44 412.75 527.252 415.924 512.702L428.864 453.137C429.352 450.403 428.375 448.45 427.692 447.522C427.008 446.546 425.543 444.983 423.053 444.983H318.217L299.711 546.489H388.14V546.44Z" fill="#8A9091"/>
<path d="M215.826 576.369H471.299C473.301 576.369 474.962 574.709 474.962 572.707C474.962 570.705 473.301 569.045 471.299 569.045H215.826C213.824 569.045 212.164 570.705 212.164 572.707C212.164 574.709 213.824 576.369 215.826 576.369Z" fill="#B1B5B5"/>
<path d="M270.373 576.369H471.304C473.306 576.369 474.967 574.709 474.967 572.707C474.967 570.705 473.306 569.045 471.304 569.045H270.373C268.371 569.045 266.711 570.705 266.711 572.707C266.711 574.709 268.371 576.369 270.373 576.369Z" fill="#7D8384"/>
<path d="M260.602 572.707C260.602 573.537 259.967 574.172 259.137 574.172C258.307 574.172 257.672 573.537 257.672 572.707C257.672 571.877 258.307 571.242 259.137 571.242C259.967 571.242 260.602 571.877 260.602 572.707Z" fill="#F15A24"/>
<path d="M455.131 493.223C457.816 492.93 463.187 493.564 464.359 493.857C465.678 494.199 481.67 500.06 481.719 502.501C477.08 502.16 463.92 499.423 459.281 500.156C449.613 501.669 445.169 504.403 446.195 507.284C447.074 509.725 449.515 511.434 452.298 511.873C446.537 517.781 455.179 519.197 459.525 518.465C463.724 517.781 482.524 524.861 486.235 529.548C488.676 532.624 502.153 529.694 504.643 516.414C506.694 505.38 505.034 498.203 501.762 493.76C498.442 489.317 472.123 471.203 468.266 471.838C466.312 472.179 466.849 475.353 467.631 476.964C468.412 478.575 469.828 479.796 471.244 480.968C478.91 487.412 489.234 494.427 485.719 495.501C484.596 495.843 475.59 485.948 464.701 485.118C458.109 484.629 444.681 484.19 445.462 488.584C446.048 491.904 449.466 493.76 455.131 493.223Z" fill="#FFC4B3"/>
<path d="M452.352 511.874C452.352 511.874 454.891 511.581 461.336 510.458C467.781 509.335 477.01 513.68 485.653 517.391C485.653 517.391 474.666 509.677 466.903 509.286C459.139 508.896 452.352 511.874 452.352 511.874Z" fill="#C26E61"/>
<g clip-path="url(#clip0_1_2489)" filter="url(#filter0_i_1_2489)">
<path d="M381.8 507.5C382.3 507.1 382.7 506.7 383.2 506.4C383.4 506.3 383.5 506.2 383.7 506.1C384 505.9 384.1 505.9 384 506.3C383.8 507.6 383.5 508.8 383.3 510.1C382.7 513 382.2 515.8 381.6 518.7C381.2 520.6 380.9 522.5 380.5 524.4C380.4 524.8 380.4 524.8 380.1 524.6C379.3 524 378.6 523.4 378.2 522.3C378 522.3 378 522.2 377.7 522.3C376.6 522.6 375.8 522 375.9 520.8C375.9 520.5 376 520.3 376 520C377.1 514.1 378.3 508.2 379.4 502.3C379.4 502.2 379.5 502 379.5 501.9C379.5 501.7 379.7 501.6 379.9 501.6C380.1 501.6 380.3 501.6 380.5 501.6C380.9 501.5 381.2 501.3 381.3 500.8C381.5 499.8 381.7 498.8 382.1 497.8C382.7 496 383.5 494.2 384.5 492.5C385.5 490.9 386.6 489.3 387.9 487.9C389.4 486.3 391 484.8 392.8 483.6C393.5 483.1 393.5 483.1 393 482.7C391.9 481.8 390.8 480.8 389.6 479.9C388.7 479.1 387.7 478.4 386.8 477.6C386.3 477.2 385.7 476.7 385.2 476.2C384.9 475.9 385.1 475.3 385.5 475.1C386.3 474.7 387 474.5 387.8 474.3C388.5 474.1 389.2 473.9 389.9 473.8C390.6 473.7 391.3 473.5 392 473.3C392.5 473.2 392.9 473.1 393.4 472.9C394.1 472.7 394.7 472.7 395.3 473C396 473.6 396.8 474 397.7 474.5C399.8 475.7 401.8 476.9 403.8 478.3C404.2 478.6 404.6 478.8 405 479.1C405.1 479.2 405.2 479.3 405.3 479.3C405.3 479.3 405.4 479.4 405.3 479.5C405.2 479.6 405.2 479.6 405.1 479.6C404.3 479.3 403.6 479 402.8 478.6C401.3 477.7 399.9 476.7 398.4 475.7C397.1 474.8 395.7 473.9 394.4 473C394.1 472.8 393.8 473 393.5 473.1C392.2 473.5 390.9 473.9 389.6 474.3C388.7 474.6 387.9 474.9 387 475.1C386.9 475.1 386.9 475.1 386.8 475.2C386.8 475.3 386.9 475.3 386.9 475.3C388.6 475.9 390.3 476.7 391.9 477.5C392.8 478 393.7 478.5 394.6 479C396.5 480 398.3 481.1 400 482.4C401.1 483.2 402.2 484.1 403.1 485.2C403.4 485.6 403.7 486.1 403.8 486.7C403.8 486.8 403.8 486.8 403.9 486.8C404 486.8 404 486.7 404 486.7C404.7 485.4 405.9 484.6 407 483.8C408.7 482.5 410.5 481.5 412.3 480.5C413.8 479.7 415.4 478.8 416.9 478.1C418.5 477.3 420.2 476.5 421.8 475.8C423 475.3 424.2 474.8 425.4 474.3C425.4 474.3 425.5 474.3 425.6 474.2C425.2 474.1 424.8 474 424.4 473.9C423.4 473.6 422.3 473.3 421.3 473C420.6 472.8 419.9 472.6 419.2 472.4C419 472.4 418.9 472.4 418.7 472.5C417.6 473.1 416.6 473.7 415.5 474.3C413.9 475.2 412.2 476.2 410.6 477.2C409.7 477.7 408.8 478.3 407.9 478.7C407.1 479.1 406.4 479.3 405.6 479.6C405.5 479.6 405.4 479.7 405.4 479.6C405.4 479.5 405.5 479.4 405.6 479.3C406.5 478.7 407.4 478.2 408.3 477.7C410.2 476.6 412.1 475.6 414 474.6C415.6 473.8 417.2 472.9 418.9 472.1C419 472 419.2 472 419.3 472C419.8 472.3 420.4 472.3 421 472.4C421.6 472.5 422.2 472.7 422.9 472.7C423.5 472.8 424.1 472.9 424.7 473.1C425.2 473.2 425.8 473.4 426.3 473.5C426.6 473.6 427 473.7 427.3 473.8C427.7 474 427.6 474.5 427.2 474.8C426.2 475.5 425.1 476.2 424.1 476.9C423.3 477.4 422.6 477.9 421.8 478.4C420.6 479.2 419.4 480 418.1 480.8C417.5 481.2 416.9 481.6 416.3 482.1C416.1 482.3 416.2 482.3 416.3 482.4C417.4 483.2 418.3 484.3 419.1 485.4C419.9 486.6 420.6 487.9 421.1 489.4C421.8 491.5 422.1 493.7 422 496.1C422 497.1 421.8 498.1 421.6 499.2C421.5 499.9 421.6 500.1 422.3 500.1C422.9 500.1 422.9 500 422.8 500.8C421.6 506.9 420.4 513.1 419.3 519.2C419.1 520.5 417.8 521.3 416.7 520.9C416.5 520.8 416.4 520.9 416.3 521.1C415.5 522.3 414.4 523.1 413.2 523.7C412.9 523.9 412.8 523.9 412.9 523.5C413.2 522.1 413.4 520.8 413.7 519.4C414.5 514.8 415.5 510.2 416.3 505.6C416.3 505.4 416.3 505.3 416.4 505.1C416.4 504.9 416.5 504.8 416.7 504.9C417.3 505.2 417.9 505.6 418.3 506.2L418.4 506.3C418.5 506.2 418.5 506.1 418.5 505.9C418.6 505.2 418.8 504.6 418.9 503.9C419.1 502.5 419.5 501.1 419.8 499.8C420.4 496.1 420.5 492.6 419.5 489.4C418.7 486.8 417.3 484.8 415.2 483.3C415 483.2 414.8 483.2 414.6 483.4C413.2 484.4 411.9 485.4 410.5 486.3C409.8 486.8 409.1 487.2 408.3 487.4C408.1 487.4 408 487.4 407.8 487.4C407.1 487.4 406.4 487.5 405.7 487.4C405.1 487.4 404.5 487.3 404.1 486.8C404 486.7 404 486.7 403.9 486.8C403.4 487.3 402.8 487.4 402.2 487.5C401.6 487.6 401.1 487.5 400.5 487.6C399.3 487.7 398.5 487.2 397.7 486.5C396.8 485.7 396 484.9 395.1 484.2C394.9 484 394.7 483.9 394.6 483.7C394.5 483.6 394.3 483.6 394.1 483.7C392.7 484.6 391.3 485.6 390.1 486.8C387.2 489.7 385.4 493.2 384.1 496.9C383.7 498.1 383.4 499.4 383.1 500.7C382.7 502.7 382.3 504.8 381.9 506.8C381.8 507.2 381.8 507.4 381.8 507.5Z" fill="white"/>
<path d="M400.6 503.3C400.2 502.7 400 502.1 400 501.4C400 499.4 401.9 497.3 403.9 497.1C404.8 497 405.5 497.1 406.2 497.6C407.2 498.4 407.4 499.9 406.7 501.4C406.6 501.7 406.4 502 406.2 502.3C406 502.6 405.8 502.8 405.5 503.1C406.4 503.1 407.3 503.1 408.2 503C409 502.9 409.5 502.4 409.7 501.5C409.9 500.9 409.9 500.3 410.1 499.7C410.6 498.2 411.9 497.1 413.3 496.8C414.5 496.6 415.5 496.7 416.2 497.5C416.9 498.2 417 499.3 416.7 500.4C416.2 502.1 414.8 503.4 413.2 503.6C412 503.8 411 503.6 410.3 502.7C410.2 502.6 410.2 502.5 410 502.7C409.3 503.5 408.6 503.8 407.7 503.8C404.5 503.9 401.3 504 398.1 504.1C397.6 504.1 397.2 504 396.8 503.8C396.7 503.7 396.6 503.7 396.5 503.9C396 504.9 395.2 505.5 394.3 505.9C394.1 506 394 506 393.9 505.8C393.8 505.6 393.9 505.5 394.1 505.3C394.2 505.2 394.3 505.2 394.3 505.1C394.9 504.6 395.2 504 395.4 503.3C395.7 501.6 396.1 499.9 396.4 498.2C396.4 498 396.4 497.9 396.2 497.9C396 497.9 395.8 497.8 395.9 497.5C396 497.2 396.2 497.2 396.4 497.2C397 497.2 397.5 497.2 398.1 497.2C398.3 497.2 398.4 497.3 398.4 497.5C398.4 497.7 398.3 497.9 398 497.9C397.8 497.9 397.7 498.1 397.7 498.3C397.5 499.4 397.3 500.5 397.1 501.6C397 501.9 397.1 502.2 397.1 502.5C397.2 503 397.6 503.2 398.1 503.2C398.9 503.4 399.7 503.3 400.6 503.3ZM401.6 500.5C401.4 501.4 401.5 502.2 402.1 502.8C402.8 503.5 404.2 503.3 404.9 502.4C405.7 501.4 405.9 499.8 405.5 498.9C405.1 498.2 404.5 498 403.6 498.1C402.8 498.3 402.2 498.8 401.8 499.6C401.7 499.9 401.6 500.2 401.6 500.5ZM411.3 500.1C411.1 501.2 411.2 502 411.7 502.4C412.5 503.2 414 502.9 414.7 501.8C415.3 500.8 415.5 499.7 415.2 498.7C414.9 497.9 414.2 497.6 413.3 497.7C412.5 497.8 412 498.3 411.6 499C411.5 499.5 411.4 499.9 411.3 500.1Z" fill="white"/>
<path d="M393.1 517.2C392.9 517.3 392.7 517.4 392.6 517.5C390.5 518.9 387.7 518.7 386.5 517.1C385.2 515.4 385.7 512.4 387.5 510.5C388.6 509.4 389.8 508.8 391.2 508.6C392.4 508.5 393.4 508.7 394.3 509.3C395.3 510 395.7 511 395.6 512.3C395.5 514 395.2 515.7 394.6 517.4C394.2 518.8 393.2 519.7 392 520.5C391.8 520.6 391.6 520.7 391.4 520.7C391.2 520.7 391.1 520.7 391.1 520.5C391.1 520.3 391.2 520.2 391.3 520.1C391.6 519.9 391.9 519.7 392.1 519.4C392.5 518.9 392.8 518.3 392.9 517.7C393 517.6 393 517.4 393.1 517.2ZM387.7 513.3C387.6 513.7 387.6 514.1 387.6 514.4C387.6 516.2 388.6 517.4 390.4 517.3C391.5 517.2 392.5 516.6 393.1 515.5C393.6 514.5 393.8 513.6 393.9 512.6C394 510.8 393 509.6 391.2 509.7C390.1 509.8 389.1 510.3 388.4 511.5C388 512.2 387.8 512.7 387.7 513.3Z" fill="white"/>
<path d="M406.2 512.1C406.4 511.3 406.5 510.4 406.7 509.6C406.8 509.1 406.7 509.1 406.3 509C406.1 509 405.9 508.9 405.9 508.6C405.9 508.3 406.2 508.2 406.4 508.2C407.2 508.2 408.1 508.1 408.9 508.1C409.1 508.1 409.3 508.2 409.3 508.5C409.3 508.8 409.1 508.9 408.8 508.9C408.5 508.9 408.4 509.1 408.3 509.4C408.1 510.7 407.8 512 407.6 513.3C407.5 513.9 407.3 514.5 407.1 515C406.5 516.6 405.4 517.5 403.9 517.9C402.4 518.2 401.1 517.6 400.6 516.3C400.5 516.2 400.5 516.1 400.4 516.3C398.9 517.9 397.2 518.3 395.4 518.1C395.2 518.1 395.1 517.9 395.1 517.7V517.6C395.2 516.9 395.3 516.9 395.9 517C396.8 517.2 397.7 517.1 398.6 516.4C399.2 515.9 399.7 515.2 399.9 514.5C400.4 513.1 400.6 511.8 399.9 510.6C399.4 509.6 398.4 509.3 397.2 509.5C397.1 509.5 397.1 509.5 397 509.5C396.7 509.6 396.6 509.5 396.6 509.2C396.6 508.8 396.8 508.5 397.1 508.5C399.1 508.1 401.2 508.5 401.9 510.7C402.1 511.5 402.1 512.3 402 513.1C401.9 513.7 401.7 514.4 401.7 515C401.7 516.1 402.2 516.7 403.1 516.8C403.8 516.8 404.5 516.5 405 515.8C405.3 515.4 405.5 514.9 405.7 514.4C405.7 514.2 405.8 514 405.8 513.8C406 513.4 406.1 512.7 406.2 512.1Z" fill="white"/>
<path d="M405 518.9C405.5 518.3 406 518.1 406.5 518.3C407 518.5 407.1 519 407 519.6C407.7 519.1 408.2 518.4 408.4 517.7C408.7 516.8 408.9 516 409 515.1C409.4 513.3 409.7 511.5 410.1 509.6C410.2 509.1 410.2 509 409.7 508.9C409.5 508.9 409.3 508.8 409.4 508.5C409.5 508.2 409.7 508.2 409.9 508.2C410.6 508.2 411.3 508.1 412.1 508.1C412.2 508.1 412.4 508.1 412.5 508.1C412.7 508.1 412.8 508.2 412.7 508.5C412.7 508.7 412.5 508.9 412.3 508.9C411.9 508.9 411.8 509.2 411.7 509.5C411.3 511.5 411 513.4 410.6 515.4C410.5 516.1 410.3 516.7 410.1 517.4C409.5 518.9 408.4 519.9 407 520.4H406.9C406.6 520.3 406.2 520.6 405.9 520.6C405.5 520.7 405.1 520.6 404.9 520.2C404.8 520.1 404.8 520 404.6 520.2C404 520.8 403.3 520.9 402.9 520.4C402.5 519.9 402.7 519.1 403.3 518.6C403.9 518.1 404.6 518.2 404.9 518.8C404.9 518.8 404.9 518.9 405 518.9Z" fill="white"/>
<path d="M389.9 497.5C391.1 497.5 392 497.8 392.5 498.9C393.2 500.4 392.3 503.5 389.7 504.3C388.4 504.7 387.3 504.6 386.4 503.8C385.8 503.2 385.7 502.4 385.8 501.5C386 499.5 387.6 497.9 389.4 497.6C389.5 497.6 389.7 497.6 389.9 497.5ZM388.8 503.6C389.4 503.6 390 503.3 390.5 502.7C391.3 501.5 391.5 500.4 391.1 499.3C390.8 498.5 390.1 498.3 389.3 498.4C388.4 498.5 387.8 499.1 387.5 500C387.2 500.8 387.1 501.5 387.3 502.2C387.4 503.2 387.9 503.6 388.8 503.6Z" fill="white"/>
<path d="M395.3 494.5C395.1 494.5 394.8 494.5 394.6 494.5C394.4 494.5 394.2 494.5 394.1 494.8C394 495.1 394.1 495.4 394.4 495.4C394.6 495.4 394.8 495.4 395.1 495.4C395.7 495.4 396.3 495.4 396.9 495.4C397.2 495.4 397.3 495.5 397.3 495.8C397.2 496.1 397 496.2 396.8 496.2C396.5 496.2 396.3 496.2 396.2 496.6C396.2 496.7 396 496.8 395.9 496.8C395.6 496.8 395.6 496.9 395.5 497.2C395.2 498.2 395.1 499.2 394.9 500.2C394.7 501.3 394.5 502.3 394.3 503.4C394.3 503.7 394.3 503.8 394.5 503.8C394.7 503.8 394.8 503.9 394.7 504.2C394.6 504.4 394.5 504.5 394.3 504.5C393.7 504.5 393.2 504.5 392.6 504.5C392.4 504.5 392.3 504.4 392.3 504.2C392.3 504 392.4 503.9 392.6 503.8C392.8 503.8 392.9 503.6 392.9 503.4C393.3 501.3 393.7 499.2 394.1 497.1C394.1 496.9 394.1 496.8 393.9 496.8C393.8 496.8 393.7 496.8 393.7 496.7C393.7 496.5 393.6 496.5 393.4 496.6C393.3 496.7 393.1 496.7 393.1 496.6C393 496.5 393 496.3 393.1 496.2C393.3 496 393.3 495.8 393.2 495.6C392.9 494.7 393.7 493.7 394.6 493.6C395.1 493.6 395.6 493.6 396.1 493.6C396.4 493.6 396.7 493.5 397 493.3C397.1 493.2 397.3 493.1 397.4 493.2C397.5 493.3 397.5 493.5 397.4 493.6C397.2 494.1 396.6 494.4 396.1 494.4C395.8 494.5 395.5 494.5 395.3 494.5Z" fill="white"/>
<path d="M376.7 515.7C376.5 516.8 376.3 517.9 376.1 519C376 519.4 375.9 519.5 375.6 519.4C374.9 519.2 374.4 518.8 374.1 518.1C374 517.9 374 517.6 374 517.4C374.2 516.3 374.4 515.2 374.7 514C374.8 513.6 375 513.3 375.2 513C375.7 512.4 376.3 512 377 511.9C377.3 511.9 377.4 511.9 377.3 512.2C377.1 513.4 376.9 514.5 376.7 515.7Z" fill="white"/>
<path d="M422.6 514.3C422.5 514.7 422.4 515.2 422.3 515.6C422.2 516.5 421.6 517.1 420.8 517.6C420.5 517.8 420.2 517.9 419.8 518C419.6 518.1 419.4 518 419.5 517.7C419.9 515.4 420.4 513.2 420.8 510.9C420.8 510.7 420.9 510.6 421.1 510.6C422 510.7 422.5 511.1 422.8 512C422.9 512.2 422.9 512.4 422.8 512.7C422.8 513.3 422.7 513.8 422.6 514.3Z" fill="white"/>
<path d="M393.8 475.4C394.2 475.5 394.5 475.7 394.9 475.9C396 476.5 397.1 477.1 398.1 477.7C399.1 478.3 400.1 479 401.1 479.5C402 480 402.9 480.7 403.8 481.3C404.1 481.5 404.4 481.7 404.6 481.9C404.6 482 404.7 482 404.7 482.1C404.6 482.2 404.5 482.2 404.5 482.1C403 481.6 401.6 480.9 400.3 479.9C399.2 479.1 398.1 478.4 397 477.6C395.9 476.9 394.9 476.2 393.8 475.5C393.7 475.5 393.6 475.4 393.7 475.3C393.6 475.4 393.7 475.4 393.8 475.4Z" fill="white"/>
<path d="M418.7 474.8C418.7 474.9 418.5 475 418.5 475C417.9 475.4 417.2 475.7 416.6 476.1C415.2 476.9 413.8 477.7 412.4 478.5C410.7 479.5 409 480.6 407.2 481.4C406.5 481.7 405.8 482 405 482.3C404.9 482.3 404.8 482.4 404.8 482.3C404.8 482.2 404.8 482.1 404.9 482.1C405.2 481.9 405.5 481.7 405.8 481.5C407 480.8 408.1 480.2 409.3 479.5C411 478.6 412.5 477.8 414 477C415.4 476.3 416.8 475.5 418.2 474.9C418.3 474.8 418.4 474.8 418.5 474.8C418.7 474.7 418.7 474.7 418.7 474.8Z" fill="white"/>
<path d="M402.9 495.9C403 495.5 403.2 495.2 403.5 495C403.9 494.8 404.2 494.8 404.4 495.1C404.5 495.2 404.6 495.2 404.8 495.1C405.2 494.8 405.7 494.8 406 495.2C406.2 495.5 406.2 496.1 405.8 496.4C405.4 496.8 404.9 496.9 404.6 496.6C404.4 496.5 404.3 496.5 404.1 496.6C403.8 496.8 403.5 496.9 403.2 496.7C402.9 496.6 402.8 496.3 402.9 495.9Z" fill="white"/>
<path d="M388.5 496.3C388.6 496 388.8 495.7 389.1 495.5C389.4 495.3 389.8 495.3 390 495.6C390.1 495.7 390.2 495.7 390.4 495.6C390.9 495.3 391.4 495.3 391.6 495.7C391.8 496 391.7 496.6 391.3 496.9C390.9 497.3 390.4 497.4 390 497C389.9 496.9 389.8 496.9 389.7 497C389.4 497.3 389 497.3 388.7 497.2C388.5 497 388.4 496.7 388.5 496.3Z" fill="white"/>
<path d="M410.4 506.2C410.5 505.5 411.1 505 411.7 505C412.3 505 412.7 505.5 412.6 506.2C412.5 506.9 411.9 507.4 411.2 507.4C410.7 507.4 410.3 506.9 410.4 506.2Z" fill="white"/>
<path d="M408.1 476C407.7 476 407.5 475.8 407.5 475.4C407.5 475.1 407.7 474.8 408 474.8C408.5 474.6 408.9 474.4 409.4 474.3C409.7 474.2 409.9 474.4 410 474.6C410.1 474.9 410 475.2 409.7 475.4C409.5 475.6 409.2 475.7 408.9 475.8C408.6 475.8 408.4 475.9 408.1 476Z" fill="white"/>
<path d="M405.6 472.3C405.8 472.3 406 472.5 406 472.7C406.1 473.1 406.1 473.5 406.1 473.8C406.1 474.2 405.9 474.6 405.5 474.7C405.3 474.9 405 474.7 405 474.3C405 474 404.9 473.7 404.9 473.4C404.9 473.2 404.8 473 404.9 472.8C405 472.4 405.2 472.3 405.6 472.3Z" fill="white"/>
<path d="M404.7 475.4C404.6 475.8 404.1 476.1 403.8 476C403.4 475.8 403 475.6 402.7 475.4C402.4 475.2 402.4 474.9 402.7 474.6C402.9 474.3 403.2 474.2 403.5 474.3C403.8 474.5 404.2 474.6 404.5 474.8C404.6 474.9 404.8 475 404.7 475.4Z" fill="white"/>
<path d="M408.6 473C408.6 473.2 408.5 473.4 408.3 473.5C408.1 473.8 407.9 474.1 407.7 474.4C407.4 474.8 407.1 474.9 406.8 474.7C406.5 474.6 406.5 474.2 406.7 473.8C407 473.4 407.2 472.9 407.6 472.5C407.9 472.2 408.1 472.2 408.3 472.3C408.6 472.5 408.7 472.7 408.6 473Z" fill="white"/>
</g>
<defs>
<filter id="filter0_i_1_2489" x="374" y="472" width="53.5" height="56.8" filterUnits="userSpaceOnUse" color-interpolation-filters="sRGB">
<feFlood flood-opacity="0" result="BackgroundImageFix"/>
<feBlend mode="normal" in="SourceGraphic" in2="BackgroundImageFix" result="shape"/>
<feColorMatrix in="SourceAlpha" type="matrix" values="0 0 0 0 0 0 0 0 0 0 0 0 0 0 0 0 0 0 127 0" result="hardAlpha"/>
<feOffset dy="4"/>
<feGaussianBlur stdDeviation="2"/>
<feComposite in2="hardAlpha" operator="arithmetic" k2="-1" k3="1"/>
<feColorMatrix type="matrix" values="0 0 0 0 0 0 0 0 0 0 0 0 0 0 0 0 0 0 0.25 0"/>
<feBlend mode="normal" in2="shape" result="effect1_innerShadow_1_2489"/>
</filter>
<clipPath id="clip0_1_2489">
<rect width="53.5" height="52.8" fill="white" transform="translate(374 472)"/>
</clipPath>
</defs>
</svg>
