<svg width="137" height="179" viewBox="0 0 137 179" fill="none" xmlns="http://www.w3.org/2000/svg">
<path d="M70.7284 122.256C68.3917 119.997 65.7747 120.337 63.1577 120.23C56.9977 119.968 50.7954 120.005 44.7676 118.416C43.8437 118.168 42.7413 117.713 42.1979 116.998C40.5111 114.76 38.5171 112.522 37.652 109.938C36.8079 107.427 36.3672 104.631 36.9057 101.76C37.9042 96.4677 39.9538 91.5554 41.921 86.5975C44.5399 79.985 46.88 73.2646 49.5998 66.6923C52.7546 59.0529 56.0102 51.4538 59.5552 43.9991C62.8766 37.0053 66.6589 30.235 70.1637 23.327C71.5851 20.5284 72.9122 17.6778 74.0966 14.7792C75.0135 12.5326 76.6477 11.4662 78.9269 11.4323C81.635 11.3736 84.4004 11.239 87.0458 11.684C91.4628 12.4299 95.7869 13.6783 100.172 14.6218C103.224 15.2762 106.299 15.9737 109.398 16.2382C112.653 16.5272 115.177 17.7205 117.107 20.354C118.466 22.211 120.036 23.9079 121.345 25.7991C122.29 27.1512 123.054 28.6646 123.722 30.1862C123.986 30.7935 124.044 31.748 123.738 32.302C120.683 37.7821 119.122 43.8712 116.653 49.5981C111.813 60.7664 106.442 71.612 99.5138 81.659C96.9651 85.3579 94.7269 89.2742 92.3132 93.0629C91.239 94.7306 90.0824 96.3528 88.9205 97.9568C84.5842 103.975 80.2649 110.019 75.8579 115.998C74.3898 118.017 72.7055 119.871 70.7284 122.256ZM108.351 21.0888C101.571 19.9154 94.6202 18.6626 87.6639 17.5302C85.814 17.2321 83.9128 17.3054 82.0397 17.1329C79.4093 16.9115 77.636 17.8397 76.876 20.5266C76.4877 21.9269 75.831 23.2561 75.2817 24.6137C72.4778 31.4779 69.7629 38.3759 66.8346 45.1868C64.1868 51.3222 61.094 57.2888 58.5706 63.4774C54.3355 73.8268 50.3727 84.2957 46.3274 94.719C45.6951 96.3384 45.2762 98.0448 44.6854 99.9793C49.6637 100.405 54.2298 100.741 58.7963 101.216C60.2784 101.372 61.1687 100.818 61.8676 99.6352C63.0389 97.652 64.281 95.7079 65.4104 93.717C71.2114 83.5397 76.9599 73.3182 82.808 63.167C87.3587 55.2831 91.9802 47.4382 96.6895 39.6571C100.515 33.3105 104.558 27.0993 108.351 21.0888ZM119.623 32.43C117.543 28.76 115.412 24.9854 113.006 20.7356C110.475 25.3211 108.122 29.2508 106.1 33.3327C102.051 41.478 98.3554 49.8185 94.1648 57.8858C90.6532 64.667 86.6754 71.2063 82.839 77.8236C78.0683 86.0782 73.2687 94.3015 68.422 102.499C67.4316 104.182 66.1583 105.709 64.9692 107.39C66.7124 109.721 67.9918 112.195 70.1391 114.072C85.7507 92.9167 112.518 49.4842 119.623 32.43ZM42.6975 108.709C45.0466 113.48 45.5197 113.849 49.8935 114.617C55.1648 115.543 60.4362 116.468 66.0843 117.463C64.9139 115.125 63.8702 112.781 62.5916 110.584C62.2815 110.059 61.2267 109.769 60.4942 109.703C56.7834 109.378 53.0518 109.117 49.336 108.912C47.1962 108.777 45.045 108.774 42.6975 108.709Z" fill="#4259CC"/>
<path d="M26.3849 138.857C31.7317 129.475 37.5365 124.836 46.0202 124.12C46.534 124.081 47.0844 124.031 47.5507 123.827C52.024 121.851 56.4644 122.61 60.4759 124.732C65.7028 127.493 68.3965 132.532 69.4479 138.095C72.7732 155.615 59.9848 171.655 39.746 169.512C35.462 169.055 31.8627 167.022 29.2709 163.332C27.2765 160.509 24.9976 157.867 24.5963 154.247C23.9421 148.104 24.5635 142.158 26.3849 138.857ZM58.6185 145.82C61.0103 142.127 61.5244 138.966 60.5301 135.111C59.8585 132.51 58.242 131.065 55.5819 130.535C53.4479 130.111 51.3732 129.412 49.2688 128.85C48.6786 128.693 48.0555 128.457 47.4632 128.499C34.291 129.519 28.551 140.421 30.0376 150.991C30.5502 154.688 35.8253 158.783 40.029 157.213C42.3608 156.331 44.8319 155.727 47.2852 155.266C52.0884 154.364 55.2801 151.451 57.7025 147.452C58.0371 146.929 58.3127 146.374 58.6185 145.82ZM65.7893 143.749C64.6379 145.835 63.586 147.992 62.3049 150.007C58.7886 155.571 54.3886 159.893 47.5191 161.223C44.4033 161.826 41.4467 163.254 38.9645 164.129C51.3528 168.905 66.3259 158.269 65.7893 143.749Z" fill="#4259CC"/>
</svg>
