<svg width="128" height="128" viewBox="0 0 128 128" fill="none" xmlns="http://www.w3.org/2000/svg">
<path d="M107.977 19.9088C83.5117 -4.21989 44.0039 -3.91699 19.9088 20.5146C-4.21989 44.9798 -3.91699 84.4876 20.5146 108.583C44.9798 132.711 84.4876 132.408 108.583 107.977C132.711 83.5453 132.442 44.0375 107.977 19.9088ZM120.361 41.0761C129.346 62.8492 125.14 88.8288 107.674 106.698C107.472 104.41 105.689 102.424 105.924 100.102C106.16 97.7803 108.987 96.7707 109.626 94.5497C110.265 92.3623 108.919 90.2085 107.64 88.5596C106.16 86.675 104.342 85.0597 102.559 83.478C101.045 82.1319 99.4629 80.7859 98.4197 79.0359C97.511 77.4879 97.2755 75.6707 96.1313 74.2236C95.9631 74.0217 95.5928 73.9208 95.3573 74.0217C92.0257 75.3342 88.9297 77.1514 85.6318 78.6321C82.3675 80.0791 78.1946 81.5599 74.6274 80.4493C70.8584 79.2715 69.2768 74.6948 67.897 71.3969C66.5846 68.3008 65.7096 64.5318 66.7865 61.2002C67.9643 57.5994 71.4978 56.3543 74.9977 56.3879C78.2283 56.4216 81.5598 56.8927 84.7231 55.9841C88.1893 54.9745 90.5114 52.316 92.3623 49.3546C94.6506 45.6865 96.2323 41.5472 98.9918 38.1484C100.136 36.735 101.617 35.1197 103.434 34.6822C104.78 34.3793 106.126 34.9177 107.304 35.5235C109.155 36.4321 110.938 37.408 112.89 38.1147C115.178 38.956 117.534 39.73 119.52 41.1771C119.822 41.3454 120.125 41.2444 120.361 41.0761ZM106.866 21.0193C108.953 23.1058 110.871 25.2932 112.621 27.5815C110.669 27.2114 108.717 27.9181 106.765 27.9181C104.174 27.9181 101.852 26.5047 99.4292 25.7643C97.6456 25.2259 96.0304 25.1922 94.3478 25.9662C92.3623 26.9085 91.0498 28.5575 89.6028 30.1391C88.8961 30.9132 88.122 31.7208 87.1461 32.1919C86.2712 32.5958 85.5645 32.3602 84.7905 31.8554C83.1752 30.8122 81.9974 29.1632 80.6849 27.7498C78.7667 25.7307 76.5794 24.0144 74.291 22.4327C72.1036 20.9184 69.7816 19.6733 68.9066 16.9811C68.0653 14.4908 68.0653 12.0342 68.3008 9.47663C68.4691 7.5248 68.6037 5.53931 68.0653 3.68843C82.1992 4.59704 96.064 10.3516 106.866 21.0193ZM6.27962 71.9353C5.57292 72.3055 4.7653 72.642 4.26051 73.2477C1.56833 55.0082 7.12098 35.7591 21.053 21.6251C25.9326 16.6782 31.4852 12.7409 37.408 9.84681C39.0233 17.9234 45.35 23.7788 48.6142 31.115C49.8257 33.8745 50.2632 36.9033 49.0181 39.7637C47.4701 43.2635 44.3741 45.7875 41.8501 48.5806C40.5377 50.0276 39.2925 51.6093 38.4176 53.3592C37.5426 55.1764 37.1388 57.061 36.9706 59.0465C36.6004 63.354 35.5908 67.7288 33.1005 71.2959C31.9227 73.0122 30.3747 74.4929 28.6248 75.637C26.9758 76.7139 24.9567 77.7908 23.0048 78.0937C20.2453 78.5312 18.7646 74.3919 17.7551 72.5074C16.6782 70.4209 14.6927 65.5077 11.5294 66.3826C9.84681 66.8538 8.97185 68.7047 8.16419 70.0844C7.5921 70.9257 7.12093 71.4642 6.27962 71.9353ZM12.5726 96.0976C10.89 93.3382 9.40931 90.5114 8.19783 87.5836C8.80357 87.348 9.30834 86.8769 9.81312 86.5068C10.4862 85.9347 11.1929 85.3626 11.9669 84.9587C12.6063 84.6559 13.2457 84.5886 13.7841 84.8578C14.4908 85.228 15.0966 85.8337 15.6686 86.4058C16.3417 87.0789 16.9474 87.8192 17.4858 88.5932C17.8897 89.1989 18.3608 89.9056 18.5627 90.5113C18.7983 91.2853 18.8992 92.2276 18.4281 92.9007C18.0579 93.4391 17.4186 93.8093 16.8128 94.0448C16.0388 94.3814 15.1975 94.5497 14.3898 94.8525C13.7168 95.1217 12.9428 95.4246 12.5726 96.0976ZM56.3543 124.433C56.287 124.332 56.186 124.231 56.085 124.164C55.3783 123.659 54.5034 123.423 53.6621 123.154C53.2583 123.02 52.8208 122.818 52.4506 122.548C54.4697 121.404 56.5562 120.159 58.8782 119.89C59.4839 119.823 60.0897 119.823 60.6954 119.957C60.9647 120.024 61.0656 120.058 61.2675 120.159C61.3012 120.193 61.3348 120.193 61.3685 120.226C61.4021 120.26 61.4358 120.294 61.4694 120.327C61.4694 120.327 61.4694 120.327 61.4694 120.361C61.4694 120.361 61.4694 120.395 61.5031 120.395C61.5031 120.395 61.5031 120.395 61.5031 120.428C61.5031 120.462 61.5031 120.462 61.5368 120.496C61.5368 120.563 61.5368 120.63 61.5368 120.664C61.5368 120.664 61.5031 120.832 61.5031 120.866C61.4021 121.27 61.2675 121.64 61.1329 122.01C60.7964 122.885 60.3926 123.894 60.6954 124.837C59.2147 124.736 57.8013 124.601 56.3543 124.433ZM93.2036 117.601C93.069 117.534 92.9007 117.501 92.7324 117.534C91.5209 117.702 90.3094 117.635 89.3672 116.794C88.4586 115.986 87.7856 114.909 87.0116 113.967C86.2712 113.058 85.4298 112.183 84.8241 111.174C84.5212 110.635 84.1511 109.996 84.454 109.39C84.8914 108.482 86.2038 107.977 87.0452 107.64C88.0211 107.237 88.997 106.799 89.9729 106.395C91.1507 105.924 92.3623 105.453 93.6074 105.15C94.617 104.881 95.7611 104.612 96.8043 104.847C98.1168 105.15 98.9917 106.597 99.6648 107.64C100.506 108.953 101.213 110.366 102.155 111.611C102.155 111.611 102.189 111.611 102.189 111.645C99.3283 113.9 96.3333 115.919 93.2036 117.601ZM103.4 110.635C102.492 109.357 101.785 107.943 100.91 106.664C100.136 105.453 99.16 104.073 97.7803 103.501C96.6024 103.03 95.29 103.165 94.0785 103.4C92.5641 103.703 91.1171 104.208 89.7037 104.78C88.5595 105.217 87.449 105.722 86.3385 106.193C85.1607 106.698 83.7809 107.338 83.1079 108.515C81.8964 110.635 84.0502 112.924 85.329 114.438C86.3385 115.616 87.1798 117.063 88.4249 118.073C89.0643 118.577 89.7374 118.88 90.4441 119.015C81.5599 123.255 71.8007 125.241 62.1425 124.904C62.2098 124.769 62.2434 124.601 62.1761 124.399C62.1761 124.366 62.1425 124.231 62.1425 124.197C62.1425 124.164 62.1425 124.029 62.1425 123.995C62.1425 123.962 62.1425 123.962 62.1425 123.962C62.1425 123.928 62.1425 123.861 62.1761 123.827C62.2098 123.726 62.2098 123.592 62.2434 123.491C62.378 123.053 62.5463 122.616 62.7146 122.212C63.0511 121.371 63.3203 120.395 62.8828 119.553C62.2771 118.443 60.6954 118.241 59.5849 118.241C58.0706 118.275 56.5899 118.779 55.2101 119.351C53.7294 119.991 52.316 120.832 50.9026 121.606C50.4988 121.842 50.4315 122.313 50.5998 122.683C50.768 123.02 50.9699 123.289 51.2055 123.491C40.4031 121.135 30.1055 115.784 21.6251 107.472C18.4281 104.309 15.6687 100.876 13.313 97.2755C13.5486 97.2755 13.7841 97.1745 13.9187 96.9053C13.9187 96.9053 13.9524 96.8716 13.9524 96.838C13.986 96.8043 14.0197 96.7707 14.0533 96.737C14.1207 96.7034 14.2889 96.6024 14.3226 96.5688C14.5581 96.4678 14.9283 96.3332 15.2648 96.2323C16.1398 95.9631 16.9811 95.7275 17.8224 95.3237C18.63 94.9535 19.3367 94.415 19.8079 93.6747C20.38 92.7324 20.4136 91.5882 20.2117 90.545C19.8415 88.7278 18.4281 87.0452 17.2166 85.7327C16.0051 84.3866 14.4235 82.7713 12.4717 83.1078C11.3612 83.2761 10.4189 83.9828 9.5439 84.6559C9.14007 84.9924 8.73624 85.3289 8.33241 85.6318C8.16415 85.7664 7.99591 85.8674 7.82765 85.9683C7.72669 86.0356 7.69305 86.0693 7.62574 86.0693C6.21235 82.4012 5.1691 78.5984 4.49605 74.7621C4.79892 74.8294 5.10183 74.7284 5.27009 74.3919C5.60662 73.6516 6.88538 73.3824 7.55842 72.9449C8.26512 72.4738 8.76993 71.9016 9.20741 71.1613C9.81315 70.1517 10.7554 67.6614 12.2361 67.796C13.313 67.897 14.1543 69.445 14.6591 70.2527C15.534 71.6997 16.2744 73.2141 17.0484 74.6948C18.2262 76.9158 19.8752 79.9109 22.8029 79.608C24.6538 79.4398 26.572 78.4638 28.1873 77.5889C30.0718 76.5456 31.7544 75.1996 33.1678 73.5506C35.86 70.3873 37.3407 66.4499 38.0474 62.378C38.4176 60.157 38.3839 57.8686 39.057 55.7149C39.6291 53.8303 40.706 52.1814 41.9511 50.667C44.5087 47.6047 47.773 45.0471 49.7584 41.5473C51.2392 38.9561 51.6766 36.0283 50.9362 33.1005C49.9267 29.0622 47.3018 25.4951 45.0808 22.0289C42.5232 18.0916 39.7973 13.986 38.8887 9.30836C38.8551 9.2074 38.8214 9.14007 38.7878 9.07277C47.3018 5.13545 56.5225 3.31824 65.7096 3.52016C65.7769 3.89033 66.2144 4.22686 66.6182 4.15956C67.1567 6.01044 66.8538 8.09687 66.6856 9.9814C66.4836 12.2698 66.6182 14.4572 67.1903 16.6782C67.8297 19.0339 69.1422 20.7165 71.1277 22.0962C73.5843 23.8125 76.0746 25.4278 78.262 27.4806C79.81 28.9613 81.1224 30.7112 82.7041 32.1246C84.0502 33.3025 85.6991 34.3457 87.5163 33.639C91.1508 32.1583 92.9344 26.3364 97.4101 26.8412C100.035 27.1104 102.357 28.7594 104.982 29.2305C106.294 29.4661 107.539 29.3988 108.818 29.1969C110.131 29.0286 111.443 28.7257 112.722 29.1296C113.092 29.2305 113.395 29.0959 113.53 28.8267C115.885 32.1246 117.871 35.5908 119.486 39.1579C117.837 38.1147 116.02 37.4417 114.169 36.7687C112.15 36.0283 110.299 35.1533 108.414 34.1774C105.823 32.8313 103.232 32.2592 100.674 34.0765C97.1073 36.634 95.0544 40.8405 93.069 44.6096C91.1844 48.1431 89.098 52.3833 85.1606 53.9986C81.7281 55.3784 77.9591 54.5707 74.392 54.6717C70.8585 54.739 67.2913 56.1187 65.676 59.4503C64.1616 62.6472 64.5991 66.5173 65.6423 69.7816C66.2481 71.6997 67.123 73.5506 67.998 75.3678C68.8393 77.1514 69.8152 78.9686 71.3632 80.2474C74.7957 83.1415 79.8436 82.3002 83.7473 80.8868C87.7183 79.4397 91.319 77.1851 95.2226 75.5698C95.9293 76.7139 96.1986 78.1273 96.8043 79.3052C97.5783 80.7522 98.6889 81.9637 99.9004 83.0742C101.65 84.7232 103.535 86.2375 105.184 88.0211C106.53 89.4345 108.65 91.7228 108.078 93.8766C107.809 94.9198 106.9 95.6601 106.16 96.4005C105.419 97.1408 104.746 97.9822 104.443 99.0254C104.073 100.372 104.41 101.751 104.915 103.03C105.386 104.275 106.261 105.756 106.092 107.169C106.059 107.438 106.16 107.674 106.328 107.842C105.386 108.886 104.41 109.794 103.4 110.635Z" fill="white" stroke="white" stroke-width="3"/>
</svg>
