<svg width="46" height="44" viewBox="0 0 46 44" fill="none" xmlns="http://www.w3.org/2000/svg">
<path d="M20.6224 2.93566C21.3707 0.632386 24.6293 0.632386 25.3776 2.93566L28.5863 12.811C29.0549 14.2531 30.3988 15.2295 31.915 15.2295H42.2986C44.7205 15.2295 45.7274 18.3285 43.7681 19.752L35.3676 25.8554C34.1409 26.7466 33.6276 28.3264 34.0962 29.7685L37.3049 39.6439C38.0532 41.9471 35.417 43.8625 33.4578 42.4389L25.0573 36.3356C23.8305 35.4444 22.1695 35.4444 20.9428 36.3356L12.5422 42.4389C10.583 43.8624 7.94676 41.9471 8.69514 39.6439L11.9038 29.7685C12.3724 28.3264 11.8591 26.7466 10.6324 25.8554L2.2319 19.752C0.272609 18.3285 1.27955 15.2295 3.70135 15.2295H14.0849C15.6012 15.2295 16.9451 14.2531 17.4137 12.8111L20.6224 2.93566Z" stroke="white"/>
</svg>
