<svg width="211" height="219" viewBox="0 0 211 219" fill="none" xmlns="http://www.w3.org/2000/svg">
<path d="M195.03 134.883C194.724 134.149 193.633 133.542 193.074 134.231C190.566 137.343 188.531 140.853 185.93 143.889C183.024 147.263 179.303 149.604 175.324 151.716C167.322 155.946 158.255 158.796 148.634 158.863C131.436 159.002 114.225 149.568 102.22 136.205C90.6084 123.279 84.3154 106.915 85.459 90.9713C86.5646 75.4074 94.2803 61.3303 106.01 52.0779C111.904 47.4345 118.922 43.9976 126.543 42.286C135.699 40.2112 145.285 41.4559 154.828 43.9202C157.179 44.5195 159.509 45.1928 161.839 45.8662C162.443 46.0304 163.099 45.7886 163.225 45.1821C163.655 42.8868 162.961 40.5964 161.633 38.4737C161.269 37.9142 160.722 37.7857 160.261 37.9204C160.5 37.5252 160.518 37.0093 160.103 36.5062C150.828 25.5571 137.848 19.4159 124.429 17.3891C111.031 15.3581 97.5993 16.9213 85.239 20.167C71.3717 23.7937 59.2567 30.9996 49.4833 40.6938C39.4999 50.5912 31.9521 62.9123 27.7887 76.6139C23.6913 90.0933 23.1878 104.82 27.0345 119.438C30.8883 134.078 38.4752 148.192 48.4271 160.386C58.3503 172.563 70.9689 182.989 85.2072 189.473C100.25 196.315 116.666 198.166 132.055 196.834C139.959 196.14 147.68 194.596 155.03 192.26C162.172 189.988 169.237 187.125 175.265 182.968C187.306 174.681 195.516 161.139 196.584 145.885C196.826 142.298 196.552 138.459 195.03 134.883ZM191.814 157.21C189.501 164.128 185.659 170.36 180.591 175.428C170.556 185.451 155.752 190.655 141.335 193.292C126.616 195.986 110.659 195.772 95.3814 191.048C80.8947 186.569 67.7202 177.762 56.9338 166.752C46.1116 155.703 37.5192 142.457 32.2433 128.461C27.017 114.619 25.3937 100.345 27.814 86.72C30.2716 72.8549 36.3384 60.0711 44.8781 49.4709C53.2656 39.0396 64.1203 30.4902 76.9082 25.3689C82.7394 23.0206 89.0127 21.4732 95.3342 20.3592C101.569 19.2617 107.945 18.6731 114.44 18.8073C127.063 19.076 140.49 22.2661 151.182 30.7779C153.871 32.9203 156.335 35.3618 158.561 37.9887C158.897 38.3905 159.293 38.478 159.625 38.368C159.465 38.6548 159.427 39.0349 159.698 39.449C160.491 40.6954 161.002 41.9955 161.024 43.3426C151.842 40.7163 142.521 38.4425 133.286 38.9946C124.498 39.508 116.186 42.4931 109.163 46.9095C95.9332 55.2137 86.6713 68.9105 83.8942 84.6305C81.0212 100.765 85.5379 118.027 96.3567 132.409C107.176 146.791 123.764 158.137 141.185 160.611C151.216 162.027 161.048 160.336 169.845 156.862C174.326 155.098 178.688 152.89 182.569 150.192C186.024 147.808 188.576 144.619 190.97 141.226C191.834 139.989 192.719 138.749 193.611 137.53C195.499 144.159 193.782 151.359 191.814 157.21Z" fill="#4259CC" stroke="#4259CC"/>
<path d="M47.2635 85.8416C44.7903 83.8838 41.7569 82.589 38.7871 82.7641C35.3247 82.9642 32.9364 85.1585 31.5936 88.0557C31.016 89.3011 33.0646 90.5761 33.6422 89.3307C34.6528 87.1687 36.247 85.3349 38.8321 85.025C41.0031 84.7713 43.2893 85.6534 45.2023 86.9312C49.9455 90.1448 52.4327 96.1758 52.5195 101.323C52.6129 106.562 50.4664 111.628 47.0575 115.176C44.2085 118.13 39.214 120.569 35.4261 116.223C32.5745 112.948 30.5374 106.831 32.3835 103.235C33.011 102.003 30.9624 100.728 30.3349 101.96C28.2434 106.066 30.0226 112.372 32.8701 116.411C34.3789 118.554 36.4112 120.203 38.9705 120.731C41.8506 121.338 44.4753 120.302 46.5745 118.765C51.3174 115.333 54.2747 109.463 54.7492 103.444C55.21 97.3112 52.6648 90.1103 47.2635 85.8416Z" fill="#4259CC" stroke="#4259CC"/>
<path d="M65.5165 52.9257C64.1124 52.1092 62.5443 51.9368 61.0623 52.0308C57.478 52.2427 53.9363 54.0256 51.9658 56.7817C51.6276 57.2468 51.959 58.0557 52.4827 58.3801C52.2393 58.8507 52.0179 59.3171 51.8037 59.8058C51.1088 61.4702 50.5295 63.3483 50.9716 65.2909C51.4137 67.2335 53.0997 68.5619 55.0014 69.1185C57.6536 69.9092 60.246 69.58 62.384 68.2768C66.0303 66.0262 68.9746 61.3168 68.0583 56.6128C67.767 55.1364 66.8987 53.7464 65.5165 52.9257ZM65.7874 56.8572C65.787 56.9279 65.8157 57.0167 65.8153 57.0875C65.8361 57.2957 65.8569 57.5038 65.8486 57.6939C65.866 58.5391 65.7522 59.3385 65.5289 60.1589C65.0003 62.1216 63.8523 63.8959 62.3783 65.2375C60.9776 66.518 59.1042 67.4879 57.0109 67.2742C56.121 67.1846 55.1004 66.9785 54.3511 66.5321C54.0311 66.3339 53.9438 66.2798 53.6608 65.9802C53.6317 65.9622 53.6317 65.9622 53.6317 65.9622C53.6245 65.94 53.6245 65.94 53.5954 65.922C53.552 65.8596 53.5085 65.7971 53.4651 65.7347C53.4216 65.6723 53.4001 65.6057 53.3566 65.5433C53.3423 65.4989 53.3494 65.5211 53.3204 65.5031C53.3132 65.4809 53.3132 65.4809 53.2988 65.4365C53.2414 65.2589 53.1839 65.0813 53.1484 64.8995C53.1911 65.1035 53.128 64.6206 53.1212 64.5276C53.0944 64.0849 53.1174 63.8684 53.1632 63.5061C53.2916 62.6803 53.5369 61.8558 53.8327 61.1159C54.4982 59.5042 55.3601 57.9965 56.222 56.4888C56.3104 56.3305 56.333 56.1848 56.3557 56.0391C56.4509 55.9738 56.5242 55.9127 56.6266 55.8696C57.8637 55.1624 58.8949 54.7537 60.2756 54.4905C60.6043 54.4278 60.9331 54.3651 61.2542 54.351C61.3929 54.3482 61.5463 54.3189 61.685 54.316C61.4587 54.3356 61.9185 54.3187 62.0134 54.3242C62.3198 54.3364 62.6262 54.3487 62.9399 54.3832C63.0347 54.3887 63.1586 54.4122 63.2607 54.4399C63.2898 54.4579 63.5376 54.5049 63.5886 54.5188C63.7197 54.5645 63.8509 54.6102 63.982 54.6559C64.033 54.6698 64.2514 54.7695 64.2586 54.7917C64.3387 54.8236 64.404 54.8818 64.4842 54.9137C64.5423 54.9498 64.7241 55.0801 64.7532 55.0981C64.8257 55.1786 64.913 55.2326 64.9856 55.3131C65.0218 55.3533 65.1741 55.5364 65.1741 55.5364C65.2176 55.5988 65.2682 55.6834 65.3116 55.7458C65.3551 55.8083 65.4345 55.9817 65.4707 56.0219C65.5788 56.2841 65.6721 56.5727 65.7364 56.8433C65.8021 56.8308 65.7802 56.835 65.7874 56.8572Z" fill="#4259CC" stroke="#4259CC"/>
<path d="M110.209 24.8414C108.813 24.2081 107.304 24.0934 105.852 24.2282C105.568 23.9984 105.202 23.8788 104.879 23.964C102.817 24.5229 100.951 25.4706 99.318 26.7053C97.7435 27.9052 96.3352 29.5467 95.9141 31.5682C95.5529 33.3415 95.872 35.3402 97.3076 36.8181C98.6047 38.1568 100.463 38.7731 102.183 39.0368C105.697 39.5739 109.395 38.7267 111.701 36.3932C113.623 34.4641 114.754 31.3131 113.604 28.4076C113.005 26.8412 111.802 25.5791 110.209 24.8414ZM111.648 29.7275C111.67 29.7944 111.684 29.9101 111.676 29.9589C111.698 30.0969 111.712 30.2126 111.711 30.3548C111.71 30.4969 111.724 30.6126 111.723 30.7548C111.716 30.8036 111.707 31.0657 111.699 31.1144C111.561 32.3481 111.205 33.1973 110.467 34.1665C110.57 34.0522 110.297 34.3646 110.282 34.3911C110.179 34.5055 110.076 34.6198 109.973 34.7342C109.73 34.9936 109.45 35.2126 109.17 35.4317C108.758 35.747 108.016 36.1252 107.422 36.3807C107.216 36.4673 107.091 36.5147 106.724 36.6084C106.357 36.702 106.005 36.7692 105.631 36.8405C104.854 36.9651 104.348 36.9905 103.572 36.9729C102.912 36.9566 102.085 36.854 101.558 36.7414C100.87 36.5649 100.212 36.3353 99.7223 36.0499C98.6487 35.4024 98.1475 34.5748 98.1396 33.3217C98.135 31.4287 99.3297 29.9936 100.655 28.8887C101.7 28.0029 102.979 27.2619 104.308 26.748C104.52 26.826 104.747 26.8774 105.011 26.827C105.796 26.6537 106.573 26.5291 107.298 26.5328C107.628 26.5409 107.965 26.5714 108.309 26.6241C108.558 26.6713 108.733 26.7089 109.121 26.8243C109.253 26.8702 109.385 26.9161 109.523 26.9843C109.553 27.0024 109.523 26.9843 109.553 27.0024C109.611 27.0386 109.662 27.0525 109.721 27.0887C109.837 27.1611 109.954 27.2336 110.071 27.306C110.137 27.3645 110.217 27.3965 110.283 27.455C110.283 27.455 110.283 27.455 110.29 27.4773C110.487 27.6528 110.662 27.8325 110.844 28.0345C110.88 28.0749 110.917 28.1153 110.931 28.1599C111.019 28.2853 111.113 28.4329 111.178 28.5625C111.229 28.6475 111.28 28.7325 111.309 28.8217C111.316 28.844 111.388 28.9959 111.41 29.0628C111.526 29.2063 111.591 29.4781 111.648 29.7275Z" fill="#4259CC" stroke="#4259CC"/>
<path d="M75.2422 139.29C75.294 139.306 75.324 139.326 75.3457 139.322C75.3157 139.302 75.2722 139.31 75.2422 139.29Z" fill="#4259CC" stroke="#4259CC"/>
<path d="M74.0234 148.141C74.0545 148.163 74.0545 148.163 74.0234 148.141C74.0459 148.137 74.0685 148.132 74.0685 148.132C74.1445 148.146 74.1445 148.146 74.0234 148.141Z" fill="#4259CC"/>
<path d="M74.0234 148.141C74.0545 148.163 74.0545 148.163 74.0234 148.141ZM74.0234 148.141C74.0459 148.137 74.0685 148.132 74.0685 148.132C74.1445 148.146 74.1445 148.146 74.0234 148.141Z" stroke="#4259CC"/>
<path d="M78.7301 139.463C77.5703 138.117 75.9604 137.064 74.34 136.8C73.1919 136.62 72.2334 136.978 71.4897 137.633C70.7627 137.832 70.1406 138.203 69.668 138.81C68.9357 139.749 68.6475 140.944 68.6153 142.237C68.5603 144.535 69.5296 147.416 71.4966 149.169C72.6292 150.186 73.9504 150.669 75.2776 150.604C76.8212 150.524 78.1668 149.692 79.191 148.702C80.3764 147.541 81.1011 145.888 80.8784 143.997C80.7088 142.382 79.882 140.787 78.7301 139.463ZM75.5433 148.15C75.4052 148.198 75.2593 148.223 75.1133 148.249C74.9882 148.271 74.8631 148.293 74.738 148.315C74.7171 148.318 74.7171 148.318 74.6963 148.322L74.6754 148.326C74.6337 148.333 74.6129 148.337 74.5712 148.344C74.6129 148.337 74.6337 148.333 74.6546 148.329C74.6337 148.333 74.6129 148.337 74.6129 148.337C74.5007 148.332 74.3886 148.328 74.2973 148.32C74.2268 148.309 74.0284 148.248 74.0076 148.252C73.8588 148.207 73.7021 148.139 73.5324 148.097C73.5037 148.078 73.5116 148.1 73.5037 148.078C73.5037 148.078 73.5037 148.078 73.4749 148.059C73.3599 147.984 73.2528 147.931 73.1378 147.856C72.9941 147.762 72.8554 147.62 73.0803 147.819C72.9783 147.717 72.8841 147.638 72.7821 147.537C72.7088 147.455 72.6146 147.376 72.5414 147.293C72.5047 147.252 72.4235 147.147 72.379 147.083C72.1117 146.701 71.8732 146.338 71.6684 145.944C71.6447 145.877 71.6002 145.813 71.5923 145.791C71.5765 145.746 71.5686 145.724 71.5528 145.679C71.6757 145.776 71.7907 145.852 71.9057 145.927C72.0321 146.286 72.1872 146.664 72.3761 147.012C72.5571 147.338 73.0538 147.68 73.3902 147.693C73.7397 147.679 74.0941 147.617 74.412 147.514C74.8511 147.818 75.3004 148.025 75.7727 148.109C75.7518 148.113 75.7518 148.113 75.731 148.117C75.6188 148.113 75.2384 148.227 75.5433 148.15ZM78.5551 143.307C78.5579 143.378 78.5816 143.446 78.5923 143.539C78.6268 143.7 78.6404 143.865 78.6539 144.029C78.6596 144.171 78.6732 144.336 78.6581 144.481C78.6574 144.291 78.6451 144.507 78.6378 144.675C78.6382 143.984 78.4688 143.251 78.0989 142.577C77.4875 141.468 76.2017 140.645 75.0069 140.521C74.6534 140.082 74.248 139.748 73.7909 139.518C73.9261 139.399 74.0405 139.284 74.1103 139.104C74.1599 139.12 74.2224 139.109 74.272 139.124C74.405 139.124 74.5251 139.151 74.666 139.174C74.7156 139.189 74.786 139.201 74.7652 139.204C74.786 139.201 74.8148 139.219 74.8357 139.216C74.9636 139.265 75.0837 139.291 75.1908 139.344C75.2404 139.359 75.2979 139.397 75.3475 139.412C75.3971 139.427 75.3971 139.427 75.4258 139.446C75.4258 139.446 75.4258 139.446 75.4546 139.465C75.7054 139.612 75.9484 139.736 76.1654 139.912C76.2804 139.988 76.4033 140.085 76.5262 140.183C76.2516 139.969 76.6857 140.322 76.759 140.404C76.9919 140.626 77.2117 140.873 77.4395 141.143C77.4841 141.207 77.5286 141.27 77.5732 141.334C77.691 141.48 77.788 141.63 77.8929 141.803C77.982 141.93 78.0502 142.061 78.1185 142.192C78.1185 142.192 78.1422 142.259 78.1788 142.301C78.1946 142.346 78.2312 142.387 78.2391 142.409C78.3706 142.72 78.4811 143.034 78.5709 143.352C78.563 143.33 78.6239 143.629 78.5551 143.307Z" fill="#4259CC" stroke="#4259CC"/>
<path d="M93.1898 176.686C93.1537 176.646 93.0958 176.61 93.0815 176.566C93.0827 176.355 93.0549 176.125 92.918 175.917C92.7379 175.646 92.4921 175.459 92.2022 175.35C91.8038 175.191 91.4049 175.103 90.9842 175.019C90.8827 174.992 90.7884 174.986 90.6868 174.959C90.665 174.963 90.6361 174.945 90.6143 174.949C90.4549 174.886 90.3098 174.866 90.1572 174.895C90.041 174.894 89.9538 174.911 89.8519 174.954C89.7064 175.005 89.5827 175.052 89.4658 175.191C89.4365 175.244 89.3854 175.301 89.3489 175.331C89.3342 175.357 89.3342 175.357 89.3196 175.384C89.3049 175.41 89.2613 175.418 89.2538 175.466C89.2245 175.519 89.2241 175.589 89.1948 175.642C89.1508 175.721 89.0996 175.777 89.0699 175.9C89.0478 175.975 89.0545 176.067 89.0323 176.142C89.0102 176.216 88.9808 176.269 88.9805 176.339C88.9429 176.581 88.9053 176.823 88.9402 177.074C88.9884 177.581 89.1887 178.129 89.6079 178.495C89.8319 178.687 90.0996 178.87 90.3752 178.935C90.6797 179.017 90.941 179.038 91.2462 178.98C91.6605 178.901 92.0684 178.659 92.3387 178.349C92.3605 178.345 92.3534 178.323 92.3752 178.319C92.4406 178.306 92.4985 178.342 92.5639 178.33C92.8255 178.28 93.1097 178.085 93.2417 177.849C93.3665 177.59 93.4116 177.3 93.3116 176.991C93.2977 176.877 93.2402 176.77 93.1898 176.686Z" fill="#4259CC" stroke="#4259CC"/>
<path d="M138.8 171.955C137.676 171.559 136.514 171.334 135.358 171.414C133.685 171.545 132.191 172.37 131.181 173.548C129.141 175.909 128.393 179.761 130.223 182.911C132.376 186.632 137.483 187.232 140.689 185.752C143.822 184.332 145.783 180.648 144.748 177.019C143.942 174.238 141.465 172.597 138.8 171.955Z" fill="#4259CC" stroke="#4259CC"/>
<path d="M169.601 167.257C169.551 167.173 169.48 167.094 169.372 167.045C169.308 166.987 169.222 166.934 169.143 166.902C169.129 166.789 169.137 166.671 169.102 166.561C169.052 166.408 168.981 166.259 168.874 166.14C168.789 166.017 168.66 165.902 168.546 165.831C168.288 165.671 167.944 165.597 167.663 165.651C167.39 165.726 167.116 165.871 166.993 166.128C166.949 166.206 166.934 166.301 166.891 166.379C166.84 166.575 166.853 166.759 166.924 166.978C166.909 166.934 166.895 166.89 166.91 166.864C166.903 166.842 166.917 166.816 166.917 166.816C166.924 166.838 166.903 166.842 166.91 166.864C166.896 166.82 166.903 166.772 166.889 166.729C166.896 166.82 166.895 166.89 166.895 166.96C166.895 167.03 166.866 167.082 166.865 167.152C166.844 167.156 166.829 167.182 166.808 167.186C166.699 167.276 166.627 167.407 166.597 167.528C166.547 167.654 166.503 167.802 166.523 167.938C166.53 168.03 166.565 168.139 166.579 168.253C166.608 168.34 166.679 168.42 166.729 168.503C166.792 168.7 166.906 168.911 167.063 169.044C167.321 169.274 167.557 169.438 167.894 169.559C168.023 169.604 168.224 169.659 168.338 169.66C168.69 169.686 169.021 169.576 169.238 169.326C169.375 169.183 169.498 168.997 169.607 168.837C169.672 168.754 169.708 168.655 169.773 168.572C169.723 168.628 169.694 168.681 169.643 168.737C169.759 168.598 169.867 168.438 169.904 168.268C169.919 168.172 169.912 168.081 169.927 167.985C169.921 167.823 169.872 167.67 169.808 167.543C169.744 167.415 169.672 167.336 169.601 167.257Z" fill="#4259CC"/>
<path d="M166.91 166.864C166.895 166.89 166.909 166.934 166.924 166.978C166.853 166.759 166.84 166.575 166.891 166.379C166.934 166.301 166.949 166.206 166.993 166.128C167.116 165.871 167.39 165.726 167.663 165.651C167.944 165.597 168.288 165.671 168.546 165.831C168.66 165.902 168.789 166.017 168.874 166.14C168.981 166.259 169.052 166.408 169.102 166.561C169.137 166.671 169.129 166.789 169.143 166.902C169.222 166.934 169.308 166.987 169.372 167.045C169.48 167.094 169.551 167.173 169.601 167.257C169.672 167.336 169.744 167.415 169.808 167.543C169.872 167.67 169.921 167.823 169.927 167.985C169.912 168.081 169.919 168.172 169.904 168.268C169.867 168.438 169.759 168.598 169.643 168.737C169.694 168.681 169.723 168.628 169.773 168.572C169.708 168.655 169.672 168.754 169.607 168.837C169.498 168.997 169.375 169.183 169.238 169.326C169.021 169.576 168.69 169.686 168.338 169.66C168.224 169.659 168.023 169.604 167.894 169.559C167.557 169.438 167.321 169.274 167.063 169.044C166.906 168.911 166.792 168.7 166.729 168.503C166.679 168.42 166.608 168.34 166.579 168.253C166.565 168.139 166.53 168.03 166.523 167.938C166.503 167.802 166.547 167.654 166.597 167.528C166.627 167.407 166.699 167.276 166.808 167.186C166.829 167.182 166.844 167.156 166.865 167.152C166.866 167.082 166.895 167.03 166.895 166.96C166.895 166.89 166.896 166.82 166.889 166.729C166.903 166.772 166.896 166.82 166.91 166.864ZM166.91 166.864C166.903 166.842 166.917 166.816 166.917 166.816C166.924 166.838 166.903 166.842 166.91 166.864Z" stroke="#4259CC"/>
<path d="M60.8715 97.7238L55.1403 98.8492C54.5287 98.9693 54.1331 99.6241 54.3635 100.282C54.5939 100.939 55.2403 101.389 55.8972 101.26L61.6284 100.135C62.24 100.015 62.6357 99.3597 62.4052 98.7024C62.1596 98.0731 61.5058 97.5992 60.8715 97.7238Z" fill="#4259CC" stroke="#4259CC"/>
<path d="M60.0835 89.4236C59.7227 88.8901 58.9822 88.5741 58.4239 88.8981C56.5033 89.9895 54.4425 90.9391 52.9127 92.5101C52.5023 92.9262 52.5131 93.6956 53.0153 94.1537C53.5175 94.6119 54.2592 94.7108 54.7068 94.2633C55.065 93.9054 55.4304 93.5702 55.8327 93.2761C55.87 93.2448 55.8923 93.2405 55.8923 93.2405C55.9296 93.2093 55.9669 93.178 56.0041 93.1468C56.1233 93.0757 56.2351 92.982 56.3542 92.9109C56.5479 92.7773 56.7638 92.6395 56.9648 92.5287C57.8582 91.9958 58.8108 91.4997 59.7338 90.9853C60.2399 90.7195 60.4589 90.0025 60.0835 89.4236Z" fill="#4259CC" stroke="#4259CC"/>
<path d="M51.0426 79.2208C50.4751 78.8863 49.7756 78.9965 49.4845 79.5183C48.3787 81.5008 47.2366 83.5136 46.6841 85.7867C46.5442 86.3495 46.9583 87.0629 47.5698 87.2492C48.2029 87.4313 48.8025 87.1536 48.9569 86.5648C49.0823 86.0281 49.2435 85.5311 49.4409 85.004C49.4338 84.982 49.4409 85.004 49.4554 84.9779C49.4845 84.9257 49.492 84.8777 49.514 84.8036C49.5651 84.6773 49.6162 84.5509 49.6673 84.4247C49.7912 84.1679 49.8934 83.9153 50.0173 83.6586C50.4837 82.6838 51.0291 81.7406 51.5459 80.7796C51.8078 80.31 51.61 79.5553 51.0426 79.2208Z" fill="#4259CC" stroke="#4259CC"/>
<path d="M38.7548 118.881C38.1949 118.853 37.6256 119.284 37.6847 119.889C37.8626 121.566 37.8049 123.335 38.5364 124.951C38.6595 125.2 38.9971 125.431 39.218 125.503C39.4873 125.587 39.8399 125.587 40.0619 125.452C40.2839 125.318 40.4786 125.097 40.5284 124.836C40.5853 124.528 40.5037 124.27 40.3669 123.977C40.3669 123.977 40.4829 124.274 40.4353 124.124C40.4285 124.102 40.4149 124.059 40.4081 124.038C40.3809 123.952 40.3605 123.887 40.3333 123.801C40.2857 123.651 40.252 123.475 40.2252 123.32C40.2187 123.23 40.1847 123.123 40.1783 123.032C40.1586 122.831 40.1249 122.655 40.1052 122.453C40.0125 121.672 39.9821 120.879 39.8894 120.098C39.8511 119.489 39.377 118.897 38.7548 118.881Z" fill="#4259CC" stroke="#4259CC"/>
<path d="M48.1114 119.708C47.8734 119.524 47.6707 119.311 47.4891 119.093C47.3356 118.893 47.2242 118.685 47.1128 118.476C46.988 118.156 46.8632 117.835 46.8017 117.502C46.8293 117.589 46.829 117.658 46.8566 117.745C46.8021 117.433 46.7191 117.174 46.4814 116.921C46.2787 116.707 45.9563 116.54 45.6892 116.545C45.394 116.533 45.0843 116.616 44.9006 116.812C44.7379 117.005 44.5607 117.292 44.6225 117.555C44.7452 118.29 44.9664 118.982 45.3635 119.664C45.6979 120.22 46.1379 120.755 46.6488 121.162C46.8937 121.367 47.1459 121.526 47.4411 121.538C47.7151 121.554 48.0459 121.467 48.2297 121.271C48.4135 121.074 48.5343 120.821 48.5077 120.528C48.467 120.26 48.3775 119.909 48.1114 119.708Z" fill="#4259CC" stroke="#4259CC"/>
<path d="M104.943 37.6857C104.49 37.2641 103.723 37.1339 103.322 37.5806C102.728 38.2725 102.339 39.1098 102.192 40.0627C102.073 40.9639 102.097 41.884 102.163 42.7959C102.217 43.3866 102.726 43.9824 103.345 44.0024C103.942 44.0265 104.485 43.5988 104.446 42.9822C104.412 42.5957 104.393 42.1833 104.381 41.7926C104.389 41.6061 104.376 41.4238 104.384 41.2373C104.377 41.1461 104.392 41.0508 104.407 40.9555C104.39 41.3285 104.407 40.9555 104.428 40.882C104.458 40.6914 104.473 40.5267 104.531 40.3538C104.545 40.2585 104.567 40.185 104.61 40.1074C104.618 40.0597 104.646 40.008 104.654 39.9604C104.682 39.9086 104.668 39.9345 104.647 39.9386C104.675 39.8868 104.704 39.8351 104.733 39.7834C104.776 39.7057 104.819 39.6281 104.862 39.5505C104.912 39.4947 104.934 39.4212 104.984 39.3653C105.02 39.3354 105.034 39.3095 105.07 39.2795C105.414 38.8669 105.432 38.1468 104.943 37.6857Z" fill="#4259CC" stroke="#4259CC"/>
<path d="M111.508 36.6885C111.372 36.5515 111.206 36.4665 111.048 36.4035C111.077 36.4213 111.077 36.4213 111.106 36.4392C111.02 36.3857 110.933 36.3323 110.847 36.2788C110.819 36.261 110.783 36.2213 110.754 36.2035C110.711 36.1418 110.661 36.0581 110.611 35.9745C110.519 35.8291 110.418 35.7318 110.296 35.6386C110.167 35.5235 110.053 35.4522 109.902 35.4112C109.743 35.3482 109.6 35.3291 109.448 35.358C109.283 35.343 109.138 35.3939 109.023 35.4625C108.95 35.5229 108.871 35.5614 108.799 35.6218C108.661 35.7645 108.574 35.921 108.537 36.0911C108.522 36.1871 108.529 36.279 108.514 36.375C108.534 36.5808 108.598 36.7783 108.705 36.9675C108.762 37.0731 108.826 37.2006 108.905 37.302C109.034 37.4871 109.184 37.6681 109.342 37.801C109.506 37.9559 109.686 38.0848 109.887 38.2094C109.944 38.2451 110.001 38.2807 110.052 38.2944C110.188 38.3615 110.353 38.4464 110.504 38.4875C110.662 38.5505 110.806 38.5696 110.958 38.5407C111.123 38.5557 111.246 38.5089 111.383 38.4362C111.52 38.3634 111.607 38.2769 111.687 38.1685C111.788 38.0559 111.847 37.9516 111.869 37.8076C111.884 37.7116 111.877 37.6197 111.892 37.5236C111.871 37.3179 111.808 37.1204 111.701 36.9312C111.629 36.8517 111.558 36.7722 111.508 36.6885Z" fill="#4259CC" stroke="#4259CC"/>
<path d="M134.72 173.718C133.99 173.33 133.71 173.085 133.129 172.462C132.996 172.327 132.884 172.187 132.765 172.026C132.737 172.009 132.73 171.987 132.73 171.987C132.73 171.987 132.73 171.987 132.723 171.965C132.654 171.887 132.605 171.804 132.542 171.747C132.304 171.425 132.094 171.121 131.878 170.795C130.984 169.473 130.133 168.074 128.97 166.964C128.515 166.523 127.776 166.459 127.366 166.86C126.977 167.257 126.987 167.991 127.47 168.449C127.736 168.72 128.002 168.99 128.233 169.291C128.268 169.33 128.268 169.33 128.275 169.352C128.282 169.373 128.282 169.373 128.317 169.412C128.366 169.495 128.436 169.573 128.484 169.656C128.603 169.817 128.722 169.978 128.813 170.121C129.274 170.791 129.714 171.465 130.168 172.113C131.118 173.47 132.209 174.846 133.696 175.64C134.265 175.944 134.913 175.865 135.218 175.347C135.475 174.814 135.268 174.027 134.72 173.718Z" fill="#4259CC" stroke="#4259CC"/>
<path d="M130.916 178.441C128.087 178.894 125.472 180.024 123.014 181.274C122.456 181.556 122.309 182.305 122.689 182.902C123.047 183.502 123.82 183.749 124.348 183.447C126.663 182.276 129.044 181.24 131.663 180.804C132.28 180.709 132.637 180.018 132.438 179.387C132.238 178.755 131.556 178.341 130.916 178.441Z" fill="#4259CC" stroke="#4259CC"/>
<path d="M147.631 173.337C147.235 172.767 146.542 172.517 145.979 172.816C144.217 173.703 142.264 174.507 141.441 176.409C141.21 176.932 141.353 177.67 141.964 178.031C142.509 178.333 143.321 178.298 143.561 177.726C143.658 177.516 143.762 177.329 143.867 177.141C143.904 177.11 143.911 177.061 143.949 177.03C144.015 176.945 144.067 176.888 144.142 176.826C144.283 176.679 144.446 176.528 144.616 176.4C144.654 176.369 144.691 176.338 144.728 176.307C144.728 176.307 144.743 176.28 144.765 176.276C144.787 176.272 144.802 176.245 144.802 176.245C144.861 176.21 144.898 176.179 144.957 176.144C145.698 175.667 146.505 175.322 147.297 174.931C147.816 174.641 147.997 173.889 147.631 173.337Z" fill="#4259CC" stroke="#4259CC"/>
<path d="M141.848 168.232C141.169 168.038 140.674 168.341 140.492 168.91C140.187 169.803 139.938 170.732 139.683 171.64C139.552 172.082 139.442 172.521 139.289 172.968C139.217 173.167 139.151 173.388 139.079 173.588C139.071 173.636 139.042 173.688 139.028 173.714C138.977 173.839 138.919 173.943 138.883 174.043C138.658 174.55 138.798 175.266 139.39 175.616C139.925 175.932 140.677 175.857 140.937 175.32C141.77 173.514 142.088 171.527 142.764 169.658C142.917 169.142 142.427 168.4 141.848 168.232Z" fill="#4259CC" stroke="#4259CC"/>
<path d="M149.647 180.45C147.804 180.227 145.985 179.782 144.165 179.482C143.544 179.385 142.97 179.951 143.019 180.542C143.075 181.228 143.598 181.68 144.256 181.818C146.084 182.141 147.903 182.585 149.738 182.786C150.352 182.861 150.94 182.34 150.862 181.731C150.836 181.063 150.306 180.516 149.647 180.45Z" fill="#4259CC" stroke="#4259CC"/>
</svg>
