<svg width="45" height="45" viewBox="0 0 45 45" fill="none" xmlns="http://www.w3.org/2000/svg">
<path d="M2.83864 26.743C-0.00236187 26.131 -0.400501 22.2411 2.25763 21.0663L11.755 16.8688C12.9437 16.3434 13.659 15.1123 13.5267 13.8194L12.4694 3.48973C12.1735 0.598667 15.75 -0.982035 17.6887 1.18296L24.6156 8.91837C25.4827 9.88659 26.8745 10.1864 28.0633 9.66101L37.5606 5.46348C40.2188 4.28867 42.8273 7.20165 41.3674 9.7145L36.1511 18.6928C35.4982 19.8166 35.6432 21.233 36.5102 22.2012L43.4371 29.9366C45.3758 32.1016 43.4115 35.4826 40.5705 34.8706L30.4197 32.6841C29.1492 32.4104 27.8469 32.986 27.194 34.1098L21.9777 43.088C20.5178 45.6009 16.6952 44.7775 16.3993 41.8864L15.3421 31.5568C15.2098 30.2639 14.26 29.2032 12.9894 28.9295L2.83864 26.743Z" fill="#4259CC"/>
</svg>
