<svg width="354" height="507" viewBox="0 0 354 507" fill="none" xmlns="http://www.w3.org/2000/svg">
<path d="M331.361 35.1195C335.901 28.8495 331.201 19.3795 323.901 19.8195C321.731 19.9495 319.841 21.0395 318.581 22.7295C316.051 24.6595 315.031 28.3295 315.811 31.5795C317.641 39.2895 326.821 41.3795 331.361 35.1195Z" fill="#F0FFCC"/>
<path d="M304.753 27.0894C311.803 22.0194 310.363 9.21938 301.533 7.61938C298.623 7.08938 295.583 8.43941 293.673 10.8394C291.423 12.2494 289.863 14.7994 289.483 17.6794C288.283 26.9094 298.093 31.8794 304.753 27.0894Z" fill="#F0FFCC"/>
<path d="M314.913 52.1793C316.183 48.5093 315.003 44.4794 312.503 41.8494C309.483 36.8494 302.233 35.0794 298.003 40.5294C292.433 47.7094 298.243 57.5394 306.173 57.9794C309.933 58.1894 313.553 56.1093 314.913 52.1793Z" fill="#F0FFCC"/>
<path d="M333.964 61.7397C335.514 59.3797 335.974 56.4998 335.584 53.8098C336.614 52.2798 336.724 50.0397 334.904 48.6097C333.954 47.8697 332.924 47.3398 331.854 46.9798C330.234 45.7398 328.184 45.1198 325.784 45.5698C322.494 46.1898 320.574 48.7098 319.894 51.6698C319.224 53.0298 318.834 54.6198 318.844 56.4498C318.894 65.0098 329.314 68.8097 333.964 61.7397Z" fill="#F0FFCC"/>
<path d="M344.019 49.9796C348.429 49.0096 349.759 42.6095 348.329 38.5995C347.599 36.5695 346.079 34.9896 344.199 34.2296C342.069 33.3696 340.049 33.8895 338.189 35.1595C337.379 35.7095 336.979 36.6996 336.929 37.7296C335.889 39.3096 335.329 41.2695 335.599 43.2395C336.179 47.4895 340.039 50.8596 344.019 49.9796Z" fill="#F0FFCC"/>
<path d="M340.808 89.2696C344.318 88.0596 347.008 84.5196 347.628 80.5996C348.758 79.9296 349.518 78.6296 349.198 76.8396C347.658 68.1996 337.048 65.4296 332.188 72.6196C329.998 75.8596 329.388 80.3796 330.918 84.0796C332.638 88.2096 336.708 90.6796 340.808 89.2696Z" fill="#F0FFCC"/>
<path d="M321.448 77.7494C321.408 77.4294 321.328 77.1194 321.258 76.8094C320.768 70.6294 314.158 66.3194 308.768 69.4594C302.778 72.9494 302.408 82.3294 308.228 86.3094C314.058 90.2894 322.458 85.5894 321.448 77.7494Z" fill="#F0FFCC"/>
<path d="M291.813 80.4597C295.223 77.6197 296.603 72.6097 296.623 68.1097C296.633 65.0797 295.273 63.0397 293.323 61.8797C290.753 59.1997 286.753 57.9497 283.083 59.5297C275.133 62.9597 273.983 75.9297 280.973 81.2097C284.253 83.6997 288.733 83.0197 291.813 80.4597Z" fill="#F0FFCC"/>
<path d="M277.818 53.3797C283.558 51.7497 286.668 45.7097 287.378 39.6997C287.778 36.3297 286.888 33.5896 285.108 31.6796C283.908 29.6996 282.178 28.0596 280.088 27.1096C275.308 24.9196 269.908 26.9996 266.768 31.2996C260.348 40.0896 266.238 56.6597 277.818 53.3797Z" fill="#F0FFCC"/>
<path d="M272.113 19.3396C274.683 18.7496 276.663 17.1095 277.973 14.9595C278.173 14.7795 278.373 14.5695 278.553 14.3095C279.723 12.6995 280.093 10.6696 279.773 8.72957C279.793 7.96957 279.753 7.20954 279.643 6.44954C279.393 4.74954 278.073 3.54953 276.553 3.31953C276.413 3.29953 276.273 3.27953 276.133 3.25953C274.953 2.51953 273.603 2.05955 272.233 1.83955C266.763 0.939551 261.413 4.49952 261.673 10.9295C261.913 16.6195 267.023 20.5095 272.113 19.3396Z" fill="#F0FFCC"/>
<path d="M333.78 17.3997C337.5 15.4997 338.71 10.7196 337.04 6.79964C335.11 2.27964 330.69 0.929651 326.55 0.0596508C325.68 -0.120349 324.91 0.119639 324.3 0.609639C324.21 0.559639 324.12 0.489665 324.02 0.449665C322.11 -0.380335 320.37 0.809639 319.5 2.60964C315.57 10.7296 326.65 21.0297 333.78 17.3997Z" fill="#F0FFCC"/>
<path d="M248.413 37.7496C251.683 37.1096 254.013 34.5296 255.143 31.4496C256.893 29.9796 257.883 27.5196 257.103 25.1596C256.943 24.6696 256.703 24.2396 256.423 23.8296C255.793 20.1496 253.823 16.8896 250.413 15.4096C246.503 13.7096 241.713 15.0996 239.053 18.6296C233.593 25.8596 239.213 39.5396 248.413 37.7496Z" fill="#F0FFCC"/>
<path d="M251.774 72.6596C262.304 70.4796 264.484 53.3495 254.224 48.8995C253.554 48.6095 252.874 48.4095 252.174 48.2695C247.484 46.5795 241.824 48.0095 239.014 53.3895C233.944 63.0895 241.594 74.7696 251.774 72.6596Z" fill="#F0FFCC"/>
<path d="M225.991 52.2397C226.571 52.1097 227.141 51.9098 227.691 51.6498C232.291 49.4398 234.291 43.3097 232.641 38.2997C230.931 33.1297 225.411 30.3097 220.571 31.4397C216.101 32.4797 212.791 36.9897 212.411 41.8597C212.031 46.7797 214.721 51.3798 219.181 52.6698C221.421 53.3398 223.851 53.1597 225.991 52.2397Z" fill="#F0FFCC"/>
<path d="M229.401 17.6596C229.431 16.8396 229.341 16.0595 229.171 15.3295C229.451 12.8495 228.591 10.2995 226.651 8.57955C223.881 6.12955 219.931 5.92954 216.671 7.19954C209.851 9.84954 208.791 19.5495 214.651 24.0495C220.021 28.1695 229.101 25.6496 229.401 17.6596Z" fill="#F0FFCC"/>
<path d="M349.511 104.85C349.251 104.26 348.911 103.74 348.551 103.25C345.961 95.6996 336.381 96.7696 332.851 102.81C328.961 109.46 331.151 119.3 339.191 120.33C346.631 121.3 352.811 112.26 349.511 104.85Z" fill="#F0FFCC"/>
<path d="M318.287 113.25C321.907 112.14 323.827 108.44 323.757 104.77C324.407 103.59 324.477 102.07 323.397 100.7C322.507 99.5596 321.427 98.5596 320.237 97.7996C317.817 96.0696 314.477 95.3996 311.777 96.6196C308.887 97.9196 307.477 101.26 308.177 104.45C307.727 110.05 313.067 114.86 318.287 113.25Z" fill="#F0FFCC"/>
<path d="M293.752 109.47C294.512 107.74 294.742 105.83 294.502 104C295.512 98.6498 290.642 93.2098 285.062 93.3498C277.722 93.5298 272.762 102.32 276.402 109.44C280.042 116.53 290.372 117.2 293.752 109.47Z" fill="#F0FFCC"/>
<path d="M264.301 97.3496C268.981 90.1196 262.221 81.1495 254.751 82.5095C250.671 83.2495 247.861 87.3196 248.871 91.7896C249.191 93.2196 249.901 94.4595 250.831 95.4595C252.841 101.01 260.661 102.98 264.301 97.3496Z" fill="#F0FFCC"/>
<path d="M232.408 101.45C241.568 96.8897 240.378 83.9397 233.128 78.8397C231.478 75.8397 228.298 73.8597 225.008 73.6897C219.828 73.4297 215.628 78.0497 214.308 83.1597C211.358 94.5797 221.678 106.79 232.408 101.45Z" fill="#F0FFCC"/>
<path d="M260.799 123.09C263.279 115.36 257.309 110.27 250.749 109.38C248.659 108.24 246.199 107.959 243.699 108.989C238.739 111.049 236.169 117.12 237.279 122.62C238.479 128.56 243.359 133.92 249.119 134.28C255.049 134.63 259.049 128.53 260.799 123.09Z" fill="#F0FFCC"/>
<path d="M284.069 135.36C284.169 134.88 284.219 134.41 284.249 133.93C284.419 133.4 284.499 132.81 284.419 132.14C284.189 130.17 283.459 128.41 282.399 126.97C280.849 124.59 278.479 122.96 275.759 122.94C273.659 122.68 271.459 123.16 269.519 124.65C263.959 128.9 263.939 137.82 269.789 141.78C275.479 145.62 282.609 142.47 284.069 135.36Z" fill="#F0FFCC"/>
<path d="M311.36 141.43C314.66 138.39 316.01 133 314.13 128.68C313.16 126.44 311.33 124.75 309.21 123.63C307.3 122.07 304.88 121.25 302.42 121.48C299.52 121.75 297.08 123.53 295.49 126.02C295.42 126.13 295.36 126.24 295.29 126.35C295.07 126.72 294.86 127.11 294.68 127.51C294.63 127.63 294.58 127.74 294.53 127.86C294.2 128.64 293.93 129.44 293.76 130.29C291.68 140.9 303.82 148.36 311.36 141.43Z" fill="#F0FFCC"/>
<path d="M335.661 153.98C344.021 152.81 351.351 139.12 342.461 134C338.261 128.95 328.381 128.28 324.291 133.43C317.441 142.03 326.121 155.31 335.661 153.98Z" fill="#F0FFCC"/>
<path d="M348.69 174.53C350.55 167.42 343.55 160.73 336.83 164.63C330.17 168.5 330.56 179.64 337.13 183.32C342.71 186.45 350.22 180.73 348.69 174.53Z" fill="#F0FFCC"/>
<path d="M317.993 177.4C319.403 176.14 320.483 174.4 321.033 172.5C321.443 171.99 321.733 171.33 321.833 170.5C322.863 161.62 313.733 154.51 306.563 159.58C299.843 164.33 300.473 175.02 307.803 178.63C311.123 180.25 315.133 179.94 317.993 177.4Z" fill="#F0FFCC"/>
<path d="M287.96 174.96C294.89 169.06 291.47 156.61 282.51 156.3C278.34 156.16 274.49 158.8 273.2 163.18C273.03 163.75 272.91 164.32 272.83 164.9C272.55 166.48 272.65 168 273.06 169.41C273.62 171.73 274.85 173.84 276.79 175.22C277.85 175.98 279.03 176.45 280.23 176.63C282.78 177.36 285.58 176.99 287.96 174.96Z" fill="#F0FFCC"/>
<path d="M252.19 169.929C261.79 168.609 265.19 153.76 256.12 148.85C252.06 146.65 247.98 148.28 245.54 151.34C238.3 157.36 242.35 171.289 252.19 169.929Z" fill="#F0FFCC"/>
<path d="M226.854 153.46C227.804 152.29 228.514 150.9 228.984 149.4C229.124 149.1 229.244 148.78 229.314 148.42C229.374 148.13 229.384 147.84 229.424 147.55C229.474 147.25 229.504 146.96 229.534 146.66C229.544 146.56 229.554 146.46 229.554 146.36C229.894 142.82 229.084 139.1 227.014 136.42C223.974 132.46 218.214 131.39 214.044 133.75C207.384 137.52 207.694 147.58 212.244 152.29C212.604 152.89 213.004 153.46 213.454 153.98C217.174 158.25 223.354 157.77 226.854 153.46Z" fill="#F0FFCC"/>
<path d="M210.424 119.26C213.174 115.46 212.094 109.99 209.014 107.17C207.924 105.67 206.314 104.57 204.204 104.24C197.564 103.22 192.544 110.78 195.394 117.29C198.164 123.64 206.354 124.88 210.424 119.26Z" fill="#F0FFCC"/>
<path d="M208.101 69.3497C208.261 68.7297 208.341 68.1097 208.371 67.4897C208.491 66.9997 208.521 66.4597 208.431 65.8497C207.561 60.0197 201.321 56.5197 196.591 59.7897C192.101 62.8997 191.551 70.1297 195.951 73.6497C200.261 77.0897 206.601 75.0497 208.101 69.3497Z" fill="#F0FFCC"/>
<path d="M201.508 43.1197C202.668 41.2797 203.428 39.0598 203.738 36.7598C204.008 35.5698 204.028 34.4198 203.848 33.3298C203.698 30.7298 203.018 28.1998 201.658 26.1398C198.508 21.3598 192.108 19.3998 187.508 22.9698C184.278 25.4698 182.938 29.4998 183.148 33.5398C182.588 37.9298 184.048 42.6798 187.298 45.4198C191.808 49.1998 198.278 48.2097 201.508 43.1197Z" fill="#F0FFCC"/>
<path d="M163.392 51.5396C169.952 51.0096 173.672 42.8896 170.992 36.8996V36.8896C170.582 32.5096 167.052 29.2896 163.062 29.1596C159.112 29.0296 155.562 31.5396 153.752 35.2596C150.012 42.9396 155.262 52.1996 163.392 51.5396Z" fill="#F0FFCC"/>
<path d="M183.253 76.5294C185.293 72.4694 184.723 68.7994 182.773 65.8994C181.893 59.7594 175.423 56.4294 170.443 58.8494C169.683 58.9194 168.923 59.1494 168.173 59.5494C168.053 59.5694 167.933 59.5694 167.813 59.5894C163.183 60.4094 160.053 64.8294 160.713 69.9294C160.923 71.5494 161.443 72.9494 162.163 74.1894C162.173 74.2294 162.173 74.2794 162.173 74.3194C164.303 85.6894 178.613 85.7794 183.253 76.5294Z" fill="#F0FFCC"/>
<path d="M139.73 72.7398C147.98 71.3698 151.44 61.3898 147.15 54.0198C142.79 46.5298 131.64 45.6998 127.63 54.0698C125.63 58.2298 126.41 62.4598 128.6 65.3698C130.08 70.1498 134.52 73.5998 139.73 72.7398Z" fill="#F0FFCC"/>
<path d="M157.625 90.3497C157.545 90.1897 157.445 90.0597 157.365 89.8997C157.195 86.5697 155.005 83.7697 152.085 82.5297C148.295 80.9197 144.075 82.2596 141.245 85.2996C135.065 91.9496 138.255 103.81 146.905 105.53C154.765 107.1 161.455 98.3097 157.625 90.3497Z" fill="#F0FFCC"/>
<path d="M183.909 108.69C186.219 105.49 187.549 101.06 184.379 97.9597C184.359 97.9397 184.339 97.9197 184.309 97.8997C184.129 97.6897 183.919 97.4796 183.669 97.2996C183.619 97.2596 183.559 97.2297 183.509 97.1997C181.249 95.3597 178.319 94.2296 175.539 94.3096C172.209 94.4096 169.209 96.5797 168.309 100.14C167.549 103.14 168.429 106.45 170.539 108.49C171.469 110.3 172.909 111.77 174.769 112.45C178.289 113.72 181.759 111.67 183.909 108.69Z" fill="#F0FFCC"/>
<path d="M199.605 95.5497C202.785 94.1197 204.555 90.1498 203.075 86.6498C201.635 83.2598 197.935 81.9198 194.835 83.2198C194.365 83.4198 193.965 83.7498 193.655 84.1598C192.815 84.6798 192.205 85.5398 191.815 86.5098C191.265 87.8498 191.155 89.4198 191.475 90.8398C192.345 94.7198 196.075 97.1497 199.605 95.5497Z" fill="#F0FFCC"/>
<path d="M195.277 140C195.317 139.79 195.347 139.58 195.357 139.34C195.597 130.76 187.017 124.62 180.097 129.61C173.187 134.6 174.307 145.5 181.507 149.47C188.447 153.29 195.487 147.62 195.277 140Z" fill="#F0FFCC"/>
<path d="M161.164 137.66C169.164 133.65 168.984 120.89 160.994 116.95C153.934 113.47 145.424 120.009 147.024 127.989C147.104 135.189 154.504 141.01 161.164 137.66Z" fill="#F0FFCC"/>
<path d="M123.16 94.5595C126.51 93.5795 129 90.2095 129.01 86.3495C129.01 85.5595 128.88 84.8095 128.7 84.0795C128.51 79.9095 125.12 76.6395 121.14 77.1395C121.07 77.1495 121 77.1795 120.93 77.1895C117.05 76.9095 113.06 79.4795 111.61 83.4195C109.99 87.8095 112 92.7995 115.88 94.8095C118.21 96.0195 120.91 95.7995 123.16 94.5595Z" fill="#F0FFCC"/>
<path d="M117.077 64.6097C117.937 63.8897 118.437 62.7297 118.097 61.1897C116.537 54.2097 109.047 49.8497 103.177 54.1397C97.4769 58.3097 97.3269 67.5697 103.287 71.5197C108.637 75.0797 117.117 71.7597 117.077 64.6097Z" fill="#F0FFCC"/>
<path d="M135.87 116.66C135.57 116.19 135.25 115.78 134.9 115.4C131.98 111.17 125.99 109.62 121.59 113.44C115.18 119.01 118.13 130.58 126.15 132.12C134.07 133.65 140.65 124.19 135.87 116.66Z" fill="#F0FFCC"/>
<path d="M106.551 117.35C109.811 113.77 109.681 108.3 106.821 104.48C103.841 100.49 98.6007 99.6296 94.6507 102.41C90.8307 105.11 89.5107 110.53 91.7707 114.86C92.1807 115.65 92.7207 116.31 93.2907 116.9C93.8607 117.73 94.5607 118.46 95.3907 119.02C98.9207 121.41 103.691 120.49 106.551 117.35Z" fill="#F0FFCC"/>
<path d="M87.2173 95.8797C89.2073 95.6897 91.1773 94.7897 92.8573 92.8797C93.4473 92.1997 93.8973 91.4498 94.2373 90.6598C95.3373 90.2498 96.2274 89.2597 96.3774 87.6197C96.8874 81.8897 93.8573 76.2497 88.7473 74.2997C83.6973 72.3697 77.8973 75.1798 75.3273 80.0998C72.6873 85.1498 73.9373 92.2998 79.0973 94.8398C81.5673 96.0698 84.5073 96.4497 87.2173 95.8797Z" fill="#F0FFCC"/>
<path d="M71.9886 121.709C78.7686 121.779 82.4786 113.679 78.4086 107.819C76.5086 105.089 73.1986 103.819 70.1586 104.739C68.0586 105.379 66.3986 107.079 65.6886 109.199C62.9286 114.409 66.0386 121.649 71.9886 121.709Z" fill="#F0FFCC"/>
<path d="M56.83 124.8C57.23 123.33 57.2 121.86 56.87 120.51C57.11 117.12 54.93 113.8 51.29 113.01C47.17 112.11 43.14 115.32 42.07 119.57C40.93 124.12 43.15 128.79 47.47 129.94C51.27 130.96 55.66 129.12 56.83 124.8Z" fill="#F0FFCC"/>
<path d="M48.7384 122.359C48.7384 122.349 48.7384 122.349 48.7384 122.349C48.6684 122.259 48.6684 122.259 48.6484 122.239C48.6484 122.239 48.6484 122.239 48.6484 122.249C48.6784 122.259 48.7084 122.309 48.7384 122.359Z" fill="#F0FFCC"/>
<path d="M77.4717 149.749C79.6717 146.289 79.5317 141.669 77.3317 138.299C74.4517 131.769 66.5717 128.869 60.7017 133.709C57.4117 136.419 56.0017 141.109 57.0217 145.429C58.1017 150.019 61.5217 152.959 65.7117 153.899C70.0617 154.869 74.8217 153.909 77.4717 149.749Z" fill="#F0FFCC"/>
<path d="M100.21 154.6C105.61 155.17 111.18 152.08 112.88 146.18C114.86 139.32 111.11 133.02 104.97 131.02C99.0899 129.1 92.5399 130.6 89.6099 136.91C86.8799 142.8 88.9199 149.74 94.1599 153.03C96.0699 154.22 98.1599 154.69 100.21 154.6Z" fill="#F0FFCC"/>
<path d="M138.008 170.05C144.548 168.63 147.098 160.3 144.408 154.66C144.388 154.43 144.368 154.21 144.308 153.96C141.968 144.35 129.998 143.58 126.118 152.4C122.388 160.87 129.058 171.99 138.008 170.05Z" fill="#F0FFCC"/>
<path d="M169.3 174.25C176.5 171.22 175.69 159.56 168.62 156.96C165.64 155.86 162.77 156.84 160.66 158.8C159.62 159.66 158.76 160.81 158.2 162.17C158.15 162.3 158.12 162.43 158.07 162.56C157.02 165.14 157.02 168.1 158.57 170.57C158.87 171.13 159.2 171.66 159.62 172.14C162.08 174.97 166.01 175.63 169.3 174.25Z" fill="#F0FFCC"/>
<path d="M202.002 190.09C206.762 187.3 210.382 181.19 209.382 175.2C209.282 174.62 209.122 174.07 208.942 173.54C205.952 162.53 192.022 159.48 186.062 169.95C179.782 180.96 190.662 196.73 202.002 190.09Z" fill="#F0FFCC"/>
<path d="M238.715 186.599C239.485 185.869 239.935 184.749 239.645 183.299C238.185 175.899 230.335 172.339 224.565 176.909C218.855 181.439 219.775 191.289 226.025 194.659C231.555 197.649 238.795 193.379 238.715 186.599Z" fill="#F0FFCC"/>
<path d="M274.169 191.88C273.849 188.45 272.379 185.22 269.689 182.99C265.559 179.56 259.409 179.48 255.259 182.9C246.629 190 249.679 205.79 260.489 207.9C269.269 209.61 276.429 200.23 274.169 191.88Z" fill="#F0FFCC"/>
<path d="M305.421 207.71C310.881 201.98 308.111 190.95 300.361 189.6C298.601 189.29 297.061 189.76 295.801 190.67C295.081 190.9 294.371 191.22 293.691 191.67C290.501 193.77 288.631 197.86 289.181 201.91C290.301 210.27 299.961 213.44 305.421 207.71Z" fill="#F0FFCC"/>
<path d="M332.818 208.94C335.098 206.97 336.298 203.49 335.768 200.38C335.118 196.58 331.278 194.08 327.958 195.81C327.938 195.82 327.918 195.84 327.898 195.85C326.348 195.84 325.178 196.73 324.488 198.22C323.078 201.32 322.428 204.83 324.418 207.84C326.388 210.82 330.238 211.17 332.818 208.94Z" fill="#F0FFCC"/>
<path d="M344.259 243.36C350.769 241.4 353.329 233.08 350.439 227.35C350.649 226.59 350.639 225.72 350.249 224.79C346.519 215.87 334.779 216.51 332.099 225.98C330.839 230.42 330.689 235.85 333.589 239.58C336.169 242.9 340.369 244.53 344.259 243.36Z" fill="#F0FFCC"/>
<path d="M317.831 238.97C318.531 238.62 319.121 237.95 319.431 236.87C322.121 227.31 314.131 217.55 304.981 221.34C296.291 224.93 295.321 238.27 303.511 243.2C308.741 246.35 315.071 243.73 317.831 238.97Z" fill="#F0FFCC"/>
<path d="M276.919 242.38C284.529 238.27 282.959 225.75 275.239 222.85C271.259 221.36 266.739 222.62 264.559 226.68C263.339 228.96 263.299 231.26 263.989 233.37C263.379 240.39 270.479 245.85 276.919 242.38Z" fill="#F0FFCC"/>
<path d="M300.155 267.9C301.075 263.86 298.725 259.63 295.355 257.82C294.145 257.01 292.665 256.65 291.205 256.93C291.155 256.94 291.105 256.96 291.055 256.97C288.465 257.33 286.175 259.26 285.885 262.3C285.875 262.41 285.885 262.51 285.875 262.62C285.305 265.28 285.845 268.32 287.555 270.49C291.155 275.07 298.725 274.19 300.155 267.9Z" fill="#F0FFCC"/>
<path d="M330.648 273.789C333.998 268.319 332.008 259.929 326.498 257.589C324.038 256.049 320.998 255.589 317.818 256.819C310.818 259.519 308.828 268.759 313.268 274.979C317.788 281.329 326.658 280.289 330.648 273.789Z" fill="#F0FFCC"/>
<path d="M353.593 262.46C352.893 260.31 351.083 258.65 349.053 257.98C347.333 256.52 344.773 256.72 343.003 258.12C341.483 259.32 340.573 261.29 340.353 263.3C339.893 267.55 342.783 271.84 346.883 271.85C351.353 271.85 355.173 267.32 353.593 262.46Z" fill="#F0FFCC"/>
<path d="M342.435 304.31C345.485 303.69 347.625 301.2 348.455 298.24C348.635 297.97 348.805 297.67 348.935 297.32C350.995 291.56 347.165 284.75 341.455 284.1C335.785 283.46 331.245 289.31 331.545 295.16C331.845 300.94 337.175 305.38 342.435 304.31Z" fill="#F0FFCC"/>
<path d="M320.643 305.01C321.723 303.7 322.273 302.209 322.393 300.719C324.003 294.869 320.223 288.39 314.253 288.42C307.753 288.45 304.203 296.219 306.753 302.329C309.213 308.199 316.513 310.01 320.643 305.01Z" fill="#F0FFCC"/>
<path d="M291.651 292.82C292.481 286.39 286.231 280.729 280.331 283.649C273.521 287.009 273.991 297.46 280.531 300.82C286.151 303.7 291.971 298.52 291.651 292.82Z" fill="#F0FFCC"/>
<path d="M263.687 278.079C265.187 277.549 266.407 276.58 267.337 275.37C267.447 275.32 267.567 275.28 267.677 275.22C274.837 271.04 271.497 261.64 265.537 258.32C259.167 254.76 251.857 258.26 251.797 266.48C251.747 273.47 256.597 280.599 263.687 278.079Z" fill="#F0FFCC"/>
<path d="M249.142 220.14C247.522 215.66 243.582 212.08 239.062 211.77C237.002 211.63 235.112 212.18 233.532 213.23C232.452 213.61 231.462 214.17 230.612 214.96C224.012 221.1 226.722 234.07 235.122 236.44C243.922 238.94 252.572 229.64 249.142 220.14Z" fill="#F0FFCC"/>
<path d="M239.952 255.98C239.672 255.34 239.282 254.76 238.852 254.23C237.982 252.28 236.432 250.67 234.492 249.89C231.362 248.63 227.892 249.96 225.742 252.58C221.202 258.12 224.322 267.68 231.232 268.66C237.312 269.52 242.672 262.16 239.952 255.98Z" fill="#F0FFCC"/>
<path d="M210.953 221.97C211.693 221.32 212.243 220.49 212.693 219.6C213.763 219.05 214.503 217.9 214.763 216.54C215.843 210.79 211.093 205.05 205.713 205.61C200.393 206.16 196.543 212.51 198.533 217.96C200.393 223.06 206.863 225.56 210.953 221.97Z" fill="#F0FFCC"/>
<path d="M210.376 252.02C210.626 251.58 210.826 251.11 210.986 250.64C211.626 250.04 212.086 249.22 212.086 248.28C212.096 245.34 211.116 242.8 208.956 240.95C206.886 239.17 203.926 238.67 201.486 239.81C197.046 241.89 195.156 248.41 198.386 252.55C201.456 256.5 207.746 256.59 210.376 252.02Z" fill="#F0FFCC"/>
<path d="M182.96 200.07C180.74 192.42 171.03 189.51 165.19 195.9C158.48 203.24 162.74 216.29 171.98 217.95C181.1 219.59 186.1 208.27 182.96 200.07Z" fill="#F0FFCC"/>
<path d="M173.079 258.229C180.419 258.119 185.449 250.109 183.639 243.279C183.719 242.799 183.699 242.259 183.549 241.659C181.069 232.009 169.859 229.229 163.989 237.239C158.059 245.319 163.289 258.369 173.079 258.229Z" fill="#F0FFCC"/>
<path d="M148.712 189.57C146.812 184.44 140.992 183.01 137.372 185.77C135.882 186.44 134.522 187.49 133.552 189.02C130.032 194.57 133.502 202.57 139.132 204.48C145.922 206.78 150.902 195.48 148.712 189.57Z" fill="#F0FFCC"/>
<path d="M152.479 234.04C152.659 233.8 152.789 233.53 152.939 233.27C155.159 230.52 155.859 226.43 154.579 223C153.129 219.13 149.429 216.93 145.659 217.23C137.309 217.88 134.259 231.47 141.579 236.03C145.129 238.24 149.869 237.62 152.479 234.04Z" fill="#F0FFCC"/>
<path d="M120.658 178.299C120.588 175.179 119.068 173.07 116.958 171.83C114.198 167.88 108.378 167.59 105.068 171.17C101.168 175.39 100.808 186.41 107.418 187.9C113.158 189.2 120.818 185.469 120.658 178.299Z" fill="#F0FFCC"/>
<path d="M124.188 220.11C125.648 218.61 126.178 216.48 125.948 214.47C126.558 213.41 126.748 212.05 126.168 210.94C124.228 207.15 119.728 205.35 116.088 207.54C112.308 209.82 111.568 215.12 113.898 218.88C116.178 222.55 121.218 223.16 124.188 220.11Z" fill="#F0FFCC"/>
<path d="M102.087 205.84C102.837 202.47 101.137 198.63 97.997 197.55C96.257 196.95 94.107 197.69 93.477 199.71C93.447 199.82 93.427 199.94 93.397 200.06C92.597 200.52 91.867 201.16 91.317 202.01C90.167 203.77 89.697 206.44 91.017 208.25C92.007 209.61 93.457 210.48 95.037 210.74C98.157 211.23 101.337 209.25 102.087 205.84Z" fill="#F0FFCC"/>
<path d="M93.1407 172.66C93.3207 167.7 88.9407 164.41 84.9907 165.95C83.8707 166.14 82.7907 166.61 81.9207 167.48C78.5607 170.84 79.7007 177.28 83.9707 179.05C88.1007 180.78 92.9607 177.52 93.1407 172.66Z" fill="#F0FFCC"/>
<path d="M337.872 337.89C345.622 337.73 349.692 327.35 343.922 321.83C343.162 320.72 342.202 319.73 341.002 318.95C337.782 316.85 332.182 315.39 329.472 319.05C324.152 326.2 329.452 338.06 337.872 337.89Z" fill="#F0FFCC"/>
<path d="M317.213 335.36C318.043 332.68 317.193 329.82 315.483 327.9C313.633 323.82 308.533 322.18 305.063 325.38C301.203 328.93 301.543 335.58 305.433 338.94C309.373 342.36 315.553 340.67 317.213 335.36Z" fill="#F0FFCC"/>
<path d="M286.991 327.879C287.821 327.379 288.411 326.46 288.421 325.06C288.481 315.85 279.561 309.36 272.051 314.79C265.311 319.66 266.291 331.32 273.861 334.68C279.501 337.18 285.591 333.519 286.991 327.879Z" fill="#F0FFCC"/>
<path d="M298.819 362.149C299.729 360.559 299.929 358.76 299.609 357.07C301.509 351.51 296.649 345.519 291.169 346.909C285.399 348.379 282.709 356.74 285.899 361.95C288.929 366.93 295.789 367.449 298.819 362.149Z" fill="#F0FFCC"/>
<path d="M321.514 365.52C324.064 363.24 324.504 358.46 322.114 355.87C321.464 355.16 320.654 354.69 319.804 354.55C318.474 353.87 316.914 353.71 315.394 354.33C311.764 355.82 310.364 360.95 312.784 364.27C314.894 367.14 318.834 367.92 321.514 365.52Z" fill="#F0FFCC"/>
<path d="M343.319 364.9C345.409 363.08 347.269 360.21 346.879 357.16C346.769 356.28 346.499 355.5 346.109 354.81C344.679 350.04 339.609 347.44 335.209 349.41C330.709 351.43 327.899 357.81 329.979 362.76C332.419 368.54 339.269 368.43 343.319 364.9Z" fill="#F0FFCC"/>
<path d="M336.626 404.26C346.016 402.58 349.676 387.7 342.836 381.49C339.186 377.57 333.046 376.48 328.276 381.16C324.606 384.75 323.036 390.49 324.606 395.6C326.286 401.07 331.166 405.23 336.626 404.26Z" fill="#F0FFCC"/>
<path d="M311.548 384.9C310.918 382.93 309.558 381.3 307.868 380.37C305.988 378.9 303.548 378.55 301.278 379.48C294.978 382.08 294.908 391.82 300.888 394.89C306.758 397.91 313.738 391.73 311.548 384.9Z" fill="#F0FFCC"/>
<path d="M317.55 426.32C323.14 422.45 322.03 412.2 315.5 410.26C312.24 409.29 308.56 410.52 306.47 413.45C305.68 414.56 305.21 415.82 305.02 417.13C304.99 417.25 304.95 417.36 304.93 417.48C303.69 424.82 311.92 430.22 317.55 426.32Z" fill="#F0FFCC"/>
<path d="M346.262 435.49C347.742 434.45 348.042 432.55 347.522 430.77C346.572 427.48 345.172 424.27 342.172 422.66C339.542 421.24 336.512 421.57 334.262 423.64C330.052 427.51 329.862 436.3 334.432 439.91C338.832 443.37 345.172 440.92 346.262 435.49Z" fill="#F0FFCC"/>
<path d="M322.477 460.77C323.457 460.57 324.297 459.84 324.637 458.4C326.787 449.24 320.887 438.95 311.277 441.45C302.437 443.75 299.977 458.34 305.797 465.13C311.407 471.65 319.157 467.34 322.477 460.77Z" fill="#F0FFCC"/>
<path d="M340.257 472.92C341.767 472.2 342.997 470.82 343.587 469.05C344.127 467.44 344.097 465.69 343.597 464.12C343.607 463.83 343.597 463.54 343.537 463.25C342.767 459.7 339.247 457.53 336.057 459.13C335.677 459.32 335.327 459.55 334.977 459.82C334.317 460.06 333.687 460.399 333.117 460.849C328.607 464.409 329.947 473.52 335.957 474.18C337.497 474.34 339.017 473.85 340.257 472.92Z" fill="#F0FFCC"/>
<path d="M330.459 503.66C330.999 503.08 331.419 502.34 331.789 501.56C332.899 501.14 333.849 500.17 334.099 498.58C335.449 490.09 329.749 479.4 320.669 483.34C312.129 487.04 312.249 500.31 320.139 504.78C323.409 506.62 327.739 506.6 330.459 503.66Z" fill="#F0FFCC"/>
<path d="M301.573 494.69C302.313 494 302.903 493.18 303.363 492.29C303.933 491.89 304.383 491.31 304.573 490.57C306.093 484.67 302.763 477.76 296.643 477.49C290.443 477.21 285.503 483.85 287.573 490.3C289.603 496.57 296.813 499.13 301.573 494.69Z" fill="#F0FFCC"/>
<path d="M291.677 417.97C293.817 416.51 294.697 413.14 292.947 410.3C290.827 406.87 286.687 404.62 282.907 404.68C273.687 404.83 271.297 418.16 278.927 423.01C284.077 426.28 289.737 422.96 291.677 417.97Z" fill="#F0FFCC"/>
<path d="M286.328 463.61C288.948 462.19 290.608 459.72 291.458 456.9C293.988 454.43 293.228 449.4 291.218 446.23C291.018 445.92 290.788 445.63 290.558 445.33C289.148 442.34 286.838 439.87 283.768 438.98C281.858 438.43 279.848 438.57 278.038 439.25C268.368 440.52 267.158 456.6 274.008 462.32C277.438 465.19 282.448 465.72 286.328 463.61Z" fill="#F0FFCC"/>
<path d="M258.35 309.15C259.97 307.6 261.14 305.56 261.48 303.13C262.54 295.45 255.71 290.55 249.38 290.29C243.75 290.06 240.84 294.87 240.78 300.1C240.03 304.49 242.2 309.37 246.24 311.39C246.68 311.61 247.14 311.78 247.61 311.92C248.39 312.41 249.24 312.79 250.15 312.96C253.78 313.65 256.77 311.92 258.35 309.15Z" fill="#F0FFCC"/>
<path d="M225.46 293.719C226.12 293.179 226.58 292.329 226.64 291.139C227.04 283.479 219.55 277.629 213.11 281.559C206.89 285.359 206.26 295.259 212.42 299.539C217.46 303.039 224.36 299.589 225.46 293.719Z" fill="#F0FFCC"/>
<path d="M193.331 280.94C195.881 280.61 198.241 278.68 198.991 276C199.021 275.9 199.021 275.79 199.051 275.69C199.981 274.83 200.581 273.51 200.241 272.23C199.391 269.06 197.391 266.66 194.361 265.89C191.531 265.17 188.671 266.28 186.951 268.84C185.381 271.17 185.051 274.59 186.311 277.16C187.671 279.95 190.471 281.31 193.331 280.94Z" fill="#F0FFCC"/>
<path d="M281.629 382.99C281.649 382.11 281.539 381.26 281.349 380.44C281.429 379.84 281.399 379.19 281.169 378.51C278.759 371.33 269.759 368.44 264.319 373.48C258.909 378.5 259.399 388.48 265.739 392.28C272.489 396.32 281.439 391.7 281.629 382.99Z" fill="#F0FFCC"/>
<path d="M263.463 358.41C268.593 357.6 271.233 351.25 269.353 346.27C267.483 341.3 261.773 339.73 257.613 342.32C254.903 344.01 253.043 347.35 253.553 350.81C253.813 352.6 254.753 354.21 256.043 355.26C257.843 357.51 260.653 358.85 263.463 358.41Z" fill="#F0FFCC"/>
<path d="M241.015 342.39C248.665 336.23 246.445 323.51 237.645 320.05C233.175 318.29 228.695 319.85 226.765 324.7C226.705 324.86 226.655 325.03 226.595 325.19C224.955 326.89 223.855 329.24 223.585 331.74C222.535 341.86 233.665 348.31 241.015 342.39Z" fill="#F0FFCC"/>
<path d="M247.544 377.6C247.824 376.01 247.684 374.39 247.224 372.88C247.154 372.52 247.054 372.14 246.854 371.76C246.804 371.66 246.734 371.59 246.684 371.5C245.034 367.96 241.564 365.45 237.714 366.23C236.994 366.38 236.344 366.69 235.744 367.08C234.884 367.42 234.054 367.87 233.304 368.55C229.014 372.43 229.554 380.37 234.154 383.7C239.124 387.31 246.424 383.91 247.544 377.6Z" fill="#F0FFCC"/>
<path d="M254.123 424.85C257.353 423.35 259.433 420.5 260.433 417.27C260.583 417.01 260.723 416.73 260.823 416.4C261.303 414.86 261.353 413.42 261.083 412.08C260.853 407.21 258.323 402.51 253.463 400.73C248.793 399.02 243.143 401.09 240.713 405.82C240.123 406.96 239.763 408.22 239.593 409.51C235.563 418.82 245.183 429.01 254.123 424.85Z" fill="#F0FFCC"/>
<path d="M249.208 464.04C255.048 463.55 259.958 458.1 259.028 451.55C258.638 448.78 257.218 446.52 255.298 445.07C253.748 442.81 251.368 441.26 248.498 441.04C241.868 440.54 238.278 446.72 237.938 453.21C237.578 459.99 243.278 464.54 249.208 464.04Z" fill="#F0FFCC"/>
<path d="M270.664 491.81C272.214 491 273.334 489.12 272.514 486.9C272.484 486.83 272.454 486.76 272.434 486.69C272.454 484.28 271.534 481.92 269.654 480.45C268.734 479.73 267.614 479.32 266.464 479.21C264.584 478.48 262.514 478.58 260.714 479.7C256.114 482.55 255.034 490.05 259.694 493.5C263.184 496.08 268.084 495.17 270.664 491.81Z" fill="#F0FFCC"/>
<path d="M280.91 505.399C281.62 505.549 282.37 505.479 283.02 505.159C284.82 504.269 285.43 502.059 284.75 500.149C283.92 497.799 282.56 495.419 280.34 494.389C277.64 493.129 274.56 494.329 273.13 497.069C271.74 499.739 272.24 503.089 274.55 504.969C276.3 506.399 278.98 506.589 280.91 505.399Z" fill="#F0FFCC"/>
<path d="M245.78 500.48C247.12 499.07 248.08 497.31 248.57 495.5C249.31 494.05 249.76 492.44 249.71 490.72C249.62 487.62 247.94 485.09 245.43 484.02C243.01 480.92 238.9 479.44 235.14 481.2C230.37 483.43 227.35 490.24 228.23 495.74C228.85 499.62 231.6 501.54 234.81 502.11C238.26 504.17 242.76 503.66 245.78 500.48Z" fill="#F0FFCC"/>
<path d="M226.368 472.869C231.038 468.259 227.948 459.639 221.848 458.969C218.908 458.649 215.868 460.329 214.788 463.389C214.108 465.319 214.288 467.469 215.178 469.219C215.618 471.339 216.888 473.239 218.748 474.209C221.238 475.519 224.328 474.879 226.368 472.869Z" fill="#F0FFCC"/>
<path d="M221.011 447.37C221.181 447.37 221.351 447.39 221.521 447.38C226.801 446.99 230.761 442.11 231.481 436.6C233.211 423.41 216.571 416.87 209.701 427.67C206.491 432.72 207.141 439.58 211.081 443.94C213.671 446.8 217.511 448.08 221.011 447.37Z" fill="#F0FFCC"/>
<path d="M228.703 400.73C229.033 396.12 225.893 391.61 221.453 391.52C218.793 391.47 216.313 393.08 215.463 395.88C215.223 396.67 215.133 397.49 215.173 398.31C215.173 398.32 215.163 398.33 215.163 398.34C213.533 402.76 216.623 406.96 220.613 407.76C224.693 408.59 228.393 405.12 228.703 400.73Z" fill="#F0FFCC"/>
<path d="M219.949 364.49C220.829 363.65 221.259 362.35 221.199 360.99C220.829 352.53 211.179 347.98 205.319 353.62C199.789 358.95 201.399 368.72 208.679 370.99C213.719 372.56 218.609 369.29 219.949 364.49Z" fill="#F0FFCC"/>
<path d="M205.23 335.85C209.48 334.94 212 331.29 212.73 327.18C213.17 326.67 213.49 325.99 213.6 325.12C214.08 321.32 212.27 317.69 209.37 315.69C209.04 315.38 208.69 315.07 208.31 314.8C204.83 312.36 199.89 313.34 197.36 316.89C196.88 317.57 196.53 318.33 196.25 319.1C194.04 322.56 193.46 327.3 195.3 331.08C197.18 334.96 201.36 336.68 205.23 335.85Z" fill="#F0FFCC"/>
<path d="M203.032 395.77C204.772 390.75 201.232 385.21 196.672 384.37C194.752 383.75 192.642 383.81 190.722 384.85C185.652 387.6 185.532 395.29 189.302 399.29C193.542 403.79 200.972 401.72 203.032 395.77Z" fill="#F0FFCC"/>
<path d="M198.033 425.369C197.913 424.609 197.653 423.889 197.313 423.199C197.093 421.659 196.463 420.169 195.503 418.969C193.233 416.139 189.423 415.479 186.303 416.919C179.843 419.899 178.423 429.379 184.513 433.689C190.233 437.739 199.353 433.669 198.033 425.369Z" fill="#F0FFCC"/>
<path d="M197.7 468.26C201.71 467.27 204.99 463.58 205.47 459.4C205.73 458.82 205.87 458.149 205.82 457.369C205.38 451.409 199.9 447.03 194.55 447.56C188.98 448.11 185.65 454.24 186.32 459.91C187.03 465.87 192.39 469.57 197.7 468.26Z" fill="#F0FFCC"/>
<path d="M211.959 497.23C213.049 496.8 213.959 495.83 214.199 494.26C215.589 485.18 207.499 477.4 199.389 480.63C191.539 483.76 189.689 495.88 196.829 501.14C202.139 505.05 209.219 502.65 211.959 497.23Z" fill="#F0FFCC"/>
<path d="M190.353 360.91C190.333 360.34 190.243 359.79 190.123 359.24C189.923 351.83 182.243 346.76 176.213 351.04C170.383 355.19 170.183 364.73 175.683 369.3C181.963 374.51 190.693 369.29 190.353 360.91Z" fill="#F0FFCC"/>
<path d="M184.054 309.44C187.594 308.92 190.084 305.5 190.004 301.75C190.054 301.38 190.064 301.01 189.984 300.63C189.864 300.05 189.684 299.51 189.454 298.98C189.334 298.67 189.174 298.39 189.014 298.11C188.924 297.94 188.824 297.78 188.724 297.63C188.544 297.37 188.364 297.11 188.164 296.88C186.544 294.96 184.124 293.87 181.594 294.36C177.844 295.08 175.474 299.23 176.004 303.2C176.554 307.4 180.284 310 184.054 309.44Z" fill="#F0FFCC"/>
<path d="M174.961 338.91C176.501 338.15 177.781 336.88 178.621 335.36C179.041 334.98 179.401 334.46 179.621 333.75C181.751 327.06 176.541 319.15 169.701 320.95C162.671 322.8 160.301 332.48 166.041 337.49C168.521 339.66 172.011 340.37 174.961 338.91Z" fill="#F0FFCC"/>
<path d="M162.939 292.83C164.739 292.55 166.509 291.74 168.049 290.24C168.959 289.35 169.639 288.29 170.139 287.15C170.769 286.79 171.329 286.21 171.699 285.35C174.159 279.63 167.509 274.66 163.159 273.3C162.529 273.11 161.909 273 161.289 272.95C158.679 272.44 156.009 272.7 153.999 274.3C145.679 280.87 154.589 297.3 162.939 292.83Z" fill="#F0FFCC"/>
<path d="M148.782 255.9C148.792 252.92 147.262 250.14 144.642 249.05C144.112 248.83 143.592 248.71 143.072 248.65C141.772 248.2 140.352 248.19 138.982 248.73C133.892 250.72 131.322 259.55 136.522 263.01C141.512 266.33 148.772 262.35 148.782 255.9Z" fill="#F0FFCC"/>
<path d="M157.468 313.67C157.668 310.41 156.318 307.81 154.288 306.19C152.278 301.35 146.238 298.96 141.818 302.43C135.978 307.01 136.698 316.83 142.458 321.07C148.268 325.36 156.988 321.7 157.468 313.67Z" fill="#F0FFCC"/>
<path d="M160.393 357.62C160.703 354.54 159.773 351.2 157.653 349.18C155.733 345.64 151.833 343.32 147.493 344.47C138.863 346.74 137.293 358.87 143.263 365.09C149.493 371.59 159.493 366.53 160.393 357.62Z" fill="#F0FFCC"/>
<path d="M165.684 405.23C170.404 404.08 174.244 400.01 174.704 394.68C175.164 389.28 172.074 383.62 167.364 381.67C166.474 381.3 165.584 381.12 164.704 381.03C161.174 380.14 157.244 380.83 154.484 383.42C145.594 391.73 155.044 407.81 165.684 405.23Z" fill="#F0FFCC"/>
<path d="M170.29 441.34C170.5 440.89 170.63 440.35 170.64 439.71C170.64 439.45 170.63 439.18 170.63 438.91C170.69 438.16 170.72 437.43 170.7 436.72C170.65 434.97 170.28 433.31 169.66 431.81C168.35 427.16 165.55 423.34 160.23 423.49C153.76 423.67 148.08 431.53 147.56 438.17C146.98 445.58 153.48 452.11 160.05 452.51C165.81 452.87 169.19 447.08 170.29 441.34Z" fill="#F0FFCC"/>
<path d="M172.572 486.33C177.132 485.48 179.792 480.16 178.682 475.76C178.402 474.21 177.772 472.73 176.662 471.54C172.692 467.29 165.282 469.26 163.462 474.97C161.562 480.95 166.892 487.38 172.572 486.33Z" fill="#F0FFCC"/>
<path d="M148.16 480.83C151.7 477.46 153.35 471.74 152 466.83C151.27 464.2 149.7 462.18 147.78 460.84C144.95 457.69 140.58 456.19 136.32 458.19C127.1 462.53 127.31 475.97 135.47 481.34C139.42 483.94 144.54 484.27 148.16 480.83Z" fill="#F0FFCC"/>
<path d="M137.223 423.51C137.673 423.55 138.133 423.59 138.583 423.57C142.973 423.34 146.463 419.75 147.503 415.22C148.603 410.45 146.773 405.63 142.723 403.32C138.873 401.13 133.813 401.67 130.723 405.09C127.253 408.93 126.603 415.08 129.293 419.61C131.093 422.65 134.233 424.08 137.223 423.51Z" fill="#F0FFCC"/>
<path d="M127.441 447.72C129.181 445.3 129.181 442.51 128.161 440.1C127.461 436.25 124.801 432.94 120.781 432.67C114.291 432.23 110.541 439.6 113.741 445.51C116.421 450.44 123.761 452.84 127.441 447.72Z" fill="#F0FFCC"/>
<path d="M93.0721 454.75C97.7321 453.17 100.192 446.9 98.4621 442.07C96.7021 437.17 91.0621 435.08 86.7221 437.14C82.1721 439.29 80.6721 445.32 82.9721 449.93C84.3821 452.77 87.3621 454.64 90.1921 454.71C91.0621 455.09 92.0821 455.08 93.0721 454.75Z" fill="#F0FFCC"/>
<path d="M99.6624 428.09C103.482 427.77 106.782 425.37 108.292 421.78C108.502 421.54 108.732 421.32 108.922 421.06C112.432 416.12 111.732 408.92 107.612 404.67C98.2024 394.95 83.1524 406.42 87.3924 419.32C89.2224 424.88 94.1924 428.54 99.6624 428.09Z" fill="#F0FFCC"/>
<path d="M129.952 389.8C133.232 386 134.173 381.33 131.603 377.22C129.833 372.87 126.403 369.02 121.803 368.62C120.353 368.49 118.953 368.94 117.653 369.74C117.353 369.77 117.042 369.77 116.742 369.82C108.463 371.35 106.753 381.89 111.123 387.12C111.943 389.71 113.563 391.97 115.953 393.27C120.803 395.91 126.402 393.91 129.952 389.8Z" fill="#F0FFCC"/>
<path d="M123.97 350.38C129.1 349.46 132.28 342.49 128.96 337.83C128.53 337.23 128.01 336.76 127.44 336.35C126.55 334.81 124.85 333.89 122.76 333.96C119.87 334.07 117.21 335.98 115.97 338.82C113.51 344.44 118.25 351.41 123.97 350.38Z" fill="#F0FFCC"/>
<path d="M125.643 317.17C126.353 316.62 126.853 315.92 127.213 315.16C127.603 315.02 127.983 314.82 128.293 314.55C129.853 313.17 129.873 310.91 128.793 309.23C128.083 308.11 127.083 307.25 125.953 306.7C125.923 306.69 125.903 306.68 125.873 306.66C125.173 306.33 124.433 306.12 123.673 306.06C123.583 306.04 123.493 306.02 123.403 306C122.913 305.9 122.423 305.97 121.953 306.15C121.563 306.24 121.183 306.36 120.813 306.53C117.933 307.86 116.283 311.64 117.673 314.8C119.093 318.01 122.923 319.29 125.643 317.17Z" fill="#F0FFCC"/>
<path d="M136.925 286.9C138.435 282.42 135.265 277.48 130.945 277.15C130.005 277.08 129.095 277.4 128.395 278.01C127.585 278.3 126.825 278.76 126.175 279.4C123.125 282.41 123.715 288.01 127.055 290.49C130.485 293.02 135.525 291.07 136.925 286.9Z" fill="#F0FFCC"/>
<path d="M125.12 244.779C125.97 239.009 120.49 234.469 115.57 236.689C115.22 236.849 114.94 237.049 114.69 237.259C113.72 237.489 112.79 237.939 112.01 238.689C108.14 242.389 109.52 249.579 114.27 251.519C119 253.449 124.32 250.219 125.12 244.779Z" fill="#F0FFCC"/>
<path d="M115.445 278.35C115.835 278 116.184 277.55 116.434 276.95C118.994 271 114.385 263.56 108.295 264.21C102.155 264.86 98.4345 273.01 102.415 278.39C105.735 282.87 112.515 283.11 115.445 278.35Z" fill="#F0FFCC"/>
<path d="M103.843 234.22C104.133 230.86 102.393 227.97 99.9734 226.51C97.1434 223.44 91.7134 223.33 88.3934 226.51C83.6634 231.06 85.1034 239.96 91.0234 242.42C96.6334 244.75 103.273 240.9 103.843 234.22Z" fill="#F0FFCC"/>
<path d="M68.8397 206.92C74.0897 206.18 77.4097 200.56 76.8397 195.43C76.8797 195.23 76.9097 195.03 76.9197 194.8C77.0497 190.93 75.7197 186.85 72.3497 184.99C68.6397 182.94 64.6197 184.87 62.2597 188.26C59.8697 191.7 58.6297 196.85 60.1297 200.97C61.5197 204.8 64.9597 207.47 68.8397 206.92Z" fill="#F0FFCC"/>
<path d="M58.1281 171.23C59.1481 168.34 58.5581 164.899 56.3481 162.869C55.9581 162.509 55.5381 162.229 55.1181 161.999C55.1181 161.999 55.1181 161.989 55.1081 161.989C51.7481 158.489 46.3781 159.69 43.9781 163.85C41.4581 168.22 42.8981 173.81 47.3281 175.88C51.4181 177.78 56.5081 175.85 58.1281 171.23Z" fill="#F0FFCC"/>
<path d="M42.4387 149.37C42.3987 148.13 42.0187 146.99 41.4087 146.01C41.0187 144.25 39.8187 142.68 38.2287 142.01C35.7187 140.96 32.9387 142.05 31.2387 144.16C28.3487 147.75 29.2487 153.96 33.5287 155.74C37.5787 157.42 42.5787 154.28 42.4387 149.37Z" fill="#F0FFCC"/>
<path d="M32.5812 178.06C35.7512 175.27 35.5312 169.18 31.9312 166.89C31.5212 166.63 31.0812 166.44 30.6312 166.33C29.4812 165.52 28.0912 165.11 26.6512 165.34C22.1512 166.05 19.7912 171.53 21.9312 175.78C24.0212 179.94 29.1712 181.06 32.5812 178.06Z" fill="#F0FFCC"/>
<path d="M28.0625 172.26L28.0725 172.25H28.0625V172.26Z" fill="#F0FFCC"/>
<path d="M28.1016 172.24C28.1116 172.24 28.1216 172.24 28.1316 172.23C28.1216 172.23 28.1116 172.23 28.1016 172.24Z" fill="#F0FFCC"/>
<path d="M19.6147 205.45C24.1147 203.72 25.9447 197.98 24.2147 193.39C23.7147 192.06 22.8147 191.41 21.8347 191.25C20.2147 189.57 17.9747 188.59 15.5947 188.95C12.0047 189.49 9.36469 192.89 8.97469 196.61C7.82469 198.21 8.28469 200.7 9.75469 201.87C9.94469 202.02 10.1447 202.15 10.3547 202.25C12.4047 205.28 16.2547 206.74 19.6147 205.45Z" fill="#F0FFCC"/>
<path d="M49.8168 199.599C51.4968 195.779 50.8468 190.679 48.0368 187.689C46.9468 186.529 45.4268 185.999 44.0568 186.579C41.1868 185.249 37.7468 185.449 35.0768 188.139C32.5568 190.689 31.3668 194.709 32.3368 198.339C33.3568 202.179 36.5868 204.789 40.1968 205.269C44.2368 205.799 48.0668 203.569 49.8168 199.599Z" fill="#F0FFCC"/>
<path d="M36.7898 239.109C39.7698 239.039 42.6498 237.289 43.9998 234.359C45.5498 231.019 44.5298 227.279 42.6998 224.329C41.9998 222.729 40.7398 221.419 39.2198 220.709C37.5098 219.609 35.5298 219.069 33.5198 219.569C30.3698 220.349 27.6798 223.719 28.0498 227.319C28.1098 227.939 28.2998 228.529 28.5298 229.109C28.3498 234.149 31.6198 239.219 36.7898 239.109Z" fill="#F0FFCC"/>
<path d="M15.5746 233.31C16.6846 232.53 17.4746 231.39 17.8846 230.13C20.3546 227.25 20.1146 221.93 17.0846 219.48C12.4946 215.77 5.81464 219.93 5.35464 225.78C4.89464 231.7 10.5046 236.87 15.5746 233.31Z" fill="#F0FFCC"/>
<path d="M72.5913 232.48C76.8413 228.76 76.5613 221.43 71.8613 218.3C69.5713 216.77 66.6013 216.29 64.0513 217.32C62.7113 217.86 61.9313 219.03 61.4913 220.43C59.4113 221.84 58.1013 224.21 58.7413 227.44C59.9013 233.34 68.3913 236.16 72.5913 232.48Z" fill="#F0FFCC"/>
<path d="M86.4018 267C86.5918 265.95 86.6118 264.92 86.4918 263.93C87.0418 263.21 87.3218 262.23 87.1218 261.03C85.7218 252.51 76.8318 247.28 69.7518 251.99C62.7618 256.65 62.0618 267.32 68.4918 272.91C74.4418 278.09 84.7918 275.85 86.4018 267Z" fill="#F0FFCC"/>
<path d="M105.198 311.24C109.698 307.35 109.978 300.13 106.628 295.34C106.148 294.65 105.578 294.25 104.998 294.05C102.358 290.99 97.9584 289.95 94.2584 292.37C89.2784 295.63 88.0284 304.5 91.5584 309.42C94.6784 313.77 101.198 314.7 105.198 311.24Z" fill="#F0FFCC"/>
<path d="M104.604 343.79C108.494 339.19 107.454 331.34 102.444 328.19C102.194 328.03 101.934 327.91 101.684 327.82C98.874 325.09 94.554 324.48 91.084 327.19C86.154 331.03 85.764 338.85 89.684 343.66C93.594 348.47 100.614 348.5 104.604 343.79Z" fill="#F0FFCC"/>
<path d="M94.0961 381.05C98.9061 378.15 99.8961 372 97.5361 367.34C97.5561 362.41 93.4161 357.93 88.2861 358.87C81.9261 360.03 78.5961 367.81 80.2761 374.11C81.9861 380.57 88.3261 384.52 94.0961 381.05Z" fill="#F0FFCC"/>
<path d="M77.3809 303.12C81.4409 297.44 78.7709 287.87 72.0509 286.5C67.3509 285.54 63.2709 289.7 63.2609 294.22C62.5409 296.42 62.5609 298.87 63.7109 301.23C66.2609 306.48 73.8209 308.11 77.3809 303.12Z" fill="#F0FFCC"/>
<path d="M52.1322 264.75C54.5722 259.49 51.9222 253.25 46.7122 251.74C43.4322 250.79 39.6122 251.81 37.8422 255.16C37.4122 255.97 37.1622 256.84 37.0522 257.73C35.9722 261.09 36.7122 265.01 39.5322 267.51C43.6022 271.1 49.7622 269.86 52.1322 264.75Z" fill="#F0FFCC"/>
<path d="M14.0109 274.88C18.9309 273.63 24.9009 269.44 25.7809 263.66C26.3809 259.72 24.7209 255.96 22.0209 253.45C20.8609 250.93 18.6109 249.04 15.5909 248.48C10.7109 247.56 5.4609 249.94 2.4509 254.17C-4.0191 263.26 3.1809 277.63 14.0109 274.88Z" fill="#F0FFCC"/>
<path d="M45.5284 294.61C45.5784 291.03 43.7684 287.25 40.5784 285.89C40.2584 285.75 39.9284 285.65 39.5884 285.57C36.2384 283.98 32.1384 284.4 29.3684 287.53C25.1484 292.31 26.7784 300.89 32.3084 303.61C38.0784 306.44 45.4284 301.46 45.5284 294.61Z" fill="#F0FFCC"/>
<path d="M11.9531 303.69C13.3131 302.57 13.9631 300.73 13.9831 298.88C14.3731 297.78 14.5831 296.61 14.4531 295.38C14.2231 293.07 12.9031 290.9 10.9031 289.97C6.08311 287.75 1.73311 293.77 2.15311 298.57C2.58311 303.47 8.11311 306.86 11.9531 303.69Z" fill="#F0FFCC"/>
<path d="M31.6803 315.389C31.5103 315.169 31.3103 314.99 31.1303 314.8C28.5103 310.25 21.7803 308.91 17.6203 313.07C11.9103 318.77 15.0003 331.279 23.2603 331.609C30.2003 331.879 36.5103 321.779 31.6803 315.389Z" fill="#F0FFCC"/>
<path d="M55.0823 332.08C61.8123 328.61 62.9023 317.17 56.2223 313C53.2023 311.12 49.3423 311.14 46.3023 312.98C45.7223 313.33 45.1923 313.78 44.6923 314.27C42.7623 315.86 41.3723 318.22 40.8723 320.8C39.2123 329.28 48.2123 335.63 55.0823 332.08Z" fill="#F0FFCC"/>
<path d="M78.3693 333.14C80.0993 330.57 80.1493 326.26 78.1993 323.86C76.5393 321.81 73.7393 321.27 71.6293 322.45C71.1293 322.57 70.6493 322.8 70.2793 323.22C67.9393 325.79 67.2693 329.72 69.5393 332.66C71.5293 335.23 76.3193 336.19 78.3693 333.14Z" fill="#F0FFCC"/>
<path d="M75.6595 353.72C75.8895 351.34 74.9995 349.02 73.0995 347.73C72.9595 347.64 72.8095 347.56 72.6595 347.48C71.9595 346.48 71.0395 345.7 69.7995 345.32C67.8095 344.72 65.6395 345 63.9795 346.39C60.2795 349.49 61.3495 355.75 64.9195 358.4C68.8495 361.32 75.1295 359.28 75.6595 353.72Z" fill="#F0FFCC"/>
<path d="M46.3412 360.339C48.1512 358.339 49.2212 355.569 49.5112 352.789C49.5312 352.599 49.5112 352.409 49.5212 352.219C49.6112 351.959 49.6812 351.669 49.7112 351.359C50.5212 344.929 44.2112 340.119 38.7812 342.339C33.3212 344.579 30.9712 351.909 33.4012 357.499C35.7912 363.019 42.2512 364.849 46.3412 360.339Z" fill="#F0FFCC"/>
<path d="M75.4605 425.24C76.1505 423.1 76.4205 420.74 75.9705 418.65C76.8705 410.66 65.2505 406.48 59.5705 412.08C53.0505 418.52 57.5005 432.26 66.2805 432.73C70.8105 432.98 74.0205 429.67 75.4605 425.24Z" fill="#F0FFCC"/>
<path d="M81.3033 396.729C82.5033 393.469 81.1833 389.869 78.7933 387.749C77.3333 386.459 74.9833 386.989 73.9133 388.579C73.8333 388.699 73.7833 388.819 73.7233 388.939C71.9933 389.509 70.4833 390.999 69.8233 392.869C68.5733 396.439 70.7033 399.989 73.9733 400.839C76.9933 401.619 80.1433 399.859 81.3033 396.729Z" fill="#F0FFCC"/>
<path d="M58.7354 387.619C64.4254 387.009 68.0954 379.52 65.4554 374.05C62.6154 368.18 54.9054 367.51 51.8354 372.91C51.5554 373.21 51.2554 373.469 51.0154 373.829C46.9954 379.719 52.3454 388.299 58.7354 387.619Z" fill="#F0FFCC"/>
<path d="M44.3738 407.67C47.2838 405.09 49.9437 401.83 49.4137 397.46C48.9337 393.49 45.5838 390.59 41.8837 391.49C38.3138 392.36 35.7837 396.49 37.2237 400.34C37.6238 401.4 38.2637 402.28 39.0437 402.99C37.5137 406.15 41.3038 410.4 44.3738 407.67Z" fill="#F0FFCC"/>
<path d="M26.2784 385.73C31.1384 385.38 34.9384 380.57 34.7684 375.37C34.5984 370.22 30.1484 366.06 25.3684 367.31C20.8484 368.49 18.6484 374.81 21.5584 378.86C21.8984 379.33 22.2984 379.72 22.7384 380.05C22.3184 380.85 22.1184 381.79 22.2484 382.63C22.5884 384.81 24.3884 385.86 26.2784 385.73Z" fill="#F0FFCC"/>
<path d="M25.2223 346.63C26.1323 344.52 25.6523 342.34 24.4923 340.5C23.7923 339.39 22.4823 338.99 21.2723 339.19C21.0123 339.09 20.7323 339.01 20.4323 338.99C18.6423 338.88 16.6723 340.25 16.6023 342.37C16.5823 342.92 16.5623 343.48 16.5423 344.03C16.4823 345.72 17.2523 347.29 18.7523 347.94C19.4023 348.22 20.0523 348.5 20.6923 348.78C22.5323 349.58 24.4323 348.47 25.2223 346.63Z" fill="#F0FFCC"/>
</svg>
