<svg width="95" height="136" viewBox="0 0 95 136" fill="none" xmlns="http://www.w3.org/2000/svg">
<path d="M57.9839 119.01C56.4574 118.547 55.0379 118.173 53.6604 117.674C51.2362 116.797 50.7034 115.033 51.792 113.1C52.349 112.105 53.0563 110.839 52.8679 109.851C52.3984 107.358 51.3818 104.961 49.3272 103.289C47.8723 102.104 46.3117 101.012 44.6686 100.103C42.4566 98.8799 40.1258 97.8578 37.8348 96.7711C34.7244 95.2944 31.8481 93.4615 29.2939 91.1502C24.7653 87.046 22.4982 81.8539 22.2797 75.829C22.1136 71.223 22.6256 66.6241 23.8289 62.1757C26.0086 54.1369 30.9012 48.1437 38.2184 44.2072C42.5814 41.863 47.203 40.0206 52.033 38.9663C61.8791 36.8104 70.7026 38.7439 78.1846 45.8693C84.1164 51.5135 87.8596 58.2924 89.1319 66.3686C89.5772 69.1831 89.2778 72.0118 88.3839 74.7497C87.5375 77.3387 86.4364 79.8061 84.9221 82.0825C84.6941 82.4229 84.4991 82.7908 84.2553 83.125C81.744 86.4967 80.5114 90.2854 80.4512 94.4932C80.4371 95.5983 80.0798 96.6965 79.9292 97.8064C79.839 98.4922 79.8567 99.191 79.847 99.504C81.0864 100.412 82.1975 100.996 82.9915 101.861C84.1924 103.183 84.207 104.773 83.1995 106.257C82.508 107.279 81.6943 108.213 80.8682 109.263C81.6222 110.694 81.4117 112.152 80.753 113.62C80.494 114.207 80.3936 114.863 80.1669 115.47C79.9649 116.013 80.0273 116.449 80.3765 116.943C81.2664 118.195 81.2338 119.598 80.8132 121.007C79.8327 124.301 77.6437 126.608 74.7183 128.266C72.3292 129.624 69.6526 130.164 66.9946 130.656C66.2161 130.802 65.3293 130.677 64.5551 130.451C62.8433 129.959 61.6355 128.896 61.5228 126.98C61.4592 125.943 61.0428 125.295 60.0235 124.885C58.6721 124.337 58.2504 123.043 58.0634 121.736C57.9593 120.839 58.0158 119.951 57.9839 119.01ZM56.3214 79.4896C55.8267 78.9863 55.4163 78.5743 55.0128 78.1541C52.4333 75.4797 50.4532 72.4464 49.4637 68.8362C49.2813 68.1676 49.1923 67.4372 49.2522 66.7542C49.4147 65.019 51.0769 64.0385 52.7111 64.6822C53.1929 64.8746 53.6822 65.15 54.0501 65.5125C54.879 66.3433 55.7313 67.1797 56.4037 68.1313C58.1431 70.6077 59.4966 73.279 59.9481 76.329C60.0303 76.9001 60.0754 77.566 60.8393 77.6794C61.8587 77.8383 62.9136 78.1386 63.8385 77.3392C63.8365 77.0653 63.8304 76.8298 63.8318 76.5937C63.9165 73.4114 64.0932 70.2361 65.0249 67.1598C65.5285 65.4926 66.4947 64.225 68.1122 63.5075C69.5683 62.8579 70.5443 63.1273 71.5104 64.3796C72.2954 65.3971 72.7811 66.556 72.7354 67.8162C72.6689 69.6874 72.5592 71.5854 72.2154 73.4208C71.706 76.1162 70.3826 78.3982 68.0332 79.9434C67.3143 80.412 67.135 80.9535 67.2727 81.7176C67.6373 83.8085 67.9264 85.9064 68.3582 87.9836C69.0567 91.3233 69.8526 94.6465 70.5889 97.9828C70.8603 99.2144 71.0878 100.465 71.362 101.811C72.9244 101.41 74.2638 100.901 75.6498 100.737C78.2041 100.445 77.8817 99.5755 77.2857 97.7871C77.139 97.3436 76.9167 96.907 76.8221 96.4512C76.6247 95.5327 76.3579 94.6052 76.3582 93.6841C76.3239 88.853 77.5156 84.3599 80.2083 80.3019C81.0255 79.0707 81.8111 77.8271 82.5563 76.5567C85.0534 72.2728 85.8448 67.7323 84.2558 62.9659C83.5467 60.8529 82.6721 58.7624 81.5977 56.8195C78.5001 51.2001 74.2127 46.7316 68.2532 44.1427C63.7597 42.1898 59.0646 41.8768 54.2565 42.9215C50.5461 43.7297 47.0977 45.245 43.6562 46.752C35.4482 50.3506 30.3544 56.6436 28.0029 65.2233C27.0924 68.5337 26.6692 71.9293 26.5831 75.3477C26.4593 80.5357 28.3663 84.8622 32.3741 88.2598C35.3346 90.7703 38.7731 92.4229 42.2226 94.1125C44.8595 95.4038 47.4613 96.8124 49.9347 98.4002C52.7801 100.228 54.8181 102.807 55.9923 106.02C56.1535 106.455 56.3881 106.86 56.6419 107.392C58.1557 106.791 59.5967 106.226 60.912 105.704C61.1811 103.464 60.5329 101.688 59.7825 99.9593C58.0257 95.9466 55.7341 92.2488 53.3327 88.599C52.591 87.471 51.8919 86.4761 50.322 86.626C49.884 86.6657 49.4063 86.4349 48.9712 86.2535C44.7749 84.4717 41.1753 81.8821 38.3236 78.3036C37.542 77.3238 37.044 76.1965 36.9881 74.9074C36.9213 73.1625 37.6273 72.2992 39.3558 71.9674C41.0321 71.6481 42.4975 72.1928 43.8893 73.0183C47.0429 74.8871 49.3911 77.6129 51.6836 80.397C52.2744 81.12 52.822 81.8698 53.434 82.6593C54.9018 82.0543 55.7601 81.025 56.3214 79.4896ZM59.832 81.3488C59.1435 83.4971 57.7777 85.0597 55.8657 86.1389C56.2321 86.7376 56.4811 87.1337 56.7226 87.5305C59.9597 92.7566 63.5091 97.8173 64.8897 104.064C66.4721 103.464 67.9817 102.901 69.5346 102.311C67.3394 95.3919 65.1537 88.6622 63.9738 81.6891C62.509 81.5706 61.2817 81.4687 59.832 81.3488ZM81.0931 103.426C79.8166 102.362 78.6848 102.053 77.4428 102.63C75.0462 103.738 72.6502 104.853 70.2906 106.034C67.2465 107.558 64.2772 109.236 61.205 110.702C59.4825 111.52 57.6269 112.046 55.4974 112.825C55.4417 112.967 55.2213 113.474 54.9904 114.036C57.5876 115.14 60.1433 114.779 62.5658 114.21C69.0963 112.682 74.8166 109.522 79.7575 104.986C80.2148 104.571 80.5705 104.044 81.0931 103.426ZM78.4095 111.198C72.9751 115.665 66.9303 118.184 60.2162 118.945C59.9029 122.041 61.0688 123.062 63.8519 122.269C63.9631 122.237 64.0722 122.181 64.1745 122.134C67.7149 120.541 71.2745 118.993 74.7786 117.336C77.2027 116.195 78.1266 114.041 78.4095 111.198ZM64.547 125.488C64.6336 127.117 64.7249 127.283 66.0827 127.145C67.6512 126.98 69.2088 126.694 70.7561 126.379C74.2613 125.658 76.6685 123.407 78.5708 120.54C79.0131 119.876 79.3785 119.119 78.9326 118.231C74.5975 121.555 69.5222 123.263 64.547 125.488ZM47.9965 81.5457C45.9708 79.2703 44.191 76.6833 40.8099 75.665C42.0778 77.7274 44.9004 80.06 47.9965 81.5457ZM69.0814 68.0712C67.9477 69.6737 67.2547 73.1166 67.6201 74.7964C68.9894 72.6853 69.1631 70.4009 69.0814 68.0712Z" fill="#4259CC"/>
<path d="M59.7458 2.16699C61.3365 3.67486 61.9572 5.40004 61.6691 7.26086C60.8121 12.8427 59.8309 18.3977 58.8429 23.9609C58.5046 25.8567 57.9457 26.2423 56.286 26.0729C54.9262 25.9373 53.9264 24.7337 54.1562 23.1522C55.0049 17.3961 55.8997 11.6434 56.8871 5.90513C57.169 4.31132 58.0769 2.98815 59.7458 2.16699Z" fill="#4259CC"/>
<path d="M24.7299 5.29391C26.2371 5.88057 26.7421 6.83211 27.1564 7.79187C28.7581 11.5217 30.3598 15.2516 31.8585 19.0212C33.0116 21.9162 34.0177 24.8702 35.0602 27.8057C35.2858 28.4476 35.3941 29.1382 35.5744 29.8679C34.9517 30.1375 34.4938 30.3769 34.0057 30.5353C32.6608 30.9845 31.4858 30.5353 30.957 29.2357C28.7153 23.7367 26.1346 18.3598 25.1403 12.4281C24.8457 10.6886 24.5806 8.93881 24.3985 7.18149C24.3321 6.61654 24.5904 6.02217 24.7299 5.29391Z" fill="#4259CC"/>
<path d="M80.1437 11.3422C80.1344 12.4164 80.2324 13.1613 80.1059 13.8655C79.5462 17.0147 78.6701 20.0326 76.8125 22.7208C75.5736 24.5079 74.5304 26.4372 73.4288 28.3108C72.9872 29.0664 72.4365 29.5427 71.5393 29.7229C69.3714 30.163 68.1199 28.3655 68.7733 26.3346C68.8984 25.9502 69.1243 25.5871 69.3365 25.2405C70.9442 22.5674 72.4291 19.7988 74.2242 17.2609C75.5743 15.3571 77.3307 13.7363 78.9251 12.0083C79.1125 11.8087 79.4249 11.7271 80.1437 11.3422Z" fill="#4259CC"/>
<path d="M24.4903 42.2535C23.7187 42.5594 23.2484 42.9141 22.8043 42.8859C21.1115 42.7728 19.4031 42.6535 17.7441 42.3242C13.6038 41.4965 9.48339 40.5528 5.35203 39.6558C5.01021 39.5802 4.65603 39.5362 4.3252 39.4139C3.16869 39.001 2.52648 38.0467 2.78278 37.1784C3.12153 36.0438 4.15002 35.296 5.29835 35.5345C9.94588 36.4989 14.6126 37.4236 19.2217 38.5514C21.23 39.0393 22.9444 40.2315 24.4903 42.2535Z" fill="#4259CC"/>
</svg>
