<svg width="45" height="45" viewBox="0 0 45 45" fill="none" xmlns="http://www.w3.org/2000/svg">
<path d="M3.08083 26.897C0.239826 26.2851 -0.158314 22.3952 2.49981 21.2204L11.9972 17.0228C13.1859 16.4974 13.9012 15.2663 13.7688 13.9734L12.7116 3.64379C12.4157 0.752719 15.9922 -0.827982 17.9309 1.33701L24.8578 9.07243C25.7249 10.0406 27.1167 10.3405 28.3055 9.81507L37.8028 5.61753C40.461 4.44272 43.0695 7.3557 41.6095 9.86855L36.3933 18.8468C35.7404 19.9706 35.8853 21.387 36.7524 22.3552L43.6793 30.0906C45.618 32.2556 43.6537 35.6366 40.8127 35.0247L30.6619 32.8381C29.3914 32.5645 28.0891 33.14 27.4362 34.2638L22.2199 43.2421C20.76 45.7549 16.9374 44.9315 16.6415 42.0405L15.5843 31.7108C15.452 30.4179 14.5021 29.3573 13.2316 29.0836L3.08083 26.897Z" fill="#DCFA26"/>
</svg>
