<svg width="110" height="86" viewBox="0 0 110 86" fill="none" xmlns="http://www.w3.org/2000/svg">
<path d="M104.603 30.9722C101.089 27.8749 96.551 26.5475 92.0128 26.695C94.0623 21.3854 95.5263 15.3383 94.5015 9.88121C93.4768 3.98163 87.7674 0.884342 82.3508 0.146895C72.2495 -1.03302 62.1482 5.01404 57.7564 14.0109C55.414 10.4711 53.3646 6.63643 50.1439 3.83413C46.1912 0.294384 40.921 -0.738033 35.9436 1.03184C25.6959 4.71908 23.5 16.3707 28.0382 25.2201C22.4752 26.695 17.205 29.2023 12.3739 32.4471C7.10372 36.1343 2.12633 41.149 0.515985 47.6385C-2.55831 60.6176 8.56774 73.1542 21.5969 72.2692C26.2815 71.9742 30.6733 70.0569 33.7476 66.6646C35.2116 71.5318 37.2611 76.2515 40.189 80.0862C43.9952 85.2483 49.9975 86.7232 55.9997 85.6908C66.6865 83.9209 74.7382 74.9241 75.763 64.4523C84.4003 69.0245 95.3799 68.1396 102.7 61.0601C110.312 53.8331 113.533 38.7891 104.603 30.9722ZM103.578 52.3581C98.4542 63.1249 84.4003 66.5171 75.031 58.9952C73.7135 57.9627 71.0783 58.4052 71.2247 60.6176C71.9567 70.6468 65.3689 79.6437 55.5604 81.5611C50.2902 82.446 45.752 80.9711 42.9705 76.2515C40.0426 71.5318 38.1395 66.2222 36.9683 60.9126C36.3828 58.5527 33.3085 58.9952 32.5765 60.9126C30.2342 66.8121 22.9144 68.877 17.205 67.5496C10.7637 66.0747 5.63979 61.0601 4.61502 54.423C3.59026 47.491 7.83573 41.8864 12.9595 37.7567C18.3762 33.332 24.9639 30.5297 31.6981 29.0548C31.8445 29.0548 31.9908 29.0548 32.1372 28.9073H32.2837C32.8693 28.7598 33.3084 28.4649 33.6012 28.0224C33.894 27.8749 34.0404 27.7274 34.3332 27.5799C36.6755 25.9576 34.4796 21.9753 31.9909 23.5977C27.8918 16.5182 30.2341 6.19397 39.3106 4.71908C48.2407 3.24418 51.9006 14.6009 56.7317 20.058C57.9028 21.3854 60.0987 20.648 60.5379 19.0256C63.0266 10.4712 71.5175 4.1291 80.4476 4.42408C84.5466 4.57157 89.6705 6.34144 90.256 11.0611C90.988 16.6657 88.7921 23.0077 86.4498 28.0224C85.5714 29.7923 87.0354 31.7097 88.9385 31.4147C93.7696 30.5297 99.6254 31.5622 102.846 35.6919C106.36 40.264 105.92 47.3435 103.578 52.3581Z" fill="#AAD742"/>
</svg>
