<svg width="153" height="118" viewBox="0 0 153 118" fill="none" xmlns="http://www.w3.org/2000/svg">
<mask id="mask0_217_3106" style="mask-type:luminance" maskUnits="userSpaceOnUse" x="10" y="20" width="127" height="89">
<path d="M136.621 26.802C137.258 29.6243 136.944 33.2161 136.218 36.6939C135.276 41.2812 135.631 45.8988 135.312 50.4887C134.964 56.1264 134.866 61.7652 134.593 67.3783C134.401 71.4697 134.085 75.5605 133.282 79.562C132.798 82.0053 131.421 83.1224 129.001 83.0874C122.638 82.9361 116.299 83.234 109.909 83.8811C101.833 84.7082 93.9909 86.4971 86.3451 89.0103C79.4611 91.3146 72.6142 93.7314 66.1866 97.2977C61.8974 99.6627 57.6703 102.09 53.3191 104.393C51.6935 105.259 49.9063 106.013 48.6771 107.58C47.4977 109.172 45.9781 108.592 44.6083 107.962C39.9518 105.672 36.048 102.387 32.3075 98.8406C26.3425 93.2015 20.6029 87.3637 15.2766 81.1409C14.0599 79.7135 12.8432 78.2862 11.6891 76.7967C10.6593 75.4325 10.5782 73.9226 11.4455 72.3916C12.3379 70.8109 13.8494 70.3556 15.4461 70.4121C20.498 70.6203 25.5623 70.866 30.5886 71.2488C37.3733 71.8011 44.1334 72.2784 50.8662 73.3046C52.2626 73.5101 52.8023 72.7513 53.0072 71.4796C55.2402 59.5742 57.4731 47.6688 59.7436 35.7511C60.458 31.9863 61.1723 28.2215 61.899 24.4942C62.2559 22.6742 63.0605 21.2053 65.0341 20.6397C66.9702 20.0863 68.1895 20.8899 69.4689 22.2551C79.3453 32.3396 89.3219 42.3496 99.2358 52.4217C100.105 53.2987 100.641 53.4132 101.406 52.4557C109.709 41.9605 119.218 32.6057 129.285 23.8146C132.14 21.3812 135.18 22.2921 136.621 26.802Z" fill="white"/>
</mask>
<g mask="url(#mask0_217_3106)">
<path d="M181.715 9.36286C173.727 10.2029 165.748 11.9537 157.768 13.7045C142.67 17.1722 127.929 21.7269 113.46 27.1062C105.626 14.8968 97.7665 2.73725 89.9325 -9.47211C85.7793 -15.7899 82.0123 -21.9438 77.8591 -28.2616C74.3256 -33.5787 70.2551 -38.7608 65.1438 -42.6871C63.9132 -43.7776 61.9529 -43.424 60.7885 -42.4183C58.0462 -40.0219 56.9607 -37.0072 56.0476 -33.4678C54.7824 -29.2312 53.878 -24.781 52.9736 -20.3308C51.0792 -11.8175 49.7341 -3.40172 48.4501 5.3262C46.1609 21.7352 45.7421 38.4015 46.2088 55.109C33.5994 57.1773 21.1747 59.8079 8.99636 63.188C2.50109 65.0323 -3.60811 67.0405 -10.0171 69.1471C-13.2029 70.1943 -16.3399 71.5162 -19.5257 72.5634C-22.4491 73.5243 -26.021 74.4077 -27.9885 76.508C-31.8213 80.135 -29.5472 85.2846 -25.9165 88.2441C-21.5024 91.8182 -15.3092 93.6032 -9.97701 95.422C1.89331 100.075 14.3819 103.072 26.8618 105.157C29.0807 105.591 33.3246 105.109 35.2898 106.54C37.5175 107.884 37.3965 112.949 37.8364 115.171C38.7088 121.363 39.0314 127.777 38.9931 133.978C38.6664 146.502 36.9293 159.158 35.7293 171.679C35.08 177.79 34.7054 183.852 34.6671 190.052C34.5461 195.117 33.6308 202.187 36.0934 207.026C42.3445 218.842 56.3361 199.5 59.6391 194.261C73.482 171.687 84.4 147.417 91.6549 121.983C108.784 139.983 127.869 155.845 148.396 169.779C152.9 172.742 157.778 175.832 163.458 175.169C168.862 174.555 171.825 170.051 171.298 164.909C170.365 152.217 164.319 139.129 158.589 128.014C152.6 116.112 145.287 104.603 139.298 92.701C137.727 89.6877 136.405 86.5507 135.181 83.7135C134.652 82.1019 133.696 80.9626 134.913 79.3583C135.703 78.2262 137.393 77.048 138.483 75.8174C142.754 71.7556 147.198 68.2184 151.904 64.595C161.054 57.4345 170.303 50.5738 178.583 42.5363C182.854 38.4744 186.691 33.974 189.904 29.3463C192.777 25.4533 197.13 19.8697 195.118 14.6338C192.62 9.30854 186.595 8.92161 181.715 9.36286ZM71.8776 -23.9698C70.3847 -24.9741 68.6042 -25.8424 66.7339 -26.0997C66.7339 -26.0997 66.7339 -26.0997 66.4715 -26.0135C66.5527 -27.5352 66.6463 -29.0195 67.0273 -30.6398C68.6403 -28.5121 70.2159 -26.3721 71.8776 -23.9698ZM65.7066 130.471C68.5219 116.547 71.5621 102.549 74.9883 88.7149C75.4282 90.9375 75.5194 92.9839 75.6595 95.3051C72.2318 106.482 69.104 117.56 66.025 128.913C66.1487 129.163 65.7965 129.86 65.7066 130.471ZM56.9791 93.1811C57.4176 92.7463 57.7698 92.0491 57.7986 91.126C57.716 89.9903 57.7074 89.0795 57.8871 87.8576C58.3617 84.753 58.885 81.9231 59.3596 78.8186C58.8914 86.3646 58.0747 93.7346 57.5943 101.243C56.9833 101.153 56.6347 100.977 55.9863 100.9C56.2472 98.156 56.6319 95.6624 56.9791 93.1811ZM108.928 72.5751C108.666 72.6614 108.49 73.01 108.314 73.3586C108.138 73.7072 107.699 74.142 107.609 74.753C107.261 74.5768 107.174 74.3145 106.739 73.876C104.552 68.9887 102.712 64.2776 101.049 59.2178C101.311 59.1316 101.836 58.9591 102.099 58.8728C104.463 63.4115 106.827 67.9502 108.928 72.5751ZM92.6771 56.3633C92.0712 58.0575 92.7611 60.1564 94.3439 60.5497C94.9599 62.4237 95.8383 64.2115 96.5282 66.3103C95.6549 66.3067 94.4817 66.4016 93.7809 66.9227C93.6946 66.6603 93.4323 66.7465 93.346 66.4842C92.9112 66.0457 92.214 65.6935 91.8531 65.4799C91.8842 61.026 91.89 56.622 91.6587 52.2544C91.7901 53.6647 92.2336 55.014 92.6771 56.3633ZM90.4336 82.7658C92.0055 85.7791 93.5035 88.5675 94.7642 91.3924C94.9367 91.9171 95.1092 92.4419 95.294 93.004C93.546 90.3393 91.7605 87.687 90.0001 84.9848C90.2661 84.0252 90.356 83.4143 90.4336 82.7658ZM120.38 93.8947C119.156 91.0575 118.195 88.1341 117.222 85.1732C117.833 85.2631 118.358 85.0906 118.571 84.7297C119.803 88.4776 120.937 91.9258 121.907 95.76C121.348 95.0715 120.827 94.3706 120.38 93.8947ZM84.0127 75.74C82.7858 73.7761 81.5588 71.8122 80.2944 69.8607C81.7235 65.238 82.9025 60.739 84.4179 56.3787C84.7779 62.7805 84.4772 69.0672 84.0127 75.74ZM81.4945 84.2506C81.9293 84.6891 82.2004 85.5137 82.6352 85.9522C82.2866 85.776 82.0242 85.8623 81.6756 85.6861C81.5771 85.3863 81.4046 84.8616 81.4945 84.2506ZM88.6226 95.197C90.8055 98.3002 92.862 101.777 95.0572 104.918C92.4809 103.397 90.2046 101.778 87.5421 99.9958C87.9232 98.3755 88.2667 96.7675 88.6226 95.197ZM124.442 125.077C117.01 115.102 110.493 104.246 105.587 92.8598C104.45 90.285 103.227 87.4478 102.352 84.7868C103.669 86.1397 105.097 87.7052 106.414 89.0581C110.659 97.4223 115.116 105.675 120.672 113.608C120.758 113.87 121.107 114.047 121.193 114.309C122.161 115.486 123.244 116.002 124.294 115.657C129.14 123.2 134.61 130.871 139.732 138.365C135.231 134.529 130.469 130.779 125.931 126.955C125.398 126.216 124.876 125.515 124.442 125.077ZM131.933 114.641C132.458 114.468 132.72 114.382 133.196 113.935C134.161 115.985 134.863 118.121 135.914 120.434C134.375 118.531 133.16 116.605 131.933 114.641ZM73.8292 1.67675C75.3149 4.42769 76.5382 7.26487 78.0736 10.041C78.2461 10.5657 78.5172 11.3902 78.6896 11.915C81.1376 20.2467 83.598 28.616 86.2221 36.5992C85.0864 36.6818 83.8234 37.3876 83.3812 38.6958C80.3419 46.5056 77.815 54.1055 75.3866 62.0052C75.038 61.8291 75.0381 61.8291 74.6895 61.653C75.2489 56.1533 75.722 50.3914 75.8954 44.7279C76.3621 34.5244 76.7801 24.0462 73.6262 14.4514C73.4008 5.67979 72.6384 -2.95685 71.5022 -11.7198C72.2044 -9.58348 72.558 -7.62325 72.9892 -6.31146C73.4204 -4.99968 73.8639 -3.65041 74.3937 -2.03878C73.4792 -1.15679 73.3118 0.102603 73.8292 1.67675ZM22.4145 88.5954C22.0659 88.4193 21.7173 88.2432 21.1063 88.1533L21.2825 87.8047C21.7173 88.2432 22.0659 88.4193 22.4145 88.5954ZM15.3379 83.2386C14.9857 83.9358 14.5472 84.3706 14.1698 85.1176C11.6798 83.8596 9.18986 82.6016 6.83592 81.6312C9.4071 81.3674 11.9783 81.1037 14.5618 80.8774C14.4596 81.4509 14.8168 82.5378 15.3379 83.2386ZM33.4384 80.8189C33.2586 82.0408 33.1774 83.5626 33.2225 84.7105C32.9565 85.6701 32.7891 86.9295 32.748 87.8151C32.3131 87.3766 31.6159 87.0244 31.1688 86.5484C31.7506 84.6545 32.5326 82.6117 33.4384 80.8189ZM120.696 131.624C127.943 141.036 136.78 149.095 147.826 154.019C148.523 154.371 149.048 154.199 149.61 154.014C150.923 156.24 151.974 158.553 153.111 161.128C143.023 153.812 133.149 146.135 123.664 137.999C117.461 132.646 111.209 127.018 105.444 121.23C104.127 119.877 102.785 118.574 101.555 117.483C108.123 122.177 114.403 126.882 120.696 131.624ZM122.532 65.4456C121.831 65.9667 121.093 66.5001 120.741 67.1973C120.211 65.5857 119.693 64.0115 119.164 62.3999C118.905 61.6128 118.72 61.0506 118.461 60.2636C123.606 56.2053 128.874 52.3971 134.466 48.8149C129.58 53.6602 125.576 59.4199 122.532 65.4456ZM116.096 53.0675L116.01 52.8051C116.535 52.6326 116.973 52.1978 117.798 51.9268C117.097 52.4478 116.572 52.6203 116.096 53.0675ZM64.9996 -8.12887C65.5722 -1.83853 66.1947 4.47698 66.5049 10.8536C66.0664 11.2884 65.9766 11.8993 65.899 12.5478C64.9924 20.5287 64.2619 28.161 63.3178 36.1543C63.4793 21.3583 63.9771 6.70096 64.9996 -8.12887ZM46.8203 64.0444C45.8571 64.6517 44.8565 65.2714 43.807 65.6163C43.8107 64.743 43.6259 64.1808 43.6295 63.3075C43.5433 63.0452 43.4571 62.7828 43.4571 62.7828C44.5927 62.7002 45.942 62.2567 47.0777 62.1741C46.9878 62.7851 46.8979 63.396 46.8203 64.0444ZM53.3015 149.333C54.0024 148.812 54.6544 148.016 54.8219 146.757C55.2088 140.733 55.5834 134.671 56.2327 128.56C56.7972 124.845 57.2256 120.842 57.79 117.126C57.79 117.126 57.8762 117.388 58.1386 117.302C56.3176 126.165 55.4073 135.019 55.7313 144.091C55.995 146.662 57.8366 147.842 59.5344 147.575C56.835 154.65 53.8856 161.849 50.9238 169.011C51.7493 162.551 52.5747 156.092 53.3015 149.333ZM129.712 90.8271C129.015 90.4748 128.404 90.3849 127.579 90.656C126.532 87.4702 125.559 84.5093 124.774 81.2373C125.389 80.4538 126.041 79.6581 126.643 78.8372C126.377 79.7967 126.386 80.7075 126.468 81.8432C127.179 84.8903 128.226 88.0761 129.712 90.8271ZM153.566 43.1181C152.955 43.0282 152.044 43.0369 151.343 43.558C149.117 44.8711 146.989 46.4842 144.849 48.0597C152.515 40.8056 161.325 34.3797 169.86 28.0026C170.824 27.3953 171.213 26.6858 171.205 25.775C171.467 25.6888 171.992 25.5163 172.254 25.4301C172.254 25.4301 173.041 25.1713 173.866 24.9003C173.337 25.9461 173.132 27.2178 173.564 28.5296C166.906 33.4174 160.236 38.2678 153.566 43.1181ZM113.279 34.5162C125.801 29.5281 138.581 25.327 151.445 22.2617C158.026 20.6797 164.308 19.1963 171.074 18.1765C171.599 18.004 172.21 18.0939 172.772 17.9091C171.985 18.1678 170.898 18.5251 170.111 18.7838C161.603 21.5804 153.14 25.525 145.076 29.6709C141.5 31.4276 138.061 33.4718 134.223 35.3147C134.485 35.2285 134.924 34.7936 135.186 34.7074C138.852 32.3397 136.269 26.3779 131.944 28.381C124.744 31.6197 117.557 34.8959 110.357 38.1346C109.306 35.8221 108.169 33.2473 107.118 30.9348C107.639 31.6357 107.91 32.4602 108.345 32.8987C109.785 34.7512 111.491 35.3946 113.279 34.5162ZM85.043 -3.7535C89.4548 3.35133 94.0428 10.1076 98.4295 17.2622C97.1214 16.8201 95.7721 17.2636 94.4192 18.5804C93.9807 19.0153 93.6284 19.7124 93.5134 20.3732C90.2422 14.9699 86.7339 9.60299 83.4627 4.19967C83.0192 2.8504 82.6743 1.80097 82.2308 0.451705C80.5676 -4.60806 79.4291 -9.8403 77.5036 -14.8138C79.9216 -11.248 82.2892 -7.58267 85.043 -3.7535ZM58.1977 -13.5344C58.3739 -13.883 58.4637 -14.494 58.6399 -14.8426C57.992 -6.07459 57.3189 2.74321 56.9334 11.425C56.06 11.4213 54.9731 11.7786 54.2723 12.2997C54.2759 11.4264 54.3535 10.7779 54.3571 9.90462C55.3752 2.13625 56.5816 -5.94324 58.1977 -13.5344ZM28.7112 65.5534C27.6207 66.784 26.9285 68.2158 25.8754 69.4341C25.5268 69.258 25.0021 69.4305 24.7398 69.5167C15.8458 72.1495 6.63203 73.683 -2.70181 74.0932C1.30852 72.775 5.28136 71.4691 9.37793 70.4133C15.848 68.6187 22.4295 67.0368 28.7112 65.5534ZM-19.3513 84.5911C-20.3108 84.3251 -22.7146 83.3294 -23.0595 82.28L-23.4944 81.8415C-23.3182 81.4929 -21.1819 80.7907 -20.6572 80.6182C-17.5577 79.3087 -14.3344 78.2492 -11.2349 76.9396C-10.7101 76.7672 -9.88559 76.4961 -9.36088 76.3236C-9.537 76.6722 -9.537 76.6722 -9.71312 77.0208C-11.0624 77.4644 -12.1981 77.5469 -13.5473 77.9905C-16.8193 78.7753 -17.5512 83.7502 -14.0241 84.6258C-5.68958 87.4926 2.52125 90.1094 11.1182 92.89C14.3916 94.7626 17.8411 96.2866 21.4667 97.462C18.6245 96.9012 15.7946 96.3779 12.8662 95.5547C1.99793 92.9393 -8.91648 89.4254 -19.3513 84.5911ZM51.8734 192.619C50.5291 194.847 49.0863 196.775 47.431 198.814C46.8164 199.597 42.369 204.008 41.2857 203.492C40.2399 202.963 40.9755 197.115 40.8805 195.942C40.7929 193.022 40.829 190.353 41.0037 187.347C41.2145 181.671 41.6877 175.909 42.5095 170.323C43.6283 159.324 45.2718 148.152 45.3936 136.899C45.6044 131.223 45.6016 125.908 44.9392 120.229C44.4979 115.349 44.0978 109.583 42.0823 105.221C41.7374 104.171 40.8554 103.257 40.3343 102.556C40.3343 102.556 40.5967 102.47 40.6829 102.732C41.6425 102.998 43.078 102.817 43.7788 102.296C43.7839 104.08 44.0389 105.74 44.0065 107.537C43.9216 109.932 46.1118 111.289 47.8959 111.283C47.0431 121.323 46.8387 131.44 47.4953 141.524C45.2061 157.933 43.4791 174.157 42.0632 190.57C41.6836 194.847 47.1709 195.369 48.9572 191.834C52.2676 184.848 55.4794 177.563 58.3549 170.139C60.0203 171.669 62.6777 171.667 63.8495 168.915C72.1616 150.235 79.9404 130.817 84.939 110.902C85.5463 111.865 86.0797 112.603 86.6008 113.304C86.1623 113.739 85.9862 114.087 85.8963 114.698C79.8656 136.781 71.255 158.216 60.3681 178.033C57.791 182.701 55.0126 187.767 51.8734 192.619ZM163.282 163.391C163.365 164.527 163.808 165.876 163.542 166.835C159.6 154.842 155.571 142.586 151.367 130.679C153.903 135.742 156.391 140.531 158.415 145.804C160.599 151.565 162.271 157.535 163.282 163.391ZM145.786 59.8785C142.481 62.4597 139.026 65.3398 135.808 68.1834C140.169 63.5106 144.53 58.8377 149.064 54.6896C156.91 48.8711 164.806 43.3272 172.64 37.4711C171.763 38.3408 170.849 39.2228 170.16 39.7813C162.606 47.248 153.972 53.3252 145.786 59.8785ZM181.388 28.0757C181.215 27.5509 180.781 27.1125 180.682 26.8126C180.858 26.464 181.034 26.1154 181.21 25.7668C181.563 25.0696 181.554 24.1589 181.644 23.5479C181.725 22.0262 181.384 20.1034 180.153 19.0129C178.923 17.9223 177.577 17.4925 176.355 17.3127C177.491 17.2302 178.84 16.7866 179.976 16.704C181.674 16.4366 185.733 15.3931 187.349 16.6475C189.315 18.0779 183.257 25.6756 181.388 28.0757Z" fill="#EBD042"/>
</g>
</svg>
