<svg width="149" height="164" viewBox="0 0 149 164" fill="none" xmlns="http://www.w3.org/2000/svg">
<g clip-path="url(#clip0_1_3146)">
<path d="M93.9225 144.412C93.7456 144.483 93.5505 144.497 93.3654 144.45C93.1802 144.404 93.0147 144.3 92.8927 144.153C92.7707 144.006 92.6986 143.824 92.6867 143.634C92.6749 143.443 92.724 143.254 92.8269 143.093L94.0924 141.101L90.5573 145.64C90.4167 145.818 90.2141 145.936 89.9901 145.971C89.7661 146.006 89.5372 145.955 89.3492 145.828C89.1612 145.701 89.028 145.508 88.9761 145.288C88.9243 145.067 88.9577 144.835 89.0696 144.638L94.8646 134.626L84.3841 148.073C84.2393 148.252 84.0312 148.369 83.8028 148.399C83.5744 148.43 83.3431 148.371 83.1566 148.236C82.97 148.101 82.8425 147.899 82.8003 147.672C82.758 147.446 82.8043 147.212 82.9296 147.019L84.7909 144.255L82.6014 147.066C82.4584 147.247 82.2513 147.366 82.0231 147.398C81.7949 147.431 81.5629 147.375 81.375 147.241C81.1871 147.108 81.0576 146.907 81.0133 146.681C80.969 146.454 81.0133 146.22 81.1369 146.025L84.1951 141.291L81.6247 144.585C81.4854 144.76 81.286 144.877 81.0653 144.913C80.8446 144.949 80.6185 144.901 80.4309 144.779C80.2434 144.658 80.1079 144.47 80.0509 144.254C79.994 144.038 80.0196 143.808 80.1227 143.61L84.1783 135.992L80.7488 140.39C80.6187 140.555 80.4347 140.67 80.2289 140.713C80.0231 140.757 79.8084 140.727 79.6223 140.629C79.4361 140.531 79.2903 140.371 79.2101 140.176C79.1299 139.982 79.1205 139.765 79.1834 139.565L81.1854 133.317C81.0163 133.302 80.8554 133.237 80.7222 133.132C80.5345 132.986 80.4126 132.771 80.383 132.535C80.3535 132.299 80.4188 132.06 80.5646 131.872L82.508 129.378C82.6383 129.212 82.8224 129.098 83.0284 129.054C83.2344 129.011 83.4491 129.041 83.6352 129.139C83.8213 129.238 83.967 129.398 84.0468 129.593C84.1267 129.788 84.1358 130.005 84.0724 130.205L82.4404 135.278L89.1373 126.686C89.2766 126.511 89.476 126.394 89.6967 126.358C89.9173 126.322 90.1435 126.37 90.331 126.492C90.5186 126.614 90.6541 126.801 90.711 127.017C90.768 127.233 90.7424 127.463 90.6393 127.661L86.5904 135.286L95.2082 124.231C95.3513 124.05 95.5583 123.931 95.7865 123.898C96.0147 123.866 96.2467 123.922 96.4346 124.056C96.6225 124.189 96.752 124.39 96.7963 124.616C96.8406 124.842 96.7963 125.077 96.6727 125.271L93.6196 130.004L99.4361 122.54C99.5794 122.355 99.7887 122.234 100.02 122.201C100.251 122.168 100.486 122.226 100.675 122.364C100.864 122.501 100.992 122.706 101.033 122.936C101.073 123.166 101.022 123.403 100.891 123.596L99.0181 126.369L101.472 123.223C101.613 123.045 101.815 122.927 102.039 122.892C102.263 122.857 102.492 122.908 102.68 123.035C102.868 123.161 103.001 123.354 103.053 123.575C103.105 123.796 103.072 124.028 102.96 124.225L97.1686 134.237L104.498 124.846C104.641 124.663 104.848 124.543 105.076 124.509C105.305 124.475 105.538 124.531 105.727 124.665C105.916 124.798 106.046 124.999 106.09 125.226C106.135 125.453 106.09 125.689 105.965 125.883L104.696 127.87L106.103 126.074C106.245 125.897 106.448 125.781 106.673 125.748C106.897 125.714 107.125 125.767 107.312 125.895C107.499 126.023 107.631 126.217 107.682 126.438C107.732 126.659 107.697 126.891 107.583 127.087L105.819 130.052L107.676 127.671C107.812 127.501 108.004 127.386 108.217 127.347C108.431 127.308 108.651 127.347 108.838 127.458C109.025 127.568 109.165 127.743 109.233 127.949C109.302 128.155 109.293 128.379 109.209 128.579L107.094 133.498L109.539 130.359C109.657 130.209 109.821 130.1 110.005 130.049C110.189 129.998 110.385 130.007 110.564 130.074C110.743 130.142 110.896 130.265 111 130.426C111.105 130.586 111.155 130.776 111.144 130.967L110.959 134.148L111.112 133.952C111.182 133.853 111.272 133.77 111.376 133.706C111.479 133.643 111.594 133.601 111.715 133.584C111.835 133.566 111.957 133.573 112.074 133.604C112.191 133.635 112.301 133.69 112.397 133.764C112.493 133.839 112.572 133.932 112.631 134.038C112.69 134.144 112.727 134.261 112.739 134.382C112.752 134.502 112.74 134.624 112.704 134.74C112.668 134.856 112.609 134.964 112.53 135.056L110.596 137.516C110.478 137.666 110.315 137.774 110.131 137.825C109.947 137.876 109.751 137.868 109.572 137.8C109.394 137.733 109.241 137.61 109.137 137.45C109.032 137.29 108.981 137.101 108.992 136.91L109.177 133.729L104.206 140.107C104.07 140.276 103.878 140.391 103.665 140.43C103.451 140.47 103.231 140.43 103.044 140.32C102.857 140.209 102.717 140.035 102.648 139.828C102.58 139.622 102.589 139.399 102.673 139.198L104.788 134.279L98.4151 142.454C98.274 142.633 98.0702 142.752 97.8449 142.786C97.6197 142.821 97.3898 142.768 97.2016 142.64C97.0135 142.511 96.8811 142.316 96.8313 142.094C96.7814 141.871 96.8178 141.638 96.9331 141.442L98.6955 138.477L94.292 144.126C94.1966 144.252 94.069 144.351 93.9225 144.412Z" fill="#4259CC"/>
<path d="M93.9126 132.758C93.7441 132.827 93.5589 132.842 93.3814 132.803C93.2039 132.764 93.0424 132.672 92.9182 132.539C92.794 132.407 92.7129 132.239 92.6856 132.06C92.6583 131.88 92.686 131.696 92.7652 131.533L95.1993 126.523L89.8909 133.335C89.749 133.512 89.5452 133.63 89.3204 133.663C89.0956 133.696 88.8665 133.644 88.6791 133.515C88.4917 133.386 88.36 133.192 88.3103 132.97C88.2607 132.748 88.2968 132.516 88.4115 132.319L89.5114 130.484L87.5367 133.016C87.3985 133.199 87.1956 133.322 86.9695 133.36C86.7434 133.399 86.5112 133.349 86.3204 133.222C86.1295 133.095 85.9944 132.9 85.9427 132.676C85.891 132.453 85.9265 132.218 86.0421 132.02L87.5954 129.272L85.3019 132.206C85.1691 132.375 84.9801 132.491 84.7691 132.533C84.5582 132.575 84.3392 132.539 84.1519 132.434C83.9646 132.328 83.8214 132.158 83.7483 131.956C83.6752 131.754 83.677 131.532 83.7534 131.331L85.9119 125.7L82.4453 130.149C82.3433 130.28 82.2071 130.38 82.0519 130.438C81.8967 130.496 81.7284 130.51 81.5656 130.479C81.4029 130.447 81.252 130.372 81.1295 130.26C81.0071 130.148 80.918 130.005 80.872 129.845L80.1459 127.337C79.9885 127.437 79.8039 127.487 79.6172 127.479C79.4306 127.471 79.2509 127.405 79.1027 127.292C78.9146 127.145 78.7923 126.93 78.763 126.693C78.7336 126.456 78.7995 126.217 78.9461 126.029L79.8245 124.897C79.926 124.765 80.0618 124.665 80.2168 124.606C80.3718 124.548 80.5401 124.533 80.7029 124.564C80.866 124.595 81.0171 124.671 81.1396 124.783C81.2621 124.895 81.3513 125.039 81.3971 125.199L82.1092 127.649L88.2023 119.828C88.3347 119.658 88.5239 119.541 88.7354 119.498C88.9469 119.456 89.1666 119.491 89.3545 119.597C89.5425 119.703 89.686 119.873 89.7591 120.076C89.8322 120.279 89.8299 120.501 89.7526 120.702L87.593 126.336L93.6278 118.592C93.766 118.409 93.9689 118.285 94.195 118.247C94.4211 118.209 94.6533 118.258 94.8442 118.385C95.035 118.512 95.1701 118.708 95.2218 118.931C95.2736 119.154 95.238 119.389 95.1224 119.587L93.5705 122.338L97.1072 117.798C97.2483 117.618 97.4525 117.499 97.6783 117.464C97.9042 117.43 98.1348 117.482 98.3233 117.611C98.5118 117.741 98.6441 117.937 98.6933 118.16C98.7426 118.383 98.705 118.616 98.5883 118.813L97.492 120.643L99.0243 118.677C99.1626 118.509 99.3572 118.396 99.5721 118.361C99.787 118.325 100.007 118.369 100.193 118.483C100.378 118.598 100.515 118.776 100.579 118.984C100.643 119.192 100.629 119.416 100.54 119.615L98.1063 124.625L99.265 123.139C99.3354 123.041 99.4251 122.957 99.5287 122.894C99.6322 122.831 99.7475 122.789 99.8675 122.772C99.9876 122.754 100.11 122.761 100.227 122.792C100.345 122.823 100.454 122.877 100.55 122.952C100.646 123.026 100.725 123.12 100.784 123.226C100.843 123.332 100.88 123.449 100.892 123.569C100.905 123.69 100.893 123.812 100.857 123.928C100.821 124.044 100.762 124.151 100.683 124.244L94.274 132.472C94.1811 132.598 94.0563 132.697 93.9126 132.758Z" fill="#4259CC"/>
<path d="M73.0628 129.572C72.8831 129.645 72.6847 129.658 72.4971 129.609C72.3095 129.56 72.1427 129.452 72.0217 129.3C71.9007 129.148 71.8319 128.962 71.8255 128.768C71.8192 128.574 71.8756 128.384 71.9864 128.224L84.0859 110.784L68.3016 131.035C68.1556 131.217 67.9444 131.336 67.7127 131.365C67.4809 131.394 67.2468 131.333 67.0598 131.192C66.8729 131.052 66.7477 130.845 66.711 130.614C66.6742 130.384 66.7286 130.148 66.8627 129.956L71.8268 123.1L65.9501 130.631C65.8025 130.81 65.5914 130.926 65.3608 130.953C65.1303 130.98 64.8981 130.917 64.7129 130.777C64.5278 130.637 64.4039 130.43 64.3673 130.201C64.3307 129.972 64.3842 129.737 64.5165 129.547L64.6845 129.319L64.4274 129.643C64.2809 129.821 64.0717 129.936 63.8429 129.964C63.6141 129.993 63.3832 129.932 63.1978 129.795C63.0124 129.658 62.8868 129.455 62.8468 129.228C62.8068 129.001 62.8555 128.767 62.9828 128.575L78.5163 106.474L62.7094 126.766C62.5622 126.944 62.3517 127.059 62.1218 127.087C61.8919 127.114 61.6603 127.052 61.4751 126.913C61.2899 126.774 61.1655 126.569 61.1277 126.34C61.0899 126.112 61.1417 125.878 61.2722 125.686L69.4733 114.336L61.709 124.298C61.5636 124.479 61.3538 124.597 61.1234 124.627C60.893 124.657 60.66 124.597 60.4731 124.459C60.2862 124.321 60.1599 124.116 60.1207 123.887C60.0815 123.658 60.1324 123.423 60.2628 123.23L77.4571 98.6047L60.2442 120.685C60.1013 120.876 59.8883 121.002 59.6522 121.037C59.416 121.071 59.1761 121.009 58.985 120.866C58.794 120.724 58.6675 120.511 58.6335 120.274C58.5995 120.038 58.6607 119.798 58.8036 119.607L69.7482 104.341L59.1396 117.961C58.9928 118.139 58.7829 118.254 58.5536 118.282C58.3243 118.31 58.093 118.248 57.9078 118.11C57.7226 117.972 57.5975 117.768 57.5586 117.54C57.5197 117.313 57.5699 117.079 57.6987 116.887L70.852 98.392L57.9276 114.971C57.7799 115.147 57.5706 115.259 57.3426 115.286C57.1146 115.312 56.8852 115.25 56.7013 115.113C56.5173 114.976 56.3929 114.773 56.3533 114.547C56.3137 114.321 56.362 114.089 56.4884 113.897L68.7899 96.6577L56.7602 112.092C56.6145 112.274 56.404 112.392 56.173 112.421C55.942 112.451 55.7085 112.39 55.5216 112.251C55.3347 112.112 55.209 111.906 55.171 111.676C55.133 111.446 55.1855 111.211 55.3176 111.019L69.851 90.4695L55.4732 108.917C55.3256 109.095 55.1158 109.208 54.8869 109.235C54.658 109.262 54.4276 109.2 54.2431 109.062C54.0586 108.924 53.9341 108.72 53.8954 108.493C53.8567 108.266 53.9066 108.032 54.0349 107.841L64.1151 93.8085L54.4004 106.272C54.2533 106.448 54.044 106.562 53.8156 106.589C53.5873 106.617 53.3571 106.555 53.1725 106.418C52.9879 106.281 52.8628 106.078 52.823 105.852C52.7832 105.625 52.8317 105.392 52.9585 105.2L66.9506 85.4177L53.1323 103.144C52.9865 103.323 52.7773 103.44 52.548 103.469C52.3187 103.498 52.087 103.438 51.9008 103.301C51.7147 103.164 51.5884 102.961 51.5482 102.733C51.5081 102.505 51.5571 102.271 51.6851 102.078L68.5604 77.753L51.6397 99.4624C51.4929 99.6408 51.283 99.7557 51.0537 99.7836C50.8244 99.8114 50.5932 99.7499 50.4079 99.6119C50.2227 99.4738 50.0976 99.2698 50.0587 99.0421C50.0198 98.8144 50.07 98.5805 50.1988 98.3888L61.5906 82.3532L50.4795 96.6054C50.3319 96.7825 50.1221 96.8961 49.8932 96.923C49.6643 96.9498 49.4338 96.8878 49.2494 96.7496C49.0649 96.6115 48.9404 96.4079 48.9017 96.1807C48.863 95.9535 48.9129 95.7202 49.0412 95.5287L56.0664 85.7596L49.4996 94.1839C49.3517 94.3613 49.1412 94.475 48.9118 94.5014C48.6823 94.5279 48.4515 94.4651 48.2671 94.326C48.0827 94.1869 47.9588 93.9822 47.9212 93.7543C47.8836 93.5264 47.9351 93.2928 48.065 93.1018L49.4785 91.1582L48.6851 92.1748C48.5391 92.3528 48.3304 92.4679 48.1021 92.4967C47.8737 92.5254 47.643 92.4655 47.4575 92.3293C47.272 92.1931 47.1457 91.991 47.1046 91.7646C47.0636 91.5381 47.1109 91.3045 47.2369 91.1119L60.7156 71.6482L47.3271 88.8253C47.1806 89.0054 46.9701 89.1219 46.7397 89.1505C46.5092 89.179 46.2767 89.1173 46.0907 88.9783C45.9047 88.8393 45.7797 88.6338 45.7418 88.4047C45.7038 88.1757 45.7559 87.9408 45.8871 87.7493L50.7845 80.9104L46.4003 86.5395C46.2532 86.7163 46.0439 86.83 45.8155 86.8573C45.5872 86.8846 45.357 86.8233 45.1724 86.6861C44.9878 86.549 44.8627 86.3463 44.8229 86.1198C44.7831 85.8932 44.8316 85.6601 44.9584 85.4682L52.1125 75.342L45.3701 83.9986C45.2251 84.183 45.0138 84.3035 44.7812 84.3343C44.5486 84.3651 44.3132 84.3038 44.1252 84.1636C43.9372 84.0233 43.8113 83.8151 43.7746 83.5834C43.7379 83.3517 43.7931 83.1148 43.9285 82.9232L48.3876 76.6503L44.4434 81.7128C44.2996 81.8951 44.091 82.0148 43.861 82.0468C43.6311 82.0788 43.3976 82.0207 43.2096 81.8846C43.0215 81.7485 42.8933 81.5449 42.8519 81.3165C42.8104 81.088 42.8589 80.8524 42.9872 80.6589L54.0774 64.1573L43.1888 78.1252C43.044 78.3088 42.8334 78.4287 42.6017 78.4596C42.37 78.4905 42.1353 78.43 41.9474 78.2909C41.7595 78.1518 41.6332 77.9451 41.5951 77.7144C41.5571 77.4837 41.6103 77.2473 41.7436 77.0553L44.2532 73.4868L42.6014 75.6087C42.4553 75.7884 42.2454 75.9048 42.0156 75.9336C41.7858 75.9625 41.5537 75.9016 41.3677 75.7636C41.1816 75.6256 41.056 75.4212 41.0169 75.1929C40.9778 74.9646 41.0283 74.73 41.1578 74.538L42.171 73.0964C42.0097 73.243 41.8006 73.326 41.5826 73.33C41.3647 73.3341 41.1527 73.2588 40.986 73.1182C40.8194 72.9776 40.7095 72.7813 40.6767 72.5658C40.644 72.3503 40.6906 72.1302 40.8079 71.9465L48.0673 60.5236L42.3825 67.8195C42.2447 67.9969 42.0454 68.1163 41.8239 68.1542C41.6024 68.1921 41.3747 68.1457 41.1857 68.0242C40.9967 67.9027 40.86 67.7148 40.8026 67.4975C40.7451 67.2803 40.7711 67.0494 40.8753 66.8504L45.2141 58.5043C45.055 58.6713 44.8378 58.7707 44.6075 58.7821C44.3771 58.7936 44.1512 58.7161 43.9764 58.5657C43.8015 58.4153 43.6911 58.2035 43.6679 57.9741C43.6448 57.7446 43.7106 57.515 43.8519 57.3327L49.8245 49.6696C49.963 49.4944 50.1617 49.3769 50.382 49.3401C50.6023 49.3033 50.8284 49.3497 51.0164 49.4704C51.2043 49.5911 51.3406 49.7774 51.3988 49.993C51.457 50.2087 51.4329 50.4383 51.3311 50.6371L47.0026 58.9654L58.1688 44.6383C58.3114 44.4574 58.5179 44.338 58.7458 44.3048C58.9737 44.2716 59.2057 44.3271 59.3939 44.4599C59.5821 44.5926 59.7123 44.7925 59.7575 45.0184C59.8027 45.2442 59.7596 45.4788 59.637 45.6738L52.3783 57.0984L63.156 43.2686C63.3008 43.0851 63.5114 42.9652 63.7431 42.9343C63.9748 42.9034 64.2095 42.9639 64.3974 43.103C64.5852 43.2421 64.7116 43.4488 64.7496 43.6795C64.7877 43.9101 64.7345 44.1466 64.6012 44.3386L63.737 45.5588L65.7664 42.9558C65.9085 42.764 66.121 42.6366 66.357 42.6015C66.5931 42.5664 66.8334 42.6265 67.0252 42.7686C67.2169 42.9107 67.3444 43.1232 67.3794 43.3593C67.4145 43.5953 67.3544 43.8357 67.2123 44.0274L64.6947 47.6049L68.3739 42.8848C68.5177 42.7024 68.7263 42.5827 68.9563 42.5507C69.1862 42.5187 69.4196 42.5768 69.6077 42.713C69.7958 42.8491 69.924 43.0526 69.9654 43.2811C70.0069 43.5095 69.9584 43.7451 69.8301 43.9387L58.7432 60.4389L72.1381 43.2533C72.2838 43.0716 72.4943 42.9535 72.7253 42.9239C72.9563 42.8942 73.1898 42.9553 73.3767 43.0943C73.5636 43.2333 73.6893 43.4394 73.7273 43.6692C73.7654 43.899 73.7128 44.1345 73.5807 44.3264L69.1199 50.6L74.4606 43.7483C74.6078 43.5715 74.817 43.4578 75.0454 43.4305C75.2738 43.4032 75.5039 43.4645 75.6885 43.6017C75.8732 43.7388 75.9982 43.9415 76.038 44.168C76.0778 44.3946 76.0293 44.6277 75.9025 44.8196L68.7597 54.9257L76.8909 44.4946C77.0338 44.3036 77.2468 44.1771 77.4829 44.1431C77.7191 44.1091 77.959 44.1703 78.1501 44.3132C78.3411 44.4561 78.4675 44.669 78.5016 44.9052C78.5356 45.1413 78.4744 45.3813 78.3315 45.5723L73.4174 52.418L78.9362 45.3446C79.0822 45.1667 79.2908 45.0516 79.5192 45.0228C79.7475 44.9941 79.9782 45.054 80.1637 45.1902C80.3493 45.3264 80.4756 45.5285 80.5166 45.7549C80.5576 45.9814 80.5103 46.215 80.3844 46.4076L66.9049 65.8696L81.7414 46.8339C81.885 46.6433 82.0985 46.5177 82.3348 46.4845C82.5711 46.4513 82.8109 46.5133 83.0014 46.657C83.192 46.8006 83.3177 47.014 83.3508 47.2503C83.384 47.4866 83.322 47.7264 83.1784 47.917L81.75 49.8764L83.3135 47.8719C83.4564 47.6809 83.6693 47.5544 83.9055 47.5204C84.1416 47.4864 84.3816 47.5475 84.5726 47.6904C84.7636 47.8334 84.8901 48.0463 84.9241 48.2824C84.9581 48.5186 84.897 48.7586 84.7541 48.9496L77.7435 58.6972L85.0979 49.2567C85.243 49.0723 85.4543 48.9518 85.6869 48.921C85.9194 48.8902 86.1548 48.9515 86.3429 49.0917C86.5309 49.232 86.6567 49.4402 86.6935 49.6719C86.7302 49.9036 86.675 50.1405 86.5395 50.332L75.1495 66.3766L87.0629 51.0866C87.2086 50.9072 87.4179 50.7908 87.6472 50.7615C87.8764 50.7322 88.1082 50.7923 88.2944 50.9294C88.4805 51.0664 88.6068 51.2698 88.647 51.4975C88.6871 51.7251 88.6381 51.9595 88.5101 52.1519L71.6374 76.4647L89.3328 53.7597C89.4766 53.5727 89.6882 53.4496 89.9219 53.4171C90.1556 53.3846 90.3927 53.4452 90.5822 53.5858C90.7716 53.7265 90.8982 53.9359 90.9346 54.169C90.9711 54.4021 90.9145 54.6403 90.7771 54.832L76.795 74.6105L91.0313 56.3402C91.1779 56.1601 91.3883 56.0436 91.6188 56.0151C91.8492 55.9866 92.0817 56.0483 92.2677 56.1873C92.4537 56.3263 92.5787 56.5318 92.6167 56.7608C92.6546 56.9899 92.6025 57.2247 92.4713 57.4163L82.3676 71.4814L92.2625 58.788C92.4087 58.6083 92.6185 58.4919 92.8483 58.463C93.0782 58.4342 93.3103 58.4951 93.4963 58.6331C93.6823 58.771 93.808 58.9755 93.8471 59.2038C93.8861 59.4321 93.8357 59.6667 93.7061 59.8587L79.1846 80.3896L93.5742 61.9273C93.7207 61.7471 93.9311 61.6306 94.1615 61.6021C94.392 61.5736 94.6245 61.6353 94.8105 61.7743C94.9965 61.9133 95.1215 62.1188 95.1594 62.3479C95.1974 62.5769 95.1453 62.8118 95.0141 63.0033L82.7119 80.2408L94.7389 64.8096C94.8858 64.6313 95.0956 64.5164 95.3249 64.4885C95.5542 64.4607 95.7855 64.5222 95.9707 64.6602C96.156 64.7982 96.281 65.0023 96.3199 65.23C96.3588 65.4577 96.3087 65.6916 96.1798 65.8833L83.0279 84.372L95.9522 67.7927C96.0987 67.6126 96.3092 67.4961 96.5396 67.4676C96.77 67.4391 97.0026 67.5007 97.1885 67.6397C97.3745 67.7787 97.4996 67.9842 97.5375 68.2133C97.5755 68.4423 97.5234 68.6772 97.3921 68.8687L86.4475 84.1348L97.0561 70.5153C97.2014 70.3341 97.4113 70.2162 97.6417 70.1862C97.8721 70.1562 98.1051 70.2165 98.292 70.3545C98.4789 70.4925 98.6052 70.6974 98.6444 70.9264C98.6836 71.1554 98.6327 71.3907 98.5023 71.583L81.3086 96.2103L98.5229 74.1333C98.668 73.9474 98.8802 73.8259 99.1139 73.7949C99.3476 73.7639 99.5841 73.8259 99.7726 73.9675C99.9611 74.1092 100.086 74.3192 100.122 74.5523C100.157 74.7854 100.099 75.023 99.9609 75.214L91.7598 86.5645L99.524 76.6025C99.6705 76.4244 99.8797 76.3094 100.109 76.2812C100.337 76.2529 100.568 76.3136 100.754 76.4507C100.939 76.5878 101.065 76.7908 101.105 77.0178C101.145 77.2449 101.096 77.4786 100.969 77.6708L85.4252 99.7848L100.876 79.9564C101.024 79.7771 101.235 79.6619 101.465 79.6347C101.696 79.6076 101.928 79.6706 102.113 79.8107C102.298 79.9507 102.422 80.157 102.459 80.3862C102.495 80.6155 102.442 80.85 102.31 81.0408L101.786 81.7559C101.954 81.6107 102.169 81.5325 102.39 81.5361C102.612 81.5398 102.824 81.625 102.987 81.7756C103.149 81.9262 103.251 82.1314 103.271 82.3521C103.292 82.5727 103.23 82.7931 103.098 82.9711L98.1324 89.8378L102.573 84.1429C102.719 83.9635 102.928 83.847 103.158 83.8178C103.387 83.7885 103.619 83.8486 103.805 83.9856C103.991 84.1226 104.117 84.3261 104.157 84.5537C104.198 84.7813 104.149 85.0157 104.021 85.2082L91.9202 102.651L103.864 87.3257C104.009 87.1478 104.218 87.0324 104.445 87.0032C104.673 86.9739 104.904 87.033 105.09 87.1683C105.275 87.3036 105.402 87.5049 105.444 87.7308C105.486 87.9568 105.44 88.1902 105.316 88.3833L94.6251 104.113L105.18 90.5718C105.324 90.3848 105.535 90.2618 105.769 90.2292C106.003 90.1967 106.24 90.2573 106.429 90.398C106.619 90.5386 106.745 90.7481 106.782 90.9812C106.818 91.2143 106.762 91.4524 106.624 91.6442L104.436 94.7464L106.038 92.6893C106.182 92.5036 106.393 92.3815 106.626 92.3491C106.858 92.3167 107.094 92.3765 107.283 92.5158C107.472 92.6552 107.599 92.8629 107.637 93.0947C107.675 93.3265 107.621 93.5639 107.486 93.7562L105.009 97.3272L106.925 94.871C107.07 94.6901 107.279 94.5722 107.509 94.5418C107.739 94.5114 107.972 94.571 108.159 94.708C108.346 94.845 108.472 95.0489 108.513 95.2772C108.553 95.5055 108.504 95.7405 108.375 95.9333L107.276 97.532L107.757 96.9178C107.898 96.7335 108.104 96.6107 108.333 96.5751C108.562 96.5394 108.797 96.5937 108.987 96.7265C109.177 96.8594 109.308 97.0605 109.354 97.2879C109.399 97.5154 109.355 97.7516 109.23 97.9472L104.372 105.716L108.947 99.8441C109.085 99.6676 109.284 99.5489 109.504 99.5111C109.725 99.4733 109.952 99.5192 110.14 99.6398C110.329 99.7603 110.466 99.9469 110.524 100.163C110.583 100.379 110.559 100.609 110.456 100.809L106.159 109.161L110.478 103.62C110.612 103.45 110.804 103.334 111.017 103.294C111.23 103.253 111.451 103.291 111.638 103.401C111.825 103.51 111.967 103.683 112.036 103.889C112.106 104.094 112.099 104.318 112.017 104.519L110.093 109.125L111.785 106.954C111.855 106.855 111.945 106.772 112.049 106.708C112.152 106.645 112.267 106.603 112.387 106.586C112.508 106.568 112.63 106.575 112.747 106.606C112.864 106.637 112.974 106.692 113.07 106.766C113.166 106.841 113.245 106.934 113.304 107.04C113.363 107.146 113.4 107.263 113.412 107.384C113.425 107.504 113.413 107.626 113.377 107.742C113.341 107.858 113.282 107.966 113.203 108.058L107.383 115.522C107.249 115.693 107.057 115.81 106.844 115.852C106.63 115.893 106.409 115.855 106.221 115.746C106.033 115.636 105.891 115.462 105.821 115.256C105.752 115.05 105.759 114.825 105.842 114.624L107.765 110.02L101.674 117.836C101.536 118.011 101.338 118.127 101.118 118.164C100.898 118.201 100.673 118.155 100.485 118.035C100.298 117.916 100.161 117.73 100.102 117.516C100.043 117.301 100.066 117.072 100.165 116.873L104.467 108.521L95.1334 120.488C94.9926 120.672 94.786 120.795 94.5568 120.831C94.3276 120.866 94.0936 120.812 93.9034 120.679C93.7133 120.546 93.5818 120.345 93.5365 120.118C93.4911 119.89 93.5353 119.654 93.6599 119.459L98.5189 111.682L90.0482 122.55C89.902 122.726 89.6939 122.84 89.4664 122.869C89.2389 122.897 89.0091 122.837 88.8241 122.702C88.6391 122.567 88.5128 122.366 88.471 122.14C88.4291 121.915 88.4749 121.682 88.599 121.489L89.698 119.89L86.5053 123.986C86.3596 124.166 86.1503 124.282 85.9211 124.311C85.6918 124.341 85.46 124.28 85.2738 124.143C85.0877 124.006 84.9614 123.803 84.9212 123.575C84.8811 123.348 84.9301 123.113 85.0581 122.921L87.5356 119.35L82.7256 125.519C82.5808 125.702 82.3702 125.822 82.1385 125.853C81.9068 125.884 81.6721 125.823 81.4842 125.684C81.2964 125.545 81.17 125.338 81.132 125.108C81.0939 124.877 81.1471 124.641 81.2804 124.449L83.4658 121.349L79.056 127.006C78.9104 127.184 78.7023 127.3 78.4744 127.329C78.2465 127.358 78.016 127.299 77.8302 127.164C77.6445 127.028 77.5175 126.827 77.4755 126.601C77.4335 126.375 77.4795 126.142 77.6041 125.949L88.2957 110.217L73.4323 129.286C73.3365 129.413 73.209 129.511 73.0628 129.572Z" fill="#BFDBF0"/>
<path d="M46.8292 78.1349C46.659 78.2038 46.4718 78.219 46.2927 78.1785C46.1136 78.1379 45.9512 78.0435 45.8274 77.9079C45.7035 77.7724 45.6241 77.6021 45.5998 77.4201C45.5755 77.2381 45.6075 77.053 45.6915 76.8897L46.3272 75.6516L43.5323 79.2347C43.4001 79.4036 43.212 79.5198 43.0018 79.5622C42.7916 79.6047 42.5731 79.5706 42.3858 79.4662C42.1985 79.3618 42.0546 79.1939 41.9802 78.9928C41.9057 78.7917 41.9056 78.5706 41.9797 78.3694L43.2718 74.9005L42.6428 75.7049C42.5225 75.8602 42.3547 75.9718 42.1651 76.0228C41.9754 76.0737 41.7743 76.0612 41.5924 75.9871C41.4092 75.9137 41.2553 75.7821 41.1543 75.6126C41.0533 75.4431 41.0108 75.245 41.0334 75.049L41.2459 73.1263C41.1624 73.094 41.0838 73.05 41.0125 72.9958C40.9193 72.9231 40.8414 72.8327 40.7832 72.7298C40.725 72.627 40.6877 72.5136 40.6733 72.3963C40.6589 72.279 40.6678 72.16 40.6994 72.0462C40.731 71.9323 40.7848 71.8258 40.8576 71.7327L41.6446 70.7244C41.7635 70.5674 41.9313 70.4545 42.1215 70.4034C42.3117 70.3523 42.5134 70.366 42.695 70.4422C42.8782 70.5156 43.0321 70.6472 43.1332 70.8168C43.2342 70.9863 43.2766 71.1843 43.254 71.3804L43.1742 72.098L45.4417 69.1966C45.5738 69.0277 45.762 68.9115 45.9722 68.8691C46.1824 68.8266 46.4008 68.8607 46.5882 68.9651C46.7755 69.0695 46.9193 69.2374 46.9938 69.4385C47.0682 69.6396 47.0684 69.8607 46.9942 70.0619L45.7039 73.5301L50.7686 67.0369C50.907 66.8625 51.1051 66.7456 51.3246 66.7088C51.5442 66.672 51.7696 66.7179 51.9572 66.8377C52.1449 66.9574 52.2815 67.1425 52.3405 67.3572C52.3996 67.5718 52.3771 67.8007 52.2772 67.9996L51.6431 69.2274L54.1564 66.003C54.2942 65.8266 54.4929 65.7078 54.7136 65.6701C54.9342 65.6323 55.1611 65.6781 55.3497 65.7987C55.5384 65.9193 55.6753 66.1059 55.7337 66.322C55.7922 66.5382 55.7679 66.7683 55.6656 66.9675L55.2806 67.7177L56.0912 66.6765C56.2118 66.522 56.3796 66.4111 56.569 66.3607C56.7584 66.3102 56.959 66.323 57.1405 66.3972C57.3219 66.4713 57.4742 66.6026 57.5742 66.7712C57.6741 66.9398 57.7163 67.1364 57.6942 67.3312L57.3569 70.277L57.5076 70.0839C57.6578 69.907 57.8704 69.7949 58.1012 69.7711C58.332 69.7473 58.5631 69.8136 58.7461 69.9561C58.9292 70.0986 59.0501 70.3064 59.0836 70.536C59.1172 70.7655 59.0607 70.9992 58.926 71.1881L56.8069 73.9051C56.6875 74.0617 56.5196 74.1742 56.3293 74.225C56.1391 74.2757 55.9374 74.2619 55.7559 74.1856C55.5732 74.1113 55.4201 73.979 55.32 73.8091C55.2199 73.6393 55.1784 73.4412 55.2019 73.2454L55.5376 70.3003L50.8119 76.361C50.6741 76.5374 50.4754 76.6561 50.2547 76.6939C50.0341 76.7317 49.8072 76.6858 49.6185 76.5653C49.4299 76.4447 49.293 76.2581 49.2345 76.042C49.1761 75.8258 49.2004 75.5957 49.3027 75.3965L49.6868 74.6584L47.1957 77.8562C47.1005 77.98 46.974 78.0762 46.8292 78.1349Z" fill="#9EBBCE"/>
<path d="M52.2421 91.4644C52.0773 91.5315 51.8964 91.5483 51.7221 91.5126C51.5477 91.4768 51.3879 91.3902 51.2629 91.2637C51.1378 91.1371 51.0531 90.9763 51.0194 90.8016C50.9857 90.6269 51.0046 90.4461 51.0736 90.2822L52.3451 87.2701L48.632 92.0312C48.4938 92.2044 48.2966 92.3206 48.0781 92.3574C47.8596 92.3942 47.6352 92.3491 47.4479 92.2307C47.2606 92.1122 47.1236 91.9289 47.0632 91.7157C47.0028 91.5025 47.0232 91.2745 47.1205 91.0754L47.5405 90.2392C47.3415 90.3521 47.1064 90.3834 46.8848 90.3265C46.7151 90.2862 46.5608 90.1975 46.4406 90.0711C46.3204 89.9448 46.2396 89.7862 46.2079 89.6147L45.7292 86.9162C45.5591 86.921 45.3911 86.8775 45.2448 86.7907C45.0984 86.7039 44.9797 86.5773 44.9024 86.4257C44.825 86.2741 44.7923 86.1037 44.808 85.9343C44.8236 85.7648 44.887 85.6033 44.9908 85.4684L45.6298 84.6502C45.7375 84.514 45.8821 84.4115 46.0463 84.3549C46.2105 84.2983 46.3875 84.29 46.5564 84.3309C46.726 84.3711 46.8803 84.4599 47.0005 84.5862C47.1207 84.7126 47.2015 84.8712 47.2332 85.0426L47.6357 87.3139L51.5942 82.234C51.7324 82.0607 51.9296 81.9445 52.1481 81.9077C52.3666 81.8709 52.591 81.916 52.7783 82.0345C52.9656 82.1529 53.1026 82.3363 53.163 82.5495C53.2234 82.7627 53.2031 82.9906 53.1058 83.1897L52.8496 83.6974L55.1031 80.8094C55.2368 80.6362 55.4289 80.5176 55.6437 80.4759C55.8584 80.4341 56.081 80.4721 56.2698 80.5826C56.4586 80.6931 56.6006 80.8686 56.6693 81.0763C56.7381 81.284 56.7288 81.5096 56.6432 81.7109L55.3707 84.7253L59.5633 79.3466C59.7012 79.1771 59.896 79.0635 60.1115 79.0271C60.3269 78.9907 60.5482 79.0339 60.7341 79.1488C60.92 79.2636 61.0577 79.4422 61.1216 79.6511C61.1854 79.8601 61.1711 80.0852 61.0811 80.2843L60.3129 81.8945L61.6745 80.1486C61.8062 79.9785 61.9945 79.8613 62.2052 79.8181C62.4159 79.7749 62.6351 79.8087 62.823 79.9133C63.011 80.0178 63.1553 80.1863 63.2297 80.3881C63.3041 80.5899 63.3038 80.8117 63.2287 81.0132L62.7876 82.1996L62.8756 82.0863C62.946 81.9875 63.0357 81.904 63.1392 81.8408C63.2428 81.7775 63.358 81.7359 63.4781 81.7184C63.5981 81.7009 63.7205 81.7078 63.8378 81.7388C63.9551 81.7698 64.0649 81.8242 64.1606 81.8987C64.2564 81.9732 64.336 82.0663 64.3948 82.1725C64.4536 82.2786 64.4904 82.3955 64.5028 82.5162C64.5153 82.6368 64.5032 82.7588 64.4673 82.8747C64.4314 82.9906 64.3724 83.098 64.2939 83.1905L60.6227 87.9016C60.4905 88.0705 60.3024 88.1866 60.0922 88.2291C59.882 88.2715 59.6635 88.2375 59.4762 88.133C59.2889 88.0286 59.145 87.8607 59.0706 87.6596C58.9961 87.4585 58.996 87.2374 59.0701 87.0362L59.5113 85.8498L56.642 89.5368C56.5047 89.7077 56.3096 89.8225 56.0936 89.8597C55.8776 89.8969 55.6554 89.8539 55.4688 89.7389C55.2822 89.6238 55.144 89.4446 55.0803 89.2348C55.0165 89.0251 55.0316 88.7993 55.1226 88.5998L55.8918 86.9873L52.6163 91.1903C52.5184 91.3135 52.3891 91.4081 52.2421 91.4644Z" fill="#9EBBCE"/>
<path d="M54.5274 106.085C54.3669 106.15 54.1912 106.167 54.0212 106.134C53.8513 106.102 53.6943 106.021 53.5692 105.901C53.4441 105.782 53.3561 105.628 53.3158 105.46C53.2756 105.292 53.2847 105.116 53.3421 104.952L54.6748 101.172L53.1473 103.15C53.0401 103.288 52.8952 103.392 52.73 103.449C52.5649 103.506 52.3867 103.513 52.2173 103.471C52.0476 103.428 51.8942 103.336 51.7757 103.208C51.6572 103.079 51.579 102.918 51.5504 102.745L51.1382 100.259C50.9333 100.263 50.7333 100.196 50.5721 100.069C50.3839 99.9222 50.2617 99.7068 50.2323 99.4701C50.203 99.2333 50.2689 98.9946 50.4155 98.8064L51.0545 97.9883C51.1617 97.8497 51.3071 97.7455 51.4728 97.6884C51.6385 97.6313 51.8172 97.6239 51.9871 97.667C52.1569 97.7101 52.3105 97.8018 52.4289 97.931C52.5473 98.0602 52.6254 98.2211 52.6536 98.3941L52.9909 100.428L56.6638 95.716C56.7955 95.5496 56.9819 95.4351 57.1899 95.3928C57.3979 95.3505 57.6142 95.3831 57.8004 95.4849C57.9867 95.5867 58.131 95.7511 58.2078 95.949C58.2845 96.1469 58.2888 96.3655 58.2199 96.5663L56.8863 100.349L62.2607 93.4371C62.3993 93.2609 62.5987 93.1428 62.8197 93.1059C63.0408 93.069 63.2677 93.116 63.456 93.2376C63.6442 93.3593 63.7803 93.5468 63.8375 93.7635C63.8947 93.9802 63.869 94.2105 63.7653 94.4092L63.3653 95.1655L65.2815 92.7093C65.4075 92.5482 65.5847 92.4348 65.7838 92.3879C65.9829 92.341 66.1921 92.3634 66.3768 92.4513C66.5615 92.5393 66.7107 92.6876 66.7998 92.8717C66.8889 93.0559 66.9126 93.2649 66.8669 93.4643L65.9623 97.405L68.0428 94.7367C68.1132 94.6379 68.2029 94.5544 68.3065 94.4911C68.41 94.4279 68.5253 94.3863 68.6453 94.3688C68.7654 94.3512 68.8877 94.3582 69.005 94.3892C69.1223 94.4201 69.2321 94.4745 69.3279 94.5491C69.4236 94.6236 69.5033 94.7167 69.5621 94.8228C69.6209 94.9289 69.6576 95.0458 69.6701 95.1665C69.6825 95.2872 69.6704 95.4092 69.6345 95.525C69.5986 95.6409 69.5397 95.7484 69.4612 95.8409L64.8813 101.71C64.7552 101.872 64.578 101.985 64.3789 102.032C64.1798 102.079 63.9706 102.056 63.7859 101.968C63.6012 101.88 63.452 101.732 63.3629 101.548C63.2738 101.364 63.2502 101.155 63.2958 100.955L64.2005 97.0147L58.5051 104.323C58.3672 104.501 58.1673 104.621 57.9449 104.659C57.7226 104.698 57.494 104.651 57.3046 104.528C57.1152 104.406 56.9788 104.216 56.9223 103.998C56.8659 103.78 56.8935 103.548 56.9999 103.349L57.4025 102.59L54.8982 105.803C54.8023 105.928 54.6742 106.026 54.5274 106.085Z" fill="#9EBBCE"/>
<path d="M59.953 119.418C59.7982 119.48 59.6289 119.499 59.4642 119.471C59.2995 119.443 59.1459 119.37 59.0205 119.259C58.8951 119.149 58.803 119.006 58.7544 118.846C58.7058 118.686 58.7026 118.516 58.7453 118.354L59.9176 113.996L58.3514 116.004C58.2426 116.143 58.0951 116.247 57.9275 116.303C57.7599 116.359 57.5795 116.364 57.4089 116.318C57.2383 116.272 57.085 116.177 56.9682 116.045C56.8513 115.912 56.7761 115.748 56.7518 115.573L56.4836 113.585C56.3185 113.578 56.1585 113.526 56.0212 113.434C55.8839 113.342 55.7745 113.214 55.7051 113.064C55.6356 112.914 55.6089 112.748 55.6277 112.584C55.6465 112.42 55.7101 112.264 55.8117 112.134L56.4506 111.315C56.5593 111.175 56.707 111.071 56.875 111.014C57.0431 110.958 57.224 110.953 57.3952 110.999C57.5663 111.045 57.72 111.14 57.837 111.274C57.9539 111.407 58.0289 111.572 58.0526 111.747L58.2558 113.206L61.2447 109.374C61.3723 109.21 61.5524 109.096 61.7546 109.05C61.9568 109.004 62.1686 109.03 62.3542 109.122C62.5399 109.214 62.6879 109.368 62.7733 109.557C62.8587 109.746 62.8762 109.958 62.8229 110.159L61.6489 114.508L67.6847 106.77C67.824 106.595 68.024 106.477 68.2455 106.441C68.467 106.405 68.694 106.453 68.8819 106.576C69.0698 106.698 69.205 106.887 69.261 107.104C69.317 107.322 69.2898 107.552 69.1846 107.75L68.9872 108.116L70.6091 106.035C70.7451 105.868 70.9364 105.755 71.1484 105.718C71.3604 105.68 71.5789 105.719 71.7643 105.829C71.9497 105.938 72.0897 106.11 72.1588 106.314C72.2279 106.518 72.2215 106.74 72.1408 106.94L71.1198 109.354L72.8324 107.157C72.9577 106.996 73.1337 106.884 73.3315 106.836C73.5293 106.789 73.7373 106.81 73.9216 106.896C74.1058 106.982 74.2555 107.128 74.3461 107.31C74.4366 107.493 74.4629 107.7 74.4204 107.899L73.993 109.876C74.1739 109.775 74.3842 109.739 74.5883 109.775C74.7924 109.811 74.9778 109.917 75.1131 110.074C75.2484 110.231 75.3254 110.429 75.331 110.637C75.3366 110.844 75.2705 111.047 75.1438 111.211L73.0247 113.928C72.8993 114.087 72.7236 114.199 72.5262 114.246C72.3288 114.293 72.1214 114.272 71.9375 114.187C71.7537 114.101 71.6042 113.955 71.5134 113.774C71.4226 113.592 71.3958 113.386 71.4374 113.187L71.8288 111.37L68.3335 115.855C68.1976 116.022 68.0062 116.135 67.7943 116.173C67.5823 116.21 67.3637 116.171 67.1783 116.061C66.9929 115.952 66.853 115.78 66.7839 115.576C66.7148 115.372 66.7212 115.15 66.8019 114.95L67.8246 112.536L63.781 117.722C63.6431 117.902 63.4422 118.024 63.2184 118.062C62.9946 118.101 62.7646 118.053 62.5745 117.929C62.3844 117.805 62.2482 117.613 62.1934 117.393C62.1385 117.173 62.169 116.94 62.2787 116.741L62.4768 116.377L60.3252 119.139C60.2283 119.263 60.0997 119.36 59.953 119.418Z" fill="#9EBBCE"/>
<path d="M82.9571 63.4399C82.7862 63.5094 82.5982 63.5246 82.4184 63.4836C82.2386 63.4425 82.0757 63.3473 81.9519 63.2106C81.828 63.0739 81.7492 62.9025 81.726 62.7196C81.7029 62.5366 81.7365 62.3509 81.8223 62.1877L82.2522 61.3806L79.7649 64.573C79.6342 64.7405 79.4486 64.8563 79.2408 64.9C79.033 64.9437 78.8164 64.9125 78.6294 64.8119C78.4424 64.7113 78.2971 64.5477 78.219 64.3502C78.141 64.1528 78.1354 63.934 78.2031 63.7328L79.4948 59.9088L76.4333 63.8349C76.3104 63.9925 76.1386 64.1046 75.945 64.1537C75.7513 64.2028 75.5468 64.186 75.3638 64.1061C75.1807 64.0261 75.0295 63.8874 74.9339 63.712C74.8384 63.5366 74.804 63.3343 74.8361 63.1372L75.2352 60.6884C75.0765 60.8529 74.8612 60.9507 74.6329 60.9621C74.4047 60.9735 74.1807 60.8976 74.0064 60.7499C73.8321 60.6021 73.7205 60.3935 73.6944 60.1665C73.6683 59.9395 73.7295 59.7111 73.8657 59.5276L75.9821 56.8136C76.1053 56.6574 76.2768 56.5465 76.4697 56.4982C76.6627 56.4499 76.8662 56.4668 77.0485 56.5465C77.2307 56.6261 77.3815 56.7639 77.4771 56.9383C77.5727 57.1127 77.6078 57.3139 77.577 57.5104L77.1801 59.9504L81.3326 54.621C81.4632 54.4536 81.6488 54.3378 81.8566 54.2941C82.0644 54.2504 82.281 54.2816 82.468 54.3822C82.655 54.4828 82.8004 54.6463 82.8784 54.8438C82.9564 55.0413 82.9621 55.26 82.8944 55.4613L81.6026 59.2852L87.0602 52.2813C87.1988 52.1052 87.3981 51.9871 87.6192 51.9502C87.8403 51.9133 88.0672 51.9603 88.2554 52.0819C88.4437 52.2035 88.5798 52.3911 88.637 52.6078C88.6942 52.8245 88.6685 53.0548 88.5648 53.2535L88.1386 54.065L88.8559 53.1432C88.9882 52.9593 89.185 52.8321 89.407 52.7869C89.629 52.7418 89.8598 52.7821 90.0534 52.8998C90.247 53.0174 90.3891 53.2038 90.4512 53.4216C90.5134 53.6395 90.4911 53.8727 90.3887 54.0748L90.1093 54.6929C90.2413 54.5578 90.4125 54.4676 90.5985 54.4353C90.7846 54.4029 90.9761 54.4299 91.146 54.5124C91.3158 54.595 91.4554 54.7289 91.5449 54.8952C91.6344 55.0615 91.6693 55.2518 91.6446 55.439L91.4966 56.5105C91.6523 56.4248 91.8294 56.3859 92.0066 56.3984C92.1839 56.4109 92.3537 56.4743 92.4958 56.581C92.6834 56.7277 92.8052 56.9428 92.8344 57.1791C92.8636 57.4155 92.7979 57.6538 92.6517 57.8417L90.8917 60.1084C90.7703 60.2638 90.6013 60.375 90.4105 60.4249C90.2197 60.4749 90.0179 60.4607 89.8359 60.3847C89.654 60.3087 89.5021 60.175 89.4036 60.0042C89.305 59.8334 89.2654 59.6349 89.2906 59.4394L89.4149 58.496L86.8978 61.7063C86.7658 61.888 86.5704 62.0138 86.3503 62.0587C86.1302 62.1037 85.9012 62.0647 85.7084 61.9494C85.5156 61.834 85.373 61.6507 85.3085 61.4355C85.244 61.2203 85.2624 60.9887 85.3601 60.7864L85.6286 60.1942L83.3266 63.1542C83.2307 63.2803 83.1032 63.3789 82.9571 63.4399Z" fill="#9EBBCE"/>
<path d="M86.2648 77.6277C86.0972 77.6959 85.9129 77.7118 85.7361 77.6736C85.5592 77.6354 85.398 77.5447 85.2735 77.4134C85.1489 77.2821 85.0669 77.1163 85.0381 76.9376C85.0093 76.759 85.035 76.5758 85.1119 76.412L86.1519 74.1888L83.2358 77.9279C83.1022 78.0991 82.9112 78.2163 82.698 78.2577C82.4847 78.2991 82.2637 78.262 82.0758 78.1532C81.8878 78.0444 81.7455 77.8712 81.6753 77.6657C81.605 77.4602 81.6115 77.2362 81.6935 77.0351L82.5856 74.8543L81.2732 76.5396C81.1447 76.7043 80.9628 76.8192 80.7588 76.8645C80.5548 76.9098 80.3414 76.8826 80.1553 76.7877C79.9691 76.6928 79.8218 76.536 79.7387 76.3443C79.6555 76.1526 79.6417 75.9379 79.6996 75.7371L80.1138 74.3073C79.936 74.3347 79.7539 74.3082 79.5913 74.231C79.4286 74.1539 79.2929 74.0298 79.2016 73.8747C79.1102 73.7195 79.0675 73.5406 79.079 73.361C79.0905 73.1813 79.1556 73.0093 79.2659 72.867L81.3823 70.153C81.5112 69.9892 81.693 69.8753 81.8966 69.8306C82.1001 69.7859 82.3129 69.8134 82.4985 69.9082C82.6841 70.003 82.8311 70.1594 82.9142 70.3505C82.9973 70.5417 83.0115 70.7557 82.9543 70.9562L82.7238 71.7524L85.1929 68.5867C85.3269 68.4167 85.5178 68.3007 85.7305 68.26C85.9431 68.2194 86.1633 68.2568 86.3506 68.3654C86.5379 68.4741 86.6798 68.6466 86.7501 68.8514C86.8204 69.0562 86.8146 69.2794 86.7335 69.4802L85.8414 71.6609L89.6694 66.7524C89.8052 66.5772 90.0008 66.4584 90.2188 66.4186C90.4367 66.3788 90.6617 66.4209 90.8506 66.5367C91.0395 66.6526 91.179 66.834 91.2423 67.0464C91.3057 67.2587 91.2884 67.487 91.1939 67.6874L90.1546 69.9122L93.9975 64.9782C94.1247 64.8154 94.3039 64.7013 94.5053 64.6551C94.7066 64.6089 94.9177 64.6334 95.1031 64.7244C95.2885 64.8155 95.4369 64.9676 95.5234 65.1552C95.6099 65.3428 95.6292 65.5544 95.578 65.7545L94.4424 70.1694L96.0929 68.054C96.2113 67.9057 96.3735 67.7987 96.5563 67.7482C96.7391 67.6977 96.9333 67.7062 97.1109 67.7726C97.2886 67.8391 97.4407 67.96 97.5456 68.1181C97.6504 68.2761 97.7026 68.4633 97.6947 68.6528L97.6245 70.079C97.8035 70.0484 97.9876 70.0727 98.1526 70.1487C98.3175 70.2246 98.4556 70.3488 98.5487 70.5048C98.6418 70.6607 98.6854 70.8412 98.674 71.0225C98.6625 71.2037 98.5965 71.3773 98.4845 71.5203L97.3152 73.0174C97.1968 73.1661 97.0344 73.2735 96.8513 73.3241C96.6682 73.3748 96.4737 73.3662 96.2957 73.2995C96.1178 73.2328 95.9655 73.1115 95.8608 72.9529C95.7561 72.7944 95.7043 72.6067 95.7128 72.4169L95.7618 71.4031L93.208 74.6807C93.0808 74.8427 92.9018 74.9561 92.7009 75.0019C92.5001 75.0478 92.2896 75.0233 92.1046 74.9326C91.9197 74.8419 91.7714 74.6905 91.6847 74.5036C91.598 74.3168 91.5781 74.1058 91.6282 73.906L92.7638 69.4911L86.6343 77.342C86.5391 77.4687 86.4115 77.5674 86.2648 77.6277Z" fill="#9EBBCE"/>
<path d="M98.6243 88.1491C98.4591 88.2164 98.2777 88.2331 98.103 88.197C97.9283 88.161 97.7683 88.0738 97.6433 87.9466C97.5182 87.8194 97.4339 87.6578 97.4008 87.4826C97.3678 87.3073 97.3876 87.1261 97.4578 86.9622L97.8543 86.0249L95.2325 89.3883C95.0986 89.5583 94.9079 89.6742 94.6955 89.715C94.483 89.7558 94.263 89.7187 94.0757 89.6104C93.8884 89.5021 93.7464 89.33 93.6757 89.1256C93.6051 88.9211 93.6104 88.698 93.6908 88.4972L94.9928 85.3019L90.3134 91.3186C90.1788 91.4913 89.9858 91.6088 89.7706 91.6494C89.5555 91.6899 89.3329 91.6505 89.1447 91.5387C88.9565 91.4269 88.8155 91.2503 88.7482 91.0419C88.6809 90.8336 88.6918 90.6079 88.779 90.4071L89.959 87.6962L87.5599 90.7519C87.4399 90.9073 87.2723 91.0191 87.0828 91.0704C86.8933 91.1217 86.6922 91.1095 86.5102 91.0358C86.3288 90.9628 86.1761 90.8327 86.0752 90.6651C85.9744 90.4976 85.9309 90.3018 85.9513 90.1073L86.2711 87.0656L86.0865 87.2997C85.9364 87.4766 85.7237 87.5886 85.4929 87.6125C85.2621 87.6363 85.0311 87.57 84.848 87.4275C84.6649 87.2849 84.544 87.0772 84.5105 86.8476C84.477 86.618 84.5334 86.3844 84.6681 86.1955L86.7846 83.4815C86.9034 83.3246 87.071 83.2117 87.2609 83.1603C87.4509 83.1089 87.6526 83.122 87.8343 83.1976C88.0178 83.2704 88.1723 83.4016 88.2739 83.5709C88.3756 83.7402 88.4186 83.9382 88.3966 84.1344L88.0767 87.1761L92.9003 80.9883C93.035 80.8157 93.228 80.6981 93.4431 80.6576C93.6583 80.6171 93.8808 80.6565 94.069 80.7683C94.2573 80.8801 94.3982 81.0567 94.4655 81.265C94.5329 81.4734 94.5219 81.6991 94.4347 81.8999L93.2537 84.6132L97.5766 79.0672C97.71 78.896 97.9008 78.7789 98.1138 78.7374C98.3267 78.6958 98.5476 78.7327 98.7355 78.8411C98.9235 78.9496 99.0659 79.1223 99.1365 79.3275C99.2072 79.5327 99.2012 79.7565 99.1198 79.9577L97.8168 83.1553L100.701 79.4622C100.837 79.2938 101.028 79.18 101.241 79.1415C101.454 79.103 101.673 79.1424 101.859 79.2524C102.046 79.3625 102.186 79.5359 102.254 79.7409C102.323 79.9459 102.316 80.1688 102.233 80.3687L101.776 81.4392C101.89 81.3589 102.021 81.3057 102.158 81.2836C102.295 81.2616 102.436 81.2712 102.569 81.3119C102.744 81.367 102.898 81.4743 103.01 81.6193C103.122 81.7643 103.188 81.9401 103.197 82.1232L103.276 83.6716C103.445 83.6683 103.613 83.7132 103.758 83.8012C103.904 83.8891 104.021 84.0165 104.097 84.1685C104.173 84.3205 104.205 84.4909 104.188 84.6601C104.171 84.8292 104.107 84.9901 104.002 85.1241L103.182 86.175C103.069 86.3205 102.914 86.4279 102.738 86.4825C102.562 86.5372 102.374 86.5365 102.198 86.4807C102.023 86.4248 101.869 86.3164 101.757 86.1701C101.645 86.0238 101.581 85.8467 101.573 85.6627L101.52 84.6239L98.9938 87.8634C98.8986 87.9901 98.7709 88.0888 98.6243 88.1491Z" fill="#9EBBCE"/>
<path d="M100.517 102.912C100.348 102.98 100.163 102.995 99.9864 102.956C99.8093 102.917 99.6482 102.825 99.5242 102.693C99.4002 102.56 99.3192 102.394 99.2916 102.214C99.2641 102.035 99.2914 101.852 99.3699 101.688L100.251 99.8884L96.8279 104.272C96.6922 104.447 96.4965 104.566 96.2786 104.606C96.0606 104.645 95.8356 104.603 95.6467 104.488C95.4578 104.372 95.3183 104.19 95.255 103.978C95.1917 103.766 95.2089 103.537 95.3035 103.337L96.3566 101.079L93.7066 104.483C93.5691 104.657 93.3723 104.774 93.1537 104.812C92.9352 104.85 92.7104 104.806 92.5226 104.688C92.3347 104.57 92.197 104.387 92.1358 104.174C92.0747 103.961 92.0945 103.732 92.1914 103.533L92.3552 103.204L92.2164 103.379C92.0906 103.544 91.9112 103.659 91.7091 103.706C91.5071 103.752 91.2952 103.727 91.1101 103.633C90.9242 103.542 90.7755 103.39 90.689 103.202C90.6025 103.014 90.5835 102.801 90.6352 102.601L91.0614 100.947C90.8789 101.003 90.6833 100.999 90.5029 100.937C90.3225 100.874 90.1668 100.756 90.0581 100.599C89.9495 100.442 89.8937 100.254 89.8987 100.063C89.9037 99.8725 89.9693 99.6881 90.086 99.537L92.2024 96.823C92.3295 96.6602 92.5088 96.5462 92.7102 96.4999C92.9115 96.4537 93.1226 96.4782 93.308 96.5693C93.4934 96.6604 93.6418 96.8125 93.7283 97.0001C93.8148 97.1876 93.8341 97.3993 93.7829 97.5994L93.4554 98.8601L96.3858 95.1037C96.5227 94.9277 96.7201 94.8088 96.9397 94.7701C97.1593 94.7314 97.3854 94.7756 97.5742 94.8942C97.7631 95.0128 97.9011 95.1973 97.9616 95.4119C98.0221 95.6265 98.0007 95.856 97.9016 96.0557L97.7398 96.3795L99.8383 93.6884C99.974 93.5132 100.17 93.3944 100.388 93.3546C100.606 93.3148 100.831 93.3568 101.02 93.4727C101.208 93.5885 101.348 93.77 101.411 93.9824C101.475 94.1947 101.457 94.4229 101.363 94.6233L100.309 96.8793L104.184 91.9091C104.321 91.7335 104.518 91.6148 104.737 91.5761C104.956 91.5374 105.182 91.5814 105.371 91.6995C105.559 91.8177 105.698 92.0016 105.759 92.2157C105.819 92.4299 105.799 92.659 105.701 92.8588L104.815 94.6623L106.164 92.9348C106.298 92.7651 106.488 92.6491 106.7 92.6081C106.912 92.567 107.132 92.6036 107.319 92.7112C107.506 92.8187 107.649 92.99 107.72 93.1938C107.791 93.3977 107.787 93.6204 107.708 93.8212L107.223 95.0195C107.349 94.9176 107.5 94.8516 107.66 94.8284C107.821 94.8051 107.984 94.8256 108.134 94.8876C108.283 94.9496 108.413 95.0509 108.51 95.1807C108.607 95.3105 108.667 95.464 108.684 95.6251L108.84 97.1458C109.009 97.1638 109.17 97.2284 109.304 97.3324C109.397 97.4051 109.475 97.4955 109.533 97.5983C109.592 97.7012 109.629 97.8145 109.643 97.9318C109.658 98.0491 109.649 98.1681 109.617 98.282C109.586 98.3959 109.532 98.5024 109.459 98.5955L108.82 99.412C108.708 99.5526 108.558 99.6571 108.387 99.7125C108.216 99.7678 108.033 99.7715 107.86 99.7231C107.688 99.6734 107.535 99.5733 107.42 99.4359C107.305 99.2985 107.234 99.1299 107.216 98.9517L107.12 98.0355L104.777 101.049C104.644 101.219 104.454 101.334 104.242 101.376C104.03 101.417 103.81 101.38 103.623 101.272C103.435 101.165 103.293 100.994 103.222 100.79C103.15 100.586 103.155 100.363 103.234 100.162L103.683 99.0428L100.886 102.627C100.791 102.753 100.663 102.852 100.517 102.912Z" fill="#9EBBCE"/>
<path d="M63.0335 129.936C66.6566 133.217 73.6736 130.265 79.1332 127.609C79.7238 128.673 80.4627 129.648 81.3276 130.503C79.3364 134.982 76.7385 148.603 83.9181 148.499C85.2432 148.214 86.5153 147.723 87.6878 147.043L108.107 138.764C109.487 138.204 111.621 137.727 112.398 136.262C115.423 130.521 105.305 123.642 100.878 122.156C100.899 120.945 100.755 119.737 100.449 118.565L109.549 114.876C109.616 114.842 109.679 114.799 109.734 114.748L109.761 114.737C115.518 110.928 113.089 106.126 111.003 100.98L104.585 85.1497C104.568 85.026 104.52 84.9086 104.446 84.8079L101.881 78.4807C101.864 78.357 101.816 78.2395 101.742 78.1389L100.128 74.1558C99.8157 73.3866 99.5091 72.605 99.2078 71.8108C99.1972 71.7726 99.1822 71.7356 99.1632 71.7008C97.0282 66.0901 95.045 60.0588 91.8624 55.0534C88.591 50.0327 83.7892 46.1994 78.1686 44.1214C72.5479 42.0434 66.4074 41.8313 60.6567 43.5165C55.5459 45.0908 50.9811 48.0715 47.4845 52.1178C43.9878 56.1642 41.7004 61.1128 40.8837 66.3979C40.6516 68.001 40.5771 69.6229 40.6612 71.2405C40.5465 71.3873 40.49 71.5713 40.5027 71.7571C40.5153 71.943 40.5962 72.1176 40.7297 72.2475C40.9209 74.3816 41.3213 76.4919 41.9251 78.5477C41.8728 78.6352 41.8392 78.7325 41.8265 78.8337C41.8137 78.9348 41.822 79.0374 41.8508 79.1352C41.8797 79.2329 41.9285 79.3236 41.9942 79.4015C42.0598 79.4795 42.1409 79.5429 42.2324 79.588C42.9473 81.8684 43.8258 84.1311 44.7566 86.4269L50.0474 99.4765C50.0597 99.5187 50.0762 99.5595 50.0968 99.5982L52.7513 106.146C52.7636 106.188 52.7801 106.229 52.8007 106.267L55.4599 112.826C55.4686 112.853 55.479 112.878 55.491 112.903L55.9378 114.005C57.7409 118.428 59.2936 126.548 63.0335 129.936ZM59.2288 81.0583C60.6617 80.5705 62.4136 80.9939 62.7556 82.6801C62.8551 83.3179 62.7397 83.9708 62.4276 84.5359C62.1156 85.101 61.6245 85.5463 61.0316 85.8018L48.3054 90.9615C47.6464 89.4078 47.0056 87.8369 46.3992 86.2598L59.2288 81.0583ZM64.1871 94.3844C67.3209 93.3177 69.9424 97.6576 66.6844 99.227L54.1149 104.323C54.0723 104.218 54.0297 104.113 53.9878 104.01C53.372 102.491 52.6952 100.927 51.9895 99.3298L64.1871 94.3844ZM69.6116 107.716C72.7503 106.637 75.3075 110.962 72.1034 112.545L59.2872 117.741C58.5978 116.079 57.9469 114.402 57.3072 112.704L69.6116 107.716ZM110.032 135.953C108.285 138.036 101.486 139.418 99.04 140.41L86.5056 145.491C79.1913 148.457 80.7306 136.433 82.6213 131.602C84.179 132.791 86.0224 133.55 87.9663 133.802C89.9102 134.053 91.886 133.789 93.6953 133.035C95.4895 132.292 97.0672 131.109 98.2822 129.594C99.4972 128.079 100.31 126.282 100.646 124.37C104.853 126.11 113.358 131.989 110.032 135.953ZM80.8131 126.783C82.2853 126.052 83.5932 125.399 84.5919 124.994L98.847 119.215C101.963 130.533 86.7167 136.053 80.8131 126.783ZM95.2398 102.992C94.6185 103.282 93.9088 103.321 93.2594 103.101C92.61 102.88 92.0713 102.416 91.7561 101.807C91.5321 101.101 91.5874 100.337 91.9107 99.6712C92.2339 99.0055 92.8005 98.4893 93.4933 98.2292L105.801 93.2392C106.375 94.4626 107.193 96.0507 108.026 97.8078L95.2398 102.992ZM89.8456 89.9025C86.5004 91.0511 85.154 86.1166 88.0787 84.6396L100.276 79.6942L102.358 84.8294L89.8456 89.9025ZM91.1762 58.1252L85.896 60.266C83.6914 61.4668 81.3505 62.3983 78.9236 63.0405C74.3221 63.5802 75.4177 59.1815 77.9409 57.8634C79.1637 57.2259 80.5535 56.8042 81.8306 56.2864L88.2296 53.692C89.3495 55.0739 90.3382 56.5571 91.1829 58.1225L91.1762 58.1252ZM96.95 71.509L86.1862 75.8731C84.2405 76.6619 79.0406 77.4015 81.1762 72.719C82.1461 70.5961 86.7216 69.6379 88.6056 68.874L94.8695 66.3344L95.4901 67.865L96.95 71.509ZM47.6103 54.4941C49.8612 51.6741 52.6644 49.3437 55.8481 47.6457C59.0317 45.9477 62.5287 44.918 66.1245 44.6197C69.7203 44.3213 73.3391 44.7607 76.759 45.9108C80.179 47.0609 83.3279 48.8975 86.0128 51.308C86.303 51.5786 86.5476 51.856 86.8151 52.1281L78.5421 55.4822C75.5644 56.6895 72.3508 58.8855 74.0376 62.6724C75.8247 66.7022 79.7778 64.8839 82.7239 63.6895L92.0972 59.8892C92.8785 61.5002 93.5818 63.1583 94.2602 64.8362L84.5217 68.7846C81.6057 69.9668 77.3646 71.7213 79.1891 75.7999C80.9615 79.7405 84.9913 78.1067 87.914 76.9217L97.5657 73.0085L99.6545 78.1603L87.15 83.2301C87.1017 83.2544 87.0552 83.2823 87.0111 83.3136C86.9761 83.3278 86.9367 83.3263 86.9023 83.3422C86.3536 83.5805 85.859 83.9279 85.4486 84.3633C85.0383 84.7987 84.7208 85.313 84.5153 85.8749C84.3099 86.4368 84.2209 87.0346 84.2537 87.632C84.2865 88.2294 84.4404 88.8139 84.7061 89.35C85.2898 90.334 86.2044 91.0782 87.2865 91.4497C88.3686 91.8212 89.5476 91.7956 90.6125 91.3776L102.98 86.3633L104.974 91.28L92.5359 96.3228C92.4976 96.3383 92.4807 96.3685 92.447 96.386C92.4094 96.3902 92.3723 96.3981 92.3362 96.4096C87.1977 98.8423 90.8041 106.761 96.0255 104.968L108.912 99.7433C111.106 104.759 112.74 110.484 109.111 113.038L99.4208 116.967C99.2816 116.985 99.1494 117.038 99.0373 117.123L79.5737 125.014C79.4878 125.012 79.4023 125.028 79.3226 125.06C79.243 125.092 79.1707 125.141 79.1102 125.202L73.7033 127.394C68.1847 129.631 64.4777 128.504 61.7844 123.23C61.1458 121.981 60.5618 120.693 59.9901 119.394L72.3278 114.391C72.3646 114.37 72.3998 114.347 72.4334 114.321C72.476 114.313 72.5179 114.301 72.5589 114.286C73.6069 113.807 74.4539 112.976 74.9527 111.937C75.4514 110.898 75.5705 109.717 75.2891 108.6C75.1148 108.029 74.8248 107.5 74.4371 107.046C74.0494 106.592 73.5725 106.222 73.0359 105.961C72.4993 105.699 71.9146 105.551 71.3182 105.525C70.7218 105.499 70.1264 105.597 69.5693 105.811L56.6797 111.037C56.0443 109.336 55.4133 107.641 54.7637 105.966L66.8863 101.051C66.9213 101.037 66.9463 101.008 66.9799 100.99C67.0274 100.981 67.0741 100.968 67.1194 100.951C68.1692 100.476 69.0198 99.6492 69.5237 98.6131C70.0276 97.5769 70.1531 96.3971 69.8784 95.2782C69.7049 94.7096 69.4167 94.1827 69.0315 93.7299C68.6463 93.2771 68.1724 92.9081 67.639 92.6457C67.1056 92.3833 66.5241 92.233 65.9303 92.2042C65.3366 92.1754 64.7432 92.2686 64.1869 92.4781L51.2756 97.7128C50.5737 96.1396 49.8556 94.536 49.1464 92.9113L61.9327 87.7273C67.1896 85.2562 63.708 77.3009 58.3278 79.1328L45.6749 84.2627C45.0756 82.5644 44.5412 80.863 44.0925 79.158L52.9057 75.5848C55.7017 74.4512 59.8404 73.3207 59.3347 69.4159C58.7591 65.0134 54.3434 65.4894 51.3574 66.7L42.7026 70.209C42.4133 64.5532 44.1538 58.9801 47.6103 54.4941ZM42.8008 71.9164L48.6729 69.5356C49.9567 69.0151 51.2416 68.368 52.5626 67.9586C55.1834 67.1445 60.132 69.4673 55.7519 72.6837C53.6618 73.8194 51.4504 74.716 49.1595 75.3564L43.6992 77.5702C43.2655 75.7094 42.9653 73.82 42.8008 71.9164Z" fill="#262626"/>
</g>
<path d="M51.9042 32.9248C53.0047 32.4814 53.5372 31.2302 53.0938 30.1298L48.5985 18.9728C48.1551 17.8723 46.9039 17.3398 45.8034 17.7832C44.7037 18.2263 44.1704 19.4778 44.6138 20.5783L49.1092 31.7352C49.5526 32.8357 50.8046 33.3679 51.9042 32.9248Z" fill="#AAD742"/>
<path d="M34.5519 48.2377C35.0978 48.47 35.6859 48.4592 36.1957 48.2538C36.7054 48.0484 37.1368 47.6485 37.3691 47.1025C37.8338 46.0107 37.3255 44.7492 36.234 44.2853L25.1659 39.5741C24.0744 39.1102 22.8137 39.6181 22.3479 40.7095C21.884 41.801 22.3923 43.0625 23.4833 43.5275L34.5519 48.2377Z" fill="#AAD742"/>
<path d="M30.6383 68.5985C30.1949 67.4981 28.9437 66.9656 27.8432 67.409L16.6862 71.9043C15.5858 72.3477 15.0533 73.5989 15.4966 74.6993C15.94 75.7998 17.1913 76.3323 18.2917 75.8889L29.4487 71.3936C30.5491 70.9502 31.0813 69.6982 30.6383 68.5985Z" fill="#AAD742"/>
<path d="M73.8532 33.0827C74.3629 32.8773 74.7943 32.4774 75.0269 31.9323L79.7382 20.8642C80.2021 19.7727 79.6938 18.5111 78.6027 18.0461C77.5109 17.5815 76.2502 18.0894 75.7847 19.1816L71.0742 30.2493C70.6096 31.3412 71.1179 32.6027 72.2097 33.0674C72.7556 33.2997 73.3434 33.2881 73.8532 33.0827Z" fill="#AAD742"/>
<path d="M102.992 38.1404L91.8347 42.6357C90.735 43.0788 90.2017 44.3303 90.6451 45.4308C91.0885 46.5312 92.3405 47.0634 93.4401 46.6204L104.597 42.125C105.698 41.6817 106.23 40.4304 105.787 39.33C105.343 38.2295 104.092 37.697 102.992 38.1404Z" fill="#AAD742"/>
<path d="M53.655 37.1973C53.1289 37.4092 52.7027 37.8288 52.4792 38.3495C52.258 38.8692 52.2544 39.4686 52.4654 39.9923C52.6764 40.5161 53.0946 40.9455 53.6143 41.1667C54.1364 41.387 54.7359 41.3932 55.2605 41.1819C55.7842 40.9709 56.2119 40.5507 56.4331 40.031C56.6543 39.5113 56.6611 38.9106 56.45 38.3868C56.239 37.8631 55.8185 37.4346 55.298 37.2137C54.7783 36.9925 54.1787 36.9862 53.655 37.1973Z" fill="#AAD742"/>
<defs>
<clipPath id="clip0_1_3146">
<rect width="107.945" height="107.945" fill="white" transform="translate(7.58453 63.9648) rotate(-22.0695)"/>
</clipPath>
</defs>
</svg>
