<svg width="110" height="105" viewBox="0 0 110 105" fill="none" xmlns="http://www.w3.org/2000/svg">
<g clip-path="url(#clip0_1_2462)">
<mask id="path-1-inside-1_1_2462" fill="white">
<path d="M109.167 66.6568C107.781 64.002 105.545 63.1069 103.081 63.4503C103.1 62.9782 103.044 62.4938 102.903 61.9972C102.632 61.0775 102.01 60.5564 101.498 59.8146C100.833 58.8458 101.246 59.6122 101.954 58.0856C102.786 56.2892 102.12 54.9404 101.123 53.4199C100.094 51.8503 99.4963 50.7406 100.063 48.8277C100.162 48.4905 100.254 48.2085 100.334 47.951C101.751 46.5041 103.537 44.6464 103.888 42.5986C104.295 40.232 102.841 38.1598 101.492 36.3634C98.3999 32.2494 94.4023 28.9693 90.3677 25.8057C81.2575 18.6631 71.6114 12.3972 61.5895 6.59723C52.6025 1.40424 43.4554 -2.21919 33.1563 1.56978C27.9267 3.49492 23.1345 6.42556 18.293 9.14773C14.0613 11.5266 9.60779 13.746 5.94893 16.9771C-2.13877 24.1074 -0.16766 34.8981 1.47698 44.4073C2.29006 49.0853 3.33105 54.1495 5.69022 58.3308C8.05554 62.5122 11.93 65.7433 15.5581 68.7904C24.6683 76.4358 33.8955 83.6459 44.3116 89.4765C49.5227 92.3948 55.2019 95.7546 61.0598 97.1832C66.4619 98.5013 71.5682 97.0115 76.5453 94.9821C77.1305 97.2077 77.7834 99.4026 78.6827 101.463C79.853 104.136 82.7604 106.226 85.5385 104.179C88.914 101.696 87.0907 97.9189 88.5382 94.7491C88.8401 94.087 88.2487 94.3936 89.2466 94.5039C89.7332 94.5591 90.2198 94.743 90.6941 94.8656C91.7474 95.1477 92.8254 95.5584 93.928 95.6014C96.1824 95.6872 97.6361 94.1483 97.5006 91.9166C97.3589 89.642 96.4781 87.2141 95.4125 84.8659C99.2992 82.3461 103.291 79.6852 106.679 76.5645C109.506 73.965 111.052 70.2802 109.161 66.6568H109.167ZM87.4911 69.6242C90.0166 68.2018 92.7084 66.7855 94.815 64.8175C95.2893 64.376 94.7965 63.4319 94.1497 63.6832C91.4579 64.7194 88.9879 66.4115 86.5055 67.9136C85.9943 67.0369 85.483 66.154 84.9718 65.2773C84.8979 65.1485 84.8116 65.0443 84.7254 64.9462C86.2653 64.0756 87.8052 63.205 89.3452 62.3405C91.0514 61.3841 92.6837 60.5319 93.7863 58.8826C94.1867 58.2818 93.3859 57.4664 92.7761 57.8771C84.3065 63.6587 74.9191 67.9995 66.2894 73.5419C65.4886 74.0569 66.1847 75.228 67.0347 74.8049C67.8847 74.3819 68.7225 73.9404 69.5602 73.499C69.5787 73.5664 69.591 73.64 69.6218 73.7075C70.0037 74.6087 70.3733 75.5222 70.7367 76.4296C69.3076 77.1224 67.8539 77.8152 66.6158 78.7901C66.0553 79.2315 66.6774 80.0347 67.2688 79.9059C68.7163 79.581 70.0961 78.9127 71.4451 78.226C71.79 79.115 72.1288 80.0102 72.4552 80.9114C70.4533 82.0641 67.5829 84.0934 65.5379 82.9101C63.6407 81.8065 62.649 77.3616 62.3287 75.2525C61.8113 71.8252 63.5791 70.6971 66.2586 68.962C68.8395 67.2944 71.4697 65.6942 74.1184 64.1369C79.157 61.1818 84.2449 58.3002 89.3944 55.5474C91.6058 54.3641 93.8048 53.1256 95.8621 51.6971C95.9792 53.1379 96.6382 54.1434 97.4452 55.6209C98.1905 56.9943 97.6484 56.5283 97.0201 57.9017C96.6998 58.6067 96.552 59.4099 96.6998 60.1763C96.8723 61.0775 97.3959 61.6171 97.9256 62.316C98.6771 63.3092 98.6155 63.5913 98.7633 64.7929C98.7757 64.8788 98.8003 64.9585 98.8188 65.0443C95.24 66.9081 91.9692 69.336 88.5506 71.4758C88.2056 70.8565 87.8545 70.2373 87.4972 69.6242H87.4911ZM75.4981 90.8621C70.17 93.1183 65.1745 94.3752 59.5691 92.2538C54.549 90.3532 49.7136 87.6862 45.0692 85.0192C36.1684 79.9121 28.1485 73.8056 20.3072 67.2331C16.8085 64.2963 12.9587 61.4025 10.3038 57.638C7.51965 53.6958 6.52178 48.4599 5.68406 43.7942C4.82786 39.0242 3.87311 33.7822 4.26733 28.9264C4.69851 23.5802 8.19106 20.1407 12.509 17.3817C16.8393 14.6166 21.4529 12.2316 25.9433 9.73631C30.7602 7.05705 35.9159 4.29196 41.5582 4.08963C46.4983 3.91183 51.1304 5.76341 55.4175 8.02576C60.0434 10.472 64.5585 13.1881 68.9935 15.9593C78.0975 21.6489 87.5958 27.878 95.1538 35.5418C96.6444 37.0562 100.137 40.1094 99.3177 42.5557C98.6032 44.6709 95.1784 47.013 93.4414 48.2208C89.8379 50.7222 85.791 52.5799 81.9782 54.7319C76.6192 57.7484 71.2479 60.7587 66.043 64.0327C61.8852 66.6445 57.7089 68.8088 57.943 74.3083C58.1031 78.1157 59.68 83.9463 62.8954 86.3006C66.5727 88.9921 70.3671 86.9382 73.8473 85.0069C74.1368 85.9021 74.4202 86.8033 74.6851 87.7107C74.9869 88.7407 75.2579 89.7891 75.5228 90.8498C75.5228 90.8498 75.5166 90.8498 75.5105 90.8498L75.4981 90.8621ZM86.3146 90.8008C84.171 92.1373 84.1094 94.9821 83.9554 97.22C83.9061 97.9557 83.9739 98.7711 83.6721 99.4578C83.1731 100.592 83.0931 100.525 82.5264 99.6601C81.5347 98.158 81.2636 95.4297 80.7832 93.7069C78.7443 86.3864 76.8656 78.9311 73.2745 72.1808C73.1698 71.9846 73.0343 71.8252 72.8803 71.6965C75.6337 70.1576 78.3624 68.5635 81.0912 67.0001C81.1404 67.1411 81.202 67.2821 81.2821 67.4232C85.5754 74.7252 89.9426 82.1805 92.6714 90.2306C92.6344 90.1141 92.7515 90.482 92.8931 90.9418C92.2957 90.8008 91.6181 90.7027 91.3471 90.6352C89.7271 90.2306 87.8237 89.8566 86.3084 90.8008H86.3146ZM100.876 75.8043C98.4862 77.6252 96.0346 79.3541 93.5276 81.0156C93.2135 80.3964 92.9055 79.7894 92.6221 79.2131C91.9692 77.8704 91.2793 76.54 90.5771 75.2218C92.8747 73.7872 95.086 72.2238 97.3959 70.7952C99.2931 69.6242 104.19 65.7862 105.496 68.9069C106.74 71.9049 102.878 74.2776 100.876 75.8043Z"/>
</mask>
<path d="M109.167 66.6568C107.781 64.002 105.545 63.1069 103.081 63.4503C103.1 62.9782 103.044 62.4938 102.903 61.9972C102.632 61.0775 102.01 60.5564 101.498 59.8146C100.833 58.8458 101.246 59.6122 101.954 58.0856C102.786 56.2892 102.12 54.9404 101.123 53.4199C100.094 51.8503 99.4963 50.7406 100.063 48.8277C100.162 48.4905 100.254 48.2085 100.334 47.951C101.751 46.5041 103.537 44.6464 103.888 42.5986C104.295 40.232 102.841 38.1598 101.492 36.3634C98.3999 32.2494 94.4023 28.9693 90.3677 25.8057C81.2575 18.6631 71.6114 12.3972 61.5895 6.59723C52.6025 1.40424 43.4554 -2.21919 33.1563 1.56978C27.9267 3.49492 23.1345 6.42556 18.293 9.14773C14.0613 11.5266 9.60779 13.746 5.94893 16.9771C-2.13877 24.1074 -0.16766 34.8981 1.47698 44.4073C2.29006 49.0853 3.33105 54.1495 5.69022 58.3308C8.05554 62.5122 11.93 65.7433 15.5581 68.7904C24.6683 76.4358 33.8955 83.6459 44.3116 89.4765C49.5227 92.3948 55.2019 95.7546 61.0598 97.1832C66.4619 98.5013 71.5682 97.0115 76.5453 94.9821C77.1305 97.2077 77.7834 99.4026 78.6827 101.463C79.853 104.136 82.7604 106.226 85.5385 104.179C88.914 101.696 87.0907 97.9189 88.5382 94.7491C88.8401 94.087 88.2487 94.3936 89.2466 94.5039C89.7332 94.5591 90.2198 94.743 90.6941 94.8656C91.7474 95.1477 92.8254 95.5584 93.928 95.6014C96.1824 95.6872 97.6361 94.1483 97.5006 91.9166C97.3589 89.642 96.4781 87.2141 95.4125 84.8659C99.2992 82.3461 103.291 79.6852 106.679 76.5645C109.506 73.965 111.052 70.2802 109.161 66.6568H109.167ZM87.4911 69.6242C90.0166 68.2018 92.7084 66.7855 94.815 64.8175C95.2893 64.376 94.7965 63.4319 94.1497 63.6832C91.4579 64.7194 88.9879 66.4115 86.5055 67.9136C85.9943 67.0369 85.483 66.154 84.9718 65.2773C84.8979 65.1485 84.8116 65.0443 84.7254 64.9462C86.2653 64.0756 87.8052 63.205 89.3452 62.3405C91.0514 61.3841 92.6837 60.5319 93.7863 58.8826C94.1867 58.2818 93.3859 57.4664 92.7761 57.8771C84.3065 63.6587 74.9191 67.9995 66.2894 73.5419C65.4886 74.0569 66.1847 75.228 67.0347 74.8049C67.8847 74.3819 68.7225 73.9404 69.5602 73.499C69.5787 73.5664 69.591 73.64 69.6218 73.7075C70.0037 74.6087 70.3733 75.5222 70.7367 76.4296C69.3076 77.1224 67.8539 77.8152 66.6158 78.7901C66.0553 79.2315 66.6774 80.0347 67.2688 79.9059C68.7163 79.581 70.0961 78.9127 71.4451 78.226C71.79 79.115 72.1288 80.0102 72.4552 80.9114C70.4533 82.0641 67.5829 84.0934 65.5379 82.9101C63.6407 81.8065 62.649 77.3616 62.3287 75.2525C61.8113 71.8252 63.5791 70.6971 66.2586 68.962C68.8395 67.2944 71.4697 65.6942 74.1184 64.1369C79.157 61.1818 84.2449 58.3002 89.3944 55.5474C91.6058 54.3641 93.8048 53.1256 95.8621 51.6971C95.9792 53.1379 96.6382 54.1434 97.4452 55.6209C98.1905 56.9943 97.6484 56.5283 97.0201 57.9017C96.6998 58.6067 96.552 59.4099 96.6998 60.1763C96.8723 61.0775 97.3959 61.6171 97.9256 62.316C98.6771 63.3092 98.6155 63.5913 98.7633 64.7929C98.7757 64.8788 98.8003 64.9585 98.8188 65.0443C95.24 66.9081 91.9692 69.336 88.5506 71.4758C88.2056 70.8565 87.8545 70.2373 87.4972 69.6242H87.4911ZM75.4981 90.8621C70.17 93.1183 65.1745 94.3752 59.5691 92.2538C54.549 90.3532 49.7136 87.6862 45.0692 85.0192C36.1684 79.9121 28.1485 73.8056 20.3072 67.2331C16.8085 64.2963 12.9587 61.4025 10.3038 57.638C7.51965 53.6958 6.52178 48.4599 5.68406 43.7942C4.82786 39.0242 3.87311 33.7822 4.26733 28.9264C4.69851 23.5802 8.19106 20.1407 12.509 17.3817C16.8393 14.6166 21.4529 12.2316 25.9433 9.73631C30.7602 7.05705 35.9159 4.29196 41.5582 4.08963C46.4983 3.91183 51.1304 5.76341 55.4175 8.02576C60.0434 10.472 64.5585 13.1881 68.9935 15.9593C78.0975 21.6489 87.5958 27.878 95.1538 35.5418C96.6444 37.0562 100.137 40.1094 99.3177 42.5557C98.6032 44.6709 95.1784 47.013 93.4414 48.2208C89.8379 50.7222 85.791 52.5799 81.9782 54.7319C76.6192 57.7484 71.2479 60.7587 66.043 64.0327C61.8852 66.6445 57.7089 68.8088 57.943 74.3083C58.1031 78.1157 59.68 83.9463 62.8954 86.3006C66.5727 88.9921 70.3671 86.9382 73.8473 85.0069C74.1368 85.9021 74.4202 86.8033 74.6851 87.7107C74.9869 88.7407 75.2579 89.7891 75.5228 90.8498C75.5228 90.8498 75.5166 90.8498 75.5105 90.8498L75.4981 90.8621ZM86.3146 90.8008C84.171 92.1373 84.1094 94.9821 83.9554 97.22C83.9061 97.9557 83.9739 98.7711 83.6721 99.4578C83.1731 100.592 83.0931 100.525 82.5264 99.6601C81.5347 98.158 81.2636 95.4297 80.7832 93.7069C78.7443 86.3864 76.8656 78.9311 73.2745 72.1808C73.1698 71.9846 73.0343 71.8252 72.8803 71.6965C75.6337 70.1576 78.3624 68.5635 81.0912 67.0001C81.1404 67.1411 81.202 67.2821 81.2821 67.4232C85.5754 74.7252 89.9426 82.1805 92.6714 90.2306C92.6344 90.1141 92.7515 90.482 92.8931 90.9418C92.2957 90.8008 91.6181 90.7027 91.3471 90.6352C89.7271 90.2306 87.8237 89.8566 86.3084 90.8008H86.3146ZM100.876 75.8043C98.4862 77.6252 96.0346 79.3541 93.5276 81.0156C93.2135 80.3964 92.9055 79.7894 92.6221 79.2131C91.9692 77.8704 91.2793 76.54 90.5771 75.2218C92.8747 73.7872 95.086 72.2238 97.3959 70.7952C99.2931 69.6242 104.19 65.7862 105.496 68.9069C106.74 71.9049 102.878 74.2776 100.876 75.8043Z" fill="#4259CC" stroke="#4259CC" stroke-width="2" mask="url(#path-1-inside-1_1_2462)"/>
<path d="M65.4879 55.6327C67.2188 55.1361 68.845 53.8056 70.3603 52.8553C72.1959 51.7027 74.013 50.5316 75.8301 49.3606C75.8979 49.3361 75.9594 49.3054 76.0272 49.2625C77.8751 48.0976 79.6922 46.8898 81.5401 45.731C82.538 45.1057 83.8808 44.5048 84.3921 43.3522C84.7863 42.4571 84.5707 41.5252 84.1642 40.6729C83.2217 38.7172 83.0554 40.0599 83.1663 36.5284C83.1909 35.8233 83.2895 35.1857 83.1663 34.4684C82.7105 31.7094 80.3821 30.054 78.3186 28.4293C74.9924 25.8052 71.5799 23.2854 68.0627 20.9065C65.2662 19.012 62.2726 16.719 58.8108 16.2898C57.5666 16.1366 56.3223 16.2653 55.152 16.719C52.8174 17.6264 50.8587 20.0053 48.7828 17.2831C47.0396 14.9962 44.8714 13.7087 41.964 13.3837C40.4611 13.2182 38.9951 13.3776 37.5229 13.6474C34.2213 14.2605 31.8744 14.4321 28.5544 13.7271C27.5257 13.5064 26.6325 14.5548 27.1746 15.5112C28.0985 17.1543 28.6098 19.0182 27.846 20.7839C27.5688 21.4215 27.1992 22.0224 26.9467 22.6723C26.4909 23.8494 26.2198 24.9591 26.4909 26.2099C27.1931 29.4286 32.9586 31.3661 31.665 34.3151C30.7719 36.3567 29.7185 37.5768 31.3632 39.7226C33.3774 42.3529 37.2272 44.229 39.956 46.0131C43.0974 48.0608 46.3066 50.0105 49.4481 52.0583C50.5445 52.7695 51.6656 53.5726 52.9961 53.7627C55.0349 54.0631 56.8459 53.0944 58.8786 53.9773C61.0653 54.9276 62.9748 56.3439 65.4695 55.6327H65.4879ZM52.491 51.0773C51.2467 50.7033 49.9778 49.4955 48.8691 48.8027C45.8077 46.9143 42.7771 44.9708 39.7835 42.9844C38.3729 42.0463 36.9685 41.0899 35.5949 40.0905C34.4369 39.2444 32.8908 38.0611 33.168 36.3383C33.2357 35.9153 34.1351 35.2286 34.363 34.8669C35.2808 33.3954 35.176 32.0834 34.0242 30.7591C32.897 29.4654 31.2277 28.7542 30.0327 27.5403C27.9507 25.4128 29.4722 23.3957 30.3099 21.2069C30.9751 19.4657 30.8766 17.9881 30.3345 16.4922C32.5582 16.7742 34.6586 16.7252 37.0178 16.2408C41.2618 15.3641 44.3294 15.7197 47.1382 19.1898C48.4502 20.8084 49.8238 21.771 51.9736 21.2008C53.1316 20.8943 54.0432 20.0114 55.078 19.4719C57.4927 18.2089 59.5377 18.6993 61.8229 19.8642C67.7301 22.8807 73.7543 27.4422 78.6636 31.8504C80.3575 33.3709 80.8318 34.7259 80.6223 36.9637C80.5238 38.0489 80.4376 38.9624 80.8564 40.0108C81.2445 40.9734 81.6818 41.0163 81.4169 42.1751C81.1336 43.4135 80.4314 43.5361 79.3719 44.2106C77.832 45.1854 76.3167 46.197 74.7706 47.1657C74.6967 47.2086 74.6351 47.2638 74.5797 47.3129C71.6353 49.146 68.5308 51.9111 65.2908 53.076C62.4389 54.0999 60.1783 51.3532 57.4311 51.0344C55.7926 50.8443 54.0925 51.5739 52.4602 51.0834L52.491 51.0773Z" fill="#4259CC"/>
<path d="M52.6218 68.5691C45.2301 62.9285 37.6537 57.5148 30.453 51.6229C23.4618 45.8965 17.2281 39.3425 10.3046 33.5732C9.57778 32.9662 8.69078 33.8736 9.27596 34.5971C15.0907 41.7765 22.6856 47.9566 29.7385 53.8853C36.7236 59.7527 43.9366 65.3135 51.8149 69.9363C52.7203 70.4697 53.3979 69.1761 52.6156 68.5752L52.6218 68.5691Z" fill="#4259CC"/>
<path d="M38.913 8.41181C40.6624 7.69448 42.1161 7.73127 43.9147 8.18496C45.3746 8.54669 46.7235 9.00652 48.2511 8.92682C49.0457 8.89003 49.3291 7.87841 48.6515 7.44924C45.8057 5.63446 41.0073 5.01522 38.2539 7.2837C37.7488 7.70061 38.2909 8.66932 38.913 8.41181Z" fill="#4259CC"/>
<path d="M77.9226 72.6654C78.8835 77.1288 79.9121 82.6222 82.3822 86.5277C82.7949 87.1776 83.996 86.9691 83.9344 86.1107C83.6018 81.396 81.1749 76.3869 79.2592 72.1075C78.9081 71.3227 77.7563 71.9052 77.9226 72.6654Z" fill="#4259CC"/>
<path d="M81.7706 70.4577C81.2717 69.63 80.0706 70.3535 80.4833 71.2057C81.3949 73.1002 82.2018 75.2215 83.3537 76.9811C83.8033 77.6678 84.9552 77.2448 84.715 76.4109C84.1298 74.3386 82.8794 72.297 81.7706 70.4577Z" fill="#4259CC"/>
</g>
<defs>
<clipPath id="clip0_1_2462">
<rect width="110" height="105" fill="white"/>
</clipPath>
</defs>
</svg>
