<svg width="141" height="147" viewBox="0 0 141 147" fill="none" xmlns="http://www.w3.org/2000/svg">
<rect width="141" height="147" fill="#F5F5F5"/>
<g clip-path="url(#clip0_0_1)">
<rect width="1920" height="13501" transform="translate(-1518 -183)" fill="white"/>
<g clip-path="url(#clip1_0_1)">
<path d="M73.7719 125.313L125.761 91.3244C127.246 90.3538 127.515 88.1368 126.361 86.3727L75.7117 8.8997C74.5583 7.13552 72.4199 6.49233 70.9351 7.46302L18.9458 41.4521L73.7719 125.313Z" fill="#AAD742"/>
<path d="M70.9351 7.46305L67.0767 9.9856C68.5613 9.01501 70.6998 9.6581 71.8532 11.4223L122.503 88.8952C123.656 90.6592 123.387 92.8763 121.903 93.8469L125.761 91.3244C127.246 90.3537 127.515 88.1369 126.361 86.3727L75.7116 8.89972C74.5583 7.13555 72.4199 6.49236 70.9351 7.46305Z" fill="#DCFA26"/>
<path d="M73.7719 125.314L65.032 131.027C63.5472 131.998 61.4088 131.355 60.2554 129.591L9.60585 52.1178C8.45248 50.3536 8.72109 48.1368 10.2058 47.1661L18.9458 41.4522L73.7719 125.314Z" fill="#6C7FD8"/>
<path d="M15.0874 43.9747L18.9459 41.4522L73.772 125.314L69.9135 127.836L15.0874 43.9747Z" fill="#4F66D0"/>
<path d="M64.3557 24.6397L40.0077 40.5578C43.2569 45.5277 42.5001 51.7735 38.3173 54.5081L69.5831 102.332C73.7658 99.5972 79.7907 101.409 83.0399 106.379L107.388 90.4612C104.139 85.4913 104.896 79.2455 109.078 76.5109L77.8126 28.6872C73.6298 31.4218 67.605 29.6097 64.3557 24.6397Z" fill="#FFE177"/>
<path d="M64.3555 24.6397L60.4971 27.1622C63.7463 32.1322 69.7711 33.9443 73.9539 31.2098L105.22 79.0334C101.037 81.768 100.28 88.0138 103.529 92.9837L107.388 90.4612C104.139 85.4912 104.895 79.2455 109.078 76.5109L77.8124 28.6872C73.6296 31.4218 67.6047 29.6096 64.3555 24.6397Z" fill="#FFD15B"/>
<path d="M83.6718 129.751L81.4571 131.199C79.9723 132.17 77.8339 131.527 76.6805 129.762L73.772 125.313L81.3632 120.351L84.2718 124.799C85.4252 126.564 85.1566 128.78 83.6718 129.751Z" fill="#FE6C55"/>
<path d="M77.5678 122.832L80.4763 127.281C81.4159 128.718 81.4113 130.455 80.5747 131.575C80.8843 131.503 81.182 131.379 81.4572 131.199L83.6719 129.751C85.1565 128.781 85.4253 126.564 84.2719 124.799L81.3633 120.351L77.5678 122.832Z" fill="#FD544D"/>
<path d="M56.2084 98.4488L54.4796 105.416C54.1768 106.636 53.0946 107.343 51.8558 107.131L44.7802 105.92L27.1155 78.9004L28.592 72.1607C28.8627 70.9254 29.9244 70.1835 31.1646 70.3626L38.5435 71.4291L56.2083 98.4489L56.2084 98.4488Z" fill="#FFE177"/>
<path d="M31.165 70.3625C29.9247 70.1832 28.863 70.9251 28.5924 72.1605L28.3992 73.043L34.6856 73.9514L52.3504 100.971L50.8639 106.961L51.8562 107.131C53.0952 107.343 54.1774 106.636 54.48 105.416L56.2088 98.4486L38.5441 71.4288L31.165 70.3625Z" fill="#FFD15B"/>
<path d="M110.423 61.9932C111.065 61.5735 111.181 60.6151 110.682 59.8525L76.8739 8.13983C75.2246 5.6171 72.1554 4.69411 70.0324 6.08207L9.30304 45.7852C7.18004 47.1732 6.79438 50.3548 8.44366 52.8775L59.0934 130.351C60.7427 132.873 63.8117 133.796 65.9348 132.408L73.5126 127.454L75.5185 130.523C77.1678 133.045 80.2368 133.968 82.3599 132.58L84.5747 131.132C86.6978 129.744 87.0835 126.563 85.4342 124.04L83.4283 120.972L126.664 92.7053C128.787 91.3173 129.173 88.1357 127.524 85.613L114.954 66.3873C114.456 65.6247 113.531 65.3465 112.889 65.7662C112.248 66.1859 112.132 67.1442 112.63 67.9068L125.199 87.1323C125.853 88.1322 125.7 89.3932 124.859 89.9434L74.0312 123.173L21.0106 42.0732L71.838 8.84377C72.6795 8.29359 73.8959 8.65945 74.5496 9.65937L108.358 61.3723C108.856 62.1347 109.781 62.4129 110.423 61.9932ZM28.7028 78.7909L30.0282 72.7413C30.1519 72.1784 30.6325 71.8424 31.1973 71.9242L37.8358 72.8836L54.6061 98.5352L53.0528 104.796C52.9149 105.351 52.4246 105.672 51.8604 105.575L45.5024 104.487L28.7028 78.7909ZM11.1086 48.5469L18.6863 43.5928L35.5877 69.4449L31.1324 68.8011C29.2112 68.5231 27.5754 69.6658 27.1562 71.5799L26.3612 75.2089L10.7681 51.3579C10.1142 50.3581 10.267 49.0971 11.1086 48.5469ZM61.4175 128.831L47.794 107.993L51.8514 108.687C52.8109 108.851 53.7075 108.661 54.4229 108.193C55.1381 107.726 55.6724 106.981 55.9068 106.036L56.898 102.041L71.7069 124.692L64.1292 129.647C63.2876 130.197 62.0713 129.831 61.4175 128.831ZM81.1039 122.491L83.1098 125.559C83.7635 126.559 83.6106 127.82 82.769 128.37L80.5543 129.818C79.7128 130.369 78.4964 130.003 77.8427 129.003L75.8367 125.935L81.1039 122.491Z" fill="black"/>
<path d="M81.8774 107.139C82.376 107.902 83.3004 108.18 83.9423 107.76L108.29 91.8421C108.932 91.4224 109.048 90.4641 108.55 89.7015C105.804 85.5009 106.446 80.203 109.981 77.8918C110.623 77.4721 110.739 76.5137 110.24 75.7511L78.9744 27.9275C78.4758 27.1649 77.5515 26.8867 76.9095 27.3064C73.3743 29.6176 68.2638 28.0805 65.5177 23.8801C65.0191 23.1175 64.0948 22.8393 63.4528 23.259L48.9237 32.7577C48.2817 33.1774 48.1658 34.1358 48.6643 34.8984C49.1629 35.661 50.0873 35.9391 50.7292 35.5194L64.1732 26.7302C67.7135 31.0118 73.2004 32.6621 77.4932 30.7365L107.073 75.9815C103.587 79.1414 102.898 84.8295 105.4 89.79L83.2221 104.289C79.6816 100.007 74.1947 98.3571 69.9022 100.283L40.3222 55.0376C43.808 51.878 44.4972 46.1899 41.9954 41.2294L45.051 39.2317C45.693 38.812 45.809 37.8537 45.3104 37.0911C44.8118 36.3285 43.8875 36.0503 43.2455 36.47L39.1047 39.1771C38.4627 39.5968 38.3468 40.5551 38.8453 41.3177C41.5915 45.5183 40.9495 50.816 37.4144 53.1271C36.7724 53.5468 36.6564 54.5052 37.155 55.2678L68.4208 103.091C68.9193 103.854 69.8437 104.132 70.4857 103.713C74.0207 101.401 79.1312 102.939 81.8774 107.139Z" fill="black"/>
<path d="M34.4128 47.5318C34.816 47.653 35.2017 47.5934 35.4991 47.399C35.7964 47.2046 36.0058 46.8754 36.0565 46.4572C36.1578 45.6212 35.5862 44.7469 34.7799 44.5045L30.201 43.1273C29.3945 42.8848 28.6587 43.3658 28.5574 44.2018C28.4562 45.0378 29.0278 45.9122 29.8341 46.1545L34.4128 47.5318Z" fill="black"/>
<path d="M71.9367 15.8415C71.1302 15.5991 70.3944 16.08 70.2931 16.916L69.718 21.6628C69.6167 22.4988 70.1883 23.3731 70.9946 23.6155C71.3978 23.7366 71.7836 23.6771 72.0809 23.4827C72.3783 23.2883 72.5877 22.959 72.6383 22.5409L73.2135 17.7941C73.3145 16.9583 72.7429 16.084 71.9367 15.8415Z" fill="black"/>
<path d="M75.1704 115.501C76.0709 115.682 76.6188 115.324 76.814 114.426L77.3891 109.68C77.4904 108.844 76.9188 107.969 76.1125 107.727C75.3059 107.484 74.5702 107.965 74.4689 108.801L73.8938 113.548C73.7923 114.384 74.364 115.258 75.1704 115.501Z" fill="black"/>
<path d="M116.907 88.2152C117.807 88.3963 118.355 88.0381 118.55 87.1407C118.651 86.3047 118.08 85.4303 117.274 85.188L112.695 83.8108C111.888 83.5683 111.152 84.0493 111.051 84.8853C110.95 85.7213 111.521 86.5956 112.328 86.838L116.907 88.2152Z" fill="black"/>
<path d="M47.4168 95.2708L37.6147 80.2777C37.1162 79.5151 36.1918 79.2369 35.5498 79.6566C34.9079 80.0763 34.7919 81.0346 35.2905 81.7972L45.0925 96.7903C45.5911 97.5529 46.5154 97.8311 47.1574 97.4114C47.7994 96.9917 47.9154 96.0334 47.4168 95.2708Z" fill="black"/>
</g>
</g>
<defs>
<clipPath id="clip0_0_1">
<rect width="1920" height="13501" fill="white" transform="translate(-1518 -183)"/>
</clipPath>
<clipPath id="clip1_0_1">
<rect width="94.7856" height="112.624" fill="white" transform="translate(0 51.8672) rotate(-33.1755)"/>
</clipPath>
</defs>
</svg>
