<svg width="139" height="159" viewBox="0 0 139 159" fill="none" xmlns="http://www.w3.org/2000/svg">
<path d="M132.255 51.5467C127.617 50.5521 122.813 50.0548 118.009 49.5575C108.899 48.7287 99.7883 48.563 90.6778 48.8945C88.5244 40.6063 86.3711 32.3182 84.2177 24.03C83.0582 19.7202 82.0643 15.5761 80.9048 11.2662C79.9109 7.61944 78.5857 3.97267 76.4324 0.823169C75.9354 -0.00564731 74.7759 -0.171451 73.9477 0.160075C71.9599 0.988891 70.8004 2.48076 69.6408 4.30416C68.15 6.45908 66.8249 8.77977 65.4997 11.1005C62.8494 15.5761 60.5304 20.0517 58.2114 24.6931C53.9046 33.4785 50.5917 42.7613 47.7757 52.2098C40.3217 51.0494 32.8676 50.2206 25.4136 49.889C21.4381 49.7233 17.6282 49.7233 13.6527 49.7233C11.665 49.7233 9.67727 49.889 7.68952 49.889C5.86743 49.889 3.71406 49.7233 2.22325 50.5521C-0.592724 51.8782 -0.261494 55.1935 1.22931 57.5141C3.05141 60.3321 6.19874 62.4871 8.84906 64.4762C14.6467 69.2834 21.1068 73.2617 27.7326 76.7427C28.8921 77.4057 31.3768 77.903 32.205 79.0634C33.1989 80.2237 32.2051 83.0417 32.0394 84.3678C31.3768 88.0146 30.3829 91.6614 29.2234 95.1424C26.7387 102.104 23.4259 108.901 20.4442 115.697C18.9534 119.012 17.6282 122.328 16.4687 125.809C15.4748 128.627 13.6527 132.439 14.1496 135.589C15.4748 143.379 26.9044 135.091 29.7203 132.771C41.6468 122.659 52.2482 111.056 61.0274 98.1261C67.3219 111.387 75.1072 123.819 84.052 135.423C86.0397 137.909 88.1931 140.561 91.506 141.225C94.6533 141.888 97.138 139.898 97.8005 136.915C99.6226 129.621 98.6289 121.167 97.4693 113.874C96.3098 106.083 94.322 98.2919 93.1625 90.501C92.8312 88.5119 92.6656 86.5227 92.5 84.6993C92.5 83.7047 92.1686 82.8759 93.1625 82.2129C93.8251 81.7156 94.9847 81.3841 95.8129 80.8868C98.9601 79.3949 102.107 78.2346 105.42 77.0742C111.88 74.7536 118.341 72.5986 124.47 69.6149C127.617 68.123 130.598 66.2996 133.249 64.3104C135.568 62.6528 139.046 60.3321 138.881 57.0169C138.384 53.5359 135.071 52.2097 132.255 51.5467ZM76.7637 12.5923C76.1011 11.7635 75.2729 10.9347 74.279 10.4374C74.279 10.4374 74.2789 10.4374 74.1133 10.4374C74.4446 9.6086 74.7759 8.77978 75.2728 7.95097C75.7698 9.44283 76.2667 10.9347 76.7637 12.5923ZM44.794 98.1261C48.9352 90.8325 53.242 83.539 57.7144 76.4111C57.5488 77.7372 57.2175 78.8976 56.8862 80.2237C52.9107 85.8597 49.1009 91.4956 45.291 97.2973C45.291 97.4631 44.9597 97.7946 44.794 98.1261ZM46.7818 75.5823C47.1131 75.4166 47.4444 75.0851 47.61 74.5878C47.7757 73.9247 47.9413 73.4274 48.2726 72.7644C49.1009 71.1068 49.9291 69.6149 50.7573 67.9573C49.1009 72.1013 47.2787 76.0796 45.6223 80.2237C45.291 80.058 45.1253 79.8922 44.794 79.7264C45.4566 78.2345 46.1192 76.9084 46.7818 75.5823ZM79.7453 73.5932C79.5796 73.5932 79.414 73.7589 79.2483 73.9247C79.0827 74.0905 78.7514 74.2563 78.5857 74.5878C78.4201 74.422 78.4201 74.2562 78.2544 73.9247C77.9231 70.7752 77.7575 67.7915 77.7575 64.642C77.9231 64.642 78.2545 64.642 78.4201 64.642C78.9171 67.6257 79.414 70.6095 79.7453 73.5932ZM73.6164 61.4925C72.9538 62.3213 72.9537 63.6474 73.782 64.1447C73.782 65.305 73.9477 66.4654 73.9477 67.7915C73.4507 67.6257 72.7882 67.46 72.2912 67.6257C72.2912 67.46 72.1255 67.4599 72.1255 67.2942C71.9599 66.9626 71.6286 66.6311 71.463 66.4654C72.2912 63.9789 73.1194 61.4925 73.782 59.006C73.6163 59.8348 73.6164 60.6636 73.6164 61.4925ZM67.4875 75.9139C67.8188 77.903 68.15 79.7264 68.3157 81.5498C68.3157 81.8813 68.3157 82.2129 68.3157 82.5444C67.8188 80.721 67.3219 78.8976 66.8249 77.0742C67.1562 76.5769 67.3218 76.2454 67.4875 75.9139ZM82.2299 87.6831C82.0643 85.8597 82.0642 84.0362 82.0642 82.2129C82.3955 82.3786 82.7268 82.3786 82.8925 82.2129C82.8925 84.5335 82.8925 86.6885 82.7269 89.0092C82.5612 88.5119 82.3956 88.0146 82.2299 87.6831ZM65.1685 70.7752C64.8372 69.4491 64.5058 68.123 64.1746 66.7969C65.831 64.4762 67.3219 62.1555 68.9783 60.0006C67.9844 63.6474 66.6593 67.1284 65.1685 70.7752ZM62.1868 75.0851C62.3524 75.4166 62.3525 75.9139 62.5181 76.2454C62.3525 76.0797 62.1868 76.0796 62.0212 75.9139C62.0212 75.7481 62.0211 75.4166 62.1868 75.0851ZM64.1746 82.5444C64.8371 84.6993 65.3341 87.02 65.9967 89.1749C64.8372 87.8488 63.8433 86.5227 62.6838 85.0308C63.1807 84.202 63.6776 83.3732 64.1746 82.5444ZM78.7513 105.917C76.4323 98.955 74.7759 91.6614 74.1133 84.3678C73.9476 82.7102 73.782 80.8868 73.782 79.2291C74.2789 80.2237 74.7759 81.384 75.2728 82.3786C76.101 87.8488 77.0949 93.319 78.7513 98.7892C78.7513 98.9549 78.917 99.1207 78.917 99.2865C79.2483 100.115 79.7452 100.613 80.4078 100.613C81.7329 105.751 83.3894 111.056 84.8802 116.194C83.0581 113.211 81.0704 110.227 79.2483 107.243C79.0827 106.746 78.917 106.249 78.7513 105.917ZM84.8802 101.441C85.2115 101.441 85.3772 101.441 85.7085 101.276C85.8741 102.602 85.8741 103.928 86.0398 105.42C85.5428 104.094 85.2115 102.767 84.8802 101.441ZM73.1194 27.3453C73.4507 29.1687 73.6164 30.992 73.9477 32.8154C73.9477 33.147 73.9477 33.6443 73.9477 33.9758C73.782 39.1145 73.6164 44.2531 73.6164 49.226C72.9538 49.0602 72.1255 49.226 71.6286 49.889C68.4813 53.7016 65.6654 57.5141 62.8494 61.4925C62.6838 61.3267 62.6837 61.3267 62.5181 61.161C63.8433 58.1772 65.1684 55.0277 66.3279 51.8782C68.4813 46.2423 70.6348 40.4406 70.6348 34.4731C72.1256 29.5002 73.2851 24.5273 74.279 19.3886C74.279 20.7147 74.1133 21.8751 74.1133 22.7039C74.1133 23.5327 74.1133 24.3615 74.1133 25.3561C73.4507 25.6876 73.1194 26.3507 73.1194 27.3453ZM28.2295 66.6311C28.0638 66.4654 27.8983 66.2996 27.567 66.1339L27.7326 65.9681C27.8982 66.2996 28.0638 66.4654 28.2295 66.6311ZM25.2479 62.3213C24.9166 62.6528 24.5854 62.8186 24.2541 63.1501C23.0945 61.9897 21.935 60.8294 20.7754 59.8348C22.2663 60.1663 23.7571 60.4979 25.2479 60.8294C25.0822 61.1609 25.0822 61.824 25.2479 62.3213ZM35.8492 64.3104C35.5179 64.9735 35.1867 65.8023 35.021 66.4654C34.6897 66.9626 34.3584 67.6257 34.1928 68.123C34.0271 67.7915 33.6958 67.46 33.5302 67.1284C34.1927 66.1339 35.021 65.1393 35.8492 64.3104ZM75.4384 108.901C77.7575 115.531 81.236 121.665 86.5367 126.472C86.868 126.803 87.1993 126.803 87.5306 126.803C87.8619 128.295 88.0275 129.787 88.1931 131.445C83.8864 125.477 79.7453 119.344 75.9354 113.045C73.4508 108.901 70.966 104.591 68.8126 100.281C68.3157 99.2865 67.8188 98.2919 67.3219 97.4631C70.1378 101.276 72.7881 105.088 75.4384 108.901ZM88.6901 72.1013C88.1931 72.2671 87.6962 72.4329 87.3649 72.7644C87.3649 71.7698 87.3649 70.7752 87.3649 69.7806C87.3649 69.2833 87.3649 68.9518 87.3649 68.4545C91.0091 67.1284 94.6533 65.9681 98.4632 64.9735C94.819 66.7969 91.506 69.2834 88.6901 72.1013ZM87.3649 63.9789V63.8132C87.6962 63.8132 88.0275 63.6474 88.5244 63.6474C88.0275 63.8132 87.6962 63.8131 87.3649 63.9789ZM69.9721 20.2174C69.1439 23.8642 68.3157 27.511 67.3219 31.1578C66.9906 31.3236 66.8249 31.6551 66.6592 31.9866C64.6715 36.2965 62.8494 40.4406 60.8617 44.7504C63.6776 36.4623 66.6592 28.3398 69.9721 20.2174ZM46.4505 57.3484C45.7879 57.5141 45.1254 57.6799 44.4628 57.6799C44.6285 57.1826 44.6284 56.8511 44.794 56.3538C44.794 56.1881 44.794 56.0223 44.794 56.0223C45.4566 56.1881 46.2849 56.1881 46.9475 56.3538C46.7819 56.6854 46.6161 57.0168 46.4505 57.3484ZM34.3584 106.414C34.8553 106.249 35.3522 105.917 35.6835 105.254C37.0087 101.939 38.3339 98.6234 39.8247 95.3082C40.8185 93.319 41.8125 91.1641 42.8064 89.1749C42.8064 89.1749 42.8063 89.3407 42.972 89.3407C40.3216 93.9821 38.1683 98.7892 36.6775 103.928C36.3462 105.42 37.1743 106.414 38.1682 106.58C35.3522 110.061 32.3706 113.542 29.389 117.023C31.0455 113.542 32.7019 110.061 34.3584 106.414ZM88.0275 87.6831C87.6962 87.3515 87.3649 87.1857 86.868 87.1857C86.868 85.1966 86.868 83.3732 87.0336 81.384C87.5305 81.0525 88.0275 80.721 88.5244 80.3895C88.1932 80.8868 88.0275 81.3841 87.8618 82.0471C87.6962 83.8705 87.6962 85.8597 88.0275 87.6831ZM110.224 65.305C109.893 65.1393 109.396 64.9735 108.899 65.1393C107.408 65.4708 105.917 65.9681 104.426 66.4654C110.058 63.8131 116.187 61.824 122.15 59.8348C122.813 59.6691 123.144 59.3376 123.31 58.8403C123.476 58.8403 123.807 58.8403 123.973 58.8403C123.973 58.8403 124.469 58.8403 124.966 58.8403C124.469 59.3376 124.138 60.0006 124.138 60.8294C119.5 62.3213 114.862 63.8132 110.224 65.305ZM89.1871 53.0386C97.138 52.5413 105.089 52.5412 112.874 53.2043C116.85 53.5358 120.66 53.8674 124.635 54.5304C124.966 54.5304 125.298 54.6962 125.629 54.6962C125.132 54.6962 124.47 54.6962 123.973 54.6962C118.672 54.6962 113.206 55.3592 107.905 56.1881C105.586 56.5196 103.267 57.0168 100.782 57.3484C100.948 57.3484 101.279 57.1827 101.445 57.1827C103.929 56.5196 103.598 52.707 100.782 53.0386C96.1442 53.5359 91.5061 54.0331 86.868 54.5304C86.7023 53.0386 86.5367 51.3809 86.3711 49.889C86.5367 50.3863 86.5367 50.8836 86.7024 51.2152C87.1993 52.5413 88.0276 53.2043 89.1871 53.0386ZM80.4078 26.3507C81.5673 31.1578 82.8925 35.7992 84.052 40.6063C83.3894 40.109 82.5612 40.109 81.5673 40.6063C81.236 40.7721 80.9047 41.1036 80.7391 41.4352C79.9109 37.7884 78.917 34.1416 78.0888 30.4948C78.0888 29.666 78.0888 29.0029 78.0888 28.1741C78.0888 25.0246 78.4201 21.8751 78.2544 18.7256C78.917 21.212 79.5796 23.6985 80.4078 26.3507ZM67.1562 15.9076C67.3218 15.7418 67.4875 15.4103 67.6532 15.2445C65.6654 20.0517 63.6777 24.8588 61.8556 29.666C61.3586 29.5002 60.6961 29.5002 60.1991 29.666C60.3648 29.1687 60.5304 28.8371 60.696 28.3398C62.6838 24.1957 64.8371 19.8859 67.1562 15.9076ZM36.0148 54.8619C35.1866 55.3592 34.5241 56.0223 33.6959 56.5196C33.5302 56.3538 33.1989 56.3538 33.0332 56.3538C27.5669 56.1881 22.1007 55.3593 16.8 53.8674C19.2847 53.8674 21.7694 53.8673 24.2541 54.0331C28.2296 54.1989 32.205 54.5304 36.0148 54.8619ZM5.53616 56.6853C5.03922 56.3538 3.8797 55.3593 3.8797 54.6962L3.714 54.3647C3.87964 54.1989 5.20486 54.1989 5.53616 54.1989C7.5239 54.0331 9.5116 54.0332 11.4993 53.8674C11.8306 53.8674 12.3276 53.8674 12.6589 53.8674C12.4932 54.0332 12.4932 54.0331 12.3276 54.1989C11.4993 54.1989 10.8367 54.0331 10.0085 54.0331C8.02075 53.8673 6.69565 56.5196 8.51775 57.6799C12.6589 60.8294 16.8 63.8132 21.1068 66.9627C22.5976 68.6203 24.254 70.1121 26.0761 71.4382C24.5853 70.6094 23.0945 69.7807 21.6037 68.7861C15.9717 65.305 10.5055 61.3267 5.53616 56.6853ZM25.5792 130.45C24.4197 131.445 23.2601 132.273 21.935 133.102C21.4381 133.434 18.1252 135.091 17.6282 134.594C17.1313 134.097 18.6221 130.947 18.7878 130.284C19.2847 128.627 19.7817 127.135 20.4442 125.477C21.6038 122.328 22.9289 119.178 24.4197 116.194C27.07 110.227 30.0516 104.259 32.205 97.9604C33.3645 94.8109 34.3584 91.8271 35.021 88.5119C35.6836 85.6939 36.5118 82.3787 36.1805 79.5607C36.1805 78.8976 35.8492 78.2346 35.6835 77.7373C35.6835 77.7373 35.8492 77.7373 35.8492 77.9031C36.3462 78.2346 37.1744 78.4003 37.6713 78.2345C37.34 79.2291 37.1744 80.2237 36.8431 81.2183C36.3461 82.5444 37.34 83.7047 38.3339 84.0363C36.0149 89.5064 34.0271 95.1424 32.5363 100.944C28.2295 109.73 24.2541 118.515 20.4442 127.466C19.4504 129.787 22.4319 131.113 24.0884 129.455C27.2356 126.14 30.3829 122.659 33.3646 119.012C34.0271 120.173 35.5179 120.67 36.6775 119.344C44.7941 110.393 52.745 100.944 59.2052 90.6668C59.3708 91.3298 59.5365 91.8271 59.7021 92.3244C59.3708 92.4902 59.2052 92.6559 59.0396 92.9875C51.5856 104.259 42.8063 114.702 33.0332 123.819C30.7142 125.974 28.2295 128.295 25.5792 130.45ZM93.4938 134.594C93.3282 135.257 93.3282 136.086 92.9969 136.583C92.9969 129.124 92.9968 121.499 92.8312 114.039C93.3281 117.355 93.8251 120.504 93.9907 123.819C94.1564 127.466 93.9907 131.113 93.4938 134.594ZM102.77 73.2617C100.451 74.0905 97.9662 75.0851 95.6472 76.0796C98.9601 74.2563 102.273 72.4328 105.586 70.941C111.052 69.1176 116.519 67.4599 121.985 65.6365C121.322 65.9681 120.66 66.2996 120.163 66.4654C114.531 69.2833 108.567 71.1067 102.77 73.2617ZM128.611 61.9898C128.611 61.6582 128.445 61.3267 128.445 61.161C128.611 60.9952 128.776 60.8294 128.942 60.6636C129.273 60.3321 129.439 59.8349 129.604 59.5033C129.936 58.6745 130.101 57.5141 129.604 56.6853C129.108 55.8565 128.445 55.3592 127.782 55.0277C128.445 55.1935 129.273 55.1935 129.936 55.3592C130.93 55.525 133.414 55.6908 134.077 56.6853C134.905 57.8457 130.101 60.9952 128.611 61.9898Z" fill="#FFE600"/>
<path d="M102.438 28.6707C102.603 29.3338 102.934 29.8311 103.266 30.1626C103.928 30.6599 104.922 30.8256 105.75 30.8256C106.91 30.6599 108.235 30.1626 109.395 29.4995C111.714 28.3392 113.701 26.6816 115.358 24.5266C116.186 23.5321 116.849 22.3717 117.346 21.2114C117.677 20.5483 117.842 19.8853 118.008 19.2222C118.174 17.8961 117.18 16.57 115.855 16.4043C114.53 16.2385 113.039 17.0673 111.879 17.7303C110.72 18.3934 109.56 19.2222 108.566 20.051C106.413 22.0402 104.591 24.3609 102.934 26.6815C102.603 27.1788 102.437 27.8419 102.603 28.505C102.437 28.505 102.438 28.505 102.438 28.6707ZM115.358 20.3826C115.523 20.3826 115.523 20.2168 115.523 20.3826C115.523 20.3826 115.523 20.3826 115.358 20.3826Z" fill="#FFE600"/>
<path d="M30.2089 23.8638C31.5341 27.3448 33.6876 30.3286 36.1722 32.815C36.8348 33.4781 37.8286 33.3123 38.4912 32.815C39.1538 32.4835 39.4851 31.9862 39.6507 31.1574C40.3133 28.3394 38.1599 25.5215 36.8348 23.2008C35.5096 20.5486 34.3501 17.8963 33.3562 15.2441C33.025 14.5811 32.3624 14.0838 31.6998 14.0838C30.3746 13.918 29.3807 14.5811 28.8838 15.7414C28.5525 16.5702 28.5525 17.5648 28.7182 18.5594C29.0495 20.3828 29.5464 22.0404 30.2089 23.8638Z" fill="#FFE600"/>
<path d="M123.644 109.067C121.656 107.243 119.006 105.751 116.355 104.923C115.361 104.591 114.036 104.923 113.705 106.083C113.374 106.912 113.705 108.072 114.533 108.569C115.858 110.724 117.018 112.879 118.343 115.2C119.668 117.355 120.828 120.007 123.644 120.67C124.969 121.002 126.46 120.504 127.288 119.344C128.116 118.184 127.951 116.526 127.619 115.2C126.957 112.714 125.466 110.724 123.644 109.067ZM123.644 116.029C123.809 116.195 123.809 116.195 123.644 116.029C123.809 116.195 123.809 116.029 123.644 116.029ZM122.816 114.868C122.816 114.703 122.65 114.703 122.65 114.537C122.319 114.04 122.153 113.542 121.822 113.045C121.822 113.045 121.822 112.879 121.656 112.879C121.987 113.211 122.153 113.542 122.319 113.708C122.484 113.874 122.484 114.04 122.65 114.205L122.816 114.537C122.981 114.868 123.147 115.2 123.312 115.531C123.312 115.366 123.147 115.366 123.147 115.2C123.147 115.2 122.981 115.034 122.816 114.868ZM123.644 117.189C123.644 117.023 123.644 117.023 123.644 117.189Z" fill="#FFE600"/>
<path d="M60.8559 133.599C60.5246 133.599 60.3589 133.599 60.0276 133.599C56.2178 133.102 55.5553 138.24 54.8927 140.893C53.8988 144.539 53.2362 148.186 53.0705 151.833C52.9049 153.491 52.7393 155.314 53.7331 156.806C54.5614 158.298 56.3834 159.127 58.0399 158.464C59.862 157.801 60.0277 155.811 60.1933 154.154C60.359 152.33 60.5246 150.341 60.8559 148.518C61.3528 144.208 62.0154 139.898 62.8436 135.754C62.8436 134.759 61.8497 133.765 60.8559 133.599ZM55.8865 154.817C55.8865 154.983 55.8865 155.148 55.8865 155.148C55.7209 154.983 55.7209 154.983 55.8865 154.817Z" fill="#FFE600"/>
<path d="M11.1628 93.8159C9.1751 94.479 7.1874 95.4736 5.19965 96.4682C4.04014 97.1312 3.04626 97.7943 1.88675 98.4573C0.72723 99.2862 -0.266703 100.612 0.0645879 102.104C0.395879 103.927 2.21802 105.088 4.04012 104.425C4.53705 104.259 5.03403 103.928 5.53097 103.596C6.19355 103.264 6.85605 102.767 7.51863 102.436C9.67202 101.11 11.8255 99.7834 13.8132 98.4573C14.4758 97.96 14.9728 97.4628 15.4697 96.7997C15.9666 95.8051 16.1323 94.479 15.4697 93.6502C14.3102 92.4899 12.3224 92.6556 11.1628 93.8159Z" fill="#FFE600"/>
</svg>
