<svg width="73" height="72" viewBox="0 0 73 72" fill="none" xmlns="http://www.w3.org/2000/svg">
<path d="M64.3961 36C64.3961 41.4715 62.7736 46.8201 59.7339 51.3694C56.6941 55.9188 52.3735 59.4645 47.3186 61.5584C42.2636 63.6522 36.7012 64.2001 31.3349 63.1326C25.9686 62.0652 21.0393 59.4304 17.1704 55.5615C13.3015 51.6926 10.6667 46.7633 9.5993 41.397C8.53187 36.0307 9.07971 30.4683 11.1736 25.4134C13.2674 20.3584 16.8132 16.0378 21.3625 12.9981C25.9119 9.95828 31.2605 8.33581 36.7319 8.33581C44.0689 8.33581 51.1054 11.2504 56.2935 16.4385C61.4815 21.6265 64.3961 28.663 64.3961 36ZM38.6001 0.77055C38.1036 0.277018 37.432 0 36.7319 0C36.0319 0 35.3603 0.277018 34.8638 0.77055L26.6493 8.98501C26.1612 9.47622 25.5001 9.7568 24.8077 9.76671H13.1485C12.4457 9.76671 11.7717 10.0459 11.2748 10.5428C10.7778 11.0398 10.4986 11.7138 10.4986 12.4165V24.0758C10.4989 24.4254 10.43 24.7717 10.2958 25.0946C10.1617 25.4175 9.96493 25.7106 9.71695 25.9572L1.50248 34.1716C1.00895 34.6681 0.731934 35.3397 0.731934 36.0397C0.731934 36.7398 1.00895 37.4114 1.50248 37.9079L9.71695 46.1223C10.1987 46.6007 10.4785 47.2456 10.4986 47.9242V59.5835C10.4986 60.2862 10.7778 60.9602 11.2748 61.4572C11.7717 61.9541 12.4457 62.2333 13.1485 62.2333H24.8077C25.1574 62.233 25.5036 62.3019 25.8265 62.4361C26.1494 62.5703 26.4426 62.767 26.6891 63.015L34.9036 71.2295C35.4 71.723 36.0716 72 36.7717 72C37.4717 72 38.1433 71.723 38.6398 71.2295L46.8543 63.015C47.3326 62.5332 47.9776 62.2534 48.6562 62.2333H60.3154C61.0182 62.2333 61.6922 61.9541 62.1891 61.4572C62.686 60.9602 62.9652 60.2862 62.9652 59.5835V47.9242C62.9649 47.5746 63.0339 47.2283 63.168 46.9054C63.3022 46.5825 63.4989 46.2894 63.7469 46.0428L71.9614 37.8284C72.4549 37.3319 72.7319 36.6603 72.7319 35.9603C72.7319 35.2602 72.4549 34.5886 71.9614 34.0921L63.7469 25.8777C63.2652 25.3993 62.9853 24.7544 62.9652 24.0758V12.4165C62.9652 11.7138 62.686 11.0398 62.1891 10.5428C61.6922 10.0459 61.0182 9.76671 60.3154 9.76671H48.6562C48.3065 9.76699 47.9602 9.69806 47.6373 9.5639C47.3144 9.42974 47.0213 9.233 46.7748 8.98501L38.6001 0.77055Z" fill="#4259CC"/>
<path fill-rule="evenodd" clip-rule="evenodd" d="M59.1474 35.9996C59.1474 40.4334 57.8326 44.7676 55.3694 48.4542C52.9061 52.1407 49.4049 55.014 45.3087 56.7107C41.2124 58.4075 36.705 58.8514 32.3564 57.9864C28.0078 57.1214 24.0134 54.9864 20.8783 51.8512C17.7431 48.7161 15.6081 44.7217 14.7431 40.3731C13.8781 36.0245 14.322 31.5171 16.0188 27.4208C17.7155 23.3246 20.5888 19.8234 24.2753 17.3601C27.9619 14.8969 32.2961 13.5821 36.7299 13.5821C39.6743 13.5804 42.5901 14.159 45.3107 15.285C48.0313 16.411 50.5033 18.0622 52.5853 20.1442C54.6673 22.2262 56.3185 24.6982 57.4445 27.4188C58.5705 30.1394 59.1491 33.0552 59.1474 35.9996ZM64.447 35.9996C64.447 41.4688 62.8259 46.8153 59.7884 51.3635C56.751 55.9117 52.4336 59.4575 47.3817 61.5529C42.3298 63.6483 36.7702 64.1992 31.4053 63.1361C26.0404 62.0729 21.1111 59.4434 17.24 55.5798C13.369 51.7162 10.7301 46.7919 9.6567 41.4291C8.5833 36.0662 9.12358 30.5056 11.2093 25.4497C13.295 20.3938 16.8325 16.0696 21.3749 13.0234C25.9173 9.97731 31.2607 8.34593 36.7299 8.33545C44.0669 8.33545 51.1034 11.2501 56.2914 16.4381C61.4794 21.6261 64.3941 28.6626 64.3941 35.9996H64.447Z" fill="white"/>
<path d="M23.1458 42.9068V42.615C23.6321 42.615 24.1791 42.4266 24.7869 42.0498C25.4068 41.673 25.9295 41.1868 26.3549 40.5911C26.7925 39.9834 27.0113 39.3573 27.0113 38.7131C27.0113 38.5186 26.9809 38.2998 26.9202 38.0567L25.8444 33.9724L28.7435 32.5867L28.6706 38.8772C28.6584 39.7767 28.4761 40.6398 28.1236 41.4663C27.7832 42.2929 27.3213 42.9979 26.7378 43.5814C26.1665 44.1649 25.5527 44.5539 24.8963 44.7484L23.1458 42.9068Z" fill="#4259CC"/>
<path d="M33.0164 41.3205C32.2263 41.3205 31.576 41.1928 31.0655 40.9376C30.5671 40.6701 30.172 40.2082 29.8803 39.5518C29.6007 38.8954 29.4305 37.9716 29.3698 36.7804L28.768 28.63L31.5578 27.7366L31.3754 36.6527C31.3268 38.3302 31.8738 39.1689 33.0164 39.1689C33.1015 39.1689 33.1805 39.2844 33.2535 39.5154C33.3386 39.7342 33.3811 39.9773 33.3811 40.2447C33.3811 40.5 33.3386 40.7431 33.2535 40.974C33.1805 41.205 33.1015 41.3205 33.0164 41.3205Z" fill="#4259CC"/>
<path d="M31.5028 41.3205C31.4177 41.3205 31.3387 41.2111 31.2658 40.9923C31.1807 40.7613 31.1382 40.5121 31.1382 40.2447C31.1382 39.9773 31.1746 39.7342 31.2476 39.5154C31.3205 39.2844 31.4056 39.1689 31.5028 39.1689C32.0741 39.1689 32.7002 39.0595 33.3809 38.8407C34.0616 38.6098 34.639 38.2816 35.113 37.8561C35.5993 37.4185 35.8424 36.9141 35.8424 36.3428C35.8424 36.0024 35.7269 35.6924 35.4959 35.4128C35.265 35.1211 34.9368 34.8902 34.5113 34.72C34.098 34.5376 33.6179 34.4465 33.0709 34.4465C32.8521 34.4465 32.6819 34.4526 32.5604 34.4647L31.7763 33.1154L38.1033 27.1531L39.6896 29.5964L34.1102 33.1337C34.8638 33.1337 35.581 33.2674 36.2617 33.5348C36.9546 33.8022 37.5138 34.1912 37.9392 34.7017C38.3647 35.2123 38.5774 35.814 38.5774 36.5069C38.5774 37.5887 38.2006 38.4943 37.4469 39.2236C36.6933 39.9408 35.7694 40.4696 34.6754 40.8099C33.5814 41.1503 32.5239 41.3205 31.5028 41.3205Z" fill="#4259CC"/>
<path d="M41.9849 41.3205C41.0003 41.3205 40.2528 41.1625 39.7422 40.8464C39.2317 40.5304 38.9521 40.0198 38.9035 39.3148L39.6146 38.3667C39.7726 38.6706 40.0218 38.8772 40.3622 38.9866C40.7025 39.0838 41.1097 39.1325 41.5838 39.1325C42.2524 39.1325 42.7933 38.9623 43.2066 38.6219C43.632 38.2694 43.8448 37.8318 43.8448 37.3091C43.8448 36.677 43.5469 36.0449 42.9513 35.4128C42.5866 35.036 42.2037 34.7321 41.8026 34.5012C41.4136 34.2581 40.9882 34.0332 40.5263 33.8265L40.4898 33.626L42.0761 31.4015C42.6596 31.7297 43.3038 32.2706 44.0089 33.0243C44.7139 33.7658 45.1211 34.7747 45.2305 36.051C45.2548 36.4157 45.267 36.7074 45.267 36.9262C45.267 38.1296 45.0178 39.1629 44.5194 40.0259C44.0332 40.8889 43.1884 41.3205 41.9849 41.3205ZM40.8727 29.3958C40.8727 29.0676 40.9882 28.788 41.2191 28.5571C41.4623 28.3261 41.7418 28.2107 42.0579 28.2107C42.3861 28.2107 42.6657 28.3261 42.8966 28.5571C43.1276 28.788 43.243 29.0676 43.243 29.3958C43.243 29.7119 43.1276 29.9854 42.8966 30.2163C42.6657 30.4473 42.3861 30.5628 42.0579 30.5628C41.7418 30.5628 41.4623 30.4473 41.2191 30.2163C40.9882 29.9854 40.8727 29.7119 40.8727 29.3958Z" fill="#4259CC"/>
<path d="M45.2191 31.3286L47.9906 30.1799L47.6442 38.6949L46.149 41.2658H45.9302L45.2191 31.3286ZM44.9092 29.4323L46.0579 29.1953V29.177C45.7783 29.1527 45.517 29.0555 45.2738 28.8853C45.0307 28.7151 44.9092 28.4295 44.9092 28.0283C44.9092 27.7001 45.0125 27.3719 45.2191 27.0437C45.4379 26.7155 45.7114 26.4542 46.0396 26.2597C46.38 26.053 46.7386 25.9497 47.1154 25.9497C47.3828 25.9497 47.6077 25.9983 47.7901 26.0956C47.9845 26.1928 48.0939 26.2961 48.1183 26.4055C48.0696 26.5514 47.9906 26.7459 47.8812 26.989C47.7718 27.22 47.6867 27.3841 47.626 27.4813L47.5166 27.4995C47.3099 27.2564 47.0546 27.1349 46.7507 27.1349C46.5198 27.1349 46.3071 27.2078 46.1126 27.3537C45.9302 27.4874 45.8391 27.6272 45.8391 27.773C45.8391 27.9797 45.991 28.1073 46.2949 28.1559C46.5988 28.1924 46.9574 28.2046 47.3707 28.1924L47.8995 28.1559C48.0453 28.1316 48.1426 28.1195 48.1912 28.1195C48.3492 28.1195 48.4221 28.1803 48.41 28.3018L48.1547 29.25L44.9639 30.6722L44.8362 30.6175L44.9092 29.4323Z" fill="#4259CC"/>
<path fill-rule="evenodd" clip-rule="evenodd" d="M33.9056 19.0408C35.7735 18.7227 37.6818 18.7227 39.5497 19.0408C39.7237 19.0695 39.9016 19.0636 40.0733 19.0236C40.2451 18.9835 40.4072 18.91 40.5506 18.8073C40.6939 18.7046 40.8156 18.5746 40.9087 18.4248C41.0018 18.2751 41.0645 18.1085 41.0932 17.9345C41.1219 17.7605 41.1161 17.5825 41.076 17.4108C41.036 17.2391 40.9625 17.0769 40.8597 16.9336C40.757 16.7903 40.6271 16.6686 40.4773 16.5755C40.3275 16.4823 40.1609 16.4196 39.9869 16.3909C37.8284 16.0377 35.6268 16.0377 33.4683 16.3909C33.1169 16.4489 32.803 16.6441 32.5955 16.9336C32.388 17.223 32.3041 17.5831 32.362 17.9345C32.42 18.2859 32.6152 18.5998 32.9047 18.8073C33.1941 19.0148 33.5542 19.0987 33.9056 19.0408ZM46.7307 22.0086C48.2643 23.1069 49.6071 24.4497 50.7055 25.9833C50.9093 26.2697 51.2185 26.4634 51.5651 26.5218C51.9117 26.5802 52.2673 26.4985 52.5537 26.2947C52.8401 26.0909 53.0338 25.7816 53.0922 25.435C53.1506 25.0884 53.0689 24.7328 52.8651 24.4464C51.5903 22.668 50.0328 21.1105 48.2544 19.8357C47.968 19.6319 47.6124 19.5502 47.2658 19.6086C46.9191 19.667 46.6099 19.8607 46.4061 20.1471C46.2023 20.4335 46.1206 20.7891 46.179 21.1357C46.2374 21.4823 46.4311 21.7915 46.7175 21.9953L46.7307 22.0086ZM22.7365 25.9833C23.8349 24.4497 25.1776 23.1069 26.7113 22.0086C26.9977 21.8048 27.1913 21.4955 27.2497 21.1489C27.3081 20.8023 27.2264 20.4467 27.0226 20.1603C26.8188 19.8739 26.5096 19.6802 26.163 19.6219C25.8164 19.5635 25.4608 19.6452 25.1744 19.849C23.396 21.1237 21.8385 22.6813 20.5637 24.4597C20.3599 24.746 20.2782 25.1017 20.3366 25.4483C20.395 25.7949 20.5886 26.1041 20.875 26.3079C21.1614 26.5117 21.517 26.5934 21.8636 26.535C22.2103 26.4766 22.5195 26.2829 22.7233 25.9966L22.7365 25.9833ZM53.6865 33.1776C54.0046 35.0455 54.0046 36.9538 53.6865 38.8217C53.6285 39.1731 53.7125 39.5331 53.92 39.8226C54.1275 40.1121 54.4414 40.3073 54.7928 40.3652C55.1442 40.4232 55.5042 40.3392 55.7937 40.1318C56.0832 39.9243 56.2784 39.6103 56.3363 39.2589C56.6896 37.1004 56.6896 34.8989 56.3363 32.7404C56.2784 32.389 56.0832 32.075 55.7937 31.8675C55.5042 31.6601 55.1442 31.5761 54.7928 31.6341C54.4414 31.692 54.1275 31.8872 53.92 32.1767C53.7125 32.4662 53.6285 32.8262 53.6865 33.1776ZM19.7555 38.8217C19.4552 36.9523 19.4552 35.047 19.7555 33.1776C19.813 32.8315 19.7309 32.4768 19.5273 32.1912C19.3236 31.9055 19.015 31.7123 18.669 31.6539C18.323 31.5964 17.9683 31.6785 17.6826 31.8822C17.397 32.0858 17.2038 32.3945 17.1454 32.7404C16.7921 34.8989 16.7921 37.1004 17.1454 39.2589C17.2038 39.6049 17.397 39.9135 17.6826 40.1171C17.9683 40.3208 18.323 40.4029 18.669 40.3454C19.015 40.287 19.3236 40.0938 19.5273 39.8082C19.7309 39.5225 19.813 39.1678 19.7555 38.8217ZM26.7245 49.9907C25.1909 48.8924 23.8481 47.5496 22.7498 46.016C22.546 45.7296 22.2368 45.5359 21.8901 45.4775C21.5435 45.4192 21.1879 45.5008 20.9015 45.7047C20.6151 45.9085 20.4215 46.2177 20.3631 46.5643C20.3047 46.9109 20.3864 47.2665 20.5902 47.5529C21.865 49.3313 23.4225 50.8888 25.2009 52.1636C25.4873 52.3674 25.8429 52.4491 26.1895 52.3907C26.5361 52.3323 26.8453 52.1386 27.0491 51.8522C27.2529 51.5659 27.3346 51.2103 27.2762 50.8636C27.2178 50.517 27.0242 50.2078 26.7378 50.004L26.7245 49.9907ZM50.7187 46.016C49.6204 47.5496 48.2776 48.8924 46.744 49.9907C46.4576 50.1946 46.2639 50.5038 46.2055 50.8504C46.1471 51.197 46.2288 51.5526 46.4326 51.839C46.6364 52.1254 46.9456 52.3191 47.2923 52.3775C47.6389 52.4359 47.9945 52.3542 48.2809 52.1504C50.0593 50.8756 51.6168 49.318 52.8916 47.5397C53.0954 47.2533 53.1771 46.8977 53.1187 46.551C53.0603 46.2044 52.8666 45.8952 52.5802 45.6914C52.2938 45.4876 51.9382 45.4059 51.5916 45.4643C51.245 45.5227 50.9358 45.7164 50.732 46.0028L50.7187 46.016ZM39.5497 52.9585C37.6818 53.2766 35.7735 53.2766 33.9056 52.9585C33.5542 52.9006 33.1941 52.9846 32.9047 53.192C32.6152 53.3995 32.42 53.7135 32.362 54.0649C32.3041 54.4162 32.388 54.7763 32.5955 55.0657C32.803 55.3552 33.1169 55.5504 33.4683 55.6084C35.6268 55.9617 37.8284 55.9617 39.9869 55.6084C40.3383 55.5504 40.6523 55.3552 40.8597 55.0657C41.0672 54.7763 41.1512 54.4162 41.0932 54.0649C41.0352 53.7135 40.84 53.3995 40.5506 53.192C40.2611 52.9846 39.9011 52.9006 39.5497 52.9585Z" fill="#4259CC"/>
</svg>
