<svg width="25" height="25" viewBox="0 0 25 25" fill="none" xmlns="http://www.w3.org/2000/svg">
<path id="Star 15" d="M9.64683 2.78116C10.5449 0.0172238 14.4551 0.0172219 15.3532 2.78115L16.2045 5.40122C16.6061 6.63729 17.758 7.47417 19.0577 7.47417H21.8125C24.7187 7.47417 25.927 11.193 23.5759 12.9012L21.3471 14.5205C20.2957 15.2844 19.8557 16.6385 20.2573 17.8746L21.1086 20.4947C22.0067 23.2586 18.8433 25.557 16.4921 23.8488L14.2634 22.2295C13.2119 21.4656 11.7881 21.4656 10.7366 22.2295L8.50788 23.8488C6.15674 25.557 2.9933 23.2586 3.89136 20.4947L4.74267 17.8746C5.14429 16.6385 4.70432 15.2844 3.65285 14.5205L1.4241 12.9012C-0.927045 11.193 0.281281 7.47417 3.18745 7.47417H5.94235C7.24203 7.47417 8.3939 6.63729 8.79552 5.40122L9.64683 2.78116Z" fill="#4259CC"/>
</svg>
