<svg width="25" height="26" viewBox="0 0 25 26" fill="none" xmlns="http://www.w3.org/2000/svg">
<path d="M2.41077 16.2412C-0.374289 15.411 -0.469852 11.5019 2.27131 10.5366L4.86978 9.62147C6.09567 9.18976 6.90415 8.01778 6.87239 6.71849L6.80506 3.96442C6.73404 1.05912 10.4222 -0.239735 12.1874 2.06896L13.8607 4.25748C14.6501 5.28996 16.0145 5.69671 17.2404 5.265L19.8389 4.34991C22.58 3.38457 24.955 6.4909 23.3048 8.88309L21.7405 11.1508C21.0025 12.2206 21.0373 13.6439 21.8267 14.6764L23.4999 16.8649C25.2651 19.1736 23.0447 22.3923 20.2597 21.5621L17.6196 20.775C16.3741 20.4037 15.0311 20.8767 14.2931 21.9465L12.7288 24.2142C11.0785 26.6063 7.33126 25.4893 7.26024 22.584L7.19291 19.8299C7.16115 18.5306 6.29637 17.3995 5.05085 17.0282L2.41077 16.2412Z" fill="#4259CC"/>
</svg>
