<svg width="72" height="56" viewBox="0 0 72 56" fill="none" xmlns="http://www.w3.org/2000/svg">
<circle cx="35.4976" cy="27.7661" r="26" fill="white" stroke="white" stroke-width="3"/>
<path d="M71.8836 7.86065L71.6285 7.89544L42.8982 11.3389L14.6664 8.01138H14.6548L9.33308 7.38529L3.47803 6.70124L30.4113 3.46647C31.7746 3.30415 33.1523 3.30415 34.5156 3.46647L71.8836 7.86065Z" fill="#7070F2"/>
<path d="M71.8799 18.2955L71.6248 18.3303L42.8945 21.7737C42.8083 21.7743 42.7224 21.7626 42.6394 21.7389C41.48 21.4491 40.5757 19.2462 40.5757 16.5563C40.5757 13.6694 41.6192 11.339 42.8945 11.339L71.6248 7.89551C70.4654 8.18536 69.5611 10.3883 69.5611 13.0781C69.5611 15.965 70.6046 18.2955 71.8799 18.2955Z" fill="#EAEAEA"/>
<path d="M71.8799 28.73C71.7585 28.7283 71.6375 28.7439 71.5205 28.7764L42.8945 32.2083C42.8083 32.2089 42.7224 32.1972 42.6394 32.1735C41.48 31.8837 40.5757 29.6808 40.5757 26.9909C40.5757 24.104 41.6192 21.7735 42.8945 21.7735L71.6248 18.3301C70.4654 18.6199 69.5611 20.8228 69.5611 23.5127C69.5611 26.3996 70.6046 28.73 71.8799 28.73Z" fill="#EAEAEA"/>
<path d="M71.6248 18.3301C70.8828 18.5156 70.2451 19.4779 69.8857 20.8576L42.8945 24.0924C41.8047 24.0924 40.8771 25.8083 40.6337 28.1271C40.5989 27.7677 40.5757 27.3851 40.5757 26.9909C40.5757 24.104 41.6192 21.7735 42.8945 21.7735L71.6248 18.3301Z" fill="#DAD4D4"/>
<path d="M71.6248 7.89551C70.8828 8.08101 70.2451 9.04333 69.8857 10.423L42.8945 13.6578C41.8047 13.6578 40.8771 15.3737 40.6337 17.6926C40.5989 17.3332 40.5757 16.9505 40.5757 16.5563C40.5757 13.6694 41.6192 11.339 42.8945 11.339L71.6248 7.89551Z" fill="#DAD4D4"/>
<path d="M71.8832 44.9613L71.0485 45.0657L60.2891 46.3526V37.0773L53.3326 37.9121V47.1874L42.8978 48.4396L42.5384 48.3932C42.4252 48.3702 42.3159 48.3311 42.2138 48.2773C42.1085 48.2281 42.0076 48.1699 41.9123 48.1033C41.9034 48.1025 41.8952 48.0984 41.8891 48.0918C41.808 48.0338 41.7152 47.9642 41.6341 47.8946C41.5171 47.7872 41.4086 47.6709 41.3094 47.5468C41.2114 47.4341 41.1222 47.3139 41.0428 47.1874C40.8633 46.9257 40.7044 46.6505 40.5674 46.3642C40.4747 46.1671 40.3935 45.9584 40.3007 45.7381C40.2428 45.5758 40.1848 45.4019 40.1268 45.228C40.0551 45.0312 39.997 44.8298 39.9529 44.6251C39.8949 44.428 39.8486 44.2193 39.8022 44.0106C39.656 43.3692 39.5553 42.7183 39.5007 42.0628V42.028C39.4442 41.4617 39.4171 40.8928 39.4196 40.3237C39.4196 35.8367 40.9732 32.2077 42.8978 32.2077L71.5238 28.7759C71.4815 28.7797 71.4412 28.7958 71.4079 28.8223C69.7151 29.3324 68.405 32.7295 68.405 36.8454C68.405 41.3324 69.9586 44.9613 71.8832 44.9613Z" fill="#EAEAEA"/>
<path d="M71.8832 44.9613L71.0485 45.0657L60.2891 46.3526V42.8744C61.5885 42.7087 62.7809 42.0686 63.637 41.0771C64.4931 40.0855 64.9524 38.8125 64.9267 37.5028C64.9267 37.4425 64.9267 37.3869 64.9267 37.3208V37.2744C64.9352 36.7496 64.8318 36.2289 64.6234 35.7472C64.415 35.2654 64.1064 34.8336 63.7181 34.4804C63.3298 34.1272 62.8707 33.8607 62.3715 33.6988C61.8722 33.5368 61.3441 33.4831 60.8224 33.5411L42.8978 35.686C42.5066 35.7263 42.1315 35.8631 41.8061 36.084C41.4807 36.305 41.2152 36.6033 41.0335 36.9521C40.4076 37.9077 40.0598 39.0185 40.0291 40.1604C39.9984 41.3024 40.2859 42.4303 40.8596 43.4181C41.0245 43.7676 41.2582 44.0803 41.5466 44.3374C41.8351 44.5946 42.1724 44.791 42.5384 44.915L42.8978 44.9613L53.3326 43.7092V47.1874L42.8978 48.4396L42.5384 48.3932C42.4252 48.3702 42.3159 48.3311 42.2138 48.2773C42.1085 48.2281 42.0076 48.1699 41.9123 48.1033C41.9034 48.1025 41.8952 48.0984 41.8891 48.0918C41.808 48.0338 41.7152 47.9642 41.6341 47.8946C41.5171 47.7872 41.4086 47.6709 41.3094 47.5468C41.2114 47.4341 41.1222 47.3139 41.0428 47.1874C40.8633 46.9257 40.7044 46.6505 40.5674 46.3642C40.4747 46.1671 40.3935 45.9584 40.3007 45.7381C40.2428 45.5758 40.1848 45.4019 40.1268 45.228C40.0551 45.0312 39.997 44.8298 39.9529 44.6251C39.8949 44.428 39.8486 44.2193 39.8022 44.0106C39.656 43.3692 39.5553 42.7183 39.5007 42.0628V42.028C39.4442 41.4617 39.4171 40.8928 39.4196 40.3237C39.4196 35.8367 40.9732 32.2077 42.8978 32.2077L71.5238 28.7759C71.4815 28.7797 71.4412 28.7958 71.4079 28.8223C69.7151 29.3324 68.405 32.7295 68.405 36.8454C68.405 41.3324 69.9586 44.9613 71.8832 44.9613Z" fill="#DAD4D4"/>
<path d="M60.2861 46.353V51.9182L56.8078 47.2805L53.3296 53.0776V47.1877V37.924L60.2861 37.0776V46.353Z" fill="#ED1C24"/>
<path d="M57.9673 37.3559V39.4718C57.9835 40.9352 57.5528 42.3687 56.7326 43.5807C55.9123 44.7927 54.7417 45.7255 53.3771 46.2544L53.3296 46.2718V53.0776L56.8078 47.2805L60.2861 51.9182V37.0776L57.9673 37.3559Z" fill="#C1272D"/>
<path d="M14.6605 8.01099L42.8923 11.3385C41.617 11.3385 40.5735 13.6689 40.5735 16.5559C40.5735 19.2457 41.4778 21.4486 42.6372 21.7385L34.3126 20.7646L29.2112 20.1617L14.0576 18.3762C13.5279 16.8611 13.2803 15.2617 13.3272 13.6573C13.3272 10.9327 13.8837 8.63707 14.6489 8.01099H14.6605Z" fill="#4259CC"/>
<path d="M42.6468 21.739C42.7297 21.7627 42.8156 21.7745 42.9018 21.7738C41.6265 21.7738 40.583 24.1043 40.583 26.9912C40.583 29.681 41.4873 31.8839 42.6468 32.1738L35.5395 31.339L33.6033 31.1187C32.9956 29.626 32.7073 28.0225 32.7569 26.4115C32.7569 23.6637 33.4294 21.3564 34.3222 20.7651L42.6468 21.739Z" fill="#99E0D4"/>
<path d="M42.6428 32.1741C42.7257 32.1978 42.8116 32.2095 42.8979 32.2089C40.9733 32.2089 39.4196 35.8379 39.4196 40.3248C39.4196 44.5335 40.7877 47.9886 42.5385 48.3944L35.6168 47.5828C34.4457 46.1451 33.6226 43.0263 33.6226 39.4089C33.6226 35.8843 34.3994 32.835 35.5356 31.3394L42.6428 32.1741Z" fill="#CFE19E"/>
<path d="M35.6175 47.5824L30.9335 47.0375C29.7741 45.565 28.9857 42.481 28.9857 38.9216C28.9857 35.3622 29.7857 32.2665 30.9451 30.8057L33.6001 31.1187L35.5364 31.339C34.4001 32.8346 33.6233 35.8839 33.6233 39.4085C33.6233 43.0259 34.4465 46.1447 35.6175 47.5824Z" fill="#CFE19E"/>
<path d="M29.2139 20.1616L34.3154 20.7645C33.4226 21.3558 32.7501 23.6631 32.7501 26.4109C32.7005 28.0218 32.9888 29.6253 33.5965 31.1181L30.9415 30.8051L29.0516 30.5848C28.128 28.9659 27.7007 27.1113 27.8226 25.2515C27.8061 23.4587 28.2878 21.6967 29.2139 20.1616Z" fill="#4259CC"/>
<path d="M29.0469 30.5858L30.9367 30.8061C29.7773 32.2669 28.9773 35.351 28.9773 38.922C28.9773 42.493 29.7657 45.5654 30.9251 47.0379L12.1194 44.8234C10.9084 42.4441 10.3332 39.7921 10.4498 37.1249C10.4498 33.2292 11.4121 29.9133 12.7455 28.6611L29.0469 30.5858Z" fill="#CFE19E"/>
<path d="M14.0581 18.3768L29.2117 20.1623C28.2855 21.6973 27.8039 23.4594 27.8204 25.2521C27.6984 27.1119 28.1258 28.9666 29.0494 30.5855L12.748 28.6608L8.09871 28.1159L3.47264 27.571C2.19728 27.571 1.15381 25.2405 1.15381 22.3536C1.15381 19.4667 2.19728 17.1362 3.47264 17.1362L9.14219 17.7971V17.8087L14.0581 18.3768Z" fill="#99E0D4"/>
<path d="M42.6382 32.1737L35.531 31.3389L33.5948 31.1186C33.171 30.1359 32.9124 29.0899 32.8296 28.0229L40.7484 28.9273C41.0499 30.678 41.7687 31.9534 42.6382 32.1737Z" fill="#5BD3C7"/>
<path d="M33.5974 31.119L30.9424 30.8059L29.0525 30.5856C28.4425 29.6512 28.0758 28.5791 27.9858 27.4668L32.8322 28.0233C32.915 29.0903 33.1736 30.1363 33.5974 31.119Z" fill="#5858DD"/>
<path d="M29.0514 30.585L12.75 28.6603L8.10071 28.1154L3.47463 27.5705C2.52391 27.5705 1.70073 26.2719 1.34131 24.4053L8.05433 25.1705L15.9152 26.0748L27.9847 27.4661C28.0747 28.5784 28.4413 29.6505 29.0514 30.585Z" fill="#5BD3C7"/>
<path d="M9.33368 7.38525L14.6554 8.01134C13.8902 8.63742 13.3337 10.9331 13.3337 13.6577C13.2868 15.2621 13.5344 16.8614 14.0641 18.3765L9.14817 17.8084V17.7968C8.36883 16.144 8.01416 14.3228 8.11629 12.4983C8.10025 10.7203 8.51812 8.96523 9.33368 7.38525Z" fill="#99E0D4"/>
<path d="M8.09765 28.1152L12.7469 28.6602C11.4136 29.9123 10.4513 33.2283 10.4513 37.1239C10.3347 39.7911 10.9098 42.4431 12.1208 44.8224L7.49475 44.2775C6.27395 41.8972 5.69453 39.2398 5.8136 36.5674C5.8136 32.6833 6.76432 29.3674 8.09765 28.1152Z" fill="#A1B863"/>
<path d="M3.47264 6.70068L9.32769 7.38474C8.51213 8.96472 8.09426 10.7198 8.11031 12.4978C8.00817 14.3223 8.36284 16.1434 9.14219 17.7963L3.47264 17.1354C2.19728 17.1354 1.15381 14.805 1.15381 11.9181C1.15381 9.03111 2.19728 6.70068 3.47264 6.70068Z" fill="#4259CC"/>
<path d="M42.6453 21.739L14.0657 18.3767C13.7817 17.6541 13.5908 16.8982 13.4976 16.1274L40.9525 19.3622C41.312 20.6608 41.9264 21.5651 42.6453 21.739Z" fill="#4259CC"/>
<path d="M9.14168 17.8081V17.7965C8.74446 17.0987 8.4847 16.3312 8.37646 15.5356L13.4895 16.1269C13.5828 16.8977 13.7737 17.6536 14.0576 18.3762L9.14168 17.8081Z" fill="#5BD3C7"/>
<path d="M9.1453 17.7969L3.47576 17.136C2.60619 17.136 1.84098 16.0462 1.44678 14.4346C1.67862 14.6663 1.98885 14.8028 2.31634 14.8172L8.38009 15.536C8.48832 16.3316 8.74808 17.0991 9.1453 17.7969Z" fill="#5B52D8"/>
<path d="M3.47581 27.5708L8.10188 28.1157C6.76855 29.3679 5.81783 32.6838 5.81783 36.5679C5.69876 39.2403 6.27818 41.8977 7.49898 44.278L3.47581 43.8026C1.55118 43.8026 -0.00244141 40.1737 -0.00244141 35.6867C-0.00244141 31.1998 1.55118 27.5708 3.47581 27.5708Z" fill="#CFE19E"/>
<path d="M42.5398 48.3937L35.6181 47.5821C34.8589 46.5129 34.3443 45.2898 34.1108 43.9995L35.0268 44.1039L39.9543 44.6372C40.4992 46.701 41.4499 48.1386 42.5398 48.3937Z" fill="#B6CC7A"/>
<path d="M40.3283 48.0642L12.7074 44.776C11.8836 43.7959 11.6896 42.601 11.3921 41.4878L39.6707 44.776C39.9972 45.9783 39.3166 47.058 40.3283 48.0642Z" fill="#B6CC7A"/>
<path d="M12.1221 44.8229L7.49607 44.278C6.90008 43.2551 6.48437 42.1374 6.26709 40.9736L9.6294 41.3446L10.8932 41.4838C11.109 42.6589 11.5247 43.7883 12.1221 44.8229Z" fill="#A1B863"/>
<path d="M7.50193 44.2777L3.47875 43.8024C2.29615 43.8024 1.26427 42.4458 0.638184 40.3589L4.62658 40.7995L6.27295 40.9734C6.49022 42.1371 6.90594 43.2548 7.50193 44.2777Z" fill="#B6CC7A"/>
<path d="M51.845 39.2578C51.5497 39.2569 51.2658 39.1433 51.0514 38.9402C50.837 38.7372 50.7081 38.46 50.6911 38.1651C50.6741 37.8703 50.7702 37.5801 50.9599 37.3537C51.1495 37.1274 51.4184 36.9819 51.7117 36.9471L61.8995 35.7169C62.205 35.6805 62.5124 35.7669 62.7542 35.9571C62.996 36.1474 63.1523 36.4259 63.1887 36.7314C63.2252 37.0369 63.1388 37.3444 62.9485 37.5861C62.7582 37.8279 62.4797 37.9842 62.1742 38.0207L51.9818 39.2497C51.9364 39.2552 51.8907 39.2579 51.845 39.2578Z" fill="#DAD4D4"/>
</svg>
