<svg width="72" height="72" viewBox="0 0 72 72" fill="none" xmlns="http://www.w3.org/2000/svg">
<circle cx="35.9976" cy="36.0005" r="34.5" fill="white" stroke="white" stroke-width="3"/>
<path d="M71.8836 15.5164L71.6285 15.5512L42.8982 18.9947L14.6664 15.6671H14.6548L9.33308 15.0411L3.47803 14.357L30.4113 11.1222C31.7746 10.9599 33.1523 10.9599 34.5156 11.1222L71.8836 15.5164Z" fill="#7070F2"/>
<path d="M71.8799 25.9512L71.6248 25.986L42.8945 29.4295C42.8083 29.4301 42.7224 29.4184 42.6394 29.3947C41.48 29.1048 40.5757 26.902 40.5757 24.2121C40.5757 21.3252 41.6192 18.9947 42.8945 18.9947L71.6248 15.5513C70.4654 15.8411 69.5611 18.044 69.5611 20.7339C69.5611 23.6208 70.6046 25.9512 71.8799 25.9512Z" fill="#EAEAEA"/>
<path d="M71.8799 36.3858C71.7585 36.3841 71.6375 36.3997 71.5205 36.4322L42.8945 39.8641C42.8083 39.8647 42.7224 39.853 42.6394 39.8293C41.48 39.5394 40.5757 37.3365 40.5757 34.6467C40.5757 31.7597 41.6192 29.4293 42.8945 29.4293L71.6248 25.9858C70.4654 26.2757 69.5611 28.4786 69.5611 31.1684C69.5611 34.0554 70.6046 36.3858 71.8799 36.3858Z" fill="#EAEAEA"/>
<path d="M71.6248 25.9858C70.8828 26.1713 70.2451 27.1337 69.8857 28.5134L42.8945 31.7481C41.8047 31.7481 40.8771 33.4641 40.6337 35.7829C40.5989 35.4235 40.5757 35.0409 40.5757 34.6467C40.5757 31.7597 41.6192 29.4293 42.8945 29.4293L71.6248 25.9858Z" fill="#DAD4D4"/>
<path d="M71.6248 15.5513C70.8828 15.7368 70.2451 16.6991 69.8857 18.0788L42.8945 21.3136C41.8047 21.3136 40.8771 23.0295 40.6337 25.3483C40.5989 24.9889 40.5757 24.6063 40.5757 24.2121C40.5757 21.3252 41.6192 18.9947 42.8945 18.9947L71.6248 15.5513Z" fill="#DAD4D4"/>
<path d="M71.8832 52.6171L71.0485 52.7214L60.2891 54.0084V44.7331L53.3326 45.5678V54.8432L42.8978 56.0953L42.5384 56.049C42.4252 56.0259 42.3159 55.9869 42.2138 55.933C42.1085 55.8839 42.0076 55.8257 41.9123 55.7591C41.9034 55.7583 41.8952 55.7541 41.8891 55.7475C41.808 55.6895 41.7152 55.62 41.6341 55.5504C41.5171 55.4429 41.4086 55.3266 41.3094 55.2026C41.2114 55.0899 41.1222 54.9697 41.0428 54.8432C40.8633 54.5815 40.7044 54.3062 40.5674 54.02C40.4747 53.8229 40.3935 53.6142 40.3007 53.3939C40.2428 53.2316 40.1848 53.0577 40.1268 52.8838C40.0551 52.687 39.997 52.4856 39.9529 52.2809C39.8949 52.0838 39.8486 51.8751 39.8022 51.6664C39.656 51.025 39.5553 50.3741 39.5007 49.7185V49.6838C39.4442 49.1174 39.4171 48.5486 39.4196 47.9794C39.4196 43.4925 40.9732 39.8635 42.8978 39.8635L71.5238 36.4316C71.4815 36.4355 71.4412 36.4516 71.4079 36.478C69.7151 36.9882 68.405 40.3852 68.405 44.5012C68.405 48.9881 69.9586 52.6171 71.8832 52.6171Z" fill="#EAEAEA"/>
<path d="M71.8832 52.6171L71.0485 52.7214L60.2891 54.0084V50.5301C61.5885 50.3645 62.7809 49.7244 63.637 48.7328C64.4931 47.7413 64.9524 46.4683 64.9267 45.1586C64.9267 45.0983 64.9267 45.0426 64.9267 44.9765V44.9302C64.9352 44.4053 64.8318 43.8847 64.6234 43.4029C64.415 42.9212 64.1064 42.4893 63.7181 42.1361C63.3298 41.7829 62.8707 41.5165 62.3715 41.3545C61.8722 41.1926 61.3441 41.1388 60.8224 41.1968L42.8978 43.3418C42.5066 43.3821 42.1315 43.5188 41.8061 43.7398C41.4807 43.9608 41.2152 44.259 41.0335 44.6078C40.4076 45.5634 40.0598 46.6743 40.0291 47.8162C39.9984 48.9581 40.2859 50.0861 40.8596 51.0739C41.0245 51.4234 41.2582 51.736 41.5466 51.9932C41.8351 52.2504 42.1724 52.4468 42.5384 52.5707L42.8978 52.6171L53.3326 51.3649V54.8432L42.8978 56.0953L42.5384 56.049C42.4252 56.0259 42.3159 55.9869 42.2138 55.933C42.1085 55.8839 42.0076 55.8257 41.9123 55.7591C41.9034 55.7583 41.8952 55.7541 41.8891 55.7475C41.808 55.6895 41.7152 55.62 41.6341 55.5504C41.5171 55.4429 41.4086 55.3266 41.3094 55.2026C41.2114 55.0899 41.1222 54.9697 41.0428 54.8432C40.8633 54.5815 40.7044 54.3062 40.5674 54.02C40.4747 53.8229 40.3935 53.6142 40.3007 53.3939C40.2428 53.2316 40.1848 53.0577 40.1268 52.8838C40.0551 52.687 39.997 52.4856 39.9529 52.2809C39.8949 52.0838 39.8486 51.8751 39.8022 51.6664C39.656 51.025 39.5553 50.3741 39.5007 49.7185V49.6838C39.4442 49.1174 39.4171 48.5486 39.4196 47.9794C39.4196 43.4925 40.9732 39.8635 42.8978 39.8635L71.5238 36.4316C71.4815 36.4355 71.4412 36.4516 71.4079 36.478C69.7151 36.9882 68.405 40.3852 68.405 44.5012C68.405 48.9881 69.9586 52.6171 71.8832 52.6171Z" fill="#DAD4D4"/>
<path d="M60.2861 54.0087V59.5739L56.8078 54.9363L53.3296 60.7333V54.8435V45.5798L60.2861 44.7334V54.0087Z" fill="#ED1C24"/>
<path d="M57.9673 45.0117V47.1276C57.9835 48.591 57.5528 50.0245 56.7326 51.2365C55.9123 52.4485 54.7417 53.3813 53.3771 53.9102L53.3296 53.9276V60.7333L56.8078 54.9363L60.2861 59.5739V44.7334L57.9673 45.0117Z" fill="#C1272D"/>
<path d="M14.6605 15.6667L42.8923 18.9943C41.617 18.9943 40.5735 21.3247 40.5735 24.2116C40.5735 26.9015 41.4778 29.1044 42.6372 29.3942L34.3126 28.4203L29.2112 27.8174L14.0576 26.0319C13.5279 24.5168 13.2803 22.9175 13.3272 21.3131C13.3272 18.5885 13.8837 16.2928 14.6489 15.6667H14.6605Z" fill="#4259CC"/>
<path d="M42.6468 29.3948C42.7297 29.4185 42.8156 29.4302 42.9018 29.4296C41.6265 29.4296 40.583 31.76 40.583 34.647C40.583 37.3368 41.4873 39.5397 42.6468 39.8296L35.5395 38.9948L33.6033 38.7745C32.9956 37.2817 32.7073 35.6782 32.7569 34.0673C32.7569 31.3194 33.4294 29.0122 34.3222 28.4209L42.6468 29.3948Z" fill="#99E0D4"/>
<path d="M42.6428 39.8299C42.7257 39.8536 42.8116 39.8653 42.8979 39.8647C40.9733 39.8647 39.4196 43.4937 39.4196 47.9806C39.4196 52.1893 40.7877 55.6443 42.5385 56.0501L35.6168 55.2385C34.4457 53.8009 33.6226 50.682 33.6226 47.0647C33.6226 43.54 34.3994 40.4908 35.5356 38.9951L42.6428 39.8299Z" fill="#CFE19E"/>
<path d="M35.6175 55.2382L30.9335 54.6933C29.7741 53.2208 28.9857 50.1367 28.9857 46.5773C28.9857 43.0179 29.7857 39.9223 30.9451 38.4614L33.6001 38.7745L35.5364 38.9948C34.4001 40.4904 33.6233 43.5397 33.6233 47.0643C33.6233 50.6817 34.4465 53.8005 35.6175 55.2382Z" fill="#CFE19E"/>
<path d="M29.2139 27.8174L34.3154 28.4203C33.4226 29.0116 32.7501 31.3188 32.7501 34.0666C32.7005 35.6776 32.9888 37.2811 33.5965 38.7739L30.9415 38.4608L29.0516 38.2405C28.128 36.6217 27.7007 34.767 27.8226 32.9072C27.8061 31.1145 28.2878 29.3524 29.2139 27.8174Z" fill="#4259CC"/>
<path d="M29.0469 38.2415L30.9367 38.4618C29.7773 39.9227 28.9773 43.0067 28.9773 46.5777C28.9773 50.1487 29.7657 53.2212 30.9251 54.6936L12.1194 52.4792C10.9084 50.0999 10.3332 47.4478 10.4498 44.7806C10.4498 40.885 11.4121 37.5691 12.7455 36.3169L29.0469 38.2415Z" fill="#CFE19E"/>
<path d="M14.0581 26.0326L29.2117 27.8181C28.2855 29.3531 27.8039 31.1152 27.8204 32.9079C27.6984 34.7677 28.1258 36.6223 29.0494 38.2412L12.748 36.3166L8.09871 35.7717L3.47264 35.2267C2.19728 35.2267 1.15381 32.8963 1.15381 30.0094C1.15381 27.1224 2.19728 24.792 3.47264 24.792L9.14219 25.4529V25.4645L14.0581 26.0326Z" fill="#99E0D4"/>
<path d="M42.6382 39.8294L35.531 38.9946L33.5948 38.7744C33.171 37.7917 32.9124 36.7457 32.8296 35.6787L40.7484 36.5831C41.0499 38.3338 41.7687 39.6091 42.6382 39.8294Z" fill="#5BD3C7"/>
<path d="M33.5974 38.7747L30.9424 38.4617L29.0525 38.2414C28.4425 37.307 28.0758 36.2348 27.9858 35.1226L32.8322 35.6791C32.915 36.7461 33.1736 37.792 33.5974 38.7747Z" fill="#5858DD"/>
<path d="M29.0514 38.2407L12.75 36.3161L8.10071 35.7712L3.47463 35.2262C2.52391 35.2262 1.70073 33.9277 1.34131 32.061L8.05433 32.8262L15.9152 33.7306L27.9847 35.1219C28.0747 36.2342 28.4413 37.3063 29.0514 38.2407Z" fill="#5BD3C7"/>
<path d="M9.33368 15.041L14.6554 15.6671C13.8902 16.2932 13.3337 18.5888 13.3337 21.3135C13.2868 22.9178 13.5344 24.5172 14.0641 26.0323L9.14817 25.4642V25.4526C8.36883 23.7997 8.01416 21.9786 8.11629 20.154C8.10025 18.3761 8.51812 16.621 9.33368 15.041Z" fill="#99E0D4"/>
<path d="M8.09765 35.771L12.7469 36.3159C11.4136 37.5681 10.4513 40.884 10.4513 44.7797C10.3347 47.4469 10.9098 50.0989 12.1208 52.4782L7.49475 51.9333C6.27395 49.5529 5.69453 46.8956 5.8136 44.2231C5.8136 40.3391 6.76432 37.0232 8.09765 35.771Z" fill="#A1B863"/>
<path d="M3.47264 14.3564L9.32769 15.0405C8.51213 16.6205 8.09426 18.3755 8.11031 20.1535C8.00817 21.978 8.36284 23.7992 9.14219 25.4521L3.47264 24.7912C2.19728 24.7912 1.15381 22.4608 1.15381 19.5738C1.15381 16.6869 2.19728 14.3564 3.47264 14.3564Z" fill="#4259CC"/>
<path d="M42.6453 29.3948L14.0657 26.0325C13.7817 25.3098 13.5908 24.554 13.4976 23.7832L40.9525 27.018C41.312 28.3165 41.9264 29.2209 42.6453 29.3948Z" fill="#4259CC"/>
<path d="M9.14168 25.4639V25.4523C8.74446 24.7545 8.4847 23.987 8.37646 23.1914L13.4895 23.7827C13.5828 24.5535 13.7737 25.3093 14.0576 26.032L9.14168 25.4639Z" fill="#5BD3C7"/>
<path d="M9.1453 25.4526L3.47576 24.7918C2.60619 24.7918 1.84098 23.7019 1.44678 22.0903C1.67862 22.3221 1.98885 22.4586 2.31634 22.4729L8.38009 23.1918C8.48832 23.9874 8.74808 24.7548 9.1453 25.4526Z" fill="#5B52D8"/>
<path d="M3.47581 35.2266L8.10188 35.7715C6.76855 37.0237 5.81783 40.3396 5.81783 44.2236C5.69876 46.8961 6.27818 49.5534 7.49898 51.9337L3.47581 51.4584C1.55118 51.4584 -0.00244141 47.8294 -0.00244141 43.3425C-0.00244141 38.8555 1.55118 35.2266 3.47581 35.2266Z" fill="#CFE19E"/>
<path d="M42.5398 56.0495L35.6181 55.2379C34.8589 54.1687 34.3443 52.9456 34.1108 51.6553L35.0268 51.7596L39.9543 52.293C40.4992 54.3567 41.4499 55.7944 42.5398 56.0495Z" fill="#B6CC7A"/>
<path d="M40.3283 55.72L12.7074 52.4318C11.8836 51.4516 11.6896 50.2568 11.3921 49.1436L39.6707 52.4318C39.9972 53.634 39.3166 54.7137 40.3283 55.72Z" fill="#B6CC7A"/>
<path d="M12.1221 52.4787L7.49607 51.9337C6.90008 50.9108 6.48437 49.7931 6.26709 48.6294L9.6294 49.0004L10.8932 49.1395C11.109 50.3146 11.5247 51.444 12.1221 52.4787Z" fill="#A1B863"/>
<path d="M7.50193 51.9335L3.47875 51.4581C2.29615 51.4581 1.26427 50.1016 0.638184 48.0146L4.62658 48.4552L6.27295 48.6291C6.49022 49.7929 6.90594 50.9106 7.50193 51.9335Z" fill="#B6CC7A"/>
<path d="M51.845 46.9135C51.5497 46.9126 51.2658 46.7991 51.0514 46.596C50.837 46.393 50.7081 46.1157 50.6911 45.8209C50.6741 45.5261 50.7702 45.2359 50.9599 45.0095C51.1495 44.7831 51.4184 44.6377 51.7117 44.6028L61.8995 43.3727C62.205 43.3362 62.5124 43.4226 62.7542 43.6129C62.996 43.8032 63.1523 44.0817 63.1887 44.3872C63.2252 44.6927 63.1388 45.0001 62.9485 45.2419C62.7582 45.4837 62.4797 45.64 62.1742 45.6764L51.9818 46.9054C51.9364 46.911 51.8907 46.9137 51.845 46.9135Z" fill="#DAD4D4"/>
</svg>
