<svg width="78" height="79" viewBox="0 0 78 79" fill="none" xmlns="http://www.w3.org/2000/svg">
<circle cx="38.9976" cy="39.2661" r="37.5" fill="#CFE19E" stroke="#4259CC" stroke-width="3"/>
<circle cx="38.998" cy="39.2661" r="27.6176" fill="white" stroke="white" stroke-width="3"/>
<path d="M19.4155 41.9795C19.4155 41.6967 19.4155 41.4153 19.4155 41.1325C19.4155 34.9237 19.4155 28.7163 19.4196 22.5075C19.4209 20.9761 20.0871 19.7808 21.2217 18.7959C21.0796 22.0526 20.9482 25.2492 20.7966 28.4445C20.6287 31.9867 20.473 35.5289 20.2442 39.067C20.1805 40.0574 19.8732 41.0314 19.6782 42.0136C19.5902 42.0013 19.5035 41.9904 19.4155 41.9781V41.9795Z" fill="#4259CC"/>
<path d="M47.9145 44.3648C48.0892 44.4058 48.1948 44.4017 48.2598 44.4509C49.3321 45.2623 50.1621 44.817 51.099 44.0807C52.8403 42.7132 54.6519 41.3868 56.8358 40.8321C57.7254 40.6067 58.7192 40.5535 59.6236 40.6928C61.1049 40.9209 61.5544 41.9318 60.8977 43.2993C60.126 44.9058 58.8085 46.03 57.3855 47.0068C54.8563 48.7458 52.1267 49.0012 49.2631 47.9507C48.9246 47.8264 48.5834 47.7062 48.2422 47.5887C48.2029 47.5751 48.1542 47.5874 48.0553 47.5874C47.6532 48.4685 47.27 49.3837 46.8259 50.2676C45.3609 53.1855 43.506 55.8029 40.7967 57.6799C37.9628 59.6429 34.9232 60.1962 31.7265 58.6402C29.2799 57.449 28.1533 54.8535 28.8263 52.0189C29.6251 48.657 31.2661 45.7281 33.5178 43.1381C33.5611 43.0889 33.6207 43.0534 33.6951 42.9933C33.8549 43.1108 34.012 43.2269 34.1717 43.3457C33.5665 44.3047 32.9071 45.2036 32.4075 46.1844C31.9472 47.0847 31.5491 48.0477 31.3149 49.0286C30.6487 51.8208 31.8185 53.956 34.4764 55.0038C38.5599 56.6116 42.6828 55.1936 45.0251 51.3714C46.2329 49.4001 46.9803 47.2322 47.683 45.0437C47.7507 44.8306 47.8265 44.6203 47.9145 44.3634V44.3648ZM51.0151 45.3894C51.0165 45.4795 51.0192 45.5697 51.0205 45.6612C52.0373 45.8128 53.0501 46.0369 54.071 46.0983C55.2936 46.1708 56.5217 46.0068 57.6062 45.3894C57.9528 45.1926 58.355 44.7173 58.3509 44.3744C58.3468 44.0288 57.9325 43.526 57.5818 43.384C56.978 43.1381 56.2699 42.9714 55.6294 43.0329C53.8016 43.2077 52.4151 44.3361 51.0137 45.3907L51.0151 45.3894Z" fill="#4259CC"/>
<path d="M55.4722 27.1113C54.9536 30.5975 53.425 33.3857 50.1836 35.07C47.1575 36.6424 43.9445 37.5836 40.5921 38.003C38.9267 38.212 37.2126 38.2953 35.5431 38.1587C33.0207 37.9524 31.8414 36.4375 31.9497 33.8802C31.9781 33.1999 32.0702 32.5209 32.1812 31.8488C32.207 31.6917 32.4317 31.5688 32.5658 31.4294C32.6863 31.5797 32.911 31.7272 32.9124 31.8789C32.934 33.637 33.9197 34.4799 35.7611 34.5291C41.0308 34.6711 46.0892 33.7285 50.8335 31.3529C52.6018 30.4677 54.1033 29.2492 54.9103 27.3353C54.9766 27.1782 55.1838 27.0812 55.326 26.9556L55.4708 27.1113H55.4722Z" fill="#4259CC"/>
<path d="M24.2974 52.1515H23.4227C23.4037 51.9548 23.3712 51.78 23.3726 51.6065C23.4132 47.4673 23.378 43.324 23.5256 39.1875C23.6678 35.1945 24.5952 31.4091 27.0243 28.1183C28.4689 26.162 30.4254 24.9039 32.5078 23.7783C32.8247 23.6075 33.0846 23.2523 33.2674 22.9231C33.6953 22.1526 34.0161 21.3193 34.4643 20.5612C34.9247 19.7811 35.649 19.4437 36.5494 19.7197C37.2995 19.9492 38.051 20.1937 38.7699 20.5065C39.275 20.7265 39.4726 21.1718 39.3305 21.751C38.9784 23.1908 38.361 24.505 37.3442 25.5705C37.0138 25.9162 36.4587 26.0896 35.974 26.2317C34.398 26.6962 32.78 27.0295 31.2256 27.5582C27.9192 28.6824 25.9736 31.0225 25.631 34.547C25.2478 38.4826 24.973 42.4292 24.6697 46.3717C24.5235 48.2733 24.4219 50.1776 24.2947 52.1488L24.2974 52.1515Z" fill="#4259CC"/>
<path d="M39.1191 47.9827C38.4516 48.596 37.8383 49.1547 37.2317 49.7203C36.9609 49.973 36.7362 49.932 36.4789 49.6834C35.9427 49.167 35.3984 48.6561 34.8298 48.1766C34.5387 47.9321 34.4981 47.7258 34.7485 47.4458C35.3362 46.7887 35.9211 46.1303 36.5033 45.4691C36.7971 45.1358 37.0923 45.1303 37.4335 45.4117C37.9006 45.7969 38.3866 46.1603 38.9039 46.5619C39.3913 46.0428 39.8882 45.5237 40.3716 44.9923C40.6424 44.6932 40.9145 44.6194 41.2462 44.8885C41.666 45.2287 42.1236 45.5278 42.5081 45.9049C43.1066 46.4909 43.1797 47.1412 42.6489 47.7887C42.1954 48.3406 41.6362 48.8132 41.077 49.2599C40.9551 49.3569 40.576 49.2722 40.4108 49.1438C39.9356 48.775 39.5104 48.3406 39.1191 47.9827Z" fill="#4259CC"/>
<path d="M43.5877 24.1366C43.0786 24.7022 42.6142 25.2185 42.1498 25.7349C41.9128 25.9986 41.6921 26.0122 41.4024 25.7745C40.8297 25.3032 40.2271 24.8688 39.5366 24.3429C40.1039 23.5861 40.636 22.8375 41.2196 22.1339C41.3239 22.0096 41.6908 21.9823 41.8627 22.0656C42.3434 22.2979 42.7861 22.6107 43.2993 22.9263C43.6297 22.5 43.9912 22.0479 44.3351 21.582C44.6167 21.2009 44.8794 21.1108 45.3438 21.3744C47.1879 22.4194 47.2935 23.2623 45.7798 24.7541C45.291 25.2349 44.9403 25.295 44.4596 24.7909C44.2037 24.5218 43.8598 24.3374 43.5863 24.138L43.5877 24.1366Z" fill="#4259CC"/>
<path d="M40.9045 42.869C40.7081 43.216 40.5727 43.5548 40.3534 43.8239C38.9683 45.5328 38.8627 45.5369 37.2894 44.1012C36.393 43.2843 36.389 43.2802 37.1932 42.3526C37.4749 42.0289 37.8079 41.7488 38.0747 41.4141C38.5201 40.8568 38.9642 40.8103 39.4855 41.3049C39.7807 41.5849 40.1313 41.8062 40.4116 42.0972C40.6052 42.298 40.7217 42.5739 40.9045 42.8676V42.869Z" fill="#4259CC"/>
<path d="M58.846 35.2121C58.6591 35.5564 58.5603 35.8091 58.4005 36.0126C58.2638 36.1848 58.0661 36.3132 57.8792 36.4389C56.3506 37.4689 56.1895 37.4347 55.2309 35.9157C54.7281 35.1188 54.8748 34.4544 55.6709 33.9226C55.9336 33.7477 56.2017 33.581 56.4725 33.4185C57.3363 32.9007 57.3674 32.8898 57.9727 33.7286C58.3071 34.1917 58.5589 34.7162 58.8473 35.2121H58.846Z" fill="#4259CC"/>
<path d="M25.6499 43.4687C26.7331 42.5603 27.8163 41.6505 28.894 40.7461C28.3781 39.3213 28.4824 38.7203 29.3841 37.9457C29.8025 37.5864 30.2913 37.3624 30.8153 37.6329C31.3704 37.9184 31.4124 38.5031 31.2743 39.0085C31.1362 39.5194 30.9087 40.0535 30.5743 40.4538C29.2921 41.9879 27.4791 42.7283 25.7921 43.649C25.7447 43.5889 25.6973 43.5275 25.6499 43.4674V43.4687ZM29.8824 39.9333C30.4741 39.4088 30.6691 38.8596 30.3089 38.6397C30.1072 38.5167 29.6333 38.5263 29.4952 38.6765C28.9468 39.2681 29.5737 39.559 29.8824 39.9333Z" fill="#4259CC"/>
<path d="M55.271 53.4641C56.3528 52.557 57.4346 51.65 58.5083 50.7484C57.964 49.3386 58.0872 48.6911 59.0594 47.9015C59.4615 47.575 59.93 47.3646 60.4269 47.6447C60.9292 47.9274 61.043 48.467 60.8832 48.9533C60.6896 49.5408 60.4391 50.1637 60.041 50.6159C58.7778 52.0516 57.0339 52.766 55.4077 53.6513C55.3617 53.5884 55.317 53.527 55.271 53.4641ZM59.5197 49.9629C59.9395 49.5367 60.3389 49.1501 59.8853 48.6419C59.7675 48.5094 59.2056 48.5449 59.0797 48.6979C58.6194 49.2512 59.1244 49.5681 59.5197 49.9629Z" fill="#4259CC"/>
<path d="M50.6352 53.22C49.8769 52.8649 49.2501 52.5698 48.5054 52.2201C48.8168 51.5247 49.1214 50.8362 49.4355 50.1532C49.4707 50.0767 49.5804 49.9606 49.6197 49.9742C50.1816 50.16 50.7665 50.3089 51.2851 50.5835C51.7048 50.8062 51.6926 51.2679 51.4949 51.6654C51.2377 52.1845 50.9357 52.6818 50.6352 53.22Z" fill="#4259CC"/>
<path d="M23.2085 26.181C23.4915 25.7808 23.6932 25.2535 24.0737 25.0035C25.4425 24.0992 26.8696 23.285 28.2791 22.4448C28.6988 22.1949 29.1321 21.9681 29.7319 21.6348C29.4747 22.5815 29.0075 23.1347 28.3387 23.5131C27.242 24.1347 26.1249 24.7194 25.0242 25.3341C24.4785 25.6387 23.9505 25.9761 23.4143 26.2999C23.3466 26.2603 23.2775 26.2207 23.2099 26.181H23.2085Z" fill="#4259CC"/>
<path d="M23.5718 23.655C23.806 23.2725 23.9509 22.7507 24.2894 22.5308C26.1145 21.3436 27.9884 20.2303 29.9111 19.1743C29.8109 20.0431 29.3167 20.5773 28.6343 20.9584C27.3534 21.6742 26.0631 22.3737 24.7849 23.0936C24.4221 23.2971 24.0863 23.5471 23.737 23.7766C23.6814 23.7356 23.6273 23.696 23.5718 23.655Z" fill="#4259CC"/>
<path d="M41.7826 59.6048C42.0845 59.1909 42.3039 58.6458 42.7046 58.3849C44.1575 57.4396 45.6698 56.5885 47.1619 55.7047C47.4774 55.5175 47.8023 55.3468 48.2613 55.0913C48.0406 56.0257 47.5762 56.5639 46.9182 56.9355C45.7809 57.5789 44.6273 58.1937 43.4872 58.833C42.9795 59.1185 42.4894 59.434 41.9911 59.7373C41.9221 59.6936 41.853 59.6485 41.7839 59.6048H41.7826Z" fill="#4259CC"/>
</svg>
