<svg width="83" height="84" viewBox="0 0 83 84" fill="none" xmlns="http://www.w3.org/2000/svg">
<g filter="url(#filter0_d_1_383)">
<circle cx="34.5002" cy="34.5002" r="36.0002" transform="matrix(-1 0 0 1 75.9976 3.26611)" fill="#CFE19E" stroke="#4259CC" stroke-width="3"/>
<circle cx="25.0296" cy="25.0296" r="26.5296" transform="matrix(-1 0 0 1 66.5288 12.7368)" fill="white" stroke="white" stroke-width="3"/>
<path d="M48.3201 22.7184L48.3223 22.7253C48.332 22.7557 48.3391 22.7712 48.343 22.7782C48.3481 22.7804 48.3586 22.7843 48.3773 22.7889C48.4084 22.7966 48.4526 22.8039 48.5184 22.8115C48.5849 22.8192 48.6681 22.8264 48.7704 22.8354C49.0651 22.8611 49.5179 22.9006 50.1825 23.0034C50.5197 23.0555 50.7492 23.3121 50.8782 23.5922C51.009 23.8761 51.0596 24.2261 51.0203 24.5609C50.9809 24.896 50.8482 25.2399 50.5851 25.4899C50.316 25.7457 49.9359 25.8789 49.4568 25.8304C49.456 25.8303 49.4551 25.8302 49.4543 25.8301L49.4798 25.5814L48.3201 22.7184ZM48.3201 22.7184L48.3175 22.7117M48.3201 22.7184L48.3175 22.7117M48.3175 22.7117C48.0824 22.1016 47.9546 21.584 47.9234 21.1666C47.892 20.7465 47.9599 20.4527 48.0866 20.2632C48.2067 20.0837 48.402 19.9643 48.7113 19.9353C49.0292 19.9056 49.4578 19.9738 50.0053 20.1741L50.0053 20.1741M48.3175 22.7117L50.0053 20.1741M50.0053 20.1741L50.0071 20.1747M50.0053 20.1741L50.0071 20.1747M50.0071 20.1747C50.3406 20.294 50.6446 20.2574 50.8898 20.1096M50.0071 20.1747L50.8898 20.1096M50.8898 20.1096C51.1264 19.9671 51.2855 19.7354 51.3739 19.4992M50.8898 20.1096L51.3739 19.4992M51.3739 19.4992C51.4622 19.2635 51.4899 18.9979 51.437 18.7649M51.3739 19.4992L51.437 18.7649M51.437 18.7649C51.3847 18.5341 51.2416 18.3024 50.9689 18.2181M51.437 18.7649L50.9689 18.2181M50.9689 18.2181C48.2799 17.1238 46.5352 17.4993 45.6809 18.6327C44.9279 19.6318 44.9587 21.1138 45.5288 22.3468C45.3272 22.3435 45.1751 22.3391 45.0395 22.3352L45.0393 22.3352L45.0386 22.3352C44.8245 22.3289 44.6487 22.3238 44.3871 22.3268L50.9689 18.2181ZM48.3463 22.7832C48.3463 22.7834 48.3457 22.7827 48.3445 22.7808C48.3457 22.7821 48.3463 22.7831 48.3463 22.7832ZM44.6503 30.2231L44.6501 30.2244C43.7841 36.0183 43.7104 36.4876 43.4658 38.0458C43.3518 38.7721 43.2006 39.735 42.9148 41.5841C42.7557 42.6133 42.9124 43.2621 43.2569 43.6514C43.6001 44.0393 44.0712 44.103 44.3799 44.1034C44.6838 44.1069 45.1652 44.1088 45.6017 43.7779C46.0403 43.4454 46.3809 42.8207 46.5312 41.7041C46.8451 39.4337 46.991 38.4303 47.121 37.4249C47.2956 36.0741 47.4416 34.7196 47.928 30.2841C48.0389 29.2785 47.8961 28.6129 47.5507 28.2135C47.1999 27.8076 46.7011 27.7434 46.2681 27.792C45.9635 27.7958 45.7067 27.8679 45.495 28.0109C45.2812 28.1553 45.1341 28.3581 45.0275 28.5864C44.8386 28.9912 44.7564 29.529 44.6728 30.0763C44.6653 30.1252 44.6579 30.1742 44.6503 30.2231Z" fill="#FFCA3A" stroke="#FFCA3A" stroke-width="0.5"/>
<path d="M59.0156 42.9334L59.0158 42.9333L59.0117 42.9234C58.6681 42.0886 57.827 41.8643 57.1663 42.1034C56.8351 42.2232 56.5395 42.4611 56.3662 42.8029C56.1917 43.1472 56.1516 43.5766 56.296 44.0598L56.2959 44.0598L56.2978 44.0657C56.7584 45.4777 56.9396 46.5115 56.884 47.2917C56.8295 48.0565 56.548 48.5789 56.0584 48.9872C55.5548 49.4072 54.8181 49.7172 53.831 50.0139C53.1692 50.2127 52.4142 50.4004 51.5621 50.6122C51.1437 50.7162 50.7019 50.826 50.2363 50.9458C48.5348 51.3836 47.1977 51.6742 46.1377 51.8217C45.0749 51.9695 44.3093 51.9706 43.7425 51.8432C43.187 51.7184 42.8211 51.4701 42.5471 51.1007C42.265 50.7202 42.0698 50.1972 41.891 49.5025C41.7718 49.0392 41.6015 48.406 41.3186 47.9221C41.1763 47.6786 40.9943 47.4528 40.757 47.3088C40.511 47.1594 40.2217 47.1081 39.8978 47.1914C39.5782 47.2736 39.3299 47.4263 39.153 47.6442C38.978 47.8598 38.8878 48.1209 38.8507 48.397C38.7779 48.939 38.9036 49.5935 39.0671 50.2291C39.3811 51.4495 39.7923 52.4176 40.3678 53.1441C40.9481 53.8767 41.6859 54.3518 42.6269 54.599C43.5606 54.8442 44.6872 54.8633 46.0494 54.702C47.4129 54.5405 49.0282 54.1962 50.9457 53.7029C51.3165 53.6074 51.6786 53.5156 52.0315 53.4261C53.3888 53.0819 54.6087 52.7725 55.6561 52.4291C56.9748 51.9967 58.0563 51.4996 58.8179 50.7809C59.5911 50.0514 60.0174 49.1101 60.0572 47.8348C60.0966 46.5722 59.7577 44.982 59.0156 42.9334ZM52.5126 58.8233C53.0053 58.6966 53.3396 58.2719 53.5049 57.819C53.6703 57.3659 53.6906 56.824 53.495 56.3856C53.3044 55.9085 52.9376 55.6771 52.5221 55.602C52.1226 55.5298 51.6768 55.5999 51.2818 55.7016C50.335 55.9452 49.947 57.006 50.3789 57.8839C50.5879 58.3087 50.8902 58.61 51.2689 58.7698C51.6453 58.9286 52.0717 58.9368 52.5126 58.8233Z" fill="#FF7B80" stroke="#FF7B80" stroke-width="0.5"/>
<path d="M35.236 31.5053L35.2361 31.5053L35.2341 31.5001C34.5311 29.6291 33.0061 27.9506 30.7219 27.1413C28.4376 26.332 25.4207 26.4007 21.7422 27.9691L21.7422 27.9691L21.7387 27.9706C20.8893 28.3481 20.6919 29.3216 20.9942 30.0438C21.1489 30.4134 21.4385 30.7368 21.8557 30.9052C22.2735 31.0737 22.7919 31.076 23.3867 30.8556C26.0224 29.8929 28.052 29.8264 29.4993 30.2393C30.9429 30.6511 31.8151 31.5403 32.1627 32.523L32.1627 32.523L32.1633 32.5248C32.4505 33.3183 32.1213 34.0212 31.3444 34.7888C30.7617 35.3646 29.9732 35.9313 29.1078 36.5533C28.8108 36.7668 28.5047 36.9868 28.1948 37.2159C25.8096 38.9791 23.2512 41.2477 23.7655 44.9601L23.7655 44.9601L23.7657 44.9617C24.0535 46.9457 24.9995 48.561 26.5225 49.6057C28.0425 50.6484 30.1114 51.1053 32.6177 50.8275L32.6178 50.8276L32.6242 50.8267C33.139 50.7561 33.513 50.5288 33.738 50.2038C33.9603 49.8828 34.0182 49.4938 33.9563 49.1309C33.8346 48.4169 33.2258 47.7192 32.3212 47.7601C30.9508 47.761 29.6704 47.4584 28.7144 46.8628C27.764 46.2708 27.1336 45.3911 27.0343 44.2096L27.0343 44.2092C26.9241 42.9275 27.4761 41.9395 28.3775 41.0567C29.1256 40.324 30.0906 39.6856 31.0869 39.0265C31.3055 38.8818 31.5257 38.7361 31.7454 38.5883C32.9489 37.7783 34.1354 36.9032 34.8621 35.784C35.6019 34.6448 35.8548 33.2709 35.236 31.5053ZM34.3512 44.3642C34.8958 44.2032 35.2557 43.7146 35.4249 43.1945C35.5941 42.6742 35.5943 42.061 35.3565 41.576C35.1242 41.049 34.7056 40.8049 34.2358 40.7371C33.7822 40.6716 33.2793 40.7685 32.8314 40.9009C31.7804 41.2115 31.3834 42.4174 31.906 43.3906C32.1597 43.8632 32.5128 44.1901 32.9445 44.3544C33.374 44.5179 33.8554 44.5107 34.3512 44.3642Z" fill="#4259CC" stroke="#4259CC" stroke-width="0.5"/>
</g>
<defs>
<filter id="filter0_d_1_383" x="-0.00292969" y="0.266113" width="83.0005" height="83.0005" filterUnits="userSpaceOnUse" color-interpolation-filters="sRGB">
<feFlood flood-opacity="0" result="BackgroundImageFix"/>
<feColorMatrix in="SourceAlpha" type="matrix" values="0 0 0 0 0 0 0 0 0 0 0 0 0 0 0 0 0 0 127 0" result="hardAlpha"/>
<feOffset dy="4"/>
<feGaussianBlur stdDeviation="2"/>
<feComposite in2="hardAlpha" operator="out"/>
<feColorMatrix type="matrix" values="0 0 0 0 0 0 0 0 0 0 0 0 0 0 0 0 0 0 0.25 0"/>
<feBlend mode="normal" in2="BackgroundImageFix" result="effect1_dropShadow_1_383"/>
<feBlend mode="normal" in="SourceGraphic" in2="effect1_dropShadow_1_383" result="shape"/>
</filter>
</defs>
</svg>
