<svg width="72" height="72" viewBox="0 0 72 72" fill="none" xmlns="http://www.w3.org/2000/svg">
<ellipse cx="36.0005" cy="36" rx="36.0005" ry="36" transform="matrix(-1 0 0 1 71.9976 0.00146484)" fill="white"/>
<path d="M49.3269 50.7271V68.8512C49.3269 70.1248 48.3234 71.1573 47.0856 71.1573H26.3226C25.0848 71.1573 24.0814 70.1248 24.0814 68.8512V50.7271" fill="#C9EAF5"/>
<path d="M57.2552 50.1005V58.053C57.2552 61.8639 54.2529 64.9532 50.5493 64.9532H22.2758C18.5722 64.9532 15.5699 61.8639 15.5699 58.053V50.1005C15.5699 43.749 20.5738 38.6001 26.7464 38.6001H46.0786C52.2513 38.6001 57.2552 43.749 57.2552 50.1005Z" fill="#C9EAF5"/>
<path d="M24.2996 61.2204C23.8368 61.2204 23.4613 60.8341 23.4613 60.3579V51.0779C23.4613 50.6017 23.8368 50.2153 24.2996 50.2153C24.7624 50.2153 25.1378 50.6017 25.1378 51.0779V60.3579C25.1378 60.8341 24.7624 61.2204 24.2996 61.2204Z" fill="#A9DCEA"/>
<path d="M48.49 61.2204C48.0272 61.2204 47.6518 60.8341 47.6518 60.3579V51.0779C47.6518 50.6017 48.0272 50.2153 48.49 50.2153C48.9528 50.2153 49.3283 50.6017 49.3283 51.0779V60.3579C49.3283 60.8341 48.9528 61.2204 48.49 61.2204Z" fill="#A9DCEA"/>
<path d="M53.0109 41.0962V50.8383C53.0109 56.7161 48.3801 61.4811 42.6678 61.4811H16.4534C17.6104 63.5542 19.7784 64.9536 22.2682 64.9536H50.5417C54.2453 64.9536 57.2477 61.8643 57.2477 58.0534V50.1009C57.2477 46.4499 55.5892 43.203 53.0109 41.0962Z" fill="#A9DCEA"/>
<path d="M45.6399 54.8655V56.5694C45.6399 63.1924 40.4222 68.5613 33.9857 68.5613H23.4689V69.6377C23.4689 70.9419 24.4964 71.9992 25.7639 71.9992H47.0253C48.2928 71.9992 49.3202 70.942 49.3202 69.6378V51.0786C47.2877 51.0786 45.6399 52.7741 45.6399 54.8655Z" fill="#A9DCEA"/>
<path d="M57.2315 54.2622V58.0544C57.2315 61.8653 54.2291 64.9547 50.5255 64.9547H32.9134C30.6904 64.9547 28.8883 63.1004 28.8883 60.813C28.8883 58.5256 30.6904 56.6713 32.9134 56.6713H49.3145V54.2622L57.2315 54.2622Z" fill="#FFC19F"/>
<path d="M57.2321 55.3354V58.0496C57.2321 61.8677 54.2257 64.9498 50.5262 64.9498H32.912C30.6877 64.9498 28.8883 63.0982 28.8883 60.8096C28.8883 60.3382 28.9666 59.8781 29.1118 59.4526C29.6595 61.0742 31.146 62.2357 32.912 62.2357H50.5262C54.2257 62.2357 57.2321 59.1421 57.2321 55.3354Z" fill="#F9AD8F"/>
<path d="M15.5699 54.2622V58.0544C15.5699 61.8653 18.5722 64.9547 22.2758 64.9547H39.8879C42.1109 64.9547 43.913 63.1004 43.913 60.813C43.913 58.5256 42.1109 56.6713 39.8879 56.6713H23.4869V54.2622L15.5699 54.2622Z" fill="#FFC19F"/>
<path d="M43.9065 60.8096C43.9065 63.0982 42.1071 64.9498 39.883 64.9498H22.2687C18.5692 64.9498 15.5627 61.8677 15.5627 58.0496V55.3354C15.5627 59.1421 18.5692 62.2357 22.2687 62.2357H39.883C41.6488 62.2357 43.1353 61.0742 43.6829 59.4526C43.8284 59.8781 43.9065 60.3382 43.9065 60.8096Z" fill="#F9AD8F"/>
<path d="M33.3717 32.561V38.4832C33.362 39.7624 34.9176 40.8128 36.8735 40.8283C38.83 40.8438 40.4469 39.8189 40.4565 38.5397V32.561H33.3717Z" fill="#FFC19F"/>
<path opacity="0.19" d="M40.4551 38.0882C39.337 38.5127 37.9784 38.6349 36.5875 38.3234C35.2951 38.0338 34.2004 37.4214 33.3716 36.6444V32.8032C33.3716 32.8032 39.0786 33.5527 40.4551 33.9708V38.0882Z" fill="#7F1703"/>
<path d="M18.9768 27.4109C19.997 29.9206 22.7376 31.1165 24.5177 30.6009C26.2979 30.0845 26.3399 27.899 25.6593 25.4374C24.9786 22.9757 23.0827 21.7311 21.2047 21.9147C18.684 22.1613 18.0178 25.0524 18.9774 27.4109H18.9768Z" fill="#FFC19F"/>
<path d="M21.4096 27.6942C22.0144 28.722 23.167 29.102 23.984 28.5439C24.8004 27.9852 24.9726 26.6996 24.3678 25.6719C23.7636 24.6441 22.6103 24.2641 21.794 24.8221C20.9769 25.3802 20.8054 26.6664 21.4102 27.6935L21.4096 27.6942Z" fill="#E0956C"/>
<path d="M54.463 27.4109C53.4427 29.9206 50.7015 31.1165 48.922 30.6009C47.1419 30.0845 47.0998 27.899 47.7805 25.4374C48.4611 22.9757 50.357 21.7311 52.235 21.9147C54.7558 22.1613 55.422 25.0524 54.463 27.4109Z" fill="#FFC19F"/>
<path d="M52.029 27.6942C51.4242 28.722 50.2716 29.102 49.4545 28.5439C48.6382 27.9852 48.4659 26.6996 49.0708 25.6719C49.6757 24.6441 50.8282 24.2641 51.6446 24.8221C52.4617 25.3802 52.6339 26.6664 52.029 27.6935V27.6942Z" fill="#E0956C"/>
<path d="M20.4976 13.6036C19.2114 25.3016 27.2607 33.0553 36.6941 33.0469C46.1281 33.0384 53.4816 26.7574 52.6811 13.1126C52.3091 6.77375 45.6217 0.981579 36.6941 1.21327C27.2635 1.45767 21.314 6.1797 20.4976 13.6036Z" fill="#84220F"/>
<path d="M23.2586 11.9851C25.3067 6.15052 30.2421 6.06787 36.7041 6.06787C43.1662 6.06787 48.1016 6.15122 50.1497 11.9851C50.767 13.7446 50.2359 28.2568 48.4674 31.5103C46.9725 34.2595 40.7619 36.9613 36.7579 36.9613C36.5912 36.9613 36.804 36.9613 36.6373 36.9613C32.634 36.9613 26.4358 34.2595 24.9416 31.5103C23.1731 28.2568 22.6413 13.7446 23.2592 11.9851H23.2586Z" fill="#FFC19F"/>
<path d="M22.5282 22.3008C22.314 21.966 22.0729 21.5987 21.8104 21.2095C21.4184 20.6289 21.0526 20.1076 20.7481 19.6915C20.7708 19.0678 20.7384 17.4608 20.4987 16.402C20.6351 15.844 20.7253 15.2118 20.7515 14.4644C20.8438 12.9585 21.634 6.7213 27.164 4.12896C36.0655 0.0242871 44.4654 2.68162 46.847 4.10141C51.2354 6.71918 51.7762 10.246 52.0924 14.2003C52.1882 14.7639 52.2908 15.2471 52.3983 15.6949C52.3832 15.7705 52.3687 15.8418 52.3535 15.9188C52.0614 17.4199 51.8568 18.716 51.812 19.2917C51.7032 19.2062 51.6019 19.1165 51.5117 19.0219C51.7066 21.2766 52.7283 21.99 53.8581 22.9888C50.7924 23.1492 49.0853 20.5229 48.5328 18.2548C47.9197 15.7359 48.8773 12.9599 48.4901 11.9731C48.2662 11.4017 46.247 8.10436 45.4003 8.07893C43.5547 8.02454 41.5293 14.5986 34.9963 14.492C37.6327 13.0362 39.0719 10.9771 40.5228 8.04149C40.0102 8.35512 39.497 8.73514 38.9878 9.1971C33.6274 14.0661 27.8949 14.7646 23.2874 14.3578C23.8585 17.2348 24.6287 20.2149 22.5275 22.3001L22.5282 22.3008Z" fill="black"/>
<path d="M48.8462 12.6733C43.2364 7.97462 32.882 6.9179 25.534 11.9401C21.1607 14.9295 20.7784 18.1618 20.7302 19.9814C20.6213 19.91 20.3058 18.9924 20.2693 18.4669C19.8828 12.8859 20.5359 8.23385 24.9264 4.10729C30.1408 -0.793451 42.1197 -1.91727 48.4839 4.12071C52.0132 7.46886 53.9001 11.885 52.7545 19.6006C52.7083 19.91 52.4775 20.331 52.2088 20.4645C52.7738 18.0883 51.2072 14.6519 48.8455 12.6733H48.8462Z" fill="#D3E9EF"/>
<path d="M22.1722 10.0069C21.5025 10.7373 20.9355 11.6139 20.4175 12.5541C20.4891 12.0963 20.598 11.6527 20.7075 11.2077C21.0678 10.6751 21.4336 10.1496 21.8504 9.69611C28.2822 2.68689 43.0036 2.28709 50.4908 8.91558C51.3981 9.71942 52.1683 10.7881 52.7601 11.8618C52.8441 12.3026 52.8972 12.7737 52.9481 13.2477C52.3729 11.8752 51.4029 10.3248 50.2007 9.26029C43.0112 2.89314 28.3428 3.28376 22.1715 10.0069H22.1722Z" fill="#4259CC"/>
<path d="M49.7751 10.5302C51.2335 11.8405 52.3758 13.646 53.0599 15.9657C53.0337 17.0994 52.9572 18.2861 52.7622 19.5999C52.7161 19.9093 52.4853 20.3303 52.2166 20.4638C52.7815 18.0876 51.2149 14.6512 48.8533 12.6726C43.2435 7.97392 32.8891 6.9172 25.5411 11.9394C21.1678 14.9288 20.7855 18.1611 20.7373 19.9807C20.6284 19.9093 20.3129 18.9918 20.2764 18.4662C20.202 17.3925 20.1841 16.3634 20.2061 15.3554C20.8192 13.836 21.628 12.4508 22.669 11.2825C28.9367 4.24645 42.9397 4.39196 49.7758 10.5302H49.7751Z" fill="#4157C7"/>
<path d="M51.5012 16.2144C52.0909 17.8362 53.942 19.0525 55.2937 19.6557C53.6912 20.1318 52.746 20.1862 51.929 19.3774C52.0805 18.9282 51.2332 17.5437 51.5019 16.2144H51.5012Z" fill="#84220F"/>
<path d="M22.3161 22.4752C21.6237 23.094 20.6696 23.6322 19.34 24.0511C19.8346 23.4238 20.569 21.2843 20.7502 19.7515C20.9934 20.135 22.0825 22.146 22.3168 22.4752H22.3161Z" fill="#84220F"/>
<path d="M21.8475 16.0415C22.0487 17.1441 21.4011 19.2943 20.9946 19.7089C20.4593 20.4096 19.2151 20.8751 17.457 19.5994C18.9382 19.3162 20.6874 18.5427 21.8475 16.0422V16.0415Z" fill="#84220F"/>
</svg>
