<svg width="50" height="80" viewBox="0 0 50 80" fill="none" xmlns="http://www.w3.org/2000/svg">
<circle cx="21.7441" cy="21.7441" r="23.2441" transform="matrix(-1 0 0 1 46.9155 17.8965)" fill="white" stroke="white" stroke-width="3"/>
<path d="M39.1127 55.749V75.5721C39.1127 76.9652 37.9835 78.0945 36.5904 78.0945H13.2231C11.83 78.0945 10.7007 76.9652 10.7007 75.5721V55.749" fill="#C9EAF5"/>
<path d="M47.9975 55.0633V63.7613C47.9975 67.9295 44.6186 71.3084 40.4504 71.3084H8.63064C4.4625 71.3084 1.08356 67.9295 1.08356 63.7613V55.0633C1.08356 48.1164 6.71512 42.4849 13.662 42.4849H35.419C42.3659 42.4849 47.9975 48.1164 47.9975 55.0633Z" fill="#C9EAF5"/>
<path d="M10.9293 67.2262C10.4085 67.2262 9.9859 66.8037 9.9859 66.2828V56.1328C9.9859 55.612 10.4085 55.1895 10.9293 55.1895C11.4501 55.1895 11.8727 55.612 11.8727 56.1328V66.2828C11.8727 66.8037 11.4501 67.2262 10.9293 67.2262Z" fill="#A9DCEA"/>
<path d="M38.1402 67.2262C37.6194 67.2262 37.1968 66.8037 37.1968 66.2828V56.1328C37.1968 55.612 37.6194 55.1895 38.1402 55.1895C38.6611 55.1895 39.0836 55.612 39.0836 56.1328V66.2828C39.0836 66.8037 38.6611 67.2262 38.1402 67.2262Z" fill="#A9DCEA"/>
<path d="M43.2264 45.2144V55.8697C43.2264 62.2986 38.0148 67.5102 31.586 67.5102H2.08356C3.38563 69.7776 5.82561 71.3082 8.62768 71.3082H40.4476C44.6157 71.3082 47.9947 67.9293 47.9947 63.7611V55.0632C47.9946 51.07 46.1281 47.5186 43.2264 45.2144Z" fill="#A9DCEA"/>
<path d="M34.9418 60.2757V62.1393C34.9418 69.3831 29.0695 75.2554 21.8257 75.2554H9.98981V76.4327C9.98981 77.8592 11.1462 79.0156 12.5727 79.0156H36.5009C37.9273 79.0156 39.0837 77.8592 39.0837 76.4328V56.1338C36.7961 56.1338 34.9418 57.9882 34.9418 60.2757Z" fill="#A9DCEA"/>
<path d="M47.9896 59.6138V63.7615C47.9896 67.9296 44.6106 71.3086 40.4425 71.3086H20.6213C18.1195 71.3086 16.0914 69.2805 16.0914 66.7786C16.0914 64.2768 18.1195 62.2487 20.6213 62.2487H39.0795V59.6138L47.9896 59.6138Z" fill="#FFC19F"/>
<path d="M47.9903 60.7876V63.7562C47.9903 67.9322 44.6068 71.3033 40.4433 71.3033H20.6197C18.1165 71.3033 16.0914 69.2781 16.0914 66.775C16.0914 66.2593 16.1795 65.7561 16.3429 65.2907C16.9592 67.0643 18.6322 68.3347 20.6197 68.3347H40.4433C44.6068 68.3347 47.9903 64.9511 47.9903 60.7876Z" fill="#F9AD8F"/>
<path d="M1.08356 59.6138V63.7615C1.08356 67.9296 4.4625 71.3086 8.63064 71.3086H28.4518C30.9536 71.3086 32.9818 69.2805 32.9818 66.7786C32.9818 64.2768 30.9536 62.2487 28.4518 62.2487H9.9936V59.6138L1.08356 59.6138Z" fill="#FFC19F"/>
<path d="M32.9748 66.7752C32.9748 69.2783 30.9497 71.3035 28.4466 71.3035H8.62289C4.45934 71.3035 1.07581 67.9325 1.07581 63.7564V60.7878C1.07581 64.9513 4.45934 68.3349 8.62289 68.3349H28.4466C30.4339 68.3349 32.1068 67.0646 32.7231 65.291C32.8868 65.7563 32.9748 66.2595 32.9748 66.7752Z" fill="#F9AD8F"/>
<path d="M21.1421 35.8779V42.3552C21.1313 43.7544 22.882 44.9032 25.0831 44.9202C27.2851 44.9372 29.1048 43.8162 29.1156 42.417V35.8779H21.1421Z" fill="#FFC19F"/>
<path opacity="0.19" d="M29.114 41.923C27.8557 42.3873 26.3267 42.521 24.7613 42.1803C23.3068 41.8635 22.0748 41.1937 21.1421 40.3439V36.1426C21.1421 36.1426 27.5649 36.9623 29.114 37.4196V41.923Z" fill="#7F1703"/>
<path d="M4.93724 30.2442C6.0855 32.9892 9.16975 34.2972 11.1732 33.7332C13.1766 33.1685 13.2239 30.7781 12.4579 28.0857C11.6919 25.3932 9.55819 24.0319 7.44465 24.2328C4.60772 24.5024 3.85798 27.6646 4.93801 30.2442H4.93724Z" fill="#FFC19F"/>
<path d="M7.67714 30.5539C8.35788 31.678 9.655 32.0937 10.5745 31.4834C11.4933 30.8723 11.6871 29.4662 11.0064 28.3421C10.3264 27.218 9.02854 26.8023 8.10977 27.4126C7.19023 28.023 6.99718 29.4298 7.67791 30.5532L7.67714 30.5539Z" fill="#E0956C"/>
<path d="M44.8751 30.2442C43.7268 32.9892 40.6418 34.2972 38.6391 33.7332C36.6357 33.1685 36.5884 30.7781 37.3544 28.0857C38.1204 25.3932 40.2541 24.0319 42.3677 24.2328C45.2046 24.5024 45.9543 27.6646 44.8751 30.2442Z" fill="#FFC19F"/>
<path d="M42.1319 30.5539C41.4512 31.678 40.1541 32.0937 39.2345 31.4834C38.3158 30.8723 38.122 29.4662 38.8027 28.3421C39.4834 27.218 40.7805 26.8023 41.6993 27.4126C42.6189 28.023 42.8127 29.4298 42.1319 30.5532V30.5539Z" fill="#E0956C"/>
<path d="M6.65801 15.1426C5.21047 27.9373 14.2694 36.4179 24.886 36.4086C35.5033 36.3994 43.7792 29.5296 42.8782 14.6057C42.4596 7.67258 34.9334 1.33744 24.886 1.59085C14.2725 1.85816 7.57677 7.02285 6.65801 15.1426Z" fill="#84220F"/>
<path d="M9.75962 13.3728C12.0647 6.99127 17.6191 6.90088 24.8917 6.90088C32.1643 6.90088 37.7187 6.99204 40.0238 13.3728C40.7185 15.2973 40.1207 31.1699 38.1304 34.7284C36.448 37.7352 29.4584 40.6904 24.9522 40.6904C24.7645 40.6904 25.0041 40.6904 24.8165 40.6904C20.3111 40.6904 13.3354 37.7352 11.6537 34.7284C9.66348 31.1699 9.06493 15.2973 9.7604 13.3728H9.75962Z" fill="#FFC19F"/>
<path d="M8.93793 24.6551C8.6968 24.2889 8.42543 23.8872 8.13003 23.4615C7.68887 22.8264 7.27717 22.2562 6.93448 21.8012C6.96006 21.119 6.92362 19.3614 6.65381 18.2033C6.80732 17.593 6.90889 16.9015 6.93835 16.0841C7.04225 14.437 7.93155 7.61511 14.1551 4.77975C24.1731 0.290295 33.6267 3.19673 36.307 4.74962C41.2458 7.61279 41.8545 11.4703 42.2103 15.7952C42.3181 16.4117 42.4336 16.9401 42.5546 17.4299C42.5375 17.5126 42.5213 17.5906 42.5042 17.6749C42.1755 19.3166 41.9452 20.7343 41.8948 21.3639C41.7723 21.2704 41.6583 21.1723 41.5567 21.0688C41.7762 23.5349 42.926 24.3152 44.1975 25.4076C40.7473 25.583 38.826 22.7105 38.2042 20.2298C37.5142 17.4748 38.5919 14.4385 38.1562 13.3592C37.9042 12.7342 35.6317 9.12782 34.6788 9.1C32.6017 9.04052 30.3222 16.2309 22.9698 16.1142C25.937 14.522 27.5567 12.2699 29.1895 9.05906C28.6126 9.40208 28.035 9.81773 27.4621 10.323C21.4292 15.6484 14.9777 16.4125 9.79234 15.9675C10.4351 19.1142 11.3019 22.3737 8.93715 24.6543L8.93793 24.6551Z" fill="black"/>
<path d="M38.5624 14.1259C32.2489 8.98669 20.5958 7.83092 12.3261 13.3239C7.40433 16.5935 6.97403 20.1288 6.91975 22.119C6.79725 22.0409 6.44215 21.0374 6.40106 20.4626C5.9661 14.3584 6.70111 9.27023 11.6423 4.75683C17.5107 -0.603321 30.9921 -1.83249 38.1546 4.77151C42.1266 8.43353 44.2502 13.2637 42.9609 21.7026C42.9089 22.0409 42.6492 22.5014 42.3468 22.6474C42.9826 20.0485 41.2195 16.2899 38.5617 14.1259H38.5624Z" fill="#D3E9EF"/>
<path d="M8.53872 11.2087C7.78511 12.0076 7.14701 12.9663 6.56396 13.9946C6.6446 13.494 6.7671 13.0088 6.89038 12.5221C7.29587 11.9396 7.70757 11.3648 8.17665 10.8688C15.4151 3.20248 31.9831 2.7652 40.4093 10.0151C41.4305 10.8943 42.2973 12.0632 42.9633 13.2375C43.0579 13.7196 43.1176 14.2349 43.1749 14.7533C42.5275 13.2522 41.4359 11.5564 40.0829 10.3921C31.9916 3.42807 15.4833 3.85531 8.53795 11.2087H8.53872Z" fill="#4259CC"/>
<path d="M39.6017 11.7816C41.2431 13.2147 42.5286 15.1894 43.2985 17.7266C43.269 18.9666 43.1829 20.2645 42.9635 21.7015C42.9116 22.0399 42.6518 22.5003 42.3495 22.6464C42.9852 20.0474 41.2221 16.2888 38.5643 14.1248C32.2508 8.98564 20.5977 7.82986 12.328 13.3229C7.40623 16.5924 6.97592 20.1278 6.92165 22.1179C6.79915 22.0399 6.44405 21.0363 6.40295 20.4615C6.31922 19.2872 6.29906 18.1615 6.32387 17.0591C7.01391 15.3973 7.92415 13.8822 9.09567 12.6044C16.1496 4.90874 31.9089 5.06789 39.6025 11.7816H39.6017Z" fill="#4157C7"/>
<path d="M41.5565 17.9998C42.2201 19.7736 44.3035 21.104 45.8246 21.7638C44.0212 22.2845 42.9575 22.344 42.0379 21.4594C42.2085 20.968 41.2549 19.4537 41.5572 17.9998H41.5565Z" fill="#84220F"/>
<path d="M8.70635 24.8475C7.92714 25.5242 6.85332 26.113 5.35693 26.5711C5.91362 25.885 6.74012 23.5449 6.94403 21.8684C7.21772 22.2879 8.44351 24.4874 8.70712 24.8475H8.70635Z" fill="#84220F"/>
<path d="M8.18091 17.8103C8.40731 19.0163 7.6785 21.368 7.22105 21.8215C6.61862 22.5879 5.21838 23.0971 3.23975 21.7018C4.9067 21.392 6.87526 20.546 8.18091 17.8111V17.8103Z" fill="#84220F"/>
</svg>
