<svg width="73" height="73" viewBox="0 0 73 73" fill="none" xmlns="http://www.w3.org/2000/svg">
<path d="M64.6314 36.1331C64.6314 41.6247 63.003 46.9931 59.9519 51.5593C56.9009 56.1254 52.5644 59.6843 47.4907 61.7859C42.4171 63.8875 36.8342 64.4373 31.448 63.366C26.0619 62.2946 21.1144 59.6501 17.2312 55.7669C13.3479 51.8837 10.7034 46.9362 9.63207 41.55C8.5607 36.1639 9.11057 30.581 11.2121 25.5073C13.3137 20.4336 16.8726 16.0971 21.4388 13.0461C26.005 9.99509 31.3733 8.36662 36.865 8.36662C44.2291 8.36662 51.2916 11.292 56.4988 16.4992C61.706 21.7064 64.6314 28.7689 64.6314 36.1331ZM38.74 0.773398C38.2417 0.278041 37.5676 0 36.865 0C36.1624 0 35.4883 0.278041 34.99 0.773398L26.7451 9.01822C26.2552 9.51124 25.5917 9.79286 24.8967 9.80281H13.1944C12.489 9.80281 11.8125 10.083 11.3137 10.5818C10.815 11.0806 10.5347 11.7571 10.5347 12.4624V24.1648C10.535 24.5157 10.4658 24.8633 10.3312 25.1873C10.1965 25.5114 9.99905 25.8057 9.75016 26.0531L1.50533 34.2979C1.00998 34.7962 0.731934 35.4703 0.731934 36.1729C0.731934 36.8756 1.00998 37.5497 1.50533 38.048L9.75016 46.2928C10.2337 46.7729 10.5145 47.4203 10.5347 48.1013V59.8037C10.5347 60.5091 10.815 61.1855 11.3137 61.6843C11.8125 62.1831 12.489 62.4633 13.1944 62.4633H24.8967C25.2476 62.463 25.5952 62.5322 25.9193 62.6669C26.2434 62.8015 26.5376 62.999 26.785 63.2479L35.0299 71.4927C35.5282 71.9881 36.2022 72.2661 36.9049 72.2661C37.6075 72.2661 38.2816 71.9881 38.7799 71.4927L47.0247 63.2479C47.5048 62.7643 48.1522 62.4835 48.8333 62.4633H60.5356C61.241 62.4633 61.9175 62.1831 62.4163 61.6843C62.915 61.1855 63.1952 60.5091 63.1952 59.8037V48.1013C63.195 47.7504 63.2641 47.4029 63.3988 47.0788C63.5335 46.7547 63.7309 46.4604 63.9798 46.213L72.2246 37.9682C72.72 37.4699 72.998 36.7958 72.998 36.0932C72.998 35.3905 72.72 34.7164 72.2246 34.2181L63.9798 25.9733C63.4963 25.4932 63.2154 24.8459 63.1952 24.1648V12.4624C63.1952 11.7571 62.915 11.0806 62.4163 10.5818C61.9175 10.083 61.241 9.80281 60.5356 9.80281H48.8333C48.4823 9.80309 48.1348 9.73391 47.8107 9.59925C47.4866 9.46459 47.1924 9.26712 46.945 9.01822L38.74 0.773398Z" fill="#4259CC"/>
<path fill-rule="evenodd" clip-rule="evenodd" d="M59.3675 36.1327C59.3675 40.5828 58.0478 44.933 55.5755 48.6332C53.1031 52.3334 49.589 55.2173 45.4776 56.9203C41.3662 58.6233 36.8421 59.0689 32.4775 58.2007C28.1128 57.3325 24.1036 55.1896 20.9569 52.0428C17.8102 48.8961 15.6672 44.8869 14.799 40.5223C13.9308 36.1576 14.3764 31.6335 16.0794 27.5221C17.7824 23.4107 20.6664 19.8966 24.3665 17.4243C28.0667 14.9519 32.4169 13.6323 36.8671 13.6323C39.8224 13.6305 42.749 14.2113 45.4797 15.3414C48.2103 16.4716 50.6914 18.1289 52.7811 20.2186C54.8708 22.3083 56.5281 24.7894 57.6583 27.5201C58.7884 30.2507 59.3692 33.1774 59.3675 36.1327ZM64.6867 36.1327C64.6867 41.6221 63.0595 46.9883 60.0109 51.5533C56.9622 56.1183 52.6288 59.6772 47.5583 61.7804C42.4877 63.8835 36.9075 64.4365 31.5228 63.3694C26.1381 62.3023 21.1905 59.6631 17.3052 55.7852C13.4199 51.9073 10.7712 46.9648 9.69385 41.5821C8.61647 36.1995 9.15876 30.6183 11.2522 25.5437C13.3456 20.4691 16.8962 16.1289 21.4554 13.0715C26.0145 10.0141 31.3777 8.37673 36.8671 8.36621C44.2312 8.36621 51.2937 11.2916 56.5009 16.4988C61.7081 21.706 64.6335 28.7685 64.6335 36.1327H64.6867Z" fill="white"/>
<path fill-rule="evenodd" clip-rule="evenodd" d="M34.0348 19.1116C35.9097 18.7924 37.825 18.7924 39.6998 19.1116C39.8745 19.1404 40.053 19.1346 40.2254 19.0943C40.3978 19.0541 40.5605 18.9804 40.7044 18.8773C40.8483 18.7741 40.9704 18.6437 41.0639 18.4934C41.1573 18.3431 41.2202 18.1758 41.249 18.0012C41.2779 17.8266 41.272 17.648 41.2318 17.4756C41.1916 17.3032 41.1178 17.1405 41.0147 16.9966C40.9116 16.8528 40.7812 16.7306 40.6309 16.6372C40.4805 16.5437 40.3133 16.4808 40.1387 16.452C37.9722 16.0974 35.7625 16.0974 33.596 16.452C33.2433 16.5102 32.9282 16.7061 32.7199 16.9966C32.5117 17.2872 32.4274 17.6485 32.4856 18.0012C32.5438 18.3539 32.7397 18.669 33.0302 18.8773C33.3208 19.0855 33.6821 19.1698 34.0348 19.1116ZM46.9074 22.0904C48.4467 23.1928 49.7944 24.5405 50.8968 26.0798C51.1014 26.3672 51.4117 26.5617 51.7596 26.6203C52.1075 26.6789 52.4645 26.5969 52.7519 26.3923C53.0393 26.1878 53.2338 25.8774 53.2924 25.5295C53.351 25.1816 53.269 24.8247 53.0644 24.5372C51.7849 22.7523 50.2216 21.189 48.4367 19.9095C48.1492 19.7049 47.7923 19.6229 47.4444 19.6815C47.0965 19.7401 46.7861 19.9346 46.5816 20.222C46.377 20.5094 46.295 20.8664 46.3536 21.2143C46.4122 21.5622 46.6067 21.8725 46.8941 22.0771L46.9074 22.0904ZM22.8245 26.0798C23.9269 24.5405 25.2747 23.1928 26.814 22.0904C27.1014 21.8858 27.2958 21.5754 27.3544 21.2276C27.413 20.8797 27.331 20.5227 27.1265 20.2353C26.9219 19.9478 26.6115 19.7534 26.2636 19.6948C25.9157 19.6362 25.5588 19.7182 25.2714 19.9228C23.4864 21.2023 21.9231 22.7656 20.6436 24.5505C20.4391 24.838 20.3571 25.1949 20.4157 25.5428C20.4743 25.8907 20.6687 26.201 20.9561 26.4056C21.2436 26.6102 21.6005 26.6922 21.9484 26.6336C22.2963 26.575 22.6067 26.3805 22.8112 26.0931L22.8245 26.0798ZM53.8889 33.3007C54.2081 35.1755 54.2081 37.0908 53.8889 38.9657C53.8307 39.3184 53.915 39.6797 54.1232 39.9703C54.3315 40.2608 54.6466 40.4567 54.9993 40.5149C55.352 40.5731 55.7133 40.4888 56.0039 40.2806C56.2944 40.0723 56.4903 39.7572 56.5485 39.4045C56.9031 37.238 56.9031 35.0283 56.5485 32.8618C56.4903 32.5092 56.2944 32.194 56.0039 31.9858C55.7133 31.7775 55.352 31.6933 54.9993 31.7514C54.6466 31.8096 54.3315 32.0056 54.1232 32.2961C53.915 32.5866 53.8307 32.948 53.8889 33.3007ZM19.8325 38.9657C19.5311 37.0894 19.5311 35.177 19.8325 33.3007C19.8902 32.9533 19.8078 32.5973 19.6034 32.3106C19.399 32.0239 19.0892 31.83 18.742 31.7714C18.3947 31.7137 18.0386 31.796 17.7519 32.0005C17.4652 32.2049 17.2713 32.5147 17.2127 32.8618C16.8581 35.0283 16.8581 37.238 17.2127 39.4045C17.2713 39.7517 17.4652 40.0615 17.7519 40.2659C18.0386 40.4703 18.3947 40.5527 18.742 40.4949C19.0892 40.4363 19.399 40.2424 19.6034 39.9557C19.8078 39.6691 19.8902 39.313 19.8325 38.9657ZM26.8273 50.176C25.288 49.0736 23.9402 47.7258 22.8378 46.1865C22.6333 45.8991 22.3229 45.7047 21.975 45.6461C21.6271 45.5875 21.2702 45.6695 20.9827 45.874C20.6953 46.0786 20.5009 46.389 20.4423 46.7369C20.3837 47.0848 20.4657 47.4417 20.6702 47.7291C21.9497 49.5141 23.513 51.0774 25.298 52.3569C25.5854 52.5614 25.9423 52.6434 26.2902 52.5848C26.6381 52.5262 26.9485 52.3318 27.1531 52.0444C27.3576 51.7569 27.4396 51.4 27.381 51.0521C27.3224 50.7042 27.128 50.3938 26.8405 50.1893L26.8273 50.176ZM50.9101 46.1865C49.8077 47.7258 48.46 49.0736 46.9207 50.176C46.6333 50.3805 46.4388 50.6909 46.3802 51.0388C46.3216 51.3867 46.4036 51.7436 46.6082 52.0311C46.8127 52.3185 47.1231 52.5129 47.471 52.5715C47.8189 52.6301 48.1758 52.5481 48.4633 52.3436C50.2482 51.0641 51.8115 49.5008 53.091 47.7158C53.2956 47.4284 53.3776 47.0715 53.319 46.7236C53.2604 46.3757 53.0659 46.0653 52.7785 45.8607C52.4911 45.6562 52.1341 45.5742 51.7862 45.6328C51.4383 45.6914 51.128 45.8858 50.9234 46.1732L50.9101 46.1865ZM39.6998 53.1547C37.825 53.474 35.9097 53.474 34.0348 53.1547C33.6821 53.0966 33.3208 53.1808 33.0302 53.3891C32.7397 53.5973 32.5438 53.9124 32.4856 54.2651C32.4274 54.6178 32.5117 54.9792 32.7199 55.2697C32.9282 55.5603 33.2433 55.7562 33.596 55.8144C35.7625 56.169 37.9722 56.169 40.1387 55.8144C40.4913 55.7562 40.8065 55.5603 41.0147 55.2697C41.2229 54.9792 41.3072 54.6178 41.249 54.2651C41.1909 53.9124 40.9949 53.5973 40.7044 53.3891C40.4139 53.1808 40.0525 53.0966 39.6998 53.1547Z" fill="#4259CC"/>
<path d="M46.6532 33.9548C46.899 33.9548 47.1347 34.0525 47.3085 34.2262C47.4822 34.4 47.5799 34.6357 47.5799 34.8814V36.0492C47.5533 36.2747 47.445 36.4826 47.2753 36.6334C47.1057 36.7842 46.8866 36.8676 46.6596 36.8676C46.4326 36.8676 46.2135 36.7842 46.0438 36.6334C45.8742 36.4826 45.7659 36.2747 45.7393 36.0492V34.8814C45.7376 34.7598 45.76 34.6389 45.805 34.5259C45.85 34.4128 45.9169 34.3097 46.0017 34.2225C46.0866 34.1353 46.1878 34.0656 46.2996 34.0175C46.4114 33.9694 46.5316 33.9438 46.6532 33.9421V33.9548ZM36.9936 45.3281V44.1603C36.9671 43.9348 36.8588 43.7269 36.6891 43.5761C36.5195 43.4252 36.3004 43.3419 36.0734 43.3419C35.8464 43.3419 35.6273 43.4252 35.4576 43.5761C35.288 43.7269 35.1796 43.9348 35.1531 44.1603V45.3281C35.1378 45.458 35.1502 45.5897 35.1895 45.7145C35.2288 45.8392 35.294 45.9543 35.3809 46.0521C35.4679 46.1498 35.5745 46.2281 35.6939 46.2816C35.8132 46.3352 35.9425 46.3629 36.0734 46.3629C36.2042 46.3629 36.3335 46.3352 36.4529 46.2816C36.5722 46.2281 36.6789 46.1498 36.7658 46.0521C36.8527 45.9543 36.918 45.8392 36.9573 45.7145C36.9965 45.5897 37.0089 45.458 36.9936 45.3281ZM32.6906 46.0135C32.8435 46.8001 33.2653 47.509 33.8837 48.0187C34.502 48.5284 35.2784 48.8071 36.0797 48.8071C36.881 48.8071 37.6574 48.5284 38.2758 48.0187C38.8941 47.509 39.3159 46.8001 39.4688 46.0135H47.1737C47.5103 46.0135 47.8332 45.8798 48.0712 45.6417C48.3093 45.4037 48.443 45.0808 48.443 44.7442C48.443 44.4075 48.3093 44.0847 48.0712 43.8466C47.8332 43.6086 47.5103 43.4748 47.1737 43.4748H45.9043C45.4339 43.4805 44.9711 43.3553 44.5676 43.1132C44.1642 42.8712 43.8359 42.5217 43.6195 42.1039C43.1753 41.4185 42.8199 40.6188 42.4391 39.908C42.3629 39.7684 42.2867 39.6288 42.1979 39.4891H46.6913C47.6048 39.4858 48.4797 39.1205 49.1245 38.4734C49.7692 37.8263 50.1312 36.95 50.1312 36.0365V34.8688C50.1598 34.3969 50.0916 33.9242 49.9307 33.4797C49.7698 33.0352 49.5196 32.6283 49.1956 32.2841C48.8716 31.9398 48.4806 31.6656 48.0467 31.4781C47.6127 31.2906 47.145 31.1938 46.6723 31.1938C46.1996 31.1938 45.7318 31.2906 45.2979 31.4781C44.8639 31.6656 44.4729 31.9398 44.1489 32.2841C43.8249 32.6283 43.5748 33.0352 43.4139 33.4797C43.253 33.9242 43.1848 34.3969 43.2134 34.8688V36.0365C43.2102 36.3458 43.253 36.6538 43.3403 36.9505H38.263C37.9263 36.9505 37.6035 37.0842 37.3654 37.3222C37.1274 37.5603 36.9936 37.8831 36.9936 38.2198C36.9936 38.5564 37.1274 38.8793 37.3654 39.1173C37.6035 39.3554 37.9263 39.4891 38.263 39.4891C38.5656 39.4921 38.862 39.5746 39.1227 39.7284C39.3834 39.8821 39.599 40.1016 39.7481 40.365C40.1018 40.9041 40.4157 41.4684 40.6874 42.0532C40.9221 42.5336 41.1849 42.9999 41.4744 43.4494H39.4688C39.3034 42.6733 38.8765 41.9775 38.2597 41.4783C37.6428 40.9791 36.8733 40.7067 36.0797 40.7067C35.2861 40.7067 34.5166 40.9791 33.8998 41.4783C33.2829 41.9775 32.8561 42.6733 32.6906 43.4494H31.9036C31.6751 38.2452 28.5272 37.1028 28.5272 37.1028C28.2158 36.9732 27.8657 36.9726 27.5538 37.1011C27.242 37.2297 26.994 37.4768 26.8644 37.7882C26.7348 38.0996 26.7342 38.4497 26.8627 38.7616C26.9912 39.0734 27.2384 39.3214 27.5498 39.451C27.5498 39.451 29.1619 40.2888 29.3649 43.4621H25.6966C25.3599 43.4621 25.0371 43.5959 24.799 43.8339C24.561 44.072 24.4272 44.3948 24.4272 44.7315C24.4272 45.0681 24.561 45.391 24.799 45.629C25.0371 45.8671 25.3599 46.0008 25.6966 46.0008L32.6906 46.0135Z" fill="#4259CC"/>
<rect x="35.0679" y="43.3237" width="1.96483" height="2.82194" rx="0.829834" fill="#AAD742"/>
<g clip-path="url(#clip0_1_481)">
<path d="M40.7932 25.4396C40.7245 25.5791 40.6498 25.7163 40.5887 25.8588C40.431 26.2269 40.1372 26.4466 39.7531 26.5705C39.1513 26.7647 38.5383 26.8283 37.9139 26.6914C37.8003 26.6666 37.7559 26.6964 37.7267 26.7942C37.6871 26.9264 37.6392 27.0562 37.5923 27.1865C37.5691 27.2517 37.5322 27.3127 37.4506 27.313C37.3711 27.3134 37.3339 27.2517 37.2999 27.1924C37.2235 27.0596 37.2787 26.9274 37.327 26.8097C37.4048 26.6199 37.3833 26.4923 37.1759 26.3995C37.0561 26.3459 36.9703 26.2408 36.8891 26.1398C36.8283 26.0642 36.7634 26.048 36.688 26.1202C36.5404 26.2614 36.3786 26.385 36.1956 26.4814C36.1358 26.5128 36.1212 26.5635 36.1275 26.6215C36.1969 27.2494 36.1935 27.8866 36.3793 28.5002C36.4897 28.8654 36.6488 29.2033 36.9783 29.4432C37.1145 29.5426 37.2687 29.5996 37.4315 29.6404C37.4642 29.6483 37.501 29.6689 37.5295 29.642C37.5673 29.6062 37.5309 29.5688 37.517 29.5363C37.3767 29.198 37.3162 28.8485 37.4656 28.5065C37.676 28.0244 38.0348 27.6782 38.5925 27.5755C38.9596 27.5079 39.2318 27.705 39.4881 27.9191C39.5486 27.9694 39.5982 28.0317 39.6517 28.0894C39.7094 28.1513 39.7417 28.2196 39.6937 28.2998C39.6441 28.3826 39.567 28.3793 39.4819 28.3607C39.3301 28.3276 39.1787 28.2905 39.0249 28.2709C38.6904 28.2285 38.3682 28.2868 38.0629 28.4161C37.8326 28.5135 37.7972 28.6169 37.8865 28.8362C38.1574 29.5005 38.4824 29.6483 39.1943 29.4316C39.4708 29.3475 39.733 29.2355 39.9806 29.0907C40.0542 29.0476 40.1303 29.0072 40.2084 28.9727C40.2702 28.9452 40.3372 28.9154 40.4008 28.9747C40.4623 29.032 40.4355 29.096 40.4168 29.1599C40.2984 29.5605 40.0726 29.8574 39.65 30.0337C38.9335 30.3325 38.2025 30.5108 37.4162 30.4442C36.8318 30.3948 36.4136 30.1158 36.1476 29.6208C36.1223 29.5734 36.1119 29.5158 36.0473 29.4783C35.9021 29.7358 35.7441 29.983 35.5267 30.1904C35.16 30.5403 34.8394 30.5698 34.4511 30.2378C34.2619 30.0761 34.1296 30.0363 33.8892 30.1629C33.3027 30.4714 32.6474 30.5525 31.9879 30.6056C31.4496 30.649 30.9162 30.6377 30.3876 30.5257C30.2806 30.5028 30.2862 30.5446 30.3022 30.6198C30.4657 31.3945 30.9169 31.917 31.7305 32.14C32.4991 32.3507 33.2829 32.3322 34.0667 32.2941C34.6043 32.2679 35.1318 32.1811 35.6364 31.9876C35.8469 31.9067 36.0427 31.8044 36.2313 31.6864C36.2907 31.6493 36.3543 31.585 36.4307 31.6549C36.4942 31.7132 36.4907 31.7921 36.4456 31.8524C36.3348 32.0002 36.4432 32.0442 36.5567 32.0873C36.8089 32.1831 36.9651 32.1523 37.1485 31.9621C37.3256 31.7782 37.4513 31.5608 37.5725 31.3411C37.602 31.2878 37.6312 31.2335 37.667 31.1838C37.6979 31.1407 37.743 31.1148 37.8014 31.1307C37.8566 31.146 37.8899 31.1847 37.8986 31.2364C37.9049 31.2732 37.8986 31.3123 37.8955 31.3504C37.8879 31.4478 37.7993 31.5529 37.9233 31.638C38.073 31.7414 38.2424 31.7964 38.4258 31.7878C38.5109 31.7838 38.5248 31.7016 38.5196 31.634C38.5137 31.5575 38.4966 31.4816 38.4814 31.4061C38.4682 31.3401 38.4609 31.2742 38.4835 31.2103C38.5248 31.0923 38.5807 30.9584 38.7259 30.9641C38.8832 30.9704 38.8835 31.1244 38.8912 31.2341C38.9172 31.6055 38.8922 31.9717 38.7234 32.3169C38.6387 32.4902 38.5119 32.5774 38.2997 32.5585C38.073 32.5383 37.8712 32.4707 37.6975 32.3332C37.6007 32.2566 37.5437 32.2265 37.4784 32.3719C37.411 32.522 37.3114 32.6625 37.1728 32.7676C36.8252 33.031 36.4314 33.0025 36.0667 32.6738C35.9646 32.582 35.891 32.5707 35.7674 32.6337C35.2919 32.8776 34.7703 32.9733 34.2403 33.0283C33.4683 33.1085 32.6974 33.1175 31.9344 32.9491C31.2871 32.8063 30.7151 32.5429 30.3136 32.0128C30.1577 31.807 30.0403 31.5824 29.95 31.2921C29.8875 31.5277 29.8378 31.7175 29.7434 31.8922C29.7104 31.9528 29.7517 31.9839 29.7976 32.0121C29.8854 32.0664 29.9636 32.1304 30.0299 32.2083C30.1573 32.3574 30.2126 32.5214 30.1733 32.7152C30.1511 32.8239 30.1209 32.9293 30.0816 33.033C29.9431 33.3951 29.8108 33.4654 29.4135 33.3918C29.2697 33.3653 29.1374 33.312 29.013 33.2414C28.9457 33.2029 28.9016 33.195 28.8707 33.2805C28.6863 33.7917 28.2247 33.8968 27.7458 33.9667C27.6159 33.9856 27.4808 33.9717 27.3482 33.9726C27.2634 33.9733 27.2037 33.9392 27.1804 33.858C27.154 33.7669 27.2162 33.7268 27.2881 33.6953C27.5822 33.5674 27.8799 33.4461 28.1549 33.2825C28.2476 33.2271 28.3365 33.1655 28.4251 33.1035C28.5838 32.9922 28.6682 32.8504 28.6613 32.6532C28.6477 32.2639 28.8047 31.9889 29.2093 31.8275C29.5065 31.7089 29.6052 31.4134 29.6802 31.1301C29.7028 31.0449 29.7219 30.9578 29.7285 30.8703C29.751 30.5675 29.7743 30.2941 29.3933 30.1165C29.0537 29.9581 28.8623 29.6221 28.6956 29.2713C28.6428 29.3379 28.6005 29.3922 28.5574 29.4455C28.2671 29.806 27.5996 29.8412 27.2746 29.5095C27.1169 29.3488 27.1575 29.1662 27.2277 28.983C27.4013 28.531 27.7319 28.209 28.166 27.986C28.3494 27.8919 28.4143 27.7839 28.3657 27.5907C28.3199 27.4078 28.3747 27.2408 28.5234 27.1096C28.5678 27.0705 28.6012 26.9986 28.6769 27.0254C28.7491 27.0509 28.771 27.1219 28.7776 27.1881C28.7946 27.3578 28.8012 27.5284 28.8182 27.6981C28.8509 28.0208 28.8686 28.3465 28.9957 28.653C29.1249 28.9638 29.3044 29.2391 29.6316 29.4459C29.617 29.2752 29.6055 29.1301 29.592 28.9853C29.5711 28.7607 29.552 28.536 29.5267 28.3117C29.5017 28.0867 29.6232 27.9094 29.726 27.7256C29.7451 27.6911 29.7771 27.6606 29.8233 27.6699C29.8823 27.6818 29.9076 27.7302 29.9156 27.7789C29.9438 27.9472 29.9705 28.1159 29.9893 28.2852C30.0351 28.7007 30.0809 29.1162 30.1164 29.5324C30.1285 29.6752 30.207 29.7278 30.3379 29.76C30.7963 29.8726 31.2627 29.8789 31.7309 29.863C32.2799 29.8441 32.8231 29.7895 33.351 29.6294C33.6507 29.5386 33.9358 29.4217 34.1869 29.2404C34.297 29.1609 34.3713 29.1629 34.4584 29.2732C34.5658 29.4091 34.6887 29.5343 34.846 29.6231C35.0231 29.7232 35.1933 29.7222 35.3649 29.6096C35.5805 29.4677 35.7396 29.2858 35.8288 29.0493C35.8611 28.9638 35.8684 28.8806 35.8517 28.7905C35.7302 28.1348 35.6409 27.4751 35.592 26.8104C35.5836 26.6977 35.5562 26.6527 35.4159 26.656C34.9686 26.6666 34.6165 26.4751 34.3484 26.1391C34.2619 26.0307 34.1834 25.9168 34.1035 25.8084C34.0358 25.8237 34.0542 25.8704 34.048 25.9045C33.999 26.1832 33.9139 26.4506 33.7837 26.7047C33.6847 26.8982 33.6857 26.9005 33.8962 26.9515C34.1323 27.0089 34.3622 27.0784 34.5602 27.2213C34.6831 27.3097 34.7481 27.4174 34.7443 27.5725C34.7356 27.9138 34.6338 28.212 34.3529 28.4373C33.7212 28.9439 33.0183 29.2865 32.1692 29.2696C31.8153 29.2626 31.4676 29.211 31.1499 29.045C30.6685 28.7935 30.4234 28.4022 30.3904 27.8836C30.3654 27.4906 30.4505 27.1159 30.6078 26.7567C30.6654 26.6252 30.6692 26.5307 30.5578 26.4184C30.4289 26.2882 30.3296 26.1311 30.2074 25.9728C30.0389 26.329 29.8191 26.6199 29.3746 26.6348C28.92 26.65 28.6863 26.3856 28.5501 25.9688C28.3101 26.3492 27.9681 26.3787 27.5937 26.314C27.1641 26.2398 27.0492 26.0218 27.2374 25.6106C27.4291 25.1925 27.7917 24.9098 28.2442 24.7538C28.3883 24.7041 28.4286 24.6428 28.4063 24.5013C28.3619 24.218 28.5109 23.9907 28.6758 23.7747C28.73 23.7041 28.7856 23.7316 28.8238 23.7965C28.8595 23.8572 28.8495 23.9254 28.8491 23.991C28.846 24.4039 28.8446 24.8167 28.9151 25.2263C28.9217 25.2644 28.9252 25.3031 28.9356 25.3399C29.053 25.7508 29.2544 25.878 29.7465 25.6888C29.9434 25.6133 30.0014 25.4738 29.9622 25.2743C29.8563 24.7392 29.7514 24.2037 29.6479 23.6683C29.5968 23.4045 29.7708 23.219 29.9101 23.0271C29.9653 22.9509 30.0671 23.0149 30.0931 23.1554C30.1344 23.3774 30.1681 23.6004 30.2004 23.8237C30.2636 24.2597 30.3223 24.6961 30.4428 25.1225C30.4921 25.2975 30.5772 25.4492 30.7133 25.5755C30.7814 25.6388 30.8613 25.6802 30.9551 25.6964C31.1988 25.7382 31.2506 25.6891 31.2006 25.4589C31.0763 24.8876 30.9613 24.3144 30.8203 23.7471C30.7557 23.487 30.8495 23.2839 30.9856 23.0815C31.0568 22.9758 31.1266 23.0199 31.1596 23.106C31.2068 23.2293 31.2436 23.3578 31.2676 23.487C31.3812 24.099 31.5482 24.7014 31.6402 25.3177C31.692 25.6636 31.6392 25.9986 31.5156 26.323C31.4409 26.5191 31.3006 26.6494 31.0624 26.6394C30.971 26.6354 30.9224 26.6808 30.8995 26.7577C30.7588 27.2285 30.7963 27.6782 31.1183 28.0741C31.3457 28.3538 31.6889 28.421 32.0337 28.4379C32.8255 28.477 33.5361 28.253 34.1667 27.7968C34.2028 27.7706 34.2546 27.7464 34.2494 27.6987C34.2438 27.6467 34.1834 27.6447 34.1414 27.6311C33.9004 27.5529 33.6521 27.5032 33.4024 27.4585C33.0832 27.4015 33.0078 27.2179 33.2193 26.9744C33.4048 26.7607 33.5135 26.5205 33.5927 26.2571C33.7132 25.8545 33.6857 25.4506 33.6333 25.0457C33.5291 24.2375 33.4048 23.4317 33.3166 22.6222C33.2777 22.2634 33.409 21.9165 33.5187 21.5742H33.6573C33.6927 21.6438 33.7198 21.7154 33.7319 21.7929C33.8017 22.2386 33.8695 22.6845 33.9452 23.1292C34.0608 23.8078 34.181 24.486 34.4192 25.1381C34.5401 25.4691 34.7488 25.7335 35.1131 25.8478C35.493 25.9671 35.5274 25.9178 35.5055 25.537C35.4777 25.0556 35.3662 24.5553 35.7062 24.1183C35.7639 24.0444 35.7594 23.884 35.8875 23.9141C36.0118 23.9433 35.9743 24.0888 35.9799 24.1895C36.007 24.6726 36.0334 25.1557 36.0552 25.6388C36.0605 25.7508 36.1018 25.772 36.2056 25.7296C36.4043 25.6484 36.58 25.537 36.7366 25.3949C36.9373 25.213 37.0231 25.2166 37.1933 25.433C37.3336 25.6113 37.5163 25.7269 37.7226 25.82C37.8319 25.8694 37.9038 25.8551 37.9882 25.76C38.3855 25.3107 38.8474 24.9327 39.3919 24.6507C39.7549 24.4628 40.1014 24.4506 40.44 24.708C40.572 24.8084 40.6946 24.9141 40.7932 25.0447V25.4413V25.4396ZM38.3918 25.9562C38.6269 25.9562 38.863 25.9698 39.0971 25.9529C39.436 25.9284 39.775 25.8873 40.0941 25.764C40.249 25.704 40.2529 25.6557 40.1254 25.5626C39.8802 25.3826 39.6059 25.328 39.3082 25.4022C38.9474 25.492 38.6658 25.7123 38.3918 25.9562ZM28.0674 28.9306C28.5143 28.9306 28.5748 28.872 28.4751 28.537C28.4734 28.5317 28.4716 28.5264 28.4706 28.5211C28.4532 28.4353 28.4046 28.4164 28.3202 28.4479C28.191 28.4963 28.0622 28.5456 27.9493 28.6228C27.8587 28.6848 27.7087 28.7464 27.7514 28.8604C27.7847 28.9499 27.9417 28.93 28.05 28.9306C28.0559 28.9306 28.0615 28.9306 28.0674 28.9306ZM28.0705 25.5341C28.1296 25.5298 28.1869 25.5274 28.2431 25.5205C28.2768 25.5162 28.3101 25.5062 28.3424 25.495C28.4393 25.4608 28.498 25.3184 28.4432 25.2223C28.3848 25.1199 28.3136 25.2097 28.2556 25.2299C28.1705 25.2597 28.0889 25.3025 28.0122 25.3492C27.9521 25.3856 27.8406 25.4164 27.8597 25.4834C27.8851 25.5715 27.9993 25.5132 28.0705 25.5341ZM29.7736 32.7288C29.6111 32.4312 29.1936 32.2997 28.9992 32.474C29.2298 32.6188 29.4829 32.693 29.7736 32.7288Z" fill="#4259CC"/>
<path d="M32.339 21.5737C32.4567 21.7155 32.4293 21.8902 32.4404 22.0499C32.4897 22.7576 32.5841 23.461 32.6425 24.1678C32.6984 24.8427 32.7387 25.5193 32.6581 26.1956C32.6439 26.3162 32.6192 26.4352 32.5619 26.5452C32.5411 26.5856 32.5157 26.6267 32.4629 26.6273C32.3973 26.628 32.3768 26.5737 32.3661 26.5273C32.3501 26.458 32.3404 26.3861 32.3407 26.3152C32.3487 25.2118 32.1994 24.1204 32.0677 23.0273C32.0413 22.8086 32.0177 22.5896 31.9903 22.3713C31.974 22.2417 31.9962 22.1201 32.0507 22.0008C32.1157 21.86 32.174 21.7162 32.2351 21.5737C32.2699 21.5737 32.3042 21.5737 32.339 21.5737Z" fill="#4259CC"/>
<path d="M40.7927 22.5319C40.6733 22.7844 40.4416 22.8971 40.1853 22.9839C39.2991 23.2837 38.4138 23.5873 37.5272 23.8865C37.4567 23.9103 37.3744 23.968 37.3039 23.8891C37.2303 23.8066 37.2963 23.7337 37.338 23.6638C37.4324 23.5057 37.562 23.3888 37.7467 23.3258C38.6809 23.0067 39.614 22.6843 40.5469 22.3616C40.6316 22.3321 40.7122 22.3099 40.7927 22.3669V22.5323V22.5319Z" fill="#4259CC"/>
<path d="M40.7337 31.3605C40.7236 32.2684 40.3492 33.0248 39.6758 33.6534C39.4504 33.8638 39.1792 33.9685 38.8573 33.9363C38.5416 33.9049 38.227 33.8681 37.9203 33.7866C37.854 33.769 37.787 33.7488 37.7258 33.7193C37.656 33.6852 37.5977 33.6255 37.6192 33.548C37.6421 33.4652 37.7258 33.4867 37.7949 33.4884C38.0026 33.4937 38.2106 33.5043 38.4176 33.4957C38.6927 33.4841 38.9483 33.4138 39.1768 33.2525C39.5831 32.9662 39.9623 32.656 40.2416 32.2485C40.2989 32.165 40.3489 32.0769 40.3305 31.9708C40.3259 31.9453 40.3211 31.9122 40.3027 31.8979C40.2732 31.8751 40.2513 31.9066 40.2332 31.9264C40.0676 32.1103 39.8682 32.1146 39.6519 32.0265C39.4237 31.9334 39.315 31.7515 39.3077 31.5311C39.2931 31.0805 39.4477 30.673 39.738 30.3214C39.9224 30.0984 40.137 30.107 40.3416 30.3141C40.6048 30.5809 40.7319 30.9205 40.733 31.3602L40.7337 31.3605Z" fill="#4259CC"/>
<path d="M33.0514 31.94C32.8826 31.944 32.5044 31.6666 32.4732 31.5341C32.4648 31.4993 32.4707 31.4682 32.4902 31.4397C32.5878 31.2972 32.6805 31.1517 32.7857 31.0142C32.8757 30.8966 32.9864 30.9731 33.0816 31.0106C33.3389 31.112 33.3428 31.1186 33.4976 30.8939C33.5688 30.7906 33.6473 30.7717 33.7595 30.8157C33.9109 30.8757 34.0359 30.9718 34.1557 31.0752C34.2315 31.1408 34.2332 31.2167 34.1807 31.2975C34.0929 31.4327 34.004 31.5676 33.9186 31.7041C33.8675 31.7859 33.8126 31.7876 33.7362 31.7332C33.6348 31.6613 33.5247 31.5566 33.4094 31.5632C33.2761 31.5709 33.2719 31.7465 33.1924 31.8363C33.1469 31.8873 33.1153 31.9486 33.0524 31.9393L33.0514 31.94Z" fill="#4259CC"/>
<path d="M29.02 22.3115C29.0443 22.1482 29.0336 21.9905 29.1082 21.848C29.1388 21.7897 29.1634 21.7145 29.253 21.734C29.3322 21.7512 29.351 21.8212 29.3572 21.8894C29.3624 21.9441 29.36 21.9994 29.3656 22.0541C29.3715 22.1101 29.3836 22.1691 29.451 22.1846C29.5156 22.1995 29.5611 22.1588 29.5972 22.1144C29.6687 22.0259 29.7063 21.9212 29.7469 21.8182C29.7715 21.7555 29.7965 21.6846 29.8823 21.688C29.9744 21.6916 30.0011 21.7635 30.0157 21.8374C30.0303 21.9116 30.0237 22.01 30.1334 22.0113C30.2452 22.0127 30.2793 21.9275 30.2987 21.8321C30.3154 21.7502 30.3157 21.6247 30.4335 21.6316C30.5686 21.6396 30.5651 21.7748 30.5654 21.8669C30.5665 22.0912 30.4956 22.3029 30.3769 22.4944C30.2723 22.6624 30.1181 22.6919 29.9115 22.5991C29.8507 22.572 29.8073 22.5421 29.7504 22.6117C29.6253 22.7638 29.459 22.84 29.2628 22.7598C29.0565 22.6757 29.0381 22.4842 29.0204 22.3119L29.02 22.3115Z" fill="#4259CC"/>
<path d="M37.8511 21.6104C37.9573 21.6226 38.0126 21.6823 37.9751 21.779C37.9146 21.9347 37.8323 22.0752 37.6569 22.1508C37.1829 22.3549 36.688 22.5063 36.2004 22.6756C35.7021 22.8489 35.2006 23.0146 34.6998 23.1826C34.6318 23.2054 34.5585 23.2531 34.4974 23.172C34.4435 23.1004 34.4796 23.0364 34.5217 22.9738C34.6359 22.8038 34.7731 22.6696 34.9843 22.5981C35.9025 22.286 36.8165 21.9632 37.7323 21.6448C37.7702 21.6316 37.8094 21.6223 37.8507 21.6104H37.8511Z" fill="#4259CC"/>
</g>
<defs>
<clipPath id="clip0_1_481">
<rect width="13.643" height="12.4027" fill="white" transform="translate(27.1499 21.5737)"/>
</clipPath>
</defs>
</svg>
