<svg width="431" height="250" viewBox="0 0 431 250" fill="none" xmlns="http://www.w3.org/2000/svg">
<path d="M395.382 40.042C394.751 40.1528 394.09 39.9756 393.587 39.4984C392.754 38.7021 392.737 37.4066 393.515 36.5788L416.353 12.7781C417.152 11.9467 418.45 11.9283 419.279 12.7044C420.112 13.5007 420.129 14.7962 419.351 15.624L396.513 39.4247C396.196 39.7735 395.81 39.9669 395.382 40.042Z" fill="white"/>
<path d="M381.152 30.7276C380.032 30.9242 378.955 30.1707 378.759 29.0532L375.357 9.66953C375.16 8.55202 375.916 7.47686 377.036 7.28028C378.156 7.0837 379.233 7.83719 379.429 8.95469L382.832 28.3384C383.028 29.4559 382.272 30.531 381.152 30.7276Z" fill="white"/>
<path d="M425.169 49.8727L405.742 53.2824C404.622 53.479 403.545 52.7255 403.349 51.608C403.153 50.4905 403.909 49.4153 405.029 49.2188L424.456 45.809C425.576 45.6124 426.653 46.3659 426.849 47.4834C427.045 48.6009 426.289 49.6761 425.169 49.8727Z" fill="white"/>
<path d="M26.6838 101.689H164.067L181.226 111.265H15.6952L0 104.556V101.689H26.6838Z" fill="#1B7589"/>
<path d="M211.029 78.3498C246.648 101.801 272.041 133.669 272.041 133.669V161.888L198.089 120.678L181.214 111.275L164.045 101.689H26.6719C30.372 82.7005 26.6719 55.0205 26.6719 55.0205H155.293C175.044 58.0802 194.144 67.2493 210.958 78.3599H211.019L211.029 78.3498Z" fill="#F2F2F2"/>
<path d="M252.882 55.0101H383.79C383.79 55.0101 298.381 93.9838 272.043 133.659C272.043 133.659 246.65 101.801 211.031 78.3394C212.21 77.1602 230.193 60.5299 252.882 55V55.0101Z" fill="#F2F2F2"/>
<path d="M398.846 90.2832L272.055 161.877V133.658C298.393 93.9834 383.801 55.0098 383.801 55.0098L398.846 90.2832Z" fill="#E6E6E6"/>
<path d="M416.129 90.2832V95.4573L388.327 111.264L285.811 169.582L272.047 161.877L398.848 90.2832H416.129Z" fill="#52A4C1"/>
<path d="M285.797 169.583L388.313 111.265H404.354L296.135 175.336L285.797 169.583Z" fill="#BA8B5D"/>
<path d="M410.299 250H242.003L213.5 235.769L296.205 187.393L410.299 250Z" fill="#A67C52"/>
<path d="M404.36 111.265L410.296 120.678L306.723 181.222L296.141 175.336L404.36 111.265Z" fill="#C69C6D"/>
<path d="M306.724 181.221L430.11 249.999H410.298L296.203 187.391L306.724 181.221Z" fill="#C69C6D"/>
<path d="M296.146 175.336L306.728 181.222L296.207 187.392L285.625 181.567L296.146 175.336Z" fill="#C69C6D"/>
<path d="M285.616 181.568L170.759 249.584L35.5 249.645L110.682 180.633L285.616 181.568Z" fill="#BA8B5D"/>
<path d="M285.631 181.568L110.697 180.632L3.89062 120.678H174.647L285.631 181.568Z" fill="#9B6D45"/>
<path d="M198.102 120.678L272.044 161.877L285.808 169.583L296.146 175.336L285.625 181.568L174.641 120.678L181.228 111.265L198.102 120.678Z" fill="#C69C6D"/>
<path d="M170.766 249.582L285.623 181.566L296.205 187.391L213.5 235.768L189.104 249.999L170.766 249.582Z" fill="#C69C6D"/>
<path d="M15.7026 111.265H181.234L174.647 120.678H3.89062L6.88937 111.265H15.7026Z" fill="#C69C6D"/>
<path d="M416.119 95.4573V90.2832L282.344 167.651L285.8 169.582L416.119 95.4573Z" fill="#3088A0"/>
<path d="M398.848 90.2832H402.02L273.938 162.934L272.047 161.877L398.848 90.2832Z" fill="#3088A0"/>
<path d="M164.067 101.689H0V104.556H164.067V101.689Z" fill="#43A8BF"/>
<path d="M164.062 101.689V104.556L176.688 111.265H181.221L164.062 101.689Z" fill="#43A8BF"/>
<path d="M155.309 55.0098H26.6875C26.6875 55.0098 30.3877 82.6999 26.6875 101.678H157.006C162.211 83.2489 155.309 55.0098 155.309 55.0098Z" fill="#F2F2F2"/>
<path d="M211.038 78.3492H210.977C194.164 67.2386 175.064 58.0695 155.312 55.0098C155.312 55.0098 162.215 83.2489 157.01 101.678H164.065L181.234 111.264L198.108 120.667L272.06 161.877V133.658C272.06 133.658 246.668 101.8 211.049 78.339L211.038 78.3492Z" fill="#E6E6E6"/>
<path d="M296.205 187.393L302.08 250H242.003L213.5 235.769L296.205 187.393Z" fill="#966A42"/>
<path d="M388.313 111.265L285.797 169.583L287.616 170.599L390.804 111.265H388.313Z" fill="#A37C58"/>
<path d="M15.6953 111.265L21.398 120.678H174.639L168.357 111.265H15.6953Z" fill="#A67C52"/>
</svg>
