<svg width="44" height="46" viewBox="0 0 44 46" fill="none" xmlns="http://www.w3.org/2000/svg">
<path d="M2.55259 26.4846C-0.232459 25.6543 -0.328025 21.7453 2.41313 20.7799L12.2072 17.3308C13.433 16.8991 14.2415 15.7272 14.2098 14.4279L13.956 4.04737C13.885 1.14207 17.5732 -0.15679 19.3383 2.1519L25.6451 10.4007C26.4345 11.4332 27.799 11.84 29.0249 11.4083L38.8189 7.95917C41.56 6.99383 43.935 10.1002 42.2848 12.4923L36.3886 21.0395C35.6506 22.1093 35.6854 23.5327 36.4748 24.5652L42.7816 32.814C44.5467 35.1227 42.3264 38.3414 39.5413 37.5111L29.5905 34.5447C28.345 34.1734 27.002 34.6463 26.264 35.7162L20.3678 44.2633C18.7176 46.6555 14.9703 45.5384 14.8993 42.6331L14.6455 32.2526C14.6137 30.9533 13.749 29.8223 12.5034 29.451L2.55259 26.4846Z" fill="white"/>
</svg>
