<svg width="192" height="144" viewBox="0 0 192 144" fill="none" xmlns="http://www.w3.org/2000/svg">
<path d="M189.755 17.2044C188.008 14.8511 185.298 13.5852 182.534 14.1023C182.784 12.7651 183.283 11.4815 183.158 10.0909C183.034 8.64678 182.463 7.25617 181.625 6.09733C179.967 3.79746 177.346 2.12159 174.654 1.30148C171.534 0.356574 168.183 0.873603 165.277 2.28205C164.207 2.79907 162.371 3.70832 161.354 4.88499C159.964 2.97735 158.466 1.33713 156.006 0.713139C152.904 -0.0713109 149.605 0.641826 146.949 2.37118C143.027 4.93847 141.547 9.62734 143.062 13.7992C141.333 13.2287 139.497 13.0148 137.66 13.3713C136.769 13.5496 135.931 13.8705 135.147 14.2806C123.184 5.3307 108.35 0 92.3049 0C52.7615 0 20.5812 32.1803 20.5812 71.7237C20.5812 72.936 20.6169 74.1305 20.6703 75.325C19.7789 75.4677 18.8875 75.6638 18.0317 75.9669C12.8437 77.8032 8.70748 82.4386 6.67504 87.484C5.64099 90.0513 5.21311 92.9038 5.90842 95.5959C1.93268 96.113 -1.20511 100.82 0.452928 104.688C1.41566 106.935 3.46592 108.379 5.90842 108.486C7.70909 108.557 9.49192 108.022 11.1856 107.363C10.936 108.45 10.7577 109.538 10.8291 110.643C10.9539 112.337 11.6135 113.924 12.6119 115.278C14.3947 117.703 17.1047 119.343 19.975 120.217C25.591 121.911 31.7596 120.003 36.2702 116.366C49.4097 132.839 69.645 143.43 92.3049 143.43C131.848 143.43 164.029 111.249 164.029 71.7059C164.029 64.004 162.781 56.6052 160.516 49.67C162.495 49.4025 164.456 48.8855 166.293 48.1189C169.038 46.96 171.927 45.2842 173.923 43.0556C175.974 40.7736 176.259 37.7962 176.188 34.8724C177.043 35.3894 178.184 35.639 179.129 35.7281C181.857 35.9599 184.567 34.6228 186.599 32.9112C190.949 29.2742 193.428 22.1785 189.755 17.2044ZM92.2871 1.81851C95.6745 1.81851 99.0262 2.0681 102.289 2.54946C100.399 3.83311 99.3828 5.97253 97.7782 7.55925C95.6566 9.64518 92.6258 10.3761 90.0407 11.7133C88.1509 12.6938 86.7959 13.9775 86.0471 15.9921C85.1735 18.3454 85.4588 20.7879 85.5123 23.2482C85.5479 24.4606 85.5836 25.7621 85.1557 26.9031C84.7813 27.9371 84.0147 28.3293 82.9628 28.5433C80.7877 29.0068 78.47 28.5968 76.2771 28.5076C73.068 28.3828 69.8946 28.7751 66.7389 29.3277C63.7081 29.8448 60.8199 30.7005 57.9139 29.2208C55.2396 27.8658 53.225 25.8512 51.3352 23.5513C49.8911 21.8041 48.4113 20.0748 46.4502 18.9873C58.7518 8.30804 74.7796 1.81851 92.2871 1.81851ZM25.7336 119.022C22.364 119.361 18.8162 118.381 16.1241 116.33C14.68 115.225 13.4677 113.745 12.8971 112.016C12.2553 110.037 12.8437 108.04 13.3429 106.115C13.5033 105.509 12.8972 104.724 12.2197 105.009C9.29582 106.239 4.85654 108.165 2.5745 104.849C0.595546 101.979 3.18068 96.8439 6.88898 97.3431C7.47732 97.4322 8.2796 96.9509 8.01217 96.2378C5.65882 90.2118 10.1337 83.2052 14.8761 79.693C19.1193 76.5374 26.7677 75.1646 30.0302 80.424C30.2977 80.8518 30.7256 80.9053 31.1 80.7805C31.6705 81.2976 32.8293 80.8162 32.5797 79.8891C32.241 78.6411 35.6284 77.6427 36.4485 77.3931C38.0709 76.9296 39.6219 77.1792 41.2265 77.7319C44.5604 78.855 49.5167 82.1533 46.8959 86.1469C46.3789 86.9313 47.3773 87.8049 48.1439 87.3949C51.1034 85.7546 53.8312 89.7304 54.6156 92.1372C55.4892 94.8115 55.4357 97.9136 53.8847 100.338C51.6026 103.922 45.5588 107.381 41.7257 104.047C41.1017 103.512 40.2637 103.904 40.1746 104.688C39.818 108.397 38.8375 111.766 35.9315 114.262C33.0967 116.687 29.5311 118.648 25.7336 119.022ZM50.9608 124.906C50.6934 125.779 50.2833 126.689 50.3546 127.616C45.5945 124.032 41.3156 119.843 37.6073 115.172C37.8391 114.958 38.053 114.726 38.2848 114.494C40.4599 112.176 41.3691 109.252 41.8148 106.204C45.541 108.218 50.2477 106.489 53.2963 103.744C55.1505 102.068 56.4876 99.9104 56.862 97.4144C57.2899 94.4906 56.7016 91.2458 55.0079 88.7855C53.6707 86.8422 51.5848 85.1307 49.3028 85.2198C50.5151 80.8162 45.4518 77.1614 41.4761 75.8955C39.301 75.2002 37.2864 75.1468 35.1292 75.9134C33.7742 76.3947 31.6705 77.2861 30.9752 78.7302C28.9071 76.0916 25.7158 75.0754 22.4888 75.1646C22.4354 74.0235 22.3819 72.8825 22.3819 71.7237C22.3819 63.7187 23.7546 56.0169 26.2506 48.8498C34.0951 54.1449 44.0434 53.8418 52.6189 57.2292C55.8636 58.5128 58.6627 60.6344 59.9285 63.9683C61.4974 68.0867 60.9982 72.6864 61.1765 77.0009C61.2656 79.2473 61.5152 81.5472 62.2284 83.6866C62.9593 85.8795 64.1538 87.7514 65.6336 89.5343C68.807 93.3496 71.4991 97.7532 72.3727 102.727C72.7828 105.098 72.7115 107.559 72.2123 109.93C71.7309 112.141 70.9464 114.655 69.5915 116.491C67.6838 119.094 63.1198 116.901 60.7843 116.134C58.1991 115.296 52.6188 112.889 50.7469 116.152C49.7485 117.881 50.5329 120.128 50.9786 121.911C51.2282 122.998 51.2995 123.818 50.9608 124.906ZM75.6888 139.632C72.0697 138.741 68.5753 137.6 65.2057 136.173C65.491 135.478 65.5623 134.711 65.6336 133.98C65.7405 132.964 65.8297 131.93 66.1684 130.967C66.4359 130.201 66.9172 129.613 67.5769 129.416C68.4683 129.149 69.4489 129.131 70.3759 129.149C71.4813 129.167 72.5688 129.274 73.6564 129.488C74.4765 129.648 75.457 129.844 76.1167 130.201C76.9368 130.629 77.7747 131.324 77.953 132.269C78.0956 133.018 77.846 133.82 77.5608 134.533C77.1686 135.442 76.6515 136.28 76.2058 137.154C75.8136 137.903 75.457 138.759 75.6888 139.632ZM134.469 127.437C134.326 127.402 134.184 127.384 134.023 127.42C133.025 127.598 132.116 128.115 131.206 128.525C130.743 128.739 130.244 128.953 129.745 129.006C130.458 126.439 131.189 123.729 132.847 121.625C133.275 121.073 133.792 120.574 134.398 120.217C134.665 120.057 134.772 120.003 135.022 119.914C135.075 119.896 135.111 119.896 135.164 119.878C135.218 119.878 135.254 119.878 135.307 119.878C135.325 119.878 135.307 119.878 135.343 119.896C135.36 119.896 135.378 119.914 135.378 119.914C135.396 119.914 135.396 119.914 135.414 119.932C135.432 119.95 135.467 119.967 135.485 119.985C135.539 120.039 135.574 120.092 135.628 120.146C135.628 120.163 135.735 120.288 135.771 120.342C136.02 120.734 136.198 121.162 136.377 121.59C136.805 122.588 137.268 123.729 138.284 124.264H138.302C137.072 125.369 135.788 126.421 134.469 127.437ZM159.179 92.0659C159.019 92.1194 158.858 92.2085 158.734 92.369C157.878 93.4744 156.826 94.4014 155.382 94.4906C153.973 94.5619 152.547 94.2231 151.156 94.0805C149.801 93.9379 148.429 93.8844 147.109 93.5457C146.432 93.3674 145.594 93.1178 145.344 92.3868C144.97 91.2815 145.63 89.8374 146.04 88.839C146.503 87.7158 146.949 86.5748 147.43 85.4516C148.019 84.0966 148.643 82.7417 149.409 81.4758C150.033 80.4418 150.764 79.3008 151.798 78.6411C153.1 77.821 155.025 78.3202 156.416 78.6233C158.181 79.0155 159.892 79.6039 161.675 79.8713C161.693 79.8713 161.693 79.8713 161.711 79.8713C161.212 84.061 160.374 88.1437 159.179 92.0659ZM161.889 78.0884C160.106 77.7854 158.395 77.197 156.63 76.8226C155.007 76.4839 153.118 76.1095 151.531 76.7513C150.176 77.2862 149.213 78.4985 148.411 79.6573C147.413 81.1193 146.646 82.7238 145.951 84.3284C145.398 85.612 144.881 86.9135 144.346 88.215C143.776 89.5878 143.169 91.228 143.562 92.7256C144.275 95.4533 147.912 95.5781 150.176 95.792C151.959 95.9525 153.831 96.4517 155.631 96.2734C156.558 96.1843 157.343 95.8634 158.056 95.3998C154.205 106.079 147.805 115.564 139.604 123.105C139.532 122.945 139.425 122.784 139.229 122.677C139.194 122.659 139.069 122.57 139.033 122.552C138.998 122.517 138.891 122.41 138.855 122.374C138.837 122.339 138.837 122.356 138.837 122.356C138.801 122.321 138.784 122.267 138.748 122.232C138.677 122.125 138.605 122 138.534 121.893C138.284 121.429 138.088 120.948 137.874 120.449C137.464 119.504 136.912 118.47 135.86 118.149C134.469 117.739 133.007 118.826 132.098 119.753C130.868 121.001 130.065 122.606 129.424 124.211C128.728 125.958 128.247 127.758 127.712 129.559C127.569 130.058 127.89 130.504 128.336 130.682C128.728 130.843 129.121 130.878 129.495 130.861C118.709 137.671 105.961 141.629 92.2871 141.629C87.1168 141.629 82.0892 141.041 77.2399 139.971C77.436 139.775 77.543 139.507 77.436 139.151C77.436 139.133 77.4181 139.097 77.4181 139.062C77.4181 139.008 77.4181 138.955 77.4181 138.919C77.436 138.848 77.5073 138.616 77.5251 138.562C77.6143 138.277 77.8282 137.885 78.0065 137.528C78.4879 136.601 79.0049 135.71 79.3793 134.729C79.7359 133.784 79.8963 132.75 79.6824 131.752C79.4149 130.522 78.5057 129.559 77.4895 128.882C75.7066 127.687 73.2107 127.455 71.1426 127.348C69.0745 127.224 66.4715 127.188 65.1166 129.042C64.3499 130.094 64.1182 131.431 63.9577 132.697C63.8864 133.303 63.8329 133.891 63.7438 134.498C63.7081 134.729 63.6725 134.961 63.619 135.175C63.5833 135.3 63.5655 135.371 63.5476 135.425C59.4115 133.553 55.5071 131.288 51.8344 128.685C52.1375 128.507 52.3158 128.168 52.1731 127.741C51.8701 126.849 52.6902 125.583 52.8863 124.728C53.1002 123.765 53.0289 122.873 52.815 121.928C52.5119 120.609 51.2639 117.81 52.5654 116.705C53.5281 115.902 55.4892 116.509 56.5411 116.776C58.4309 117.24 60.2494 117.881 62.1036 118.47C64.8491 119.343 68.6288 120.449 70.8038 117.846C72.1766 116.206 72.9789 113.852 73.5672 111.838C74.2625 109.466 74.5656 106.97 74.3873 104.51C74.0486 99.75 72.0696 95.2929 69.3597 91.4241C67.88 89.3025 65.9723 87.4484 64.7778 85.1307C63.7438 83.1161 63.2624 80.8875 63.0841 78.6411C62.6919 74.0592 63.2981 69.3347 62.1036 64.8597C61.2121 61.5258 59.1975 58.7803 56.238 56.9796C52.1197 54.4836 47.1277 53.6813 42.4923 52.6473C37.2151 51.4885 31.6526 50.3118 27.1064 47.2275C27.0173 47.1561 26.9103 47.1383 26.8211 47.1027C30.6186 37.0118 36.6981 28.0263 44.4178 20.7701C44.7922 21.0197 45.3983 20.9484 45.6836 20.5562C47.6269 21.6437 49.0532 23.6048 50.4438 25.2807C52.1375 27.3131 53.9916 29.0068 56.2737 30.3439C58.6983 31.7702 61.1587 32.0911 63.9042 31.6098C67.2916 31.0214 70.679 30.344 74.1199 30.2548C76.5981 30.2013 79.0584 30.5936 81.5187 30.4688C83.5868 30.3618 85.7797 29.8804 86.6711 27.8123C88.4718 23.6583 85.2092 17.4718 89.2919 14.2271C91.6809 12.3194 94.9078 11.7846 97.4216 10.0731C98.6874 9.21729 99.6324 8.1476 100.559 6.93526C101.469 5.74076 102.36 4.43928 103.715 3.70831C104.107 3.49437 104.214 3.1378 104.143 2.79906C108.725 3.58351 113.164 4.83151 117.389 6.47172C115.197 6.95309 113.146 7.88016 111.114 8.80724C108.867 9.84129 106.639 10.6257 104.286 11.3389C101.059 12.3373 98.4735 13.9597 97.8673 17.5253C97.0116 22.4995 98.7409 27.5984 100.132 32.3051C101.451 36.7265 103.18 41.8789 101.237 46.3895C99.5432 50.3118 95.7993 52.7008 92.9289 55.6603C90.0942 58.5663 88.2578 62.5777 89.6663 66.6248C91.0212 70.4935 94.4799 73.2748 98.01 75.1289C100.06 76.1986 102.271 77.0187 104.446 77.8032C106.568 78.5876 108.85 79.2651 111.132 79.0868C116.302 78.6946 119.743 73.9166 121.811 69.6021C123.897 65.2163 125.038 60.4561 126.928 55.9812C128.425 56.3378 129.78 57.3005 131.26 57.764C133.061 58.3346 134.986 58.4237 136.84 58.3702C139.621 58.2989 142.385 58.0315 145.166 58.1385C147.412 58.2276 150.996 58.3881 152.262 60.6166C152.886 61.7041 152.725 63.0234 152.725 64.2358C152.725 65.4481 152.832 66.6783 153.438 67.7658C154.223 69.1742 155.631 70.03 157.058 70.6896C158.466 71.3315 160.392 71.8307 161.372 73.1143C161.568 73.3639 161.836 73.4709 162.103 73.4887C162.121 75.0576 162.032 76.573 161.889 78.0884ZM155.417 67.4092C153.706 65.3233 155.221 62.2033 153.956 59.8678C152.708 57.5501 149.873 56.8548 147.466 56.5517C144.72 56.213 141.939 56.3556 139.194 56.4982C136.858 56.623 134.487 56.7835 132.205 56.1773C130.19 55.6425 128.532 54.341 126.428 54.0736C126.143 54.0379 125.751 54.2697 125.644 54.5193C123.986 58.2989 122.898 62.3103 121.401 66.1434C119.903 69.9765 117.675 74.5584 113.842 76.5374C109.795 78.6411 104.803 76.1273 101.005 74.5406C97.4216 73.043 93.6598 70.6718 91.8592 67.0883C89.9159 63.2017 91.8057 59.3151 94.6939 56.5161C97.3681 53.9309 100.47 51.6489 102.342 48.3328C104.375 44.6958 104.125 40.6488 103.234 36.7087C102.128 31.8415 100.096 27.1527 99.5967 22.1786C99.4006 20.1105 99.2936 17.5788 100.452 15.7425C101.308 14.3875 102.841 13.7635 104.303 13.2822C106.568 12.5334 108.796 11.8916 110.971 10.911C113.539 9.75214 116.07 8.48633 118.869 8.04062C119.315 7.9693 119.511 7.66622 119.511 7.32748C124.485 9.44906 129.156 12.159 133.453 15.3324C132.579 16.0099 131.777 16.7944 131.082 17.6501C129.121 20.0748 127.98 23.0165 128.372 26.1543C128.693 28.6503 130.065 30.3618 131.741 31.9842C130.761 32.5369 129.816 33.0895 129.121 34.0701C128.104 35.5142 127.73 37.3505 127.908 39.0977C128.193 42.075 129.727 44.9098 132.312 46.4787C136.448 48.9746 141.993 47.9584 145.095 44.3749C147.377 47.9584 152.529 49.4917 156.505 49.8126C157.2 49.8661 157.913 49.8661 158.609 49.8304C160.855 56.623 162.121 63.8435 162.157 71.3849C160.16 69.7091 157.111 69.4951 155.417 67.4092ZM188.4 27.8302C187.116 30.2548 184.995 32.3942 182.41 33.3926C181.34 33.8027 180.163 34.0523 179.004 33.9275C178.594 33.874 176.562 33.5531 176.669 32.8756C176.847 31.7346 175.1 31.2354 174.922 32.3942C174.904 32.5012 174.922 32.5903 174.922 32.6973C174.565 32.7686 174.262 33.0539 174.28 33.5352C174.387 35.1755 174.476 36.8692 174.155 38.4915C173.816 40.2566 172.943 41.5937 171.606 42.7703C168.931 45.1237 165.437 46.8352 161.96 47.6197C158.823 48.3328 155.631 48.1724 152.565 47.2275C150.105 46.4608 147.074 45.1059 146.129 42.5029C145.861 41.7898 144.899 41.5937 144.471 42.289C142.296 45.8547 137.375 47.1205 133.685 45.1772C131.527 44.054 130.262 41.9681 129.816 39.6147C129.531 38.0815 129.709 36.4056 130.636 35.1042C131.385 34.0523 132.651 33.6066 133.72 32.9826C134.202 32.6973 134.326 31.9663 133.899 31.5563C132.258 30.0409 130.636 28.6146 130.208 26.3147C129.691 23.5157 130.796 20.7879 132.579 18.6664C133.988 16.9905 135.788 15.6355 137.963 15.172C140.228 14.6906 142.492 15.3503 144.506 16.4021C145.255 16.7944 146.289 15.9564 145.754 15.1542C143.187 11.3924 143.972 6.48954 147.84 3.95791C150.033 2.53164 152.725 1.83633 155.328 2.4425C157.896 3.04866 159.161 4.90282 160.588 6.95308C160.623 7.00657 160.677 7.04222 160.712 7.07788C161.069 7.95147 162.549 7.47011 162.388 6.40041C162.388 6.45389 163.084 5.79424 163.208 5.68727C163.547 5.41984 163.922 5.17025 164.278 4.93848C165.241 4.31448 166.239 3.76181 167.327 3.36958C169.876 2.4425 172.622 2.38902 175.154 3.42306C177.239 4.29666 179.308 5.7051 180.484 7.68405C181.144 8.80724 181.5 10.0909 181.286 11.4102C181.073 12.7295 180.591 13.9775 180.573 15.3324C180.555 16.0812 181.34 16.3843 181.928 16.1169C184.906 14.8332 187.954 17.0083 189.113 19.736C190.236 22.339 189.701 25.3877 188.4 27.8302Z" fill="#0065B2"/>
</svg>
