<svg width="163" height="165" viewBox="0 0 163 165" fill="none" xmlns="http://www.w3.org/2000/svg">
<path d="M59.1983 61.9278C61.8817 60.7565 64.9877 61.5037 67.6389 62.3108C69.2125 62.782 70.785 63.3612 72.3797 63.8758C73.522 64.2342 74.7836 64.5614 75.9729 64.5742C77.1015 63.1915 78.2948 61.8312 79.5627 60.5689C81.6837 58.4076 83.9229 56.3233 86.5028 54.7184C88.5387 53.432 91.0929 52.2161 93.549 53.0644C96.7485 54.1694 97.0856 58.0116 97.0006 60.8761C96.9338 63.0595 96.8446 65.3077 96.7131 67.4688C96.5412 70.3756 95.8833 73.2231 95.6144 76.0964C98.0917 76.9882 100.332 78.7749 102.205 80.5792C104.271 82.5586 106.602 84.9194 107.611 87.6551C108.461 90.0107 107.798 92.3499 105.706 93.7979C103.626 95.2135 101.025 95.7261 98.5885 96.0782C96.163 96.3981 93.751 96.4694 91.2966 96.4537C90.6216 97.8845 90.1828 99.4693 89.5936 100.966C89.0267 102.398 88.2981 103.774 87.505 105.128C86.6237 106.632 85.6555 108.179 84.4522 109.463C83.5445 110.416 82.464 111.345 81.1219 111.46C78.7734 111.662 77.2831 109.483 76.4057 107.625C75.2532 105.201 74.6772 102.47 74.1323 99.8583C73.6809 97.6044 73.3699 95.3627 73.07 93.0888C72.7891 93.0641 72.5294 93.083 72.0635 93.1753C71.4136 93.2764 70.8384 93.4756 70.2197 93.696C68.7002 94.2202 67.2119 94.8638 65.7025 95.4638C62.814 96.6004 59.4484 97.8616 56.3447 96.8982C50.4604 95.083 55.3051 87.0257 57.2404 84.0406C58.4606 82.1831 59.8548 80.2411 61.5152 78.6803C60.652 77.514 59.7887 76.3477 58.9912 75.0956C57.5768 72.907 56.1434 70.4586 55.8583 67.828C55.5619 65.2297 56.808 62.9833 59.1983 61.9278ZM58.5582 67.1327C58.6753 69.3073 59.8859 71.3532 61.0342 73.1605C62.3205 75.1964 63.8355 77.0942 65.2523 79.0667C66.2536 80.4615 64.2801 81.9864 63.1894 80.8501C62.8939 81.1821 62.6095 81.4818 62.314 81.8138C61.5367 82.7029 60.8017 83.6789 60.1425 84.645C58.7371 86.6194 57.4599 88.7466 56.6562 91.0735C56.5111 91.4936 56.433 91.7198 56.3514 92.2704C56.3056 92.5078 56.2921 92.7563 56.2897 92.9726C56.2786 93.0049 56.2897 92.9726 56.3109 93.016C56.3097 93.1242 56.3409 93.2434 56.3397 93.3516C56.3286 93.3839 56.3709 93.4708 56.3809 93.5466C56.402 93.5901 56.4232 93.6336 56.4443 93.6771L56.4655 93.7206C56.4866 93.764 56.5289 93.851 56.5936 93.8733C56.6794 93.9391 56.7652 94.0049 56.8509 94.0707C56.5501 93.8945 57.2711 94.2158 57.2387 94.2046C59.7396 94.9237 62.7497 93.5397 65.0518 92.6346C66.6047 92.0134 68.1042 91.3376 69.6883 90.8357C70.9904 90.4172 72.3571 90.0211 73.7279 90.2413C74.2785 90.3229 74.5993 90.6508 74.7463 91.0633C75.2099 91.1872 75.6388 91.5162 75.7076 92.1549C76.2673 96.3996 76.7936 100.741 78.2317 104.747C78.4098 105.278 78.6313 105.789 78.8529 106.3C79.1068 106.821 79.2014 107.071 79.4464 107.409C79.5957 107.605 79.7126 107.79 79.8619 107.987C79.8831 108.03 79.9154 108.041 79.9365 108.085C79.9577 108.128 80.0111 108.183 80.0435 108.194C80.1827 108.314 80.3009 108.391 80.4401 108.512C80.1181 108.292 80.6129 108.535 80.634 108.579C80.6664 108.59 80.6987 108.601 80.6987 108.601C80.7744 108.591 80.8503 108.581 80.9261 108.571C81.382 108.403 81.6764 108.179 82.1024 107.784C83.184 106.746 84.0095 105.404 84.8126 104.126C85.6492 102.751 86.4112 101.278 87.0005 99.7809C87.6567 98.0904 88.109 96.2571 88.9802 94.677C89.2558 94.1934 89.6917 93.8737 90.2 93.8684C90.4609 93.7415 90.7429 93.658 91.0672 93.6615C91.1754 93.6627 91.2512 93.6527 91.3593 93.6538C91.3916 93.665 91.3593 93.6538 91.3916 93.665C91.5755 93.6562 91.7483 93.6797 91.9322 93.6708C92.4081 93.6543 92.8729 93.6702 93.3489 93.6537C94.4412 93.633 95.5447 93.5801 96.6381 93.4513C98.8028 93.2584 101.044 92.9474 103.054 92.05C103.782 91.7227 104.381 91.3507 104.831 90.7824C104.962 90.6109 105.106 90.2989 105.119 90.1584C105.21 89.6836 105.211 89.5755 105.077 89.0226C104.591 86.9737 102.602 84.8762 101.094 83.3786C99.9172 82.1764 98.6638 81.0924 97.3011 80.1154C96.3786 79.435 95.057 78.6531 94.1297 78.4052C93.3964 78.2242 92.8405 77.6343 92.968 76.8464C92.9791 76.8141 92.9903 76.7818 93.0015 76.7494C92.8634 76.5209 92.7687 76.2712 92.7834 75.9145C92.9607 73.516 93.4511 71.1532 93.7365 68.7559C93.9626 66.8444 93.9078 64.9083 94.0369 62.9634C94.1414 61.2993 94.3005 59.5818 94.0371 57.9354C93.946 57.3614 93.7468 56.7861 93.4059 56.3067C93.2144 56.0235 92.9247 55.8149 92.7096 55.7045C92.4411 55.5394 92.2683 55.5159 91.7712 55.4889C91.8035 55.5001 91.555 55.4866 91.3599 55.5277C91.2083 55.5477 90.8182 55.63 90.7858 55.6188C89.7123 55.8992 88.7223 56.4616 87.7969 57.0463C85.6082 58.4608 83.6212 60.2343 81.7522 62.0847C80.1341 63.7324 78.526 65.4559 77.1541 67.3334C76.5284 68.2025 75.5043 67.9211 75.0142 67.2454C73.0158 67.0617 71.0555 66.3485 69.2134 65.7123C66.8865 64.9086 64.281 63.8641 61.7486 64.0746C60.8178 64.1511 59.8413 64.465 59.1967 65.0743C58.6603 65.6849 58.5229 66.397 58.5582 67.1327Z" fill="#F9F126" stroke="#F9F126" stroke-width="2"/>
<path d="M87.3413 80.473C87.0781 80.8162 86.6545 80.9954 86.2543 81.0019C85.8218 80.9973 85.4452 80.831 85.1678 80.482C84.5919 79.7405 84.4608 78.8633 84.5783 77.9995C84.5894 77.9672 84.5683 77.9237 84.5794 77.8914C84.6241 77.7621 84.6576 77.6652 84.6699 77.5247C84.6811 77.4924 84.7245 77.4712 84.7357 77.4389C84.9254 76.8895 85.1799 76.3624 85.5847 75.9235C85.7486 75.763 85.9125 75.6026 86.1299 75.4968C86.4231 75.3811 86.7151 75.3734 87.0171 75.4415C87.5454 75.5878 87.9409 76.0138 87.9997 76.5767C88.0097 76.6525 88.0197 76.7283 88.0185 76.8364C88.0608 76.9234 88.1466 76.9892 88.1566 77.065C88.2835 77.3258 88.3024 77.5856 88.3101 77.8776C88.3077 78.0938 88.3054 78.31 88.2272 78.5363C88.1479 78.8706 88.0475 79.1615 87.9035 79.4735C87.7919 79.7967 87.5934 80.1622 87.3413 80.473Z" fill="#F9F126" stroke="#F9F126" stroke-width="2"/>
<path d="M81.9259 75.3103C81.6269 75.9667 81.1675 76.4591 80.6322 76.9616C80.3155 77.2501 79.8284 77.2989 79.4406 77.165C79.2679 77.1415 79.0851 77.0422 78.9458 76.9217C78.7419 76.779 78.625 76.5939 78.5192 76.3765C78.1161 75.6585 78.0073 74.7166 78.3398 73.9633C78.5954 73.3281 79.1629 72.8368 79.7828 72.5083C79.9467 72.3479 80.1106 72.1875 80.3169 72.114C80.4362 72.0828 80.5554 72.0517 80.6635 72.0528C80.8586 72.0117 81.0537 71.9706 81.2265 71.9941C81.572 72.041 81.9375 72.2396 82.1291 72.5228C82.3206 72.806 82.4787 73.1862 82.3883 73.5528C82.2755 73.9841 82.1515 74.4477 82.0064 74.8679C81.9941 75.0083 81.9706 75.1811 81.9259 75.3103Z" fill="#F9F126" stroke="#F9F126" stroke-width="2"/>
<path d="M75.0285 75.8957C74.3836 79.5435 75.3158 83.3381 78.788 85.2245C80.2822 86.03 81.8893 86.4042 83.6092 86.3471C84.9935 86.3188 86.9108 86.0042 87.6604 84.6715C88.0241 84.0375 88.7421 83.6344 89.4631 83.9557C90.0872 84.2436 90.5426 85.1244 90.1789 85.7584C88.2948 89.0144 84.029 89.5306 80.6309 88.7911C77.0278 88.0169 73.8111 85.4952 72.6492 81.9469C71.958 79.8634 71.8956 77.6352 72.2867 75.4553C72.6186 73.7612 75.3392 74.1582 75.0285 75.8957Z" fill="#F9F126" stroke="#F9F126" stroke-width="2"/>
<path d="M61.5857 121.316C61.9494 120.682 62.6673 120.279 63.3883 120.6C64.0235 120.856 64.4679 121.769 64.1042 122.403C60.6896 128.205 58.4796 134.604 55.4093 140.561C54.6138 142.131 52.063 141.033 52.8908 139.474C55.9611 133.517 58.2034 127.129 61.5857 121.316Z" fill="#F9F126" stroke="#F9F126" stroke-width="2"/>
<path d="M125.5 110.111C128.787 112.115 132.02 114.172 135.406 115.992C136.051 116.324 136.443 117.074 136.122 117.795C135.834 118.419 134.953 118.875 134.319 118.511C130.718 116.58 127.282 114.38 123.779 112.266C123.157 111.87 123.146 110.854 123.541 110.339C124.088 109.696 124.877 109.716 125.5 110.111Z" fill="#F9F126" stroke="#F9F126" stroke-width="2"/>
<path d="M24.7426 56.5376C31.0055 61.3412 38.2442 64.8902 45.6104 67.6513C47.2798 68.2641 46.1818 70.8149 44.5236 70.1698C36.9312 67.3306 29.4885 63.6388 23.0541 58.7035C21.6491 57.6395 23.3376 55.4736 24.7426 56.5376Z" fill="#F9F126" stroke="#F9F126" stroke-width="2"/>
<path d="M102.748 44.7734C101.952 46.3435 99.4015 45.2455 100.229 43.6866C103.509 37.3316 107.134 31.1317 110.575 24.8325C111.435 23.2848 113.954 24.3716 113.094 25.9194C109.62 32.2074 106.028 38.4184 102.748 44.7734Z" fill="#F9F126" stroke="#F9F126" stroke-width="2"/>
<path d="M58.4678 20.5818C59.1079 24.384 59.6176 28.2497 60.7238 31.9596C60.943 32.6864 60.7074 33.4732 59.9583 33.7571C59.3284 34.0098 58.38 33.7184 58.1608 32.9916C56.9489 29.0643 56.4092 24.9712 55.7067 20.9304C55.4445 19.1759 58.1621 18.8484 58.4678 20.5818Z" fill="#F9F126" stroke="#F9F126" stroke-width="2"/>
<path d="M127.862 70.5948C132.254 70.4475 136.495 69.1633 140.775 68.3986C142.508 68.0929 142.868 70.8216 141.134 71.1273C136.823 71.8809 132.613 73.1763 128.222 73.3235C127.486 73.3588 126.766 72.9294 126.677 72.1391C126.588 71.4569 127.094 70.6189 127.862 70.5948Z" fill="#F9F126" stroke="#F9F126" stroke-width="2"/>
<path d="M93.3363 127.726C93.9985 127.484 94.8822 127.753 95.1338 128.491C95.9595 131.128 96.7418 133.785 97.2209 136.483C97.3432 137.176 96.7398 137.981 96.0364 138.027C95.2573 138.084 94.6245 137.612 94.4922 136.843C94.3799 136.225 94.2353 135.596 94.0907 134.968C94.0184 134.653 93.9461 134.339 93.8738 134.025C93.8215 133.862 93.7804 133.667 93.7281 133.504C93.7181 133.428 93.6757 133.341 93.6769 133.233C93.7081 133.352 93.7081 133.352 93.6769 133.233C93.3442 131.997 92.9469 130.738 92.5819 129.491C92.3727 128.84 92.5872 128.01 93.3363 127.726Z" fill="#F9F126"/>
<path d="M93.6769 133.233C93.6757 133.341 93.7181 133.428 93.7281 133.504C93.7804 133.667 93.8215 133.862 93.8738 134.025C93.9461 134.339 94.0184 134.653 94.0907 134.968C94.2353 135.596 94.3799 136.225 94.4922 136.843C94.6245 137.612 95.2573 138.084 96.0364 138.027C96.7398 137.981 97.3432 137.176 97.2209 136.483C96.7418 133.785 95.9595 131.128 95.1338 128.491C94.8822 127.753 93.9985 127.484 93.3363 127.726C92.5872 128.01 92.3727 128.84 92.5819 129.491C92.9469 130.738 93.3442 131.997 93.6769 133.233ZM93.6769 133.233C93.7081 133.352 93.7081 133.352 93.6769 133.233Z" stroke="#F9F126" stroke-width="2"/>
<path d="M30.42 104.729C31.9083 104.086 33.4501 103.497 34.9919 102.908C35.6652 102.634 36.5378 102.935 36.7893 103.673C37.0197 104.368 36.773 105.187 36.0238 105.471C34.4821 106.06 32.9726 106.66 31.452 107.292C30.7786 107.566 29.9172 107.232 29.6545 106.527C29.4029 105.789 29.7032 105.024 30.42 104.729Z" fill="#F9F126" stroke="#F9F126" stroke-width="2"/>
<path d="M14.7816 110.83C16.4338 110.026 18.0749 109.254 19.7271 108.45C20.3793 108.133 21.2942 108.521 21.5246 109.216C21.7762 109.954 21.4548 110.675 20.7591 111.013L15.8136 113.393C15.1614 113.71 14.2465 113.322 14.0161 112.627C13.7646 111.889 14.0859 111.168 14.7816 110.83Z" fill="#F9F126" stroke="#F9F126" stroke-width="2"/>
</svg>
