<svg width="46" height="44" viewBox="0 0 46 44" fill="none" xmlns="http://www.w3.org/2000/svg">
<path d="M20.1468 2.89639C21.0449 0.132458 24.9551 0.132455 25.8532 2.89639L29.0619 12.7718C29.4635 14.0078 30.6154 14.8447 31.915 14.8447H42.2986C45.2048 14.8447 46.4131 18.5636 44.062 20.2718L35.6615 26.3751C34.61 27.139 34.1701 28.4931 34.5717 29.7292L37.7804 39.6046C38.6784 42.3685 35.515 44.6669 33.1639 42.9587L24.7634 36.8554C23.7119 36.0914 22.2881 36.0914 21.2366 36.8554L12.8361 42.9587C10.485 44.6669 7.32156 42.3685 8.21961 39.6046L11.4283 29.7292C11.8299 28.4931 11.39 27.139 10.3385 26.3751L1.938 20.2718C-0.413139 18.5636 0.795185 14.8447 3.70135 14.8447H14.085C15.3846 14.8447 16.5365 14.0078 16.9381 12.7718L20.1468 2.89639Z" fill="#F9F126"/>
</svg>
